<?xml version="1.0" standalone="no"?>
<!DOCTYPE svg PUBLIC "-//W3C//DTD SVG 1.1//EN" "http://www.w3.org/Graphics/SVG/1.1/DTD/svg11.dtd" >
<svg xmlns="http://www.w3.org/2000/svg" xmlns:xlink="http://www.w3.org/1999/xlink" version="1.1">
<metadata>
Created by FontForge 20201107 at Mon Sep  2 17:38:15 2019
 By 
Copyright 2019 The Livvic Project Authors (https://github.com/Fonthausen/Livvic)
</metadata>
<defs>
<font id="Livvic-Black" horiz-adv-x="0" >
  <font-face 
    font-family="Livvic Black"
    font-weight="900"
    font-stretch="normal"
    units-per-em="1000"
    panose-1="0 0 0 0 0 0 0 0 0 0"
    ascent="800"
    descent="-200"
    x-height="514"
    cap-height="710"
    bbox="-162 -259 1393 1171"
    underline-thickness="50"
    underline-position="-125"
    unicode-range="U+000D-FB02"
  />
<missing-glyph horiz-adv-x="290" 
 />
    <glyph glyph-name="f_f" unicode="ff" horiz-adv-x="762" 
d="M84 0v361h-93v153h93v4q0 73 32.5 124.5t88.5 79.5t125 28q58 0 102 -20t68 -63q34 40 84.5 61.5t111.5 21.5q80 0 133 -39.5t63 -126.5l-161 -19q-5 29 -41 29q-26 0 -41 -16.5t-15 -46.5v-17h123v-153h-121v-361h-186v361h-75v153h75v4q0 30 6 58l-91 -11q-5 29 -41 29
q-26 0 -41 -16.5t-15 -46.5v-17h77v-153h-75v-361h-186z" />
    <glyph glyph-name="f_f_i" unicode="ffi" horiz-adv-x="1055" 
d="M84 0v361h-93v153h93v4q0 73 33 124.5t88.5 79.5t124.5 28q80 0 133 -39.5t63 -126.5l-161 -19q-5 29 -41 29q-26 0 -41 -16.5t-15 -46.5v-17h123v-153h-121v-361h-186zM460 0v361h-93v153h93v4q0 73 32 124.5t84.5 79.5t114.5 28q84 0 127 -37l-74 -131q-17 12 -46 12
q-25 0 -39.5 -16.5t-14.5 -46.5v-17h123v-153h-121v-361h-186zM1003 514v-514h-186v514h186zM909 553q-52 0 -83 31.5t-31 75.5t30.5 75.5t83.5 31.5t83.5 -31.5t30.5 -75.5t-30.5 -75.5t-83.5 -31.5z" />
    <glyph glyph-name="f_f_j" unicode="ffj" horiz-adv-x="1083" 
d="M84 0v361h-93v153h93v4q0 73 33 124.5t88.5 79.5t124.5 28q80 0 133 -39.5t63 -126.5l-161 -19q-5 29 -41 29q-26 0 -41 -16.5t-15 -46.5v-17h123v-153h-121v-361h-186zM460 0v361h-93v153h93v4q0 73 32 124.5t84.5 79.5t114.5 28q84 0 127 -37l-74 -131q-17 12 -46 12
q-25 0 -39.5 -16.5t-14.5 -46.5v-17h123v-153h-121v-361h-186zM775 -194q-35 0 -66.5 4t-54.5 11l22 152q14 -3 40 -7t52 -4q39 0 58 17t19 63v472h186v-469q0 -77 -32.5 -130.5t-90 -81t-133.5 -27.5zM937 553q-52 0 -83 31.5t-31 75.5t30.5 75.5t83.5 31.5t83.5 -31.5
t30.5 -75.5t-30.5 -75.5t-83.5 -31.5z" />
    <glyph glyph-name="f_f_l" unicode="ffl" horiz-adv-x="1099" 
d="M84 0v361h-93v153h93v4q0 73 33 124.5t88.5 79.5t124.5 28q80 0 133 -39.5t63 -126.5l-161 -19q-5 29 -41 29q-26 0 -41 -16.5t-15 -46.5v-17h123v-153h-121v-361h-186zM460 0v361h-93v153h93v4q0 73 32 124.5t84.5 79.5t114.5 28q84 0 127 -37l-74 -131q-17 12 -46 12
q-25 0 -39.5 -16.5t-14.5 -46.5v-17h123v-153h-121v-361h-186zM1000 -11q-83 0 -129.5 45t-46.5 131v575h186v-558q0 -19 10 -27.5t26 -8.5q20 0 35 11l43 -132q-18 -15 -51 -25.5t-73 -10.5z" />
    <glyph glyph-name="f_i" unicode="fi" horiz-adv-x="679" 
d="M84 0v361h-93v153h93v4q0 73 32 124.5t84.5 79.5t114.5 28q84 0 127 -37l-74 -131q-17 12 -46 12q-25 0 -39.5 -16.5t-14.5 -46.5v-17h123v-153h-121v-361h-186zM627 514v-514h-186v514h186zM533 553q-52 0 -83 31.5t-31 75.5t30.5 75.5t83.5 31.5t83.5 -31.5t30.5 -75.5
t-30.5 -75.5t-83.5 -31.5z" />
    <glyph glyph-name="f_l" unicode="fl" horiz-adv-x="723" 
d="M84 0v361h-93v153h93v4q0 73 32 124.5t84.5 79.5t114.5 28q84 0 127 -37l-74 -131q-17 12 -46 12q-25 0 -39.5 -16.5t-14.5 -46.5v-17h123v-153h-121v-361h-186zM624 -11q-83 0 -129.5 45t-46.5 131v575h186v-558q0 -19 10 -27.5t26 -8.5q20 0 35 11l43 -132
q-18 -15 -51 -25.5t-73 -10.5z" />
    <glyph glyph-name=".notdef" horiz-adv-x="290" 
 />
    <glyph glyph-name=".null" 
 />
    <glyph glyph-name="nonmarkingreturn" horiz-adv-x="333" 
 />
    <glyph glyph-name="CR" unicode="&#xd;" horiz-adv-x="262" 
 />
    <glyph glyph-name="space" unicode=" " horiz-adv-x="262" 
 />
    <glyph glyph-name="exclam" unicode="!" horiz-adv-x="308" 
d="M90 269l-35 471h212l-48 -471h-129zM154 -11q-52 0 -84 31t-32 79q0 49 32 79.5t84 30.5t83.5 -30.5t31.5 -79.5t-31.5 -79.5t-83.5 -30.5z" />
    <glyph glyph-name="quotedbl" unicode="&#x22;" horiz-adv-x="547" 
d="M86 310l-39 400h199l-39 -400h-121zM340 310l-39 400h199l-39 -400h-121z" />
    <glyph glyph-name="numbersign" unicode="#" horiz-adv-x="600" 
d="M39 0l37 174h-75l30 140h74l17 81h-74l30 140h74l37 175h154l-37 -175h64l37 175h154l-37 -175h75l-30 -140h-75l-17 -81h75l-30 -140h-74l-37 -174h-154l37 174h-64l-37 -174h-154zM259 314h64l17 81h-64z" />
    <glyph glyph-name="dollar" unicode="$" horiz-adv-x="600" 
d="M237 -120v114q-102 12 -159.5 68t-64.5 151l185 27q2 -38 26.5 -61.5t79.5 -23.5q37 0 59 12t22 36q0 23 -25 35.5t-64 22.5t-83 23.5t-83 36.5t-64 63t-25 103q0 85 53.5 145t142.5 79v119h127v-113q83 -12 138 -64t64 -134l-176 -30q-5 29 -23 47.5t-58 18.5
q-26 0 -46.5 -13.5t-20.5 -36.5q0 -25 25 -39.5t64 -24.5t83.5 -23t83.5 -35t64 -60t25 -100q0 -60 -28 -107.5t-78 -78.5t-117 -42v-115h-127z" />
    <glyph glyph-name="percent" unicode="%" horiz-adv-x="875" 
d="M214 367q-84 0 -136 46t-52 125q0 53 26.5 94.5t71.5 65.5t102 24q86 0 136 -45.5t50 -125.5q0 -55 -25 -96t-69.5 -64.5t-103.5 -23.5zM90 0l534 710h161l-535 -710h-160zM216 479q32 0 50 19.5t18 52.5q0 28 -16 43.5t-45 15.5q-32 0 -50 -18.5t-18 -52.5q0 -60 61 -60
zM652 -9q-85 0 -137 46.5t-52 124.5q0 54 26 95.5t71.5 65t103.5 23.5q86 0 135.5 -46t49.5 -125q0 -53 -25 -95t-69.5 -65.5t-102.5 -23.5zM653 103q31 0 49.5 20t18.5 53q0 29 -17 43.5t-46 14.5q-31 0 -49 -19t-18 -51q0 -30 16.5 -45.5t45.5 -15.5z" />
    <glyph glyph-name="ampersand" unicode="&#x26;" horiz-adv-x="860" 
d="M343 -8q-90 0 -159 28.5t-107.5 78t-38.5 112.5q0 67 30 110t74 71q-27 32 -41.5 65.5t-14.5 74.5q0 53 30 94.5t82.5 65.5t121.5 24q95 0 151.5 -43.5t56.5 -121.5q0 -45 -19 -76t-49 -53t-65 -40l158 -143q19 30 29 66h-66v147h297v-147h-74q-18 -85 -69 -154
q30 -11 63 -10q23 0 38 4.5t34 14.5l41 -134q-58 -41 -149 -38q-93 3 -165 47q-42 -21 -89.5 -32t-99.5 -11zM262 534q0 -14 7 -27t31 -36q31 15 51 32.5t20 41.5q0 18 -13.5 27t-35.5 9q-28 0 -44 -12.5t-16 -34.5zM230 234q0 -43 36.5 -69.5t94.5 -26.5q24 0 46 4
l-159 148q-18 -25 -18 -56z" />
    <glyph glyph-name="quotesingle" unicode="'" horiz-adv-x="293" 
d="M86 310l-39 400h199l-39 -400h-121z" />
    <glyph glyph-name="parenleft" unicode="(" horiz-adv-x="379" 
d="M328 -218q-146 82 -218 209.5t-72 275.5t72 275.5t218 210.5l70 -90q-56 -49 -94 -105.5t-57.5 -127.5t-20.5 -163q-1 -91 19 -162t58.5 -127.5t94.5 -105.5z" />
    <glyph glyph-name="parenright" unicode=")" horiz-adv-x="379" 
d="M51 -218l-70 90q56 49 94.5 105.5t58.5 127.5t19 162q-1 92 -21 163t-57.5 127.5t-93.5 105.5l70 90q146 -83 218 -210.5t72 -275.5t-72 -275.5t-218 -209.5z" />
    <glyph glyph-name="asterisk" unicode="*" horiz-adv-x="442" 
d="M397 492q26 -14 32 -38t-9 -49q-14 -25 -37.5 -31.5t-49.5 7.5q-21 12 -35.5 35.5t-48.5 54.5q11 -45 23.5 -69t12.5 -49q0 -28 -17.5 -45.5t-46.5 -17.5q-28 0 -46 17.5t-18 45.5q0 25 12.5 49t22.5 68q-33 -31 -47.5 -54t-35.5 -35q-25 -14 -49 -7.5t-38 31.5
q-15 25 -8.5 49t31.5 38q20 12 47.5 13.5t71.5 14.5q-44 14 -71.5 14.5t-47.5 13.5q-25 14 -31.5 38t8.5 49q14 26 38 32t49 -8q21 -12 35.5 -34.5t47.5 -54.5q-10 44 -22.5 68t-12.5 49q0 29 18 46t46 17q29 0 46.5 -17t17.5 -46q0 -25 -12.5 -49t-23.5 -69q34 32 48.5 55
t35.5 35q26 14 49.5 8t37.5 -32q15 -25 9 -49t-32 -38q-20 -13 -47.5 -13.5t-71.5 -14.5q44 -13 71.5 -14.5t47.5 -13.5z" />
    <glyph glyph-name="plus" unicode="+" horiz-adv-x="600" 
d="M210 514h179v-173h168v-168h-168v-173h-179v173h-167v168h167v173z" />
    <glyph glyph-name="comma" unicode="," horiz-adv-x="315" 
d="M33 -201q21 48 32 86.5t11 69.5q0 36 -10 61l-20 50t-10 59q0 42 33.5 72.5t88.5 30.5q58 0 90.5 -34.5t32.5 -97.5q0 -42 -20.5 -95t-55 -106.5t-78.5 -95.5h-94z" />
    <glyph glyph-name="hyphen" unicode="-" horiz-adv-x="453" 
d="M60 176v165h333v-165h-333z" />
    <glyph glyph-name="period" unicode="." horiz-adv-x="315" 
d="M157 -11q-58 0 -91.5 34.5t-33.5 85.5q0 52 33.5 86.5t91.5 34.5t92 -34.5t34 -86.5q0 -51 -34 -85.5t-92 -34.5z" />
    <glyph glyph-name="slash" unicode="/" horiz-adv-x="416" 
d="M0 -200l250 940h173l-250 -940h-173z" />
    <glyph glyph-name="zero" unicode="0" horiz-adv-x="600" 
d="M306 -11q-139 -2 -210.5 84t-71.5 269q0 112 34 197t98.5 133t156.5 48q126 0 194.5 -88t68.5 -263q0 -107 -31.5 -192.5t-91.5 -135.5t-147 -52zM300 156q45 0 63.5 55t18.5 155q0 94 -17.5 141t-58.5 47q-45 0 -66 -54.5t-21 -152.5q0 -97 17.5 -144t63.5 -47z" />
    <glyph glyph-name="one" unicode="1" horiz-adv-x="599" 
d="M81 0v154h160v304l-96 -67l-91 135l270 184h109v-556h147v-154h-499z" />
    <glyph glyph-name="two" unicode="2" horiz-adv-x="600" 
d="M50 0v130q96 62 160.5 126t97.5 123t33 103q0 69 -68 69q-39 0 -66.5 -24.5t-39.5 -59.5l-139 77q18 52 57 91.5t94 62t119 22.5q74 0 127 -28t81 -76.5t27 -110.5q0 -88 -54 -177t-178 -174h248v-154h-499z" />
    <glyph glyph-name="three" unicode="3" horiz-adv-x="600" 
d="M245 -11q-58 0 -113.5 13t-84.5 32l42 166q35 -20 76 -31t90 -11q61 0 82 19.5t21 43.5q0 30 -27 45.5t-86 15.5h-46v151h43q41 0 62.5 10t29.5 25t8 30q0 23 -15.5 38t-50.5 15q-43 0 -70 -24.5t-39 -59.5l-139 77q18 52 57 91.5t94.5 62t119.5 22.5q69 0 122 -23.5
t82.5 -68t29.5 -107.5q0 -46 -26 -89.5t-77 -65.5q58 -17 88.5 -55.5t30.5 -98.5q0 -62 -37.5 -113t-106 -80.5t-160.5 -29.5z" />
    <glyph glyph-name="four" unicode="4" horiz-adv-x="600" 
d="M318 0v152h-297v131l348 429h135v-417h100v-143h-100v-152h-186zM199 295h119v146z" />
    <glyph glyph-name="five" unicode="5" horiz-adv-x="600" 
d="M240 -11q-26 0 -62 4t-71 14.5t-60 27.5l42 168q35 -20 75.5 -32.5t86.5 -12.5q51 0 79 17.5t28 56.5q0 22 -12.5 38t-44 25.5t-90.5 11.5l-124 5l33 398h392v-154h-219l-8 -93q125 -9 194.5 -65.5t69.5 -163.5q0 -69 -38 -124.5t-107.5 -88t-163.5 -32.5z" />
    <glyph glyph-name="six" unicode="6" horiz-adv-x="600" 
d="M321 -11q-88 0 -152.5 37.5t-99.5 116.5t-35 203q0 91 25.5 161t69.5 117.5t100.5 71.5t118.5 24q174 0 241 -153l-157 -76q-13 30 -34.5 45t-56.5 15q-49 0 -81.5 -39t-35.5 -111q29 28 65 40.5t75 12.5q57 0 108.5 -24t84 -72.5t32.5 -122.5q0 -67 -32.5 -123
t-92.5 -89.5t-143 -33.5zM319 143q32 0 55.5 20.5t23.5 54.5q0 37 -20.5 59.5t-58.5 22.5q-36 0 -58 -23t-22 -56q0 -40 24.5 -59t55.5 -19z" />
    <glyph glyph-name="seven" unicode="7" horiz-adv-x="600" 
d="M292 0h-201l266 556h-300v154h500v-148z" />
    <glyph glyph-name="eight" unicode="8" horiz-adv-x="600" 
d="M300 -11q-131 0 -207 55.5t-76 149.5q0 56 34.5 102t90.5 67q-51 22 -78.5 63t-27.5 95q0 58 35.5 102.5t95.5 70.5t133 26q74 0 133.5 -26t95 -70.5t35.5 -102.5q0 -54 -27.5 -95t-78.5 -63q56 -21 90.5 -67t34.5 -102q0 -94 -76 -149.5t-207 -55.5zM300 433
q33 0 53 17.5t20 48.5t-19.5 49t-53.5 18q-33 0 -53 -19.5t-20 -49.5t20 -47t53 -17zM300 143q44 0 68.5 18.5t24.5 52.5t-25 52.5t-68 18.5q-42 0 -67.5 -19t-25.5 -53t24.5 -52t68.5 -18z" />
    <glyph glyph-name="nine" unicode="9" horiz-adv-x="600" 
d="M279 723q88 0 152.5 -37.5t99.5 -116.5t35 -203q0 -91 -25.5 -161t-69.5 -117.5t-100.5 -71.5t-118.5 -24q-174 0 -241 153l157 76q13 -30 34.5 -45t56.5 -15q49 0 81.5 39t35.5 111q-29 -28 -65 -40.5t-75 -12.5q-57 0 -108.5 24t-84 72.5t-32.5 122.5q0 67 32.5 123
t92.5 89.5t143 33.5zM281 569q-32 0 -55.5 -20.5t-23.5 -54.5q0 -37 20.5 -59.5t58.5 -22.5q36 0 58 23t22 56q0 40 -24.5 59t-55.5 19z" />
    <glyph glyph-name="colon" unicode=":" horiz-adv-x="315" 
d="M157 -11q-58 0 -91.5 34.5t-33.5 85.5q0 52 33.5 86.5t91.5 34.5t92 -34.5t34 -86.5q0 -51 -34 -85.5t-92 -34.5zM157 282q-58 0 -91.5 34.5t-33.5 85.5q0 52 33.5 86.5t91.5 34.5t92 -34.5t34 -86.5q0 -51 -34 -85.5t-92 -34.5z" />
    <glyph glyph-name="semicolon" unicode=";" horiz-adv-x="315" 
d="M33 -201q21 48 32 86.5t11 69.5q0 36 -10 61l-20 50t-10 59q0 42 33.5 72.5t88.5 30.5q58 0 90.5 -34.5t32.5 -97.5q0 -42 -20.5 -95t-55 -106.5t-78.5 -95.5h-94zM157 282q-58 0 -91.5 34.5t-33.5 85.5q0 52 33.5 86.5t91.5 34.5t92 -34.5t34 -86.5q0 -51 -34 -85.5
t-92 -34.5z" />
    <glyph glyph-name="less" unicode="&#x3c;" horiz-adv-x="600" 
d="M36 189v133l528 208v-166l-286 -108l286 -109v-166z" />
    <glyph glyph-name="equal" unicode="=" horiz-adv-x="600" 
d="M557 457v-148h-514v148h514zM557 206v-148h-514v148h514z" />
    <glyph glyph-name="greater" unicode="&#x3e;" horiz-adv-x="600" 
d="M564 189l-528 -208v166l286 109l-286 108v166l528 -208v-133z" />
    <glyph glyph-name="question" unicode="?" horiz-adv-x="511" 
d="M314 266l-141 7q-10 80 9 129t58 78q27 20 36 28t9 18q0 12 -11 19.5t-37 7.5q-37 0 -69 -22.5t-49 -63.5l-135 77q18 52 57.5 91.5t94.5 62t117 22.5q71 0 120.5 -23.5t76 -64t26.5 -92.5t-22.5 -90.5t-65.5 -71.5q-44 -33 -58.5 -55.5t-15.5 -56.5zM247 -11
q-52 0 -84 31t-32 79q0 49 32 79.5t84 30.5q51 0 83 -30.5t32 -79.5t-32 -79.5t-83 -30.5z" />
    <glyph glyph-name="at" unicode="@" horiz-adv-x="1022" 
d="M527 -212q-112 0 -204 33t-158 94.5t-102 146t-36 187.5q0 107 37 194t106 150.5t164 97.5t211 34q141 0 242 -44.5t154.5 -129t53.5 -203.5q0 -91 -32.5 -164t-88.5 -115.5t-127 -42.5q-110 0 -143 78q-54 -78 -154 -78q-51 0 -94.5 24.5t-70 71.5t-26.5 113
q0 77 35.5 141.5t98.5 103.5t145 39q39 0 73.5 -8t62.5 -26l24 27l96 -45l-42 -248q-9 -51 29 -51q26 0 42.5 50.5t16.5 129.5q0 112 -77 173t-217 61q-105 0 -183.5 -41.5t-121.5 -116t-43 -175.5q0 -98 39.5 -168.5t114 -108.5t177.5 -38q53 0 106.5 10.5t99.5 33.5
l71 -134q-58 -29 -122.5 -42.5t-156.5 -13.5zM498 169q35 0 59.5 31t34.5 87l15 83q-20 9 -47 9q-54 0 -88.5 -39t-34.5 -99q0 -33 15.5 -52.5t45.5 -19.5z" />
    <glyph glyph-name="A" unicode="A" horiz-adv-x="707" 
d="M-39 0l313 710h166l302 -710h-202l-50 127h-275l-52 -127h-202zM283 292h141l-69 174z" />
    <glyph glyph-name="B" unicode="B" horiz-adv-x="662" 
d="M60 0v710h285q140 0 215 -52t75 -149q0 -46 -19 -84.5t-52 -63.5q38 -20 62.5 -58t24.5 -90q0 -63 -36 -111t-100.5 -75t-150.5 -27h-304zM354 549h-98v-111h97q44 0 64 14.5t20 41.5q0 55 -83 55zM256 161h115q38 0 60 15t22 45q0 29 -19 42t-63 13h-115v-115z" />
    <glyph glyph-name="C" unicode="C" horiz-adv-x="693" 
d="M712 141q-46 -73 -126 -112.5t-178 -39.5q-120 0 -205.5 42t-130.5 121t-45 188q0 115 49.5 200t138.5 132.5t207 47.5q104 0 175 -36.5t116 -112.5l-151 -107q-19 37 -59 58.5t-88 21.5q-88 1 -136.5 -54.5t-48.5 -144.5q0 -85 44.5 -132.5t134.5 -47.5q104 0 156 90z
" />
    <glyph glyph-name="D" unicode="D" horiz-adv-x="767" 
d="M60 0v710h250q213 0 321.5 -89.5t108.5 -264.5q0 -77 -28 -142t-79 -113t-120.5 -74.5t-151.5 -26.5h-301zM260 176h87q95 0 143.5 45t48.5 130q0 95 -51 139t-159 44h-69v-358z" />
    <glyph glyph-name="E" unicode="E" horiz-adv-x="595" 
d="M578 539h-321v-97h295v-171h-295v-100h329l-12 -171h-514v710h518v-171z" />
    <glyph glyph-name="F" unicode="F" horiz-adv-x="552" 
d="M553 539h-296v-106h270v-171h-270v-262h-197v710h493v-171z" />
    <glyph glyph-name="G" unicode="G" horiz-adv-x="784" 
d="M421 403h326v-403h-158l-13 61q-31 -36 -82 -54t-109 -18q-109 0 -189.5 42t-124.5 121t-44 188q0 113 50.5 198.5t142 133.5t213.5 48q113 0 187 -36t123 -110l-152 -110q-23 41 -66.5 59t-90.5 18q-92 0 -145.5 -54t-53.5 -142q0 -84 46.5 -131t128.5 -47
q47 0 84.5 19.5t52.5 55.5h-126v161z" />
    <glyph glyph-name="H" unicode="H" horiz-adv-x="774" 
d="M60 0v710h200v-267h254v267h200v-710h-200v270h-254v-270h-200z" />
    <glyph glyph-name="I" unicode="I" horiz-adv-x="320" 
d="M60 0v710h200v-710h-200z" />
    <glyph glyph-name="J" unicode="J" horiz-adv-x="523" 
d="M211 -11q-93 0 -156 43t-87 122l162 73q12 -34 31.5 -48.5t43.5 -14.5q28 0 44 17.5t16 48.5v480h200v-455q0 -124 -67.5 -195t-186.5 -71z" />
    <glyph glyph-name="K" unicode="K" horiz-adv-x="719" 
d="M60 0v710h200v-295l253 295h238l-310 -356q24 -13 43 -33t33 -44l39 -67q26 -47 79 -47q43 0 77 21l46 -154q-24 -19 -64 -30.5t-81 -11.5q-151 0 -216 111l-65 111q-16 27 -31 40.5t-41 18.5v-269h-200z" />
    <glyph glyph-name="L" unicode="L" horiz-adv-x="552" 
d="M60 0v710h200v-536h296l-12 -174h-484z" />
    <glyph glyph-name="M" unicode="M" horiz-adv-x="959" 
d="M62 0l21 710h163l238 -463l234 463h163l15 -710h-193l-6 297l-152 -297h-140l-151 292l-9 -292h-183z" />
    <glyph glyph-name="N" unicode="N" horiz-adv-x="765" 
d="M513 710h192v-710h-178l-275 382v-382h-192v710h178l275 -381v381z" />
    <glyph glyph-name="O" unicode="O" horiz-adv-x="786" 
d="M396 -10q-115 -1 -198 41t-127 121t-44 190q0 114 48 199t134 132t201 47q105 0 183.5 -44t122 -122.5t43.5 -184.5q0 -112 -45.5 -197t-127.5 -133t-190 -49zM391 165q77 0 122 54.5t45 145.5q0 82 -42.5 131t-113.5 49q-52 0 -91 -25.5t-60.5 -70t-21.5 -102.5
q0 -86 43 -134t119 -48z" />
    <glyph glyph-name="P" unicode="P" horiz-adv-x="657" 
d="M256 0h-196v710h269q165 0 243.5 -59.5t78.5 -173.5q0 -76 -41 -131t-116 -84.5t-179 -29.5h-59v-232zM335 549h-79v-155h69q62 0 94.5 19t32.5 62q0 38 -28 56t-89 18z" />
    <glyph glyph-name="Q" unicode="Q" horiz-adv-x="786" 
d="M742 -46q-9 -87 -66 -126t-140 -39q-76 0 -128 27t-79 74t-29 108q-129 23 -201 112.5t-72 231.5q0 114 48 199t134 132t201 47q105 0 183.5 -44t122 -122.5t43.5 -184.5q0 -94 -32.5 -169t-92 -126t-139.5 -72v-12q0 -19 12.5 -32t35.5 -13q15 0 25.5 6.5t12.5 22.5z
M391 165q77 0 122 54.5t45 145.5q0 82 -42.5 131t-113.5 49q-52 0 -91 -25.5t-60.5 -70t-21.5 -102.5q0 -86 43 -134t119 -48z" />
    <glyph glyph-name="R" unicode="R" horiz-adv-x="686" 
d="M686 184l46 -154q-24 -19 -64 -30.5t-81 -11.5q-79 0 -131 29t-84 82l-66 111q-12 20 -23 30t-27 13v-253h-196v710h240q164 0 242.5 -62t78.5 -172q0 -78 -45 -129.5t-119 -72.5q38 -12 60 -45l18 -27q25 -39 77 -39q19 0 37.5 4.5t36.5 16.5zM298 549h-42v-141h51
q65 0 90.5 17.5t25.5 54.5q0 40 -34.5 54.5t-90.5 14.5z" />
    <glyph glyph-name="S" unicode="S" horiz-adv-x="613" 
d="M299 -10q-134 0 -209 57t-85 166l185 27q2 -38 33.5 -61.5t81.5 -23.5q92 0 92 48q0 22 -25.5 35.5t-83.5 27.5q-124 30 -182 80t-57 141q1 69 36.5 121.5t100 82t151.5 29.5q107 0 176.5 -54t79.5 -147l-175 -30q-5 29 -30.5 47.5t-61.5 18.5q-34 0 -54.5 -13.5
t-20.5 -36.5q0 -21 20.5 -36.5t77.5 -29.5q82 -20 137.5 -45.5t84 -65.5t28.5 -105q0 -69 -37.5 -121.5t-105 -82t-157.5 -29.5z" />
    <glyph glyph-name="T" unicode="T" horiz-adv-x="611" 
d="M643 710l-29 -174h-208v-536h-200v536h-222v174h659z" />
    <glyph glyph-name="U" unicode="U" horiz-adv-x="774" 
d="M519 710h196l2 -389q1 -98 -40 -173t-115 -117t-172 -42q-160 0 -246.5 80t-86.5 237v404h200v-394q0 -81 37.5 -116t96.5 -35q62 0 96.5 38t33.5 125z" />
    <glyph glyph-name="V" unicode="V" horiz-adv-x="684" 
d="M522 710h200l-247 -710h-283l-207 710h212l147 -530z" />
    <glyph glyph-name="W" unicode="W" horiz-adv-x="1047" 
d="M877 710h187l-205 -710h-225l-102 460l-128 -460h-225l-177 710h201l100 -435l120 435h239l95 -437z" />
    <glyph glyph-name="X" unicode="X" horiz-adv-x="657" 
d="M205 0h-216l228 357l-218 353h223l109 -186l108 186h212l-218 -341l226 -369h-227l-110 194z" />
    <glyph glyph-name="Y" unicode="Y" horiz-adv-x="636" 
d="M659 710l-238 -393v-317h-200v307l-250 403h223l134 -221l123 221h208z" />
    <glyph glyph-name="Z" unicode="Z" horiz-adv-x="657" 
d="M35 0v143l323 393h-303v174h574v-143l-323 -393h335l-11 -174h-595z" />
    <glyph glyph-name="bracketleft" unicode="[" horiz-adv-x="364" 
d="M366 -200h-306v940h306v-140h-125v-660h125v-140z" />
    <glyph glyph-name="backslash" unicode="\" horiz-adv-x="416" 
d="M416 -200h-173l-250 940h173z" />
    <glyph glyph-name="bracketright" unicode="]" horiz-adv-x="363" 
d="M-2 -200v140h124v660h-124v140h305v-940h-305z" />
    <glyph glyph-name="asciicircum" unicode="^" horiz-adv-x="600" 
d="M366 618l209 -527h-169l-106 287l-109 -287h-166l209 527h132z" />
    <glyph glyph-name="underscore" unicode="_" horiz-adv-x="581" 
d="M22 -154v154h537v-154h-537z" />
    <glyph glyph-name="grave" unicode="`" horiz-adv-x="644" 
d="M254 573l-151 132l188 45l125 -177h-162z" />
    <glyph glyph-name="a" unicode="a" horiz-adv-x="635" 
d="M583 510v-510h-185l5 73q-51 -84 -157 -84q-101 0 -161 66t-60 181q0 86 36.5 150t96.5 99.5t129 35.5q53 0 90.5 -18.5t58.5 -51.5l15 59h132zM316 361q-46 0 -73 -34.5t-27 -84.5q0 -45 21 -69t57 -24q41 0 71.5 34t30.5 89q0 41 -21.5 65t-58.5 24z" />
    <glyph glyph-name="b" unicode="b" horiz-adv-x="635" 
d="M52 0v740h186v-227l-6 -75q51 83 157 83q101 0 161 -66t60 -181q0 -86 -36.5 -150t-96 -99.5t-129.5 -35.5q-54 0 -91.5 19t-57.5 52l-15 -60h-132zM319 149q47 0 73.5 34.5t26.5 84.5q0 45 -21 69t-57 24q-40 0 -71 -33.5t-31 -89.5q0 -40 21.5 -64.5t58.5 -24.5z" />
    <glyph glyph-name="c" unicode="c" horiz-adv-x="501" 
d="M295 -11q-83 0 -143.5 31.5t-93.5 89.5t-33 136q0 81 36 143t99.5 97t146.5 35q73 0 127 -28t82 -83l-130 -98q-19 48 -74 48q-43 0 -69 -30.5t-26 -80.5q0 -47 23 -73t66 -26q55 0 83 51l125 -103q-31 -54 -87 -81.5t-132 -27.5z" />
    <glyph glyph-name="d" unicode="d" horiz-adv-x="635" 
d="M583 740v-740h-185l5 73q-51 -84 -157 -84q-101 0 -161 66t-60 181q0 86 36.5 150t96.5 99.5t129 35.5q67 0 111 -31l-1 24v226h186zM316 361q-46 0 -73 -34.5t-27 -84.5q0 -45 21 -69t57 -24q41 0 71.5 34t30.5 89q0 41 -21.5 65t-58.5 24z" />
    <glyph glyph-name="e" unicode="e" horiz-adv-x="552" 
d="M314 -11q-88 0 -153 31.5t-100.5 90.5t-35.5 139q0 81 35.5 142t96.5 95t136 34q92 0 147 -40t75.5 -110.5t7.5 -162.5h-308q7 -25 36 -43.5t78 -18.5q28 0 53.5 9.5t41.5 26.5l97 -113q-28 -33 -77.5 -56.5t-129.5 -23.5zM301 390q-31 0 -53 -17t-30 -48h151
q-3 65 -68 65z" />
    <glyph glyph-name="f" unicode="f" horiz-adv-x="396" 
d="M84 0v361h-93v153h93v4q0 73 33 124.5t88.5 79.5t124.5 28q80 0 133 -39.5t63 -126.5l-161 -19q-5 29 -41 29q-26 0 -41 -16.5t-15 -46.5v-17h123v-153h-121v-361h-186z" />
    <glyph glyph-name="g" unicode="g" horiz-adv-x="639" 
d="M241 -210q-31 0 -69 5t-72.5 14.5t-57.5 24.5l44 158q34 -17 77 -28.5t91 -11.5q77 0 109.5 33t38.5 101q-50 -73 -151 -73q-67 0 -118 28.5t-79.5 82t-28.5 127.5q0 81 37 142t97.5 94.5t130.5 33.5q54 0 92 -18t58 -49l15 56h132v-398q0 -109 -44 -180.5t-122 -106.5
t-180 -35zM318 361q-47 0 -74.5 -30t-27.5 -74q0 -41 21.5 -62.5t60.5 -21.5q41 0 71.5 30t30.5 79q0 36 -22 57.5t-60 21.5z" />
    <glyph glyph-name="h" unicode="h" horiz-adv-x="644" 
d="M52 0v740h186v-226l-7 -97q31 50 77.5 77t103.5 27q95 0 143 -63.5t47 -187.5l-2 -270h-186l2 260q0 90 -59 90q-24 0 -45 -15.5t-37 -54t-26 -107t-12 -173.5h-185z" />
    <glyph glyph-name="i" unicode="i" horiz-adv-x="290" 
d="M238 514v-514h-186v514h186zM144 553q-52 0 -83 31.5t-31 75.5t30.5 75.5t83.5 31.5t83.5 -31.5t30.5 -75.5t-30.5 -75.5t-83.5 -31.5z" />
    <glyph glyph-name="j" unicode="j" horiz-adv-x="299" 
d="M-9 -194q-35 0 -66.5 4t-54.5 11l22 152q14 -3 40 -7t52 -4q39 0 58 17t19 63v472h186v-469q0 -77 -32.5 -130.5t-90 -81t-133.5 -27.5zM153 553q-52 0 -83 31.5t-31 75.5t30.5 75.5t83.5 31.5t83.5 -31.5t30.5 -75.5t-30.5 -75.5t-83.5 -31.5z" />
    <glyph glyph-name="k" unicode="k" horiz-adv-x="611" 
d="M52 0v740h186v-424l179 198h219l-225 -249q21 -14 35 -36l26 -41q13 -20 33.5 -33t51.5 -13q18 0 32.5 4t28.5 11l39 -136q-31 -18 -65.5 -25.5t-71.5 -7.5q-74 0 -120.5 26.5t-83.5 87.5l-25 42q-13 22 -25.5 36.5t-27.5 22.5v-203h-186z" />
    <glyph glyph-name="l" unicode="l" horiz-adv-x="327" 
d="M228 -11q-83 0 -129.5 45t-46.5 131v575h186v-558q0 -19 10 -27.5t26 -8.5q20 0 35 11l43 -132q-18 -15 -51 -25.5t-73 -10.5z" />
    <glyph glyph-name="m" unicode="m" horiz-adv-x="992" 
d="M52 0v514h184l-7 -98q31 50 76.5 77.5t102.5 27.5q53 0 96 -24t66 -81q34 55 87 80t107 25q95 0 141 -63.5t45 -187.5l-2 -270h-186l2 260q0 90 -56 90q-23 0 -43 -15.5t-35.5 -54t-25 -107t-11.5 -173.5h-185v260q0 90 -56 90q-23 0 -43 -15.5t-35.5 -54t-25 -107
t-11.5 -173.5h-185z" />
    <glyph glyph-name="n" unicode="n" horiz-adv-x="644" 
d="M52 0v514h185l-7 -97q32 49 78.5 76.5t103.5 27.5q95 0 143 -63.5t47 -187.5l-2 -270h-186l2 260q0 90 -59 90q-24 0 -45 -15.5t-37 -54t-26 -107t-12 -173.5h-185z" />
    <glyph glyph-name="o" unicode="o" horiz-adv-x="607" 
d="M314 521q83 0 143 -31t92.5 -88t32.5 -135q0 -80 -36 -143t-101.5 -99t-153.5 -36q-124 0 -195 68.5t-71 185.5q0 80 36 143t101 99t152 36zM300 149q41 0 66 31.5t25 83.5q0 46 -22.5 71.5t-60.5 25.5q-42 0 -67 -31t-25 -84q0 -46 22 -71.5t62 -25.5z" />
    <glyph glyph-name="p" unicode="p" horiz-adv-x="635" 
d="M52 -200v714h186l-6 -76q51 83 157 83q101 0 161 -66t60 -181q0 -86 -36.5 -150t-96 -99.5t-129.5 -35.5q-67 0 -111 30l1 -19v-200h-186zM319 149q47 0 73.5 34.5t26.5 84.5q0 45 -21 69t-57 24q-40 0 -71 -33.5t-31 -89.5q0 -40 21.5 -64.5t58.5 -24.5z" />
    <glyph glyph-name="q" unicode="q" horiz-adv-x="635" 
d="M583 510v-710h-186v200l6 72q-51 -83 -157 -83q-101 0 -161 66t-60 181q0 86 36.5 150t96.5 99.5t129 35.5q53 0 90.5 -18.5t58.5 -51.5l15 59h132zM316 361q-46 0 -73 -34.5t-27 -84.5q0 -45 21 -69t57 -24q41 0 71.5 34t30.5 89q0 41 -21.5 65t-58.5 24z" />
    <glyph glyph-name="r" unicode="r" horiz-adv-x="443" 
d="M429 333q-22 10 -52 10q-79 0 -109 -83t-30 -260h-185v334l-2 180h185l-8 -132q24 72 69 105.5t100 33.5q17 0 32.5 -2t33.5 -8z" />
    <glyph glyph-name="s" unicode="s" horiz-adv-x="499" 
d="M250 -11q-78 0 -131 21t-81.5 56t-35.5 76l153 38q5 -19 32 -34.5t70 -15.5q28 0 42 6.5t14 16.5q0 6 -6 10t-24 8t-56 9q-195 27 -195 166q0 51 29.5 90.5t82 62.5t121.5 23q60 0 106.5 -19t75 -50.5t34.5 -68.5l-150 -43q-6 15 -24.5 27.5t-52.5 12.5q-23 0 -35 -6.5
t-12 -15.5q0 -8 13 -15.5t65 -16.5q61 -10 106.5 -28.5t71 -51.5t24.5 -88q0 -53 -31.5 -91t-84.5 -58.5t-121 -20.5z" />
    <glyph glyph-name="t" unicode="t" horiz-adv-x="453" 
d="M299 -11q-102 0 -160 55.5t-57 145.5l3 171h-82v153h85l2 104h184l-2 -104h154v-153h-156l-2 -149q-1 -31 16.5 -47.5t48.5 -16.5q21 0 42 5.5t43 20.5l52 -140q-25 -21 -69 -33t-102 -12z" />
    <glyph glyph-name="u" unicode="u" horiz-adv-x="630" 
d="M228 -11q-92 0 -139.5 61t-46.5 177l2 287h186l-2 -274q0 -78 55 -78q25 0 45.5 15.5t35.5 54.5t24 107.5t10 174.5h180v-514h-181l10 96q-30 -49 -75.5 -78t-103.5 -29z" />
    <glyph glyph-name="v" unicode="v" horiz-adv-x="567" 
d="M411 514h184l-183 -514h-266l-160 514h202l101 -357z" />
    <glyph glyph-name="w" unicode="w" horiz-adv-x="903" 
d="M741 514h182l-171 -514h-233l-64 248l-74 -248h-234l-160 514h192l93 -337l101 337h174l90 -339z" />
    <glyph glyph-name="x" unicode="x" horiz-adv-x="532" 
d="M182 0h-216l190 265l-179 249h226l68 -100l67 100h217l-181 -242l190 -272h-227l-77 120z" />
    <glyph glyph-name="y" unicode="y" horiz-adv-x="634" 
d="M242 -210q-32 0 -69.5 4.5t-72 14.5t-57.5 25l44 158q38 -19 77.5 -29.5t88.5 -10.5q79 0 113 34t40 106l2 25q-30 -48 -75 -76t-103 -28q-97 0 -143 64t-45 177l1 260h186l-1 -248q0 -40 15.5 -60t43.5 -20q35 0 59.5 29.5t39 101t16.5 197.5h180v-402
q0 -112 -42.5 -183t-119 -105t-178.5 -34z" />
    <glyph glyph-name="z" unicode="z" horiz-adv-x="465" 
d="M19 0v143l199 218h-193v153h432v-134l-202 -227h203v-153h-439z" />
    <glyph glyph-name="braceleft" unicode="{" horiz-adv-x="468" 
d="M335 -28q0 -25 19.5 -44.5t51.5 -21.5l-21 -112q-88 9 -141 38.5t-76.5 68.5t-23.5 75q0 31 10.5 58t21 52.5t10.5 49.5t-7 41t-30.5 26t-74.5 9v118q51 0 74.5 9t30.5 26.5t7 40.5q0 25 -10.5 50t-21 52t-10.5 58q0 37 23.5 75.5t76.5 68t141 38.5l21 -112
q-32 -2 -51.5 -21t-19.5 -45q0 -24 10.5 -47t20.5 -50t10 -63q0 -23 -12 -50.5t-44 -51.5t-93 -37q61 -13 93 -37.5t44 -52t12 -49.5q0 -36 -10 -63t-20.5 -49.5t-10.5 -47.5z" />
    <glyph glyph-name="bar" unicode="|" horiz-adv-x="329" 
d="M70 -200v940h189v-940h-189z" />
    <glyph glyph-name="braceright" unicode="}" horiz-adv-x="468" 
d="M134 -28q0 25 -10.5 47.5t-21 49.5t-10.5 63q0 22 12 49.5t44 52t93 37.5q-61 13 -93 37t-44 51.5t-12 50.5q0 37 10.5 63.5t21 49.5t10.5 47q0 26 -19.5 45t-52.5 21l21 112q89 -9 142 -38.5t76.5 -68t23.5 -75.5q0 -31 -10.5 -58t-21 -52t-10.5 -50q0 -23 7 -40.5
t30.5 -26.5t73.5 -9v-118q-50 0 -73.5 -9t-30.5 -26t-7 -41t10.5 -49.5t21 -52.5t10.5 -58q0 -36 -23.5 -75t-76.5 -68.5t-142 -38.5l-21 112q33 2 52.5 21.5t19.5 44.5z" />
    <glyph glyph-name="asciitilde" unicode="~" horiz-adv-x="600" 
d="M401 144q-27 0 -55.5 9t-55 20.5t-49 20.5t-38.5 9q-27 0 -44 -8t-31 -28l-89 84q24 62 67 91t93 29q27 0 55.5 -9t55 -21t49 -21t38.5 -9q27 0 44 8.5t31 28.5l89 -84q-24 -62 -67 -91t-93 -29z" />
    <glyph glyph-name="uni00A0" unicode="&#xa0;" horiz-adv-x="262" 
 />
    <glyph glyph-name="exclamdown" unicode="&#xa1;" horiz-adv-x="308" 
d="M155 305q-54 0 -85 32t-31 78q0 47 31 78.5t85 31.5t84.5 -31.5t30.5 -78.5q0 -46 -30.5 -78t-84.5 -32zM39 -200l51 446h129l32 -446h-212z" />
    <glyph glyph-name="cent" unicode="&#xa2;" horiz-adv-x="600" 
d="M282 -120v114q-98 16 -153.5 82.5t-55.5 169.5q0 69 26 124t73 92t110 51v121h126v-117q110 -18 156 -107l-130 -98q-19 48 -74 48q-43 0 -69 -30.5t-26 -80.5q0 -47 23 -73t66 -26q55 0 83 51l125 -103q-49 -83 -154 -103v-115h-126z" />
    <glyph glyph-name="sterling" unicode="&#xa3;" horiz-adv-x="600" 
d="M98 -13l-80 127q29 9 53.5 31.5t39 52t14.5 59.5q0 15 -5 35h-116v128h71q-4 17 -6.5 35t-2.5 37q0 58 33.5 110t95.5 85t147 33q192 0 260 -176l-153 -67q-17 47 -43 62.5t-59 15.5q-46 0 -65.5 -22.5t-19.5 -49.5q0 -20 3 -35t8 -28h128v-128h-94v-7q0 -30 -5.5 -55.5
t-21.5 -51.5q10 3 15 4t18 1q26 0 52 -13t50 -13t38 10t28 27l107 -86q-25 -55 -74 -87.5t-107 -32.5q-33 0 -63 10.5t-61 21t-69 10.5q-25 0 -57 -11.5t-59 -31.5z" />
    <glyph glyph-name="currency" unicode="&#xa4;" horiz-adv-x="600" 
d="M110 60l-101 101l72 71q-27 53 -27 114q0 56 23 106l-68 66l101 101l61 -59q28 18 61 27.5t68 9.5q33 0 64 -8.5t58 -24.5l69 68l100 -101l-71 -71q26 -54 26 -114q0 -65 -31 -121l62 -62l-101 -102l-63 63q-53 -28 -113 -28q-33 0 -64 8.5t-57 23.5zM300 256q41 0 63 28
t22 62q0 35 -22 62.5t-63 28.5q-38 2 -61.5 -27t-23.5 -64q0 -34 22.5 -62t62.5 -28z" />
    <glyph glyph-name="yen" unicode="&#xa5;" horiz-adv-x="600" 
d="M66 100v127h143v43h-143v128h113l-194 312h223l107 -176l98 176h209l-189 -312h101v-128h-126v-43h126v-127h-126v-100h-199v100h-143z" />
    <glyph glyph-name="brokenbar" unicode="&#xa6;" horiz-adv-x="329" 
d="M70 380v360h189v-360h-189zM259 160v-360h-189v360h189z" />
    <glyph glyph-name="section" unicode="&#xa7;" horiz-adv-x="536" 
d="M484 162q0 -51 -29 -89.5t-81.5 -60.5t-121.5 -22q-59 0 -104.5 19t-73 50.5t-33.5 68.5l143 43q7 -18 25 -30.5t49 -12.5q28 0 37 7t9 14q0 14 -19.5 22.5t-50.5 15.5t-66 16t-66 24.5t-50.5 41t-19.5 65.5q0 39 17.5 66.5t47.5 45.5q-20 17 -32.5 42t-12.5 60
q0 51 29.5 90t81.5 60.5t121 21.5q59 0 104.5 -19t73 -50.5t33.5 -68.5l-143 -43q-6 18 -24.5 30.5t-49.5 12.5q-27 0 -36.5 -6.5t-9.5 -14.5q0 -14 19.5 -22.5t50.5 -15.5t66 -16t66 -24.5t50.5 -41t19.5 -65.5q0 -39 -17.5 -66.5t-47.5 -45.5q20 -17 32.5 -42t12.5 -60z
M212 362q0 -16 26 -24t62 -17q24 5 24 27q0 16 -26 24t-63 17q-23 -6 -23 -27z" />
    <glyph glyph-name="dieresis" unicode="&#xa8;" horiz-adv-x="673" 
d="M221 568q-34 0 -57 14.5t-34.5 37t-11.5 44.5q0 36 26 66t77 30q49 0 75.5 -30t26.5 -66q0 -22 -12 -44.5t-34.5 -37t-55.5 -14.5zM450 568q-34 0 -57 14.5t-34.5 37t-11.5 44.5q0 36 26 66t77 30q49 0 75.5 -30t26.5 -66q0 -22 -12 -44.5t-34.5 -37t-55.5 -14.5z" />
    <glyph glyph-name="copyright" unicode="&#xa9;" horiz-adv-x="840" 
d="M422 -16q-79 0 -147.5 27.5t-120 77t-80.5 116t-29 144.5t29 144.5t80 116t120 77t148 27.5q78 0 146 -27.5t119 -77t79.5 -116t28.5 -144.5t-28.5 -144.5t-79.5 -116t-119 -77t-146 -27.5zM422 51q62 0 116.5 22.5t95.5 63t64 95t23 118.5q0 63 -23 117.5t-64 94.5
t-95.5 62.5t-116.5 22.5q-63 0 -117.5 -22.5t-95 -62.5t-63.5 -94.5t-23 -117.5q0 -85 39.5 -152.5t107.5 -107t152 -39.5zM614 235q-28 -41 -77 -63.5t-105 -22.5q-109 0 -169.5 51t-60.5 142q0 63 29 110t81.5 73.5t121.5 26.5q64 0 106.5 -20.5t74.5 -66.5l-116 -75
q-10 21 -26 29t-34 8q-37 0 -59.5 -23t-22.5 -58q0 -34 20.5 -53t57.5 -19q18 0 35.5 9t31.5 33z" />
    <glyph glyph-name="ordfeminine" unicode="&#xaa;" horiz-adv-x="392" 
d="M361 459h-137l3 40q-28 -46 -85 -46q-61 0 -94 38.5t-33 99.5q0 48 21.5 84t56 55.5t75.5 19.5q57 0 85 -35l8 28h100v-284zM191 638q-16 0 -25 -12.5t-9 -29.5q0 -13 7.5 -22.5t20.5 -9.5q14 0 24 12t10 31q0 31 -28 31z" />
    <glyph glyph-name="guillemotleft" unicode="&#xab;" horiz-adv-x="620" 
d="M141 70l-108 146v74l108 146h198l-137 -182l137 -184h-198zM409 70l-108 146v74l108 146h198l-137 -182l137 -184h-198z" />
    <glyph glyph-name="logicalnot" unicode="&#xac;" horiz-adv-x="600" 
d="M36 341h528v-341h-179v173h-349v168z" />
    <glyph glyph-name="uni00AD" unicode="&#xad;" horiz-adv-x="453" 
d="M60 176v165h333v-165h-333z" />
    <glyph glyph-name="registered" unicode="&#xae;" horiz-adv-x="840" 
d="M422 -16q-79 0 -148 28t-120 77.5t-80 116t-29 143.5q0 78 28.5 144.5t80 116t120 77t148.5 27.5q79 0 146.5 -27.5t118.5 -77t79.5 -116t28.5 -144.5q0 -77 -28.5 -143.5t-79 -116t-118.5 -77.5t-147 -28zM422 51q63 0 117 22.5t95 63.5t64 95.5t23 117.5t-23 117
t-64 94.5t-95 63t-117 22.5t-117.5 -22.5t-95 -62.5t-63.5 -94.5t-23 -117.5q0 -85 39.5 -152.5t107.5 -107t152 -39.5zM568 150q-45 0 -70.5 11t-39.5 28t-21 35t-15 32.5t-22 20.5v-118h-151v391h155q98 0 149 -34t51 -101q0 -40 -22 -68t-61 -41q19 -4 27 -11.5t16 -13
t27 -5.5q26 0 41 12l28 -109q-9 -12 -36.5 -20.5t-55.5 -8.5zM405 451h-5v-75h4q29 0 38.5 12t9.5 27q0 20 -12 28t-35 8z" />
    <glyph glyph-name="macron" unicode="&#xaf;" horiz-adv-x="623" 
d="M130 716h360v-122h-360v122z" />
    <glyph glyph-name="degree" unicode="&#xb0;" horiz-adv-x="408" 
d="M205 383q-49 0 -88.5 21.5t-62 59.5t-22.5 87q0 48 22.5 85.5t62 59t88.5 21.5t87.5 -21.5t61 -59t22.5 -85.5q0 -49 -22.5 -87t-61 -59.5t-87.5 -21.5zM205 490q23 0 41 17t18 45q0 27 -18 43.5t-41 16.5q-24 0 -42 -16.5t-18 -43.5q0 -28 18 -45t42 -17z" />
    <glyph glyph-name="plusminus" unicode="&#xb1;" horiz-adv-x="600" 
d="M219 514h162v-91h120v-148h-120v-91h-162v91h-120v148h120v91zM36 0v148h528v-148h-528z" />
    <glyph glyph-name="uni00B2" unicode="&#xb2;" horiz-adv-x="330" 
d="M10 412q34 17 68 46t57 60.5t23 55.5t-21 24q-12 0 -22.5 -11.5t-14.5 -32.5l-104 55q22 50 64.5 78t100.5 28q65 0 103 -35t38 -91q-1 -48 -28.5 -89t-79.5 -72h115v-109h-299v93z" />
    <glyph glyph-name="uni00B3" unicode="&#xb3;" horiz-adv-x="330" 
d="M137 312q-40 0 -72.5 8t-48.5 19l30 112q23 -12 44.5 -17t37.5 -5q38 0 38 18q0 6 -5 11.5t-22 5.5h-28v94h11q32 0 32 22q0 18 -21 18q-9 0 -20 -7t-16 -21l-90 63q18 33 57.5 57.5t96.5 24.5q62 0 102 -30.5t38 -85.5q-1 -28 -14.5 -50t-33.5 -33q57 -19 57 -78
q0 -39 -24 -67.5t-63.5 -43.5t-85.5 -15z" />
    <glyph glyph-name="acute" unicode="&#xb4;" horiz-adv-x="639" 
d="M257 573l126 177l187 -45l-152 -132h-161z" />
    <glyph glyph-name="uni00B5" unicode="&#xb5;" horiz-adv-x="630" 
d="M398 514h180v-514h-181l9 87q-28 -49 -64.5 -73.5t-73.5 -24.5q-34 0 -53 9l14 -198h-187v714h189l-2 -285q0 -30 13.5 -48.5t40.5 -18.5q25 0 45.5 15.5t35.5 54.5t24 107.5t10 174.5z" />
    <glyph glyph-name="paragraph" unicode="&#xb6;" horiz-adv-x="850" 
d="M596 710h194v-710h-194v710zM6 474q0 114 83.5 174.5t228.5 60.5h209v-709h-194v232h-25q-92 0 -160 28.5t-105 83t-37 130.5z" />
    <glyph glyph-name="periodcentered" unicode="&#xb7;" horiz-adv-x="325" 
d="M162 145q-58 0 -91.5 34.5t-33.5 86.5t33.5 86t91.5 34t92 -34t34 -86t-34 -86.5t-92 -34.5z" />
    <glyph glyph-name="cedilla" unicode="&#xb8;" horiz-adv-x="618" 
d="M284 -223q-20 0 -47.5 3.5t-52.5 9t-40 12.5l35 84q19 -7 50.5 -13t59.5 -6q21 0 28 5t7 11t-7 10.5t-25 4.5h-77l57 120h114l-18 -47q96 -21 96 -90q0 -47 -45.5 -75.5t-134.5 -28.5z" />
    <glyph glyph-name="uni00B9" unicode="&#xb9;" horiz-adv-x="330" 
d="M28 428h90v100l-48 -33l-70 96l181 119h83v-282h80v-109h-316v109z" />
    <glyph glyph-name="ordmasculine" unicode="&#xba;" horiz-adv-x="372" 
d="M194 750q76 0 119.5 -37t43.5 -103q0 -70 -50.5 -113.5t-132.5 -43.5q-73 0 -116 36.5t-43 103.5q0 70 49.5 113.5t129.5 43.5zM184 558q17 0 28.5 13.5t11.5 35.5q0 18 -10 28.5t-25 10.5q-18 0 -29.5 -12.5t-11.5 -36.5q0 -39 36 -39z" />
    <glyph glyph-name="guillemotright" unicode="&#xbb;" horiz-adv-x="620" 
d="M210 70h-197l136 184l-136 182h197l109 -146v-74zM478 70h-197l136 184l-136 182h197l109 -146v-74z" />
    <glyph glyph-name="onequarter" unicode="&#xbc;" horiz-adv-x="839" 
d="M28 428h90v100l-48 -33l-70 96l181 119h83v-282h80v-109h-316v109zM168 0l349 710h154l-349 -710h-154zM836 66h-38v-66h-120v66h-162v77l179 249h103v-237h38v-89zM623 155h55v78z" />
    <glyph glyph-name="onehalf" unicode="&#xbd;" horiz-adv-x="839" 
d="M28 428h90v100l-48 -33l-70 96l181 119h83v-282h80v-109h-316v109zM168 0l349 710h154l-349 -710h-154zM519 93q34 17 68 46t57 60.5t23 55.5t-21 24q-12 0 -22.5 -11.5t-14.5 -32.5l-104 55q22 50 64.5 78t100.5 28q65 0 103 -35t38 -91q-1 -48 -28.5 -89t-79.5 -72h115
v-109h-299v93z" />
    <glyph glyph-name="threequarters" unicode="&#xbe;" horiz-adv-x="839" 
d="M137 312q-40 0 -72.5 8t-48.5 19l30 112q23 -12 44.5 -17t37.5 -5q38 0 38 18q0 6 -5 11.5t-22 5.5h-28v94h11q32 0 32 22q0 18 -21 18q-9 0 -20 -7t-16 -21l-90 63q18 33 57.5 57.5t96.5 24.5q62 0 102 -30.5t38 -85.5q-1 -28 -14.5 -50t-33.5 -33q57 -19 57 -78
q0 -39 -24 -67.5t-63.5 -43.5t-85.5 -15zM168 0l349 710h154l-349 -710h-154zM836 66h-38v-66h-120v66h-162v77l179 249h103v-237h38v-89zM623 155h55v78z" />
    <glyph glyph-name="questiondown" unicode="&#xbf;" horiz-adv-x="511" 
d="M264 306q-51 0 -83 31t-32 79q0 49 32 80t83 31q53 0 84.5 -31t31.5 -80q0 -48 -31.5 -79t-84.5 -31zM258 -210q-70 0 -120 23.5t-76.5 64.5t-26.5 92q0 53 22.5 94t65.5 73q44 33 58.5 55.5t15.5 56.5l141 -7q11 -80 -8.5 -129t-58.5 -78q-27 -20 -36 -30.5t-9 -20.5
q0 -12 11.5 -19.5t36.5 -7.5q38 0 70 23t48 63l135 -77q-17 -52 -57 -91.5t-94.5 -62t-117.5 -22.5z" />
    <glyph glyph-name="Agrave" unicode="&#xc0;" horiz-adv-x="707" 
d="M-39 0l313 710h166l302 -710h-202l-50 127h-275l-52 -127h-202zM283 292h141l-69 174zM273 769l-151 132l188 45l125 -177h-162z" />
    <glyph glyph-name="Aacute" unicode="&#xc1;" horiz-adv-x="707" 
d="M-39 0l313 710h166l302 -710h-202l-50 127h-275l-52 -127h-202zM283 292h141l-69 174zM276 769l126 177l187 -45l-152 -132h-161z" />
    <glyph glyph-name="Acircumflex" unicode="&#xc2;" horiz-adv-x="707" 
d="M-39 0l313 710h166l302 -710h-202l-50 127h-275l-52 -127h-202zM283 292h141l-69 174zM565 769h-171l-40 55l-41 -55h-171l137 167h150z" />
    <glyph glyph-name="Atilde" unicode="&#xc3;" horiz-adv-x="707" 
d="M-39 0l313 710h166l302 -710h-202l-50 127h-275l-52 -127h-202zM283 292h141l-69 174zM432 762q-30 0 -61 12.5t-59 25t-50 12.5q-12 0 -30 -9.5t-30 -29.5l-67 61q17 58 54 85.5t87 27.5q30 0 61.5 -12t60 -24.5t48.5 -12.5q17 0 33.5 9t26.5 31l67 -60
q-16 -58 -53.5 -87t-87.5 -29z" />
    <glyph glyph-name="Adieresis" unicode="&#xc4;" horiz-adv-x="707" 
d="M-39 0l313 710h166l302 -710h-202l-50 127h-275l-52 -127h-202zM283 292h141l-69 174zM240 764q-34 0 -57 14.5t-34.5 37t-11.5 44.5q0 36 26 66t77 30q49 0 75.5 -30t26.5 -66q0 -22 -12 -44.5t-34.5 -37t-55.5 -14.5zM469 764q-34 0 -57 14.5t-34.5 37t-11.5 44.5
q0 36 26 66t77 30q49 0 75.5 -30t26.5 -66q0 -22 -12 -44.5t-34.5 -37t-55.5 -14.5z" />
    <glyph glyph-name="Aring" unicode="&#xc5;" horiz-adv-x="707" 
d="M-39 0l313 710h166l302 -710h-202l-50 127h-275l-52 -127h-202zM283 292h141l-69 174zM353 764q-35 0 -64.5 15.5t-46.5 42.5t-17 59q0 34 18 61.5t48 43.5t66 16q53 0 89.5 -33.5t36.5 -83.5q0 -34 -17.5 -61.5t-46.5 -43.5t-66 -16zM354 832q22 0 36.5 15t14.5 38
q0 21 -14.5 35t-34.5 14q-22 0 -37.5 -15t-15.5 -38q0 -22 14.5 -35.5t36.5 -13.5z" />
    <glyph glyph-name="AE" unicode="&#xc6;" horiz-adv-x="969" 
d="M-39 0l313 710h678v-171h-310v-97h284v-171h-284v-100h318l-12 -171h-504v124h-230l-51 -124h-202zM285 295h159v244h-59z" />
    <glyph glyph-name="Ccedilla" unicode="&#xc7;" horiz-adv-x="693" 
d="M712 141q-46 -73 -126 -112.5t-178 -39.5q-120 0 -205.5 42t-130.5 121t-45 188q0 115 49.5 200t138.5 132.5t207 47.5q104 0 175 -36.5t116 -112.5l-151 -107q-19 37 -59 58.5t-88 21.5q-88 1 -136.5 -54.5t-48.5 -144.5q0 -85 44.5 -132.5t134.5 -47.5q104 0 156 90z
M378 -223q-20 0 -47.5 3.5t-52.5 9t-40 12.5l35 84q19 -7 50.5 -13t59.5 -6q21 0 28 5t7 11t-7 10.5t-25 4.5h-77l57 120h114l-18 -47q96 -21 96 -90q0 -47 -45.5 -75.5t-134.5 -28.5z" />
    <glyph glyph-name="Egrave" unicode="&#xc8;" horiz-adv-x="595" 
d="M578 539h-321v-97h295v-171h-295v-100h329l-12 -171h-514v710h518v-171zM238 769l-151 132l188 45l125 -177h-162z" />
    <glyph glyph-name="Eacute" unicode="&#xc9;" horiz-adv-x="595" 
d="M578 539h-321v-97h295v-171h-295v-100h329l-12 -171h-514v710h518v-171zM241 769l126 177l187 -45l-152 -132h-161z" />
    <glyph glyph-name="Ecircumflex" unicode="&#xca;" horiz-adv-x="595" 
d="M578 539h-321v-97h295v-171h-295v-100h329l-12 -171h-514v710h518v-171zM530 769h-171l-40 55l-41 -55h-171l137 167h150z" />
    <glyph glyph-name="Edieresis" unicode="&#xcb;" horiz-adv-x="595" 
d="M578 539h-321v-97h295v-171h-295v-100h329l-12 -171h-514v710h518v-171zM205 764q-34 0 -57 14.5t-34.5 37t-11.5 44.5q0 36 26 66t77 30q49 0 75.5 -30t26.5 -66q0 -22 -12 -44.5t-34.5 -37t-55.5 -14.5zM434 764q-34 0 -57 14.5t-34.5 37t-11.5 44.5q0 36 26 66t77 30
q49 0 75.5 -30t26.5 -66q0 -22 -12 -44.5t-34.5 -37t-55.5 -14.5z" />
    <glyph glyph-name="Igrave" unicode="&#xcc;" horiz-adv-x="320" 
d="M60 0v710h200v-710h-200zM79 769l-151 132l188 45l125 -177h-162z" />
    <glyph glyph-name="Iacute" unicode="&#xcd;" horiz-adv-x="320" 
d="M60 0v710h200v-710h-200zM82 769l126 177l187 -45l-152 -132h-161z" />
    <glyph glyph-name="Icircumflex" unicode="&#xce;" horiz-adv-x="320" 
d="M60 0v710h200v-710h-200zM371 769h-171l-40 55l-41 -55h-171l137 167h150z" />
    <glyph glyph-name="Idieresis" unicode="&#xcf;" horiz-adv-x="320" 
d="M60 0v710h200v-710h-200zM46 764q-34 0 -57 14.5t-34.5 37t-11.5 44.5q0 36 26 66t77 30q49 0 75.5 -30t26.5 -66q0 -22 -12 -44.5t-34.5 -37t-55.5 -14.5zM275 764q-34 0 -57 14.5t-34.5 37t-11.5 44.5q0 36 26 66t77 30q49 0 75.5 -30t26.5 -66q0 -22 -12 -44.5
t-34.5 -37t-55.5 -14.5z" />
    <glyph glyph-name="Eth" unicode="&#xd0;" horiz-adv-x="767" 
d="M60 0v710h250q213 0 321.5 -89.5t108.5 -264.5q0 -77 -28 -142t-79 -113t-120.5 -74.5t-151.5 -26.5h-301zM260 176h87q95 0 143.5 45t48.5 130q0 95 -51 139t-159 44h-69v-358zM18 292v136h395v-136h-395z" />
    <glyph glyph-name="Ntilde" unicode="&#xd1;" horiz-adv-x="765" 
d="M513 710h192v-710h-178l-275 382v-382h-192v710h178l275 -381v381zM460 765q-30 0 -61 12.5t-59 25t-50 12.5q-12 0 -30 -9.5t-30 -29.5l-67 61q17 58 54 85.5t87 27.5q30 0 61.5 -12t60 -24.5t48.5 -12.5q17 0 33.5 9t26.5 31l67 -60q-16 -58 -53.5 -87t-87.5 -29z" />
    <glyph glyph-name="Ograve" unicode="&#xd2;" horiz-adv-x="786" 
d="M396 -10q-115 -1 -198 41t-127 121t-44 190q0 114 48 199t134 132t201 47q105 0 183.5 -44t122 -122.5t43.5 -184.5q0 -112 -45.5 -197t-127.5 -133t-190 -49zM391 165q77 0 122 54.5t45 145.5q0 82 -42.5 131t-113.5 49q-52 0 -91 -25.5t-60.5 -70t-21.5 -102.5
q0 -86 43 -134t119 -48zM312 769l-151 132l188 45l125 -177h-162z" />
    <glyph glyph-name="Oacute" unicode="&#xd3;" horiz-adv-x="786" 
d="M396 -10q-115 -1 -198 41t-127 121t-44 190q0 114 48 199t134 132t201 47q105 0 183.5 -44t122 -122.5t43.5 -184.5q0 -112 -45.5 -197t-127.5 -133t-190 -49zM391 165q77 0 122 54.5t45 145.5q0 82 -42.5 131t-113.5 49q-52 0 -91 -25.5t-60.5 -70t-21.5 -102.5
q0 -86 43 -134t119 -48zM315 769l126 177l187 -45l-152 -132h-161z" />
    <glyph glyph-name="Ocircumflex" unicode="&#xd4;" horiz-adv-x="786" 
d="M396 -10q-115 -1 -198 41t-127 121t-44 190q0 114 48 199t134 132t201 47q105 0 183.5 -44t122 -122.5t43.5 -184.5q0 -112 -45.5 -197t-127.5 -133t-190 -49zM391 165q77 0 122 54.5t45 145.5q0 82 -42.5 131t-113.5 49q-52 0 -91 -25.5t-60.5 -70t-21.5 -102.5
q0 -86 43 -134t119 -48zM604 769h-171l-40 55l-41 -55h-171l137 167h150z" />
    <glyph glyph-name="Otilde" unicode="&#xd5;" horiz-adv-x="786" 
d="M396 -10q-115 -1 -198 41t-127 121t-44 190q0 114 48 199t134 132t201 47q105 0 183.5 -44t122 -122.5t43.5 -184.5q0 -112 -45.5 -197t-127.5 -133t-190 -49zM391 165q77 0 122 54.5t45 145.5q0 82 -42.5 131t-113.5 49q-52 0 -91 -25.5t-60.5 -70t-21.5 -102.5
q0 -86 43 -134t119 -48zM471 762q-30 0 -61 12.5t-59 25t-50 12.5q-12 0 -30 -9.5t-30 -29.5l-67 61q17 58 54 85.5t87 27.5q30 0 61.5 -12t60 -24.5t48.5 -12.5q17 0 33.5 9t26.5 31l67 -60q-16 -58 -53.5 -87t-87.5 -29z" />
    <glyph glyph-name="Odieresis" unicode="&#xd6;" horiz-adv-x="786" 
d="M396 -10q-115 -1 -198 41t-127 121t-44 190q0 114 48 199t134 132t201 47q105 0 183.5 -44t122 -122.5t43.5 -184.5q0 -112 -45.5 -197t-127.5 -133t-190 -49zM391 165q77 0 122 54.5t45 145.5q0 82 -42.5 131t-113.5 49q-52 0 -91 -25.5t-60.5 -70t-21.5 -102.5
q0 -86 43 -134t119 -48zM279 764q-34 0 -57 14.5t-34.5 37t-11.5 44.5q0 36 26 66t77 30q49 0 75.5 -30t26.5 -66q0 -22 -12 -44.5t-34.5 -37t-55.5 -14.5zM508 764q-34 0 -57 14.5t-34.5 37t-11.5 44.5q0 36 26 66t77 30q49 0 75.5 -30t26.5 -66q0 -22 -12 -44.5t-34.5 -37
t-55.5 -14.5z" />
    <glyph glyph-name="multiply" unicode="&#xd7;" horiz-adv-x="600" 
d="M546 130l-119 -119l-127 127l-127 -127l-119 119l127 127l-127 127l119 119l127 -127l127 127l119 -119l-127 -127z" />
    <glyph glyph-name="Oslash" unicode="&#xd8;" horiz-adv-x="786" 
d="M396 -10q-115 -1 -198 41t-127 121t-44 190q0 114 48 199t134 132t201 47q105 0 183.5 -44t122 -122.5t43.5 -184.5q0 -112 -45.5 -197t-127.5 -133t-190 -49zM391 165q77 0 122 54.5t45 145.5q0 82 -42.5 131t-113.5 49q-52 0 -91 -25.5t-60.5 -70t-21.5 -102.5
q0 -86 43 -134t119 -48zM192 -70l-122 79l525 771l122 -79z" />
    <glyph glyph-name="Ugrave" unicode="&#xd9;" horiz-adv-x="774" 
d="M519 710h196l2 -389q1 -98 -40 -173t-115 -117t-172 -42q-160 0 -246.5 80t-86.5 237v404h200v-394q0 -81 37.5 -116t96.5 -35q62 0 96.5 38t33.5 125zM306 769l-151 132l188 45l125 -177h-162z" />
    <glyph glyph-name="Uacute" unicode="&#xda;" horiz-adv-x="774" 
d="M519 710h196l2 -389q1 -98 -40 -173t-115 -117t-172 -42q-160 0 -246.5 80t-86.5 237v404h200v-394q0 -81 37.5 -116t96.5 -35q62 0 96.5 38t33.5 125zM309 769l126 177l187 -45l-152 -132h-161z" />
    <glyph glyph-name="Ucircumflex" unicode="&#xdb;" horiz-adv-x="774" 
d="M519 710h196l2 -389q1 -98 -40 -173t-115 -117t-172 -42q-160 0 -246.5 80t-86.5 237v404h200v-394q0 -81 37.5 -116t96.5 -35q62 0 96.5 38t33.5 125zM598 769h-171l-40 55l-41 -55h-171l137 167h150z" />
    <glyph glyph-name="Udieresis" unicode="&#xdc;" horiz-adv-x="774" 
d="M519 710h196l2 -389q1 -98 -40 -173t-115 -117t-172 -42q-160 0 -246.5 80t-86.5 237v404h200v-394q0 -81 37.5 -116t96.5 -35q62 0 96.5 38t33.5 125zM273 764q-34 0 -57 14.5t-34.5 37t-11.5 44.5q0 36 26 66t77 30q49 0 75.5 -30t26.5 -66q0 -22 -12 -44.5t-34.5 -37
t-55.5 -14.5zM502 764q-34 0 -57 14.5t-34.5 37t-11.5 44.5q0 36 26 66t77 30q49 0 75.5 -30t26.5 -66q0 -22 -12 -44.5t-34.5 -37t-55.5 -14.5z" />
    <glyph glyph-name="Yacute" unicode="&#xdd;" horiz-adv-x="636" 
d="M659 710l-238 -393v-317h-200v307l-250 403h223l134 -221l123 221h208zM245 769l126 177l187 -45l-152 -132h-161z" />
    <glyph glyph-name="Thorn" unicode="&#xde;" horiz-adv-x="656" 
d="M255 710v-92h74q165 0 243.5 -59t78.5 -173q0 -76 -41 -131t-116 -84.5t-179 -29.5h-60v-141h-195v709zM335 457h-80v-154h70q62 0 94.5 19t32.5 62q0 38 -28 55.5t-89 17.5z" />
    <glyph glyph-name="germandbls" unicode="&#xdf;" horiz-adv-x="742" 
d="M-9 361v153h99q9 69 50 122.5t109 83.5t158 30q68 0 120.5 -21t83 -58t30.5 -87q0 -41 -13.5 -69.5t-33 -48.5t-39 -34t-33 -26t-13.5 -25q0 -15 18 -23t46 -14.5t59.5 -16.5t59.5 -28.5t46 -50.5t18 -83q0 -46 -27.5 -86.5t-77 -65t-114.5 -24.5q-97 0 -154.5 36.5
t-79.5 103.5l166 39q5 -19 22.5 -30t40.5 -11q44 0 44 28q0 14 -17.5 22t-45 15t-59 17t-59 26.5t-45 44t-17.5 70.5q0 37 14.5 64t35.5 47t42 37t35.5 33.5t14.5 36.5q0 42 -72 42q-60 0 -95 -32.5t-35 -104.5v-473h-186v361h-96z" />
    <glyph glyph-name="agrave" unicode="&#xe0;" horiz-adv-x="635" 
d="M583 510v-510h-185l5 73q-51 -84 -157 -84q-101 0 -161 66t-60 181q0 86 36.5 150t96.5 99.5t129 35.5q53 0 90.5 -18.5t58.5 -51.5l15 59h132zM316 361q-46 0 -73 -34.5t-27 -84.5q0 -45 21 -69t57 -24q41 0 71.5 34t30.5 89q0 41 -21.5 65t-58.5 24zM245 573l-151 132
l188 45l125 -177h-162z" />
    <glyph glyph-name="aacute" unicode="&#xe1;" horiz-adv-x="635" 
d="M583 510v-510h-185l5 73q-51 -84 -157 -84q-101 0 -161 66t-60 181q0 86 36.5 150t96.5 99.5t129 35.5q53 0 90.5 -18.5t58.5 -51.5l15 59h132zM316 361q-46 0 -73 -34.5t-27 -84.5q0 -45 21 -69t57 -24q41 0 71.5 34t30.5 89q0 41 -21.5 65t-58.5 24zM248 573l126 177
l187 -45l-152 -132h-161z" />
    <glyph glyph-name="acircumflex" unicode="&#xe2;" horiz-adv-x="635" 
d="M583 510v-510h-185l5 73q-51 -84 -157 -84q-101 0 -161 66t-60 181q0 86 36.5 150t96.5 99.5t129 35.5q53 0 90.5 -18.5t58.5 -51.5l15 59h132zM316 361q-46 0 -73 -34.5t-27 -84.5q0 -45 21 -69t57 -24q41 0 71.5 34t30.5 89q0 41 -21.5 65t-58.5 24zM537 573h-171
l-40 55l-41 -55h-171l137 167h150z" />
    <glyph glyph-name="atilde" unicode="&#xe3;" horiz-adv-x="635" 
d="M583 510v-510h-185l5 73q-51 -84 -157 -84q-101 0 -161 66t-60 181q0 86 36.5 150t96.5 99.5t129 35.5q53 0 90.5 -18.5t58.5 -51.5l15 59h132zM316 361q-46 0 -73 -34.5t-27 -84.5q0 -45 21 -69t57 -24q41 0 71.5 34t30.5 89q0 41 -21.5 65t-58.5 24zM404 566
q-30 0 -61 12.5t-59 25t-50 12.5q-12 0 -30 -9.5t-30 -29.5l-67 61q17 58 54 85.5t87 27.5q30 0 61.5 -12t60 -24.5t48.5 -12.5q17 0 33.5 9t26.5 31l67 -60q-16 -58 -53.5 -87t-87.5 -29z" />
    <glyph glyph-name="adieresis" unicode="&#xe4;" horiz-adv-x="635" 
d="M583 510v-510h-185l5 73q-51 -84 -157 -84q-101 0 -161 66t-60 181q0 86 36.5 150t96.5 99.5t129 35.5q53 0 90.5 -18.5t58.5 -51.5l15 59h132zM316 361q-46 0 -73 -34.5t-27 -84.5q0 -45 21 -69t57 -24q41 0 71.5 34t30.5 89q0 41 -21.5 65t-58.5 24zM212 568
q-34 0 -57 14.5t-34.5 37t-11.5 44.5q0 36 26 66t77 30q49 0 75.5 -30t26.5 -66q0 -22 -12 -44.5t-34.5 -37t-55.5 -14.5zM441 568q-34 0 -57 14.5t-34.5 37t-11.5 44.5q0 36 26 66t77 30q49 0 75.5 -30t26.5 -66q0 -22 -12 -44.5t-34.5 -37t-55.5 -14.5z" />
    <glyph glyph-name="aring" unicode="&#xe5;" horiz-adv-x="635" 
d="M583 510v-510h-185l5 73q-51 -84 -157 -84q-101 0 -161 66t-60 181q0 86 36.5 150t96.5 99.5t129 35.5q53 0 90.5 -18.5t58.5 -51.5l15 59h132zM316 361q-46 0 -73 -34.5t-27 -84.5q0 -45 21 -69t57 -24q41 0 71.5 34t30.5 89q0 41 -21.5 65t-58.5 24zM325 568
q-35 0 -64.5 15.5t-46.5 42.5t-17 59q0 34 18 61.5t48 43.5t66 16q53 0 89.5 -33.5t36.5 -83.5q0 -34 -17.5 -61.5t-46.5 -43.5t-66 -16zM326 636q22 0 36.5 15t14.5 38q0 21 -14.5 35t-34.5 14q-22 0 -37.5 -15t-15.5 -38q0 -22 14.5 -35.5t36.5 -13.5z" />
    <glyph glyph-name="ae" unicode="&#xe6;" horiz-adv-x="842" 
d="M239 -11q-61 0 -109.5 22t-76.5 60t-28 87q0 72 55 119.5t166 47.5h75v6q0 24 -17 36t-42 12q-28 0 -47 -11.5t-30 -31.5l-154 36q26 69 87 109t147 40q47 0 92.5 -14t76.5 -52q64 66 168 66q83 0 134 -40t70.5 -110.5t7.5 -162.5h-303q7 -25 35 -43.5t76 -18.5
q27 0 51.5 9.5t40.5 26.5l96 -113q-28 -33 -74 -56.5t-127 -23.5q-57 0 -108 20t-88 63q-32 -46 -75 -64.5t-99 -18.5zM594 390q-30 0 -51 -17t-30 -48h146q-2 65 -65 65zM259 123q62 0 62 65v20h-56q-61 0 -61 -42q0 -18 13.5 -30.5t41.5 -12.5z" />
    <glyph glyph-name="ccedilla" unicode="&#xe7;" horiz-adv-x="501" 
d="M295 -11q-83 0 -143.5 31.5t-93.5 89.5t-33 136q0 81 36 143t99.5 97t146.5 35q73 0 127 -28t82 -83l-130 -98q-19 48 -74 48q-43 0 -69 -30.5t-26 -80.5q0 -47 23 -73t66 -26q55 0 83 51l125 -103q-31 -54 -87 -81.5t-132 -27.5zM264 -223q-20 0 -47.5 3.5t-52.5 9
t-40 12.5l35 84q19 -7 50.5 -13t59.5 -6q21 0 28 5t7 11t-7 10.5t-25 4.5h-77l57 120h114l-18 -47q96 -21 96 -90q0 -47 -45.5 -75.5t-134.5 -28.5z" />
    <glyph glyph-name="egrave" unicode="&#xe8;" horiz-adv-x="552" 
d="M314 -11q-88 0 -153 31.5t-100.5 90.5t-35.5 139q0 81 35.5 142t96.5 95t136 34q92 0 147 -40t75.5 -110.5t7.5 -162.5h-308q7 -25 36 -43.5t78 -18.5q28 0 53.5 9.5t41.5 26.5l97 -113q-28 -33 -77.5 -56.5t-129.5 -23.5zM301 390q-31 0 -53 -17t-30 -48h151
q-3 65 -68 65zM210 573l-151 132l188 45l125 -177h-162z" />
    <glyph glyph-name="eacute" unicode="&#xe9;" horiz-adv-x="552" 
d="M314 -11q-88 0 -153 31.5t-100.5 90.5t-35.5 139q0 81 35.5 142t96.5 95t136 34q92 0 147 -40t75.5 -110.5t7.5 -162.5h-308q7 -25 36 -43.5t78 -18.5q28 0 53.5 9.5t41.5 26.5l97 -113q-28 -33 -77.5 -56.5t-129.5 -23.5zM301 390q-31 0 -53 -17t-30 -48h151
q-3 65 -68 65zM213 573l126 177l187 -45l-152 -132h-161z" />
    <glyph glyph-name="ecircumflex" unicode="&#xea;" horiz-adv-x="552" 
d="M314 -11q-88 0 -153 31.5t-100.5 90.5t-35.5 139q0 81 35.5 142t96.5 95t136 34q92 0 147 -40t75.5 -110.5t7.5 -162.5h-308q7 -25 36 -43.5t78 -18.5q28 0 53.5 9.5t41.5 26.5l97 -113q-28 -33 -77.5 -56.5t-129.5 -23.5zM301 390q-31 0 -53 -17t-30 -48h151
q-3 65 -68 65zM502 573h-171l-40 55l-41 -55h-171l137 167h150z" />
    <glyph glyph-name="edieresis" unicode="&#xeb;" horiz-adv-x="552" 
d="M314 -11q-88 0 -153 31.5t-100.5 90.5t-35.5 139q0 81 35.5 142t96.5 95t136 34q92 0 147 -40t75.5 -110.5t7.5 -162.5h-308q7 -25 36 -43.5t78 -18.5q28 0 53.5 9.5t41.5 26.5l97 -113q-28 -33 -77.5 -56.5t-129.5 -23.5zM301 390q-31 0 -53 -17t-30 -48h151
q-3 65 -68 65zM177 568q-34 0 -57 14.5t-34.5 37t-11.5 44.5q0 36 26 66t77 30q49 0 75.5 -30t26.5 -66q0 -22 -12 -44.5t-34.5 -37t-55.5 -14.5zM406 568q-34 0 -57 14.5t-34.5 37t-11.5 44.5q0 36 26 66t77 30q49 0 75.5 -30t26.5 -66q0 -22 -12 -44.5t-34.5 -37
t-55.5 -14.5z" />
    <glyph glyph-name="igrave" unicode="&#xec;" horiz-adv-x="290" 
d="M238 514v-514h-186v514h186zM64 573l-151 132l188 45l125 -177h-162z" />
    <glyph glyph-name="iacute" unicode="&#xed;" horiz-adv-x="290" 
d="M238 514v-514h-186v514h186zM67 573l126 177l187 -45l-152 -132h-161z" />
    <glyph glyph-name="icircumflex" unicode="&#xee;" horiz-adv-x="290" 
d="M238 514v-514h-186v514h186zM356 573h-171l-40 55l-41 -55h-171l137 167h150z" />
    <glyph glyph-name="idieresis" unicode="&#xef;" horiz-adv-x="290" 
d="M238 514v-514h-186v514h186zM31 568q-34 0 -57 14.5t-34.5 37t-11.5 44.5q0 36 26 66t77 30q49 0 75.5 -30t26.5 -66q0 -22 -12 -44.5t-34.5 -37t-55.5 -14.5zM260 568q-34 0 -57 14.5t-34.5 37t-11.5 44.5q0 36 26 66t77 30q49 0 75.5 -30t26.5 -66q0 -22 -12 -44.5
t-34.5 -37t-55.5 -14.5z" />
    <glyph glyph-name="eth" unicode="&#xf0;" horiz-adv-x="633" 
d="M302 -11q-84 0 -146 29t-96 82.5t-34 125.5t33.5 127t92 86t132.5 31q38 0 69 -8t55 -26q-19 39 -53 74l-195 -33l-20 103l87 15q-41 17 -86 28l59 135q77 -19 141.5 -50.5t114.5 -73.5l127 22l20 -104l-60 -10q34 -50 52.5 -105.5t18.5 -115.5q0 -98 -39.5 -173
t-110 -117t-162.5 -42zM312 149q47 0 74.5 24.5t27.5 64.5q0 38 -25 59t-71 21t-72.5 -23.5t-26.5 -65.5q0 -37 25 -58.5t68 -21.5z" />
    <glyph glyph-name="ntilde" unicode="&#xf1;" horiz-adv-x="644" 
d="M52 0v514h185l-7 -97q32 49 78.5 76.5t103.5 27.5q95 0 143 -63.5t47 -187.5l-2 -270h-186l2 260q0 90 -59 90q-24 0 -45 -15.5t-37 -54t-26 -107t-12 -173.5h-185zM404 566q-30 0 -61 12.5t-59 25t-50 12.5q-12 0 -30 -9.5t-30 -29.5l-67 61q17 58 54 85.5t87 27.5
q30 0 61.5 -12t60 -24.5t48.5 -12.5q17 0 33.5 9t26.5 31l67 -60q-16 -58 -53.5 -87t-87.5 -29z" />
    <glyph glyph-name="ograve" unicode="&#xf2;" horiz-adv-x="607" 
d="M314 521q83 0 143 -31t92.5 -88t32.5 -135q0 -80 -36 -143t-101.5 -99t-153.5 -36q-124 0 -195 68.5t-71 185.5q0 80 36 143t101 99t152 36zM300 149q41 0 66 31.5t25 83.5q0 46 -22.5 71.5t-60.5 25.5q-42 0 -67 -31t-25 -84q0 -46 22 -71.5t62 -25.5zM223 573l-151 132
l188 45l125 -177h-162z" />
    <glyph glyph-name="oacute" unicode="&#xf3;" horiz-adv-x="607" 
d="M314 521q83 0 143 -31t92.5 -88t32.5 -135q0 -80 -36 -143t-101.5 -99t-153.5 -36q-124 0 -195 68.5t-71 185.5q0 80 36 143t101 99t152 36zM300 149q41 0 66 31.5t25 83.5q0 46 -22.5 71.5t-60.5 25.5q-42 0 -67 -31t-25 -84q0 -46 22 -71.5t62 -25.5zM226 573l126 177
l187 -45l-152 -132h-161z" />
    <glyph glyph-name="ocircumflex" unicode="&#xf4;" horiz-adv-x="607" 
d="M314 521q83 0 143 -31t92.5 -88t32.5 -135q0 -80 -36 -143t-101.5 -99t-153.5 -36q-124 0 -195 68.5t-71 185.5q0 80 36 143t101 99t152 36zM300 149q41 0 66 31.5t25 83.5q0 46 -22.5 71.5t-60.5 25.5q-42 0 -67 -31t-25 -84q0 -46 22 -71.5t62 -25.5zM515 573h-171
l-40 55l-41 -55h-171l137 167h150z" />
    <glyph glyph-name="otilde" unicode="&#xf5;" horiz-adv-x="607" 
d="M314 521q83 0 143 -31t92.5 -88t32.5 -135q0 -80 -36 -143t-101.5 -99t-153.5 -36q-124 0 -195 68.5t-71 185.5q0 80 36 143t101 99t152 36zM300 149q41 0 66 31.5t25 83.5q0 46 -22.5 71.5t-60.5 25.5q-42 0 -67 -31t-25 -84q0 -46 22 -71.5t62 -25.5zM382 566
q-30 0 -61 12.5t-59 25t-50 12.5q-12 0 -30 -9.5t-30 -29.5l-67 61q17 58 54 85.5t87 27.5q30 0 61.5 -12t60 -24.5t48.5 -12.5q17 0 33.5 9t26.5 31l67 -60q-16 -58 -53.5 -87t-87.5 -29z" />
    <glyph glyph-name="odieresis" unicode="&#xf6;" horiz-adv-x="607" 
d="M314 521q83 0 143 -31t92.5 -88t32.5 -135q0 -80 -36 -143t-101.5 -99t-153.5 -36q-124 0 -195 68.5t-71 185.5q0 80 36 143t101 99t152 36zM300 149q41 0 66 31.5t25 83.5q0 46 -22.5 71.5t-60.5 25.5q-42 0 -67 -31t-25 -84q0 -46 22 -71.5t62 -25.5zM190 568
q-34 0 -57 14.5t-34.5 37t-11.5 44.5q0 36 26 66t77 30q49 0 75.5 -30t26.5 -66q0 -22 -12 -44.5t-34.5 -37t-55.5 -14.5zM419 568q-34 0 -57 14.5t-34.5 37t-11.5 44.5q0 36 26 66t77 30q49 0 75.5 -30t26.5 -66q0 -22 -12 -44.5t-34.5 -37t-55.5 -14.5z" />
    <glyph glyph-name="divide" unicode="&#xf7;" horiz-adv-x="600" 
d="M300 344q-39 0 -68.5 25.5t-29.5 64.5t29.5 64.5t68.5 25.5t68 -25.5t29 -64.5t-29 -64.5t-68 -25.5zM557 331v-149h-514v149h514zM300 -11q-39 0 -68.5 25t-29.5 65q0 39 29.5 64.5t68.5 25.5t68 -25.5t29 -64.5q0 -40 -29 -65t-68 -25z" />
    <glyph glyph-name="oslash" unicode="&#xf8;" horiz-adv-x="607" 
d="M314 521q83 0 143 -31t92.5 -88t32.5 -135q0 -80 -36 -143t-101.5 -99t-153.5 -36q-124 0 -195 68.5t-71 185.5q0 80 36 143t101 99t152 36zM300 149q41 0 66 31.5t25 83.5q0 46 -22.5 71.5t-60.5 25.5q-42 0 -67 -31t-25 -84q0 -46 22 -71.5t62 -25.5zM174 -49l-109 72
l46 68l84 95l144 212l47 94l46 68l109 -72l-46 -68l-84 -96l-145 -212l-46 -93z" />
    <glyph glyph-name="ugrave" unicode="&#xf9;" horiz-adv-x="630" 
d="M228 -11q-92 0 -139.5 61t-46.5 177l2 287h186l-2 -274q0 -78 55 -78q25 0 45.5 15.5t35.5 54.5t24 107.5t10 174.5h180v-514h-181l10 96q-30 -49 -75.5 -78t-103.5 -29zM234 573l-151 132l188 45l125 -177h-162z" />
    <glyph glyph-name="uacute" unicode="&#xfa;" horiz-adv-x="630" 
d="M228 -11q-92 0 -139.5 61t-46.5 177l2 287h186l-2 -274q0 -78 55 -78q25 0 45.5 15.5t35.5 54.5t24 107.5t10 174.5h180v-514h-181l10 96q-30 -49 -75.5 -78t-103.5 -29zM237 573l126 177l187 -45l-152 -132h-161z" />
    <glyph glyph-name="ucircumflex" unicode="&#xfb;" horiz-adv-x="630" 
d="M228 -11q-92 0 -139.5 61t-46.5 177l2 287h186l-2 -274q0 -78 55 -78q25 0 45.5 15.5t35.5 54.5t24 107.5t10 174.5h180v-514h-181l10 96q-30 -49 -75.5 -78t-103.5 -29zM526 573h-171l-40 55l-41 -55h-171l137 167h150z" />
    <glyph glyph-name="udieresis" unicode="&#xfc;" horiz-adv-x="630" 
d="M228 -11q-92 0 -139.5 61t-46.5 177l2 287h186l-2 -274q0 -78 55 -78q25 0 45.5 15.5t35.5 54.5t24 107.5t10 174.5h180v-514h-181l10 96q-30 -49 -75.5 -78t-103.5 -29zM201 568q-34 0 -57 14.5t-34.5 37t-11.5 44.5q0 36 26 66t77 30q49 0 75.5 -30t26.5 -66
q0 -22 -12 -44.5t-34.5 -37t-55.5 -14.5zM430 568q-34 0 -57 14.5t-34.5 37t-11.5 44.5q0 36 26 66t77 30q49 0 75.5 -30t26.5 -66q0 -22 -12 -44.5t-34.5 -37t-55.5 -14.5z" />
    <glyph glyph-name="yacute" unicode="&#xfd;" horiz-adv-x="634" 
d="M242 -210q-32 0 -69.5 4.5t-72 14.5t-57.5 25l44 158q38 -19 77.5 -29.5t88.5 -10.5q79 0 113 34t40 106l2 25q-30 -48 -75 -76t-103 -28q-97 0 -143 64t-45 177l1 260h186l-1 -248q0 -40 15.5 -60t43.5 -20q35 0 59.5 29.5t39 101t16.5 197.5h180v-402
q0 -112 -42.5 -183t-119 -105t-178.5 -34zM238 573l126 177l187 -45l-152 -132h-161z" />
    <glyph glyph-name="thorn" unicode="&#xfe;" horiz-adv-x="635" 
d="M52 -200v940h186v-226l-6 -76q51 83 157 83q101 0 161 -66t60 -181q0 -86 -36.5 -150t-96 -99.5t-129.5 -35.5q-67 0 -111 30l1 -19v-200h-186zM319 149q47 0 73.5 34.5t26.5 84.5q0 45 -21 69t-57 24q-40 0 -71 -33.5t-31 -89.5q0 -40 21.5 -64.5t58.5 -24.5z" />
    <glyph glyph-name="ydieresis" unicode="&#xff;" horiz-adv-x="634" 
d="M242 -210q-32 0 -69.5 4.5t-72 14.5t-57.5 25l44 158q38 -19 77.5 -29.5t88.5 -10.5q79 0 113 34t40 106l2 25q-30 -48 -75 -76t-103 -28q-97 0 -143 64t-45 177l1 260h186l-1 -248q0 -40 15.5 -60t43.5 -20q35 0 59.5 29.5t39 101t16.5 197.5h180v-402
q0 -112 -42.5 -183t-119 -105t-178.5 -34zM202 568q-34 0 -57 14.5t-34.5 37t-11.5 44.5q0 36 26 66t77 30q49 0 75.5 -30t26.5 -66q0 -22 -12 -44.5t-34.5 -37t-55.5 -14.5zM431 568q-34 0 -57 14.5t-34.5 37t-11.5 44.5q0 36 26 66t77 30q49 0 75.5 -30t26.5 -66
q0 -22 -12 -44.5t-34.5 -37t-55.5 -14.5z" />
    <glyph glyph-name="Amacron" unicode="&#x100;" horiz-adv-x="707" 
d="M-39 0l313 710h166l302 -710h-202l-50 127h-275l-52 -127h-202zM283 292h141l-69 174zM174 912h360v-122h-360v122z" />
    <glyph glyph-name="amacron" unicode="&#x101;" horiz-adv-x="635" 
d="M583 510v-510h-185l5 73q-51 -84 -157 -84q-101 0 -161 66t-60 181q0 86 36.5 150t96.5 99.5t129 35.5q53 0 90.5 -18.5t58.5 -51.5l15 59h132zM316 361q-46 0 -73 -34.5t-27 -84.5q0 -45 21 -69t57 -24q41 0 71.5 34t30.5 89q0 41 -21.5 65t-58.5 24zM146 716h360v-122
h-360v122z" />
    <glyph glyph-name="Abreve" unicode="&#x102;" horiz-adv-x="707" 
d="M-39 0l313 710h166l302 -710h-202l-50 127h-275l-52 -127h-202zM283 292h141l-69 174zM427 949l117 -13q-5 -79 -56 -125.5t-134 -46.5q-82 0 -133.5 46.5t-56.5 125.5l117 13q14 -65 73 -65t73 65z" />
    <glyph glyph-name="abreve" unicode="&#x103;" horiz-adv-x="635" 
d="M583 510v-510h-185l5 73q-51 -84 -157 -84q-101 0 -161 66t-60 181q0 86 36.5 150t96.5 99.5t129 35.5q53 0 90.5 -18.5t58.5 -51.5l15 59h132zM316 361q-46 0 -73 -34.5t-27 -84.5q0 -45 21 -69t57 -24q41 0 71.5 34t30.5 89q0 41 -21.5 65t-58.5 24zM399 753l117 -13
q-5 -79 -56 -125.5t-134 -46.5q-82 0 -133.5 46.5t-56.5 125.5l117 13q14 -65 73 -65t73 65z" />
    <glyph glyph-name="Aogonek" unicode="&#x104;" horiz-adv-x="707" 
d="M-39 0l313 710h166l302 -710h-202l-50 127h-275l-52 -127h-202zM283 292h141l-69 174zM674 -223q-48 0 -86.5 15t-61 42t-22.5 62q0 106 165 145l73 -41q-50 -20 -67 -40.5t-17 -37.5q0 -35 38 -35q12 0 27 8t24 19l60 -87q-19 -24 -54 -37t-79 -13z" />
    <glyph glyph-name="aogonek" unicode="&#x105;" horiz-adv-x="635" 
d="M583 510v-510h-185l5 73q-51 -84 -157 -84q-101 0 -161 66t-60 181q0 86 36.5 150t96.5 99.5t129 35.5q53 0 90.5 -18.5t58.5 -51.5l15 59h132zM316 361q-46 0 -73 -34.5t-27 -84.5q0 -45 21 -69t57 -24q41 0 71.5 34t30.5 89q0 41 -21.5 65t-58.5 24zM515 -223
q-48 0 -86.5 15t-61 42t-22.5 62q0 106 165 145l73 -41q-50 -20 -67 -40.5t-17 -37.5q0 -35 38 -35q12 0 27 8t24 19l60 -87q-19 -24 -54 -37t-79 -13z" />
    <glyph glyph-name="Cacute" unicode="&#x106;" horiz-adv-x="693" 
d="M712 141q-46 -73 -126 -112.5t-178 -39.5q-120 0 -205.5 42t-130.5 121t-45 188q0 115 49.5 200t138.5 132.5t207 47.5q104 0 175 -36.5t116 -112.5l-151 -107q-19 37 -59 58.5t-88 21.5q-88 1 -136.5 -54.5t-48.5 -144.5q0 -85 44.5 -132.5t134.5 -47.5q104 0 156 90z
M317 769l126 177l187 -45l-152 -132h-161z" />
    <glyph glyph-name="cacute" unicode="&#x107;" horiz-adv-x="501" 
d="M295 -11q-83 0 -143.5 31.5t-93.5 89.5t-33 136q0 81 36 143t99.5 97t146.5 35q73 0 127 -28t82 -83l-130 -98q-19 48 -74 48q-43 0 -69 -30.5t-26 -80.5q0 -47 23 -73t66 -26q55 0 83 51l125 -103q-31 -54 -87 -81.5t-132 -27.5zM199 573l126 177l187 -45l-152 -132
h-161z" />
    <glyph glyph-name="Ccircumflex" unicode="&#x108;" horiz-adv-x="693" 
d="M712 141q-46 -73 -126 -112.5t-178 -39.5q-120 0 -205.5 42t-130.5 121t-45 188q0 115 49.5 200t138.5 132.5t207 47.5q104 0 175 -36.5t116 -112.5l-151 -107q-19 37 -59 58.5t-88 21.5q-88 1 -136.5 -54.5t-48.5 -144.5q0 -85 44.5 -132.5t134.5 -47.5q104 0 156 90z
M606 769h-171l-40 55l-41 -55h-171l137 167h150z" />
    <glyph glyph-name="ccircumflex" unicode="&#x109;" horiz-adv-x="501" 
d="M295 -11q-83 0 -143.5 31.5t-93.5 89.5t-33 136q0 81 36 143t99.5 97t146.5 35q73 0 127 -28t82 -83l-130 -98q-19 48 -74 48q-43 0 -69 -30.5t-26 -80.5q0 -47 23 -73t66 -26q55 0 83 51l125 -103q-31 -54 -87 -81.5t-132 -27.5zM488 573h-171l-40 55l-41 -55h-171
l137 167h150z" />
    <glyph glyph-name="Cdotaccent" unicode="&#x10a;" horiz-adv-x="693" 
d="M712 141q-46 -73 -126 -112.5t-178 -39.5q-120 0 -205.5 42t-130.5 121t-45 188q0 115 49.5 200t138.5 132.5t207 47.5q104 0 175 -36.5t116 -112.5l-151 -107q-19 37 -59 58.5t-88 21.5q-88 1 -136.5 -54.5t-48.5 -144.5q0 -85 44.5 -132.5t134.5 -47.5q104 0 156 90z
M395 755q-52 0 -83 31.5t-31 75.5t30.5 75.5t83.5 31.5t83.5 -31.5t30.5 -75.5t-30.5 -75.5t-83.5 -31.5z" />
    <glyph glyph-name="cdotaccent" unicode="&#x10b;" horiz-adv-x="501" 
d="M295 -11q-83 0 -143.5 31.5t-93.5 89.5t-33 136q0 81 36 143t99.5 97t146.5 35q73 0 127 -28t82 -83l-130 -98q-19 48 -74 48q-43 0 -69 -30.5t-26 -80.5q0 -47 23 -73t66 -26q55 0 83 51l125 -103q-31 -54 -87 -81.5t-132 -27.5zM277 559q-52 0 -83 31.5t-31 75.5
t30.5 75.5t83.5 31.5t83.5 -31.5t30.5 -75.5t-30.5 -75.5t-83.5 -31.5z" />
    <glyph glyph-name="Ccaron" unicode="&#x10c;" horiz-adv-x="693" 
d="M712 141q-46 -73 -126 -112.5t-178 -39.5q-120 0 -205.5 42t-130.5 121t-45 188q0 115 49.5 200t138.5 132.5t207 47.5q104 0 175 -36.5t116 -112.5l-151 -107q-19 37 -59 58.5t-88 21.5q-88 1 -136.5 -54.5t-48.5 -144.5q0 -85 44.5 -132.5t134.5 -47.5q104 0 156 90z
M320 769l-136 167l163 10l48 -65l48 65l163 -10l-136 -167h-150z" />
    <glyph glyph-name="ccaron" unicode="&#x10d;" horiz-adv-x="501" 
d="M295 -11q-83 0 -143.5 31.5t-93.5 89.5t-33 136q0 81 36 143t99.5 97t146.5 35q73 0 127 -28t82 -83l-130 -98q-19 48 -74 48q-43 0 -69 -30.5t-26 -80.5q0 -47 23 -73t66 -26q55 0 83 51l125 -103q-31 -54 -87 -81.5t-132 -27.5zM202 573l-136 167l163 10l48 -65l48 65
l163 -10l-136 -167h-150z" />
    <glyph glyph-name="Dcaron" unicode="&#x10e;" horiz-adv-x="767" 
d="M60 0v710h250q213 0 321.5 -89.5t108.5 -264.5q0 -77 -28 -142t-79 -113t-120.5 -74.5t-151.5 -26.5h-301zM260 176h87q95 0 143.5 45t48.5 130q0 95 -51 139t-159 44h-69v-358zM306 769l-136 167l163 10l48 -65l48 65l163 -10l-136 -167h-150z" />
    <glyph glyph-name="dcaron" unicode="&#x10f;" horiz-adv-x="635" 
d="M583 740v-740h-185l5 73q-51 -84 -157 -84q-101 0 -161 66t-60 181q0 86 36.5 150t96.5 99.5t129 35.5q67 0 111 -31l-1 24v226h186zM316 361q-46 0 -73 -34.5t-27 -84.5q0 -45 21 -69t57 -24q41 0 71.5 34t30.5 89q0 41 -21.5 65t-58.5 24zM609 555v225h138l-39 -225
h-99z" />
    <glyph glyph-name="Dcroat" unicode="&#x110;" horiz-adv-x="767" 
d="M60 0v710h250q213 0 321.5 -89.5t108.5 -264.5q0 -77 -28 -142t-79 -113t-120.5 -74.5t-151.5 -26.5h-301zM260 176h87q95 0 143.5 45t48.5 130q0 95 -51 139t-159 44h-69v-358zM18 292v136h395v-136h-395z" />
    <glyph glyph-name="dcroat" unicode="&#x111;" horiz-adv-x="635" 
d="M583 740v-740h-185l5 73q-51 -84 -157 -84q-101 0 -161 66t-60 181q0 86 36.5 150t96.5 99.5t129 35.5q67 0 111 -31l-1 24v226h186zM316 361q-46 0 -73 -34.5t-27 -84.5q0 -45 21 -69t57 -24q41 0 71.5 34t30.5 89q0 41 -21.5 65t-58.5 24zM216 565v130h428v-130h-428z
" />
    <glyph glyph-name="Emacron" unicode="&#x112;" horiz-adv-x="595" 
d="M578 539h-321v-97h295v-171h-295v-100h329l-12 -171h-514v710h518v-171zM139 912h360v-122h-360v122z" />
    <glyph glyph-name="emacron" unicode="&#x113;" horiz-adv-x="552" 
d="M314 -11q-88 0 -153 31.5t-100.5 90.5t-35.5 139q0 81 35.5 142t96.5 95t136 34q92 0 147 -40t75.5 -110.5t7.5 -162.5h-308q7 -25 36 -43.5t78 -18.5q28 0 53.5 9.5t41.5 26.5l97 -113q-28 -33 -77.5 -56.5t-129.5 -23.5zM301 390q-31 0 -53 -17t-30 -48h151
q-3 65 -68 65zM111 716h360v-122h-360v122z" />
    <glyph glyph-name="Ebreve" unicode="&#x114;" horiz-adv-x="595" 
d="M578 539h-321v-97h295v-171h-295v-100h329l-12 -171h-514v710h518v-171zM392 949l117 -13q-5 -79 -56 -125.5t-134 -46.5q-82 0 -133.5 46.5t-56.5 125.5l117 13q14 -65 73 -65t73 65z" />
    <glyph glyph-name="ebreve" unicode="&#x115;" horiz-adv-x="552" 
d="M314 -11q-88 0 -153 31.5t-100.5 90.5t-35.5 139q0 81 35.5 142t96.5 95t136 34q92 0 147 -40t75.5 -110.5t7.5 -162.5h-308q7 -25 36 -43.5t78 -18.5q28 0 53.5 9.5t41.5 26.5l97 -113q-28 -33 -77.5 -56.5t-129.5 -23.5zM301 390q-31 0 -53 -17t-30 -48h151
q-3 65 -68 65zM364 753l117 -13q-5 -79 -56 -125.5t-134 -46.5q-82 0 -133.5 46.5t-56.5 125.5l117 13q14 -65 73 -65t73 65z" />
    <glyph glyph-name="Edotaccent" unicode="&#x116;" horiz-adv-x="595" 
d="M578 539h-321v-97h295v-171h-295v-100h329l-12 -171h-514v710h518v-171zM319 755q-52 0 -83 31.5t-31 75.5t30.5 75.5t83.5 31.5t83.5 -31.5t30.5 -75.5t-30.5 -75.5t-83.5 -31.5z" />
    <glyph glyph-name="edotaccent" unicode="&#x117;" horiz-adv-x="552" 
d="M314 -11q-88 0 -153 31.5t-100.5 90.5t-35.5 139q0 81 35.5 142t96.5 95t136 34q92 0 147 -40t75.5 -110.5t7.5 -162.5h-308q7 -25 36 -43.5t78 -18.5q28 0 53.5 9.5t41.5 26.5l97 -113q-28 -33 -77.5 -56.5t-129.5 -23.5zM301 390q-31 0 -53 -17t-30 -48h151
q-3 65 -68 65zM291 559q-52 0 -83 31.5t-31 75.5t30.5 75.5t83.5 31.5t83.5 -31.5t30.5 -75.5t-30.5 -75.5t-83.5 -31.5z" />
    <glyph glyph-name="Eogonek" unicode="&#x118;" horiz-adv-x="595" 
d="M578 539h-321v-97h295v-171h-295v-100h329l-12 -171h-514v710h518v-171zM506 -223q-48 0 -86.5 15t-61 42t-22.5 62q0 106 165 145l73 -41q-50 -20 -67 -40.5t-17 -37.5q0 -35 38 -35q12 0 27 8t24 19l60 -87q-19 -24 -54 -37t-79 -13z" />
    <glyph glyph-name="eogonek" unicode="&#x119;" horiz-adv-x="552" 
d="M379 -223q-49 0 -87.5 15t-61 42t-22.5 62q0 60 53 96q-109 14 -172.5 82t-63.5 176q0 81 35.5 142t96.5 95t136 34q92 0 147 -40t75.5 -110.5t7.5 -162.5h-308q7 -25 36 -43.5t78 -18.5q28 0 53.5 9.5t41.5 26.5l97 -113q-12 -15 -26 -26t-34 -22q-42 -24 -63.5 -41.5
t-28.5 -31t-7 -28.5q0 -33 39 -33q12 0 27 8t24 19l59 -87q-18 -24 -53 -37t-79 -13zM301 390q-31 0 -53 -17t-30 -48h151q-3 65 -68 65z" />
    <glyph glyph-name="Ecaron" unicode="&#x11a;" horiz-adv-x="595" 
d="M578 539h-321v-97h295v-171h-295v-100h329l-12 -171h-514v710h518v-171zM244 769l-136 167l163 10l48 -65l48 65l163 -10l-136 -167h-150z" />
    <glyph glyph-name="ecaron" unicode="&#x11b;" horiz-adv-x="552" 
d="M314 -11q-88 0 -153 31.5t-100.5 90.5t-35.5 139q0 81 35.5 142t96.5 95t136 34q92 0 147 -40t75.5 -110.5t7.5 -162.5h-308q7 -25 36 -43.5t78 -18.5q28 0 53.5 9.5t41.5 26.5l97 -113q-28 -33 -77.5 -56.5t-129.5 -23.5zM301 390q-31 0 -53 -17t-30 -48h151
q-3 65 -68 65zM216 573l-136 167l163 10l48 -65l48 65l163 -10l-136 -167h-150z" />
    <glyph glyph-name="Gcircumflex" unicode="&#x11c;" horiz-adv-x="784" 
d="M421 403h326v-403h-158l-13 61q-31 -36 -82 -54t-109 -18q-109 0 -189.5 42t-124.5 121t-44 188q0 113 50.5 198.5t142 133.5t213.5 48q113 0 187 -36t123 -110l-152 -110q-23 41 -66.5 59t-90.5 18q-92 0 -145.5 -54t-53.5 -142q0 -84 46.5 -131t128.5 -47
q47 0 84.5 19.5t52.5 55.5h-126v161zM606 769h-171l-40 55l-41 -55h-171l137 167h150z" />
    <glyph glyph-name="gcircumflex" unicode="&#x11d;" horiz-adv-x="639" 
d="M241 -210q-31 0 -69 5t-72.5 14.5t-57.5 24.5l44 158q34 -17 77 -28.5t91 -11.5q77 0 109.5 33t38.5 101q-50 -73 -151 -73q-67 0 -118 28.5t-79.5 82t-28.5 127.5q0 81 37 142t97.5 94.5t130.5 33.5q54 0 92 -18t58 -49l15 56h132v-398q0 -109 -44 -180.5t-122 -106.5
t-180 -35zM318 361q-47 0 -74.5 -30t-27.5 -74q0 -41 21.5 -62.5t60.5 -21.5q41 0 71.5 30t30.5 79q0 36 -22 57.5t-60 21.5zM537 573h-171l-40 55l-41 -55h-171l137 167h150z" />
    <glyph glyph-name="Gbreve" unicode="&#x11e;" horiz-adv-x="784" 
d="M421 403h326v-403h-158l-13 61q-31 -36 -82 -54t-109 -18q-109 0 -189.5 42t-124.5 121t-44 188q0 113 50.5 198.5t142 133.5t213.5 48q113 0 187 -36t123 -110l-152 -110q-23 41 -66.5 59t-90.5 18q-92 0 -145.5 -54t-53.5 -142q0 -84 46.5 -131t128.5 -47
q47 0 84.5 19.5t52.5 55.5h-126v161zM468 949l117 -13q-5 -79 -56 -125.5t-134 -46.5q-82 0 -133.5 46.5t-56.5 125.5l117 13q14 -65 73 -65t73 65z" />
    <glyph glyph-name="gbreve" unicode="&#x11f;" horiz-adv-x="639" 
d="M241 -210q-31 0 -69 5t-72.5 14.5t-57.5 24.5l44 158q34 -17 77 -28.5t91 -11.5q77 0 109.5 33t38.5 101q-50 -73 -151 -73q-67 0 -118 28.5t-79.5 82t-28.5 127.5q0 81 37 142t97.5 94.5t130.5 33.5q54 0 92 -18t58 -49l15 56h132v-398q0 -109 -44 -180.5t-122 -106.5
t-180 -35zM318 361q-47 0 -74.5 -30t-27.5 -74q0 -41 21.5 -62.5t60.5 -21.5q41 0 71.5 30t30.5 79q0 36 -22 57.5t-60 21.5zM399 753l117 -13q-5 -79 -56 -125.5t-134 -46.5q-82 0 -133.5 46.5t-56.5 125.5l117 13q14 -65 73 -65t73 65z" />
    <glyph glyph-name="Gdotaccent" unicode="&#x120;" horiz-adv-x="784" 
d="M421 403h326v-403h-158l-13 61q-31 -36 -82 -54t-109 -18q-109 0 -189.5 42t-124.5 121t-44 188q0 113 50.5 198.5t142 133.5t213.5 48q113 0 187 -36t123 -110l-152 -110q-23 41 -66.5 59t-90.5 18q-92 0 -145.5 -54t-53.5 -142q0 -84 46.5 -131t128.5 -47
q47 0 84.5 19.5t52.5 55.5h-126v161zM395 755q-52 0 -83 31.5t-31 75.5t30.5 75.5t83.5 31.5t83.5 -31.5t30.5 -75.5t-30.5 -75.5t-83.5 -31.5z" />
    <glyph glyph-name="gdotaccent" unicode="&#x121;" horiz-adv-x="639" 
d="M241 -210q-31 0 -69 5t-72.5 14.5t-57.5 24.5l44 158q34 -17 77 -28.5t91 -11.5q77 0 109.5 33t38.5 101q-50 -73 -151 -73q-67 0 -118 28.5t-79.5 82t-28.5 127.5q0 81 37 142t97.5 94.5t130.5 33.5q54 0 92 -18t58 -49l15 56h132v-398q0 -109 -44 -180.5t-122 -106.5
t-180 -35zM318 361q-47 0 -74.5 -30t-27.5 -74q0 -41 21.5 -62.5t60.5 -21.5q41 0 71.5 30t30.5 79q0 36 -22 57.5t-60 21.5zM326 559q-52 0 -83 31.5t-31 75.5t30.5 75.5t83.5 31.5t83.5 -31.5t30.5 -75.5t-30.5 -75.5t-83.5 -31.5z" />
    <glyph glyph-name="uni0122" unicode="&#x122;" horiz-adv-x="784" 
d="M421 403h326v-403h-158l-13 61q-31 -36 -82 -54t-109 -18q-109 0 -189.5 42t-124.5 121t-44 188q0 113 50.5 198.5t142 133.5t213.5 48q113 0 187 -36t123 -110l-152 -110q-23 41 -66.5 59t-90.5 18q-92 0 -145.5 -54t-53.5 -142q0 -84 46.5 -131t128.5 -47
q47 0 84.5 19.5t52.5 55.5h-126v161zM305 -230q13 21 17 38t4 30q0 23 -10 35.5t-10 26.5q0 23 24 39.5t66 16.5t66 -18t24 -51q0 -20 -12.5 -44t-34.5 -43.5t-52 -29.5h-82z" />
    <glyph glyph-name="uni0123" unicode="&#x123;" horiz-adv-x="639" 
d="M241 -210q-31 0 -69 5t-72.5 14.5t-57.5 24.5l44 158q34 -17 77 -28.5t91 -11.5q77 0 109.5 33t38.5 101q-50 -73 -151 -73q-67 0 -118 28.5t-79.5 82t-28.5 127.5q0 81 37 142t97.5 94.5t130.5 33.5q54 0 92 -18t58 -49l15 56h132v-398q0 -109 -44 -180.5t-122 -106.5
t-180 -35zM318 361q-47 0 -74.5 -30t-27.5 -74q0 -41 21.5 -62.5t60.5 -21.5q41 0 71.5 30t30.5 79q0 36 -22 57.5t-60 21.5zM417 750q-13 -18 -17 -34.5t-4 -29.5q0 -23 10 -35.5t10 -27.5q0 -22 -24 -38.5t-66 -16.5t-66 18t-24 50q0 21 12.5 44.5t35 42.5t51.5 27h82z
" />
    <glyph glyph-name="Hcircumflex" unicode="&#x124;" horiz-adv-x="774" 
d="M60 0v710h200v-267h254v267h200v-710h-200v270h-254v-270h-200zM598 769h-171l-40 55l-41 -55h-171l137 167h150z" />
    <glyph glyph-name="hcircumflex" unicode="&#x125;" horiz-adv-x="644" 
d="M52 0v740h186v-226l-7 -97q31 50 77.5 77t103.5 27q95 0 143 -63.5t47 -187.5l-2 -270h-186l2 260q0 90 -59 90q-24 0 -45 -15.5t-37 -54t-26 -107t-12 -173.5h-185zM537 769h-171l-40 55l-41 -55h-171l137 167h150z" />
    <glyph glyph-name="Hbar" unicode="&#x126;" horiz-adv-x="774" 
d="M60 0v710h200v-267h254v267h200v-710h-200v270h-254v-270h-200zM17 502v136h740v-136h-740z" />
    <glyph glyph-name="hbar" unicode="&#x127;" horiz-adv-x="644" 
d="M52 0v740h186v-226l-7 -97q31 50 77.5 77t103.5 27q95 0 143 -63.5t47 -187.5l-2 -270h-186l2 260q0 90 -59 90q-24 0 -45 -15.5t-37 -54t-26 -107t-12 -173.5h-185zM-9 565v130h428v-130h-428z" />
    <glyph glyph-name="Itilde" unicode="&#x128;" horiz-adv-x="320" 
d="M60 0v710h200v-710h-200zM238 762q-30 0 -61 12.5t-59 25t-50 12.5q-12 0 -30 -9.5t-30 -29.5l-67 61q17 58 54 85.5t87 27.5q30 0 61.5 -12t60 -24.5t48.5 -12.5q17 0 33.5 9t26.5 31l67 -60q-16 -58 -53.5 -87t-87.5 -29z" />
    <glyph glyph-name="itilde" unicode="&#x129;" horiz-adv-x="290" 
d="M238 514v-514h-186v514h186zM223 566q-30 0 -61 12.5t-59 25t-50 12.5q-12 0 -30 -9.5t-30 -29.5l-67 61q17 58 54 85.5t87 27.5q30 0 61.5 -12t60 -24.5t48.5 -12.5q17 0 33.5 9t26.5 31l67 -60q-16 -58 -53.5 -87t-87.5 -29z" />
    <glyph glyph-name="Imacron" unicode="&#x12a;" horiz-adv-x="320" 
d="M60 0v710h200v-710h-200zM-20 912h360v-122h-360v122z" />
    <glyph glyph-name="imacron" unicode="&#x12b;" horiz-adv-x="290" 
d="M238 514v-514h-186v514h186zM-35 716h360v-122h-360v122z" />
    <glyph glyph-name="Ibreve" unicode="&#x12c;" horiz-adv-x="320" 
d="M60 0v710h200v-710h-200zM233 949l117 -13q-5 -79 -56 -125.5t-134 -46.5q-82 0 -133.5 46.5t-56.5 125.5l117 13q14 -65 73 -65t73 65z" />
    <glyph glyph-name="ibreve" unicode="&#x12d;" horiz-adv-x="290" 
d="M238 514v-514h-186v514h186zM218 753l117 -13q-5 -79 -56 -125.5t-134 -46.5q-82 0 -133.5 46.5t-56.5 125.5l117 13q14 -65 73 -65t73 65z" />
    <glyph glyph-name="Iogonek" unicode="&#x12e;" horiz-adv-x="320" 
d="M60 0v710h200v-710h-200zM190 -223q-68 0 -113.5 33t-45.5 86q0 106 165 145l64 -41q-45 -25 -60 -43.5t-15 -39.5q0 -30 30 -30q9 0 20.5 8t18.5 19l61 -87q-17 -24 -50.5 -37t-74.5 -13z" />
    <glyph glyph-name="iogonek" unicode="&#x12f;" horiz-adv-x="290" 
d="M238 514v-514h-186v514h186zM144 553q-52 0 -83 31.5t-31 75.5t30.5 75.5t83.5 31.5t83.5 -31.5t30.5 -75.5t-30.5 -75.5t-83.5 -31.5zM168 -223q-68 0 -113.5 33t-45.5 86q0 106 165 145l64 -41q-45 -25 -60 -43.5t-15 -39.5q0 -30 30 -30q9 0 20.5 8t18.5 19l61 -87
q-17 -24 -50.5 -37t-74.5 -13z" />
    <glyph glyph-name="Idotaccent" unicode="&#x130;" horiz-adv-x="320" 
d="M60 0v710h200v-710h-200zM160 755q-52 0 -83 31.5t-31 75.5t30.5 75.5t83.5 31.5t83.5 -31.5t30.5 -75.5t-30.5 -75.5t-83.5 -31.5z" />
    <glyph glyph-name="dotlessi" unicode="&#x131;" horiz-adv-x="290" 
d="M238 514v-514h-186v514h186z" />
    <glyph glyph-name="Jcircumflex" unicode="&#x134;" horiz-adv-x="523" 
d="M211 -11q-93 0 -156 43t-87 122l162 73q12 -34 31.5 -48.5t43.5 -14.5q28 0 44 17.5t16 48.5v480h200v-455q0 -124 -67.5 -195t-186.5 -71zM576 769h-171l-40 55l-41 -55h-171l137 167h150z" />
    <glyph glyph-name="jcircumflex" unicode="&#x135;" horiz-adv-x="299" 
d="M-9 -194q-35 0 -66.5 4t-54.5 11l22 152q14 -3 40 -7t52 -4q39 0 58 17t19 63v472h186v-469q0 -77 -32.5 -130.5t-90 -81t-133.5 -27.5zM365 573h-171l-40 55l-41 -55h-171l137 167h150z" />
    <glyph glyph-name="uni0136" unicode="&#x136;" horiz-adv-x="719" 
d="M60 0v710h200v-295l253 295h238l-310 -356q24 -13 43 -33t33 -44l39 -67q26 -47 79 -47q43 0 77 21l46 -154q-24 -19 -64 -30.5t-81 -11.5q-151 0 -216 111l-65 111q-16 27 -31 40.5t-41 18.5v-269h-200zM267 -230q13 21 17 38t4 30q0 23 -10 35.5t-10 26.5q0 23 24 39.5
t66 16.5t66 -18t24 -51q0 -20 -12.5 -44t-34.5 -43.5t-52 -29.5h-82z" />
    <glyph glyph-name="uni0137" unicode="&#x137;" horiz-adv-x="611" 
d="M52 0v740h186v-424l179 198h219l-225 -249q21 -14 35 -36l26 -41q13 -20 33.5 -33t51.5 -13q18 0 32.5 4t28.5 11l39 -136q-31 -18 -65.5 -25.5t-71.5 -7.5q-74 0 -120.5 26.5t-83.5 87.5l-25 42q-13 22 -25.5 36.5t-27.5 22.5v-203h-186zM266 -230q13 21 17 38t4 30
q0 23 -10 35.5t-10 26.5q0 23 24 39.5t66 16.5t66 -18t24 -51q0 -20 -12.5 -44t-34.5 -43.5t-52 -29.5h-82z" />
    <glyph glyph-name="kgreenlandic" unicode="&#x138;" horiz-adv-x="611" 
d="M52 0v514h186v-198l179 198h219l-225 -249q21 -14 35 -36l26 -41q13 -20 33.5 -33t51.5 -13q18 0 32.5 4t28.5 11l39 -136q-31 -18 -65.5 -25.5t-71.5 -7.5q-74 0 -120.5 26.5t-83.5 87.5l-25 42q-13 22 -25.5 36.5t-27.5 22.5v-203h-186z" />
    <glyph glyph-name="Lacute" unicode="&#x139;" horiz-adv-x="552" 
d="M60 0v710h200v-536h296l-12 -174h-484zM82 769l126 177l187 -45l-152 -132h-161z" />
    <glyph glyph-name="lacute" unicode="&#x13a;" horiz-adv-x="327" 
d="M228 -11q-83 0 -129.5 45t-46.5 131v575h186v-558q0 -19 10 -27.5t26 -8.5q20 0 35 11l43 -132q-18 -15 -51 -25.5t-73 -10.5zM67 769l126 177l187 -45l-152 -132h-161z" />
    <glyph glyph-name="uni013B" unicode="&#x13b;" horiz-adv-x="552" 
d="M60 0v710h200v-536h296l-12 -174h-484zM213 -230q13 21 17 38t4 30q0 23 -10 35.5t-10 26.5q0 23 24 39.5t66 16.5t66 -18t24 -51q0 -20 -12.5 -44t-34.5 -43.5t-52 -29.5h-82z" />
    <glyph glyph-name="uni013C" unicode="&#x13c;" horiz-adv-x="327" 
d="M228 -11q-83 0 -129.5 45t-46.5 131v575h186v-558q0 -19 10 -27.5t26 -8.5q20 0 35 11l43 -132q-18 -15 -51 -25.5t-73 -10.5zM65 -230q13 21 17 38t4 30q0 23 -10 35.5t-10 26.5q0 23 24 39.5t66 16.5t66 -18t24 -51q0 -20 -12.5 -44t-34.5 -43.5t-52 -29.5h-82z" />
    <glyph glyph-name="Lcaron" unicode="&#x13d;" horiz-adv-x="552" 
d="M60 0v710h200v-536h296l-12 -174h-484zM360 525v225h138l-39 -225h-99z" />
    <glyph glyph-name="lcaron" unicode="&#x13e;" horiz-adv-x="327" 
d="M228 -11q-83 0 -129.5 45t-46.5 131v575h186v-558q0 -19 10 -27.5t26 -8.5q20 0 35 11l43 -132q-18 -15 -51 -25.5t-73 -10.5zM264 555v225h138l-39 -225h-99z" />
    <glyph glyph-name="Ldot" unicode="&#x13f;" horiz-adv-x="552" 
d="M60 0v710h200v-536h296l-12 -174h-484zM456 345q-55 0 -87 31t-32 76q0 44 32 75.5t87 31.5t87.5 -31.5t32.5 -75.5q0 -45 -32.5 -76t-87.5 -31z" />
    <glyph glyph-name="ldot" unicode="&#x140;" horiz-adv-x="479" 
d="M228 -11q-83 0 -129.5 45t-46.5 131v575h186v-558q0 -19 10 -27.5t26 -8.5q20 0 35 11l43 -132q-18 -15 -51 -25.5t-73 -10.5zM389 343q-55 0 -87 31t-32 76q0 44 32 75.5t87 31.5t87.5 -31.5t32.5 -75.5q0 -45 -32.5 -76t-87.5 -31z" />
    <glyph glyph-name="Lslash" unicode="&#x141;" horiz-adv-x="552" 
d="M60 0v710h200v-536h296l-12 -174h-484zM30 213l-79 111l434 301l77 -111z" />
    <glyph glyph-name="lslash" unicode="&#x142;" horiz-adv-x="327" 
d="M228 -11q-83 0 -129.5 45t-46.5 131v575h186v-558q0 -19 10 -27.5t26 -8.5q20 0 35 11l43 -132q-18 -15 -51 -25.5t-73 -10.5zM31 211l-75 89l302 246l76 -88z" />
    <glyph glyph-name="Nacute" unicode="&#x143;" horiz-adv-x="765" 
d="M513 710h192v-710h-178l-275 382v-382h-192v710h178l275 -381v381zM304 772l126 177l187 -45l-152 -132h-161z" />
    <glyph glyph-name="nacute" unicode="&#x144;" horiz-adv-x="644" 
d="M52 0v514h185l-7 -97q32 49 78.5 76.5t103.5 27.5q95 0 143 -63.5t47 -187.5l-2 -270h-186l2 260q0 90 -59 90q-24 0 -45 -15.5t-37 -54t-26 -107t-12 -173.5h-185zM248 573l126 177l187 -45l-152 -132h-161z" />
    <glyph glyph-name="uni0145" unicode="&#x145;" horiz-adv-x="765" 
d="M513 710h192v-710h-178l-275 382v-382h-192v710h178l275 -381v381zM292 -230q13 21 17 38t4 30q0 23 -10 35.5t-10 26.5q0 23 24 39.5t66 16.5t66 -18t24 -51q0 -20 -12.5 -44t-34.5 -43.5t-52 -29.5h-82z" />
    <glyph glyph-name="uni0146" unicode="&#x146;" horiz-adv-x="644" 
d="M52 0v514h185l-7 -97q32 49 78.5 76.5t103.5 27.5q95 0 143 -63.5t47 -187.5l-2 -270h-186l2 260q0 90 -59 90q-24 0 -45 -15.5t-37 -54t-26 -107t-12 -173.5h-185zM236 -230q13 21 17 38t4 30q0 23 -10 35.5t-10 26.5q0 23 24 39.5t66 16.5t66 -18t24 -51
q0 -20 -12.5 -44t-34.5 -43.5t-52 -29.5h-82z" />
    <glyph glyph-name="Ncaron" unicode="&#x147;" horiz-adv-x="765" 
d="M513 710h192v-710h-178l-275 382v-382h-192v710h178l275 -381v381zM307 772l-136 167l163 10l48 -65l48 65l163 -10l-136 -167h-150z" />
    <glyph glyph-name="ncaron" unicode="&#x148;" horiz-adv-x="644" 
d="M52 0v514h185l-7 -97q32 49 78.5 76.5t103.5 27.5q95 0 143 -63.5t47 -187.5l-2 -270h-186l2 260q0 90 -59 90q-24 0 -45 -15.5t-37 -54t-26 -107t-12 -173.5h-185zM251 573l-136 167l163 10l48 -65l48 65l163 -10l-136 -167h-150z" />
    <glyph glyph-name="napostrophe" unicode="&#x149;" horiz-adv-x="889" 
d="M38 292q21 48 32.5 86.5t11.5 69.5q0 36 -10 60.5t-20.5 46t-10.5 48.5q0 53 34 86t90 33q59 0 92.5 -35t33.5 -97q0 -42 -21 -95.5t-56.5 -107t-80.5 -95.5h-95zM297 0v514h185l-7 -97q32 49 78.5 76.5t103.5 27.5q95 0 143 -63.5t47 -187.5l-2 -270h-186l2 260
q0 90 -59 90q-24 0 -45 -15.5t-37 -54t-26 -107t-12 -173.5h-185z" />
    <glyph glyph-name="Eng" unicode="&#x14a;" horiz-adv-x="765" 
d="M467 -211q-81 0 -141 41t-79 124l162 66q8 -27 22.5 -43t37.5 -16q18 0 31.5 12t13.5 36v9l-262 364v-382h-192v710h178l275 -381v381h192v-649q0 -91 -33.5 -151.5t-87.5 -90.5t-117 -30z" />
    <glyph glyph-name="eng" unicode="&#x14b;" horiz-adv-x="644" 
d="M600 51q0 -78 -31.5 -132.5t-86 -83.5t-125.5 -29q-26 0 -52 3.5t-47 10.5l29 144q12 -4 27 -5.5t31 -1.5q32 0 50 20.5t19 69.5l2 213q2 90 -59 90q-24 0 -45 -15.5t-37 -54t-26 -107t-12 -173.5h-185v514h185l-7 -97q32 49 78.5 76.5t103.5 27.5q95 0 143.5 -63.5
t46.5 -187.5z" />
    <glyph glyph-name="Omacron" unicode="&#x14c;" horiz-adv-x="786" 
d="M396 -10q-115 -1 -198 41t-127 121t-44 190q0 114 48 199t134 132t201 47q105 0 183.5 -44t122 -122.5t43.5 -184.5q0 -112 -45.5 -197t-127.5 -133t-190 -49zM391 165q77 0 122 54.5t45 145.5q0 82 -42.5 131t-113.5 49q-52 0 -91 -25.5t-60.5 -70t-21.5 -102.5
q0 -86 43 -134t119 -48zM213 912h360v-122h-360v122z" />
    <glyph glyph-name="omacron" unicode="&#x14d;" horiz-adv-x="607" 
d="M314 521q83 0 143 -31t92.5 -88t32.5 -135q0 -80 -36 -143t-101.5 -99t-153.5 -36q-124 0 -195 68.5t-71 185.5q0 80 36 143t101 99t152 36zM300 149q41 0 66 31.5t25 83.5q0 46 -22.5 71.5t-60.5 25.5q-42 0 -67 -31t-25 -84q0 -46 22 -71.5t62 -25.5zM124 716h360v-122
h-360v122z" />
    <glyph glyph-name="Obreve" unicode="&#x14e;" horiz-adv-x="786" 
d="M396 -10q-115 -1 -198 41t-127 121t-44 190q0 114 48 199t134 132t201 47q105 0 183.5 -44t122 -122.5t43.5 -184.5q0 -112 -45.5 -197t-127.5 -133t-190 -49zM391 165q77 0 122 54.5t45 145.5q0 82 -42.5 131t-113.5 49q-52 0 -91 -25.5t-60.5 -70t-21.5 -102.5
q0 -86 43 -134t119 -48zM466 949l117 -13q-5 -79 -56 -125.5t-134 -46.5q-82 0 -133.5 46.5t-56.5 125.5l117 13q14 -65 73 -65t73 65z" />
    <glyph glyph-name="obreve" unicode="&#x14f;" horiz-adv-x="607" 
d="M314 521q83 0 143 -31t92.5 -88t32.5 -135q0 -80 -36 -143t-101.5 -99t-153.5 -36q-124 0 -195 68.5t-71 185.5q0 80 36 143t101 99t152 36zM300 149q41 0 66 31.5t25 83.5q0 46 -22.5 71.5t-60.5 25.5q-42 0 -67 -31t-25 -84q0 -46 22 -71.5t62 -25.5zM377 753l117 -13
q-5 -79 -56 -125.5t-134 -46.5q-82 0 -133.5 46.5t-56.5 125.5l117 13q14 -65 73 -65t73 65z" />
    <glyph glyph-name="Ohungarumlaut" unicode="&#x150;" horiz-adv-x="786" 
d="M396 -10q-115 -1 -198 41t-127 121t-44 190q0 114 48 199t134 132t201 47q105 0 183.5 -44t122 -122.5t43.5 -184.5q0 -112 -45.5 -197t-127.5 -133t-190 -49zM391 165q77 0 122 54.5t45 145.5q0 82 -42.5 131t-113.5 49q-52 0 -91 -25.5t-60.5 -70t-21.5 -102.5
q0 -86 43 -134t119 -48zM575 769h-139l74 177l164 -45zM350 769h-139l74 177l163 -45z" />
    <glyph glyph-name="ohungarumlaut" unicode="&#x151;" horiz-adv-x="607" 
d="M314 521q83 0 143 -31t92.5 -88t32.5 -135q0 -80 -36 -143t-101.5 -99t-153.5 -36q-124 0 -195 68.5t-71 185.5q0 80 36 143t101 99t152 36zM300 149q41 0 66 31.5t25 83.5q0 46 -22.5 71.5t-60.5 25.5q-42 0 -67 -31t-25 -84q0 -46 22 -71.5t62 -25.5zM486 573h-139
l74 177l164 -45zM261 573h-139l74 177l163 -45z" />
    <glyph glyph-name="OE" unicode="&#x152;" horiz-adv-x="1018" 
d="M691 171h318l-11 -171h-372q-44 0 -83 -3.5t-91 -3.5q-211 0 -318 90.5t-107 250.5q0 121 53 206.5t149.5 131t227.5 45.5q42 0 90.5 -3.5t87.5 -3.5h367v-171h-311v-97h285v-171h-285v-100zM494 171v368q-16 4 -31 5t-32 1q-97 0 -149.5 -54.5t-52.5 -151.5
q0 -79 47.5 -127t151.5 -48q17 0 33 2t33 5z" />
    <glyph glyph-name="oe" unicode="&#x153;" horiz-adv-x="915" 
d="M286 -11q-80 0 -139 31t-90.5 88t-31.5 135q0 80 35.5 143t99.5 99t149 36q69 0 115.5 -20.5t74.5 -59.5q34 39 80 59.5t96 20.5q83 0 134 -40t70.5 -110.5t7.5 -162.5h-303q7 -25 35 -43.5t76 -18.5q27 0 51.5 9.5t40.5 26.5l96 -113q-28 -33 -73.5 -56.5t-123.5 -23.5
q-132 0 -200 85q-32 -40 -82 -62.5t-118 -22.5zM667 390q-30 0 -51 -17t-30 -48h146q-2 65 -65 65zM300 149q41 0 66 31.5t25 83.5q0 46 -22.5 71.5t-60.5 25.5q-42 0 -67 -31t-25 -84q0 -46 22 -71.5t62 -25.5z" />
    <glyph glyph-name="Racute" unicode="&#x154;" horiz-adv-x="686" 
d="M686 184l46 -154q-24 -19 -64 -30.5t-81 -11.5q-79 0 -131 29t-84 82l-66 111q-12 20 -23 30t-27 13v-253h-196v710h240q164 0 242.5 -62t78.5 -172q0 -78 -45 -129.5t-119 -72.5q38 -12 60 -45l18 -27q25 -39 77 -39q19 0 37.5 4.5t36.5 16.5zM298 549h-42v-141h51
q65 0 90.5 17.5t25.5 54.5q0 40 -34.5 54.5t-90.5 14.5zM278 769l126 177l187 -45l-152 -132h-161z" />
    <glyph glyph-name="racute" unicode="&#x155;" horiz-adv-x="443" 
d="M429 333q-22 10 -52 10q-79 0 -109 -83t-30 -260h-185v334l-2 180h185l-8 -132q24 72 69 105.5t100 33.5q17 0 32.5 -2t33.5 -8zM180 573l126 177l187 -45l-152 -132h-161z" />
    <glyph glyph-name="uni0156" unicode="&#x156;" horiz-adv-x="686" 
d="M686 184l46 -154q-24 -19 -64 -30.5t-81 -11.5q-79 0 -131 29t-84 82l-66 111q-12 20 -23 30t-27 13v-253h-196v710h240q164 0 242.5 -62t78.5 -172q0 -78 -45 -129.5t-119 -72.5q38 -12 60 -45l18 -27q25 -39 77 -39q19 0 37.5 4.5t36.5 16.5zM298 549h-42v-141h51
q65 0 90.5 17.5t25.5 54.5q0 40 -34.5 54.5t-90.5 14.5zM266 -230q13 21 17 38t4 30q0 23 -10 35.5t-10 26.5q0 23 24 39.5t66 16.5t66 -18t24 -51q0 -20 -12.5 -44t-34.5 -43.5t-52 -29.5h-82z" />
    <glyph glyph-name="uni0157" unicode="&#x157;" horiz-adv-x="443" 
d="M429 333q-22 10 -52 10q-79 0 -109 -83t-30 -260h-185v334l-2 180h185l-8 -132q24 72 69 105.5t100 33.5q17 0 32.5 -2t33.5 -8zM56 -230q13 21 17 38t4 30q0 23 -10 35.5t-10 26.5q0 23 24 39.5t66 16.5t66 -18t24 -51q0 -20 -12.5 -44t-34.5 -43.5t-52 -29.5h-82z" />
    <glyph glyph-name="Rcaron" unicode="&#x158;" horiz-adv-x="686" 
d="M686 184l46 -154q-24 -19 -64 -30.5t-81 -11.5q-79 0 -131 29t-84 82l-66 111q-12 20 -23 30t-27 13v-253h-196v710h240q164 0 242.5 -62t78.5 -172q0 -78 -45 -129.5t-119 -72.5q38 -12 60 -45l18 -27q25 -39 77 -39q19 0 37.5 4.5t36.5 16.5zM298 549h-42v-141h51
q65 0 90.5 17.5t25.5 54.5q0 40 -34.5 54.5t-90.5 14.5zM281 769l-136 167l163 10l48 -65l48 65l163 -10l-136 -167h-150z" />
    <glyph glyph-name="rcaron" unicode="&#x159;" horiz-adv-x="443" 
d="M429 333q-22 10 -52 10q-79 0 -109 -83t-30 -260h-185v334l-2 180h185l-8 -132q24 72 69 105.5t100 33.5q17 0 32.5 -2t33.5 -8zM183 573l-136 167l163 10l48 -65l48 65l163 -10l-136 -167h-150z" />
    <glyph glyph-name="Sacute" unicode="&#x15a;" horiz-adv-x="613" 
d="M299 -10q-134 0 -209 57t-85 166l185 27q2 -38 33.5 -61.5t81.5 -23.5q92 0 92 48q0 22 -25.5 35.5t-83.5 27.5q-124 30 -182 80t-57 141q1 69 36.5 121.5t100 82t151.5 29.5q107 0 176.5 -54t79.5 -147l-175 -30q-5 29 -30.5 47.5t-61.5 18.5q-34 0 -54.5 -13.5
t-20.5 -36.5q0 -21 20.5 -36.5t77.5 -29.5q82 -20 137.5 -45.5t84 -65.5t28.5 -105q0 -69 -37.5 -121.5t-105 -82t-157.5 -29.5zM237 769l126 177l187 -45l-152 -132h-161z" />
    <glyph glyph-name="sacute" unicode="&#x15b;" horiz-adv-x="499" 
d="M250 -11q-78 0 -131 21t-81.5 56t-35.5 76l153 38q5 -19 32 -34.5t70 -15.5q28 0 42 6.5t14 16.5q0 6 -6 10t-24 8t-56 9q-195 27 -195 166q0 51 29.5 90.5t82 62.5t121.5 23q60 0 106.5 -19t75 -50.5t34.5 -68.5l-150 -43q-6 15 -24.5 27.5t-52.5 12.5q-23 0 -35 -6.5
t-12 -15.5q0 -8 13 -15.5t65 -16.5q61 -10 106.5 -28.5t71 -51.5t24.5 -88q0 -53 -31.5 -91t-84.5 -58.5t-121 -20.5zM189 573l126 177l187 -45l-152 -132h-161z" />
    <glyph glyph-name="Scircumflex" unicode="&#x15c;" horiz-adv-x="613" 
d="M299 -10q-134 0 -209 57t-85 166l185 27q2 -38 33.5 -61.5t81.5 -23.5q92 0 92 48q0 22 -25.5 35.5t-83.5 27.5q-124 30 -182 80t-57 141q1 69 36.5 121.5t100 82t151.5 29.5q107 0 176.5 -54t79.5 -147l-175 -30q-5 29 -30.5 47.5t-61.5 18.5q-34 0 -54.5 -13.5
t-20.5 -36.5q0 -21 20.5 -36.5t77.5 -29.5q82 -20 137.5 -45.5t84 -65.5t28.5 -105q0 -69 -37.5 -121.5t-105 -82t-157.5 -29.5zM526 769h-171l-40 55l-41 -55h-171l137 167h150z" />
    <glyph glyph-name="scircumflex" unicode="&#x15d;" horiz-adv-x="499" 
d="M250 -11q-78 0 -131 21t-81.5 56t-35.5 76l153 38q5 -19 32 -34.5t70 -15.5q28 0 42 6.5t14 16.5q0 6 -6 10t-24 8t-56 9q-195 27 -195 166q0 51 29.5 90.5t82 62.5t121.5 23q60 0 106.5 -19t75 -50.5t34.5 -68.5l-150 -43q-6 15 -24.5 27.5t-52.5 12.5q-23 0 -35 -6.5
t-12 -15.5q0 -8 13 -15.5t65 -16.5q61 -10 106.5 -28.5t71 -51.5t24.5 -88q0 -53 -31.5 -91t-84.5 -58.5t-121 -20.5zM478 573h-171l-40 55l-41 -55h-171l137 167h150z" />
    <glyph glyph-name="Scedilla" unicode="&#x15e;" horiz-adv-x="613" 
d="M299 -10q-134 0 -209 57t-85 166l185 27q2 -38 33.5 -61.5t81.5 -23.5q92 0 92 48q0 22 -25.5 35.5t-83.5 27.5q-124 30 -182 80t-57 141q1 69 36.5 121.5t100 82t151.5 29.5q107 0 176.5 -54t79.5 -147l-175 -30q-5 29 -30.5 47.5t-61.5 18.5q-34 0 -54.5 -13.5
t-20.5 -36.5q0 -21 20.5 -36.5t77.5 -29.5q82 -20 137.5 -45.5t84 -65.5t28.5 -105q0 -69 -37.5 -121.5t-105 -82t-157.5 -29.5zM298 -223q-20 0 -47.5 3.5t-52.5 9t-40 12.5l35 84q19 -7 50.5 -13t59.5 -6q21 0 28 5t7 11t-7 10.5t-25 4.5h-77l57 120h114l-18 -47
q96 -21 96 -90q0 -47 -45.5 -75.5t-134.5 -28.5z" />
    <glyph glyph-name="scedilla" unicode="&#x15f;" horiz-adv-x="499" 
d="M250 -11q-78 0 -131 21t-81.5 56t-35.5 76l153 38q5 -19 32 -34.5t70 -15.5q28 0 42 6.5t14 16.5q0 6 -6 10t-24 8t-56 9q-195 27 -195 166q0 51 29.5 90.5t82 62.5t121.5 23q60 0 106.5 -19t75 -50.5t34.5 -68.5l-150 -43q-6 15 -24.5 27.5t-52.5 12.5q-23 0 -35 -6.5
t-12 -15.5q0 -8 13 -15.5t65 -16.5q61 -10 106.5 -28.5t71 -51.5t24.5 -88q0 -53 -31.5 -91t-84.5 -58.5t-121 -20.5zM250 -223q-20 0 -47.5 3.5t-52.5 9t-40 12.5l35 84q19 -7 50.5 -13t59.5 -6q21 0 28 5t7 11t-7 10.5t-25 4.5h-77l57 120h114l-18 -47q96 -21 96 -90
q0 -47 -45.5 -75.5t-134.5 -28.5z" />
    <glyph glyph-name="Scaron" unicode="&#x160;" horiz-adv-x="613" 
d="M299 -10q-134 0 -209 57t-85 166l185 27q2 -38 33.5 -61.5t81.5 -23.5q92 0 92 48q0 22 -25.5 35.5t-83.5 27.5q-124 30 -182 80t-57 141q1 69 36.5 121.5t100 82t151.5 29.5q107 0 176.5 -54t79.5 -147l-175 -30q-5 29 -30.5 47.5t-61.5 18.5q-34 0 -54.5 -13.5
t-20.5 -36.5q0 -21 20.5 -36.5t77.5 -29.5q82 -20 137.5 -45.5t84 -65.5t28.5 -105q0 -69 -37.5 -121.5t-105 -82t-157.5 -29.5zM240 769l-136 167l163 10l48 -65l48 65l163 -10l-136 -167h-150z" />
    <glyph glyph-name="scaron" unicode="&#x161;" horiz-adv-x="499" 
d="M250 -11q-78 0 -131 21t-81.5 56t-35.5 76l153 38q5 -19 32 -34.5t70 -15.5q28 0 42 6.5t14 16.5q0 6 -6 10t-24 8t-56 9q-195 27 -195 166q0 51 29.5 90.5t82 62.5t121.5 23q60 0 106.5 -19t75 -50.5t34.5 -68.5l-150 -43q-6 15 -24.5 27.5t-52.5 12.5q-23 0 -35 -6.5
t-12 -15.5q0 -8 13 -15.5t65 -16.5q61 -10 106.5 -28.5t71 -51.5t24.5 -88q0 -53 -31.5 -91t-84.5 -58.5t-121 -20.5zM192 573l-136 167l163 10l48 -65l48 65l163 -10l-136 -167h-150z" />
    <glyph glyph-name="uni0162" unicode="&#x162;" horiz-adv-x="611" 
d="M643 710l-29 -174h-208v-536h-200v536h-222v174h659zM289 -223q-20 0 -47.5 3.5t-52.5 9t-40 12.5l35 84q19 -7 50.5 -13t59.5 -6q21 0 28 5t7 11t-7 10.5t-25 4.5h-77l57 120h114l-18 -47q96 -21 96 -90q0 -47 -45.5 -75.5t-134.5 -28.5z" />
    <glyph glyph-name="uni0163" unicode="&#x163;" horiz-adv-x="453" 
d="M299 -11q-102 0 -160 55.5t-57 145.5l3 171h-82v153h85l2 104h184l-2 -104h154v-153h-156l-2 -149q-1 -31 16.5 -47.5t48.5 -16.5q21 0 42 5.5t43 20.5l52 -140q-25 -21 -69 -33t-102 -12zM260 -223q-20 0 -47.5 3.5t-52.5 9t-40 12.5l35 84q19 -7 50.5 -13t59.5 -6
q21 0 28 5t7 11t-7 10.5t-25 4.5h-77l57 120h114l-18 -47q96 -21 96 -90q0 -47 -45.5 -75.5t-134.5 -28.5z" />
    <glyph glyph-name="Tcaron" unicode="&#x164;" horiz-adv-x="611" 
d="M643 710l-29 -174h-208v-536h-200v536h-222v174h659zM231 769l-136 167l163 10l48 -65l48 65l163 -10l-136 -167h-150z" />
    <glyph glyph-name="tcaron" unicode="&#x165;" horiz-adv-x="453" 
d="M299 -11q-102 0 -160 55.5t-57 145.5l3 171h-82v153h85l2 104h184l-2 -104h154v-153h-156l-2 -149q-1 -31 16.5 -47.5t48.5 -16.5q21 0 42 5.5t43 20.5l52 -140q-25 -21 -69 -33t-102 -12zM309 555v225h138l-39 -225h-99z" />
    <glyph glyph-name="Tbar" unicode="&#x166;" horiz-adv-x="611" 
d="M643 710l-29 -174h-208v-536h-200v536h-222v174h659zM67 292v136h478v-136h-478z" />
    <glyph glyph-name="tbar" unicode="&#x167;" horiz-adv-x="477" 
d="M301 -11q-102 0 -160 55.5t-57 145.5l3 171h-82v153h85l2 104h184l-2 -104h154v-153h-156l-2 -149q-1 -31 16.5 -47.5t48.5 -16.5q21 0 42 5.5t43 20.5l52 -140q-25 -21 -69 -33t-102 -12zM32 202v130h367v-130h-367z" />
    <glyph glyph-name="Utilde" unicode="&#x168;" horiz-adv-x="774" 
d="M519 710h196l2 -389q1 -98 -40 -173t-115 -117t-172 -42q-160 0 -246.5 80t-86.5 237v404h200v-394q0 -81 37.5 -116t96.5 -35q62 0 96.5 38t33.5 125zM465 762q-30 0 -61 12.5t-59 25t-50 12.5q-12 0 -30 -9.5t-30 -29.5l-67 61q17 58 54 85.5t87 27.5q30 0 61.5 -12
t60 -24.5t48.5 -12.5q17 0 33.5 9t26.5 31l67 -60q-16 -58 -53.5 -87t-87.5 -29z" />
    <glyph glyph-name="utilde" unicode="&#x169;" horiz-adv-x="630" 
d="M228 -11q-92 0 -139.5 61t-46.5 177l2 287h186l-2 -274q0 -78 55 -78q25 0 45.5 15.5t35.5 54.5t24 107.5t10 174.5h180v-514h-181l10 96q-30 -49 -75.5 -78t-103.5 -29zM393 566q-30 0 -61 12.5t-59 25t-50 12.5q-12 0 -30 -9.5t-30 -29.5l-67 61q17 58 54 85.5t87 27.5
q30 0 61.5 -12t60 -24.5t48.5 -12.5q17 0 33.5 9t26.5 31l67 -60q-16 -58 -53.5 -87t-87.5 -29z" />
    <glyph glyph-name="Umacron" unicode="&#x16a;" horiz-adv-x="774" 
d="M519 710h196l2 -389q1 -98 -40 -173t-115 -117t-172 -42q-160 0 -246.5 80t-86.5 237v404h200v-394q0 -81 37.5 -116t96.5 -35q62 0 96.5 38t33.5 125zM207 912h360v-122h-360v122z" />
    <glyph glyph-name="umacron" unicode="&#x16b;" horiz-adv-x="630" 
d="M228 -11q-92 0 -139.5 61t-46.5 177l2 287h186l-2 -274q0 -78 55 -78q25 0 45.5 15.5t35.5 54.5t24 107.5t10 174.5h180v-514h-181l10 96q-30 -49 -75.5 -78t-103.5 -29zM135 716h360v-122h-360v122z" />
    <glyph glyph-name="Ubreve" unicode="&#x16c;" horiz-adv-x="774" 
d="M519 710h196l2 -389q1 -98 -40 -173t-115 -117t-172 -42q-160 0 -246.5 80t-86.5 237v404h200v-394q0 -81 37.5 -116t96.5 -35q62 0 96.5 38t33.5 125zM460 949l117 -13q-5 -79 -56 -125.5t-134 -46.5q-82 0 -133.5 46.5t-56.5 125.5l117 13q14 -65 73 -65t73 65z" />
    <glyph glyph-name="ubreve" unicode="&#x16d;" horiz-adv-x="630" 
d="M228 -11q-92 0 -139.5 61t-46.5 177l2 287h186l-2 -274q0 -78 55 -78q25 0 45.5 15.5t35.5 54.5t24 107.5t10 174.5h180v-514h-181l10 96q-30 -49 -75.5 -78t-103.5 -29zM388 753l117 -13q-5 -79 -56 -125.5t-134 -46.5q-82 0 -133.5 46.5t-56.5 125.5l117 13
q14 -65 73 -65t73 65z" />
    <glyph glyph-name="Uring" unicode="&#x16e;" horiz-adv-x="774" 
d="M519 710h196l2 -389q1 -98 -40 -173t-115 -117t-172 -42q-160 0 -246.5 80t-86.5 237v404h200v-394q0 -81 37.5 -116t96.5 -35q62 0 96.5 38t33.5 125zM386 764q-35 0 -64.5 15.5t-46.5 42.5t-17 59q0 34 18 61.5t48 43.5t66 16q53 0 89.5 -33.5t36.5 -83.5
q0 -34 -17.5 -61.5t-46.5 -43.5t-66 -16zM387 832q22 0 36.5 15t14.5 38q0 21 -14.5 35t-34.5 14q-22 0 -37.5 -15t-15.5 -38q0 -22 14.5 -35.5t36.5 -13.5z" />
    <glyph glyph-name="uring" unicode="&#x16f;" horiz-adv-x="630" 
d="M228 -11q-92 0 -139.5 61t-46.5 177l2 287h186l-2 -274q0 -78 55 -78q25 0 45.5 15.5t35.5 54.5t24 107.5t10 174.5h180v-514h-181l10 96q-30 -49 -75.5 -78t-103.5 -29zM314 568q-35 0 -64.5 15.5t-46.5 42.5t-17 59q0 34 18 61.5t48 43.5t66 16q53 0 89.5 -33.5
t36.5 -83.5q0 -34 -17.5 -61.5t-46.5 -43.5t-66 -16zM315 636q22 0 36.5 15t14.5 38q0 21 -14.5 35t-34.5 14q-22 0 -37.5 -15t-15.5 -38q0 -22 14.5 -35.5t36.5 -13.5z" />
    <glyph glyph-name="Uhungarumlaut" unicode="&#x170;" horiz-adv-x="774" 
d="M519 710h196l2 -389q1 -98 -40 -173t-115 -117t-172 -42q-160 0 -246.5 80t-86.5 237v404h200v-394q0 -81 37.5 -116t96.5 -35q62 0 96.5 38t33.5 125zM569 769h-139l74 177l164 -45zM344 769h-139l74 177l163 -45z" />
    <glyph glyph-name="uhungarumlaut" unicode="&#x171;" horiz-adv-x="630" 
d="M228 -11q-92 0 -139.5 61t-46.5 177l2 287h186l-2 -274q0 -78 55 -78q25 0 45.5 15.5t35.5 54.5t24 107.5t10 174.5h180v-514h-181l10 96q-30 -49 -75.5 -78t-103.5 -29zM497 573h-139l74 177l164 -45zM272 573h-139l74 177l163 -45z" />
    <glyph glyph-name="Uogonek" unicode="&#x172;" horiz-adv-x="774" 
d="M429 -223q-49 0 -87.5 15t-61 42t-22.5 62q0 26 11.5 51t42.5 47q-124 19 -189.5 97.5t-65.5 214.5v404h200v-394q0 -81 37.5 -116t96.5 -35q62 0 96.5 38t33.5 125l-2 382h196l2 -389q1 -108 -50.5 -189t-141.5 -119q-50 -21 -74 -36.5t-31 -29t-7 -28.5q0 -32 38 -32
q12 0 27 8t24 19l60 -87q-19 -24 -54 -37t-79 -13z" />
    <glyph glyph-name="uogonek" unicode="&#x173;" horiz-adv-x="630" 
d="M228 -11q-92 0 -139.5 61t-46.5 177l2 287h186l-2 -274q0 -78 55 -78q25 0 45.5 15.5t35.5 54.5t24 107.5t10 174.5h180v-514h-181l10 96q-30 -49 -75.5 -78t-103.5 -29zM510 -223q-48 0 -86.5 15t-61 42t-22.5 62q0 106 165 145l73 -41q-50 -20 -67 -40.5t-17 -37.5
q0 -35 38 -35q12 0 27 8t24 19l60 -87q-19 -24 -54 -37t-79 -13z" />
    <glyph glyph-name="Wcircumflex" unicode="&#x174;" horiz-adv-x="1047" 
d="M877 710h187l-205 -710h-225l-102 460l-128 -460h-225l-177 710h201l100 -435l120 435h239l95 -437zM753 769h-171l-40 55l-41 -55h-171l137 167h150z" />
    <glyph glyph-name="wcircumflex" unicode="&#x175;" horiz-adv-x="903" 
d="M741 514h182l-171 -514h-233l-64 248l-74 -248h-234l-160 514h192l93 -337l101 337h174l90 -339zM671 573h-171l-40 55l-41 -55h-171l137 167h150z" />
    <glyph glyph-name="Ycircumflex" unicode="&#x176;" horiz-adv-x="636" 
d="M659 710l-238 -393v-317h-200v307l-250 403h223l134 -221l123 221h208zM534 769h-171l-40 55l-41 -55h-171l137 167h150z" />
    <glyph glyph-name="ycircumflex" unicode="&#x177;" horiz-adv-x="634" 
d="M242 -210q-32 0 -69.5 4.5t-72 14.5t-57.5 25l44 158q38 -19 77.5 -29.5t88.5 -10.5q79 0 113 34t40 106l2 25q-30 -48 -75 -76t-103 -28q-97 0 -143 64t-45 177l1 260h186l-1 -248q0 -40 15.5 -60t43.5 -20q35 0 59.5 29.5t39 101t16.5 197.5h180v-402
q0 -112 -42.5 -183t-119 -105t-178.5 -34zM527 573h-171l-40 55l-41 -55h-171l137 167h150z" />
    <glyph glyph-name="Ydieresis" unicode="&#x178;" horiz-adv-x="636" 
d="M659 710l-238 -393v-317h-200v307l-250 403h223l134 -221l123 221h208zM209 764q-34 0 -57 14.5t-34.5 37t-11.5 44.5q0 36 26 66t77 30q49 0 75.5 -30t26.5 -66q0 -22 -12 -44.5t-34.5 -37t-55.5 -14.5zM438 764q-34 0 -57 14.5t-34.5 37t-11.5 44.5q0 36 26 66t77 30
q49 0 75.5 -30t26.5 -66q0 -22 -12 -44.5t-34.5 -37t-55.5 -14.5z" />
    <glyph glyph-name="Zacute" unicode="&#x179;" horiz-adv-x="657" 
d="M35 0v143l323 393h-303v174h574v-143l-323 -393h335l-11 -174h-595zM255 769l126 177l187 -45l-152 -132h-161z" />
    <glyph glyph-name="zacute" unicode="&#x17a;" horiz-adv-x="465" 
d="M19 0v143l199 218h-193v153h432v-134l-202 -227h203v-153h-439zM163 573l126 177l187 -45l-152 -132h-161z" />
    <glyph glyph-name="Zdotaccent" unicode="&#x17b;" horiz-adv-x="657" 
d="M35 0v143l323 393h-303v174h574v-143l-323 -393h335l-11 -174h-595zM333 755q-52 0 -83 31.5t-31 75.5t30.5 75.5t83.5 31.5t83.5 -31.5t30.5 -75.5t-30.5 -75.5t-83.5 -31.5z" />
    <glyph glyph-name="zdotaccent" unicode="&#x17c;" horiz-adv-x="465" 
d="M19 0v143l199 218h-193v153h432v-134l-202 -227h203v-153h-439zM241 559q-52 0 -83 31.5t-31 75.5t30.5 75.5t83.5 31.5t83.5 -31.5t30.5 -75.5t-30.5 -75.5t-83.5 -31.5z" />
    <glyph glyph-name="Zcaron" unicode="&#x17d;" horiz-adv-x="657" 
d="M35 0v143l323 393h-303v174h574v-143l-323 -393h335l-11 -174h-595zM258 769l-136 167l163 10l48 -65l48 65l163 -10l-136 -167h-150z" />
    <glyph glyph-name="zcaron" unicode="&#x17e;" horiz-adv-x="465" 
d="M19 0v143l199 218h-193v153h432v-134l-202 -227h203v-153h-439zM166 573l-136 167l163 10l48 -65l48 65l163 -10l-136 -167h-150z" />
    <glyph glyph-name="uni018F" unicode="&#x18f;" horiz-adv-x="791" 
d="M393 720q115 0 198 -43.5t128 -123.5t45 -190q0 -78 -27 -145.5t-76.5 -119t-117 -80.5t-148.5 -29q-126 0 -213.5 53.5t-127 150t-22.5 226.5h525q-9 56 -51.5 90.5t-110.5 34.5q-61 0 -111 -23.5t-82 -67.5l-148 115q34 44 85.5 78t116 54t137.5 20zM396 156
q62 0 99.5 29.5t52.5 76.5h-300q9 -51 44 -78.5t104 -27.5z" />
    <glyph glyph-name="florin" unicode="&#x192;" horiz-adv-x="600" 
d="M99 514h94q-4 67 26.5 120.5t87 84.5t130.5 31q172 0 196 -166l-158 -19q-5 29 -42 29q-31 0 -47.5 -19t-13.5 -52l1 -9h126v-153h-117l31 -296q9 -79 -20 -137t-89.5 -90t-146.5 -32q-67 0 -121 19l23 148q21 -5 43.5 -8t47.5 -3q46 0 63.5 23t13.5 77l-23 299h-105v153
z" />
    <glyph glyph-name="Ohorn" unicode="&#x1a0;" horiz-adv-x="786" 
d="M396 -10q-115 -1 -198 41t-127 121t-44 190q0 114 48 199t134 132t201 47q105 0 183.5 -44t122 -122.5t43.5 -184.5q0 -112 -45.5 -197t-127.5 -133t-190 -49zM391 165q77 0 122 54.5t45 145.5q0 82 -42.5 131t-113.5 49q-52 0 -91 -25.5t-60.5 -70t-21.5 -102.5
q0 -86 43 -134t119 -48zM533 707q33 0 49.5 9t22.5 34t8 73l158 -12q3 -68 -23.5 -121t-75 -83t-112.5 -30h-64l-38 139q17 -1 36.5 -5t38.5 -4z" />
    <glyph glyph-name="ohorn" unicode="&#x1a1;" horiz-adv-x="607" 
d="M314 521q83 0 143 -31t92.5 -88t32.5 -135q0 -80 -36 -143t-101.5 -99t-153.5 -36q-124 0 -195 68.5t-71 185.5q0 80 36 143t101 99t152 36zM300 149q41 0 66 31.5t25 83.5q0 46 -22.5 71.5t-60.5 25.5q-42 0 -67 -31t-25 -84q0 -46 22 -71.5t62 -25.5zM413 513
q26 0 40.5 8t21 32.5t8.5 73.5l159 -12q3 -68 -24 -120t-76 -81t-112 -29h-46l-36 135q11 -1 28 -4t37 -3z" />
    <glyph glyph-name="Uhorn" unicode="&#x1af;" horiz-adv-x="774" 
d="M888 811q4 -62 -16 -115t-60 -87t-97 -41l2 -247q1 -98 -40 -173t-115 -117t-172 -42q-160 0 -246.5 80t-86.5 237v404h200v-394q0 -81 38 -116t100 -35q59 0 93 38t33 125l-2 382h135q32 0 47.5 9t21.5 33.5t7 70.5z" />
    <glyph glyph-name="uhorn" unicode="&#x1b0;" horiz-adv-x="630" 
d="M679 615q3 -69 -24.5 -121.5t-76.5 -80.5v-413h-181l10 96q-30 -49 -75.5 -78t-103.5 -29q-92 0 -139.5 61t-46.5 177l2 287h186l-2 -274q0 -78 55 -78q25 0 45.5 15.5t35.5 54.5t24 107.5t10 174.5h52q26 0 40.5 7.5t21.5 32t8 73.5z" />
    <glyph glyph-name="uni01C4" unicode="&#x1c4;" horiz-adv-x="1409" 
d="M60 0v710h250q213 0 321.5 -89.5t108.5 -264.5q0 -77 -28 -142t-79 -113t-120.5 -74.5t-151.5 -26.5h-301zM260 176h87q95 0 143.5 45t48.5 130q0 95 -51 139t-159 44h-69v-358zM787 0v143l323 393h-303v174h574v-143l-323 -393h335l-11 -174h-595zM1010 769l-136 167
l163 10l48 -65l48 65l163 -10l-136 -167h-150z" />
    <glyph glyph-name="uni01C5" unicode="&#x1c5;" horiz-adv-x="1227" 
d="M60 0v710h250q213 0 321.5 -89.5t108.5 -264.5q0 -77 -28 -142t-79 -113t-120.5 -74.5t-151.5 -26.5h-301zM260 176h87q95 0 143.5 45t48.5 130q0 95 -51 139t-159 44h-69v-358zM781 0v143l199 218h-193v153h432v-134l-202 -227h203v-153h-439zM928 573l-136 167l163 10
l48 -65l48 65l163 -10l-136 -167h-150z" />
    <glyph glyph-name="uni01C6" unicode="&#x1c6;" horiz-adv-x="1100" 
d="M583 740v-740h-185l5 73q-51 -84 -157 -84q-101 0 -161 66t-60 181q0 86 36.5 150t96.5 99.5t129 35.5q67 0 111 -31l-1 24v226h186zM316 361q-46 0 -73 -34.5t-27 -84.5q0 -45 21 -69t57 -24q41 0 71.5 34t30.5 89q0 41 -21.5 65t-58.5 24zM654 0v143l199 218h-193v153
h432v-134l-202 -227h203v-153h-439zM801 573l-136 167l163 10l48 -65l48 65l163 -10l-136 -167h-150z" />
    <glyph glyph-name="uni01C7" unicode="&#x1c7;" horiz-adv-x="1115" 
d="M60 0v710h200v-536h296l-12 -174h-484zM803 -11q-93 0 -156 43t-87 122l162 73q12 -34 31.5 -48.5t43.5 -14.5q28 0 44 17.5t16 48.5v480h200v-455q0 -124 -67.5 -195t-186.5 -71z" />
    <glyph glyph-name="uni01C8" unicode="&#x1c8;" horiz-adv-x="851" 
d="M60 0v710h200v-536h296l-12 -174h-484zM543 -194q-35 0 -66.5 4t-54.5 11l22 152q14 -3 40 -7t52 -4q39 0 58 17t19 63v472h186v-469q0 -77 -32.5 -130.5t-90 -81t-133.5 -27.5zM705 553q-52 0 -83 31.5t-31 75.5t30.5 75.5t83.5 31.5t83.5 -31.5t30.5 -75.5t-30.5 -75.5
t-83.5 -31.5z" />
    <glyph glyph-name="uni01C9" unicode="&#x1c9;" horiz-adv-x="626" 
d="M228 -11q-83 0 -129.5 45t-46.5 131v575h186v-558q0 -19 10 -27.5t26 -8.5q20 0 35 11l43 -132q-18 -15 -51 -25.5t-73 -10.5zM318 -194q-35 0 -66.5 4t-54.5 11l22 152q14 -3 40 -7t52 -4q39 0 58 17t19 63v472h186v-469q0 -77 -32.5 -130.5t-90 -81t-133.5 -27.5z
M480 553q-52 0 -83 31.5t-31 75.5t30.5 75.5t83.5 31.5t83.5 -31.5t30.5 -75.5t-30.5 -75.5t-83.5 -31.5z" />
    <glyph glyph-name="uni01CA" unicode="&#x1ca;" horiz-adv-x="1288" 
d="M513 710h192v-710h-178l-275 382v-382h-192v710h178l275 -381v381zM976 -11q-93 0 -156 43t-87 122l162 73q12 -34 31.5 -48.5t43.5 -14.5q28 0 44 17.5t16 48.5v480h200v-455q0 -124 -67.5 -195t-186.5 -71z" />
    <glyph glyph-name="uni01CB" unicode="&#x1cb;" horiz-adv-x="1064" 
d="M513 710h192v-710h-178l-275 382v-382h-192v710h178l275 -381v381zM756 -194q-35 0 -66.5 4t-54.5 11l22 152q14 -3 40 -7t52 -4q39 0 58 17t19 63v472h186v-469q0 -77 -32.5 -130.5t-90 -81t-133.5 -27.5zM918 553q-52 0 -83 31.5t-31 75.5t30.5 75.5t83.5 31.5
t83.5 -31.5t30.5 -75.5t-30.5 -75.5t-83.5 -31.5z" />
    <glyph glyph-name="uni01CC" unicode="&#x1cc;" horiz-adv-x="943" 
d="M52 0v514h185l-7 -97q32 49 78.5 76.5t103.5 27.5q95 0 143 -63.5t47 -187.5l-2 -270h-186l2 260q0 90 -59 90q-24 0 -45 -15.5t-37 -54t-26 -107t-12 -173.5h-185zM635 -194q-35 0 -66.5 4t-54.5 11l22 152q14 -3 40 -7t52 -4q39 0 58 17t19 63v472h186v-469
q0 -77 -32.5 -130.5t-90 -81t-133.5 -27.5zM797 553q-52 0 -83 31.5t-31 75.5t30.5 75.5t83.5 31.5t83.5 -31.5t30.5 -75.5t-30.5 -75.5t-83.5 -31.5z" />
    <glyph glyph-name="Gcaron" unicode="&#x1e6;" horiz-adv-x="784" 
d="M421 403h326v-403h-158l-13 61q-31 -36 -82 -54t-109 -18q-109 0 -189.5 42t-124.5 121t-44 188q0 113 50.5 198.5t142 133.5t213.5 48q113 0 187 -36t123 -110l-152 -110q-23 41 -66.5 59t-90.5 18q-92 0 -145.5 -54t-53.5 -142q0 -84 46.5 -131t128.5 -47
q47 0 84.5 19.5t52.5 55.5h-126v161zM320 769l-136 167l163 10l48 -65l48 65l163 -10l-136 -167h-150z" />
    <glyph glyph-name="gcaron" unicode="&#x1e7;" horiz-adv-x="639" 
d="M241 -210q-31 0 -69 5t-72.5 14.5t-57.5 24.5l44 158q34 -17 77 -28.5t91 -11.5q77 0 109.5 33t38.5 101q-50 -73 -151 -73q-67 0 -118 28.5t-79.5 82t-28.5 127.5q0 81 37 142t97.5 94.5t130.5 33.5q54 0 92 -18t58 -49l15 56h132v-398q0 -109 -44 -180.5t-122 -106.5
t-180 -35zM318 361q-47 0 -74.5 -30t-27.5 -74q0 -41 21.5 -62.5t60.5 -21.5q41 0 71.5 30t30.5 79q0 36 -22 57.5t-60 21.5zM251 573l-136 167l163 10l48 -65l48 65l163 -10l-136 -167h-150z" />
    <glyph glyph-name="uni01EA" unicode="&#x1ea;" horiz-adv-x="786" 
d="M435 -223q-48 0 -86.5 15t-61 42t-22.5 62q0 30 13.5 54t44.5 43q-141 19 -218.5 110.5t-77.5 238.5q0 114 48 199t134 132t201 47q105 0 183.5 -44t122 -122.5t43.5 -184.5q0 -126 -56 -215.5t-153 -132.5q-60 -26 -88 -43.5t-35.5 -31t-7.5 -27.5q0 -13 10 -22.5
t29 -9.5q12 0 27 7t23 20l60 -87q-19 -24 -54 -37t-79 -13zM391 165q77 0 122 54.5t45 145.5q0 82 -42.5 131t-113.5 49q-52 0 -91 -25.5t-60.5 -70t-21.5 -102.5q0 -86 43 -134t119 -48z" />
    <glyph glyph-name="uni01EB" unicode="&#x1eb;" horiz-adv-x="607" 
d="M343 -223q-73 0 -121.5 33t-48.5 86q0 60 54 98q-95 17 -148.5 82.5t-53.5 166.5q0 80 36 143t101 99t152 36q83 0 143 -31t92.5 -88t32.5 -135q0 -83 -39.5 -149t-111.5 -100q-47 -22 -69 -38.5t-28.5 -30.5t-6.5 -28q0 -34 39 -34q11 0 26 8t24 19l60 -87
q-19 -24 -54 -37t-79 -13zM300 149q41 0 66 31.5t25 83.5q0 46 -22.5 71.5t-60.5 25.5q-42 0 -67 -31t-25 -84q0 -46 22 -71.5t62 -25.5z" />
    <glyph glyph-name="Aringacute" unicode="&#x1fa;" horiz-adv-x="707" 
d="M-39 0l313 710h166l302 -710h-202l-50 127h-275l-52 -127h-202zM283 292h141l-69 174zM353 764q-35 0 -64.5 15.5t-46.5 42.5t-17 59q0 34 18 61.5t48 43.5t66 16q16 0 32 -3l64 64l148 -23l-127 -110q9 -21 9 -45q0 -34 -17.5 -61.5t-46.5 -43.5t-66 -16zM354 832
q22 0 36.5 15t14.5 38q0 21 -14.5 35t-34.5 14q-22 0 -37.5 -15t-15.5 -38q0 -22 14.5 -35.5t36.5 -13.5z" />
    <glyph glyph-name="aringacute" unicode="&#x1fb;" horiz-adv-x="635" 
d="M583 510v-510h-185l5 73q-51 -84 -157 -84q-101 0 -161 66t-60 181q0 86 36.5 150t96.5 99.5t129 35.5q53 0 90.5 -18.5t58.5 -51.5l15 59h132zM316 361q-46 0 -73 -34.5t-27 -84.5q0 -45 21 -69t57 -24q41 0 71.5 34t30.5 89q0 41 -21.5 65t-58.5 24zM325 568
q-35 0 -64.5 15.5t-46.5 42.5t-17 59q0 34 18 61.5t48 43.5t66 16q16 0 32 -3l64 64l148 -23l-127 -110q9 -21 9 -45q0 -34 -17.5 -61.5t-46.5 -43.5t-66 -16zM326 636q22 0 36.5 15t14.5 38q0 21 -14.5 35t-34.5 14q-22 0 -37.5 -15t-15.5 -38q0 -22 14.5 -35.5t36.5 -13.5
z" />
    <glyph glyph-name="AEacute" unicode="&#x1fc;" horiz-adv-x="969" 
d="M-39 0l313 710h678v-171h-310v-97h284v-171h-284v-100h318l-12 -171h-504v124h-230l-51 -124h-202zM285 295h159v244h-59zM465 769l126 177l187 -45l-152 -132h-161z" />
    <glyph glyph-name="aeacute" unicode="&#x1fd;" horiz-adv-x="842" 
d="M239 -11q-61 0 -109.5 22t-76.5 60t-28 87q0 72 55 119.5t166 47.5h75v6q0 24 -17 36t-42 12q-28 0 -47 -11.5t-30 -31.5l-154 36q26 69 87 109t147 40q47 0 92.5 -14t76.5 -52q64 66 168 66q83 0 134 -40t70.5 -110.5t7.5 -162.5h-303q7 -25 35 -43.5t76 -18.5
q27 0 51.5 9.5t40.5 26.5l96 -113q-28 -33 -74 -56.5t-127 -23.5q-57 0 -108 20t-88 63q-32 -46 -75 -64.5t-99 -18.5zM594 390q-30 0 -51 -17t-30 -48h146q-2 65 -65 65zM259 123q62 0 62 65v20h-56q-61 0 -61 -42q0 -18 13.5 -30.5t41.5 -12.5zM336 573l126 177l187 -45
l-152 -132h-161z" />
    <glyph glyph-name="Oslashacute" unicode="&#x1fe;" horiz-adv-x="786" 
d="M396 -10q-115 -1 -198 41t-127 121t-44 190q0 114 48 199t134 132t201 47q105 0 183.5 -44t122 -122.5t43.5 -184.5q0 -112 -45.5 -197t-127.5 -133t-190 -49zM391 165q77 0 122 54.5t45 145.5q0 82 -42.5 131t-113.5 49q-52 0 -91 -25.5t-60.5 -70t-21.5 -102.5
q0 -86 43 -134t119 -48zM192 -70l-122 79l525 771l122 -79zM315 769l126 177l187 -45l-152 -132h-161z" />
    <glyph glyph-name="oslashacute" unicode="&#x1ff;" horiz-adv-x="607" 
d="M314 521q83 0 143 -31t92.5 -88t32.5 -135q0 -80 -36 -143t-101.5 -99t-153.5 -36q-124 0 -195 68.5t-71 185.5q0 80 36 143t101 99t152 36zM300 149q41 0 66 31.5t25 83.5q0 46 -22.5 71.5t-60.5 25.5q-42 0 -67 -31t-25 -84q0 -46 22 -71.5t62 -25.5zM174 -49l-109 72
l46 68l84 95l144 212l47 94l46 68l109 -72l-46 -68l-84 -96l-145 -212l-46 -93zM226 573l126 177l187 -45l-152 -132h-161z" />
    <glyph glyph-name="uni0200" unicode="&#x200;" horiz-adv-x="707" 
d="M-39 0l313 710h166l302 -710h-202l-50 127h-275l-52 -127h-202zM283 292h141l-69 174zM397 769l-98 132l163 45l74 -177h-139zM172 769l-99 132l164 45l74 -177h-139z" />
    <glyph glyph-name="uni0201" unicode="&#x201;" horiz-adv-x="635" 
d="M583 510v-510h-185l5 73q-51 -84 -157 -84q-101 0 -161 66t-60 181q0 86 36.5 150t96.5 99.5t129 35.5q53 0 90.5 -18.5t58.5 -51.5l15 59h132zM316 361q-46 0 -73 -34.5t-27 -84.5q0 -45 21 -69t57 -24q41 0 71.5 34t30.5 89q0 41 -21.5 65t-58.5 24zM369 573l-98 132
l163 45l74 -177h-139zM144 573l-99 132l164 45l74 -177h-139z" />
    <glyph glyph-name="uni0202" unicode="&#x202;" horiz-adv-x="707" 
d="M-39 0l313 710h166l302 -710h-202l-50 127h-275l-52 -127h-202zM283 292h141l-69 174zM426 769q-8 26 -25 41.5t-47 15.5t-47 -15.5t-25 -41.5h-118q4 84 56 130.5t134 46.5q83 0 134.5 -46.5t55.5 -130.5h-118z" />
    <glyph glyph-name="uni0203" unicode="&#x203;" horiz-adv-x="635" 
d="M583 510v-510h-185l5 73q-51 -84 -157 -84q-101 0 -161 66t-60 181q0 86 36.5 150t96.5 99.5t129 35.5q53 0 90.5 -18.5t58.5 -51.5l15 59h132zM316 361q-46 0 -73 -34.5t-27 -84.5q0 -45 21 -69t57 -24q41 0 71.5 34t30.5 89q0 41 -21.5 65t-58.5 24zM398 573
q-8 26 -25 41.5t-47 15.5t-47 -15.5t-25 -41.5h-118q4 84 56 130.5t134 46.5q83 0 134.5 -46.5t55.5 -130.5h-118z" />
    <glyph glyph-name="uni0204" unicode="&#x204;" horiz-adv-x="595" 
d="M578 539h-321v-97h295v-171h-295v-100h329l-12 -171h-514v710h518v-171zM362 769l-98 132l163 45l74 -177h-139zM137 769l-99 132l164 45l74 -177h-139z" />
    <glyph glyph-name="uni0205" unicode="&#x205;" horiz-adv-x="552" 
d="M314 -11q-88 0 -153 31.5t-100.5 90.5t-35.5 139q0 81 35.5 142t96.5 95t136 34q92 0 147 -40t75.5 -110.5t7.5 -162.5h-308q7 -25 36 -43.5t78 -18.5q28 0 53.5 9.5t41.5 26.5l97 -113q-28 -33 -77.5 -56.5t-129.5 -23.5zM301 390q-31 0 -53 -17t-30 -48h151
q-3 65 -68 65zM334 573l-98 132l163 45l74 -177h-139zM109 573l-99 132l164 45l74 -177h-139z" />
    <glyph glyph-name="uni0206" unicode="&#x206;" horiz-adv-x="595" 
d="M578 539h-321v-97h295v-171h-295v-100h329l-12 -171h-514v710h518v-171zM391 769q-8 26 -25 41.5t-47 15.5t-47 -15.5t-25 -41.5h-118q4 84 56 130.5t134 46.5q83 0 134.5 -46.5t55.5 -130.5h-118z" />
    <glyph glyph-name="uni0207" unicode="&#x207;" horiz-adv-x="552" 
d="M314 -11q-88 0 -153 31.5t-100.5 90.5t-35.5 139q0 81 35.5 142t96.5 95t136 34q92 0 147 -40t75.5 -110.5t7.5 -162.5h-308q7 -25 36 -43.5t78 -18.5q28 0 53.5 9.5t41.5 26.5l97 -113q-28 -33 -77.5 -56.5t-129.5 -23.5zM301 390q-31 0 -53 -17t-30 -48h151
q-3 65 -68 65zM363 573q-8 26 -25 41.5t-47 15.5t-47 -15.5t-25 -41.5h-118q4 84 56 130.5t134 46.5q83 0 134.5 -46.5t55.5 -130.5h-118z" />
    <glyph glyph-name="uni0208" unicode="&#x208;" horiz-adv-x="320" 
d="M60 0v710h200v-710h-200zM203 769l-98 132l163 45l74 -177h-139zM-22 769l-99 132l164 45l74 -177h-139z" />
    <glyph glyph-name="uni0209" unicode="&#x209;" horiz-adv-x="290" 
d="M238 514v-514h-186v514h186zM188 573l-98 132l163 45l74 -177h-139zM-37 573l-99 132l164 45l74 -177h-139z" />
    <glyph glyph-name="uni020A" unicode="&#x20a;" horiz-adv-x="320" 
d="M60 0v710h200v-710h-200zM232 769q-8 26 -25 41.5t-47 15.5t-47 -15.5t-25 -41.5h-118q4 84 56 130.5t134 46.5q83 0 134.5 -46.5t55.5 -130.5h-118z" />
    <glyph glyph-name="uni020B" unicode="&#x20b;" horiz-adv-x="290" 
d="M238 514v-514h-186v514h186zM217 573q-8 26 -25 41.5t-47 15.5t-47 -15.5t-25 -41.5h-118q4 84 56 130.5t134 46.5q83 0 134.5 -46.5t55.5 -130.5h-118z" />
    <glyph glyph-name="uni020C" unicode="&#x20c;" horiz-adv-x="786" 
d="M396 -10q-115 -1 -198 41t-127 121t-44 190q0 114 48 199t134 132t201 47q105 0 183.5 -44t122 -122.5t43.5 -184.5q0 -112 -45.5 -197t-127.5 -133t-190 -49zM391 165q77 0 122 54.5t45 145.5q0 82 -42.5 131t-113.5 49q-52 0 -91 -25.5t-60.5 -70t-21.5 -102.5
q0 -86 43 -134t119 -48zM436 769l-98 132l163 45l74 -177h-139zM211 769l-99 132l164 45l74 -177h-139z" />
    <glyph glyph-name="uni020D" unicode="&#x20d;" horiz-adv-x="607" 
d="M314 521q83 0 143 -31t92.5 -88t32.5 -135q0 -80 -36 -143t-101.5 -99t-153.5 -36q-124 0 -195 68.5t-71 185.5q0 80 36 143t101 99t152 36zM300 149q41 0 66 31.5t25 83.5q0 46 -22.5 71.5t-60.5 25.5q-42 0 -67 -31t-25 -84q0 -46 22 -71.5t62 -25.5zM347 573l-98 132
l163 45l74 -177h-139zM122 573l-99 132l164 45l74 -177h-139z" />
    <glyph glyph-name="uni020E" unicode="&#x20e;" horiz-adv-x="786" 
d="M396 -10q-115 -1 -198 41t-127 121t-44 190q0 114 48 199t134 132t201 47q105 0 183.5 -44t122 -122.5t43.5 -184.5q0 -112 -45.5 -197t-127.5 -133t-190 -49zM391 165q77 0 122 54.5t45 145.5q0 82 -42.5 131t-113.5 49q-52 0 -91 -25.5t-60.5 -70t-21.5 -102.5
q0 -86 43 -134t119 -48zM465 769q-8 26 -25 41.5t-47 15.5t-47 -15.5t-25 -41.5h-118q4 84 56 130.5t134 46.5q83 0 134.5 -46.5t55.5 -130.5h-118z" />
    <glyph glyph-name="uni020F" unicode="&#x20f;" horiz-adv-x="607" 
d="M314 521q83 0 143 -31t92.5 -88t32.5 -135q0 -80 -36 -143t-101.5 -99t-153.5 -36q-124 0 -195 68.5t-71 185.5q0 80 36 143t101 99t152 36zM300 149q41 0 66 31.5t25 83.5q0 46 -22.5 71.5t-60.5 25.5q-42 0 -67 -31t-25 -84q0 -46 22 -71.5t62 -25.5zM376 573
q-8 26 -25 41.5t-47 15.5t-47 -15.5t-25 -41.5h-118q4 84 56 130.5t134 46.5q83 0 134.5 -46.5t55.5 -130.5h-118z" />
    <glyph glyph-name="uni0210" unicode="&#x210;" horiz-adv-x="686" 
d="M686 184l46 -154q-24 -19 -64 -30.5t-81 -11.5q-79 0 -131 29t-84 82l-66 111q-12 20 -23 30t-27 13v-253h-196v710h240q164 0 242.5 -62t78.5 -172q0 -78 -45 -129.5t-119 -72.5q38 -12 60 -45l18 -27q25 -39 77 -39q19 0 37.5 4.5t36.5 16.5zM298 549h-42v-141h51
q65 0 90.5 17.5t25.5 54.5q0 40 -34.5 54.5t-90.5 14.5zM399 769l-98 132l163 45l74 -177h-139zM174 769l-99 132l164 45l74 -177h-139z" />
    <glyph glyph-name="uni0211" unicode="&#x211;" horiz-adv-x="443" 
d="M429 333q-22 10 -52 10q-79 0 -109 -83t-30 -260h-185v334l-2 180h185l-8 -132q24 72 69 105.5t100 33.5q17 0 32.5 -2t33.5 -8zM301 573l-98 132l163 45l74 -177h-139zM76 573l-99 132l164 45l74 -177h-139z" />
    <glyph glyph-name="uni0212" unicode="&#x212;" horiz-adv-x="686" 
d="M686 184l46 -154q-24 -19 -64 -30.5t-81 -11.5q-79 0 -131 29t-84 82l-66 111q-12 20 -23 30t-27 13v-253h-196v710h240q164 0 242.5 -62t78.5 -172q0 -78 -45 -129.5t-119 -72.5q38 -12 60 -45l18 -27q25 -39 77 -39q19 0 37.5 4.5t36.5 16.5zM298 549h-42v-141h51
q65 0 90.5 17.5t25.5 54.5q0 40 -34.5 54.5t-90.5 14.5zM428 769q-8 26 -25 41.5t-47 15.5t-47 -15.5t-25 -41.5h-118q4 84 56 130.5t134 46.5q83 0 134.5 -46.5t55.5 -130.5h-118z" />
    <glyph glyph-name="uni0213" unicode="&#x213;" horiz-adv-x="443" 
d="M429 333q-22 10 -52 10q-79 0 -109 -83t-30 -260h-185v334l-2 180h185l-8 -132q24 72 69 105.5t100 33.5q17 0 32.5 -2t33.5 -8zM330 573q-8 26 -25 41.5t-47 15.5t-47 -15.5t-25 -41.5h-118q4 84 56 130.5t134 46.5q83 0 134.5 -46.5t55.5 -130.5h-118z" />
    <glyph glyph-name="uni0214" unicode="&#x214;" horiz-adv-x="774" 
d="M519 710h196l2 -389q1 -98 -40 -173t-115 -117t-172 -42q-160 0 -246.5 80t-86.5 237v404h200v-394q0 -81 37.5 -116t96.5 -35q62 0 96.5 38t33.5 125zM430 769l-98 132l163 45l74 -177h-139zM205 769l-99 132l164 45l74 -177h-139z" />
    <glyph glyph-name="uni0215" unicode="&#x215;" horiz-adv-x="630" 
d="M228 -11q-92 0 -139.5 61t-46.5 177l2 287h186l-2 -274q0 -78 55 -78q25 0 45.5 15.5t35.5 54.5t24 107.5t10 174.5h180v-514h-181l10 96q-30 -49 -75.5 -78t-103.5 -29zM358 573l-98 132l163 45l74 -177h-139zM133 573l-99 132l164 45l74 -177h-139z" />
    <glyph glyph-name="uni0216" unicode="&#x216;" horiz-adv-x="774" 
d="M519 710h196l2 -389q1 -98 -40 -173t-115 -117t-172 -42q-160 0 -246.5 80t-86.5 237v404h200v-394q0 -81 37.5 -116t96.5 -35q62 0 96.5 38t33.5 125zM459 769q-8 26 -25 41.5t-47 15.5t-47 -15.5t-25 -41.5h-118q4 84 56 130.5t134 46.5q83 0 134.5 -46.5t55.5 -130.5
h-118z" />
    <glyph glyph-name="uni0217" unicode="&#x217;" horiz-adv-x="630" 
d="M228 -11q-92 0 -139.5 61t-46.5 177l2 287h186l-2 -274q0 -78 55 -78q25 0 45.5 15.5t35.5 54.5t24 107.5t10 174.5h180v-514h-181l10 96q-30 -49 -75.5 -78t-103.5 -29zM387 573q-8 26 -25 41.5t-47 15.5t-47 -15.5t-25 -41.5h-118q4 84 56 130.5t134 46.5
q83 0 134.5 -46.5t55.5 -130.5h-118z" />
    <glyph glyph-name="uni0218" unicode="&#x218;" horiz-adv-x="613" 
d="M299 -10q-134 0 -209 57t-85 166l185 27q2 -38 33.5 -61.5t81.5 -23.5q92 0 92 48q0 22 -25.5 35.5t-83.5 27.5q-124 30 -182 80t-57 141q1 69 36.5 121.5t100 82t151.5 29.5q107 0 176.5 -54t79.5 -147l-175 -30q-5 29 -30.5 47.5t-61.5 18.5q-34 0 -54.5 -13.5
t-20.5 -36.5q0 -21 20.5 -36.5t77.5 -29.5q82 -20 137.5 -45.5t84 -65.5t28.5 -105q0 -69 -37.5 -121.5t-105 -82t-157.5 -29.5zM225 -230q13 21 17 38t4 30q0 23 -10 35.5t-10 26.5q0 23 24 39.5t66 16.5t66 -18t24 -51q0 -20 -12.5 -44t-34.5 -43.5t-52 -29.5h-82z" />
    <glyph glyph-name="uni0219" unicode="&#x219;" horiz-adv-x="499" 
d="M250 -11q-78 0 -131 21t-81.5 56t-35.5 76l153 38q5 -19 32 -34.5t70 -15.5q28 0 42 6.5t14 16.5q0 6 -6 10t-24 8t-56 9q-195 27 -195 166q0 51 29.5 90.5t82 62.5t121.5 23q60 0 106.5 -19t75 -50.5t34.5 -68.5l-150 -43q-6 15 -24.5 27.5t-52.5 12.5q-23 0 -35 -6.5
t-12 -15.5q0 -8 13 -15.5t65 -16.5q61 -10 106.5 -28.5t71 -51.5t24.5 -88q0 -53 -31.5 -91t-84.5 -58.5t-121 -20.5zM177 -230q13 21 17 38t4 30q0 23 -10 35.5t-10 26.5q0 23 24 39.5t66 16.5t66 -18t24 -51q0 -20 -12.5 -44t-34.5 -43.5t-52 -29.5h-82z" />
    <glyph glyph-name="uni021A" unicode="&#x21a;" horiz-adv-x="611" 
d="M643 710l-29 -174h-208v-536h-200v536h-222v174h659zM216 -230q13 21 17 38t4 30q0 23 -10 35.5t-10 26.5q0 23 24 39.5t66 16.5t66 -18t24 -51q0 -20 -12.5 -44t-34.5 -43.5t-52 -29.5h-82z" />
    <glyph glyph-name="uni021B" unicode="&#x21b;" horiz-adv-x="453" 
d="M299 -11q-102 0 -160 55.5t-57 145.5l3 171h-82v153h85l2 104h184l-2 -104h154v-153h-156l-2 -149q-1 -31 16.5 -47.5t48.5 -16.5q21 0 42 5.5t43 20.5l52 -140q-25 -21 -69 -33t-102 -12zM187 -230q13 21 17 38t4 30q0 23 -10 35.5t-10 26.5q0 23 24 39.5t66 16.5
t66 -18t24 -51q0 -20 -12.5 -44t-34.5 -43.5t-52 -29.5h-82z" />
    <glyph glyph-name="uni022A" unicode="&#x22a;" horiz-adv-x="786" 
d="M396 -10q-115 -1 -198 41t-127 121t-44 190q0 114 48 199t134 132t201 47q105 0 183.5 -44t122 -122.5t43.5 -184.5q0 -112 -45.5 -197t-127.5 -133t-190 -49zM391 165q77 0 122 54.5t45 145.5q0 82 -42.5 131t-113.5 49q-52 0 -91 -25.5t-60.5 -70t-21.5 -102.5
q0 -86 43 -134t119 -48zM187 989v123h412v-123h-412zM280 764q-34 0 -57 14.5t-35 37t-12 44.5q0 36 26.5 66t77.5 30q49 0 75 -30t26 -66q0 -22 -11.5 -44.5t-34 -37t-55.5 -14.5zM508 764q-34 0 -57 14.5t-34.5 37t-11.5 44.5q0 36 26 66t77 30q49 0 75.5 -30t26.5 -66
q0 -22 -12 -44.5t-34.5 -37t-55.5 -14.5z" />
    <glyph glyph-name="uni022B" unicode="&#x22b;" horiz-adv-x="607" 
d="M314 521q83 0 143 -31t92.5 -88t32.5 -135q0 -80 -36 -143t-101.5 -99t-153.5 -36q-124 0 -195 68.5t-71 185.5q0 80 36 143t101 99t152 36zM300 149q41 0 66 31.5t25 83.5q0 46 -22.5 71.5t-60.5 25.5q-42 0 -67 -31t-25 -84q0 -46 22 -71.5t62 -25.5zM98 793v123h412
v-123h-412zM191 568q-34 0 -57 14.5t-35 37t-12 44.5q0 36 26.5 66t77.5 30q49 0 75 -30t26 -66q0 -22 -11.5 -44.5t-34 -37t-55.5 -14.5zM419 568q-34 0 -57 14.5t-34.5 37t-11.5 44.5q0 36 26 66t77 30q49 0 75.5 -30t26.5 -66q0 -22 -12 -44.5t-34.5 -37t-55.5 -14.5z
" />
    <glyph glyph-name="uni022C" unicode="&#x22c;" horiz-adv-x="786" 
d="M396 -10q-115 -1 -198 41t-127 121t-44 190q0 114 48 199t134 132t201 47q105 0 183.5 -44t122 -122.5t43.5 -184.5q0 -112 -45.5 -197t-127.5 -133t-190 -49zM391 165q77 0 122 54.5t45 145.5q0 82 -42.5 131t-113.5 49q-52 0 -91 -25.5t-60.5 -70t-21.5 -102.5
q0 -86 43 -134t119 -48zM184 1002v123h418v-123h-418zM471 762q-30 0 -61 12.5t-59 25t-50 12.5q-12 0 -30 -9.5t-30 -29.5l-67 61q17 58 54 85.5t87 27.5q30 0 61.5 -12t60 -24.5t48.5 -12.5q17 0 33.5 9t26.5 31l67 -60q-16 -58 -53.5 -87t-87.5 -29z" />
    <glyph glyph-name="uni022D" unicode="&#x22d;" horiz-adv-x="607" 
d="M314 521q83 0 143 -31t92.5 -88t32.5 -135q0 -80 -36 -143t-101.5 -99t-153.5 -36q-124 0 -195 68.5t-71 185.5q0 80 36 143t101 99t152 36zM300 149q41 0 66 31.5t25 83.5q0 46 -22.5 71.5t-60.5 25.5q-42 0 -67 -31t-25 -84q0 -46 22 -71.5t62 -25.5zM95 806v123h418
v-123h-418zM382 566q-30 0 -61 12.5t-59 25t-50 12.5q-12 0 -30 -9.5t-30 -29.5l-67 61q17 58 54 85.5t87 27.5q30 0 61.5 -12t60 -24.5t48.5 -12.5q17 0 33.5 9t26.5 31l67 -60q-16 -58 -53.5 -87t-87.5 -29z" />
    <glyph glyph-name="uni0230" unicode="&#x230;" horiz-adv-x="786" 
d="M396 -10q-115 -1 -198 41t-127 121t-44 190q0 114 48 199t134 132t201 47q105 0 183.5 -44t122 -122.5t43.5 -184.5q0 -112 -45.5 -197t-127.5 -133t-190 -49zM391 165q77 0 122 54.5t45 145.5q0 82 -42.5 131t-113.5 49q-52 0 -91 -25.5t-60.5 -70t-21.5 -102.5
q0 -86 43 -134t119 -48zM191 1002v123h404v-123h-404zM393 755q-52 0 -83 31.5t-31 75.5t30.5 75.5t83.5 31.5t83.5 -31.5t30.5 -75.5t-30.5 -75.5t-83.5 -31.5z" />
    <glyph glyph-name="uni0231" unicode="&#x231;" horiz-adv-x="607" 
d="M314 521q83 0 143 -31t92.5 -88t32.5 -135q0 -80 -36 -143t-101.5 -99t-153.5 -36q-124 0 -195 68.5t-71 185.5q0 80 36 143t101 99t152 36zM300 149q41 0 66 31.5t25 83.5q0 46 -22.5 71.5t-60.5 25.5q-42 0 -67 -31t-25 -84q0 -46 22 -71.5t62 -25.5zM102 806v123h404
v-123h-404zM304 559q-52 0 -83 31.5t-31 75.5t30.5 75.5t83.5 31.5t83.5 -31.5t30.5 -75.5t-30.5 -75.5t-83.5 -31.5z" />
    <glyph glyph-name="uni0232" unicode="&#x232;" horiz-adv-x="636" 
d="M659 710l-238 -393v-317h-200v307l-250 403h223l134 -221l123 221h208zM143 912h360v-122h-360v122z" />
    <glyph glyph-name="uni0233" unicode="&#x233;" horiz-adv-x="634" 
d="M242 -210q-32 0 -69.5 4.5t-72 14.5t-57.5 25l44 158q38 -19 77.5 -29.5t88.5 -10.5q79 0 113 34t40 106l2 25q-30 -48 -75 -76t-103 -28q-97 0 -143 64t-45 177l1 260h186l-1 -248q0 -40 15.5 -60t43.5 -20q35 0 59.5 29.5t39 101t16.5 197.5h180v-402
q0 -112 -42.5 -183t-119 -105t-178.5 -34zM136 716h360v-122h-360v122z" />
    <glyph glyph-name="uni0237" unicode="&#x237;" horiz-adv-x="299" 
d="M-9 -194q-35 0 -66.5 4t-54.5 11l22 152q14 -3 40 -7t52 -4q39 0 58 17t19 63v472h186v-469q0 -77 -32.5 -130.5t-90 -81t-133.5 -27.5z" />
    <glyph glyph-name="uni0259" unicode="&#x259;" horiz-adv-x="552" 
d="M258 521q78 0 139 -31.5t95.5 -90t34.5 -139.5q0 -80 -35 -141.5t-93.5 -95.5t-129.5 -34q-94 0 -151.5 40t-79 110.5t-9.5 162.5h308q-7 25 -33.5 43.5t-68.5 18.5q-66 0 -107 -36l-97 113q36 35 91.5 57.5t135.5 22.5zM258 120q27 0 47.5 17t29.5 48h-152q3 -65 75 -65
z" />
    <glyph glyph-name="uni02B9" unicode="&#x2b9;" horiz-adv-x="639" 
d="M255 573l125 177l188 -45l-152 -132h-161z" />
    <glyph glyph-name="uni02BA" unicode="&#x2ba;" horiz-adv-x="620" 
d="M517 573h-139l74 177l164 -45zM292 573h-139l74 177l163 -45z" />
    <glyph glyph-name="uni02BB" unicode="&#x2bb;" horiz-adv-x="639" 
d="M414 753q-13 -20 -17 -37t-4 -30q0 -23 10 -35.5t10 -27.5q0 -22 -24.5 -38.5t-66.5 -16.5t-66 18t-24 50q0 21 12.5 44.5t35 43.5t52.5 29h82z" />
    <glyph glyph-name="uni02BC" unicode="&#x2bc;" horiz-adv-x="325" 
d="M38 292q21 48 32.5 86.5t11.5 69.5q0 36 -10 60.5t-20.5 46t-10.5 48.5q0 53 34 86t90 33q59 0 92.5 -35t33.5 -97q0 -42 -21 -95.5t-56.5 -107t-80.5 -95.5h-95z" />
    <glyph glyph-name="uni02BE" unicode="&#x2be;" horiz-adv-x="613" 
d="M300 568v73q55 0 55 46q0 20 -14.5 32.5t-40.5 12.5v71q63 0 103 -33.5t40 -83.5q0 -52 -39 -85t-104 -33z" />
    <glyph glyph-name="uni02BF" unicode="&#x2bf;" horiz-adv-x="613" 
d="M313 568q-64 0 -103.5 33t-39.5 85q0 50 40 83.5t103 33.5v-71q-26 0 -40.5 -12.5t-14.5 -32.5q0 -46 55 -46v-73z" />
    <glyph glyph-name="circumflex" unicode="&#x2c6;" horiz-adv-x="647" 
d="M533 573h-171l-40 55l-41 -55h-171l137 167h150z" />
    <glyph glyph-name="caron" unicode="&#x2c7;" horiz-adv-x="647" 
d="M260 573l-136 167l163 10l48 -65l48 65l163 -10l-136 -167h-150z" />
    <glyph glyph-name="uni02C8" unicode="&#x2c8;" horiz-adv-x="618" 
d="M228 573v180h163v-180h-163z" />
    <glyph glyph-name="uni02C9" unicode="&#x2c9;" horiz-adv-x="623" 
d="M133 714h357v-118h-357v118z" />
    <glyph glyph-name="uni02CA" unicode="&#x2ca;" horiz-adv-x="639" 
d="M255 573l125 177l188 -45l-152 -132h-161z" />
    <glyph glyph-name="uni02CB" unicode="&#x2cb;" horiz-adv-x="644" 
d="M252 573l-151 132l187 45l125 -177h-161z" />
    <glyph glyph-name="uni02CC" unicode="&#x2cc;" horiz-adv-x="618" 
d="M228 -234v190h163v-190h-163z" />
    <glyph glyph-name="breve" unicode="&#x2d8;" horiz-adv-x="647" 
d="M408 753l117 -13q-5 -79 -56 -125.5t-134 -46.5q-82 0 -133.5 46.5t-56.5 125.5l117 13q14 -65 73 -65t73 65z" />
    <glyph glyph-name="dotaccent" unicode="&#x2d9;" horiz-adv-x="651" 
d="M335 559q-52 0 -83 31.5t-31 75.5t30.5 75.5t83.5 31.5t83.5 -31.5t30.5 -75.5t-30.5 -75.5t-83.5 -31.5z" />
    <glyph glyph-name="ring" unicode="&#x2da;" horiz-adv-x="626" 
d="M334 568q-35 0 -64.5 15.5t-46.5 42.5t-17 59q0 34 18 61.5t48 43.5t66 16q53 0 89.5 -33.5t36.5 -83.5q0 -34 -17.5 -61.5t-46.5 -43.5t-66 -16zM335 636q22 0 36.5 15t14.5 38q0 21 -14.5 35t-34.5 14q-22 0 -37.5 -15t-15.5 -38q0 -22 14.5 -35.5t36.5 -13.5z" />
    <glyph glyph-name="ogonek" unicode="&#x2db;" horiz-adv-x="625" 
d="M264 -223q-48 0 -86.5 15t-61 42t-22.5 62q0 106 165 145l73 -41q-50 -20 -67 -40.5t-17 -37.5q0 -35 38 -35q12 0 27 8t24 19l60 -87q-19 -24 -54 -37t-79 -13z" />
    <glyph glyph-name="tilde" unicode="&#x2dc;" horiz-adv-x="637" 
d="M413 566q-30 0 -61 12.5t-59 25t-50 12.5q-12 0 -30 -9.5t-30 -29.5l-67 61q17 58 54 85.5t87 27.5q30 0 61.5 -12t60 -24.5t48.5 -12.5q17 0 33.5 9t26.5 31l67 -60q-16 -58 -53.5 -87t-87.5 -29z" />
    <glyph glyph-name="hungarumlaut" unicode="&#x2dd;" horiz-adv-x="620" 
d="M517 573h-139l74 177l164 -45zM292 573h-139l74 177l163 -45z" />
    <glyph glyph-name="gravecomb" unicode="&#x300;" 
d="M254 573l-151 132l188 45l125 -177h-162z" />
    <glyph glyph-name="acutecomb" unicode="&#x301;" 
d="M257 573l126 177l187 -45l-152 -132h-161z" />
    <glyph glyph-name="uni0302" unicode="&#x302;" 
d="M533 573h-171l-40 55l-41 -55h-171l137 167h150z" />
    <glyph glyph-name="tildecomb" unicode="&#x303;" 
d="M413 566q-30 0 -61 12.5t-59 25t-50 12.5q-12 0 -30 -9.5t-30 -29.5l-67 61q17 58 54 85.5t87 27.5q30 0 61.5 -12t60 -24.5t48.5 -12.5q17 0 33.5 9t26.5 31l67 -60q-16 -58 -53.5 -87t-87.5 -29z" />
    <glyph glyph-name="uni0304" unicode="&#x304;" 
d="M130 716h360v-122h-360v122z" />
    <glyph glyph-name="uni0306" unicode="&#x306;" 
d="M408 753l117 -13q-5 -79 -56 -125.5t-134 -46.5q-82 0 -133.5 46.5t-56.5 125.5l117 13q14 -65 73 -65t73 65z" />
    <glyph glyph-name="uni0307" unicode="&#x307;" 
d="M335 559q-52 0 -83 31.5t-31 75.5t30.5 75.5t83.5 31.5t83.5 -31.5t30.5 -75.5t-30.5 -75.5t-83.5 -31.5z" />
    <glyph glyph-name="uni0308" unicode="&#x308;" 
d="M221 568q-34 0 -57 14.5t-34.5 37t-11.5 44.5q0 36 26 66t77 30q49 0 75.5 -30t26.5 -66q0 -22 -12 -44.5t-34.5 -37t-55.5 -14.5zM450 568q-34 0 -57 14.5t-34.5 37t-11.5 44.5q0 36 26 66t77 30q49 0 75.5 -30t26.5 -66q0 -22 -12 -44.5t-34.5 -37t-55.5 -14.5z" />
    <glyph glyph-name="hookabovecomb" unicode="&#x309;" 
d="M349 751q57 0 97 -20t40 -60q0 -27 -14.5 -41t-34 -21.5t-34 -14.5t-14.5 -21h-108v11q0 16 10.5 27.5t23.5 19.5t23.5 14.5t10.5 12.5q0 8 -17 8q-23 0 -43.5 -9t-37.5 -26l-63 57q28 30 70 46.5t91 16.5z" />
    <glyph glyph-name="uni030A" unicode="&#x30a;" 
d="M334 568q-35 0 -64.5 15.5t-46.5 42.5t-17 59q0 34 18 61.5t48 43.5t66 16q53 0 89.5 -33.5t36.5 -83.5q0 -34 -17.5 -61.5t-46.5 -43.5t-66 -16zM335 636q22 0 36.5 15t14.5 38q0 21 -14.5 35t-34.5 14q-22 0 -37.5 -15t-15.5 -38q0 -22 14.5 -35.5t36.5 -13.5z" />
    <glyph glyph-name="uni030B" unicode="&#x30b;" 
d="M517 573h-139l74 177l164 -45zM292 573h-139l74 177l163 -45z" />
    <glyph glyph-name="uni030C" unicode="&#x30c;" 
d="M260 573l-136 167l163 10l48 -65l48 65l163 -10l-136 -167h-150z" />
    <glyph glyph-name="uni030F" unicode="&#x30f;" 
d="M378 573l-98 132l163 45l74 -177h-139zM153 573l-99 132l164 45l74 -177h-139z" />
    <glyph glyph-name="uni0311" unicode="&#x311;" 
d="M407 573q-8 26 -25 41.5t-47 15.5t-47 -15.5t-25 -41.5h-118q4 84 56 130.5t134 46.5q83 0 134.5 -46.5t55.5 -130.5h-118z" />
    <glyph glyph-name="uni0312" unicode="&#x312;" 
d="M426 750q-13 -18 -17 -34.5t-4 -29.5q0 -23 10 -35.5t10 -27.5q0 -22 -24 -38.5t-66 -16.5t-66 18t-24 50q0 21 12.5 44.5t35 42.5t51.5 27h82z" />
    <glyph glyph-name="uni031B" unicode="&#x31b;" 
d="M453 513q26 0 40.5 8t21 32.5t8.5 73.5l159 -12q3 -68 -24 -120t-76 -81t-112 -29h-46l-36 135q11 -1 28 -4t37 -3z" />
    <glyph glyph-name="dotbelowcomb" unicode="&#x323;" 
d="M326 -259q-52 0 -83 31.5t-31 75.5t30.5 75.5t83.5 31.5t83.5 -31.5t30.5 -75.5t-30.5 -75.5t-83.5 -31.5z" />
    <glyph glyph-name="uni0324" unicode="&#x324;" 
d="M223 -238q-34 0 -57 14.5t-34.5 37t-11.5 44.5q0 36 26 66t77 30q49 0 75.5 -30t26.5 -66q0 -22 -12 -44.5t-34.5 -37t-55.5 -14.5zM452 -238q-34 0 -57 14.5t-34.5 37t-11.5 44.5q0 36 26 66t77 30q49 0 75.5 -30t26.5 -66q0 -22 -12 -44.5t-34.5 -37t-55.5 -14.5z" />
    <glyph glyph-name="uni0326" unicode="&#x326;" 
d="M227 -230q13 21 17 38t4 30q0 23 -10 35.5t-10 26.5q0 23 24 39.5t66 16.5t66 -18t24 -51q0 -20 -12.5 -44t-34.5 -43.5t-52 -29.5h-82z" />
    <glyph glyph-name="uni0327" unicode="&#x327;" 
d="M284 -223q-20 0 -47.5 3.5t-52.5 9t-40 12.5l35 84q19 -7 50.5 -13t59.5 -6q21 0 28 5t7 11t-7 10.5t-25 4.5h-77l57 120h114l-18 -47q96 -21 96 -90q0 -47 -45.5 -75.5t-134.5 -28.5z" />
    <glyph glyph-name="uni0328" unicode="&#x328;" 
d="M264 -223q-48 0 -86.5 15t-61 42t-22.5 62q0 106 165 145l73 -41q-50 -20 -67 -40.5t-17 -37.5q0 -35 38 -35q12 0 27 8t24 19l60 -87q-19 -24 -54 -37t-79 -13z" />
    <glyph glyph-name="uni032E" unicode="&#x32e;" 
d="M399 -44h117q-1 -93 -55 -141.5t-137 -48.5q-55 0 -98 22.5t-68.5 65.5t-26.5 102h117q8 -37 26 -53.5t50 -16.5t50 16.5t25 53.5z" />
    <glyph glyph-name="uni0331" unicode="&#x331;" 
d="M131 -73h360v-123h-360v123z" />
    <glyph glyph-name="uni0335" unicode="&#x335;" 
d="M68 341v130h428v-130h-428z" />
    <glyph glyph-name="uni0336" unicode="&#x336;" 
d="M-114 338v136h740v-136h-740z" />
    <glyph glyph-name="uni0337" unicode="&#x337;" 
d="M105 161l-75 89l302 246l76 -88z" />
    <glyph glyph-name="uni0338" unicode="&#x338;" 
d="M187 -47l-109 72l46 68l84 95l144 212l47 94l46 68l109 -72l-46 -68l-84 -96l-145 -212l-46 -93z" />
    <glyph glyph-name="uni0394" unicode="&#x394;" horiz-adv-x="600" 
d="M13 0l210 710h167l197 -710h-574zM243 166h119l-58 251z" />
    <glyph glyph-name="uni03A9" unicode="&#x3a9;" horiz-adv-x="812" 
d="M423 720q74 0 136.5 -24.5t109.5 -68.5t73 -105t26 -135q0 -68 -22 -122t-83 -107h130v-158h-348v126q41 34 67 68t38.5 75.5t12.5 97.5q0 83 -42.5 130.5t-106.5 47.5q-46 0 -84 -23t-60.5 -66.5t-22.5 -105.5q0 -77 31.5 -129t89.5 -95v-126h-350v158h116
q-46 42 -68.5 95t-22.5 109q0 77 27.5 142t78 113.5t120.5 75.5t154 27z" />
    <glyph glyph-name="pi" unicode="&#x3c0;" horiz-adv-x="704" 
d="M243 0h-194q21 72 34.5 132t20.5 115t9 112h-115v153h664v-153h-116v-146q0 -64 57 -64q19 0 34 4.5t32 15.5l52 -138q-24 -20 -64.5 -31t-85.5 -11q-98 0 -153 54.5t-55 147.5v168h-67q-2 -62 -7.5 -119.5t-16.5 -115.5t-29 -124z" />
    <glyph glyph-name="uni1E08" unicode="&#x1e08;" horiz-adv-x="693" 
d="M712 141q-46 -73 -126 -112.5t-178 -39.5q-120 0 -205.5 42t-130.5 121t-45 188q0 115 49.5 200t138.5 132.5t207 47.5q104 0 175 -36.5t116 -112.5l-151 -107q-19 37 -59 58.5t-88 21.5q-88 1 -136.5 -54.5t-48.5 -144.5q0 -85 44.5 -132.5t134.5 -47.5q104 0 156 90z
M378 -223q-20 0 -47.5 3.5t-52.5 9t-40 12.5l35 84q19 -7 50.5 -13t59.5 -6q21 0 28 5t7 11t-7 10.5t-25 4.5h-77l57 120h114l-18 -47q96 -21 96 -90q0 -47 -45.5 -75.5t-134.5 -28.5zM317 769l126 177l187 -45l-152 -132h-161z" />
    <glyph glyph-name="uni1E09" unicode="&#x1e09;" horiz-adv-x="501" 
d="M295 -11q-83 0 -143.5 31.5t-93.5 89.5t-33 136q0 81 36 143t99.5 97t146.5 35q73 0 127 -28t82 -83l-130 -98q-19 48 -74 48q-43 0 -69 -30.5t-26 -80.5q0 -47 23 -73t66 -26q55 0 83 51l125 -103q-31 -54 -87 -81.5t-132 -27.5zM264 -223q-20 0 -47.5 3.5t-52.5 9
t-40 12.5l35 84q19 -7 50.5 -13t59.5 -6q21 0 28 5t7 11t-7 10.5t-25 4.5h-77l57 120h114l-18 -47q96 -21 96 -90q0 -47 -45.5 -75.5t-134.5 -28.5zM199 573l126 177l187 -45l-152 -132h-161z" />
    <glyph glyph-name="uni1E0C" unicode="&#x1e0c;" horiz-adv-x="767" 
d="M60 0v710h250q213 0 321.5 -89.5t108.5 -264.5q0 -77 -28 -142t-79 -113t-120.5 -74.5t-151.5 -26.5h-301zM260 176h87q95 0 143.5 45t48.5 130q0 95 -51 139t-159 44h-69v-358zM381 -259q-52 0 -83 31.5t-31 75.5t30.5 75.5t83.5 31.5t83.5 -31.5t30.5 -75.5
t-30.5 -75.5t-83.5 -31.5z" />
    <glyph glyph-name="uni1E0D" unicode="&#x1e0d;" horiz-adv-x="635" 
d="M583 740v-740h-185l5 73q-51 -84 -157 -84q-101 0 -161 66t-60 181q0 86 36.5 150t96.5 99.5t129 35.5q67 0 111 -31l-1 24v226h186zM316 361q-46 0 -73 -34.5t-27 -84.5q0 -45 21 -69t57 -24q41 0 71.5 34t30.5 89q0 41 -21.5 65t-58.5 24zM326 -259q-52 0 -83 31.5
t-31 75.5t30.5 75.5t83.5 31.5t83.5 -31.5t30.5 -75.5t-30.5 -75.5t-83.5 -31.5z" />
    <glyph glyph-name="uni1E0E" unicode="&#x1e0e;" horiz-adv-x="767" 
d="M60 0v710h250q213 0 321.5 -89.5t108.5 -264.5q0 -77 -28 -142t-79 -113t-120.5 -74.5t-151.5 -26.5h-301zM260 176h87q95 0 143.5 45t48.5 130q0 95 -51 139t-159 44h-69v-358zM201 -73h360v-123h-360v123z" />
    <glyph glyph-name="uni1E0F" unicode="&#x1e0f;" horiz-adv-x="635" 
d="M583 740v-740h-185l5 73q-51 -84 -157 -84q-101 0 -161 66t-60 181q0 86 36.5 150t96.5 99.5t129 35.5q67 0 111 -31l-1 24v226h186zM316 361q-46 0 -73 -34.5t-27 -84.5q0 -45 21 -69t57 -24q41 0 71.5 34t30.5 89q0 41 -21.5 65t-58.5 24zM146 -73h360v-123h-360v123z
" />
    <glyph glyph-name="uni1E14" unicode="&#x1e14;" horiz-adv-x="595" 
d="M578 539h-321v-97h295v-171h-295v-100h329l-12 -171h-514v710h518v-171zM238 972l-155 138l187 46l130 -184h-162zM117 790v122h404v-122h-404z" />
    <glyph glyph-name="uni1E15" unicode="&#x1e15;" horiz-adv-x="552" 
d="M314 -11q-88 0 -153 31.5t-100.5 90.5t-35.5 139q0 81 35.5 142t96.5 95t136 34q92 0 147 -40t75.5 -110.5t7.5 -162.5h-308q7 -25 36 -43.5t78 -18.5q28 0 53.5 9.5t41.5 26.5l97 -113q-28 -33 -77.5 -56.5t-129.5 -23.5zM301 390q-31 0 -53 -17t-30 -48h151
q-3 65 -68 65zM210 776l-155 138l187 46l130 -184h-162zM89 594v122h404v-122h-404z" />
    <glyph glyph-name="uni1E16" unicode="&#x1e16;" horiz-adv-x="595" 
d="M578 539h-321v-97h295v-171h-295v-100h329l-12 -171h-514v710h518v-171zM240 972l129 184l188 -46l-156 -138h-161zM117 790v122h404v-122h-404z" />
    <glyph glyph-name="uni1E17" unicode="&#x1e17;" horiz-adv-x="552" 
d="M314 -11q-88 0 -153 31.5t-100.5 90.5t-35.5 139q0 81 35.5 142t96.5 95t136 34q92 0 147 -40t75.5 -110.5t7.5 -162.5h-308q7 -25 36 -43.5t78 -18.5q28 0 53.5 9.5t41.5 26.5l97 -113q-28 -33 -77.5 -56.5t-129.5 -23.5zM301 390q-31 0 -53 -17t-30 -48h151
q-3 65 -68 65zM212 776l129 184l188 -46l-156 -138h-161zM89 594v122h404v-122h-404z" />
    <glyph glyph-name="uni1E1C" unicode="&#x1e1c;" horiz-adv-x="595" 
d="M578 539h-321v-97h295v-171h-295v-100h329l-12 -171h-514v710h518v-171zM302 -223q-20 0 -47.5 3.5t-52.5 9t-40 12.5l35 84q19 -7 50.5 -13t59.5 -6q21 0 28 5t7 11t-7 10.5t-25 4.5h-77l57 120h114l-18 -47q96 -21 96 -90q0 -47 -45.5 -75.5t-134.5 -28.5zM392 949
l117 -13q-5 -79 -56 -125.5t-134 -46.5q-82 0 -133.5 46.5t-56.5 125.5l117 13q14 -65 73 -65t73 65z" />
    <glyph glyph-name="uni1E1D" unicode="&#x1e1d;" horiz-adv-x="552" 
d="M314 -11q-88 0 -153 31.5t-100.5 90.5t-35.5 139q0 81 35.5 142t96.5 95t136 34q92 0 147 -40t75.5 -110.5t7.5 -162.5h-308q7 -25 36 -43.5t78 -18.5q28 0 53.5 9.5t41.5 26.5l97 -113q-28 -33 -77.5 -56.5t-129.5 -23.5zM301 390q-31 0 -53 -17t-30 -48h151
q-3 65 -68 65zM274 -223q-20 0 -47.5 3.5t-52.5 9t-40 12.5l35 84q19 -7 50.5 -13t59.5 -6q21 0 28 5t7 11t-7 10.5t-25 4.5h-77l57 120h114l-18 -47q96 -21 96 -90q0 -47 -45.5 -75.5t-134.5 -28.5zM364 753l117 -13q-5 -79 -56 -125.5t-134 -46.5q-82 0 -133.5 46.5
t-56.5 125.5l117 13q14 -65 73 -65t73 65z" />
    <glyph glyph-name="uni1E20" unicode="&#x1e20;" horiz-adv-x="784" 
d="M421 403h326v-403h-158l-13 61q-31 -36 -82 -54t-109 -18q-109 0 -189.5 42t-124.5 121t-44 188q0 113 50.5 198.5t142 133.5t213.5 48q113 0 187 -36t123 -110l-152 -110q-23 41 -66.5 59t-90.5 18q-92 0 -145.5 -54t-53.5 -142q0 -84 46.5 -131t128.5 -47
q47 0 84.5 19.5t52.5 55.5h-126v161zM215 912h360v-122h-360v122z" />
    <glyph glyph-name="uni1E21" unicode="&#x1e21;" horiz-adv-x="639" 
d="M241 -210q-31 0 -69 5t-72.5 14.5t-57.5 24.5l44 158q34 -17 77 -28.5t91 -11.5q77 0 109.5 33t38.5 101q-50 -73 -151 -73q-67 0 -118 28.5t-79.5 82t-28.5 127.5q0 81 37 142t97.5 94.5t130.5 33.5q54 0 92 -18t58 -49l15 56h132v-398q0 -109 -44 -180.5t-122 -106.5
t-180 -35zM318 361q-47 0 -74.5 -30t-27.5 -74q0 -41 21.5 -62.5t60.5 -21.5q41 0 71.5 30t30.5 79q0 36 -22 57.5t-60 21.5zM146 716h360v-122h-360v122z" />
    <glyph glyph-name="uni1E24" unicode="&#x1e24;" horiz-adv-x="774" 
d="M60 0v710h200v-267h254v267h200v-710h-200v270h-254v-270h-200zM387 -259q-52 0 -83 31.5t-31 75.5t30.5 75.5t83.5 31.5t83.5 -31.5t30.5 -75.5t-30.5 -75.5t-83.5 -31.5z" />
    <glyph glyph-name="uni1E25" unicode="&#x1e25;" horiz-adv-x="644" 
d="M52 0v740h186v-226l-7 -97q31 50 77.5 77t103.5 27q95 0 143 -63.5t47 -187.5l-2 -270h-186l2 260q0 90 -59 90q-24 0 -45 -15.5t-37 -54t-26 -107t-12 -173.5h-185zM326 -259q-52 0 -83 31.5t-31 75.5t30.5 75.5t83.5 31.5t83.5 -31.5t30.5 -75.5t-30.5 -75.5
t-83.5 -31.5z" />
    <glyph glyph-name="uni1E2A" unicode="&#x1e2a;" horiz-adv-x="774" 
d="M60 0v710h200v-267h254v267h200v-710h-200v270h-254v-270h-200zM462 -44h117q-1 -93 -55 -141.5t-137 -48.5q-55 0 -98 22.5t-68.5 65.5t-26.5 102h117q8 -37 26 -53.5t50 -16.5t50 16.5t25 53.5z" />
    <glyph glyph-name="uni1E2B" unicode="&#x1e2b;" horiz-adv-x="644" 
d="M52 0v740h186v-226l-7 -97q31 50 77.5 77t103.5 27q95 0 143 -63.5t47 -187.5l-2 -270h-186l2 260q0 90 -59 90q-24 0 -45 -15.5t-37 -54t-26 -107t-12 -173.5h-185zM401 -44h117q-1 -93 -55 -141.5t-137 -48.5q-55 0 -98 22.5t-68.5 65.5t-26.5 102h117q8 -37 26 -53.5
t50 -16.5t50 16.5t25 53.5z" />
    <glyph glyph-name="uni1E2E" unicode="&#x1e2e;" horiz-adv-x="320" 
d="M60 0v710h200v-710h-200zM79 979l125 177l188 -46l-152 -131h-161zM47 764q-34 0 -57.5 14.5t-35 37t-11.5 44.5q0 36 26 66t78 30q48 0 74.5 -30t26.5 -66q0 -22 -12 -44.5t-34.5 -37t-54.5 -14.5zM275 764q-34 0 -57.5 14.5t-35 37t-11.5 44.5q0 36 26 66t78 30
q48 0 74.5 -30t26.5 -66q0 -22 -12 -44.5t-34.5 -37t-54.5 -14.5z" />
    <glyph glyph-name="uni1E2F" unicode="&#x1e2f;" horiz-adv-x="290" 
d="M238 514v-514h-186v514h186zM64 783l125 177l188 -46l-152 -131h-161zM32 568q-34 0 -57.5 14.5t-35 37t-11.5 44.5q0 36 26 66t78 30q48 0 74.5 -30t26.5 -66q0 -22 -12 -44.5t-34.5 -37t-54.5 -14.5zM260 568q-34 0 -57.5 14.5t-35 37t-11.5 44.5q0 36 26 66t78 30
q48 0 74.5 -30t26.5 -66q0 -22 -12 -44.5t-34.5 -37t-54.5 -14.5z" />
    <glyph glyph-name="uni1E36" unicode="&#x1e36;" horiz-adv-x="552" 
d="M60 0v710h200v-536h296l-12 -174h-484zM303 -259q-52 0 -83 31.5t-31 75.5t30.5 75.5t83.5 31.5t83.5 -31.5t30.5 -75.5t-30.5 -75.5t-83.5 -31.5z" />
    <glyph glyph-name="uni1E37" unicode="&#x1e37;" horiz-adv-x="327" 
d="M228 -11q-83 0 -129.5 45t-46.5 131v575h186v-558q0 -19 10 -27.5t26 -8.5q20 0 35 11l43 -132q-18 -15 -51 -25.5t-73 -10.5zM155 -259q-52 0 -83 31.5t-31 75.5t30.5 75.5t83.5 31.5t83.5 -31.5t30.5 -75.5t-30.5 -75.5t-83.5 -31.5z" />
    <glyph glyph-name="uni1E3A" unicode="&#x1e3a;" horiz-adv-x="552" 
d="M60 0v710h200v-536h296l-12 -174h-484zM123 -73h360v-123h-360v123z" />
    <glyph glyph-name="uni1E3B" unicode="&#x1e3b;" horiz-adv-x="327" 
d="M228 -11q-83 0 -129.5 45t-46.5 131v575h186v-558q0 -19 10 -27.5t26 -8.5q20 0 35 11l43 -132q-18 -15 -51 -25.5t-73 -10.5zM-25 -73h360v-123h-360v123z" />
    <glyph glyph-name="uni1E42" unicode="&#x1e42;" horiz-adv-x="959" 
d="M62 0l21 710h163l238 -463l234 463h163l15 -710h-193l-6 297l-152 -297h-140l-151 292l-9 -292h-183zM474 -259q-52 0 -83 31.5t-31 75.5t30.5 75.5t83.5 31.5t83.5 -31.5t30.5 -75.5t-30.5 -75.5t-83.5 -31.5z" />
    <glyph glyph-name="uni1E43" unicode="&#x1e43;" horiz-adv-x="992" 
d="M52 0v514h184l-7 -98q31 50 76.5 77.5t102.5 27.5q53 0 96 -24t66 -81q34 55 87 80t107 25q95 0 141 -63.5t45 -187.5l-2 -270h-186l2 260q0 90 -56 90q-23 0 -43 -15.5t-35.5 -54t-25 -107t-11.5 -173.5h-185v260q0 90 -56 90q-23 0 -43 -15.5t-35.5 -54t-25 -107
t-11.5 -173.5h-185zM501 -259q-52 0 -83 31.5t-31 75.5t30.5 75.5t83.5 31.5t83.5 -31.5t30.5 -75.5t-30.5 -75.5t-83.5 -31.5z" />
    <glyph glyph-name="uni1E44" unicode="&#x1e44;" horiz-adv-x="765" 
d="M513 710h192v-710h-178l-275 382v-382h-192v710h178l275 -381v381zM382 758q-52 0 -83 31.5t-31 75.5t30.5 75.5t83.5 31.5t83.5 -31.5t30.5 -75.5t-30.5 -75.5t-83.5 -31.5z" />
    <glyph glyph-name="uni1E45" unicode="&#x1e45;" horiz-adv-x="644" 
d="M52 0v514h185l-7 -97q32 49 78.5 76.5t103.5 27.5q95 0 143 -63.5t47 -187.5l-2 -270h-186l2 260q0 90 -59 90q-24 0 -45 -15.5t-37 -54t-26 -107t-12 -173.5h-185zM326 559q-52 0 -83 31.5t-31 75.5t30.5 75.5t83.5 31.5t83.5 -31.5t30.5 -75.5t-30.5 -75.5t-83.5 -31.5
z" />
    <glyph glyph-name="uni1E46" unicode="&#x1e46;" horiz-adv-x="765" 
d="M513 710h192v-710h-178l-275 382v-382h-192v710h178l275 -381v381zM382 -259q-52 0 -83 31.5t-31 75.5t30.5 75.5t83.5 31.5t83.5 -31.5t30.5 -75.5t-30.5 -75.5t-83.5 -31.5z" />
    <glyph glyph-name="uni1E47" unicode="&#x1e47;" horiz-adv-x="644" 
d="M52 0v514h185l-7 -97q32 49 78.5 76.5t103.5 27.5q95 0 143 -63.5t47 -187.5l-2 -270h-186l2 260q0 90 -59 90q-24 0 -45 -15.5t-37 -54t-26 -107t-12 -173.5h-185zM326 -259q-52 0 -83 31.5t-31 75.5t30.5 75.5t83.5 31.5t83.5 -31.5t30.5 -75.5t-30.5 -75.5
t-83.5 -31.5z" />
    <glyph glyph-name="uni1E48" unicode="&#x1e48;" horiz-adv-x="765" 
d="M513 710h192v-710h-178l-275 382v-382h-192v710h178l275 -381v381zM202 -73h360v-123h-360v123z" />
    <glyph glyph-name="uni1E49" unicode="&#x1e49;" horiz-adv-x="644" 
d="M52 0v514h185l-7 -97q32 49 78.5 76.5t103.5 27.5q95 0 143 -63.5t47 -187.5l-2 -270h-186l2 260q0 90 -59 90q-24 0 -45 -15.5t-37 -54t-26 -107t-12 -173.5h-185zM146 -73h360v-123h-360v123z" />
    <glyph glyph-name="uni1E4C" unicode="&#x1e4c;" horiz-adv-x="786" 
d="M396 -10q-115 -1 -198 41t-127 121t-44 190q0 114 48 199t134 132t201 47q105 0 183.5 -44t122 -122.5t43.5 -184.5q0 -112 -45.5 -197t-127.5 -133t-190 -49zM391 165q77 0 122 54.5t45 145.5q0 82 -42.5 131t-113.5 49q-52 0 -91 -25.5t-60.5 -70t-21.5 -102.5
q0 -86 43 -134t119 -48zM313 972l129 184l188 -46l-156 -138h-161zM471 762q-30 0 -61 12.5t-59 25t-50 12.5q-12 0 -30 -9.5t-30 -29.5l-67 61q17 58 54 85.5t87 27.5q30 0 61.5 -12t60 -24.5t48.5 -12.5q17 0 33.5 9t26.5 31l67 -60q-16 -58 -53.5 -87t-87.5 -29z" />
    <glyph glyph-name="uni1E4D" unicode="&#x1e4d;" horiz-adv-x="607" 
d="M314 521q83 0 143 -31t92.5 -88t32.5 -135q0 -80 -36 -143t-101.5 -99t-153.5 -36q-124 0 -195 68.5t-71 185.5q0 80 36 143t101 99t152 36zM300 149q41 0 66 31.5t25 83.5q0 46 -22.5 71.5t-60.5 25.5q-42 0 -67 -31t-25 -84q0 -46 22 -71.5t62 -25.5zM224 776l129 184
l188 -46l-156 -138h-161zM382 566q-30 0 -61 12.5t-59 25t-50 12.5q-12 0 -30 -9.5t-30 -29.5l-67 61q17 58 54 85.5t87 27.5q30 0 61.5 -12t60 -24.5t48.5 -12.5q17 0 33.5 9t26.5 31l67 -60q-16 -58 -53.5 -87t-87.5 -29z" />
    <glyph glyph-name="uni1E4E" unicode="&#x1e4e;" horiz-adv-x="786" 
d="M396 -10q-115 -1 -198 41t-127 121t-44 190q0 114 48 199t134 132t201 47q105 0 183.5 -44t122 -122.5t43.5 -184.5q0 -112 -45.5 -197t-127.5 -133t-190 -49zM391 165q77 0 122 54.5t45 145.5q0 82 -42.5 131t-113.5 49q-52 0 -91 -25.5t-60.5 -70t-21.5 -102.5
q0 -86 43 -134t119 -48zM281 980q-34 0 -57 14.5t-34.5 36.5t-11.5 44q0 36 26 66t77 30q49 0 75.5 -30t26.5 -66q0 -22 -12 -44t-34.5 -36.5t-55.5 -14.5zM509 980q-34 0 -57 14.5t-34.5 36.5t-11.5 44q0 36 26 66t77 30q49 0 75.5 -30t26.5 -66q0 -22 -12 -44t-34.5 -36.5
t-55.5 -14.5zM471 762q-30 0 -61 12.5t-59 25t-50 12.5q-12 0 -30 -9.5t-30 -29.5l-67 61q17 58 54 85.5t87 27.5q30 0 61.5 -12t60 -24.5t48.5 -12.5q17 0 33.5 9t26.5 31l67 -60q-16 -58 -53.5 -87t-87.5 -29z" />
    <glyph glyph-name="uni1E4F" unicode="&#x1e4f;" horiz-adv-x="607" 
d="M314 521q83 0 143 -31t92.5 -88t32.5 -135q0 -80 -36 -143t-101.5 -99t-153.5 -36q-124 0 -195 68.5t-71 185.5q0 80 36 143t101 99t152 36zM300 149q41 0 66 31.5t25 83.5q0 46 -22.5 71.5t-60.5 25.5q-42 0 -67 -31t-25 -84q0 -46 22 -71.5t62 -25.5zM192 784
q-34 0 -57 14.5t-34.5 36.5t-11.5 44q0 36 26 66t77 30q49 0 75.5 -30t26.5 -66q0 -22 -12 -44t-34.5 -36.5t-55.5 -14.5zM420 784q-34 0 -57 14.5t-34.5 36.5t-11.5 44q0 36 26 66t77 30q49 0 75.5 -30t26.5 -66q0 -22 -12 -44t-34.5 -36.5t-55.5 -14.5zM382 566
q-30 0 -61 12.5t-59 25t-50 12.5q-12 0 -30 -9.5t-30 -29.5l-67 61q17 58 54 85.5t87 27.5q30 0 61.5 -12t60 -24.5t48.5 -12.5q17 0 33.5 9t26.5 31l67 -60q-16 -58 -53.5 -87t-87.5 -29z" />
    <glyph glyph-name="uni1E50" unicode="&#x1e50;" horiz-adv-x="786" 
d="M396 -10q-115 -1 -198 41t-127 121t-44 190q0 114 48 199t134 132t201 47q105 0 183.5 -44t122 -122.5t43.5 -184.5q0 -112 -45.5 -197t-127.5 -133t-190 -49zM391 165q77 0 122 54.5t45 145.5q0 82 -42.5 131t-113.5 49q-52 0 -91 -25.5t-60.5 -70t-21.5 -102.5
q0 -86 43 -134t119 -48zM312 972l-155 138l187 46l130 -184h-162zM191 790v122h404v-122h-404z" />
    <glyph glyph-name="uni1E51" unicode="&#x1e51;" horiz-adv-x="607" 
d="M314 521q83 0 143 -31t92.5 -88t32.5 -135q0 -80 -36 -143t-101.5 -99t-153.5 -36q-124 0 -195 68.5t-71 185.5q0 80 36 143t101 99t152 36zM300 149q41 0 66 31.5t25 83.5q0 46 -22.5 71.5t-60.5 25.5q-42 0 -67 -31t-25 -84q0 -46 22 -71.5t62 -25.5zM223 776l-155 138
l187 46l130 -184h-162zM102 594v122h404v-122h-404z" />
    <glyph glyph-name="uni1E52" unicode="&#x1e52;" horiz-adv-x="786" 
d="M396 -10q-115 -1 -198 41t-127 121t-44 190q0 114 48 199t134 132t201 47q105 0 183.5 -44t122 -122.5t43.5 -184.5q0 -112 -45.5 -197t-127.5 -133t-190 -49zM391 165q77 0 122 54.5t45 145.5q0 82 -42.5 131t-113.5 49q-52 0 -91 -25.5t-60.5 -70t-21.5 -102.5
q0 -86 43 -134t119 -48zM314 972l129 184l188 -46l-156 -138h-161zM191 790v122h404v-122h-404z" />
    <glyph glyph-name="uni1E53" unicode="&#x1e53;" horiz-adv-x="607" 
d="M314 521q83 0 143 -31t92.5 -88t32.5 -135q0 -80 -36 -143t-101.5 -99t-153.5 -36q-124 0 -195 68.5t-71 185.5q0 80 36 143t101 99t152 36zM300 149q41 0 66 31.5t25 83.5q0 46 -22.5 71.5t-60.5 25.5q-42 0 -67 -31t-25 -84q0 -46 22 -71.5t62 -25.5zM225 776l129 184
l188 -46l-156 -138h-161zM102 594v122h404v-122h-404z" />
    <glyph glyph-name="uni1E5A" unicode="&#x1e5a;" horiz-adv-x="686" 
d="M686 184l46 -154q-24 -19 -64 -30.5t-81 -11.5q-79 0 -131 29t-84 82l-66 111q-12 20 -23 30t-27 13v-253h-196v710h240q164 0 242.5 -62t78.5 -172q0 -78 -45 -129.5t-119 -72.5q38 -12 60 -45l18 -27q25 -39 77 -39q19 0 37.5 4.5t36.5 16.5zM298 549h-42v-141h51
q65 0 90.5 17.5t25.5 54.5q0 40 -34.5 54.5t-90.5 14.5zM356 -259q-52 0 -83 31.5t-31 75.5t30.5 75.5t83.5 31.5t83.5 -31.5t30.5 -75.5t-30.5 -75.5t-83.5 -31.5z" />
    <glyph glyph-name="uni1E5B" unicode="&#x1e5b;" horiz-adv-x="443" 
d="M429 333q-22 10 -52 10q-79 0 -109 -83t-30 -260h-185v334l-2 180h185l-8 -132q24 72 69 105.5t100 33.5q17 0 32.5 -2t33.5 -8zM146 -259q-52 0 -83 31.5t-31 75.5t30.5 75.5t83.5 31.5t83.5 -31.5t30.5 -75.5t-30.5 -75.5t-83.5 -31.5z" />
    <glyph glyph-name="uni1E5E" unicode="&#x1e5e;" horiz-adv-x="686" 
d="M686 184l46 -154q-24 -19 -64 -30.5t-81 -11.5q-79 0 -131 29t-84 82l-66 111q-12 20 -23 30t-27 13v-253h-196v710h240q164 0 242.5 -62t78.5 -172q0 -78 -45 -129.5t-119 -72.5q38 -12 60 -45l18 -27q25 -39 77 -39q19 0 37.5 4.5t36.5 16.5zM298 549h-42v-141h51
q65 0 90.5 17.5t25.5 54.5q0 40 -34.5 54.5t-90.5 14.5zM176 -73h360v-123h-360v123z" />
    <glyph glyph-name="uni1E5F" unicode="&#x1e5f;" horiz-adv-x="443" 
d="M429 333q-22 10 -52 10q-79 0 -109 -83t-30 -260h-185v334l-2 180h185l-8 -132q24 72 69 105.5t100 33.5q17 0 32.5 -2t33.5 -8zM-34 -73h360v-123h-360v123z" />
    <glyph glyph-name="uni1E60" unicode="&#x1e60;" horiz-adv-x="613" 
d="M299 -10q-134 0 -209 57t-85 166l185 27q2 -38 33.5 -61.5t81.5 -23.5q92 0 92 48q0 22 -25.5 35.5t-83.5 27.5q-124 30 -182 80t-57 141q1 69 36.5 121.5t100 82t151.5 29.5q107 0 176.5 -54t79.5 -147l-175 -30q-5 29 -30.5 47.5t-61.5 18.5q-34 0 -54.5 -13.5
t-20.5 -36.5q0 -21 20.5 -36.5t77.5 -29.5q82 -20 137.5 -45.5t84 -65.5t28.5 -105q0 -69 -37.5 -121.5t-105 -82t-157.5 -29.5zM315 755q-52 0 -83 31.5t-31 75.5t30.5 75.5t83.5 31.5t83.5 -31.5t30.5 -75.5t-30.5 -75.5t-83.5 -31.5z" />
    <glyph glyph-name="uni1E61" unicode="&#x1e61;" horiz-adv-x="499" 
d="M250 -11q-78 0 -131 21t-81.5 56t-35.5 76l153 38q5 -19 32 -34.5t70 -15.5q28 0 42 6.5t14 16.5q0 6 -6 10t-24 8t-56 9q-195 27 -195 166q0 51 29.5 90.5t82 62.5t121.5 23q60 0 106.5 -19t75 -50.5t34.5 -68.5l-150 -43q-6 15 -24.5 27.5t-52.5 12.5q-23 0 -35 -6.5
t-12 -15.5q0 -8 13 -15.5t65 -16.5q61 -10 106.5 -28.5t71 -51.5t24.5 -88q0 -53 -31.5 -91t-84.5 -58.5t-121 -20.5zM267 559q-52 0 -83 31.5t-31 75.5t30.5 75.5t83.5 31.5t83.5 -31.5t30.5 -75.5t-30.5 -75.5t-83.5 -31.5z" />
    <glyph glyph-name="uni1E62" unicode="&#x1e62;" horiz-adv-x="613" 
d="M299 -10q-134 0 -209 57t-85 166l185 27q2 -38 33.5 -61.5t81.5 -23.5q92 0 92 48q0 22 -25.5 35.5t-83.5 27.5q-124 30 -182 80t-57 141q1 69 36.5 121.5t100 82t151.5 29.5q107 0 176.5 -54t79.5 -147l-175 -30q-5 29 -30.5 47.5t-61.5 18.5q-34 0 -54.5 -13.5
t-20.5 -36.5q0 -21 20.5 -36.5t77.5 -29.5q82 -20 137.5 -45.5t84 -65.5t28.5 -105q0 -69 -37.5 -121.5t-105 -82t-157.5 -29.5zM315 -259q-52 0 -83 31.5t-31 75.5t30.5 75.5t83.5 31.5t83.5 -31.5t30.5 -75.5t-30.5 -75.5t-83.5 -31.5z" />
    <glyph glyph-name="uni1E63" unicode="&#x1e63;" horiz-adv-x="499" 
d="M250 -11q-78 0 -131 21t-81.5 56t-35.5 76l153 38q5 -19 32 -34.5t70 -15.5q28 0 42 6.5t14 16.5q0 6 -6 10t-24 8t-56 9q-195 27 -195 166q0 51 29.5 90.5t82 62.5t121.5 23q60 0 106.5 -19t75 -50.5t34.5 -68.5l-150 -43q-6 15 -24.5 27.5t-52.5 12.5q-23 0 -35 -6.5
t-12 -15.5q0 -8 13 -15.5t65 -16.5q61 -10 106.5 -28.5t71 -51.5t24.5 -88q0 -53 -31.5 -91t-84.5 -58.5t-121 -20.5zM267 -259q-52 0 -83 31.5t-31 75.5t30.5 75.5t83.5 31.5t83.5 -31.5t30.5 -75.5t-30.5 -75.5t-83.5 -31.5z" />
    <glyph glyph-name="uni1E64" unicode="&#x1e64;" horiz-adv-x="613" 
d="M299 -10q-134 0 -209 57t-85 166l185 27q2 -38 33.5 -61.5t81.5 -23.5q92 0 92 48q0 22 -25.5 35.5t-83.5 27.5q-124 30 -182 80t-57 141q1 69 36.5 121.5t100 82t151.5 29.5q107 0 176.5 -54t79.5 -147l-175 -30q-5 29 -30.5 47.5t-61.5 18.5q-34 0 -54.5 -13.5
t-20.5 -36.5q0 -21 20.5 -36.5t77.5 -29.5q82 -20 137.5 -45.5t84 -65.5t28.5 -105q0 -69 -37.5 -121.5t-105 -82t-157.5 -29.5zM275 929q-52 0 -83 31.5t-31 75.5t30.5 75.5t83.5 31.5t83.5 -31.5t30.5 -75.5t-30.5 -75.5t-83.5 -31.5zM279 769l125 177l188 -45l-152 -132
h-161z" />
    <glyph glyph-name="uni1E65" unicode="&#x1e65;" horiz-adv-x="499" 
d="M250 -11q-78 0 -131 21t-81.5 56t-35.5 76l153 38q5 -19 32 -34.5t70 -15.5q28 0 42 6.5t14 16.5q0 6 -6 10t-24 8t-56 9q-195 27 -195 166q0 51 29.5 90.5t82 62.5t121.5 23q60 0 106.5 -19t75 -50.5t34.5 -68.5l-150 -43q-6 15 -24.5 27.5t-52.5 12.5q-23 0 -35 -6.5
t-12 -15.5q0 -8 13 -15.5t65 -16.5q61 -10 106.5 -28.5t71 -51.5t24.5 -88q0 -53 -31.5 -91t-84.5 -58.5t-121 -20.5zM227 733q-52 0 -83 31.5t-31 75.5t30.5 75.5t83.5 31.5t83.5 -31.5t30.5 -75.5t-30.5 -75.5t-83.5 -31.5zM231 573l125 177l188 -45l-152 -132h-161z" />
    <glyph glyph-name="uni1E66" unicode="&#x1e66;" horiz-adv-x="613" 
d="M299 -10q-134 0 -209 57t-85 166l185 27q2 -38 33.5 -61.5t81.5 -23.5q92 0 92 48q0 22 -25.5 35.5t-83.5 27.5q-124 30 -182 80t-57 141q1 69 36.5 121.5t100 82t151.5 29.5q107 0 176.5 -54t79.5 -147l-175 -30q-5 29 -30.5 47.5t-61.5 18.5q-34 0 -54.5 -13.5
t-20.5 -36.5q0 -21 20.5 -36.5t77.5 -29.5q82 -20 137.5 -45.5t84 -65.5t28.5 -105q0 -69 -37.5 -121.5t-105 -82t-157.5 -29.5zM315 952q-52 0 -83 31.5t-31 75.5t30.5 75.5t83.5 31.5t83.5 -31.5t30.5 -75.5t-30.5 -75.5t-83.5 -31.5zM526 936l-136 -167h-150l-136 167
l163 10l48 -65l48 65z" />
    <glyph glyph-name="uni1E67" unicode="&#x1e67;" horiz-adv-x="499" 
d="M250 -11q-78 0 -131 21t-81.5 56t-35.5 76l153 38q5 -19 32 -34.5t70 -15.5q28 0 42 6.5t14 16.5q0 6 -6 10t-24 8t-56 9q-195 27 -195 166q0 51 29.5 90.5t82 62.5t121.5 23q60 0 106.5 -19t75 -50.5t34.5 -68.5l-150 -43q-6 15 -24.5 27.5t-52.5 12.5q-23 0 -35 -6.5
t-12 -15.5q0 -8 13 -15.5t65 -16.5q61 -10 106.5 -28.5t71 -51.5t24.5 -88q0 -53 -31.5 -91t-84.5 -58.5t-121 -20.5zM267 756q-52 0 -83 31.5t-31 75.5t30.5 75.5t83.5 31.5t83.5 -31.5t30.5 -75.5t-30.5 -75.5t-83.5 -31.5zM478 740l-136 -167h-150l-136 167l163 10
l48 -65l48 65z" />
    <glyph glyph-name="uni1E68" unicode="&#x1e68;" horiz-adv-x="613" 
d="M299 -10q-134 0 -209 57t-85 166l185 27q2 -38 33.5 -61.5t81.5 -23.5q92 0 92 48q0 22 -25.5 35.5t-83.5 27.5q-124 30 -182 80t-57 141q1 69 36.5 121.5t100 82t151.5 29.5q107 0 176.5 -54t79.5 -147l-175 -30q-5 29 -30.5 47.5t-61.5 18.5q-34 0 -54.5 -13.5
t-20.5 -36.5q0 -21 20.5 -36.5t77.5 -29.5q82 -20 137.5 -45.5t84 -65.5t28.5 -105q0 -69 -37.5 -121.5t-105 -82t-157.5 -29.5zM315 -259q-52 0 -83 31.5t-31 75.5t30.5 75.5t83.5 31.5t83.5 -31.5t30.5 -75.5t-30.5 -75.5t-83.5 -31.5zM315 755q-52 0 -83 31.5t-31 75.5
t30.5 75.5t83.5 31.5t83.5 -31.5t30.5 -75.5t-30.5 -75.5t-83.5 -31.5z" />
    <glyph glyph-name="uni1E69" unicode="&#x1e69;" horiz-adv-x="499" 
d="M250 -11q-78 0 -131 21t-81.5 56t-35.5 76l153 38q5 -19 32 -34.5t70 -15.5q28 0 42 6.5t14 16.5q0 6 -6 10t-24 8t-56 9q-195 27 -195 166q0 51 29.5 90.5t82 62.5t121.5 23q60 0 106.5 -19t75 -50.5t34.5 -68.5l-150 -43q-6 15 -24.5 27.5t-52.5 12.5q-23 0 -35 -6.5
t-12 -15.5q0 -8 13 -15.5t65 -16.5q61 -10 106.5 -28.5t71 -51.5t24.5 -88q0 -53 -31.5 -91t-84.5 -58.5t-121 -20.5zM267 -259q-52 0 -83 31.5t-31 75.5t30.5 75.5t83.5 31.5t83.5 -31.5t30.5 -75.5t-30.5 -75.5t-83.5 -31.5zM267 559q-52 0 -83 31.5t-31 75.5t30.5 75.5
t83.5 31.5t83.5 -31.5t30.5 -75.5t-30.5 -75.5t-83.5 -31.5z" />
    <glyph glyph-name="uni1E6C" unicode="&#x1e6c;" horiz-adv-x="611" 
d="M643 710l-29 -174h-208v-536h-200v536h-222v174h659zM306 -259q-52 0 -83 31.5t-31 75.5t30.5 75.5t83.5 31.5t83.5 -31.5t30.5 -75.5t-30.5 -75.5t-83.5 -31.5z" />
    <glyph glyph-name="uni1E6D" unicode="&#x1e6d;" horiz-adv-x="453" 
d="M299 -11q-102 0 -160 55.5t-57 145.5l3 171h-82v153h85l2 104h184l-2 -104h154v-153h-156l-2 -149q-1 -31 16.5 -47.5t48.5 -16.5q21 0 42 5.5t43 20.5l52 -140q-25 -21 -69 -33t-102 -12zM277 -259q-52 0 -83 31.5t-31 75.5t30.5 75.5t83.5 31.5t83.5 -31.5t30.5 -75.5
t-30.5 -75.5t-83.5 -31.5z" />
    <glyph glyph-name="uni1E6E" unicode="&#x1e6e;" horiz-adv-x="611" 
d="M643 710l-29 -174h-208v-536h-200v536h-222v174h659zM126 -73h360v-123h-360v123z" />
    <glyph glyph-name="uni1E6F" unicode="&#x1e6f;" horiz-adv-x="453" 
d="M299 -11q-102 0 -160 55.5t-57 145.5l3 171h-82v153h85l2 104h184l-2 -104h154v-153h-156l-2 -149q-1 -31 16.5 -47.5t48.5 -16.5q21 0 42 5.5t43 20.5l52 -140q-25 -21 -69 -33t-102 -12zM97 -73h360v-123h-360v123z" />
    <glyph glyph-name="uni1E78" unicode="&#x1e78;" horiz-adv-x="774" 
d="M519 710h196l2 -389q1 -98 -40 -173t-115 -117t-172 -42q-160 0 -246.5 80t-86.5 237v404h200v-394q0 -81 37.5 -116t96.5 -35q62 0 96.5 38t33.5 125zM307 972l129 184l188 -46l-156 -138h-161zM465 762q-30 0 -61 12.5t-59 25t-50 12.5q-12 0 -30 -9.5t-30 -29.5
l-67 61q17 58 54 85.5t87 27.5q30 0 61.5 -12t60 -24.5t48.5 -12.5q17 0 33.5 9t26.5 31l67 -60q-16 -58 -53.5 -87t-87.5 -29z" />
    <glyph glyph-name="uni1E79" unicode="&#x1e79;" horiz-adv-x="630" 
d="M228 -11q-92 0 -139.5 61t-46.5 177l2 287h186l-2 -274q0 -78 55 -78q25 0 45.5 15.5t35.5 54.5t24 107.5t10 174.5h180v-514h-181l10 96q-30 -49 -75.5 -78t-103.5 -29zM235 776l129 184l188 -46l-156 -138h-161zM393 566q-30 0 -61 12.5t-59 25t-50 12.5
q-12 0 -30 -9.5t-30 -29.5l-67 61q17 58 54 85.5t87 27.5q30 0 61.5 -12t60 -24.5t48.5 -12.5q17 0 33.5 9t26.5 31l67 -60q-16 -58 -53.5 -87t-87.5 -29z" />
    <glyph glyph-name="uni1E7A" unicode="&#x1e7a;" horiz-adv-x="774" 
d="M519 710h196l2 -389q1 -98 -40 -173t-115 -117t-172 -42q-160 0 -246.5 80t-86.5 237v404h200v-394q0 -81 37.5 -116t96.5 -35q62 0 96.5 38t33.5 125zM274 946q-51 0 -77.5 29.5t-26.5 66.5q0 23 12 45t35 36.5t57 14.5q33 0 55.5 -14.5t34 -36.5t11.5 -45
q0 -37 -26 -66.5t-75 -29.5zM502 946q-51 0 -77 29.5t-26 66.5q0 23 11.5 45t34.5 36.5t57 14.5q33 0 55.5 -14.5t34.5 -36.5t12 -45q0 -37 -26.5 -66.5t-75.5 -29.5zM181 790v122h412v-122h-412z" />
    <glyph glyph-name="uni1E7B" unicode="&#x1e7b;" horiz-adv-x="630" 
d="M228 -11q-92 0 -139.5 61t-46.5 177l2 287h186l-2 -274q0 -78 55 -78q25 0 45.5 15.5t35.5 54.5t24 107.5t10 174.5h180v-514h-181l10 96q-30 -49 -75.5 -78t-103.5 -29zM202 750q-51 0 -77.5 29.5t-26.5 66.5q0 23 12 45t35 36.5t57 14.5q33 0 55.5 -14.5t34 -36.5
t11.5 -45q0 -37 -26 -66.5t-75 -29.5zM430 750q-51 0 -77 29.5t-26 66.5q0 23 11.5 45t34.5 36.5t57 14.5q33 0 55.5 -14.5t34.5 -36.5t12 -45q0 -37 -26.5 -66.5t-75.5 -29.5zM109 594v122h412v-122h-412z" />
    <glyph glyph-name="Wgrave" unicode="&#x1e80;" horiz-adv-x="1047" 
d="M877 710h187l-205 -710h-225l-102 460l-128 -460h-225l-177 710h201l100 -435l120 435h239l95 -437zM461 769l-151 132l188 45l125 -177h-162z" />
    <glyph glyph-name="wgrave" unicode="&#x1e81;" horiz-adv-x="903" 
d="M741 514h182l-171 -514h-233l-64 248l-74 -248h-234l-160 514h192l93 -337l101 337h174l90 -339zM379 573l-151 132l188 45l125 -177h-162z" />
    <glyph glyph-name="Wacute" unicode="&#x1e82;" horiz-adv-x="1047" 
d="M877 710h187l-205 -710h-225l-102 460l-128 -460h-225l-177 710h201l100 -435l120 435h239l95 -437zM464 769l126 177l187 -45l-152 -132h-161z" />
    <glyph glyph-name="wacute" unicode="&#x1e83;" horiz-adv-x="903" 
d="M741 514h182l-171 -514h-233l-64 248l-74 -248h-234l-160 514h192l93 -337l101 337h174l90 -339zM382 573l126 177l187 -45l-152 -132h-161z" />
    <glyph glyph-name="Wdieresis" unicode="&#x1e84;" horiz-adv-x="1047" 
d="M877 710h187l-205 -710h-225l-102 460l-128 -460h-225l-177 710h201l100 -435l120 435h239l95 -437zM428 764q-34 0 -57 14.5t-34.5 37t-11.5 44.5q0 36 26 66t77 30q49 0 75.5 -30t26.5 -66q0 -22 -12 -44.5t-34.5 -37t-55.5 -14.5zM657 764q-34 0 -57 14.5t-34.5 37
t-11.5 44.5q0 36 26 66t77 30q49 0 75.5 -30t26.5 -66q0 -22 -12 -44.5t-34.5 -37t-55.5 -14.5z" />
    <glyph glyph-name="wdieresis" unicode="&#x1e85;" horiz-adv-x="903" 
d="M741 514h182l-171 -514h-233l-64 248l-74 -248h-234l-160 514h192l93 -337l101 337h174l90 -339zM346 568q-34 0 -57 14.5t-34.5 37t-11.5 44.5q0 36 26 66t77 30q49 0 75.5 -30t26.5 -66q0 -22 -12 -44.5t-34.5 -37t-55.5 -14.5zM575 568q-34 0 -57 14.5t-34.5 37
t-11.5 44.5q0 36 26 66t77 30q49 0 75.5 -30t26.5 -66q0 -22 -12 -44.5t-34.5 -37t-55.5 -14.5z" />
    <glyph glyph-name="uni1E8E" unicode="&#x1e8e;" horiz-adv-x="636" 
d="M659 710l-238 -393v-317h-200v307l-250 403h223l134 -221l123 221h208zM323 755q-52 0 -83 31.5t-31 75.5t30.5 75.5t83.5 31.5t83.5 -31.5t30.5 -75.5t-30.5 -75.5t-83.5 -31.5z" />
    <glyph glyph-name="uni1E8F" unicode="&#x1e8f;" horiz-adv-x="634" 
d="M242 -210q-32 0 -69.5 4.5t-72 14.5t-57.5 25l44 158q38 -19 77.5 -29.5t88.5 -10.5q79 0 113 34t40 106l2 25q-30 -48 -75 -76t-103 -28q-97 0 -143 64t-45 177l1 260h186l-1 -248q0 -40 15.5 -60t43.5 -20q35 0 59.5 29.5t39 101t16.5 197.5h180v-402
q0 -112 -42.5 -183t-119 -105t-178.5 -34zM316 559q-52 0 -83 31.5t-31 75.5t30.5 75.5t83.5 31.5t83.5 -31.5t30.5 -75.5t-30.5 -75.5t-83.5 -31.5z" />
    <glyph glyph-name="uni1E92" unicode="&#x1e92;" horiz-adv-x="657" 
d="M35 0v143l323 393h-303v174h574v-143l-323 -393h335l-11 -174h-595zM333 -259q-52 0 -83 31.5t-31 75.5t30.5 75.5t83.5 31.5t83.5 -31.5t30.5 -75.5t-30.5 -75.5t-83.5 -31.5z" />
    <glyph glyph-name="uni1E93" unicode="&#x1e93;" horiz-adv-x="465" 
d="M19 0v143l199 218h-193v153h432v-134l-202 -227h203v-153h-439zM241 -259q-52 0 -83 31.5t-31 75.5t30.5 75.5t83.5 31.5t83.5 -31.5t30.5 -75.5t-30.5 -75.5t-83.5 -31.5z" />
    <glyph glyph-name="uni1E97" unicode="&#x1e97;" horiz-adv-x="453" 
d="M299 -11q-102 0 -160 55.5t-57 145.5l3 171h-82v153h85l2 104h184l-2 -104h154v-153h-156l-2 -149q-1 -31 16.5 -47.5t48.5 -16.5q21 0 42 5.5t43 20.5l52 -140q-25 -21 -69 -33t-102 -12zM69 672q-34 0 -57 14.5t-34.5 37t-11.5 44.5q0 36 26 66t77 30q49 0 75.5 -30
t26.5 -66q0 -22 -12 -44.5t-34.5 -37t-55.5 -14.5zM298 672q-34 0 -57 14.5t-34.5 37t-11.5 44.5q0 36 26 66t77 30q49 0 75.5 -30t26.5 -66q0 -22 -12 -44.5t-34.5 -37t-55.5 -14.5z" />
    <glyph glyph-name="uni1E9E" unicode="&#x1e9e;" horiz-adv-x="772" 
d="M431 720q140 0 221.5 -55.5t81.5 -152.5q0 -106 -97 -143q60 -24 92 -69.5t32 -105.5q0 -62 -29 -108.5t-82 -71.5t-125 -25q-107 0 -169 51t-77 142l169 44q2 -29 19 -48t44 -19q52 0 52 56q0 33 -23.5 47.5t-76.5 14.5h-79v164h49q56 0 79.5 11t23.5 43
q0 29 -30.5 43.5t-80.5 14.5q-84 0 -124.5 -41.5t-40.5 -133.5v-378h-200v369q0 173 94.5 262t276.5 89z" />
    <glyph glyph-name="uni1EA0" unicode="&#x1ea0;" horiz-adv-x="707" 
d="M-39 0l313 710h166l302 -710h-202l-50 127h-275l-52 -127h-202zM283 292h141l-69 174zM354 -259q-52 0 -83 31.5t-31 75.5t30.5 75.5t83.5 31.5t83.5 -31.5t30.5 -75.5t-30.5 -75.5t-83.5 -31.5z" />
    <glyph glyph-name="uni1EA1" unicode="&#x1ea1;" horiz-adv-x="635" 
d="M583 510v-510h-185l5 73q-51 -84 -157 -84q-101 0 -161 66t-60 181q0 86 36.5 150t96.5 99.5t129 35.5q53 0 90.5 -18.5t58.5 -51.5l15 59h132zM316 361q-46 0 -73 -34.5t-27 -84.5q0 -45 21 -69t57 -24q41 0 71.5 34t30.5 89q0 41 -21.5 65t-58.5 24zM326 -259
q-52 0 -83 31.5t-31 75.5t30.5 75.5t83.5 31.5t83.5 -31.5t30.5 -75.5t-30.5 -75.5t-83.5 -31.5z" />
    <glyph glyph-name="uni1EA2" unicode="&#x1ea2;" horiz-adv-x="707" 
d="M-39 0l313 710h166l302 -710h-202l-50 127h-275l-52 -127h-202zM283 292h141l-69 174zM368 947q57 0 97 -20t40 -60q0 -27 -14.5 -41t-34 -21.5t-34 -14.5t-14.5 -21h-108v11q0 16 10.5 27.5t23.5 19.5t23.5 14.5t10.5 12.5q0 8 -17 8q-23 0 -43.5 -9t-37.5 -26l-63 57
q28 30 70 46.5t91 16.5z" />
    <glyph glyph-name="uni1EA3" unicode="&#x1ea3;" horiz-adv-x="635" 
d="M583 510v-510h-185l5 73q-51 -84 -157 -84q-101 0 -161 66t-60 181q0 86 36.5 150t96.5 99.5t129 35.5q53 0 90.5 -18.5t58.5 -51.5l15 59h132zM316 361q-46 0 -73 -34.5t-27 -84.5q0 -45 21 -69t57 -24q41 0 71.5 34t30.5 89q0 41 -21.5 65t-58.5 24zM340 751
q57 0 97 -20t40 -60q0 -27 -14.5 -41t-34 -21.5t-34 -14.5t-14.5 -21h-108v11q0 16 10.5 27.5t23.5 19.5t23.5 14.5t10.5 12.5q0 8 -17 8q-23 0 -43.5 -9t-37.5 -26l-63 57q28 30 70 46.5t91 16.5z" />
    <glyph glyph-name="uni1EA4" unicode="&#x1ea4;" horiz-adv-x="707" 
d="M-39 0l313 710h166l302 -710h-202l-50 127h-275l-52 -127h-202zM283 292h141l-69 174zM486 906l125 177l187 -45l-151 -132h-161zM143 769l136 167h150l136 -167h-171l-40 55l-40 -55h-171z" />
    <glyph glyph-name="uni1EA5" unicode="&#x1ea5;" horiz-adv-x="635" 
d="M583 510v-510h-185l5 73q-51 -84 -157 -84q-101 0 -161 66t-60 181q0 86 36.5 150t96.5 99.5t129 35.5q53 0 90.5 -18.5t58.5 -51.5l15 59h132zM316 361q-46 0 -73 -34.5t-27 -84.5q0 -45 21 -69t57 -24q41 0 71.5 34t30.5 89q0 41 -21.5 65t-58.5 24zM458 710l125 177
l187 -45l-151 -132h-161zM115 573l136 167h150l136 -167h-171l-40 55l-40 -55h-171z" />
    <glyph glyph-name="uni1EA6" unicode="&#x1ea6;" horiz-adv-x="707" 
d="M-39 0l313 710h166l302 -710h-202l-50 127h-275l-52 -127h-202zM283 292h141l-69 174zM61 906l-151 132l187 45l125 -177h-161zM143 769l136 167h150l136 -167h-171l-40 55l-40 -55h-171z" />
    <glyph glyph-name="uni1EA7" unicode="&#x1ea7;" horiz-adv-x="635" 
d="M583 510v-510h-185l5 73q-51 -84 -157 -84q-101 0 -161 66t-60 181q0 86 36.5 150t96.5 99.5t129 35.5q53 0 90.5 -18.5t58.5 -51.5l15 59h132zM316 361q-46 0 -73 -34.5t-27 -84.5q0 -45 21 -69t57 -24q41 0 71.5 34t30.5 89q0 41 -21.5 65t-58.5 24zM33 710l-151 132
l187 45l125 -177h-161zM115 573l136 167h150l136 -167h-171l-40 55l-40 -55h-171z" />
    <glyph glyph-name="uni1EA8" unicode="&#x1ea8;" horiz-adv-x="707" 
d="M-39 0l313 710h166l302 -710h-202l-50 127h-275l-52 -127h-202zM283 292h141l-69 174zM492 906v11q0 16 10.5 27.5t23.5 19.5t23.5 14.5t10.5 12.5q0 8 -17 8q-23 0 -43.5 -9t-37.5 -26l-63 57q28 30 70 46.5t91 16.5q57 0 97 -20t40 -60q0 -27 -14.5 -41t-34 -21.5
t-34 -14.5t-14.5 -21h-108zM143 769l136 167h150l136 -167h-171l-40 55l-40 -55h-171z" />
    <glyph glyph-name="uni1EA9" unicode="&#x1ea9;" horiz-adv-x="635" 
d="M583 510v-510h-185l5 73q-51 -84 -157 -84q-101 0 -161 66t-60 181q0 86 36.5 150t96.5 99.5t129 35.5q53 0 90.5 -18.5t58.5 -51.5l15 59h132zM316 361q-46 0 -73 -34.5t-27 -84.5q0 -45 21 -69t57 -24q41 0 71.5 34t30.5 89q0 41 -21.5 65t-58.5 24zM464 710v11
q0 16 10.5 27.5t23.5 19.5t23.5 14.5t10.5 12.5q0 8 -17 8q-23 0 -43.5 -9t-37.5 -26l-63 57q28 30 70 46.5t91 16.5q57 0 97 -20t40 -60q0 -27 -14.5 -41t-34 -21.5t-34 -14.5t-14.5 -21h-108zM115 573l136 167h150l136 -167h-171l-40 55l-40 -55h-171z" />
    <glyph glyph-name="uni1EAA" unicode="&#x1eaa;" horiz-adv-x="707" 
d="M-39 0l313 710h166l302 -710h-202l-50 127h-275l-52 -127h-202zM283 292h141l-69 174zM502 1140l67 -67q-16 -52 -52.5 -79t-86.5 -27q-29 0 -59.5 11t-58 22.5t-48.5 11.5q-11 0 -28.5 -9.5t-29.5 -26.5l-67 68q17 53 53.5 78.5t85.5 25.5q29 0 60 -11.5t58.5 -22.5
t47.5 -11q16 0 32 9t26 28zM143 769l136 162h150l136 -162h-171l-40 51l-40 -51h-171z" />
    <glyph glyph-name="uni1EAB" unicode="&#x1eab;" horiz-adv-x="635" 
d="M583 510v-510h-185l5 73q-51 -84 -157 -84q-101 0 -161 66t-60 181q0 86 36.5 150t96.5 99.5t129 35.5q53 0 90.5 -18.5t58.5 -51.5l15 59h132zM316 361q-46 0 -73 -34.5t-27 -84.5q0 -45 21 -69t57 -24q41 0 71.5 34t30.5 89q0 41 -21.5 65t-58.5 24zM474 944l67 -67
q-16 -52 -52.5 -79t-86.5 -27q-29 0 -59.5 11t-58 22.5t-48.5 11.5q-11 0 -28.5 -9.5t-29.5 -26.5l-67 68q17 53 53.5 78.5t85.5 25.5q29 0 60 -11.5t58.5 -22.5t47.5 -11q16 0 32 9t26 28zM115 573l136 162h150l136 -162h-171l-40 51l-40 -51h-171z" />
    <glyph glyph-name="uni1EAC" unicode="&#x1eac;" horiz-adv-x="707" 
d="M-39 0l313 710h166l302 -710h-202l-50 127h-275l-52 -127h-202zM283 292h141l-69 174zM354 -259q-52 0 -83 31.5t-31 75.5t30.5 75.5t83.5 31.5t83.5 -31.5t30.5 -75.5t-30.5 -75.5t-83.5 -31.5zM565 769h-171l-40 55l-41 -55h-171l137 167h150z" />
    <glyph glyph-name="uni1EAD" unicode="&#x1ead;" horiz-adv-x="635" 
d="M583 510v-510h-185l5 73q-51 -84 -157 -84q-101 0 -161 66t-60 181q0 86 36.5 150t96.5 99.5t129 35.5q53 0 90.5 -18.5t58.5 -51.5l15 59h132zM316 361q-46 0 -73 -34.5t-27 -84.5q0 -45 21 -69t57 -24q41 0 71.5 34t30.5 89q0 41 -21.5 65t-58.5 24zM326 -259
q-52 0 -83 31.5t-31 75.5t30.5 75.5t83.5 31.5t83.5 -31.5t30.5 -75.5t-30.5 -75.5t-83.5 -31.5zM537 573h-171l-40 55l-41 -55h-171l137 167h150z" />
    <glyph glyph-name="uni1EAE" unicode="&#x1eae;" horiz-adv-x="707" 
d="M-39 0l313 710h166l302 -710h-202l-50 127h-275l-52 -127h-202zM283 292h141l-69 174zM274 972l129 184l188 -46l-156 -138h-161zM354 764q-85 0 -137.5 46.5t-57.5 125.5l117 13q17 -65 78 -65t78 65l117 -13q-5 -79 -57.5 -125.5t-137.5 -46.5z" />
    <glyph glyph-name="uni1EAF" unicode="&#x1eaf;" horiz-adv-x="635" 
d="M583 510v-510h-185l5 73q-51 -84 -157 -84q-101 0 -161 66t-60 181q0 86 36.5 150t96.5 99.5t129 35.5q53 0 90.5 -18.5t58.5 -51.5l15 59h132zM316 361q-46 0 -73 -34.5t-27 -84.5q0 -45 21 -69t57 -24q41 0 71.5 34t30.5 89q0 41 -21.5 65t-58.5 24zM246 776l129 184
l188 -46l-156 -138h-161zM326 568q-85 0 -137.5 46.5t-57.5 125.5l117 13q17 -65 78 -65t78 65l117 -13q-5 -79 -57.5 -125.5t-137.5 -46.5z" />
    <glyph glyph-name="uni1EB0" unicode="&#x1eb0;" horiz-adv-x="707" 
d="M-39 0l313 710h166l302 -710h-202l-50 127h-275l-52 -127h-202zM283 292h141l-69 174zM273 972l-156 138l188 46l129 -184h-161zM354 764q-85 0 -137.5 46.5t-57.5 125.5l117 13q17 -65 78 -65t78 65l117 -13q-5 -79 -57.5 -125.5t-137.5 -46.5z" />
    <glyph glyph-name="uni1EB1" unicode="&#x1eb1;" horiz-adv-x="635" 
d="M583 510v-510h-185l5 73q-51 -84 -157 -84q-101 0 -161 66t-60 181q0 86 36.5 150t96.5 99.5t129 35.5q53 0 90.5 -18.5t58.5 -51.5l15 59h132zM316 361q-46 0 -73 -34.5t-27 -84.5q0 -45 21 -69t57 -24q41 0 71.5 34t30.5 89q0 41 -21.5 65t-58.5 24zM245 776l-156 138
l188 46l129 -184h-161zM326 568q-85 0 -137.5 46.5t-57.5 125.5l117 13q17 -65 78 -65t78 65l117 -13q-5 -79 -57.5 -125.5t-137.5 -46.5z" />
    <glyph glyph-name="uni1EB2" unicode="&#x1eb2;" horiz-adv-x="707" 
d="M-39 0l313 710h166l302 -710h-202l-50 127h-275l-52 -127h-202zM283 292h141l-69 174zM300 972v11q0 16 10.5 27.5t23.5 19.5t23.5 14.5t10.5 12.5q0 8 -17 8q-23 0 -43.5 -9t-37.5 -26l-63 57q28 30 70 46.5t91 16.5q57 0 97 -20t40 -60q0 -27 -14.5 -41t-34 -21.5
t-34 -14.5t-14.5 -21h-108zM354 764q-85 0 -137.5 46.5t-57.5 125.5l117 13q17 -65 78 -65q32 0 50.5 16.5t27.5 48.5l117 -13q-5 -79 -57.5 -125.5t-137.5 -46.5z" />
    <glyph glyph-name="uni1EB3" unicode="&#x1eb3;" horiz-adv-x="635" 
d="M583 510v-510h-185l5 73q-51 -84 -157 -84q-101 0 -161 66t-60 181q0 86 36.5 150t96.5 99.5t129 35.5q53 0 90.5 -18.5t58.5 -51.5l15 59h132zM316 361q-46 0 -73 -34.5t-27 -84.5q0 -45 21 -69t57 -24q41 0 71.5 34t30.5 89q0 41 -21.5 65t-58.5 24zM272 776v11
q0 16 10.5 27.5t23.5 19.5t23.5 14.5t10.5 12.5q0 8 -17 8q-23 0 -43.5 -9t-37.5 -26l-63 57q28 30 70 46.5t91 16.5q57 0 97 -20t40 -60q0 -27 -14.5 -41t-34 -21.5t-34 -14.5t-14.5 -21h-108zM326 568q-85 0 -137.5 46.5t-57.5 125.5l117 13q17 -65 78 -65q32 0 50.5 16.5
t27.5 48.5l117 -13q-5 -79 -57.5 -125.5t-137.5 -46.5z" />
    <glyph glyph-name="uni1EB4" unicode="&#x1eb4;" horiz-adv-x="707" 
d="M-39 0l313 710h166l302 -710h-202l-50 127h-275l-52 -127h-202zM283 292h141l-69 174zM502 1140l67 -67q-16 -52 -52.5 -79t-86.5 -27q-29 0 -59.5 11t-58 22.5t-48.5 11.5q-11 0 -28.5 -9.5t-29.5 -26.5l-67 68q17 53 53.5 78.5t85.5 25.5q29 0 60 -11.5t58.5 -22.5
t47.5 -11q16 0 32 9t26 28zM276 945q8 -30 27 -45.5t51 -15.5t50.5 15.5t27.5 45.5l117 -13q-5 -78 -57.5 -123t-137.5 -45t-137.5 45t-57.5 123z" />
    <glyph glyph-name="uni1EB5" unicode="&#x1eb5;" horiz-adv-x="635" 
d="M583 510v-510h-185l5 73q-51 -84 -157 -84q-101 0 -161 66t-60 181q0 86 36.5 150t96.5 99.5t129 35.5q53 0 90.5 -18.5t58.5 -51.5l15 59h132zM316 361q-46 0 -73 -34.5t-27 -84.5q0 -45 21 -69t57 -24q41 0 71.5 34t30.5 89q0 41 -21.5 65t-58.5 24zM474 944l67 -67
q-16 -52 -52.5 -79t-86.5 -27q-29 0 -59.5 11t-58 22.5t-48.5 11.5q-11 0 -28.5 -9.5t-29.5 -26.5l-67 68q17 53 53.5 78.5t85.5 25.5q29 0 60 -11.5t58.5 -22.5t47.5 -11q16 0 32 9t26 28zM248 749q8 -30 27 -45.5t51 -15.5t50.5 15.5t27.5 45.5l117 -13q-5 -78 -57.5 -123
t-137.5 -45t-137.5 45t-57.5 123z" />
    <glyph glyph-name="uni1EB6" unicode="&#x1eb6;" horiz-adv-x="707" 
d="M-39 0l313 710h166l302 -710h-202l-50 127h-275l-52 -127h-202zM283 292h141l-69 174zM354 -259q-52 0 -83 31.5t-31 75.5t30.5 75.5t83.5 31.5t83.5 -31.5t30.5 -75.5t-30.5 -75.5t-83.5 -31.5zM427 949l117 -13q-5 -79 -56 -125.5t-134 -46.5q-82 0 -133.5 46.5
t-56.5 125.5l117 13q14 -65 73 -65t73 65z" />
    <glyph glyph-name="uni1EB7" unicode="&#x1eb7;" horiz-adv-x="635" 
d="M583 510v-510h-185l5 73q-51 -84 -157 -84q-101 0 -161 66t-60 181q0 86 36.5 150t96.5 99.5t129 35.5q53 0 90.5 -18.5t58.5 -51.5l15 59h132zM316 361q-46 0 -73 -34.5t-27 -84.5q0 -45 21 -69t57 -24q41 0 71.5 34t30.5 89q0 41 -21.5 65t-58.5 24zM326 -259
q-52 0 -83 31.5t-31 75.5t30.5 75.5t83.5 31.5t83.5 -31.5t30.5 -75.5t-30.5 -75.5t-83.5 -31.5zM399 753l117 -13q-5 -79 -56 -125.5t-134 -46.5q-82 0 -133.5 46.5t-56.5 125.5l117 13q14 -65 73 -65t73 65z" />
    <glyph glyph-name="uni1EB8" unicode="&#x1eb8;" horiz-adv-x="595" 
d="M578 539h-321v-97h295v-171h-295v-100h329l-12 -171h-514v710h518v-171zM319 -259q-52 0 -83 31.5t-31 75.5t30.5 75.5t83.5 31.5t83.5 -31.5t30.5 -75.5t-30.5 -75.5t-83.5 -31.5z" />
    <glyph glyph-name="uni1EB9" unicode="&#x1eb9;" horiz-adv-x="552" 
d="M314 -11q-88 0 -153 31.5t-100.5 90.5t-35.5 139q0 81 35.5 142t96.5 95t136 34q92 0 147 -40t75.5 -110.5t7.5 -162.5h-308q7 -25 36 -43.5t78 -18.5q28 0 53.5 9.5t41.5 26.5l97 -113q-28 -33 -77.5 -56.5t-129.5 -23.5zM301 390q-31 0 -53 -17t-30 -48h151
q-3 65 -68 65zM291 -259q-52 0 -83 31.5t-31 75.5t30.5 75.5t83.5 31.5t83.5 -31.5t30.5 -75.5t-30.5 -75.5t-83.5 -31.5z" />
    <glyph glyph-name="uni1EBA" unicode="&#x1eba;" horiz-adv-x="595" 
d="M578 539h-321v-97h295v-171h-295v-100h329l-12 -171h-514v710h518v-171zM333 947q57 0 97 -20t40 -60q0 -27 -14.5 -41t-34 -21.5t-34 -14.5t-14.5 -21h-108v11q0 16 10.5 27.5t23.5 19.5t23.5 14.5t10.5 12.5q0 8 -17 8q-23 0 -43.5 -9t-37.5 -26l-63 57q28 30 70 46.5
t91 16.5z" />
    <glyph glyph-name="uni1EBB" unicode="&#x1ebb;" horiz-adv-x="552" 
d="M314 -11q-88 0 -153 31.5t-100.5 90.5t-35.5 139q0 81 35.5 142t96.5 95t136 34q92 0 147 -40t75.5 -110.5t7.5 -162.5h-308q7 -25 36 -43.5t78 -18.5q28 0 53.5 9.5t41.5 26.5l97 -113q-28 -33 -77.5 -56.5t-129.5 -23.5zM301 390q-31 0 -53 -17t-30 -48h151
q-3 65 -68 65zM305 751q57 0 97 -20t40 -60q0 -27 -14.5 -41t-34 -21.5t-34 -14.5t-14.5 -21h-108v11q0 16 10.5 27.5t23.5 19.5t23.5 14.5t10.5 12.5q0 8 -17 8q-23 0 -43.5 -9t-37.5 -26l-63 57q28 30 70 46.5t91 16.5z" />
    <glyph glyph-name="uni1EBC" unicode="&#x1ebc;" horiz-adv-x="595" 
d="M578 539h-321v-97h295v-171h-295v-100h329l-12 -171h-514v710h518v-171zM397 762q-30 0 -61 12.5t-59 25t-50 12.5q-12 0 -30 -9.5t-30 -29.5l-67 61q17 58 54 85.5t87 27.5q30 0 61.5 -12t60 -24.5t48.5 -12.5q17 0 33.5 9t26.5 31l67 -60q-16 -58 -53.5 -87t-87.5 -29z
" />
    <glyph glyph-name="uni1EBD" unicode="&#x1ebd;" horiz-adv-x="552" 
d="M314 -11q-88 0 -153 31.5t-100.5 90.5t-35.5 139q0 81 35.5 142t96.5 95t136 34q92 0 147 -40t75.5 -110.5t7.5 -162.5h-308q7 -25 36 -43.5t78 -18.5q28 0 53.5 9.5t41.5 26.5l97 -113q-28 -33 -77.5 -56.5t-129.5 -23.5zM301 390q-31 0 -53 -17t-30 -48h151
q-3 65 -68 65zM369 566q-30 0 -61 12.5t-59 25t-50 12.5q-12 0 -30 -9.5t-30 -29.5l-67 61q17 58 54 85.5t87 27.5q30 0 61.5 -12t60 -24.5t48.5 -12.5q17 0 33.5 9t26.5 31l67 -60q-16 -58 -53.5 -87t-87.5 -29z" />
    <glyph glyph-name="uni1EBE" unicode="&#x1ebe;" horiz-adv-x="595" 
d="M578 539h-321v-97h295v-171h-295v-100h329l-12 -171h-514v710h518v-171zM451 906l125 177l187 -45l-151 -132h-161zM108 769l136 167h150l136 -167h-171l-40 55l-40 -55h-171z" />
    <glyph glyph-name="uni1EBF" unicode="&#x1ebf;" horiz-adv-x="552" 
d="M314 -11q-88 0 -153 31.5t-100.5 90.5t-35.5 139q0 81 35.5 142t96.5 95t136 34q92 0 147 -40t75.5 -110.5t7.5 -162.5h-308q7 -25 36 -43.5t78 -18.5q28 0 53.5 9.5t41.5 26.5l97 -113q-28 -33 -77.5 -56.5t-129.5 -23.5zM301 390q-31 0 -53 -17t-30 -48h151
q-3 65 -68 65zM423 710l125 177l187 -45l-151 -132h-161zM80 573l136 167h150l136 -167h-171l-40 55l-40 -55h-171z" />
    <glyph glyph-name="uni1EC0" unicode="&#x1ec0;" horiz-adv-x="595" 
d="M578 539h-321v-97h295v-171h-295v-100h329l-12 -171h-514v710h518v-171zM26 906l-151 132l187 45l125 -177h-161zM108 769l136 167h150l136 -167h-171l-40 55l-40 -55h-171z" />
    <glyph glyph-name="uni1EC1" unicode="&#x1ec1;" horiz-adv-x="552" 
d="M314 -11q-88 0 -153 31.5t-100.5 90.5t-35.5 139q0 81 35.5 142t96.5 95t136 34q92 0 147 -40t75.5 -110.5t7.5 -162.5h-308q7 -25 36 -43.5t78 -18.5q28 0 53.5 9.5t41.5 26.5l97 -113q-28 -33 -77.5 -56.5t-129.5 -23.5zM301 390q-31 0 -53 -17t-30 -48h151
q-3 65 -68 65zM-2 710l-151 132l187 45l125 -177h-161zM80 573l136 167h150l136 -167h-171l-40 55l-40 -55h-171z" />
    <glyph glyph-name="uni1EC2" unicode="&#x1ec2;" horiz-adv-x="595" 
d="M578 539h-321v-97h295v-171h-295v-100h329l-12 -171h-514v710h518v-171zM457 906v11q0 16 10.5 27.5t23.5 19.5t23.5 14.5t10.5 12.5q0 8 -17 8q-23 0 -43.5 -9t-37.5 -26l-63 57q28 30 70 46.5t91 16.5q57 0 97 -20t40 -60q0 -27 -14.5 -41t-34 -21.5t-34 -14.5
t-14.5 -21h-108zM108 769l136 167h150l136 -167h-171l-40 55l-40 -55h-171z" />
    <glyph glyph-name="uni1EC3" unicode="&#x1ec3;" horiz-adv-x="552" 
d="M314 -11q-88 0 -153 31.5t-100.5 90.5t-35.5 139q0 81 35.5 142t96.5 95t136 34q92 0 147 -40t75.5 -110.5t7.5 -162.5h-308q7 -25 36 -43.5t78 -18.5q28 0 53.5 9.5t41.5 26.5l97 -113q-28 -33 -77.5 -56.5t-129.5 -23.5zM301 390q-31 0 -53 -17t-30 -48h151
q-3 65 -68 65zM429 710v11q0 16 10.5 27.5t23.5 19.5t23.5 14.5t10.5 12.5q0 8 -17 8q-23 0 -43.5 -9t-37.5 -26l-63 57q28 30 70 46.5t91 16.5q57 0 97 -20t40 -60q0 -27 -14.5 -41t-34 -21.5t-34 -14.5t-14.5 -21h-108zM80 573l136 167h150l136 -167h-171l-40 55l-40 -55
h-171z" />
    <glyph glyph-name="uni1EC4" unicode="&#x1ec4;" horiz-adv-x="595" 
d="M578 539h-321v-97h295v-171h-295v-100h329l-12 -171h-514v710h518v-171zM467 1140l67 -67q-16 -52 -52.5 -79t-86.5 -27q-29 0 -59.5 11t-58 22.5t-48.5 11.5q-11 0 -28.5 -9.5t-29.5 -26.5l-67 68q17 53 53.5 78.5t85.5 25.5q29 0 60 -11.5t58.5 -22.5t47.5 -11
q16 0 32 9t26 28zM108 769l136 162h150l136 -162h-171l-40 51l-40 -51h-171z" />
    <glyph glyph-name="uni1EC5" unicode="&#x1ec5;" horiz-adv-x="552" 
d="M314 -11q-88 0 -153 31.5t-100.5 90.5t-35.5 139q0 81 35.5 142t96.5 95t136 34q92 0 147 -40t75.5 -110.5t7.5 -162.5h-308q7 -25 36 -43.5t78 -18.5q28 0 53.5 9.5t41.5 26.5l97 -113q-28 -33 -77.5 -56.5t-129.5 -23.5zM301 390q-31 0 -53 -17t-30 -48h151
q-3 65 -68 65zM439 944l67 -67q-16 -52 -52.5 -79t-86.5 -27q-29 0 -59.5 11t-58 22.5t-48.5 11.5q-11 0 -28.5 -9.5t-29.5 -26.5l-67 68q17 53 53.5 78.5t85.5 25.5q29 0 60 -11.5t58.5 -22.5t47.5 -11q16 0 32 9t26 28zM80 573l136 162h150l136 -162h-171l-40 51l-40 -51
h-171z" />
    <glyph glyph-name="uni1EC6" unicode="&#x1ec6;" horiz-adv-x="595" 
d="M578 539h-321v-97h295v-171h-295v-100h329l-12 -171h-514v710h518v-171zM319 -259q-52 0 -83 31.5t-31 75.5t30.5 75.5t83.5 31.5t83.5 -31.5t30.5 -75.5t-30.5 -75.5t-83.5 -31.5zM530 769h-171l-40 55l-41 -55h-171l137 167h150z" />
    <glyph glyph-name="uni1EC7" unicode="&#x1ec7;" horiz-adv-x="552" 
d="M314 -11q-88 0 -153 31.5t-100.5 90.5t-35.5 139q0 81 35.5 142t96.5 95t136 34q92 0 147 -40t75.5 -110.5t7.5 -162.5h-308q7 -25 36 -43.5t78 -18.5q28 0 53.5 9.5t41.5 26.5l97 -113q-28 -33 -77.5 -56.5t-129.5 -23.5zM301 390q-31 0 -53 -17t-30 -48h151
q-3 65 -68 65zM291 -259q-52 0 -83 31.5t-31 75.5t30.5 75.5t83.5 31.5t83.5 -31.5t30.5 -75.5t-30.5 -75.5t-83.5 -31.5zM502 573h-171l-40 55l-41 -55h-171l137 167h150z" />
    <glyph glyph-name="uni1EC8" unicode="&#x1ec8;" horiz-adv-x="320" 
d="M60 0v710h200v-710h-200zM174 947q57 0 97 -20t40 -60q0 -27 -14.5 -41t-34 -21.5t-34 -14.5t-14.5 -21h-108v11q0 16 10.5 27.5t23.5 19.5t23.5 14.5t10.5 12.5q0 8 -17 8q-23 0 -43.5 -9t-37.5 -26l-63 57q28 30 70 46.5t91 16.5z" />
    <glyph glyph-name="uni1EC9" unicode="&#x1ec9;" horiz-adv-x="290" 
d="M238 514v-514h-186v514h186zM159 751q57 0 97 -20t40 -60q0 -27 -14.5 -41t-34 -21.5t-34 -14.5t-14.5 -21h-108v11q0 16 10.5 27.5t23.5 19.5t23.5 14.5t10.5 12.5q0 8 -17 8q-23 0 -43.5 -9t-37.5 -26l-63 57q28 30 70 46.5t91 16.5z" />
    <glyph glyph-name="uni1ECA" unicode="&#x1eca;" horiz-adv-x="320" 
d="M60 0v710h200v-710h-200zM160 -259q-52 0 -83 31.5t-31 75.5t30.5 75.5t83.5 31.5t83.5 -31.5t30.5 -75.5t-30.5 -75.5t-83.5 -31.5z" />
    <glyph glyph-name="uni1ECB" unicode="&#x1ecb;" horiz-adv-x="290" 
d="M238 514v-514h-186v514h186zM144 553q-52 0 -83 31.5t-31 75.5t30.5 75.5t83.5 31.5t83.5 -31.5t30.5 -75.5t-30.5 -75.5t-83.5 -31.5zM145 -259q-52 0 -83 31.5t-31 75.5t30.5 75.5t83.5 31.5t83.5 -31.5t30.5 -75.5t-30.5 -75.5t-83.5 -31.5z" />
    <glyph glyph-name="uni1ECC" unicode="&#x1ecc;" horiz-adv-x="786" 
d="M396 -10q-115 -1 -198 41t-127 121t-44 190q0 114 48 199t134 132t201 47q105 0 183.5 -44t122 -122.5t43.5 -184.5q0 -112 -45.5 -197t-127.5 -133t-190 -49zM391 165q77 0 122 54.5t45 145.5q0 82 -42.5 131t-113.5 49q-52 0 -91 -25.5t-60.5 -70t-21.5 -102.5
q0 -86 43 -134t119 -48zM393 -259q-52 0 -83 31.5t-31 75.5t30.5 75.5t83.5 31.5t83.5 -31.5t30.5 -75.5t-30.5 -75.5t-83.5 -31.5z" />
    <glyph glyph-name="uni1ECD" unicode="&#x1ecd;" horiz-adv-x="607" 
d="M314 521q83 0 143 -31t92.5 -88t32.5 -135q0 -80 -36 -143t-101.5 -99t-153.5 -36q-124 0 -195 68.5t-71 185.5q0 80 36 143t101 99t152 36zM300 149q41 0 66 31.5t25 83.5q0 46 -22.5 71.5t-60.5 25.5q-42 0 -67 -31t-25 -84q0 -46 22 -71.5t62 -25.5zM304 -259
q-52 0 -83 31.5t-31 75.5t30.5 75.5t83.5 31.5t83.5 -31.5t30.5 -75.5t-30.5 -75.5t-83.5 -31.5z" />
    <glyph glyph-name="uni1ECE" unicode="&#x1ece;" horiz-adv-x="786" 
d="M396 -10q-115 -1 -198 41t-127 121t-44 190q0 114 48 199t134 132t201 47q105 0 183.5 -44t122 -122.5t43.5 -184.5q0 -112 -45.5 -197t-127.5 -133t-190 -49zM391 165q77 0 122 54.5t45 145.5q0 82 -42.5 131t-113.5 49q-52 0 -91 -25.5t-60.5 -70t-21.5 -102.5
q0 -86 43 -134t119 -48zM407 947q57 0 97 -20t40 -60q0 -27 -14.5 -41t-34 -21.5t-34 -14.5t-14.5 -21h-108v11q0 16 10.5 27.5t23.5 19.5t23.5 14.5t10.5 12.5q0 8 -17 8q-23 0 -43.5 -9t-37.5 -26l-63 57q28 30 70 46.5t91 16.5z" />
    <glyph glyph-name="uni1ECF" unicode="&#x1ecf;" horiz-adv-x="607" 
d="M314 521q83 0 143 -31t92.5 -88t32.5 -135q0 -80 -36 -143t-101.5 -99t-153.5 -36q-124 0 -195 68.5t-71 185.5q0 80 36 143t101 99t152 36zM300 149q41 0 66 31.5t25 83.5q0 46 -22.5 71.5t-60.5 25.5q-42 0 -67 -31t-25 -84q0 -46 22 -71.5t62 -25.5zM318 751
q57 0 97 -20t40 -60q0 -27 -14.5 -41t-34 -21.5t-34 -14.5t-14.5 -21h-108v11q0 16 10.5 27.5t23.5 19.5t23.5 14.5t10.5 12.5q0 8 -17 8q-23 0 -43.5 -9t-37.5 -26l-63 57q28 30 70 46.5t91 16.5z" />
    <glyph glyph-name="uni1ED0" unicode="&#x1ed0;" horiz-adv-x="786" 
d="M396 -10q-115 -1 -198 41t-127 121t-44 190q0 114 48 199t134 132t201 47q105 0 183.5 -44t122 -122.5t43.5 -184.5q0 -112 -45.5 -197t-127.5 -133t-190 -49zM391 165q77 0 122 54.5t45 145.5q0 82 -42.5 131t-113.5 49q-52 0 -91 -25.5t-60.5 -70t-21.5 -102.5
q0 -86 43 -134t119 -48zM525 906l125 177l187 -45l-151 -132h-161zM182 769l136 167h150l136 -167h-171l-40 55l-40 -55h-171z" />
    <glyph glyph-name="uni1ED1" unicode="&#x1ed1;" horiz-adv-x="607" 
d="M314 521q83 0 143 -31t92.5 -88t32.5 -135q0 -80 -36 -143t-101.5 -99t-153.5 -36q-124 0 -195 68.5t-71 185.5q0 80 36 143t101 99t152 36zM300 149q41 0 66 31.5t25 83.5q0 46 -22.5 71.5t-60.5 25.5q-42 0 -67 -31t-25 -84q0 -46 22 -71.5t62 -25.5zM436 710l125 177
l187 -45l-151 -132h-161zM93 573l136 167h150l136 -167h-171l-40 55l-40 -55h-171z" />
    <glyph glyph-name="uni1ED2" unicode="&#x1ed2;" horiz-adv-x="786" 
d="M396 -10q-115 -1 -198 41t-127 121t-44 190q0 114 48 199t134 132t201 47q105 0 183.5 -44t122 -122.5t43.5 -184.5q0 -112 -45.5 -197t-127.5 -133t-190 -49zM391 165q77 0 122 54.5t45 145.5q0 82 -42.5 131t-113.5 49q-52 0 -91 -25.5t-60.5 -70t-21.5 -102.5
q0 -86 43 -134t119 -48zM100 906l-151 132l187 45l125 -177h-161zM182 769l136 167h150l136 -167h-171l-40 55l-40 -55h-171z" />
    <glyph glyph-name="uni1ED3" unicode="&#x1ed3;" horiz-adv-x="607" 
d="M314 521q83 0 143 -31t92.5 -88t32.5 -135q0 -80 -36 -143t-101.5 -99t-153.5 -36q-124 0 -195 68.5t-71 185.5q0 80 36 143t101 99t152 36zM300 149q41 0 66 31.5t25 83.5q0 46 -22.5 71.5t-60.5 25.5q-42 0 -67 -31t-25 -84q0 -46 22 -71.5t62 -25.5zM11 710l-151 132
l187 45l125 -177h-161zM93 573l136 167h150l136 -167h-171l-40 55l-40 -55h-171z" />
    <glyph glyph-name="uni1ED4" unicode="&#x1ed4;" horiz-adv-x="786" 
d="M396 -10q-115 -1 -198 41t-127 121t-44 190q0 114 48 199t134 132t201 47q105 0 183.5 -44t122 -122.5t43.5 -184.5q0 -112 -45.5 -197t-127.5 -133t-190 -49zM391 165q77 0 122 54.5t45 145.5q0 82 -42.5 131t-113.5 49q-52 0 -91 -25.5t-60.5 -70t-21.5 -102.5
q0 -86 43 -134t119 -48zM531 906v11q0 16 10.5 27.5t23.5 19.5t23.5 14.5t10.5 12.5q0 8 -17 8q-23 0 -43.5 -9t-37.5 -26l-63 57q28 30 70 46.5t91 16.5q57 0 97 -20t40 -60q0 -27 -14.5 -41t-34 -21.5t-34 -14.5t-14.5 -21h-108zM182 769l136 167h150l136 -167h-171
l-40 55l-40 -55h-171z" />
    <glyph glyph-name="uni1ED5" unicode="&#x1ed5;" horiz-adv-x="607" 
d="M314 521q83 0 143 -31t92.5 -88t32.5 -135q0 -80 -36 -143t-101.5 -99t-153.5 -36q-124 0 -195 68.5t-71 185.5q0 80 36 143t101 99t152 36zM300 149q41 0 66 31.5t25 83.5q0 46 -22.5 71.5t-60.5 25.5q-42 0 -67 -31t-25 -84q0 -46 22 -71.5t62 -25.5zM442 710v11
q0 16 10.5 27.5t23.5 19.5t23.5 14.5t10.5 12.5q0 8 -17 8q-23 0 -43.5 -9t-37.5 -26l-63 57q28 30 70 46.5t91 16.5q57 0 97 -20t40 -60q0 -27 -14.5 -41t-34 -21.5t-34 -14.5t-14.5 -21h-108zM93 573l136 167h150l136 -167h-171l-40 55l-40 -55h-171z" />
    <glyph glyph-name="uni1ED6" unicode="&#x1ed6;" horiz-adv-x="786" 
d="M396 -10q-115 -1 -198 41t-127 121t-44 190q0 114 48 199t134 132t201 47q105 0 183.5 -44t122 -122.5t43.5 -184.5q0 -112 -45.5 -197t-127.5 -133t-190 -49zM391 165q77 0 122 54.5t45 145.5q0 82 -42.5 131t-113.5 49q-52 0 -91 -25.5t-60.5 -70t-21.5 -102.5
q0 -86 43 -134t119 -48zM541 1140l67 -67q-16 -52 -52.5 -79t-86.5 -27q-29 0 -59.5 11t-58 22.5t-48.5 11.5q-11 0 -28.5 -9.5t-29.5 -26.5l-67 68q17 53 53.5 78.5t85.5 25.5q29 0 60 -11.5t58.5 -22.5t47.5 -11q16 0 32 9t26 28zM182 769l136 162h150l136 -162h-171
l-40 51l-40 -51h-171z" />
    <glyph glyph-name="uni1ED7" unicode="&#x1ed7;" horiz-adv-x="607" 
d="M314 521q83 0 143 -31t92.5 -88t32.5 -135q0 -80 -36 -143t-101.5 -99t-153.5 -36q-124 0 -195 68.5t-71 185.5q0 80 36 143t101 99t152 36zM300 149q41 0 66 31.5t25 83.5q0 46 -22.5 71.5t-60.5 25.5q-42 0 -67 -31t-25 -84q0 -46 22 -71.5t62 -25.5zM452 944l67 -67
q-16 -52 -52.5 -79t-86.5 -27q-29 0 -59.5 11t-58 22.5t-48.5 11.5q-11 0 -28.5 -9.5t-29.5 -26.5l-67 68q17 53 53.5 78.5t85.5 25.5q29 0 60 -11.5t58.5 -22.5t47.5 -11q16 0 32 9t26 28zM93 573l136 162h150l136 -162h-171l-40 51l-40 -51h-171z" />
    <glyph glyph-name="uni1ED8" unicode="&#x1ed8;" horiz-adv-x="786" 
d="M396 -10q-115 -1 -198 41t-127 121t-44 190q0 114 48 199t134 132t201 47q105 0 183.5 -44t122 -122.5t43.5 -184.5q0 -112 -45.5 -197t-127.5 -133t-190 -49zM391 165q77 0 122 54.5t45 145.5q0 82 -42.5 131t-113.5 49q-52 0 -91 -25.5t-60.5 -70t-21.5 -102.5
q0 -86 43 -134t119 -48zM393 -259q-52 0 -83 31.5t-31 75.5t30.5 75.5t83.5 31.5t83.5 -31.5t30.5 -75.5t-30.5 -75.5t-83.5 -31.5zM604 769h-171l-40 55l-41 -55h-171l137 167h150z" />
    <glyph glyph-name="uni1ED9" unicode="&#x1ed9;" horiz-adv-x="607" 
d="M314 521q83 0 143 -31t92.5 -88t32.5 -135q0 -80 -36 -143t-101.5 -99t-153.5 -36q-124 0 -195 68.5t-71 185.5q0 80 36 143t101 99t152 36zM300 149q41 0 66 31.5t25 83.5q0 46 -22.5 71.5t-60.5 25.5q-42 0 -67 -31t-25 -84q0 -46 22 -71.5t62 -25.5zM304 -259
q-52 0 -83 31.5t-31 75.5t30.5 75.5t83.5 31.5t83.5 -31.5t30.5 -75.5t-30.5 -75.5t-83.5 -31.5zM515 573h-171l-40 55l-41 -55h-171l137 167h150z" />
    <glyph glyph-name="uni1EDA" unicode="&#x1eda;" horiz-adv-x="786" 
d="M396 -10q-115 -1 -198 41t-127 121t-44 190q0 114 48 199t134 132t201 47q105 0 183.5 -44t122 -122.5t43.5 -184.5q0 -112 -45.5 -197t-127.5 -133t-190 -49zM391 165q77 0 122 54.5t45 145.5q0 82 -42.5 131t-113.5 49q-52 0 -91 -25.5t-60.5 -70t-21.5 -102.5
q0 -86 43 -134t119 -48zM533 707q33 0 49.5 9t22.5 34t8 73l158 -12q3 -68 -23.5 -121t-75 -83t-112.5 -30h-64l-38 139q17 -1 36.5 -5t38.5 -4zM315 769l126 177l187 -45l-152 -132h-161z" />
    <glyph glyph-name="uni1EDB" unicode="&#x1edb;" horiz-adv-x="607" 
d="M314 521q83 0 143 -31t92.5 -88t32.5 -135q0 -80 -36 -143t-101.5 -99t-153.5 -36q-124 0 -195 68.5t-71 185.5q0 80 36 143t101 99t152 36zM300 149q41 0 66 31.5t25 83.5q0 46 -22.5 71.5t-60.5 25.5q-42 0 -67 -31t-25 -84q0 -46 22 -71.5t62 -25.5zM413 513
q26 0 40.5 8t21 32.5t8.5 73.5l159 -12q3 -68 -24 -120t-76 -81t-112 -29h-46l-36 135q11 -1 28 -4t37 -3zM226 573l126 177l187 -45l-152 -132h-161z" />
    <glyph glyph-name="uni1EDC" unicode="&#x1edc;" horiz-adv-x="786" 
d="M396 -10q-115 -1 -198 41t-127 121t-44 190q0 114 48 199t134 132t201 47q105 0 183.5 -44t122 -122.5t43.5 -184.5q0 -112 -45.5 -197t-127.5 -133t-190 -49zM391 165q77 0 122 54.5t45 145.5q0 82 -42.5 131t-113.5 49q-52 0 -91 -25.5t-60.5 -70t-21.5 -102.5
q0 -86 43 -134t119 -48zM533 707q33 0 49.5 9t22.5 34t8 73l158 -12q3 -68 -23.5 -121t-75 -83t-112.5 -30h-64l-38 139q17 -1 36.5 -5t38.5 -4zM312 769l-151 132l188 45l125 -177h-162z" />
    <glyph glyph-name="uni1EDD" unicode="&#x1edd;" horiz-adv-x="607" 
d="M314 521q83 0 143 -31t92.5 -88t32.5 -135q0 -80 -36 -143t-101.5 -99t-153.5 -36q-124 0 -195 68.5t-71 185.5q0 80 36 143t101 99t152 36zM300 149q41 0 66 31.5t25 83.5q0 46 -22.5 71.5t-60.5 25.5q-42 0 -67 -31t-25 -84q0 -46 22 -71.5t62 -25.5zM413 513
q26 0 40.5 8t21 32.5t8.5 73.5l159 -12q3 -68 -24 -120t-76 -81t-112 -29h-46l-36 135q11 -1 28 -4t37 -3zM223 573l-151 132l188 45l125 -177h-162z" />
    <glyph glyph-name="uni1EDE" unicode="&#x1ede;" horiz-adv-x="786" 
d="M396 -10q-115 -1 -198 41t-127 121t-44 190q0 114 48 199t134 132t201 47q105 0 183.5 -44t122 -122.5t43.5 -184.5q0 -112 -45.5 -197t-127.5 -133t-190 -49zM391 165q77 0 122 54.5t45 145.5q0 82 -42.5 131t-113.5 49q-52 0 -91 -25.5t-60.5 -70t-21.5 -102.5
q0 -86 43 -134t119 -48zM533 707q33 0 49.5 9t22.5 34t8 73l158 -12q3 -68 -23.5 -121t-75 -83t-112.5 -30h-64l-38 139q17 -1 36.5 -5t38.5 -4zM407 947q57 0 97 -20t40 -60q0 -27 -14.5 -41t-34 -21.5t-34 -14.5t-14.5 -21h-108v11q0 16 10.5 27.5t23.5 19.5t23.5 14.5
t10.5 12.5q0 8 -17 8q-23 0 -43.5 -9t-37.5 -26l-63 57q28 30 70 46.5t91 16.5z" />
    <glyph glyph-name="uni1EDF" unicode="&#x1edf;" horiz-adv-x="607" 
d="M314 521q83 0 143 -31t92.5 -88t32.5 -135q0 -80 -36 -143t-101.5 -99t-153.5 -36q-124 0 -195 68.5t-71 185.5q0 80 36 143t101 99t152 36zM300 149q41 0 66 31.5t25 83.5q0 46 -22.5 71.5t-60.5 25.5q-42 0 -67 -31t-25 -84q0 -46 22 -71.5t62 -25.5zM413 513
q26 0 40.5 8t21 32.5t8.5 73.5l159 -12q3 -68 -24 -120t-76 -81t-112 -29h-46l-36 135q11 -1 28 -4t37 -3zM318 751q57 0 97 -20t40 -60q0 -27 -14.5 -41t-34 -21.5t-34 -14.5t-14.5 -21h-108v11q0 16 10.5 27.5t23.5 19.5t23.5 14.5t10.5 12.5q0 8 -17 8q-23 0 -43.5 -9
t-37.5 -26l-63 57q28 30 70 46.5t91 16.5z" />
    <glyph glyph-name="uni1EE0" unicode="&#x1ee0;" horiz-adv-x="786" 
d="M396 -10q-115 -1 -198 41t-127 121t-44 190q0 114 48 199t134 132t201 47q105 0 183.5 -44t122 -122.5t43.5 -184.5q0 -112 -45.5 -197t-127.5 -133t-190 -49zM391 165q77 0 122 54.5t45 145.5q0 82 -42.5 131t-113.5 49q-52 0 -91 -25.5t-60.5 -70t-21.5 -102.5
q0 -86 43 -134t119 -48zM533 707q33 0 49.5 9t22.5 34t8 73l158 -12q3 -68 -23.5 -121t-75 -83t-112.5 -30h-64l-38 139q17 -1 36.5 -5t38.5 -4zM471 762q-30 0 -61 12.5t-59 25t-50 12.5q-12 0 -30 -9.5t-30 -29.5l-67 61q17 58 54 85.5t87 27.5q30 0 61.5 -12t60 -24.5
t48.5 -12.5q17 0 33.5 9t26.5 31l67 -60q-16 -58 -53.5 -87t-87.5 -29z" />
    <glyph glyph-name="uni1EE1" unicode="&#x1ee1;" horiz-adv-x="607" 
d="M314 521q83 0 143 -31t92.5 -88t32.5 -135q0 -80 -36 -143t-101.5 -99t-153.5 -36q-124 0 -195 68.5t-71 185.5q0 80 36 143t101 99t152 36zM300 149q41 0 66 31.5t25 83.5q0 46 -22.5 71.5t-60.5 25.5q-42 0 -67 -31t-25 -84q0 -46 22 -71.5t62 -25.5zM413 513
q26 0 40.5 8t21 32.5t8.5 73.5l159 -12q3 -68 -24 -120t-76 -81t-112 -29h-46l-36 135q11 -1 28 -4t37 -3zM382 566q-30 0 -61 12.5t-59 25t-50 12.5q-12 0 -30 -9.5t-30 -29.5l-67 61q17 58 54 85.5t87 27.5q30 0 61.5 -12t60 -24.5t48.5 -12.5q17 0 33.5 9t26.5 31l67 -60
q-16 -58 -53.5 -87t-87.5 -29z" />
    <glyph glyph-name="uni1EE2" unicode="&#x1ee2;" horiz-adv-x="786" 
d="M396 -10q-115 -1 -198 41t-127 121t-44 190q0 114 48 199t134 132t201 47q105 0 183.5 -44t122 -122.5t43.5 -184.5q0 -112 -45.5 -197t-127.5 -133t-190 -49zM391 165q77 0 122 54.5t45 145.5q0 82 -42.5 131t-113.5 49q-52 0 -91 -25.5t-60.5 -70t-21.5 -102.5
q0 -86 43 -134t119 -48zM533 707q33 0 49.5 9t22.5 34t8 73l158 -12q3 -68 -23.5 -121t-75 -83t-112.5 -30h-64l-38 139q17 -1 36.5 -5t38.5 -4zM393 -259q-52 0 -83 31.5t-31 75.5t30.5 75.5t83.5 31.5t83.5 -31.5t30.5 -75.5t-30.5 -75.5t-83.5 -31.5z" />
    <glyph glyph-name="uni1EE3" unicode="&#x1ee3;" horiz-adv-x="607" 
d="M314 521q83 0 143 -31t92.5 -88t32.5 -135q0 -80 -36 -143t-101.5 -99t-153.5 -36q-124 0 -195 68.5t-71 185.5q0 80 36 143t101 99t152 36zM300 149q41 0 66 31.5t25 83.5q0 46 -22.5 71.5t-60.5 25.5q-42 0 -67 -31t-25 -84q0 -46 22 -71.5t62 -25.5zM413 513
q26 0 40.5 8t21 32.5t8.5 73.5l159 -12q3 -68 -24 -120t-76 -81t-112 -29h-46l-36 135q11 -1 28 -4t37 -3zM304 -259q-52 0 -83 31.5t-31 75.5t30.5 75.5t83.5 31.5t83.5 -31.5t30.5 -75.5t-30.5 -75.5t-83.5 -31.5z" />
    <glyph glyph-name="uni1EE4" unicode="&#x1ee4;" horiz-adv-x="774" 
d="M519 710h196l2 -389q1 -98 -40 -173t-115 -117t-172 -42q-160 0 -246.5 80t-86.5 237v404h200v-394q0 -81 37.5 -116t96.5 -35q62 0 96.5 38t33.5 125zM387 -259q-52 0 -83 31.5t-31 75.5t30.5 75.5t83.5 31.5t83.5 -31.5t30.5 -75.5t-30.5 -75.5t-83.5 -31.5z" />
    <glyph glyph-name="uni1EE5" unicode="&#x1ee5;" horiz-adv-x="630" 
d="M228 -11q-92 0 -139.5 61t-46.5 177l2 287h186l-2 -274q0 -78 55 -78q25 0 45.5 15.5t35.5 54.5t24 107.5t10 174.5h180v-514h-181l10 96q-30 -49 -75.5 -78t-103.5 -29zM315 -259q-52 0 -83 31.5t-31 75.5t30.5 75.5t83.5 31.5t83.5 -31.5t30.5 -75.5t-30.5 -75.5
t-83.5 -31.5z" />
    <glyph glyph-name="uni1EE6" unicode="&#x1ee6;" horiz-adv-x="774" 
d="M519 710h196l2 -389q1 -98 -40 -173t-115 -117t-172 -42q-160 0 -246.5 80t-86.5 237v404h200v-394q0 -81 37.5 -116t96.5 -35q62 0 96.5 38t33.5 125zM401 947q57 0 97 -20t40 -60q0 -27 -14.5 -41t-34 -21.5t-34 -14.5t-14.5 -21h-108v11q0 16 10.5 27.5t23.5 19.5
t23.5 14.5t10.5 12.5q0 8 -17 8q-23 0 -43.5 -9t-37.5 -26l-63 57q28 30 70 46.5t91 16.5z" />
    <glyph glyph-name="uni1EE7" unicode="&#x1ee7;" horiz-adv-x="630" 
d="M228 -11q-92 0 -139.5 61t-46.5 177l2 287h186l-2 -274q0 -78 55 -78q25 0 45.5 15.5t35.5 54.5t24 107.5t10 174.5h180v-514h-181l10 96q-30 -49 -75.5 -78t-103.5 -29zM329 751q57 0 97 -20t40 -60q0 -27 -14.5 -41t-34 -21.5t-34 -14.5t-14.5 -21h-108v11
q0 16 10.5 27.5t23.5 19.5t23.5 14.5t10.5 12.5q0 8 -17 8q-23 0 -43.5 -9t-37.5 -26l-63 57q28 30 70 46.5t91 16.5z" />
    <glyph glyph-name="uni1EE8" unicode="&#x1ee8;" horiz-adv-x="774" 
d="M888 811q4 -62 -16 -115t-60 -87t-97 -41l2 -247q1 -98 -40 -173t-115 -117t-172 -42q-160 0 -246.5 80t-86.5 237v404h200v-394q0 -81 38 -116t100 -35q59 0 93 38t33 125l-2 382h135q32 0 47.5 9t21.5 33.5t7 70.5zM309 769l126 177l187 -45l-152 -132h-161z" />
    <glyph glyph-name="uni1EE9" unicode="&#x1ee9;" horiz-adv-x="630" 
d="M679 615q3 -69 -24.5 -121.5t-76.5 -80.5v-413h-181l10 96q-30 -49 -75.5 -78t-103.5 -29q-92 0 -139.5 61t-46.5 177l2 287h186l-2 -274q0 -78 55 -78q25 0 45.5 15.5t35.5 54.5t24 107.5t10 174.5h52q26 0 40.5 7.5t21.5 32t8 73.5zM235 573l126 177l187 -45l-152 -132
h-161z" />
    <glyph glyph-name="uni1EEA" unicode="&#x1eea;" horiz-adv-x="774" 
d="M888 811q4 -62 -16 -115t-60 -87t-97 -41l2 -247q1 -98 -40 -173t-115 -117t-172 -42q-160 0 -246.5 80t-86.5 237v404h200v-394q0 -81 38 -116t100 -35q59 0 93 38t33 125l-2 382h135q32 0 47.5 9t21.5 33.5t7 70.5zM306 769l-151 132l188 45l125 -177h-162z" />
    <glyph glyph-name="uni1EEB" unicode="&#x1eeb;" horiz-adv-x="630" 
d="M679 615q3 -69 -24.5 -121.5t-76.5 -80.5v-413h-181l10 96q-30 -49 -75.5 -78t-103.5 -29q-92 0 -139.5 61t-46.5 177l2 287h186l-2 -274q0 -78 55 -78q25 0 45.5 15.5t35.5 54.5t24 107.5t10 174.5h52q26 0 40.5 7.5t21.5 32t8 73.5zM232 573l-151 132l188 45l125 -177
h-162z" />
    <glyph glyph-name="uni1EEC" unicode="&#x1eec;" horiz-adv-x="774" 
d="M888 811q4 -62 -16 -115t-60 -87t-97 -41l2 -247q1 -98 -40 -173t-115 -117t-172 -42q-160 0 -246.5 80t-86.5 237v404h200v-394q0 -81 38 -116t100 -35q59 0 93 38t33 125l-2 382h135q32 0 47.5 9t21.5 33.5t7 70.5zM401 947q57 0 97 -20t40 -60q0 -27 -14.5 -41
t-34 -21.5t-34 -14.5t-14.5 -21h-108v11q0 16 10.5 27.5t23.5 19.5t23.5 14.5t10.5 12.5q0 8 -17 8q-23 0 -43.5 -9t-37.5 -26l-63 57q28 30 70 46.5t91 16.5z" />
    <glyph glyph-name="uni1EED" unicode="&#x1eed;" horiz-adv-x="630" 
d="M679 615q3 -69 -24.5 -121.5t-76.5 -80.5v-413h-181l10 96q-30 -49 -75.5 -78t-103.5 -29q-92 0 -139.5 61t-46.5 177l2 287h186l-2 -274q0 -78 55 -78q25 0 45.5 15.5t35.5 54.5t24 107.5t10 174.5h52q26 0 40.5 7.5t21.5 32t8 73.5zM327 751q57 0 97 -20t40 -60
q0 -27 -14.5 -41t-34 -21.5t-34 -14.5t-14.5 -21h-108v11q0 16 10.5 27.5t23.5 19.5t23.5 14.5t10.5 12.5q0 8 -17 8q-23 0 -43.5 -9t-37.5 -26l-63 57q28 30 70 46.5t91 16.5z" />
    <glyph glyph-name="uni1EEE" unicode="&#x1eee;" horiz-adv-x="774" 
d="M888 811q4 -62 -16 -115t-60 -87t-97 -41l2 -247q1 -98 -40 -173t-115 -117t-172 -42q-160 0 -246.5 80t-86.5 237v404h200v-394q0 -81 38 -116t100 -35q59 0 93 38t33 125l-2 382h135q32 0 47.5 9t21.5 33.5t7 70.5zM465 762q-30 0 -61 12.5t-59 25t-50 12.5
q-12 0 -30 -9.5t-30 -29.5l-67 61q17 58 54 85.5t87 27.5q30 0 61.5 -12t60 -24.5t48.5 -12.5q17 0 33.5 9t26.5 31l67 -60q-16 -58 -53.5 -87t-87.5 -29z" />
    <glyph glyph-name="uni1EEF" unicode="&#x1eef;" horiz-adv-x="630" 
d="M679 615q3 -69 -24.5 -121.5t-76.5 -80.5v-413h-181l10 96q-30 -49 -75.5 -78t-103.5 -29q-92 0 -139.5 61t-46.5 177l2 287h186l-2 -274q0 -78 55 -78q25 0 45.5 15.5t35.5 54.5t24 107.5t10 174.5h52q26 0 40.5 7.5t21.5 32t8 73.5zM391 566q-30 0 -61 12.5t-59 25
t-50 12.5q-12 0 -30 -9.5t-30 -29.5l-67 61q17 58 54 85.5t87 27.5q30 0 61.5 -12t60 -24.5t48.5 -12.5q17 0 33.5 9t26.5 31l67 -60q-16 -58 -53.5 -87t-87.5 -29z" />
    <glyph glyph-name="uni1EF0" unicode="&#x1ef0;" horiz-adv-x="774" 
d="M888 811q4 -62 -16 -115t-60 -87t-97 -41l2 -247q1 -98 -40 -173t-115 -117t-172 -42q-160 0 -246.5 80t-86.5 237v404h200v-394q0 -81 38 -116t100 -35q59 0 93 38t33 125l-2 382h135q32 0 47.5 9t21.5 33.5t7 70.5zM387 -259q-52 0 -83 31.5t-31 75.5t30.5 75.5
t83.5 31.5t83.5 -31.5t30.5 -75.5t-30.5 -75.5t-83.5 -31.5z" />
    <glyph glyph-name="uni1EF1" unicode="&#x1ef1;" horiz-adv-x="630" 
d="M679 615q3 -69 -24.5 -121.5t-76.5 -80.5v-413h-181l10 96q-30 -49 -75.5 -78t-103.5 -29q-92 0 -139.5 61t-46.5 177l2 287h186l-2 -274q0 -78 55 -78q25 0 45.5 15.5t35.5 54.5t24 107.5t10 174.5h52q26 0 40.5 7.5t21.5 32t8 73.5zM313 -259q-52 0 -83 31.5t-31 75.5
t30.5 75.5t83.5 31.5t83.5 -31.5t30.5 -75.5t-30.5 -75.5t-83.5 -31.5z" />
    <glyph glyph-name="Ygrave" unicode="&#x1ef2;" horiz-adv-x="636" 
d="M659 710l-238 -393v-317h-200v307l-250 403h223l134 -221l123 221h208zM242 769l-151 132l188 45l125 -177h-162z" />
    <glyph glyph-name="ygrave" unicode="&#x1ef3;" horiz-adv-x="634" 
d="M242 -210q-32 0 -69.5 4.5t-72 14.5t-57.5 25l44 158q38 -19 77.5 -29.5t88.5 -10.5q79 0 113 34t40 106l2 25q-30 -48 -75 -76t-103 -28q-97 0 -143 64t-45 177l1 260h186l-1 -248q0 -40 15.5 -60t43.5 -20q35 0 59.5 29.5t39 101t16.5 197.5h180v-402
q0 -112 -42.5 -183t-119 -105t-178.5 -34zM235 573l-151 132l188 45l125 -177h-162z" />
    <glyph glyph-name="uni1EF4" unicode="&#x1ef4;" horiz-adv-x="636" 
d="M659 710l-238 -393v-317h-200v307l-250 403h223l134 -221l123 221h208zM320 -259q-52 0 -83 31.5t-31 75.5t30.5 75.5t83.5 31.5t83.5 -31.5t30.5 -75.5t-30.5 -75.5t-83.5 -31.5z" />
    <glyph glyph-name="uni1EF5" unicode="&#x1ef5;" horiz-adv-x="634" 
d="M242 -210q-32 0 -69.5 4.5t-72 14.5t-57.5 25l44 158q38 -19 77.5 -29.5t88.5 -10.5q79 0 113 34t40 106l2 25q-30 -48 -75 -76t-103 -28q-97 0 -143 64t-45 177l1 260h186l-1 -248q0 -40 15.5 -60t43.5 -20q35 0 59.5 29.5t39 101t16.5 197.5h180v-402
q0 -112 -42.5 -183t-119 -105t-178.5 -34zM656 -259q-52 0 -83 31.5t-31 75.5t30.5 75.5t83.5 31.5t83.5 -31.5t30.5 -75.5t-30.5 -75.5t-83.5 -31.5z" />
    <glyph glyph-name="uni1EF6" unicode="&#x1ef6;" horiz-adv-x="636" 
d="M659 710l-238 -393v-317h-200v307l-250 403h223l134 -221l123 221h208zM337 947q57 0 97 -20t40 -60q0 -27 -14.5 -41t-34 -21.5t-34 -14.5t-14.5 -21h-108v11q0 16 10.5 27.5t23.5 19.5t23.5 14.5t10.5 12.5q0 8 -17 8q-23 0 -43.5 -9t-37.5 -26l-63 57q28 30 70 46.5
t91 16.5z" />
    <glyph glyph-name="uni1EF7" unicode="&#x1ef7;" horiz-adv-x="634" 
d="M242 -210q-32 0 -69.5 4.5t-72 14.5t-57.5 25l44 158q38 -19 77.5 -29.5t88.5 -10.5q79 0 113 34t40 106l2 25q-30 -48 -75 -76t-103 -28q-97 0 -143 64t-45 177l1 260h186l-1 -248q0 -40 15.5 -60t43.5 -20q35 0 59.5 29.5t39 101t16.5 197.5h180v-402
q0 -112 -42.5 -183t-119 -105t-178.5 -34zM330 751q57 0 97 -20t40 -60q0 -27 -14.5 -41t-34 -21.5t-34 -14.5t-14.5 -21h-108v11q0 16 10.5 27.5t23.5 19.5t23.5 14.5t10.5 12.5q0 8 -17 8q-23 0 -43.5 -9t-37.5 -26l-63 57q28 30 70 46.5t91 16.5z" />
    <glyph glyph-name="uni1EF8" unicode="&#x1ef8;" horiz-adv-x="636" 
d="M659 710l-238 -393v-317h-200v307l-250 403h223l134 -221l123 221h208zM401 762q-30 0 -61 12.5t-59 25t-50 12.5q-12 0 -30 -9.5t-30 -29.5l-67 61q17 58 54 85.5t87 27.5q30 0 61.5 -12t60 -24.5t48.5 -12.5q17 0 33.5 9t26.5 31l67 -60q-16 -58 -53.5 -87t-87.5 -29z
" />
    <glyph glyph-name="uni1EF9" unicode="&#x1ef9;" horiz-adv-x="634" 
d="M242 -210q-32 0 -69.5 4.5t-72 14.5t-57.5 25l44 158q38 -19 77.5 -29.5t88.5 -10.5q79 0 113 34t40 106l2 25q-30 -48 -75 -76t-103 -28q-97 0 -143 64t-45 177l1 260h186l-1 -248q0 -40 15.5 -60t43.5 -20q35 0 59.5 29.5t39 101t16.5 197.5h180v-402
q0 -112 -42.5 -183t-119 -105t-178.5 -34zM394 566q-30 0 -61 12.5t-59 25t-50 12.5q-12 0 -30 -9.5t-30 -29.5l-67 61q17 58 54 85.5t87 27.5q30 0 61.5 -12t60 -24.5t48.5 -12.5q17 0 33.5 9t26.5 31l67 -60q-16 -58 -53.5 -87t-87.5 -29z" />
    <glyph glyph-name="uni2007" unicode="&#x2007;" horiz-adv-x="600" 
 />
    <glyph glyph-name="uni2008" unicode="&#x2008;" horiz-adv-x="315" 
 />
    <glyph glyph-name="uni2009" unicode="&#x2009;" horiz-adv-x="200" 
 />
    <glyph glyph-name="uni200A" unicode="&#x200a;" horiz-adv-x="143" 
 />
    <glyph glyph-name="uni200B" unicode="&#x200b;" 
 />
    <glyph glyph-name="uni2010" unicode="&#x2010;" horiz-adv-x="453" 
d="M60 176v165h333v-165h-333z" />
    <glyph glyph-name="figuredash" unicode="&#x2012;" horiz-adv-x="600" 
d="M20 184v154h560v-154h-560z" />
    <glyph glyph-name="endash" unicode="&#x2013;" horiz-adv-x="500" 
d="M20 184v154h460v-154h-460z" />
    <glyph glyph-name="emdash" unicode="&#x2014;" horiz-adv-x="1000" 
d="M20 184v154h960v-154h-960z" />
    <glyph glyph-name="uni2015" unicode="&#x2015;" horiz-adv-x="1000" 
d="M20 184v154h960v-154h-960z" />
    </font>
</defs>
</svg>
