<?xml version="1.0" standalone="no"?>
<!DOCTYPE svg PUBLIC "-//W3C//DTD SVG 1.1//EN" "http://www.w3.org/Graphics/SVG/1.1/DTD/svg11.dtd" >
<svg xmlns="http://www.w3.org/2000/svg" xmlns:xlink="http://www.w3.org/1999/xlink" version="1.1">
<metadata>
Created by FontForge 20201107 at Mon Sep  2 17:38:22 2019
 By 
Copyright 2019 The Livvic Project Authors (https://github.com/Fonthausen/Livvic)
</metadata>
<defs>
<font id="Livvic-LightItalic" horiz-adv-x="0" >
  <font-face 
    font-family="Livvic Light"
    font-weight="300"
    font-style="italic"
    font-stretch="normal"
    units-per-em="1000"
    panose-1="0 0 0 0 0 0 0 0 0 0"
    ascent="800"
    descent="-200"
    x-height="495"
    cap-height="710"
    bbox="-195 -276 1347 1103"
    underline-thickness="50"
    underline-position="-125"
    slope="-10"
    unicode-range="U+000D-FB02"
  />
<missing-glyph horiz-adv-x="290" 
 />
    <glyph glyph-name="f_f" unicode="ff" horiz-adv-x="647" 
d="M54 0l79 448h-101l8 47h102l11 64q16 90 69.5 140.5t133.5 50.5q65 0 98 -33t32 -92l-47 -5q2 83 -88 83q-57 0 -95 -38t-51 -111l-11 -59h120l-8 -47h-119l-79 -448h-54zM375 0l79 448h-118l8 47h118l12 64q16 90 69.5 140.5t132.5 50.5q66 0 99 -33t32 -92l-47 -5
q2 83 -88 83q-58 0 -96 -38t-50 -111l-11 -59h179l-8 -47h-178l-79 -448h-54z" />
    <glyph glyph-name="f_f_i" unicode="ffi" horiz-adv-x="827" 
d="M54 0l79 448h-101l8 47h102l11 64q16 90 69.5 140.5t133.5 50.5q65 0 98 -33t32 -92l-47 -5q2 83 -88 83q-57 0 -95 -38t-51 -111l-11 -59h178l-8 -47h-177l-79 -448h-54zM359 0l80 448h-101l8 47h101l10 59q17 94 72 145t135 51q23 0 44.5 -5t33.5 -15l-27 -42
q-21 15 -59 15q-56 0 -94 -38t-52 -111l-10 -59h178l-8 -47h-177l-79 -448h-55zM659 0q0 32 4 64t10 65l34 195q8 44 13.5 86.5t8.5 84.5h55q-3 -42 -9.5 -88.5t-13.5 -84.5l-34 -191q-5 -32 -8.5 -64t-3.5 -67h-56zM787 620q-18 0 -29 12t-11 28t11.5 28t28.5 12
q19 0 29.5 -12t10.5 -28t-10.5 -28t-29.5 -12z" />
    <glyph glyph-name="f_f_j" unicode="ffj" horiz-adv-x="918" 
d="M54 0l79 448h-101l8 47h102l11 64q16 90 69.5 140.5t133.5 50.5q65 0 98 -33t32 -92l-47 -5q2 83 -88 83q-57 0 -95 -38t-51 -111l-11 -59h178l-8 -47h-177l-79 -448h-54zM380 0l79 448h-101l8 47h102l11 64q16 90 69.5 140.5t133.5 50.5q65 0 98 -33t32 -92l-47 -5
q2 83 -88 83q-57 0 -95 -38t-51 -111l-11 -59h178l-8 -47h-177l-79 -448h-54zM798 324q8 44 13.5 86.5t8.5 84.5h55q-3 -42 -9.5 -88.5t-13.5 -84.5l-60 -336q-17 -97 -67 -148t-138 -51q-27 0 -51.5 5.5t-40.5 15.5l20 46q36 -17 74 -17q123 0 150 153zM878 620
q-18 0 -29 12t-11 28t11.5 28t28.5 12q19 0 29.5 -12t10.5 -28t-10.5 -28t-29.5 -12z" />
    <glyph glyph-name="f_f_l" unicode="ffl" horiz-adv-x="888" 
d="M54 0l79 448h-101l8 47h102l11 64q16 90 69.5 140.5t133.5 50.5q65 0 98 -33t32 -92l-47 -5q2 83 -88 83q-57 0 -95 -38t-51 -111l-11 -59h178l-8 -47h-177l-79 -448h-54zM359 0l80 448h-101l8 47h101l10 59q17 94 72 145t135 51q23 0 44.5 -5t33.5 -15l-27 -42
q-21 15 -59 15q-56 0 -94 -38t-52 -111l-10 -59h178l-8 -47h-177l-79 -448h-55zM779 -8q-52 0 -76.5 32t-16.5 83l112 633h55l-110 -624q-6 -35 5 -55t46 -20q16 0 31 5t25 11l8 -42q-15 -11 -37 -17t-42 -6z" />
    <glyph glyph-name="f_i" unicode="fi" horiz-adv-x="521" 
d="M53 0l80 448h-101l8 47h101l10 59q17 94 72 145t135 51q23 0 44.5 -5t33.5 -15l-27 -42q-21 15 -59 15q-56 0 -94 -38t-52 -111l-10 -59h178l-8 -47h-177l-79 -448h-55zM353 0q0 32 4 64t10 65l34 195q8 44 13.5 86.5t8.5 84.5h55q-3 -42 -9.5 -88.5t-13.5 -84.5
l-34 -191q-5 -32 -8.5 -64t-3.5 -67h-56zM481 620q-18 0 -29 12t-11 28t11.5 28t28.5 12q19 0 29.5 -12t10.5 -28t-10.5 -28t-29.5 -12z" />
    <glyph glyph-name="f_l" unicode="fl" horiz-adv-x="582" 
d="M53 0l80 448h-101l8 47h101l10 59q17 94 72 145t135 51q23 0 44.5 -5t33.5 -15l-27 -42q-21 15 -59 15q-56 0 -94 -38t-52 -111l-10 -59h178l-8 -47h-177l-79 -448h-55zM473 -8q-52 0 -76.5 32t-16.5 83l112 633h55l-110 -624q-6 -35 5 -55t46 -20q16 0 31 5t25 11l8 -42
q-15 -11 -37 -17t-42 -6z" />
    <glyph glyph-name=".notdef" horiz-adv-x="290" 
 />
    <glyph glyph-name=".null" 
 />
    <glyph glyph-name="nonmarkingreturn" horiz-adv-x="333" 
 />
    <glyph glyph-name="CR" unicode="&#xd;" horiz-adv-x="223" 
 />
    <glyph glyph-name="space" unicode=" " horiz-adv-x="223" 
 />
    <glyph glyph-name="exclam" unicode="!" horiz-adv-x="170" 
d="M50 156l98 584h62l-123 -584h-37zM47 -8q-17 0 -28.5 12t-11.5 29q0 18 11.5 29.5t28.5 11.5q18 0 29.5 -11.5t11.5 -29.5q0 -17 -11.5 -29t-29.5 -12z" />
    <glyph glyph-name="quotedbl" unicode="&#x22;" horiz-adv-x="314" 
d="M127 496l28 214h58l-48 -214h-38zM236 496l28 214h58l-48 -214h-38z" />
    <glyph glyph-name="numbersign" unicode="#" horiz-adv-x="600" 
d="M47 0l81 209h-110l19 50h110l73 191h-109l19 50h110l81 210h53l-81 -210h165l81 210h53l-81 -210h110l-19 -50h-110l-74 -191h110l-20 -50h-109l-81 -209h-53l81 209h-165l-81 -209h-53zM200 259h165l73 191h-164z" />
    <glyph glyph-name="dollar" unicode="$" horiz-adv-x="600" 
d="M213 -120l21 115q-88 10 -133 64t-40 151l55 7q-1 -93 38 -133t129 -40q51 0 92 18.5t65 53.5t24 85q0 37 -17.5 58.5t-46 34t-62.5 21.5t-67.5 19.5t-62 28.5t-46 49.5t-17.5 80.5q0 65 29 114t78.5 78.5t109.5 33.5l19 111h43l-20 -111q78 -6 119.5 -54t39.5 -133
l-51 -8q-1 75 -33.5 110t-99.5 35q-50 0 -89.5 -21.5t-63 -60.5t-23.5 -90q0 -39 17.5 -62.5t46 -37.5t62.5 -23t67.5 -19.5t62 -27.5t46 -46t17.5 -75q0 -66 -33.5 -114t-88.5 -74t-122 -26l-2 1l-20 -113h-43z" />
    <glyph glyph-name="percent" unicode="%" horiz-adv-x="708" 
d="M257 429q-66 0 -106.5 37.5t-40.5 97.5q0 68 44 111.5t114 43.5q64 0 103 -37.5t39 -97.5q0 -44 -20 -79t-54.5 -55.5t-78.5 -20.5zM74 0l543 710h54l-543 -710h-54zM258 469q47 0 77.5 32t30.5 80q0 45 -27 71.5t-72 26.5q-51 0 -81.5 -32.5t-30.5 -82.5
q0 -42 27.5 -68.5t75.5 -26.5zM482 -7q-66 0 -106.5 37.5t-40.5 98.5q0 67 44 110.5t114 43.5q64 0 103 -37t39 -98q0 -43 -20 -78t-54.5 -56t-78.5 -21zM483 33q47 0 77.5 32t30.5 81q0 44 -27 70.5t-72 26.5q-51 0 -81.5 -32.5t-30.5 -81.5q0 -43 27.5 -69.5t75.5 -26.5z
" />
    <glyph glyph-name="ampersand" unicode="&#x26;" horiz-adv-x="765" 
d="M261 -8q-100 0 -155.5 46.5t-55.5 124.5q0 67 26 112t67 75.5t87 54.5l-12 16q-24 34 -35 64.5t-11 62.5q0 54 23 94t63 62t92 22q58 0 92.5 -32t34.5 -89t-25 -95t-65.5 -64t-85.5 -49l186 -256q33 39 58.5 92t41.5 122h-115l7 45h271l-7 -45h-109q-17 -80 -48.5 -142
t-73.5 -107q27 -36 50.5 -50t55.5 -14q14 0 30.5 5t29.5 15l13 -39q-18 -15 -38.5 -21.5t-45.5 -6.5q-40 0 -72 18t-61 57q-47 -39 -101.5 -58.5t-111.5 -19.5zM263 449l14 -19q41 20 75.5 43t55.5 54t21 75q0 38 -21 59t-62 21q-53 0 -87 -36.5t-34 -91.5q0 -26 8.5 -51
t29.5 -54zM106 169q0 -62 42.5 -96t115.5 -34q51 0 98 16.5t87 49.5l-195 267q-39 -22 -73 -48.5t-54.5 -63.5t-20.5 -91z" />
    <glyph glyph-name="quotesingle" unicode="'" horiz-adv-x="205" 
d="M127 496l28 214h58l-48 -214h-38z" />
    <glyph glyph-name="parenleft" unicode="(" horiz-adv-x="278" 
d="M193 -208q-65 72 -95 160t-30 188q0 119 32.5 230.5t97 207.5t159.5 169l24 -32q-61 -47 -108.5 -112.5t-80 -142.5t-49 -159.5t-16.5 -163.5q0 -100 24.5 -181.5t71.5 -136.5z" />
    <glyph glyph-name="parenright" unicode=")" horiz-adv-x="278" 
d="M-71 -208l-25 32q62 47 109 112.5t79.5 142.5t49.5 159.5t17 163.5q0 100 -25 181.5t-72 136.5l31 27q64 -72 94.5 -160t30.5 -188q0 -119 -33 -230.5t-97.5 -207.5t-158.5 -169z" />
    <glyph glyph-name="asterisk" unicode="*" horiz-adv-x="458" 
d="M424 519q29 -19 17 -40q-5 -11 -16.5 -11.5t-25.5 6.5q-20 11 -40.5 28.5t-58.5 43.5q2 -47 6.5 -73t4.5 -49q0 -35 -25 -35t-25 35q0 23 4.5 49t6.5 73q-37 -26 -58 -43.5t-41 -28.5q-30 -17 -42 5q-13 22 17 40q20 11 45 20.5t66 28.5q-41 19 -66.5 29t-44.5 22
q-29 18 -17 39q12 22 42 5q20 -11 41 -28.5t58 -42.5q-2 45 -6.5 71.5t-4.5 48.5q0 16 6.5 26t18.5 10t18.5 -10t6.5 -26q0 -22 -4.5 -48.5t-6.5 -71.5q38 25 58.5 42.5t40.5 28.5q30 17 42 -5q13 -22 -17 -39q-20 -11 -45 -21.5t-66 -29.5q41 -19 66.5 -28t44.5 -21z" />
    <glyph glyph-name="plus" unicode="+" horiz-adv-x="600" 
d="M53 222l9 51h217l39 222h51l-39 -222h216l-8 -51h-217l-39 -222h-51l39 222h-217z" />
    <glyph glyph-name="comma" unicode="," horiz-adv-x="155" 
d="M-24 -100q11 20 19.5 43.5t8.5 42.5q0 11 -1.5 21.5t-1.5 21.5q0 49 44 49q35 0 35 -37q0 -16 -10.5 -41.5t-27 -52t-36.5 -47.5h-30z" />
    <glyph glyph-name="hyphen" unicode="-" horiz-adv-x="383" 
d="M57 228l9 50h263l-9 -50h-263z" />
    <glyph glyph-name="period" unicode="." horiz-adv-x="155" 
d="M40 -8q-19 0 -30.5 13t-11.5 30q0 18 12 30.5t30 12.5q20 0 31 -12.5t11 -30.5q0 -17 -11 -30t-31 -13z" />
    <glyph glyph-name="slash" unicode="/" horiz-adv-x="298" 
d="M-79 -200l414 940h57l-414 -940h-57z" />
    <glyph glyph-name="zero" unicode="0" horiz-adv-x="600" 
d="M258 -8q-91 1 -142 58t-51 175q0 70 14 141t40.5 134.5t66 113t90 78t112.5 28.5q86 0 135 -61.5t49 -177.5q0 -68 -13.5 -138t-39 -133t-63.5 -112t-87.5 -77.5t-110.5 -28.5zM262 45q50 0 91 27t71.5 72.5t51 102.5t31 117t10.5 115q0 92 -34.5 141t-98.5 49
q-51 0 -92.5 -27.5t-73.5 -73t-53.5 -103t-32.5 -118.5t-11 -118q0 -93 37 -138.5t104 -45.5z" />
    <glyph glyph-name="one" unicode="1" horiz-adv-x="600" 
d="M89 0l9 47h159l102 580l-168 -101l-22 45l230 139h31l-117 -663h155l-9 -47h-370z" />
    <glyph glyph-name="two" unicode="2" horiz-adv-x="600" 
d="M63 0l6 37q86 63 164 128t138.5 130.5t95.5 130.5t35 127q0 55 -33 85.5t-91 30.5q-133 0 -205 -147l-45 20q36 79 101 128.5t153 49.5q80 0 128.5 -41.5t48.5 -120.5q0 -67 -33.5 -134.5t-91.5 -132.5t-131.5 -126.5t-152.5 -117.5h341l-8 -47h-420z" />
    <glyph glyph-name="three" unicode="3" horiz-adv-x="600" 
d="M240 -8q-62 0 -112 14.5t-84 38.5l27 50q31 -24 73.5 -37.5t100.5 -13.5q61 0 108.5 21.5t74.5 60.5t27 93q0 59 -41 88.5t-106 29.5h-39l9 50h21q91 0 147.5 46.5t56.5 127.5q0 50 -33 79t-91 29q-135 0 -207 -147l-44 20q35 80 100.5 129t155.5 49q83 0 129.5 -43.5
t46.5 -110.5q0 -71 -42.5 -125.5t-110.5 -76.5q51 -16 77.5 -53.5t26.5 -89.5q0 -71 -36 -122.5t-97.5 -79t-137.5 -27.5z" />
    <glyph glyph-name="four" unicode="4" horiz-adv-x="600" 
d="M350 0l39 219h-338l6 37l436 456h38l-79 -446h100l-8 -47h-101l-38 -219h-55zM126 266h271l61 346z" />
    <glyph glyph-name="five" unicode="5" horiz-adv-x="600" 
d="M240 -8q-62 0 -112 14.5t-84 39.5l27 50q30 -24 74 -38t100 -14q95 0 154 50t59 141q0 65 -53 98t-166 36l-93 3l82 338h340l-8 -47h-289l-59 -244l44 -1q131 -5 194.5 -50.5t63.5 -131.5q0 -76 -34.5 -130.5t-96 -84t-143.5 -29.5z" />
    <glyph glyph-name="six" unicode="6" horiz-adv-x="600" 
d="M286 -8q-96 0 -147.5 57t-51.5 169q0 49 11 115q21 117 65 204t110.5 135t154.5 48q75 0 122.5 -40.5t58.5 -118.5l-50 -17q-10 66 -45 95.5t-91 29.5q-94 0 -165.5 -81t-103.5 -255l-3 -16q36 60 94 93.5t127 33.5q82 0 130 -47t48 -126q0 -76 -34.5 -139.5
t-94.5 -101.5t-135 -38zM289 41q62 0 108 31.5t71 82.5t25 111t-34.5 94.5t-97.5 34.5q-60 0 -108.5 -28.5t-76.5 -78t-28 -110.5q0 -63 36 -100t105 -37z" />
    <glyph glyph-name="seven" unicode="7" horiz-adv-x="600" 
d="M155 0h-63l439 663h-370l8 47h437l-7 -37z" />
    <glyph glyph-name="eight" unicode="8" horiz-adv-x="600" 
d="M262 -8q-99 0 -155.5 45t-56.5 122q0 72 47 126.5t120 75.5q-43 18 -67 55.5t-24 85.5q0 61 32 110.5t88.5 78.5t129.5 29q88 0 142 -45.5t54 -120.5q0 -69 -42 -121t-110 -74q49 -18 78 -59t29 -91q0 -66 -34.5 -114.5t-94 -75.5t-136.5 -27zM324 382q55 0 98.5 21.5
t68 59.5t24.5 88q0 56 -38.5 88t-104.5 32q-56 0 -98.5 -22t-67 -60.5t-24.5 -88.5q0 -57 37.5 -87.5t104.5 -30.5zM263 41q93 0 150.5 46.5t57.5 122.5q0 57 -42.5 91.5t-113.5 34.5q-58 0 -105 -22t-75 -61.5t-28 -90.5q0 -56 41.5 -88.5t114.5 -32.5z" />
    <glyph glyph-name="nine" unicode="9" horiz-adv-x="600" 
d="M352 720q96 0 147.5 -57t51.5 -169q0 -49 -11 -115q-21 -117 -65 -204t-110.5 -135t-154.5 -48q-75 0 -122.5 40.5t-58.5 118.5l50 17q10 -66 45 -95.5t91 -29.5q94 0 165.5 81t103.5 255l3 16q-36 -60 -94 -93.5t-127 -33.5q-82 0 -130 47t-48 126q0 76 34.5 139.5
t94.5 101.5t135 38zM349 671q-62 0 -108 -31.5t-71 -82.5t-25 -111t34.5 -94.5t97.5 -34.5q60 0 108.5 28.5t76.5 78t28 110.5q0 63 -36 100t-105 37z" />
    <glyph glyph-name="colon" unicode=":" horiz-adv-x="155" 
d="M40 -8q-19 0 -30.5 13t-11.5 30q0 18 12 30.5t30 12.5q20 0 31 -12.5t11 -30.5q0 -17 -11 -30t-31 -13zM115 416q-19 0 -30.5 13t-11.5 30q0 18 12 30.5t30 12.5q20 0 31 -12.5t11 -30.5q0 -17 -11 -30t-31 -13z" />
    <glyph glyph-name="semicolon" unicode=";" horiz-adv-x="155" 
d="M-24 -100q11 20 19.5 43.5t8.5 42.5q0 11 -1.5 21.5t-1.5 21.5q0 49 44 49q35 0 35 -37q0 -16 -10.5 -41.5t-27 -52t-36.5 -47.5h-30zM115 416q-19 0 -30.5 13t-11.5 30q0 18 12 30.5t30 12.5q20 0 31 -12.5t11 -30.5q0 -17 -11 -30t-31 -13z" />
    <glyph glyph-name="less" unicode="&#x3c;" horiz-adv-x="600" 
d="M75 269l497 224l-10 -59l-426 -190l359 -189l-9 -53l-418 223z" />
    <glyph glyph-name="equal" unicode="=" horiz-adv-x="600" 
d="M70 319l9 49h484l-8 -49h-485zM36 128l9 49h484l-8 -49h-485z" />
    <glyph glyph-name="greater" unicode="&#x3e;" horiz-adv-x="600" 
d="M525 226l-497 -224l10 59l426 190l-359 189l9 53l418 -223z" />
    <glyph glyph-name="question" unicode="?" horiz-adv-x="511" 
d="M200 153l-41 2q7 46 23 83t45.5 70.5t75.5 68.5q48 36 78 64.5t44 58.5t14 68q0 50 -33 75.5t-88 25.5q-67 0 -118.5 -36t-87.5 -111l-44 20q35 83 103.5 130.5t153.5 47.5q75 0 123 -37.5t48 -107.5q0 -52 -21 -92t-59 -75.5t-89 -73.5q-55 -41 -84.5 -83t-42.5 -98z
M165 -8q-18 0 -29.5 12t-11.5 29q0 18 12 29.5t29 11.5q18 0 29.5 -11.5t11.5 -29.5q0 -17 -11.5 -29t-29.5 -12z" />
    <glyph glyph-name="at" unicode="@" horiz-adv-x="960" 
d="M424 -212q-171 0 -269 91t-98 266q0 119 37 224t105.5 185t162.5 125.5t208 45.5q107 0 184.5 -39t119 -111t41.5 -172q0 -59 -14 -123.5t-41.5 -120.5t-65.5 -91t-86 -35q-50 0 -76 33.5t-22 88.5q-31 -53 -83.5 -87.5t-107.5 -34.5q-71 0 -110.5 42.5t-39.5 119.5
q0 64 21.5 120.5t59 98.5t86 66t102.5 24q40 0 77.5 -14t53.5 -33l14 38l37 -2l-57 -303q-10 -53 3.5 -82t44.5 -29q30 0 54.5 21.5t43.5 56.5t32.5 77.5t20.5 85t7 77.5q0 86 -35.5 149t-102.5 97t-162 34q-104 0 -189 -42.5t-146 -116.5t-94 -170t-33 -203q0 -152 83 -231
t237 -79q86 0 160 27.5t120 72.5l26 -36q-53 -51 -134 -81t-175 -30zM421 83q49 0 91 26t72 70t41 97l30 135q-22 24 -51.5 34.5t-72.5 10.5q-56 0 -103.5 -35t-76.5 -94t-29 -132q0 -112 99 -112z" />
    <glyph glyph-name="A" unicode="A" horiz-adv-x="668" 
d="M-23 0l418 710h51l154 -710h-56l-41 200h-348l-116 -200h-62zM184 249h308l-81 391z" />
    <glyph glyph-name="B" unicode="B" horiz-adv-x="602" 
d="M42 0l125 710h167q132 0 194.5 -38.5t62.5 -114.5t-43.5 -127.5t-115.5 -71.5q51 -16 78.5 -52.5t27.5 -86.5q0 -68 -32.5 -117t-89.5 -75.5t-128 -26.5h-246zM324 662h-109l-50 -280h144q107 0 165.5 41t58.5 127q0 59 -49.5 85.5t-159.5 26.5zM107 48h179
q94 0 145 43.5t51 126.5q0 115 -163 115h-162z" />
    <glyph glyph-name="C" unicode="C" horiz-adv-x="641" 
d="M615 135q-49 -72 -120 -107.5t-153 -35.5q-129 0 -199 71t-70 197q0 92 29.5 175t82.5 147t126 101t160 37q80 0 138.5 -33.5t84.5 -98.5l-48 -31q-23 54 -66 81.5t-112 27.5q-76 0 -138 -33t-106 -89.5t-68 -129.5t-24 -153q0 -103 54.5 -159t158.5 -56q72 0 129.5 30
t100.5 92z" />
    <glyph glyph-name="D" unicode="D" horiz-adv-x="727" 
d="M42 0l125 710h166q175 0 266 -68.5t91 -206.5q0 -132 -54.5 -230t-153 -151.5t-231.5 -53.5h-209zM109 50h143q119 0 204 47.5t130.5 134t45.5 202.5q0 113 -73.5 169.5t-225.5 56.5h-117z" />
    <glyph glyph-name="E" unicode="E" horiz-adv-x="533" 
d="M107 49h353l-15 -49h-403l125 710h395l-9 -49h-338l-49 -275h332l-9 -49h-331z" />
    <glyph glyph-name="F" unicode="F" horiz-adv-x="473" 
d="M98 0h-56l125 710h376l-9 -49h-320l-50 -286h313l-9 -49h-313z" />
    <glyph glyph-name="G" unicode="G" horiz-adv-x="718" 
d="M431 335h234l-59 -335h-43l9 94q-43 -49 -97 -75.5t-133 -26.5q-129 0 -199 71t-70 197q0 92 29.5 175t83 147t127.5 101t163 37q81 0 140.5 -33.5t86.5 -99.5l-49 -33q-24 56 -68.5 84t-113.5 28q-77 0 -140 -33t-107.5 -89.5t-68.5 -129.5t-24 -153q0 -103 54 -159
t159 -56q104 0 169 53t81 147l8 41h-181z" />
    <glyph glyph-name="H" unicode="H" horiz-adv-x="708" 
d="M42 0l125 710h57l-56 -323h422l57 323h57l-125 -710h-57l59 336h-422l-60 -336h-57z" />
    <glyph glyph-name="I" unicode="I" horiz-adv-x="228" 
d="M42 0l125 710h57l-125 -710h-57z" />
    <glyph glyph-name="J" unicode="J" horiz-adv-x="435" 
d="M132 -8q-76 0 -118.5 36t-49.5 96l51 20q8 -53 38.5 -76.5t84.5 -23.5q63 0 98.5 37.5t49.5 121.5l90 507h57l-88 -504q-19 -108 -69 -161t-144 -53z" />
    <glyph glyph-name="K" unicode="K" horiz-adv-x="536" 
d="M42 0l125 710h57l-58 -333l396 333h75l-422 -353q16 -7 29.5 -22t25.5 -39l91 -180q23 -45 42 -58.5t47 -13.5q31 0 54 16l8 -42q-16 -12 -35 -17.5t-41 -5.5q-40 0 -67.5 19.5t-51.5 65.5l-105 206q-8 17 -21.5 27.5t-33.5 14.5l-58 -328h-57z" />
    <glyph glyph-name="L" unicode="L" horiz-adv-x="473" 
d="M42 0l125 710h57l-115 -660h337l-15 -50h-389z" />
    <glyph glyph-name="M" unicode="M" horiz-adv-x="907" 
d="M33 0l159 710h60l168 -645l402 645h60l-98 -710h-53l81 602l-377 -602h-52l-159 611l-137 -611h-54z" />
    <glyph glyph-name="N" unicode="N" horiz-adv-x="709" 
d="M650 710h55l-125 -710h-48l-328 617l-108 -617h-54l125 710h48l327 -617z" />
    <glyph glyph-name="O" unicode="O" horiz-adv-x="767" 
d="M341 -8q-128 0 -198 71t-70 197q0 91 29.5 173.5t83 147t126.5 102t161 37.5q81 0 138.5 -33.5t88 -95.5t30.5 -146q0 -89 -28 -170.5t-79.5 -145t-123 -100.5t-158.5 -37zM345 46q76 0 136 33.5t102.5 90t65.5 128.5t23 149q0 103 -52.5 161t-149.5 58q-77 0 -139 -33.5
t-106.5 -91t-68.5 -130t-24 -150.5q0 -103 54.5 -159t158.5 -56z" />
    <glyph glyph-name="P" unicode="P" horiz-adv-x="589" 
d="M98 0h-56l125 710h212q110 0 170 -42.5t60 -125.5t-39 -138t-108.5 -81.5t-162.5 -26.5h-148zM372 662h-157l-56 -317h143q76 0 132.5 19t87 61.5t30.5 114.5q0 63 -45.5 92.5t-134.5 29.5z" />
    <glyph glyph-name="Q" unicode="Q" horiz-adv-x="767" 
d="M434 -208q-85 0 -123 51.5t-22 141.5l2 11q-105 13 -161.5 82t-56.5 182q0 91 29.5 173.5t83 147t126.5 102t161 37.5q81 0 138.5 -33.5t88 -95.5t30.5 -146q0 -88 -27.5 -169t-78.5 -144.5t-121 -100.5t-156 -38l-2 -8q-13 -76 9 -110.5t84 -34.5q43 0 74 23t43 61
l46 -7q-19 -57 -61.5 -91t-105.5 -34zM345 46q76 0 136 33.5t102.5 90t65.5 128.5t23 149q0 103 -52.5 161t-149.5 58q-77 0 -139 -33.5t-106.5 -91t-68.5 -130t-24 -150.5q0 -103 54.5 -159t158.5 -56z" />
    <glyph glyph-name="R" unicode="R" horiz-adv-x="565" 
d="M542 59l10 -43q-32 -21 -76 -21q-39 0 -67 18.5t-51 62.5l-108 213q-9 18 -27 31.5t-42 13.5h-24l-59 -334h-56l125 710h180q106 0 161 -40.5t55 -115.5q0 -69 -34 -118t-93 -75t-134 -26h-29q13 -8 24 -22.5t22 -36.5l81 -161q23 -44 41 -57.5t48 -13.5q16 0 29 4.5
t24 10.5zM343 662h-129l-49 -282h128q96 0 154 40.5t58 127.5q0 114 -162 114z" />
    <glyph glyph-name="S" unicode="S" horiz-adv-x="558" 
d="M255 -8q-115 0 -173 54.5t-55 163.5l56 7q0 -93 41 -133t135 -40q88 0 139.5 41.5t51.5 115.5q0 37 -18 58.5t-47 34t-64 21.5t-69.5 19.5t-64 28.5t-47 49.5t-17.5 80.5q0 68 32 119t88 79.5t127 28.5q93 0 142.5 -48.5t48.5 -139.5l-52 -8q0 75 -34.5 110t-105.5 35
q-85 0 -136.5 -47.5t-51.5 -124.5q0 -39 17.5 -62.5t47 -37t64 -23t69.5 -19.5t64 -27t47 -46t18 -76q0 -66 -33 -114t-90.5 -74t-129.5 -26z" />
    <glyph glyph-name="T" unicode="T" horiz-adv-x="535" 
d="M611 710l-13 -49h-229l-117 -661h-58l117 661h-234l9 49h525z" />
    <glyph glyph-name="U" unicode="U" horiz-adv-x="713" 
d="M654 710h57l-64 -367q-31 -184 -109.5 -267.5t-220.5 -83.5q-136 0 -193.5 80t-30.5 232l71 406h59l-71 -403q-23 -132 18 -196.5t149 -64.5q79 0 132.5 30t87 95.5t51.5 172.5z" />
    <glyph glyph-name="V" unicode="V" horiz-adv-x="569" 
d="M601 710h61l-396 -710h-74l-96 710h55l87 -662z" />
    <glyph glyph-name="W" unicode="W" horiz-adv-x="917" 
d="M917 710h59l-332 -710h-68l-45 624l-294 -624h-67l-50 710h54l41 -644l303 644h57l46 -645z" />
    <glyph glyph-name="X" unicode="X" horiz-adv-x="566" 
d="M-42 0l316 366l-173 344h61l151 -300l258 300h65l-299 -348l183 -362h-62l-159 318l-273 -318h-68z" />
    <glyph glyph-name="Y" unicode="Y" horiz-adv-x="533" 
d="M636 710l-328 -388l-57 -322h-58l58 324l-191 386h61l166 -336l284 336h65z" />
    <glyph glyph-name="Z" unicode="Z" horiz-adv-x="587" 
d="M-3 0l8 41l544 620h-421l9 49h498l-8 -41l-544 -620h447l-15 -49h-518z" />
    <glyph glyph-name="bracketleft" unicode="[" horiz-adv-x="246" 
d="M6 -200l166 940h142l-8 -42h-88l-151 -856h89l-8 -42h-142z" />
    <glyph glyph-name="backslash" unicode="\" horiz-adv-x="298" 
d="M219 -200h-52l-87 940h52z" />
    <glyph glyph-name="bracketright" unicode="]" horiz-adv-x="245" 
d="M-60 -200l7 42h89l151 856h-89l8 42h141l-166 -940h-141z" />
    <glyph glyph-name="asciicircum" unicode="^" horiz-adv-x="600" 
d="M361 581l145 -457h-51l-122 395l-260 -395h-59l303 457h44z" />
    <glyph glyph-name="underscore" unicode="_" horiz-adv-x="446" 
d="M-20 -47l8 47h383l-9 -47h-382z" />
    <glyph glyph-name="grave" unicode="`" horiz-adv-x="642" 
d="M318 573l-91 159l62 18l81 -177h-52z" />
    <glyph glyph-name="a" unicode="a" horiz-adv-x="567" 
d="M210 -8q-75 0 -117.5 46.5t-42.5 130.5q0 69 21.5 129.5t60 107t90 72.5t113.5 26q42 0 81.5 -15t62.5 -38l17 44h41q-11 -48 -18.5 -86t-13.5 -67l-30 -173q-8 -46 -13 -94.5t-5 -74.5h-54q1 34 5 69t11 73q-36 -73 -91 -111.5t-118 -38.5zM218 43q53 0 99.5 32.5
t79.5 90t46 132.5l19 106q-48 50 -128 50q-68 0 -119 -39.5t-79.5 -104t-28.5 -138.5q0 -62 28.5 -95.5t82.5 -33.5z" />
    <glyph glyph-name="b" unicode="b" horiz-adv-x="567" 
d="M233 -8q-42 0 -81.5 15t-62.5 38l-16 -45h-42q8 33 12.5 56.5t9 45.5t9.5 53l104 589h55l-44 -249l-27 -138q36 72 91 109.5t117 37.5q75 0 117 -46t42 -130q0 -69 -21 -130t-59.5 -107t-90 -72.5t-113.5 -26.5zM234 43q68 0 119 39.5t79.5 103.5t28.5 138q0 63 -28.5 96
t-82.5 33t-100.5 -32.5t-79.5 -89.5t-46 -132l-18 -106q47 -50 128 -50z" />
    <glyph glyph-name="c" unicode="c" horiz-adv-x="485" 
d="M241 -8q-90 0 -139.5 50.5t-49.5 138.5q0 63 19.5 121t56 103.5t88 72t114.5 26.5q64 0 103.5 -26t59.5 -69l-46 -30q-15 36 -44 55t-74 19q-66 0 -116 -37t-78 -98.5t-28 -134.5q0 -66 36 -103t107 -37q43 1 82.5 18.5t70.5 57.5l36 -32q-74 -95 -198 -95z" />
    <glyph glyph-name="d" unicode="d" horiz-adv-x="567" 
d="M210 -8q-75 0 -117.5 46.5t-42.5 130.5q0 69 21.5 129.5t60 107t90 72.5t113.5 26q39 0 76 -13t61 -33l6 37l43 245h55l-101 -571q-8 -46 -13 -94.5t-5 -74.5h-54q1 34 5 69t11 73q-36 -73 -91 -111.5t-118 -38.5zM218 43q53 0 99.5 32.5t79.5 90t46 132.5l19 106
q-48 50 -128 50q-68 0 -119 -39.5t-79.5 -104t-28.5 -138.5q0 -62 28.5 -95.5t82.5 -33.5z" />
    <glyph glyph-name="e" unicode="e" horiz-adv-x="533" 
d="M258 -8q-95 0 -150 50.5t-55 145.5q0 63 19.5 119.5t56 101t87.5 70t115 25.5q79 0 122 -38.5t43 -98.5t-41 -99.5t-134 -43.5l-212 -9q-8 -85 32.5 -128.5t120.5 -43.5q45 0 88 18t75 58l31 -34q-73 -93 -198 -93zM117 264v-2l198 9q73 3 101.5 28.5t28.5 65.5
t-29.5 66.5t-89.5 26.5q-56 0 -99.5 -26.5t-72 -71t-37.5 -96.5z" />
    <glyph glyph-name="f" unicode="f" horiz-adv-x="326" 
d="M54 0l79 448h-101l8 47h102l11 64q16 90 69.5 140.5t133.5 50.5q65 0 98 -33t32 -92l-47 -5q2 83 -88 83q-57 0 -95 -38t-51 -111l-11 -59h178l-8 -47h-177l-79 -448h-54z" />
    <glyph glyph-name="g" unicode="g" horiz-adv-x="571" 
d="M182 -210q-42 0 -84 9t-70 26l19 50q29 -17 65.5 -26t72.5 -9q96 0 147.5 49.5t72.5 161.5l18 95q-37 -72 -92 -109t-118 -37q-75 0 -118.5 44.5t-43.5 128.5q0 68 21.5 128t60 105.5t91 71.5t114.5 26q42 0 82 -15t64 -38l17 44h40q-10 -48 -18 -86t-13 -67l-50 -284
q-25 -140 -89 -204t-189 -64zM218 50q55 0 102 31.5t81 88t47 130.5l18 105q-23 23 -56 36t-74 13q-68 0 -119.5 -39t-80.5 -102t-29 -136q0 -61 29 -94t82 -33z" />
    <glyph glyph-name="h" unicode="h" horiz-adv-x="559" 
d="M35 0l130 740h55l-44 -245l-41 -204q40 105 101 159t138 54q76 0 109.5 -50t12.5 -149l-36 -173q-13 -62 -13 -132h-56q0 63 14 129l35 170q17 81 -3.5 117.5t-78.5 36.5q-59 0 -110 -47t-91.5 -146.5t-67.5 -259.5h-54z" />
    <glyph glyph-name="i" unicode="i" horiz-adv-x="212" 
d="M44 0q0 32 4 64t10 65l34 195q8 44 13.5 86.5t8.5 84.5h55q-3 -42 -9.5 -88.5t-13.5 -84.5l-34 -191q-5 -32 -8.5 -64t-3.5 -67h-56zM172 620q-18 0 -29 12t-11 28t11.5 28t28.5 12q19 0 29.5 -12t10.5 -28t-10.5 -28t-29.5 -12z" />
    <glyph glyph-name="j" unicode="j" horiz-adv-x="227" 
d="M108 324q8 44 13.5 86.5t8.5 84.5h55q-3 -42 -9.5 -88.5t-13.5 -84.5l-60 -336q-17 -97 -67 -148t-138 -51q-27 0 -51.5 5.5t-40.5 15.5l20 46q36 -17 74 -17q123 0 150 153zM188 620q-18 0 -29 12t-11 28t11.5 28t28.5 12q19 0 29.5 -12t10.5 -28t-10.5 -28t-29.5 -12z
" />
    <glyph glyph-name="k" unicode="k" horiz-adv-x="437" 
d="M35 0l131 740h55l-81 -457l254 210h74l-287 -236q19 -13 33 -40l61 -115q18 -35 36.5 -47.5t43.5 -12.5q27 0 49 13l11 -41q-29 -20 -68 -20q-38 0 -65.5 17t-48.5 57l-61 115q-19 36 -41 51l-41 -234h-55z" />
    <glyph glyph-name="l" unicode="l" horiz-adv-x="255" 
d="M147 -8q-52 0 -76.5 32t-16.5 83l112 633h55l-110 -624q-6 -35 5 -55t46 -20q16 0 31 5t25 11l8 -42q-15 -11 -37 -17t-42 -6z" />
    <glyph glyph-name="m" unicode="m" horiz-adv-x="896" 
d="M36 0l57 324q8 44 13.5 86.5t8.5 84.5h54q-3 -39 -10.5 -90.5t-21.5 -109.5q40 103 100 156t133 53q64 0 99 -39t26 -126q42 82 98.5 123.5t121.5 41.5q73 0 106 -50t12 -149l-36 -173q-13 -62 -13 -132h-56q0 63 14 129l35 170q17 81 -3 117.5t-75 36.5q-57 0 -107 -47
t-90 -146.5t-67 -259.5h-54l52 299q15 81 -4.5 117.5t-74.5 36.5q-57 0 -107 -47t-90 -146.5t-67 -259.5h-54z" />
    <glyph glyph-name="n" unicode="n" horiz-adv-x="559" 
d="M35 0l57 324q8 44 14 86.5t9 84.5h53q-2 -39 -9.5 -90.5t-22.5 -109.5q41 103 101.5 156t136.5 53t109.5 -50t12.5 -149l-36 -173q-13 -62 -13 -132h-56q0 63 14 129l35 170q17 81 -3.5 117.5t-78.5 36.5q-59 0 -110 -47t-91.5 -146.5t-67.5 -259.5h-54z" />
    <glyph glyph-name="o" unicode="o" horiz-adv-x="561" 
d="M330 504q82 0 130.5 -49.5t48.5 -138.5q0 -68 -21 -126.5t-58.5 -103t-87 -69.5t-106.5 -25q-86 0 -135 49.5t-49 139.5q0 63 19.5 121t56 103.5t88 72t114.5 26.5zM239 43q63 0 111 38t75.5 100t27.5 133q0 68 -33.5 104t-94.5 36q-64 0 -113.5 -37.5t-77 -99
t-27.5 -134.5q0 -68 34.5 -104t97.5 -36z" />
    <glyph glyph-name="p" unicode="p" horiz-adv-x="567" 
d="M357 504q76 0 118 -46t42 -130q0 -69 -21.5 -130t-59.5 -107t-90 -72.5t-113 -26.5q-40 0 -76.5 13t-61.5 34l-6 -37l-35 -202h-55l93 524q8 44 13.5 86.5t8.5 84.5h54q-3 -37 -7.5 -70t-11.5 -70q36 73 91 111t117 38zM350 453q-54 0 -100.5 -32.5t-79.5 -89.5t-46 -132
l-19 -106q48 -50 128 -50q68 0 119.5 39.5t79.5 103.5t28 138q0 63 -28.5 96t-81.5 33z" />
    <glyph glyph-name="q" unicode="q" horiz-adv-x="567" 
d="M536 496q-7 -33 -12 -56t-9 -45.5t-10 -52.5l-100 -565h-54l39 224l28 138q-37 -71 -91.5 -109t-116.5 -38q-75 0 -117.5 46.5t-42.5 130.5q0 69 21.5 129.5t60 107t90 72.5t113.5 26q42 0 81 -15t63 -38l16 45h41zM218 43q53 0 99.5 32.5t79.5 90t46 132.5l19 106
q-48 50 -128 50q-68 0 -119 -39.5t-79.5 -104t-28.5 -138.5q0 -62 28.5 -95.5t82.5 -33.5z" />
    <glyph glyph-name="r" unicode="r" horiz-adv-x="366" 
d="M378 443q-10 3 -19 4.5t-21 1.5q-87 0 -147.5 -108t-101.5 -341h-54l57 324q7 43 13 86t9 85h54q-3 -37 -10 -85.5t-17 -98.5q43 107 98 150t111 43q13 0 25 -1.5t20 -5.5z" />
    <glyph glyph-name="s" unicode="s" horiz-adv-x="444" 
d="M195 -8q-176 0 -176 148l50 11q0 -59 30 -86t97 -27q58 0 97 26t39 73q0 27 -17.5 42t-46 24t-60 17.5t-59.5 21.5t-46 36.5t-18 63.5q0 50 26 86t69.5 55.5t93.5 19.5q64 0 102.5 -32.5t42.5 -92.5l-48 -12q-5 91 -98 91q-59 0 -96 -30t-37 -78q0 -30 18 -47.5t46 -27.5
t59.5 -18t59.5 -20.5t46 -34.5t18 -59q0 -46 -27 -79.5t-70.5 -52t-94.5 -18.5z" />
    <glyph glyph-name="t" unicode="t" horiz-adv-x="354" 
d="M213 -8q-79 0 -113 46.5t-20 123.5l54 286h-89l8 47h90l19 104h55l-19 -104h176l-9 -47h-176l-55 -291q-10 -55 11 -85t75 -30q25 0 46 6t45 23l14 -43q-22 -19 -51.5 -27.5t-60.5 -8.5z" />
    <glyph glyph-name="u" unicode="u" horiz-adv-x="550" 
d="M181 -8q-71 0 -103 49.5t-15 144.5l26 138q16 89 22 171h55q-3 -42 -9.5 -88.5t-13.5 -84.5l-25 -132q-14 -76 6 -111t76 -35q84 0 153 107t110 344h52l-58 -326q-7 -46 -12.5 -94.5t-5.5 -74.5h-54q1 35 6.5 80t20.5 110q-41 -97 -99.5 -147.5t-131.5 -50.5z" />
    <glyph glyph-name="v" unicode="v" horiz-adv-x="478" 
d="M458 495h58l-283 -495h-73l-76 495h55l65 -450z" />
    <glyph glyph-name="w" unicode="w" horiz-adv-x="825" 
d="M799 495h59l-275 -495h-61l-65 424l-238 -424h-61l-69 495h55l56 -435l242 435h56l63 -436z" />
    <glyph glyph-name="x" unicode="x" horiz-adv-x="468" 
d="M-25 0l228 253l-134 242h62l109 -201l178 201h67l-221 -245l138 -250h-61l-114 208l-185 -208h-67z" />
    <glyph glyph-name="y" unicode="y" horiz-adv-x="555" 
d="M170 -210q-42 0 -83 8.5t-68 25.5l15 50q27 -15 63.5 -24.5t73.5 -9.5q97 0 147.5 49.5t71.5 161.5l28 142q-46 -104 -104.5 -148.5t-122.5 -44.5q-76 0 -110 49.5t-18 138.5l26 136q16 86 22 171h55q-3 -42 -9.5 -88.5t-13.5 -84.5l-24 -125q-13 -71 6.5 -108.5
t76.5 -37.5q56 0 105.5 42t90.5 139.5t70 262.5h52l-77 -436q-25 -143 -90.5 -206t-182.5 -63z" />
    <glyph glyph-name="z" unicode="z" horiz-adv-x="452" 
d="M-1 0l6 37l364 411h-279l9 47h350l-6 -38l-364 -410h289l-8 -47h-361z" />
    <glyph glyph-name="braceleft" unicode="{" horiz-adv-x="315" 
d="M184 -206q-55 3 -95 32t-40 89q0 36 15 70.5t34 67.5t34 62.5t15 55.5q0 35 -25.5 55.5t-74.5 20.5l8 48q60 0 96 30t36 78q0 36 -11 83t-11 91q0 79 51 123t133 48l3 -36q-64 -3 -96.5 -37.5t-32.5 -96.5q0 -42 11 -81.5t11 -79.5q0 -61 -36.5 -98t-93.5 -49
q35 -9 60.5 -34.5t25.5 -68.5q0 -33 -14.5 -63.5t-33.5 -61t-33.5 -63t-14.5 -69.5q0 -40 24.5 -59t64.5 -22z" />
    <glyph glyph-name="bar" unicode="|" horiz-adv-x="243" 
d="M16 -200l166 940h53l-166 -940h-53z" />
    <glyph glyph-name="braceright" unicode="}" horiz-adv-x="315" 
d="M-26 -206l-3 36q64 3 96.5 37.5t32.5 96.5q0 42 -11 81.5t-11 79.5q0 61 36.5 98t92.5 49q-34 9 -59.5 34.5t-25.5 68.5q0 33 14.5 63.5t33.5 61t33.5 63t14.5 69.5q0 40 -24.5 59t-64.5 22l10 35q55 -3 94.5 -32t39.5 -89q0 -36 -14.5 -70.5t-34 -67.5t-34 -62.5
t-14.5 -55.5q0 -35 25 -55.5t75 -20.5l-9 -48q-59 0 -95 -30t-36 -78q0 -36 10.5 -83t10.5 -91q0 -79 -51 -123t-132 -48z" />
    <glyph glyph-name="asciitilde" unicode="~" horiz-adv-x="600" 
d="M403 196q-17 0 -45 8t-60 18t-61.5 18t-50.5 8q-29 0 -52.5 -15t-42.5 -43l-28 28q23 36 57 58.5t77 22.5q18 0 45.5 -7.5t59.5 -18t61.5 -18t50.5 -7.5q29 0 52.5 15t42.5 42l28 -28q-23 -35 -57 -58t-77 -23z" />
    <glyph glyph-name="uni00A0" unicode="&#xa0;" horiz-adv-x="223" 
 />
    <glyph glyph-name="exclamdown" unicode="&#xa1;" horiz-adv-x="170" 
d="M123 420q-18 0 -29.5 11.5t-11.5 29.5q0 17 11.5 29t29.5 12t29.5 -12t11.5 -29t-11.5 -29t-29.5 -12zM-31 -200l115 539h36l-90 -539h-61z" />
    <glyph glyph-name="cent" unicode="&#xa2;" horiz-adv-x="600" 
d="M228 -120l20 114q-76 8 -118 57t-42 130q0 79 31 149.5t87 117t132 55.5l19 112h44l-20 -111q58 -4 94 -29.5t55 -65.5l-46 -30q-16 36 -44.5 55t-73.5 19q-67 0 -117 -37t-77.5 -98.5t-27.5 -134.5q0 -66 35.5 -103t106.5 -37q44 1 83 18.5t71 57.5l35 -32
q-69 -89 -184 -94l-19 -113h-44z" />
    <glyph glyph-name="sterling" unicode="&#xa3;" horiz-adv-x="600" 
d="M46 -11l-18 36q52 26 84 53t47 63.5t15 90.5q0 24 -2.5 50t-5.5 53h-127l7 40h116q-1 16 -2 32.5t-1 32.5q0 129 67 204.5t186 75.5q88 0 138 -47t51 -131l-47 -16q-2 145 -144 145q-100 0 -149 -61.5t-49 -166.5q0 -17 1 -34l2 -34h212l-7 -40h-201q3 -25 5 -48.5
t2 -46.5q0 -51 -16.5 -95.5t-53.5 -72.5q19 6 36 6q37 0 77.5 -10t78 -19.5t65.5 -9.5t51.5 13.5t42.5 43.5l29 -25q-23 -38 -59 -59.5t-78 -21.5q-25 0 -65.5 10t-85.5 20t-84 10q-63 0 -118 -41z" />
    <glyph glyph-name="currency" unicode="&#xa4;" horiz-adv-x="600" 
d="M110 105l-28 29l51 53q-27 33 -42.5 74.5t-15.5 87.5q0 48 15.5 90t43.5 75l-52 55l28 29l52 -56q31 27 71 42.5t84 15.5t83.5 -15t71.5 -42l51 52l29 -29l-51 -53q27 -33 43 -75t16 -89q0 -46 -15.5 -87t-42.5 -74l53 -54l-29 -28l-52 53q-31 -28 -71.5 -44t-85.5 -16
t-85 16t-71 43zM319 143q53 0 98 27.5t71.5 74.5t26.5 104q0 59 -26.5 106t-71.5 74.5t-98 27.5q-56 0 -101 -27.5t-72 -74.5t-27 -106q0 -57 27 -104t72 -74.5t101 -27.5z" />
    <glyph glyph-name="yen" unicode="&#xa5;" horiz-adv-x="600" 
d="M80 176l7 40h179l18 105h-178l7 40h158l-172 349h60l163 -330l279 330h64l-296 -349h158l-7 -40h-178l-19 -105h179l-7 -40h-179l-31 -176h-58l31 176h-178z" />
    <glyph glyph-name="brokenbar" unicode="&#xa6;" horiz-adv-x="243" 
d="M118 380l64 360h53l-64 -360h-53zM16 -200l64 360h53l-64 -360h-53z" />
    <glyph glyph-name="section" unicode="&#xa7;" horiz-adv-x="493" 
d="M204 -10q-73 0 -113.5 32.5t-39.5 92.5l50 11q0 -89 110 -89q52 0 89 27t37 78q0 30 -18.5 47t-47.5 27t-61.5 18t-61.5 19.5t-47.5 32.5t-18.5 57q0 49 30.5 81.5t75.5 46.5q-21 14 -34.5 35.5t-13.5 54.5q0 48 25.5 83.5t68 55.5t95.5 20q72 0 112.5 -33t39.5 -92
l-50 -12q1 89 -109 89q-53 0 -89.5 -27t-36.5 -78q0 -30 18.5 -47t47.5 -26.5t61.5 -17.5t61.5 -19.5t47 -32.5t18 -56q0 -50 -31 -83t-75 -46q21 -15 34.5 -37t13.5 -55q0 -49 -25.5 -84t-68 -54t-94.5 -19zM136 354q0 -30 23.5 -45t59.5 -24t71 -21q44 3 75 27.5t31 64.5
q0 29 -24 44t-60 24t-72 22q-43 -4 -73.5 -28.5t-30.5 -63.5z" />
    <glyph glyph-name="dieresis" unicode="&#xa8;" horiz-adv-x="670" 
d="M436 569q-18 0 -28.5 10.5t-10.5 26.5q0 15 10.5 25.5t28.5 10.5q16 0 26 -10.5t10 -25.5q0 -16 -10 -26.5t-26 -10.5zM274 569q-17 0 -27.5 10.5t-10.5 26.5q0 15 10.5 25.5t27.5 10.5t27 -10.5t10 -25.5q0 -16 -10 -26.5t-27 -10.5z" />
    <glyph glyph-name="copyright" unicode="&#xa9;" horiz-adv-x="805" 
d="M421 -6q-76 0 -141 27t-114 75t-76 113t-27 140q0 76 27 140.5t75.5 112.5t114 75t141.5 27q75 0 140 -27t113.5 -75t76 -112.5t27.5 -140.5q0 -75 -27.5 -140t-76 -113t-113.5 -75t-140 -27zM421 26q68 0 126.5 24t102.5 68t68 103.5t24 128.5t-24 127.5t-68 102.5
t-102.5 68t-126.5 24q-69 0 -128 -24t-102.5 -68t-68 -102.5t-24.5 -127.5t24.5 -128t68.5 -103t102.5 -68.5t127.5 -24.5zM570 229q-21 -39 -59.5 -59.5t-87.5 -20.5q-84 0 -132 51.5t-48 141.5q0 61 24 108t66.5 73.5t99.5 26.5q92 0 138 -75l-37 -27q-31 58 -102 58
q-62 0 -101 -45.5t-39 -117.5t34.5 -111.5t97.5 -39.5q76 0 111 64z" />
    <glyph glyph-name="ordfeminine" unicode="&#xaa;" horiz-adv-x="332" 
d="M325 471h-46l12 60q-19 -30 -45 -47.5t-58 -17.5q-44 0 -69 27t-25 75q0 49 20 90.5t55.5 66.5t80.5 25q31 0 51.5 -13t24.5 -31l13 39h34zM250 710q-35 0 -59.5 -20t-38 -51.5t-13.5 -66.5q0 -66 58 -66q33 0 58.5 22t40 54.5t14.5 65.5q0 29 -16 45.5t-44 16.5z" />
    <glyph glyph-name="guillemotleft" unicode="&#xab;" horiz-adv-x="397" 
d="M129 70l-98 171l5 24l157 171h64l-171 -187l101 -179h-58zM290 70l-98 171l5 24l157 171h64l-171 -187l101 -179h-58z" />
    <glyph glyph-name="logicalnot" unicode="&#xac;" horiz-adv-x="600" 
d="M76 273h458l-48 -273h-51l39 222h-407z" />
    <glyph glyph-name="uni00AD" unicode="&#xad;" horiz-adv-x="383" 
d="M57 228l9 50h263l-9 -50h-263z" />
    <glyph glyph-name="registered" unicode="&#xae;" horiz-adv-x="805" 
d="M421 -6q-76 0 -141.5 27t-114 75.5t-75.5 113t-27 139.5t27 140t75.5 113t113.5 75t142 27q76 0 141 -27t113.5 -75t75.5 -113t27 -140q0 -76 -27.5 -140.5t-76 -112.5t-113.5 -75t-140 -27zM421 26q68 0 126.5 24.5t102.5 68.5t68 103t24 128t-24 127.5t-68 102.5
t-102.5 68t-126.5 24q-69 0 -128 -24t-102.5 -68t-68 -102.5t-24.5 -127.5t24.5 -128t68.5 -103t102.5 -68.5t127.5 -24.5zM551 152q-33 0 -56 18t-39.5 44.5t-32 53t-34 44.5t-45.5 18v-174h-46v391h117q57 0 91 -29.5t34 -79.5q0 -45 -34 -76t-89 -31h-2
q21 -11 37.5 -33.5t31.5 -46.5t32.5 -41t40.5 -17q15 0 33 8l10 -35q-19 -14 -49 -14zM411 510h-67v-147h48q100 0 100 74q0 34 -22.5 53.5t-58.5 19.5z" />
    <glyph glyph-name="macron" unicode="&#xaf;" horiz-adv-x="626" 
d="M195 642h294l-7 -40h-294z" />
    <glyph glyph-name="degree" unicode="&#xb0;" horiz-adv-x="358" 
d="M239 438q-39 0 -70 18t-49.5 50t-18.5 72q0 39 18.5 70.5t49.5 50t70 18.5q38 0 69 -18.5t49 -50t18 -70.5q0 -40 -18 -72t-49 -50t-69 -18zM239 475q43 0 70 28.5t27 73.5t-27 74t-70 29q-45 0 -72 -29t-27 -74t27 -73.5t72 -28.5z" />
    <glyph glyph-name="plusminus" unicode="&#xb1;" horiz-adv-x="600" 
d="M319 495h49l-29 -163h169l-8 -50h-169l-29 -164h-50l29 164h-168l8 50h169zM28 0l8 49h458l-9 -49h-457z" />
    <glyph glyph-name="uni00B2" unicode="&#xb2;" horiz-adv-x="330" 
d="M70 350q59 42 111.5 87.5t85 91.5t32.5 90q0 26 -15.5 41t-45.5 15q-33 0 -58 -19t-41 -53l-35 16q17 42 54.5 69t85.5 27q45 0 73.5 -23.5t28.5 -68.5q0 -65 -58 -132.5t-152 -134.5h175l-6 -37h-240z" />
    <glyph glyph-name="uni00B3" unicode="&#xb3;" horiz-adv-x="330" 
d="M167 314q-31 0 -60.5 8t-45.5 19l17 40q17 -12 42 -19t51 -7q46 0 75.5 24t29.5 65q0 59 -84 59h-30l7 36h30q46 0 74 23.5t28 61.5q0 24 -15.5 37.5t-42.5 13.5q-62 0 -98 -64l-33 20q20 39 57 61.5t81 22.5q45 0 71.5 -23t26.5 -61t-24 -68t-59 -43q28 -8 42.5 -28.5
t14.5 -48.5q0 -38 -21 -67t-55.5 -45.5t-78.5 -16.5z" />
    <glyph glyph-name="acute" unicode="&#xb4;" horiz-adv-x="642" 
d="M317 573l144 177l57 -18l-147 -159h-54z" />
    <glyph glyph-name="uni00B5" unicode="&#xb5;" horiz-adv-x="550" 
d="M463 495h52l-88 -495h-53l37 182q-44 -102 -100.5 -146t-118.5 -44q-35 0 -61 12.5t-40 43.5l-43 -248h-52l123 695h56l-57 -305q-27 -146 84 -146q40 0 77 22t70 73t62 138.5t52 217.5z" />
    <glyph glyph-name="paragraph" unicode="&#xb6;" horiz-adv-x="584" 
d="M72 470q0 79 38 133t105.5 81t156.5 27h79l-125 -711h-56l53 297h-25q-108 0 -167 46.5t-59 126.5zM524 710h56l-125 -710h-56z" />
    <glyph glyph-name="periodcentered" unicode="&#xb7;" horiz-adv-x="165" 
d="M87 227q-18 0 -30 12.5t-12 29.5q0 19 12 31.5t30 12.5q20 0 31 -12.5t11 -31.5q0 -17 -11 -29.5t-31 -12.5z" />
    <glyph glyph-name="cedilla" unicode="&#xb8;" horiz-adv-x="618" 
d="M151 -223q-30 0 -50 6t-38 17l18 34q17 -10 34 -15t38 -5q30 0 49.5 14.5t19.5 39.5q0 37 -56 37h-36l77 113h46l-53 -78q32 -5 50.5 -22.5t18.5 -45.5q0 -44 -35.5 -69.5t-82.5 -25.5z" />
    <glyph glyph-name="uni00B9" unicode="&#xb9;" horiz-adv-x="330" 
d="M85 356h88l51 287l-81 -48l-18 35l131 80h25l-62 -354h85l-6 -37h-219z" />
    <glyph glyph-name="ordmasculine" unicode="&#xba;" horiz-adv-x="326" 
d="M202 466q-51 0 -79 29.5t-28 78.5q0 47 20.5 87t56 64.5t80.5 24.5q51 0 78.5 -29.5t27.5 -78.5q0 -46 -20.5 -86t-55.5 -65t-80 -25zM205 506q34 0 58.5 20t37.5 50.5t13 63.5q0 34 -17.5 52t-47.5 18q-33 0 -57.5 -19.5t-38.5 -50t-14 -64.5t17.5 -52t48.5 -18z" />
    <glyph glyph-name="guillemotright" unicode="&#xbb;" horiz-adv-x="397" 
d="M110 436l97 -171l-4 -24l-157 -171h-65l171 187l-101 179h59zM271 436l97 -171l-4 -24l-157 -171h-65l171 187l-101 179h59z" />
    <glyph glyph-name="onequarter" unicode="&#xbc;" horiz-adv-x="790" 
d="M85 356h88l51 287l-81 -48l-18 35l131 80h25l-62 -354h85l-6 -37h-219zM196 0l350 710h48l-350 -710h-48zM744 112h-53l-20 -112h-42l20 112h-183l5 28l237 252h33l-44 -246h52zM520 146h135l31 174z" />
    <glyph glyph-name="onehalf" unicode="&#xbd;" horiz-adv-x="790" 
d="M85 356h88l51 287l-81 -48l-18 35l131 80h25l-62 -354h85l-6 -37h-219zM196 0l350 710h48l-350 -710h-48zM474 31q59 42 111.5 87.5t85 91.5t32.5 90q0 26 -15.5 41t-45.5 15q-33 0 -58 -19t-41 -53l-35 16q17 42 54.5 69t85.5 27q45 0 73.5 -23.5t28.5 -68.5
q0 -65 -58 -132.5t-152 -134.5h175l-6 -37h-240z" />
    <glyph glyph-name="threequarters" unicode="&#xbe;" horiz-adv-x="790" 
d="M167 314q-31 0 -60.5 8t-45.5 19l17 40q17 -12 42 -19t51 -7q46 0 75.5 24t29.5 65q0 59 -84 59h-30l7 36h30q46 0 74 23.5t28 61.5q0 24 -15.5 37.5t-42.5 13.5q-62 0 -98 -64l-33 20q20 39 57 61.5t81 22.5q45 0 71.5 -23t26.5 -61t-24 -68t-59 -43q28 -8 42.5 -28.5
t14.5 -48.5q0 -38 -21 -67t-55.5 -45.5t-78.5 -16.5zM196 0l350 710h48l-350 -710h-48zM744 112h-53l-20 -112h-42l20 112h-183l5 28l237 252h33l-44 -246h52zM520 146h135l31 174z" />
    <glyph glyph-name="questiondown" unicode="&#xbf;" horiz-adv-x="511" 
d="M346 420q-18 0 -29.5 11.5t-11.5 29.5q0 17 11.5 29t29.5 12t29.5 -12t11.5 -29q0 -18 -12 -29.5t-29 -11.5zM186 -212q-75 0 -123 36.5t-48 104.5q0 49 20 87.5t57.5 73.5t91.5 74q55 40 84.5 81t42.5 96l41 -2q-11 -67 -42.5 -116t-101.5 -101q-48 -36 -78 -64.5
t-44 -57.5t-14 -65q0 -47 33 -71.5t88 -24.5q67 0 118.5 35.5t87.5 108.5l44 -19q-35 -83 -103.5 -129.5t-153.5 -46.5z" />
    <glyph glyph-name="Agrave" unicode="&#xc0;" horiz-adv-x="668" 
d="M-23 0l418 710h51l154 -710h-56l-41 200h-348l-116 -200h-62zM184 249h308l-81 391zM405 788l-91 159l62 18l81 -177h-52z" />
    <glyph glyph-name="Aacute" unicode="&#xc1;" horiz-adv-x="668" 
d="M-23 0l418 710h51l154 -710h-56l-41 200h-348l-116 -200h-62zM184 249h308l-81 391zM401 788l144 177l57 -18l-147 -159h-54z" />
    <glyph glyph-name="Acircumflex" unicode="&#xc2;" horiz-adv-x="668" 
d="M-23 0l418 710h51l154 -710h-56l-41 200h-348l-116 -200h-62zM184 249h308l-81 391zM579 788h-51l-71 128l-118 -128h-57l155 167h47z" />
    <glyph glyph-name="Atilde" unicode="&#xc3;" horiz-adv-x="668" 
d="M-23 0l418 710h51l154 -710h-56l-41 200h-348l-116 -200h-62zM184 249h308l-81 391zM514 785q-19 0 -39.5 9.5t-41 22.5t-39.5 22.5t-36 9.5q-21 0 -39 -17t-29 -46l-28 17q15 42 42 65.5t61 23.5q19 0 39 -9.5t41 -22.5t40 -22.5t36 -9.5q21 0 39 17t30 46l28 -17
q-15 -42 -42.5 -65.5t-61.5 -23.5z" />
    <glyph glyph-name="Adieresis" unicode="&#xc4;" horiz-adv-x="668" 
d="M-23 0l418 710h51l154 -710h-56l-41 200h-348l-116 -200h-62zM184 249h308l-81 391zM518 784q-18 0 -28.5 10.5t-10.5 26.5t10.5 26t28.5 10q16 0 26 -10t10 -26t-10 -26.5t-26 -10.5zM356 784q-17 0 -27.5 10.5t-10.5 26.5t10.5 26t27.5 10t27 -10t10 -26t-10 -26.5
t-27 -10.5z" />
    <glyph glyph-name="Aring" unicode="&#xc5;" horiz-adv-x="668" 
d="M-23 0l418 710h51l154 -710h-56l-41 200h-348l-116 -200h-62zM184 249h308l-81 391zM446 783q-42 0 -70.5 27.5t-28.5 69.5t30 70.5t73 28.5t70.5 -27t27.5 -68q0 -43 -29 -72t-73 -29zM447 816q29 0 47 18.5t18 49.5q0 28 -17.5 45t-45.5 17q-30 0 -48 -19t-18 -47
q0 -29 18 -46.5t46 -17.5z" />
    <glyph glyph-name="AE" unicode="&#xc6;" horiz-adv-x="883" 
d="M-23 0l418 710h517l-9 -49h-327l-49 -275h321l-8 -49h-321l-51 -288h343l-15 -49h-393l35 201h-283l-116 -201h-62zM183 249h264l72 412h-97z" />
    <glyph glyph-name="Ccedilla" unicode="&#xc7;" horiz-adv-x="641" 
d="M615 135q-49 -72 -120 -107.5t-153 -35.5q-129 0 -199 71t-70 197q0 92 29.5 175t82.5 147t126 101t160 37q80 0 138.5 -33.5t84.5 -98.5l-48 -31q-23 54 -66 81.5t-112 27.5q-76 0 -138 -33t-106 -89.5t-68 -129.5t-24 -153q0 -103 54.5 -159t158.5 -56q72 0 129.5 30
t100.5 92zM280 -223q-30 0 -50 6t-38 17l18 34q17 -10 34 -15t38 -5q30 0 49.5 14.5t19.5 39.5q0 37 -56 37h-36l77 113h46l-53 -78q32 -5 50.5 -22.5t18.5 -45.5q0 -44 -35.5 -69.5t-82.5 -25.5z" />
    <glyph glyph-name="Egrave" unicode="&#xc8;" horiz-adv-x="533" 
d="M107 49h353l-15 -49h-403l125 710h395l-9 -49h-338l-49 -275h332l-9 -49h-331zM352 788l-91 159l62 18l81 -177h-52z" />
    <glyph glyph-name="Eacute" unicode="&#xc9;" horiz-adv-x="533" 
d="M107 49h353l-15 -49h-403l125 710h395l-9 -49h-338l-49 -275h332l-9 -49h-331zM349 788l144 177l57 -18l-147 -159h-54z" />
    <glyph glyph-name="Ecircumflex" unicode="&#xca;" horiz-adv-x="533" 
d="M107 49h353l-15 -49h-403l125 710h395l-9 -49h-338l-49 -275h332l-9 -49h-331zM527 788h-51l-71 128l-118 -128h-57l155 167h47z" />
    <glyph glyph-name="Edieresis" unicode="&#xcb;" horiz-adv-x="533" 
d="M107 49h353l-15 -49h-403l125 710h395l-9 -49h-338l-49 -275h332l-9 -49h-331zM466 784q-18 0 -28.5 10.5t-10.5 26.5t10.5 26t28.5 10q16 0 26 -10t10 -26t-10 -26.5t-26 -10.5zM304 784q-17 0 -27.5 10.5t-10.5 26.5t10.5 26t27.5 10t27 -10t10 -26t-10 -26.5
t-27 -10.5z" />
    <glyph glyph-name="Igrave" unicode="&#xcc;" horiz-adv-x="228" 
d="M42 0l125 710h57l-125 -710h-57zM184 788l-91 159l62 18l81 -177h-52z" />
    <glyph glyph-name="Iacute" unicode="&#xcd;" horiz-adv-x="228" 
d="M42 0l125 710h57l-125 -710h-57zM180 788l144 177l57 -18l-147 -159h-54z" />
    <glyph glyph-name="Icircumflex" unicode="&#xce;" horiz-adv-x="228" 
d="M42 0l125 710h57l-125 -710h-57zM358 788h-51l-71 128l-118 -128h-57l155 167h47z" />
    <glyph glyph-name="Idieresis" unicode="&#xcf;" horiz-adv-x="228" 
d="M42 0l125 710h57l-125 -710h-57zM297 784q-18 0 -28.5 10.5t-10.5 26.5t10.5 26t28.5 10q16 0 26 -10t10 -26t-10 -26.5t-26 -10.5zM135 784q-17 0 -27.5 10.5t-10.5 26.5t10.5 26t27.5 10t27 -10t10 -26t-10 -26.5t-27 -10.5z" />
    <glyph glyph-name="Eth" unicode="&#xd0;" horiz-adv-x="727" 
d="M42 0l125 710h166q175 0 266 -68.5t91 -206.5q0 -132 -54.5 -230t-153 -151.5t-231.5 -53.5h-209zM109 50h143q119 0 204 47.5t130.5 134t45.5 202.5q0 113 -73.5 169.5t-225.5 56.5h-117zM21 338l8 44h359l-9 -44h-358z" />
    <glyph glyph-name="Ntilde" unicode="&#xd1;" horiz-adv-x="709" 
d="M650 710h55l-125 -710h-48l-328 617l-108 -617h-54l125 710h48l327 -617zM534 785q-19 0 -39.5 9.5t-41 22.5t-39.5 22.5t-36 9.5q-21 0 -39 -17t-29 -46l-28 17q15 42 42 65.5t61 23.5q19 0 39 -9.5t41 -22.5t40 -22.5t36 -9.5q21 0 39 17t30 46l28 -17
q-15 -42 -42.5 -65.5t-61.5 -23.5z" />
    <glyph glyph-name="Ograve" unicode="&#xd2;" horiz-adv-x="767" 
d="M341 -8q-128 0 -198 71t-70 197q0 91 29.5 173.5t83 147t126.5 102t161 37.5q81 0 138.5 -33.5t88 -95.5t30.5 -146q0 -89 -28 -170.5t-79.5 -145t-123 -100.5t-158.5 -37zM345 46q76 0 136 33.5t102.5 90t65.5 128.5t23 149q0 103 -52.5 161t-149.5 58q-77 0 -139 -33.5
t-106.5 -91t-68.5 -130t-24 -150.5q0 -103 54.5 -159t158.5 -56zM452 788l-91 159l62 18l81 -177h-52z" />
    <glyph glyph-name="Oacute" unicode="&#xd3;" horiz-adv-x="767" 
d="M341 -8q-128 0 -198 71t-70 197q0 91 29.5 173.5t83 147t126.5 102t161 37.5q81 0 138.5 -33.5t88 -95.5t30.5 -146q0 -89 -28 -170.5t-79.5 -145t-123 -100.5t-158.5 -37zM345 46q76 0 136 33.5t102.5 90t65.5 128.5t23 149q0 103 -52.5 161t-149.5 58q-77 0 -139 -33.5
t-106.5 -91t-68.5 -130t-24 -150.5q0 -103 54.5 -159t158.5 -56zM448 788l144 177l57 -18l-147 -159h-54z" />
    <glyph glyph-name="Ocircumflex" unicode="&#xd4;" horiz-adv-x="767" 
d="M341 -8q-128 0 -198 71t-70 197q0 91 29.5 173.5t83 147t126.5 102t161 37.5q81 0 138.5 -33.5t88 -95.5t30.5 -146q0 -89 -28 -170.5t-79.5 -145t-123 -100.5t-158.5 -37zM345 46q76 0 136 33.5t102.5 90t65.5 128.5t23 149q0 103 -52.5 161t-149.5 58q-77 0 -139 -33.5
t-106.5 -91t-68.5 -130t-24 -150.5q0 -103 54.5 -159t158.5 -56zM626 788h-51l-71 128l-118 -128h-57l155 167h47z" />
    <glyph glyph-name="Otilde" unicode="&#xd5;" horiz-adv-x="767" 
d="M341 -8q-128 0 -198 71t-70 197q0 91 29.5 173.5t83 147t126.5 102t161 37.5q81 0 138.5 -33.5t88 -95.5t30.5 -146q0 -89 -28 -170.5t-79.5 -145t-123 -100.5t-158.5 -37zM345 46q76 0 136 33.5t102.5 90t65.5 128.5t23 149q0 103 -52.5 161t-149.5 58q-77 0 -139 -33.5
t-106.5 -91t-68.5 -130t-24 -150.5q0 -103 54.5 -159t158.5 -56zM561 785q-19 0 -39.5 9.5t-41 22.5t-39.5 22.5t-36 9.5q-21 0 -39 -17t-29 -46l-28 17q15 42 42 65.5t61 23.5q19 0 39 -9.5t41 -22.5t40 -22.5t36 -9.5q21 0 39 17t30 46l28 -17q-15 -42 -42.5 -65.5
t-61.5 -23.5z" />
    <glyph glyph-name="Odieresis" unicode="&#xd6;" horiz-adv-x="767" 
d="M341 -8q-128 0 -198 71t-70 197q0 91 29.5 173.5t83 147t126.5 102t161 37.5q81 0 138.5 -33.5t88 -95.5t30.5 -146q0 -89 -28 -170.5t-79.5 -145t-123 -100.5t-158.5 -37zM345 46q76 0 136 33.5t102.5 90t65.5 128.5t23 149q0 103 -52.5 161t-149.5 58q-77 0 -139 -33.5
t-106.5 -91t-68.5 -130t-24 -150.5q0 -103 54.5 -159t158.5 -56zM565 784q-18 0 -28.5 10.5t-10.5 26.5t10.5 26t28.5 10q16 0 26 -10t10 -26t-10 -26.5t-26 -10.5zM403 784q-17 0 -27.5 10.5t-10.5 26.5t10.5 26t27.5 10t27 -10t10 -26t-10 -26.5t-27 -10.5z" />
    <glyph glyph-name="multiply" unicode="&#xd7;" horiz-adv-x="600" 
d="M156 67l-36 36l144 144l-144 144l36 36l144 -144l144 144l36 -36l-144 -144l144 -144l-36 -36l-144 144z" />
    <glyph glyph-name="Oslash" unicode="&#xd8;" horiz-adv-x="767" 
d="M341 -8q-128 0 -198 71t-70 197q0 91 29.5 173.5t83 147t126.5 102t161 37.5q81 0 138.5 -33.5t88 -95.5t30.5 -146q0 -89 -28 -170.5t-79.5 -145t-123 -100.5t-158.5 -37zM345 46q76 0 136 33.5t102.5 90t65.5 128.5t23 149q0 103 -52.5 161t-149.5 58q-77 0 -139 -33.5
t-106.5 -91t-68.5 -130t-24 -150.5q0 -103 54.5 -159t158.5 -56zM113 21l-34 32l612 636l34 -32z" />
    <glyph glyph-name="Ugrave" unicode="&#xd9;" horiz-adv-x="713" 
d="M654 710h57l-64 -367q-31 -184 -109.5 -267.5t-220.5 -83.5q-136 0 -193.5 80t-30.5 232l71 406h59l-71 -403q-23 -132 18 -196.5t149 -64.5q79 0 132.5 30t87 95.5t51.5 172.5zM427 788l-91 159l62 18l81 -177h-52z" />
    <glyph glyph-name="Uacute" unicode="&#xda;" horiz-adv-x="713" 
d="M654 710h57l-64 -367q-31 -184 -109.5 -267.5t-220.5 -83.5q-136 0 -193.5 80t-30.5 232l71 406h59l-71 -403q-23 -132 18 -196.5t149 -64.5q79 0 132.5 30t87 95.5t51.5 172.5zM423 788l144 177l57 -18l-147 -159h-54z" />
    <glyph glyph-name="Ucircumflex" unicode="&#xdb;" horiz-adv-x="713" 
d="M654 710h57l-64 -367q-31 -184 -109.5 -267.5t-220.5 -83.5q-136 0 -193.5 80t-30.5 232l71 406h59l-71 -403q-23 -132 18 -196.5t149 -64.5q79 0 132.5 30t87 95.5t51.5 172.5zM601 788h-51l-71 128l-118 -128h-57l155 167h47z" />
    <glyph glyph-name="Udieresis" unicode="&#xdc;" horiz-adv-x="713" 
d="M654 710h57l-64 -367q-31 -184 -109.5 -267.5t-220.5 -83.5q-136 0 -193.5 80t-30.5 232l71 406h59l-71 -403q-23 -132 18 -196.5t149 -64.5q79 0 132.5 30t87 95.5t51.5 172.5zM540 784q-18 0 -28.5 10.5t-10.5 26.5t10.5 26t28.5 10q16 0 26 -10t10 -26t-10 -26.5
t-26 -10.5zM378 784q-17 0 -27.5 10.5t-10.5 26.5t10.5 26t27.5 10t27 -10t10 -26t-10 -26.5t-27 -10.5z" />
    <glyph glyph-name="Yacute" unicode="&#xdd;" horiz-adv-x="533" 
d="M636 710l-328 -388l-57 -322h-58l58 324l-191 386h61l166 -336l284 336h65zM334 788l144 177l57 -18l-147 -159h-54z" />
    <glyph glyph-name="Thorn" unicode="&#xde;" horiz-adv-x="596" 
d="M42 0l125 711l56 -1l-22 -122h157q110 0 170 -43.5t60 -126.5t-39 -137.5t-108.5 -81.5t-162.5 -27h-149l-31 -172h-56zM351 540h-158l-56 -319h144q76 0 132.5 19t87 62t30.5 114q0 64 -45.5 94t-134.5 30z" />
    <glyph glyph-name="germandbls" unicode="&#xdf;" horiz-adv-x="624" 
d="M394 -8q-85 0 -131 40.5t-40 109.5l51 11q-5 -54 26.5 -84t92.5 -30q62 0 97.5 25t35.5 69q0 28 -17 45t-43.5 28.5t-56.5 22.5t-56.5 26t-43.5 37.5t-17 58.5q0 44 21.5 74.5t53.5 53.5t64 45t54 48.5t22 64.5q0 31 -26.5 49t-73.5 18q-85 0 -139.5 -54t-72.5 -156
l-87 -494h-54l79 448h-101l8 46h101q23 122 92.5 189t174.5 67q68 0 107.5 -29.5t39.5 -80.5q0 -45 -21.5 -76t-52.5 -54.5t-62.5 -44.5t-53 -46t-21.5 -58q0 -28 17 -45t44 -29t57 -23.5t57 -26t44 -37.5t17 -59q0 -66 -51.5 -107.5t-134.5 -41.5z" />
    <glyph glyph-name="agrave" unicode="&#xe0;" horiz-adv-x="567" 
d="M210 -8q-75 0 -117.5 46.5t-42.5 130.5q0 69 21.5 129.5t60 107t90 72.5t113.5 26q42 0 81.5 -15t62.5 -38l17 44h41q-11 -48 -18.5 -86t-13.5 -67l-30 -173q-8 -46 -13 -94.5t-5 -74.5h-54q1 34 5 69t11 73q-36 -73 -91 -111.5t-118 -38.5zM218 43q53 0 99.5 32.5
t79.5 90t46 132.5l19 106q-48 50 -128 50q-68 0 -119 -39.5t-79.5 -104t-28.5 -138.5q0 -62 28.5 -95.5t82.5 -33.5zM338 573l-91 159l62 18l81 -177h-52z" />
    <glyph glyph-name="aacute" unicode="&#xe1;" horiz-adv-x="567" 
d="M210 -8q-75 0 -117.5 46.5t-42.5 130.5q0 69 21.5 129.5t60 107t90 72.5t113.5 26q42 0 81.5 -15t62.5 -38l17 44h41q-11 -48 -18.5 -86t-13.5 -67l-30 -173q-8 -46 -13 -94.5t-5 -74.5h-54q1 34 5 69t11 73q-36 -73 -91 -111.5t-118 -38.5zM218 43q53 0 99.5 32.5
t79.5 90t46 132.5l19 106q-48 50 -128 50q-68 0 -119 -39.5t-79.5 -104t-28.5 -138.5q0 -62 28.5 -95.5t82.5 -33.5zM335 573l144 177l57 -18l-147 -159h-54z" />
    <glyph glyph-name="acircumflex" unicode="&#xe2;" horiz-adv-x="567" 
d="M210 -8q-75 0 -117.5 46.5t-42.5 130.5q0 69 21.5 129.5t60 107t90 72.5t113.5 26q42 0 81.5 -15t62.5 -38l17 44h41q-11 -48 -18.5 -86t-13.5 -67l-30 -173q-8 -46 -13 -94.5t-5 -74.5h-54q1 34 5 69t11 73q-36 -73 -91 -111.5t-118 -38.5zM218 43q53 0 99.5 32.5
t79.5 90t46 132.5l19 106q-48 50 -128 50q-68 0 -119 -39.5t-79.5 -104t-28.5 -138.5q0 -62 28.5 -95.5t82.5 -33.5zM513 573h-51l-71 128l-118 -128h-57l155 167h47z" />
    <glyph glyph-name="atilde" unicode="&#xe3;" horiz-adv-x="567" 
d="M210 -8q-75 0 -117.5 46.5t-42.5 130.5q0 69 21.5 129.5t60 107t90 72.5t113.5 26q42 0 81.5 -15t62.5 -38l17 44h41q-11 -48 -18.5 -86t-13.5 -67l-30 -173q-8 -46 -13 -94.5t-5 -74.5h-54q1 34 5 69t11 73q-36 -73 -91 -111.5t-118 -38.5zM218 43q53 0 99.5 32.5
t79.5 90t46 132.5l19 106q-48 50 -128 50q-68 0 -119 -39.5t-79.5 -104t-28.5 -138.5q0 -62 28.5 -95.5t82.5 -33.5zM448 569q-19 0 -39.5 10t-41 22.5t-39.5 22t-36 9.5q-21 0 -39 -17t-29 -45l-28 17q15 41 42 65t61 24q19 0 39 -10t41 -22.5t40 -22.5t36 -10
q21 0 39 17.5t30 46.5l28 -18q-15 -42 -42.5 -65.5t-61.5 -23.5z" />
    <glyph glyph-name="adieresis" unicode="&#xe4;" horiz-adv-x="567" 
d="M210 -8q-75 0 -117.5 46.5t-42.5 130.5q0 69 21.5 129.5t60 107t90 72.5t113.5 26q42 0 81.5 -15t62.5 -38l17 44h41q-11 -48 -18.5 -86t-13.5 -67l-30 -173q-8 -46 -13 -94.5t-5 -74.5h-54q1 34 5 69t11 73q-36 -73 -91 -111.5t-118 -38.5zM218 43q53 0 99.5 32.5
t79.5 90t46 132.5l19 106q-48 50 -128 50q-68 0 -119 -39.5t-79.5 -104t-28.5 -138.5q0 -62 28.5 -95.5t82.5 -33.5zM452 569q-18 0 -28.5 10.5t-10.5 26.5q0 15 10.5 25.5t28.5 10.5q16 0 26 -10.5t10 -25.5q0 -16 -10 -26.5t-26 -10.5zM290 569q-17 0 -27.5 10.5
t-10.5 26.5q0 15 10.5 25.5t27.5 10.5t27 -10.5t10 -25.5q0 -16 -10 -26.5t-27 -10.5z" />
    <glyph glyph-name="aring" unicode="&#xe5;" horiz-adv-x="567" 
d="M210 -8q-75 0 -117.5 46.5t-42.5 130.5q0 69 21.5 129.5t60 107t90 72.5t113.5 26q42 0 81.5 -15t62.5 -38l17 44h41q-11 -48 -18.5 -86t-13.5 -67l-30 -173q-8 -46 -13 -94.5t-5 -74.5h-54q1 34 5 69t11 73q-36 -73 -91 -111.5t-118 -38.5zM218 43q53 0 99.5 32.5
t79.5 90t46 132.5l19 106q-48 50 -128 50q-68 0 -119 -39.5t-79.5 -104t-28.5 -138.5q0 -62 28.5 -95.5t82.5 -33.5zM380 568q-42 0 -70.5 27.5t-28.5 68.5q0 42 30 70.5t73 28.5t70.5 -27t27.5 -68q0 -43 -29 -71.5t-73 -28.5zM381 601q29 0 47 18.5t18 48.5q0 29 -17.5 46
t-45.5 17q-30 0 -48 -19t-18 -48q0 -28 18 -45.5t46 -17.5z" />
    <glyph glyph-name="ae" unicode="&#xe6;" horiz-adv-x="866" 
d="M186 -8q-73 0 -115 33.5t-42 90.5q0 74 56 115.5t145 41.5h169l6 33q12 73 -13.5 111t-93.5 38q-63 0 -106 -31.5t-62 -89.5l-50 9q23 74 83 117.5t142 43.5q67 0 106 -31t46 -86q36 55 91.5 86t118.5 31q79 0 121 -38.5t42 -98.5t-40.5 -99.5t-124.5 -39.5h-217
q-13 -92 28 -138.5t122 -46.5q43 0 86 18t74 58l32 -34q-37 -47 -87 -70t-110 -23q-81 0 -128.5 37t-60.5 96q-33 -61 -91.5 -97t-126.5 -36zM661 458q-53 0 -95 -25t-70.5 -67.5t-38.5 -92.5h204q60 0 89 25t29 67q0 40 -29.5 66.5t-88.5 26.5zM192 40q50 0 91.5 22.5
t69 62.5t36.5 92l2 10h-163q-65 0 -103.5 -27.5t-38.5 -78.5q0 -39 28 -60t78 -21z" />
    <glyph glyph-name="ccedilla" unicode="&#xe7;" horiz-adv-x="485" 
d="M241 -8q-90 0 -139.5 50.5t-49.5 138.5q0 63 19.5 121t56 103.5t88 72t114.5 26.5q64 0 103.5 -26t59.5 -69l-46 -30q-15 36 -44 55t-74 19q-66 0 -116 -37t-78 -98.5t-28 -134.5q0 -66 36 -103t107 -37q43 1 82.5 18.5t70.5 57.5l36 -32q-74 -95 -198 -95zM176 -223
q-30 0 -50 6t-38 17l18 34q17 -10 34 -15t38 -5q30 0 49.5 14.5t19.5 39.5q0 37 -56 37h-36l77 113h46l-53 -78q32 -5 50.5 -22.5t18.5 -45.5q0 -44 -35.5 -69.5t-82.5 -25.5z" />
    <glyph glyph-name="egrave" unicode="&#xe8;" horiz-adv-x="533" 
d="M258 -8q-95 0 -150 50.5t-55 145.5q0 63 19.5 119.5t56 101t87.5 70t115 25.5q79 0 122 -38.5t43 -98.5t-41 -99.5t-134 -43.5l-212 -9q-8 -85 32.5 -128.5t120.5 -43.5q45 0 88 18t75 58l31 -34q-73 -93 -198 -93zM117 264v-2l198 9q73 3 101.5 28.5t28.5 65.5
t-29.5 66.5t-89.5 26.5q-56 0 -99.5 -26.5t-72 -71t-37.5 -96.5zM320 573l-91 159l62 18l81 -177h-52z" />
    <glyph glyph-name="eacute" unicode="&#xe9;" horiz-adv-x="533" 
d="M258 -8q-95 0 -150 50.5t-55 145.5q0 63 19.5 119.5t56 101t87.5 70t115 25.5q79 0 122 -38.5t43 -98.5t-41 -99.5t-134 -43.5l-212 -9q-8 -85 32.5 -128.5t120.5 -43.5q45 0 88 18t75 58l31 -34q-73 -93 -198 -93zM117 264v-2l198 9q73 3 101.5 28.5t28.5 65.5
t-29.5 66.5t-89.5 26.5q-56 0 -99.5 -26.5t-72 -71t-37.5 -96.5zM316 573l144 177l57 -18l-147 -159h-54z" />
    <glyph glyph-name="ecircumflex" unicode="&#xea;" horiz-adv-x="533" 
d="M258 -8q-95 0 -150 50.5t-55 145.5q0 63 19.5 119.5t56 101t87.5 70t115 25.5q79 0 122 -38.5t43 -98.5t-41 -99.5t-134 -43.5l-212 -9q-8 -85 32.5 -128.5t120.5 -43.5q45 0 88 18t75 58l31 -34q-73 -93 -198 -93zM117 264v-2l198 9q73 3 101.5 28.5t28.5 65.5
t-29.5 66.5t-89.5 26.5q-56 0 -99.5 -26.5t-72 -71t-37.5 -96.5zM494 573h-51l-71 128l-118 -128h-57l155 167h47z" />
    <glyph glyph-name="edieresis" unicode="&#xeb;" horiz-adv-x="533" 
d="M258 -8q-95 0 -150 50.5t-55 145.5q0 63 19.5 119.5t56 101t87.5 70t115 25.5q79 0 122 -38.5t43 -98.5t-41 -99.5t-134 -43.5l-212 -9q-8 -85 32.5 -128.5t120.5 -43.5q45 0 88 18t75 58l31 -34q-73 -93 -198 -93zM117 264v-2l198 9q73 3 101.5 28.5t28.5 65.5
t-29.5 66.5t-89.5 26.5q-56 0 -99.5 -26.5t-72 -71t-37.5 -96.5zM433 569q-18 0 -28.5 10.5t-10.5 26.5q0 15 10.5 25.5t28.5 10.5q16 0 26 -10.5t10 -25.5q0 -16 -10 -26.5t-26 -10.5zM271 569q-17 0 -27.5 10.5t-10.5 26.5q0 15 10.5 25.5t27.5 10.5t27 -10.5t10 -25.5
q0 -16 -10 -26.5t-27 -10.5z" />
    <glyph glyph-name="igrave" unicode="&#xec;" horiz-adv-x="212" 
d="M44 0q0 32 4 64t10 65l34 195q8 44 13.5 86.5t8.5 84.5h55q-3 -42 -9.5 -88.5t-13.5 -84.5l-34 -191q-5 -32 -8.5 -64t-3.5 -67h-56zM130 573l-91 159l62 18l81 -177h-52z" />
    <glyph glyph-name="iacute" unicode="&#xed;" horiz-adv-x="212" 
d="M44 0q0 32 4 64t10 65l34 195q8 44 13.5 86.5t8.5 84.5h55q-3 -42 -9.5 -88.5t-13.5 -84.5l-34 -191q-5 -32 -8.5 -64t-3.5 -67h-56zM126 573l144 177l57 -18l-147 -159h-54z" />
    <glyph glyph-name="icircumflex" unicode="&#xee;" horiz-adv-x="212" 
d="M44 0q0 32 4 64t10 65l34 195q8 44 13.5 86.5t8.5 84.5h55q-3 -42 -9.5 -88.5t-13.5 -84.5l-34 -191q-5 -32 -8.5 -64t-3.5 -67h-56zM304 573h-51l-71 128l-118 -128h-57l155 167h47z" />
    <glyph glyph-name="idieresis" unicode="&#xef;" horiz-adv-x="212" 
d="M44 0q0 32 4 64t10 65l34 195q8 44 13.5 86.5t8.5 84.5h55q-3 -42 -9.5 -88.5t-13.5 -84.5l-34 -191q-5 -32 -8.5 -64t-3.5 -67h-56zM243 569q-18 0 -28.5 10.5t-10.5 26.5q0 15 10.5 25.5t28.5 10.5q16 0 26 -10.5t10 -25.5q0 -16 -10 -26.5t-26 -10.5zM81 569
q-17 0 -27.5 10.5t-10.5 26.5q0 15 10.5 25.5t27.5 10.5t27 -10.5t10 -25.5q0 -16 -10 -26.5t-27 -10.5z" />
    <glyph glyph-name="eth" unicode="&#xf0;" horiz-adv-x="540" 
d="M226 -8q-84 0 -131 47.5t-47 131.5q0 58 19.5 111.5t54.5 95t83 66t105 24.5q52 0 89 -24t51 -66q10 146 -63 233l-180 -75l-14 37l165 68q-46 40 -115 68l26 42q87 -36 140 -88l119 49l14 -36l-105 -44q67 -87 67 -226q0 -82 -17.5 -156t-52 -132t-86.5 -92t-122 -34z
M232 43q60 0 105.5 36t70.5 93t25 119t-32 95t-90 33q-63 0 -109 -35.5t-72 -91.5t-26 -119q0 -61 31.5 -95.5t96.5 -34.5z" />
    <glyph glyph-name="ntilde" unicode="&#xf1;" horiz-adv-x="559" 
d="M35 0l57 324q8 44 14 86.5t9 84.5h53q-2 -39 -9.5 -90.5t-22.5 -109.5q41 103 101.5 156t136.5 53t109.5 -50t12.5 -149l-36 -173q-13 -62 -13 -132h-56q0 63 14 129l35 170q17 81 -3.5 117.5t-78.5 36.5q-59 0 -110 -47t-91.5 -146.5t-67.5 -259.5h-54zM420 569
q-19 0 -39.5 10t-41 22.5t-39.5 22t-36 9.5q-21 0 -39 -17t-29 -45l-28 17q15 41 42 65t61 24q19 0 39 -10t41 -22.5t40 -22.5t36 -10q21 0 39 17.5t30 46.5l28 -18q-15 -42 -42.5 -65.5t-61.5 -23.5z" />
    <glyph glyph-name="ograve" unicode="&#xf2;" horiz-adv-x="561" 
d="M330 504q82 0 130.5 -49.5t48.5 -138.5q0 -68 -21 -126.5t-58.5 -103t-87 -69.5t-106.5 -25q-86 0 -135 49.5t-49 139.5q0 63 19.5 121t56 103.5t88 72t114.5 26.5zM239 43q63 0 111 38t75.5 100t27.5 133q0 68 -33.5 104t-94.5 36q-64 0 -113.5 -37.5t-77 -99
t-27.5 -134.5q0 -68 34.5 -104t97.5 -36zM312 573l-91 159l62 18l81 -177h-52z" />
    <glyph glyph-name="oacute" unicode="&#xf3;" horiz-adv-x="561" 
d="M330 504q82 0 130.5 -49.5t48.5 -138.5q0 -68 -21 -126.5t-58.5 -103t-87 -69.5t-106.5 -25q-86 0 -135 49.5t-49 139.5q0 63 19.5 121t56 103.5t88 72t114.5 26.5zM239 43q63 0 111 38t75.5 100t27.5 133q0 68 -33.5 104t-94.5 36q-64 0 -113.5 -37.5t-77 -99
t-27.5 -134.5q0 -68 34.5 -104t97.5 -36zM308 573l144 177l57 -18l-147 -159h-54z" />
    <glyph glyph-name="ocircumflex" unicode="&#xf4;" horiz-adv-x="561" 
d="M330 504q82 0 130.5 -49.5t48.5 -138.5q0 -68 -21 -126.5t-58.5 -103t-87 -69.5t-106.5 -25q-86 0 -135 49.5t-49 139.5q0 63 19.5 121t56 103.5t88 72t114.5 26.5zM239 43q63 0 111 38t75.5 100t27.5 133q0 68 -33.5 104t-94.5 36q-64 0 -113.5 -37.5t-77 -99
t-27.5 -134.5q0 -68 34.5 -104t97.5 -36zM486 573h-51l-71 128l-118 -128h-57l155 167h47z" />
    <glyph glyph-name="otilde" unicode="&#xf5;" horiz-adv-x="561" 
d="M330 504q82 0 130.5 -49.5t48.5 -138.5q0 -68 -21 -126.5t-58.5 -103t-87 -69.5t-106.5 -25q-86 0 -135 49.5t-49 139.5q0 63 19.5 121t56 103.5t88 72t114.5 26.5zM239 43q63 0 111 38t75.5 100t27.5 133q0 68 -33.5 104t-94.5 36q-64 0 -113.5 -37.5t-77 -99
t-27.5 -134.5q0 -68 34.5 -104t97.5 -36zM421 569q-19 0 -39.5 10t-41 22.5t-39.5 22t-36 9.5q-21 0 -39 -17t-29 -45l-28 17q15 41 42 65t61 24q19 0 39 -10t41 -22.5t40 -22.5t36 -10q21 0 39 17.5t30 46.5l28 -18q-15 -42 -42.5 -65.5t-61.5 -23.5z" />
    <glyph glyph-name="odieresis" unicode="&#xf6;" horiz-adv-x="561" 
d="M330 504q82 0 130.5 -49.5t48.5 -138.5q0 -68 -21 -126.5t-58.5 -103t-87 -69.5t-106.5 -25q-86 0 -135 49.5t-49 139.5q0 63 19.5 121t56 103.5t88 72t114.5 26.5zM239 43q63 0 111 38t75.5 100t27.5 133q0 68 -33.5 104t-94.5 36q-64 0 -113.5 -37.5t-77 -99
t-27.5 -134.5q0 -68 34.5 -104t97.5 -36zM425 569q-18 0 -28.5 10.5t-10.5 26.5q0 15 10.5 25.5t28.5 10.5q16 0 26 -10.5t10 -25.5q0 -16 -10 -26.5t-26 -10.5zM263 569q-17 0 -27.5 10.5t-10.5 26.5q0 15 10.5 25.5t27.5 10.5t27 -10.5t10 -25.5q0 -16 -10 -26.5
t-27 -10.5z" />
    <glyph glyph-name="divide" unicode="&#xf7;" horiz-adv-x="600" 
d="M339 441q-16 0 -24.5 9.5t-8.5 22.5t8.5 22.5t24.5 9.5q17 0 25.5 -9.5t8.5 -22.5t-8.5 -22.5t-25.5 -9.5zM547 273l-9 -50h-485l9 50h485zM261 -8q-17 0 -25.5 9.5t-8.5 23.5q0 13 8.5 22t25.5 9q16 0 24.5 -9t8.5 -22q0 -14 -8.5 -23.5t-24.5 -9.5z" />
    <glyph glyph-name="oslash" unicode="&#xf8;" horiz-adv-x="561" 
d="M330 504q82 0 130.5 -49.5t48.5 -138.5q0 -68 -21 -126.5t-58.5 -103t-87 -69.5t-106.5 -25q-86 0 -135 49.5t-49 139.5q0 63 19.5 121t56 103.5t88 72t114.5 26.5zM239 43q63 0 111 38t75.5 100t27.5 133q0 68 -33.5 104t-94.5 36q-64 0 -113.5 -37.5t-77 -99
t-27.5 -134.5q0 -68 34.5 -104t97.5 -36zM73 0l-33 29l57 59l24 22l291 301l20 25l57 59l32 -30l-57 -59l-24 -22l-291 -301l-19 -24z" />
    <glyph glyph-name="ugrave" unicode="&#xf9;" horiz-adv-x="550" 
d="M181 -8q-71 0 -103 49.5t-15 144.5l26 138q16 89 22 171h55q-3 -42 -9.5 -88.5t-13.5 -84.5l-25 -132q-14 -76 6 -111t76 -35q84 0 153 107t110 344h52l-58 -326q-7 -46 -12.5 -94.5t-5.5 -74.5h-54q1 35 6.5 80t20.5 110q-41 -97 -99.5 -147.5t-131.5 -50.5zM307 573
l-91 159l62 18l81 -177h-52z" />
    <glyph glyph-name="uacute" unicode="&#xfa;" horiz-adv-x="550" 
d="M181 -8q-71 0 -103 49.5t-15 144.5l26 138q16 89 22 171h55q-3 -42 -9.5 -88.5t-13.5 -84.5l-25 -132q-14 -76 6 -111t76 -35q84 0 153 107t110 344h52l-58 -326q-7 -46 -12.5 -94.5t-5.5 -74.5h-54q1 35 6.5 80t20.5 110q-41 -97 -99.5 -147.5t-131.5 -50.5zM303 573
l144 177l57 -18l-147 -159h-54z" />
    <glyph glyph-name="ucircumflex" unicode="&#xfb;" horiz-adv-x="550" 
d="M181 -8q-71 0 -103 49.5t-15 144.5l26 138q16 89 22 171h55q-3 -42 -9.5 -88.5t-13.5 -84.5l-25 -132q-14 -76 6 -111t76 -35q84 0 153 107t110 344h52l-58 -326q-7 -46 -12.5 -94.5t-5.5 -74.5h-54q1 35 6.5 80t20.5 110q-41 -97 -99.5 -147.5t-131.5 -50.5zM481 573
h-51l-71 128l-118 -128h-57l155 167h47z" />
    <glyph glyph-name="udieresis" unicode="&#xfc;" horiz-adv-x="550" 
d="M181 -8q-71 0 -103 49.5t-15 144.5l26 138q16 89 22 171h55q-3 -42 -9.5 -88.5t-13.5 -84.5l-25 -132q-14 -76 6 -111t76 -35q84 0 153 107t110 344h52l-58 -326q-7 -46 -12.5 -94.5t-5.5 -74.5h-54q1 35 6.5 80t20.5 110q-41 -97 -99.5 -147.5t-131.5 -50.5zM420 569
q-18 0 -28.5 10.5t-10.5 26.5q0 15 10.5 25.5t28.5 10.5q16 0 26 -10.5t10 -25.5q0 -16 -10 -26.5t-26 -10.5zM258 569q-17 0 -27.5 10.5t-10.5 26.5q0 15 10.5 25.5t27.5 10.5t27 -10.5t10 -25.5q0 -16 -10 -26.5t-27 -10.5z" />
    <glyph glyph-name="yacute" unicode="&#xfd;" horiz-adv-x="555" 
d="M170 -210q-42 0 -83 8.5t-68 25.5l15 50q27 -15 63.5 -24.5t73.5 -9.5q97 0 147.5 49.5t71.5 161.5l28 142q-46 -104 -104.5 -148.5t-122.5 -44.5q-76 0 -110 49.5t-18 138.5l26 136q16 86 22 171h55q-3 -42 -9.5 -88.5t-13.5 -84.5l-24 -125q-13 -71 6.5 -108.5
t76.5 -37.5q56 0 105.5 42t90.5 139.5t70 262.5h52l-77 -436q-25 -143 -90.5 -206t-182.5 -63zM306 573l144 177l57 -18l-147 -159h-54z" />
    <glyph glyph-name="thorn" unicode="&#xfe;" horiz-adv-x="567" 
d="M53 -200h-54l166 940h54l-43 -245l-28 -138q37 72 91.5 109.5t116.5 37.5q76 0 118 -46t42 -130q0 -69 -21.5 -130t-59.5 -107t-90 -72.5t-113 -26.5q-40 0 -77 13.5t-61 33.5l-6 -39zM349 453q-54 0 -100.5 -32.5t-79.5 -89.5t-46 -132l-19 -106q48 -50 128 -50
q68 0 119.5 39.5t79.5 103.5t28 138q0 63 -28.5 96t-81.5 33z" />
    <glyph glyph-name="ydieresis" unicode="&#xff;" horiz-adv-x="555" 
d="M170 -210q-42 0 -83 8.5t-68 25.5l15 50q27 -15 63.5 -24.5t73.5 -9.5q97 0 147.5 49.5t71.5 161.5l28 142q-46 -104 -104.5 -148.5t-122.5 -44.5q-76 0 -110 49.5t-18 138.5l26 136q16 86 22 171h55q-3 -42 -9.5 -88.5t-13.5 -84.5l-24 -125q-13 -71 6.5 -108.5
t76.5 -37.5q56 0 105.5 42t90.5 139.5t70 262.5h52l-77 -436q-25 -143 -90.5 -206t-182.5 -63zM423 569q-18 0 -28.5 10.5t-10.5 26.5q0 15 10.5 25.5t28.5 10.5q16 0 26 -10.5t10 -25.5q0 -16 -10 -26.5t-26 -10.5zM261 569q-17 0 -27.5 10.5t-10.5 26.5q0 15 10.5 25.5
t27.5 10.5t27 -10.5t10 -25.5q0 -16 -10 -26.5t-27 -10.5z" />
    <glyph glyph-name="Amacron" unicode="&#x100;" horiz-adv-x="668" 
d="M-23 0l418 710h51l154 -710h-56l-41 200h-348l-116 -200h-62zM184 249h308l-81 391zM296 858h294l-7 -41h-294z" />
    <glyph glyph-name="amacron" unicode="&#x101;" horiz-adv-x="567" 
d="M210 -8q-75 0 -117.5 46.5t-42.5 130.5q0 69 21.5 129.5t60 107t90 72.5t113.5 26q42 0 81.5 -15t62.5 -38l17 44h41q-11 -48 -18.5 -86t-13.5 -67l-30 -173q-8 -46 -13 -94.5t-5 -74.5h-54q1 34 5 69t11 73q-36 -73 -91 -111.5t-118 -38.5zM218 43q53 0 99.5 32.5
t79.5 90t46 132.5l19 106q-48 50 -128 50q-68 0 -119 -39.5t-79.5 -104t-28.5 -138.5q0 -62 28.5 -95.5t82.5 -33.5zM230 642h294l-7 -40h-294z" />
    <glyph glyph-name="Abreve" unicode="&#x102;" horiz-adv-x="668" 
d="M-23 0l418 710h51l154 -710h-56l-41 200h-348l-116 -200h-62zM184 249h308l-81 391zM574 965l41 -10q-18 -79 -67 -125.5t-112 -46.5q-66 0 -100.5 46.5t-29.5 125.5l43 10q-9 -139 91 -139q96 0 134 139z" />
    <glyph glyph-name="abreve" unicode="&#x103;" horiz-adv-x="567" 
d="M210 -8q-75 0 -117.5 46.5t-42.5 130.5q0 69 21.5 129.5t60 107t90 72.5t113.5 26q42 0 81.5 -15t62.5 -38l17 44h41q-11 -48 -18.5 -86t-13.5 -67l-30 -173q-8 -46 -13 -94.5t-5 -74.5h-54q1 34 5 69t11 73q-36 -73 -91 -111.5t-118 -38.5zM218 43q53 0 99.5 32.5
t79.5 90t46 132.5l19 106q-48 50 -128 50q-68 0 -119 -39.5t-79.5 -104t-28.5 -138.5q0 -62 28.5 -95.5t82.5 -33.5zM508 750l41 -10q-18 -79 -67 -125.5t-112 -46.5q-66 0 -100.5 46.5t-29.5 125.5l43 10q-9 -139 91 -139q96 0 134 139z" />
    <glyph glyph-name="Aogonek" unicode="&#x104;" horiz-adv-x="668" 
d="M-23 0l418 710h51l154 -710h-56l-41 200h-348l-116 -200h-62zM184 249h308l-81 391zM506 -223q-41 0 -65 21t-24 56q0 33 20.5 65t54 57.5t73.5 41.5l35 -18q-61 -26 -97 -63.5t-36 -76.5q0 -20 12 -31.5t35 -11.5q36 0 72 40l19 -30q-18 -22 -45 -36t-54 -14z" />
    <glyph glyph-name="aogonek" unicode="&#x105;" horiz-adv-x="567" 
d="M210 -8q-75 0 -117.5 46.5t-42.5 130.5q0 69 21.5 129.5t60 107t90 72.5t113.5 26q42 0 81.5 -15t62.5 -38l17 44h41q-11 -48 -18.5 -86t-13.5 -67l-30 -173q-8 -46 -13 -94.5t-5 -74.5h-54q1 34 5 69t11 73q-36 -73 -91 -111.5t-118 -38.5zM218 43q53 0 99.5 32.5
t79.5 90t46 132.5l19 106q-48 50 -128 50q-68 0 -119 -39.5t-79.5 -104t-28.5 -138.5q0 -62 28.5 -95.5t82.5 -33.5zM363 -223q-41 0 -65 21t-24 56q0 33 20.5 65t54 57.5t73.5 41.5l35 -18q-61 -26 -97 -63.5t-36 -76.5q0 -20 12 -31.5t35 -11.5q36 0 72 40l19 -30
q-18 -22 -45 -36t-54 -14z" />
    <glyph glyph-name="Cacute" unicode="&#x106;" horiz-adv-x="641" 
d="M615 135q-49 -72 -120 -107.5t-153 -35.5q-129 0 -199 71t-70 197q0 92 29.5 175t82.5 147t126 101t160 37q80 0 138.5 -33.5t84.5 -98.5l-48 -31q-23 54 -66 81.5t-112 27.5q-76 0 -138 -33t-106 -89.5t-68 -129.5t-24 -153q0 -103 54.5 -159t158.5 -56q72 0 129.5 30
t100.5 92zM448 788l144 177l57 -18l-147 -159h-54z" />
    <glyph glyph-name="cacute" unicode="&#x107;" horiz-adv-x="485" 
d="M241 -8q-90 0 -139.5 50.5t-49.5 138.5q0 63 19.5 121t56 103.5t88 72t114.5 26.5q64 0 103.5 -26t59.5 -69l-46 -30q-15 36 -44 55t-74 19q-66 0 -116 -37t-78 -98.5t-28 -134.5q0 -66 36 -103t107 -37q43 1 82.5 18.5t70.5 57.5l36 -32q-74 -95 -198 -95zM315 573
l144 177l57 -18l-147 -159h-54z" />
    <glyph glyph-name="Ccircumflex" unicode="&#x108;" horiz-adv-x="641" 
d="M615 135q-49 -72 -120 -107.5t-153 -35.5q-129 0 -199 71t-70 197q0 92 29.5 175t82.5 147t126 101t160 37q80 0 138.5 -33.5t84.5 -98.5l-48 -31q-23 54 -66 81.5t-112 27.5q-76 0 -138 -33t-106 -89.5t-68 -129.5t-24 -153q0 -103 54.5 -159t158.5 -56q72 0 129.5 30
t100.5 92zM626 788h-51l-71 128l-118 -128h-57l155 167h47z" />
    <glyph glyph-name="ccircumflex" unicode="&#x109;" horiz-adv-x="485" 
d="M241 -8q-90 0 -139.5 50.5t-49.5 138.5q0 63 19.5 121t56 103.5t88 72t114.5 26.5q64 0 103.5 -26t59.5 -69l-46 -30q-15 36 -44 55t-74 19q-66 0 -116 -37t-78 -98.5t-28 -134.5q0 -66 36 -103t107 -37q43 1 82.5 18.5t70.5 57.5l36 -32q-74 -95 -198 -95zM493 573h-51
l-71 128l-118 -128h-57l155 167h47z" />
    <glyph glyph-name="Cdotaccent" unicode="&#x10a;" horiz-adv-x="641" 
d="M615 135q-49 -72 -120 -107.5t-153 -35.5q-129 0 -199 71t-70 197q0 92 29.5 175t82.5 147t126 101t160 37q80 0 138.5 -33.5t84.5 -98.5l-48 -31q-23 54 -66 81.5t-112 27.5q-76 0 -138 -33t-106 -89.5t-68 -129.5t-24 -153q0 -103 54.5 -159t158.5 -56q72 0 129.5 30
t100.5 92zM488 806q-19 0 -29.5 12t-10.5 28t11.5 28t28.5 12q19 0 29.5 -12t10.5 -28t-10.5 -28t-29.5 -12z" />
    <glyph glyph-name="cdotaccent" unicode="&#x10b;" horiz-adv-x="485" 
d="M241 -8q-90 0 -139.5 50.5t-49.5 138.5q0 63 19.5 121t56 103.5t88 72t114.5 26.5q64 0 103.5 -26t59.5 -69l-46 -30q-15 36 -44 55t-74 19q-66 0 -116 -37t-78 -98.5t-28 -134.5q0 -66 36 -103t107 -37q43 1 82.5 18.5t70.5 57.5l36 -32q-74 -95 -198 -95zM355 591
q-19 0 -29.5 12t-10.5 28t11.5 27.5t28.5 11.5q19 0 29.5 -11.5t10.5 -27.5t-10.5 -28t-29.5 -12z" />
    <glyph glyph-name="Ccaron" unicode="&#x10c;" horiz-adv-x="641" 
d="M615 135q-49 -72 -120 -107.5t-153 -35.5q-129 0 -199 71t-70 197q0 92 29.5 175t82.5 147t126 101t160 37q80 0 138.5 -33.5t84.5 -98.5l-48 -31q-23 54 -66 81.5t-112 27.5q-76 0 -138 -33t-106 -89.5t-68 -129.5t-24 -153q0 -103 54.5 -159t158.5 -56q72 0 129.5 30
t100.5 92zM454 788l-95 167l45 10l78 -137l127 137l47 -10l-155 -167h-47z" />
    <glyph glyph-name="ccaron" unicode="&#x10d;" horiz-adv-x="485" 
d="M241 -8q-90 0 -139.5 50.5t-49.5 138.5q0 63 19.5 121t56 103.5t88 72t114.5 26.5q64 0 103.5 -26t59.5 -69l-46 -30q-15 36 -44 55t-74 19q-66 0 -116 -37t-78 -98.5t-28 -134.5q0 -66 36 -103t107 -37q43 1 82.5 18.5t70.5 57.5l36 -32q-74 -95 -198 -95zM321 573
l-95 167l45 10l78 -138l127 138l47 -10l-155 -167h-47z" />
    <glyph glyph-name="Dcaron" unicode="&#x10e;" horiz-adv-x="727" 
d="M42 0l125 710h166q175 0 266 -68.5t91 -206.5q0 -132 -54.5 -230t-153 -151.5t-231.5 -53.5h-209zM109 50h143q119 0 204 47.5t130.5 134t45.5 202.5q0 113 -73.5 169.5t-225.5 56.5h-117zM433 788l-95 167l45 10l78 -137l127 137l47 -10l-155 -167h-47z" />
    <glyph glyph-name="dcaron" unicode="&#x10f;" horiz-adv-x="567" 
d="M210 -8q-75 0 -117.5 46.5t-42.5 130.5q0 69 21.5 129.5t60 107t90 72.5t113.5 26q39 0 76 -13t61 -33l6 37l43 245h55l-101 -571q-8 -46 -13 -94.5t-5 -74.5h-54q1 34 5 69t11 73q-36 -73 -91 -111.5t-118 -38.5zM218 43q53 0 99.5 32.5t79.5 90t46 132.5l19 106
q-48 50 -128 50q-68 0 -119 -39.5t-79.5 -104t-28.5 -138.5q0 -62 28.5 -95.5t82.5 -33.5zM596 548l40 232h53l-56 -232h-37z" />
    <glyph glyph-name="Dcroat" unicode="&#x110;" horiz-adv-x="727" 
d="M42 0l125 710h166q175 0 266 -68.5t91 -206.5q0 -132 -54.5 -230t-153 -151.5t-231.5 -53.5h-209zM109 50h143q119 0 204 47.5t130.5 134t45.5 202.5q0 113 -73.5 169.5t-225.5 56.5h-117zM21 338l8 44h359l-9 -44h-358z" />
    <glyph glyph-name="dcroat" unicode="&#x111;" horiz-adv-x="567" 
d="M210 -8q-75 0 -117.5 46.5t-42.5 130.5q0 69 21.5 129.5t60 107t90 72.5t113.5 26q39 0 76 -13t61 -33l6 37l43 245h55l-101 -571q-8 -46 -13 -94.5t-5 -74.5h-54q1 34 5 69t11 73q-36 -73 -91 -111.5t-118 -38.5zM218 43q53 0 99.5 32.5t79.5 90t46 132.5l19 106
q-48 50 -128 50q-68 0 -119 -39.5t-79.5 -104t-28.5 -138.5q0 -62 28.5 -95.5t82.5 -33.5zM308 603l7 40h330l-7 -40h-330z" />
    <glyph glyph-name="Emacron" unicode="&#x112;" horiz-adv-x="533" 
d="M107 49h353l-15 -49h-403l125 710h395l-9 -49h-338l-49 -275h332l-9 -49h-331zM244 858h294l-7 -41h-294z" />
    <glyph glyph-name="emacron" unicode="&#x113;" horiz-adv-x="533" 
d="M258 -8q-95 0 -150 50.5t-55 145.5q0 63 19.5 119.5t56 101t87.5 70t115 25.5q79 0 122 -38.5t43 -98.5t-41 -99.5t-134 -43.5l-212 -9q-8 -85 32.5 -128.5t120.5 -43.5q45 0 88 18t75 58l31 -34q-73 -93 -198 -93zM117 264v-2l198 9q73 3 101.5 28.5t28.5 65.5
t-29.5 66.5t-89.5 26.5q-56 0 -99.5 -26.5t-72 -71t-37.5 -96.5zM211 642h294l-7 -40h-294z" />
    <glyph glyph-name="Ebreve" unicode="&#x114;" horiz-adv-x="533" 
d="M107 49h353l-15 -49h-403l125 710h395l-9 -49h-338l-49 -275h332l-9 -49h-331zM522 965l41 -10q-18 -79 -67 -125.5t-112 -46.5q-66 0 -100.5 46.5t-29.5 125.5l43 10q-9 -139 91 -139q96 0 134 139z" />
    <glyph glyph-name="ebreve" unicode="&#x115;" horiz-adv-x="533" 
d="M258 -8q-95 0 -150 50.5t-55 145.5q0 63 19.5 119.5t56 101t87.5 70t115 25.5q79 0 122 -38.5t43 -98.5t-41 -99.5t-134 -43.5l-212 -9q-8 -85 32.5 -128.5t120.5 -43.5q45 0 88 18t75 58l31 -34q-73 -93 -198 -93zM117 264v-2l198 9q73 3 101.5 28.5t28.5 65.5
t-29.5 66.5t-89.5 26.5q-56 0 -99.5 -26.5t-72 -71t-37.5 -96.5zM489 750l41 -10q-18 -79 -67 -125.5t-112 -46.5q-66 0 -100.5 46.5t-29.5 125.5l43 10q-9 -139 91 -139q96 0 134 139z" />
    <glyph glyph-name="Edotaccent" unicode="&#x116;" horiz-adv-x="533" 
d="M107 49h353l-15 -49h-403l125 710h395l-9 -49h-338l-49 -275h332l-9 -49h-331zM389 806q-19 0 -29.5 12t-10.5 28t11.5 28t28.5 12q19 0 29.5 -12t10.5 -28t-10.5 -28t-29.5 -12z" />
    <glyph glyph-name="edotaccent" unicode="&#x117;" horiz-adv-x="533" 
d="M258 -8q-95 0 -150 50.5t-55 145.5q0 63 19.5 119.5t56 101t87.5 70t115 25.5q79 0 122 -38.5t43 -98.5t-41 -99.5t-134 -43.5l-212 -9q-8 -85 32.5 -128.5t120.5 -43.5q45 0 88 18t75 58l31 -34q-73 -93 -198 -93zM117 264v-2l198 9q73 3 101.5 28.5t28.5 65.5
t-29.5 66.5t-89.5 26.5q-56 0 -99.5 -26.5t-72 -71t-37.5 -96.5zM356 591q-19 0 -29.5 12t-10.5 28t11.5 27.5t28.5 11.5q19 0 29.5 -11.5t10.5 -27.5t-10.5 -28t-29.5 -12z" />
    <glyph glyph-name="Eogonek" unicode="&#x118;" horiz-adv-x="533" 
d="M107 49h353l-15 -49h-403l125 710h395l-9 -49h-338l-49 -275h332l-9 -49h-331zM351 -223q-41 0 -65 21t-24 56q0 33 20.5 65t54 57.5t73.5 41.5l35 -18q-61 -26 -97 -63.5t-36 -76.5q0 -20 12 -31.5t35 -11.5q36 0 72 40l19 -30q-18 -22 -45 -36t-54 -14z" />
    <glyph glyph-name="eogonek" unicode="&#x119;" horiz-adv-x="533" 
d="M359 -173q-18 -22 -44.5 -36t-54.5 -14q-41 0 -65 21t-24 56q0 39 28.5 76t71.5 63q-7 -1 -13 -1q-95 0 -150 50.5t-55 145.5q0 63 19.5 119.5t56 101t87.5 70t115 25.5q79 0 122 -38.5t43 -98.5t-41 -99.5t-134 -43.5l-212 -9q-8 -85 32.5 -128.5t120.5 -43.5
q45 0 88 18t75 58l31 -34q-17 -22 -38 -39t-47 -31q-150 -81 -150 -155q0 -20 12 -31.5t35 -11.5q37 0 72 40zM315 271q73 3 101.5 28.5t28.5 65.5t-29.5 66.5t-89.5 26.5q-56 0 -99.5 -26.5t-72 -71t-37.5 -96.5v-2z" />
    <glyph glyph-name="Ecaron" unicode="&#x11a;" horiz-adv-x="533" 
d="M107 49h353l-15 -49h-403l125 710h395l-9 -49h-338l-49 -275h332l-9 -49h-331zM355 788l-95 167l45 10l78 -137l127 137l47 -10l-155 -167h-47z" />
    <glyph glyph-name="ecaron" unicode="&#x11b;" horiz-adv-x="533" 
d="M258 -8q-95 0 -150 50.5t-55 145.5q0 63 19.5 119.5t56 101t87.5 70t115 25.5q79 0 122 -38.5t43 -98.5t-41 -99.5t-134 -43.5l-212 -9q-8 -85 32.5 -128.5t120.5 -43.5q45 0 88 18t75 58l31 -34q-73 -93 -198 -93zM117 264v-2l198 9q73 3 101.5 28.5t28.5 65.5
t-29.5 66.5t-89.5 26.5q-56 0 -99.5 -26.5t-72 -71t-37.5 -96.5zM322 573l-95 167l45 10l78 -138l127 138l47 -10l-155 -167h-47z" />
    <glyph glyph-name="Gcircumflex" unicode="&#x11c;" horiz-adv-x="718" 
d="M431 335h234l-59 -335h-43l9 94q-43 -49 -97 -75.5t-133 -26.5q-129 0 -199 71t-70 197q0 92 29.5 175t83 147t127.5 101t163 37q81 0 140.5 -33.5t86.5 -99.5l-49 -33q-24 56 -68.5 84t-113.5 28q-77 0 -140 -33t-107.5 -89.5t-68.5 -129.5t-24 -153q0 -103 54 -159
t159 -56q104 0 169 53t81 147l8 41h-181zM626 788h-51l-71 128l-118 -128h-57l155 167h47z" />
    <glyph glyph-name="gcircumflex" unicode="&#x11d;" horiz-adv-x="571" 
d="M182 -210q-42 0 -84 9t-70 26l19 50q29 -17 65.5 -26t72.5 -9q96 0 147.5 49.5t72.5 161.5l18 95q-37 -72 -92 -109t-118 -37q-75 0 -118.5 44.5t-43.5 128.5q0 68 21.5 128t60 105.5t91 71.5t114.5 26q42 0 82 -15t64 -38l17 44h40q-10 -48 -18 -86t-13 -67l-50 -284
q-25 -140 -89 -204t-189 -64zM218 50q55 0 102 31.5t81 88t47 130.5l18 105q-23 23 -56 36t-74 13q-68 0 -119.5 -39t-80.5 -102t-29 -136q0 -61 29 -94t82 -33zM514 573h-51l-71 128l-118 -128h-57l155 167h47z" />
    <glyph glyph-name="Gbreve" unicode="&#x11e;" horiz-adv-x="718" 
d="M431 335h234l-59 -335h-43l9 94q-43 -49 -97 -75.5t-133 -26.5q-129 0 -199 71t-70 197q0 92 29.5 175t83 147t127.5 101t163 37q81 0 140.5 -33.5t86.5 -99.5l-49 -33q-24 56 -68.5 84t-113.5 28q-77 0 -140 -33t-107.5 -89.5t-68.5 -129.5t-24 -153q0 -103 54 -159
t159 -56q104 0 169 53t81 147l8 41h-181zM621 965l41 -10q-18 -79 -67 -125.5t-112 -46.5q-66 0 -100.5 46.5t-29.5 125.5l43 10q-9 -139 91 -139q96 0 134 139z" />
    <glyph glyph-name="gbreve" unicode="&#x11f;" horiz-adv-x="571" 
d="M182 -210q-42 0 -84 9t-70 26l19 50q29 -17 65.5 -26t72.5 -9q96 0 147.5 49.5t72.5 161.5l18 95q-37 -72 -92 -109t-118 -37q-75 0 -118.5 44.5t-43.5 128.5q0 68 21.5 128t60 105.5t91 71.5t114.5 26q42 0 82 -15t64 -38l17 44h40q-10 -48 -18 -86t-13 -67l-50 -284
q-25 -140 -89 -204t-189 -64zM218 50q55 0 102 31.5t81 88t47 130.5l18 105q-23 23 -56 36t-74 13q-68 0 -119.5 -39t-80.5 -102t-29 -136q0 -61 29 -94t82 -33zM509 750l41 -10q-18 -79 -67 -125.5t-112 -46.5q-66 0 -100.5 46.5t-29.5 125.5l43 10q-9 -139 91 -139
q96 0 134 139z" />
    <glyph glyph-name="Gdotaccent" unicode="&#x120;" horiz-adv-x="718" 
d="M431 335h234l-59 -335h-43l9 94q-43 -49 -97 -75.5t-133 -26.5q-129 0 -199 71t-70 197q0 92 29.5 175t83 147t127.5 101t163 37q81 0 140.5 -33.5t86.5 -99.5l-49 -33q-24 56 -68.5 84t-113.5 28q-77 0 -140 -33t-107.5 -89.5t-68.5 -129.5t-24 -153q0 -103 54 -159
t159 -56q104 0 169 53t81 147l8 41h-181zM488 806q-19 0 -29.5 12t-10.5 28t11.5 28t28.5 12q19 0 29.5 -12t10.5 -28t-10.5 -28t-29.5 -12z" />
    <glyph glyph-name="gdotaccent" unicode="&#x121;" horiz-adv-x="571" 
d="M182 -210q-42 0 -84 9t-70 26l19 50q29 -17 65.5 -26t72.5 -9q96 0 147.5 49.5t72.5 161.5l18 95q-37 -72 -92 -109t-118 -37q-75 0 -118.5 44.5t-43.5 128.5q0 68 21.5 128t60 105.5t91 71.5t114.5 26q42 0 82 -15t64 -38l17 44h40q-10 -48 -18 -86t-13 -67l-50 -284
q-25 -140 -89 -204t-189 -64zM218 50q55 0 102 31.5t81 88t47 130.5l18 105q-23 23 -56 36t-74 13q-68 0 -119.5 -39t-80.5 -102t-29 -136q0 -61 29 -94t82 -33zM376 591q-19 0 -29.5 12t-10.5 28t11.5 27.5t28.5 11.5q19 0 29.5 -11.5t10.5 -27.5t-10.5 -28t-29.5 -12z" />
    <glyph glyph-name="uni0122" unicode="&#x122;" horiz-adv-x="718" 
d="M431 335h234l-59 -335h-43l9 94q-43 -49 -97 -75.5t-133 -26.5q-129 0 -199 71t-70 197q0 92 29.5 175t83 147t127.5 101t163 37q81 0 140.5 -33.5t86.5 -99.5l-49 -33q-24 56 -68.5 84t-113.5 28q-77 0 -140 -33t-107.5 -89.5t-68.5 -129.5t-24 -153q0 -103 54 -159
t159 -56q104 0 169 53t81 147l8 41h-181zM246 -276q16 20 25 42t9 41q0 12 -2 23t-2 21q0 24 12 39t31 15q33 0 33 -38q0 -25 -19.5 -67t-52.5 -76h-34z" />
    <glyph glyph-name="uni0123" unicode="&#x123;" horiz-adv-x="571" 
d="M182 -210q-42 0 -84 9t-70 26l19 50q29 -17 65.5 -26t72.5 -9q96 0 147.5 49.5t72.5 161.5l18 95q-37 -72 -92 -109t-118 -37q-75 0 -118.5 44.5t-43.5 128.5q0 68 21.5 128t60 105.5t91 71.5t114.5 26q42 0 82 -15t64 -38l17 44h40q-10 -48 -18 -86t-13 -67l-50 -284
q-25 -140 -89 -204t-189 -64zM218 50q55 0 102 31.5t81 88t47 130.5l18 105q-23 23 -56 36t-74 13q-68 0 -119.5 -39t-80.5 -102t-29 -136q0 -61 29 -94t82 -33zM441 750q-16 -21 -25 -42.5t-9 -40.5q0 -13 2 -24t2 -21q0 -24 -12 -39t-30 -15q-34 0 -34 38q0 25 19.5 67
t52.5 77h34z" />
    <glyph glyph-name="Hcircumflex" unicode="&#x124;" horiz-adv-x="708" 
d="M42 0l125 710h57l-56 -323h422l57 323h57l-125 -710h-57l59 336h-422l-60 -336h-57zM598 788h-51l-71 128l-118 -128h-57l155 167h47z" />
    <glyph glyph-name="hcircumflex" unicode="&#x125;" horiz-adv-x="559" 
d="M35 0l130 740h55l-44 -245l-41 -204q40 105 101 159t138 54q76 0 109.5 -50t12.5 -149l-36 -173q-13 -62 -13 -132h-56q0 63 14 129l35 170q17 81 -3.5 117.5t-78.5 36.5q-59 0 -110 -47t-91.5 -146.5t-67.5 -259.5h-54zM525 788h-51l-71 128l-118 -128h-57l155 167h47z
" />
    <glyph glyph-name="Hbar" unicode="&#x126;" horiz-adv-x="708" 
d="M42 0l125 710h57l-56 -323h422l57 323h57l-125 -710h-57l59 336h-422l-60 -336h-57zM56 548l7 44h701l-7 -44h-701z" />
    <glyph glyph-name="hbar" unicode="&#x127;" horiz-adv-x="559" 
d="M35 0l130 740h55l-44 -245l-41 -204q40 105 101 159t138 54q76 0 109.5 -50t12.5 -149l-36 -173q-13 -62 -13 -132h-56q0 63 14 129l35 170q17 81 -3.5 117.5t-78.5 36.5q-59 0 -110 -47t-91.5 -146.5t-67.5 -259.5h-54zM54 603l7 40h330l-7 -40h-330z" />
    <glyph glyph-name="Itilde" unicode="&#x128;" horiz-adv-x="228" 
d="M42 0l125 710h57l-125 -710h-57zM293 785q-19 0 -39.5 9.5t-41 22.5t-39.5 22.5t-36 9.5q-21 0 -39 -17t-29 -46l-28 17q15 42 42 65.5t61 23.5q19 0 39 -9.5t41 -22.5t40 -22.5t36 -9.5q21 0 39 17t30 46l28 -17q-15 -42 -42.5 -65.5t-61.5 -23.5z" />
    <glyph glyph-name="itilde" unicode="&#x129;" horiz-adv-x="212" 
d="M44 0q0 32 4 64t10 65l34 195q8 44 13.5 86.5t8.5 84.5h55q-3 -42 -9.5 -88.5t-13.5 -84.5l-34 -191q-5 -32 -8.5 -64t-3.5 -67h-56zM239 569q-19 0 -39.5 10t-41 22.5t-39.5 22t-36 9.5q-21 0 -39 -17t-29 -45l-28 17q15 41 42 65t61 24q19 0 39 -10t41 -22.5t40 -22.5
t36 -10q21 0 39 17.5t30 46.5l28 -18q-15 -42 -42.5 -65.5t-61.5 -23.5z" />
    <glyph glyph-name="Imacron" unicode="&#x12a;" horiz-adv-x="228" 
d="M42 0l125 710h57l-125 -710h-57zM75 858h294l-7 -41h-294z" />
    <glyph glyph-name="imacron" unicode="&#x12b;" horiz-adv-x="212" 
d="M44 0q0 32 4 64t10 65l34 195q8 44 13.5 86.5t8.5 84.5h55q-3 -42 -9.5 -88.5t-13.5 -84.5l-34 -191q-5 -32 -8.5 -64t-3.5 -67h-56zM21 642h294l-7 -40h-294z" />
    <glyph glyph-name="Ibreve" unicode="&#x12c;" horiz-adv-x="228" 
d="M42 0l125 710h57l-125 -710h-57zM353 965l41 -10q-18 -79 -67 -125.5t-112 -46.5q-66 0 -100.5 46.5t-29.5 125.5l43 10q-9 -139 91 -139q96 0 134 139z" />
    <glyph glyph-name="ibreve" unicode="&#x12d;" horiz-adv-x="212" 
d="M44 0q0 32 4 64t10 65l34 195q8 44 13.5 86.5t8.5 84.5h55q-3 -42 -9.5 -88.5t-13.5 -84.5l-34 -191q-5 -32 -8.5 -64t-3.5 -67h-56zM299 750l41 -10q-18 -79 -67 -125.5t-112 -46.5q-66 0 -100.5 46.5t-29.5 125.5l43 10q-9 -139 91 -139q96 0 134 139z" />
    <glyph glyph-name="Iogonek" unicode="&#x12e;" horiz-adv-x="228" 
d="M42 0l125 710h57l-125 -710h-57zM40 -223q-36 0 -57 21t-21 54q0 30 14.5 61.5t39.5 58.5t55 46l29 -18q-37 -26 -63 -66t-26 -76q0 -42 39 -42q31 0 61 40l19 -29q-15 -22 -40 -36t-50 -14z" />
    <glyph glyph-name="iogonek" unicode="&#x12f;" horiz-adv-x="212" 
d="M44 0q0 32 4 64t10 65l34 195q8 44 13.5 86.5t8.5 84.5h55q-3 -42 -9.5 -88.5t-13.5 -84.5l-34 -191q-5 -32 -8.5 -64t-3.5 -67h-56zM172 620q-18 0 -29 12t-11 28t11.5 28t28.5 12q19 0 29.5 -12t10.5 -28t-10.5 -28t-29.5 -12zM41 -223q-36 0 -57 21t-21 54
q0 30 14.5 61.5t39.5 58.5t55 46l29 -18q-37 -26 -63 -66t-26 -76q0 -42 39 -42q31 0 61 40l19 -29q-15 -22 -40 -36t-50 -14z" />
    <glyph glyph-name="Idotaccent" unicode="&#x130;" horiz-adv-x="228" 
d="M42 0l125 710h57l-125 -710h-57zM220 806q-19 0 -29.5 12t-10.5 28t11.5 28t28.5 12q19 0 29.5 -12t10.5 -28t-10.5 -28t-29.5 -12z" />
    <glyph glyph-name="dotlessi" unicode="&#x131;" horiz-adv-x="212" 
d="M44 0q0 32 4 64t10 65l34 195q8 44 13.5 86.5t8.5 84.5h55q-3 -42 -9.5 -88.5t-13.5 -84.5l-34 -191q-5 -32 -8.5 -64t-3.5 -67h-56z" />
    <glyph glyph-name="Jcircumflex" unicode="&#x134;" horiz-adv-x="435" 
d="M132 -8q-76 0 -118.5 36t-49.5 96l51 20q8 -53 38.5 -76.5t84.5 -23.5q63 0 98.5 37.5t49.5 121.5l90 507h57l-88 -504q-19 -108 -69 -161t-144 -53zM567 788h-51l-71 128l-118 -128h-57l155 167h47z" />
    <glyph glyph-name="jcircumflex" unicode="&#x135;" horiz-adv-x="227" 
d="M108 324q8 44 13.5 86.5t8.5 84.5h55q-3 -42 -9.5 -88.5t-13.5 -84.5l-60 -336q-17 -97 -67 -148t-138 -51q-27 0 -51.5 5.5t-40.5 15.5l20 46q36 -17 74 -17q123 0 150 153zM320 573h-51l-71 128l-118 -128h-57l155 167h47z" />
    <glyph glyph-name="uni0136" unicode="&#x136;" horiz-adv-x="536" 
d="M42 0l125 710h57l-58 -333l396 333h75l-422 -353q16 -7 29.5 -22t25.5 -39l91 -180q23 -45 42 -58.5t47 -13.5q31 0 54 16l8 -42q-16 -12 -35 -17.5t-41 -5.5q-40 0 -67.5 19.5t-51.5 65.5l-105 206q-8 17 -21.5 27.5t-33.5 14.5l-58 -328h-57zM149 -276q16 20 25 42
t9 41q0 12 -2 23t-2 21q0 24 12 39t31 15q33 0 33 -38q0 -25 -19.5 -67t-52.5 -76h-34z" />
    <glyph glyph-name="uni0137" unicode="&#x137;" horiz-adv-x="437" 
d="M35 0l131 740h55l-81 -457l254 210h74l-287 -236q19 -13 33 -40l61 -115q18 -35 36.5 -47.5t43.5 -12.5q27 0 49 13l11 -41q-29 -20 -68 -20q-38 0 -65.5 17t-48.5 57l-61 115q-19 36 -41 51l-41 -234h-55zM112 -276q16 20 25 42t9 41q0 12 -2 23t-2 21q0 24 12 39t31 15
q33 0 33 -38q0 -25 -19.5 -67t-52.5 -76h-34z" />
    <glyph glyph-name="kgreenlandic" unicode="&#x138;" horiz-adv-x="437" 
d="M35 0l87 495h55l-37 -211l253 209h74l-287 -236q18 -13 32 -40l62 -115q18 -35 36.5 -47.5t42.5 -12.5q28 0 50 13l11 -41q-30 -20 -68 -20q-39 0 -66.5 17t-47.5 57l-62 115q-19 36 -39 50l-42 -233h-54z" />
    <glyph glyph-name="Lacute" unicode="&#x139;" horiz-adv-x="473" 
d="M42 0l125 710h57l-115 -660h337l-15 -50h-389zM181 788l144 177l57 -18l-147 -159h-54z" />
    <glyph glyph-name="lacute" unicode="&#x13a;" horiz-adv-x="255" 
d="M147 -8q-52 0 -76.5 32t-16.5 83l112 633h55l-110 -624q-6 -35 5 -55t46 -20q16 0 31 5t25 11l8 -42q-15 -11 -37 -17t-42 -6zM173 788l144 177l57 -18l-147 -159h-54z" />
    <glyph glyph-name="uni013B" unicode="&#x13b;" horiz-adv-x="473" 
d="M42 0l125 710h57l-115 -660h337l-15 -50h-389zM143 -276q16 20 25 42t9 41q0 12 -2 23t-2 21q0 24 12 39t31 15q33 0 33 -38q0 -25 -19.5 -67t-52.5 -76h-34z" />
    <glyph glyph-name="uni013C" unicode="&#x13c;" horiz-adv-x="255" 
d="M147 -8q-52 0 -76.5 32t-16.5 83l112 633h55l-110 -624q-6 -35 5 -55t46 -20q16 0 31 5t25 11l8 -42q-15 -11 -37 -17t-42 -6zM-20 -276q16 20 25 42t9 41q0 12 -2 23t-2 21q0 24 12 39t31 15q33 0 33 -38q0 -25 -19.5 -67t-52.5 -76h-34z" />
    <glyph glyph-name="Lcaron" unicode="&#x13d;" horiz-adv-x="473" 
d="M42 0l125 710h57l-115 -660h337l-15 -50h-389zM292 518l40 232h53l-56 -232h-37z" />
    <glyph glyph-name="lcaron" unicode="&#x13e;" horiz-adv-x="255" 
d="M147 -8q-52 0 -76.5 32t-16.5 83l112 633h55l-110 -624q-6 -35 5 -55t46 -20q16 0 31 5t25 11l8 -42q-15 -11 -37 -17t-42 -6zM242 548l40 232h53l-56 -232h-37z" />
    <glyph glyph-name="Ldot" unicode="&#x13f;" horiz-adv-x="473" 
d="M42 0l125 710h57l-115 -660h337l-15 -50h-389zM392 349q-20 0 -31.5 12.5t-11.5 28.5q0 17 12 29t31 12q20 0 31.5 -12t11.5 -29q0 -16 -11.5 -28.5t-31.5 -12.5z" />
    <glyph glyph-name="ldot" unicode="&#x140;" horiz-adv-x="270" 
d="M147 -8q-52 0 -76.5 32t-16.5 83l112 633h55l-110 -624q-6 -35 5 -55t46 -20q16 0 31 5t25 11l8 -42q-15 -11 -37 -17t-42 -6zM273 360q-20 0 -31.5 12.5t-11.5 28.5q0 17 12 29t31 12q20 0 31.5 -12t11.5 -29q0 -16 -11.5 -28.5t-31.5 -12.5z" />
    <glyph glyph-name="Lslash" unicode="&#x141;" horiz-adv-x="473" 
d="M42 0l125 710h57l-115 -660h337l-15 -50h-389zM36 281l-17 40l333 153l19 -39z" />
    <glyph glyph-name="lslash" unicode="&#x142;" horiz-adv-x="255" 
d="M147 -8q-52 0 -76.5 32t-16.5 83l112 633h55l-110 -624q-6 -35 5 -55t46 -20q16 0 31 5t25 11l8 -42q-15 -11 -37 -17t-42 -6zM37 307l-17 35l200 113l19 -35z" />
    <glyph glyph-name="Nacute" unicode="&#x143;" horiz-adv-x="709" 
d="M650 710h55l-125 -710h-48l-328 617l-108 -617h-54l125 710h48l327 -617zM421 788l144 177l57 -18l-147 -159h-54z" />
    <glyph glyph-name="nacute" unicode="&#x144;" horiz-adv-x="559" 
d="M35 0l57 324q8 44 14 86.5t9 84.5h53q-2 -39 -9.5 -90.5t-22.5 -109.5q41 103 101.5 156t136.5 53t109.5 -50t12.5 -149l-36 -173q-13 -62 -13 -132h-56q0 63 14 129l35 170q17 81 -3.5 117.5t-78.5 36.5q-59 0 -110 -47t-91.5 -146.5t-67.5 -259.5h-54zM307 573l144 177
l57 -18l-147 -159h-54z" />
    <glyph glyph-name="uni0145" unicode="&#x145;" horiz-adv-x="709" 
d="M650 710h55l-125 -710h-48l-328 617l-108 -617h-54l125 710h48l327 -617zM219 -276q16 20 25 42t9 41q0 12 -2 23t-2 21q0 24 12 39t31 15q33 0 33 -38q0 -25 -19.5 -67t-52.5 -76h-34z" />
    <glyph glyph-name="uni0146" unicode="&#x146;" horiz-adv-x="559" 
d="M35 0l57 324q8 44 14 86.5t9 84.5h53q-2 -39 -9.5 -90.5t-22.5 -109.5q41 103 101.5 156t136.5 53t109.5 -50t12.5 -149l-36 -173q-13 -62 -13 -132h-56q0 63 14 129l35 170q17 81 -3.5 117.5t-78.5 36.5q-59 0 -110 -47t-91.5 -146.5t-67.5 -259.5h-54zM145 -276
q16 20 25 42t9 41q0 12 -2 23t-2 21q0 24 12 39t31 15q33 0 33 -38q0 -25 -19.5 -67t-52.5 -76h-34z" />
    <glyph glyph-name="Ncaron" unicode="&#x147;" horiz-adv-x="709" 
d="M650 710h55l-125 -710h-48l-328 617l-108 -617h-54l125 710h48l327 -617zM427 788l-95 167l45 10l78 -137l127 137l47 -10l-155 -167h-47z" />
    <glyph glyph-name="ncaron" unicode="&#x148;" horiz-adv-x="559" 
d="M35 0l57 324q8 44 14 86.5t9 84.5h53q-2 -39 -9.5 -90.5t-22.5 -109.5q41 103 101.5 156t136.5 53t109.5 -50t12.5 -149l-36 -173q-13 -62 -13 -132h-56q0 63 14 129l35 170q17 81 -3.5 117.5t-78.5 36.5q-59 0 -110 -47t-91.5 -146.5t-67.5 -259.5h-54zM313 573l-95 167
l45 10l78 -138l127 138l47 -10l-155 -167h-47z" />
    <glyph glyph-name="napostrophe" unicode="&#x149;" horiz-adv-x="591" 
d="M51 537q12 25 19 45.5t7 46.5q0 11 -0.5 21.5t-0.5 23.5q1 17 11 29.5t27 12.5q30 0 30 -33q0 -18 -10 -45t-25 -54.5t-32 -46.5h-26zM67 0l57 324q8 44 14 86.5t9 84.5h53q-2 -39 -9.5 -90.5t-22.5 -109.5q41 103 101.5 156t136.5 53t109.5 -50t12.5 -149l-36 -173
q-13 -62 -13 -132h-56q0 63 14 129l35 170q17 81 -3.5 117.5t-78.5 36.5q-59 0 -110 -47t-91.5 -146.5t-67.5 -259.5h-54z" />
    <glyph glyph-name="Eng" unicode="&#x14a;" horiz-adv-x="709" 
d="M385 -208q-69 0 -109 36.5t-42 95.5l52 20q-1 -53 27 -77.5t77 -24.5q53 0 86.5 33.5t44.5 93.5l7 39l-323 608l-109 -616h-54l125 710h48l327 -617l108 617h55l-130 -731q-17 -94 -63.5 -140.5t-126.5 -46.5z" />
    <glyph glyph-name="eng" unicode="&#x14b;" horiz-adv-x="559" 
d="M437 -14q-18 -97 -67.5 -148t-137.5 -51q-27 0 -51.5 5.5t-40.5 15.5l20 46q36 -17 74 -17q63 0 99.5 38.5t50.5 114.5l56 309q15 81 -4.5 117.5t-77.5 36.5q-59 0 -110 -47t-91.5 -146.5t-67.5 -259.5h-54l57 324q8 44 14 86.5t9 84.5h53q-2 -39 -9.5 -90.5
t-22.5 -109.5q41 103 101.5 156t136.5 53t108 -50t14 -149z" />
    <glyph glyph-name="Omacron" unicode="&#x14c;" horiz-adv-x="767" 
d="M341 -8q-128 0 -198 71t-70 197q0 91 29.5 173.5t83 147t126.5 102t161 37.5q81 0 138.5 -33.5t88 -95.5t30.5 -146q0 -89 -28 -170.5t-79.5 -145t-123 -100.5t-158.5 -37zM345 46q76 0 136 33.5t102.5 90t65.5 128.5t23 149q0 103 -52.5 161t-149.5 58q-77 0 -139 -33.5
t-106.5 -91t-68.5 -130t-24 -150.5q0 -103 54.5 -159t158.5 -56zM343 858h294l-7 -41h-294z" />
    <glyph glyph-name="omacron" unicode="&#x14d;" horiz-adv-x="561" 
d="M330 504q82 0 130.5 -49.5t48.5 -138.5q0 -68 -21 -126.5t-58.5 -103t-87 -69.5t-106.5 -25q-86 0 -135 49.5t-49 139.5q0 63 19.5 121t56 103.5t88 72t114.5 26.5zM239 43q63 0 111 38t75.5 100t27.5 133q0 68 -33.5 104t-94.5 36q-64 0 -113.5 -37.5t-77 -99
t-27.5 -134.5q0 -68 34.5 -104t97.5 -36zM203 642h294l-7 -40h-294z" />
    <glyph glyph-name="Obreve" unicode="&#x14e;" horiz-adv-x="767" 
d="M341 -8q-128 0 -198 71t-70 197q0 91 29.5 173.5t83 147t126.5 102t161 37.5q81 0 138.5 -33.5t88 -95.5t30.5 -146q0 -89 -28 -170.5t-79.5 -145t-123 -100.5t-158.5 -37zM345 46q76 0 136 33.5t102.5 90t65.5 128.5t23 149q0 103 -52.5 161t-149.5 58q-77 0 -139 -33.5
t-106.5 -91t-68.5 -130t-24 -150.5q0 -103 54.5 -159t158.5 -56zM621 965l41 -10q-18 -79 -67 -125.5t-112 -46.5q-66 0 -100.5 46.5t-29.5 125.5l43 10q-9 -139 91 -139q96 0 134 139z" />
    <glyph glyph-name="obreve" unicode="&#x14f;" horiz-adv-x="561" 
d="M330 504q82 0 130.5 -49.5t48.5 -138.5q0 -68 -21 -126.5t-58.5 -103t-87 -69.5t-106.5 -25q-86 0 -135 49.5t-49 139.5q0 63 19.5 121t56 103.5t88 72t114.5 26.5zM239 43q63 0 111 38t75.5 100t27.5 133q0 68 -33.5 104t-94.5 36q-64 0 -113.5 -37.5t-77 -99
t-27.5 -134.5q0 -68 34.5 -104t97.5 -36zM481 750l41 -10q-18 -79 -67 -125.5t-112 -46.5q-66 0 -100.5 46.5t-29.5 125.5l43 10q-9 -139 91 -139q96 0 134 139z" />
    <glyph glyph-name="Ohungarumlaut" unicode="&#x150;" horiz-adv-x="767" 
d="M341 -8q-128 0 -198 71t-70 197q0 91 29.5 173.5t83 147t126.5 102t161 37.5q81 0 138.5 -33.5t88 -95.5t30.5 -146q0 -89 -28 -170.5t-79.5 -145t-123 -100.5t-158.5 -37zM345 46q76 0 136 33.5t102.5 90t65.5 128.5t23 149q0 103 -52.5 161t-149.5 58q-77 0 -139 -33.5
t-106.5 -91t-68.5 -130t-24 -150.5q0 -103 54.5 -159t158.5 -56zM558 788h-45l96 177l53 -18zM441 788h-44l96 177l52 -18z" />
    <glyph glyph-name="ohungarumlaut" unicode="&#x151;" horiz-adv-x="561" 
d="M330 504q82 0 130.5 -49.5t48.5 -138.5q0 -68 -21 -126.5t-58.5 -103t-87 -69.5t-106.5 -25q-86 0 -135 49.5t-49 139.5q0 63 19.5 121t56 103.5t88 72t114.5 26.5zM239 43q63 0 111 38t75.5 100t27.5 133q0 68 -33.5 104t-94.5 36q-64 0 -113.5 -37.5t-77 -99
t-27.5 -134.5q0 -68 34.5 -104t97.5 -36zM418 573h-45l96 177l53 -18zM301 573h-44l96 177l52 -18z" />
    <glyph glyph-name="OE" unicode="&#x152;" horiz-adv-x="987" 
d="M397 -4q-148 0 -235 70.5t-87 208.5q0 94 28.5 174t85.5 140t141 93t195 33q42 0 84.5 -2.5t69.5 -2.5h337l-9 -49h-327l-49 -275h321l-8 -49h-321l-51 -288h343l-15 -49h-359q-40 0 -76 -2t-68 -2zM403 46q27 0 56 1t57 2l108 612q-20 1 -41.5 3t-57.5 2
q-125 0 -212.5 -49t-133.5 -137t-46 -204q0 -113 70 -171t200 -59z" />
    <glyph glyph-name="oe" unicode="&#x153;" horiz-adv-x="916" 
d="M330 504q66 0 110 -33.5t58 -95.5q34 58 90.5 93.5t128.5 35.5q79 0 121 -38.5t42 -98.5t-41 -99.5t-132 -44.5l-210 -8q-9 -85 32 -128.5t119 -43.5q43 0 86 18t74 58l32 -34q-37 -47 -87 -70t-110 -23q-75 0 -124 34.5t-65 100.5q-36 -61 -93 -98t-125 -37
q-86 0 -135 49.5t-49 139.5q0 63 19.5 121t56 103.5t88 72t114.5 26.5zM505 264l-1 -2l196 8q72 3 100.5 29t28.5 66t-29.5 66.5t-88.5 26.5q-54 0 -97.5 -26.5t-71.5 -71t-37 -96.5zM239 43q63 0 111 38t75.5 100t27.5 133q0 68 -33.5 104t-94.5 36q-64 0 -113.5 -37.5
t-77 -99t-27.5 -134.5q0 -68 34.5 -104t97.5 -36z" />
    <glyph glyph-name="Racute" unicode="&#x154;" horiz-adv-x="565" 
d="M542 59l10 -43q-32 -21 -76 -21q-39 0 -67 18.5t-51 62.5l-108 213q-9 18 -27 31.5t-42 13.5h-24l-59 -334h-56l125 710h180q106 0 161 -40.5t55 -115.5q0 -69 -34 -118t-93 -75t-134 -26h-29q13 -8 24 -22.5t22 -36.5l81 -161q23 -44 41 -57.5t48 -13.5q16 0 29 4.5
t24 10.5zM343 662h-129l-49 -282h128q96 0 154 40.5t58 127.5q0 114 -162 114zM369 788l144 177l57 -18l-147 -159h-54z" />
    <glyph glyph-name="racute" unicode="&#x155;" horiz-adv-x="366" 
d="M378 443q-10 3 -19 4.5t-21 1.5q-87 0 -147.5 -108t-101.5 -341h-54l57 324q7 43 13 86t9 85h54q-3 -37 -10 -85.5t-17 -98.5q43 107 98 150t111 43q13 0 25 -1.5t20 -5.5zM241 573l144 177l57 -18l-147 -159h-54z" />
    <glyph glyph-name="uni0156" unicode="&#x156;" horiz-adv-x="565" 
d="M542 59l10 -43q-32 -21 -76 -21q-39 0 -67 18.5t-51 62.5l-108 213q-9 18 -27 31.5t-42 13.5h-24l-59 -334h-56l125 710h180q106 0 161 -40.5t55 -115.5q0 -69 -34 -118t-93 -75t-134 -26h-29q13 -8 24 -22.5t22 -36.5l81 -161q23 -44 41 -57.5t48 -13.5q16 0 29 4.5
t24 10.5zM343 662h-129l-49 -282h128q96 0 154 40.5t58 127.5q0 114 -162 114zM167 -276q16 20 25 42t9 41q0 12 -2 23t-2 21q0 24 12 39t31 15q33 0 33 -38q0 -25 -19.5 -67t-52.5 -76h-34z" />
    <glyph glyph-name="uni0157" unicode="&#x157;" horiz-adv-x="366" 
d="M378 443q-10 3 -19 4.5t-21 1.5q-87 0 -147.5 -108t-101.5 -341h-54l57 324q7 43 13 86t9 85h54q-3 -37 -10 -85.5t-17 -98.5q43 107 98 150t111 43q13 0 25 -1.5t20 -5.5zM-31 -276q16 20 25 42t9 41q0 12 -2 23t-2 21q0 24 12 39t31 15q33 0 33 -38q0 -25 -19.5 -67
t-52.5 -76h-34z" />
    <glyph glyph-name="Rcaron" unicode="&#x158;" horiz-adv-x="565" 
d="M542 59l10 -43q-32 -21 -76 -21q-39 0 -67 18.5t-51 62.5l-108 213q-9 18 -27 31.5t-42 13.5h-24l-59 -334h-56l125 710h180q106 0 161 -40.5t55 -115.5q0 -69 -34 -118t-93 -75t-134 -26h-29q13 -8 24 -22.5t22 -36.5l81 -161q23 -44 41 -57.5t48 -13.5q16 0 29 4.5
t24 10.5zM343 662h-129l-49 -282h128q96 0 154 40.5t58 127.5q0 114 -162 114zM375 788l-95 167l45 10l78 -137l127 137l47 -10l-155 -167h-47z" />
    <glyph glyph-name="rcaron" unicode="&#x159;" horiz-adv-x="366" 
d="M378 443q-10 3 -19 4.5t-21 1.5q-87 0 -147.5 -108t-101.5 -341h-54l57 324q7 43 13 86t9 85h54q-3 -37 -10 -85.5t-17 -98.5q43 107 98 150t111 43q13 0 25 -1.5t20 -5.5zM247 573l-95 167l45 10l78 -138l127 138l47 -10l-155 -167h-47z" />
    <glyph glyph-name="Sacute" unicode="&#x15a;" horiz-adv-x="558" 
d="M255 -8q-115 0 -173 54.5t-55 163.5l56 7q0 -93 41 -133t135 -40q88 0 139.5 41.5t51.5 115.5q0 37 -18 58.5t-47 34t-64 21.5t-69.5 19.5t-64 28.5t-47 49.5t-17.5 80.5q0 68 32 119t88 79.5t127 28.5q93 0 142.5 -48.5t48.5 -139.5l-52 -8q0 75 -34.5 110t-105.5 35
q-85 0 -136.5 -47.5t-51.5 -124.5q0 -39 17.5 -62.5t47 -37t64 -23t69.5 -19.5t64 -27t47 -46t18 -76q0 -66 -33 -114t-90.5 -74t-129.5 -26zM350 788l144 177l57 -18l-147 -159h-54z" />
    <glyph glyph-name="sacute" unicode="&#x15b;" horiz-adv-x="444" 
d="M195 -8q-176 0 -176 148l50 11q0 -59 30 -86t97 -27q58 0 97 26t39 73q0 27 -17.5 42t-46 24t-60 17.5t-59.5 21.5t-46 36.5t-18 63.5q0 50 26 86t69.5 55.5t93.5 19.5q64 0 102.5 -32.5t42.5 -92.5l-48 -12q-5 91 -98 91q-59 0 -96 -30t-37 -78q0 -30 18 -47.5t46 -27.5
t59.5 -18t59.5 -20.5t46 -34.5t18 -59q0 -46 -27 -79.5t-70.5 -52t-94.5 -18.5zM256 573l144 177l57 -18l-147 -159h-54z" />
    <glyph glyph-name="Scircumflex" unicode="&#x15c;" horiz-adv-x="558" 
d="M255 -8q-115 0 -173 54.5t-55 163.5l56 7q0 -93 41 -133t135 -40q88 0 139.5 41.5t51.5 115.5q0 37 -18 58.5t-47 34t-64 21.5t-69.5 19.5t-64 28.5t-47 49.5t-17.5 80.5q0 68 32 119t88 79.5t127 28.5q93 0 142.5 -48.5t48.5 -139.5l-52 -8q0 75 -34.5 110t-105.5 35
q-85 0 -136.5 -47.5t-51.5 -124.5q0 -39 17.5 -62.5t47 -37t64 -23t69.5 -19.5t64 -27t47 -46t18 -76q0 -66 -33 -114t-90.5 -74t-129.5 -26zM528 788h-51l-71 128l-118 -128h-57l155 167h47z" />
    <glyph glyph-name="scircumflex" unicode="&#x15d;" horiz-adv-x="444" 
d="M195 -8q-176 0 -176 148l50 11q0 -59 30 -86t97 -27q58 0 97 26t39 73q0 27 -17.5 42t-46 24t-60 17.5t-59.5 21.5t-46 36.5t-18 63.5q0 50 26 86t69.5 55.5t93.5 19.5q64 0 102.5 -32.5t42.5 -92.5l-48 -12q-5 91 -98 91q-59 0 -96 -30t-37 -78q0 -30 18 -47.5t46 -27.5
t59.5 -18t59.5 -20.5t46 -34.5t18 -59q0 -46 -27 -79.5t-70.5 -52t-94.5 -18.5zM434 573h-51l-71 128l-118 -128h-57l155 167h47z" />
    <glyph glyph-name="Scedilla" unicode="&#x15e;" horiz-adv-x="558" 
d="M255 -8q-115 0 -173 54.5t-55 163.5l56 7q0 -93 41 -133t135 -40q88 0 139.5 41.5t51.5 115.5q0 37 -18 58.5t-47 34t-64 21.5t-69.5 19.5t-64 28.5t-47 49.5t-17.5 80.5q0 68 32 119t88 79.5t127 28.5q93 0 142.5 -48.5t48.5 -139.5l-52 -8q0 75 -34.5 110t-105.5 35
q-85 0 -136.5 -47.5t-51.5 -124.5q0 -39 17.5 -62.5t47 -37t64 -23t69.5 -19.5t64 -27t47 -46t18 -76q0 -66 -33 -114t-90.5 -74t-129.5 -26zM182 -223q-30 0 -50 6t-38 17l18 34q17 -10 34 -15t38 -5q30 0 49.5 14.5t19.5 39.5q0 37 -56 37h-36l77 113h46l-53 -78
q32 -5 50.5 -22.5t18.5 -45.5q0 -44 -35.5 -69.5t-82.5 -25.5z" />
    <glyph glyph-name="scedilla" unicode="&#x15f;" horiz-adv-x="444" 
d="M195 -8q-176 0 -176 148l50 11q0 -59 30 -86t97 -27q58 0 97 26t39 73q0 27 -17.5 42t-46 24t-60 17.5t-59.5 21.5t-46 36.5t-18 63.5q0 50 26 86t69.5 55.5t93.5 19.5q64 0 102.5 -32.5t42.5 -92.5l-48 -12q-5 91 -98 91q-59 0 -96 -30t-37 -78q0 -30 18 -47.5t46 -27.5
t59.5 -18t59.5 -20.5t46 -34.5t18 -59q0 -46 -27 -79.5t-70.5 -52t-94.5 -18.5zM126 -223q-30 0 -50 6t-38 17l18 34q17 -10 34 -15t38 -5q30 0 49.5 14.5t19.5 39.5q0 37 -56 37h-36l77 113h46l-53 -78q32 -5 50.5 -22.5t18.5 -45.5q0 -44 -35.5 -69.5t-82.5 -25.5z" />
    <glyph glyph-name="Scaron" unicode="&#x160;" horiz-adv-x="558" 
d="M255 -8q-115 0 -173 54.5t-55 163.5l56 7q0 -93 41 -133t135 -40q88 0 139.5 41.5t51.5 115.5q0 37 -18 58.5t-47 34t-64 21.5t-69.5 19.5t-64 28.5t-47 49.5t-17.5 80.5q0 68 32 119t88 79.5t127 28.5q93 0 142.5 -48.5t48.5 -139.5l-52 -8q0 75 -34.5 110t-105.5 35
q-85 0 -136.5 -47.5t-51.5 -124.5q0 -39 17.5 -62.5t47 -37t64 -23t69.5 -19.5t64 -27t47 -46t18 -76q0 -66 -33 -114t-90.5 -74t-129.5 -26zM356 788l-95 167l45 10l78 -137l127 137l47 -10l-155 -167h-47z" />
    <glyph glyph-name="scaron" unicode="&#x161;" horiz-adv-x="444" 
d="M195 -8q-176 0 -176 148l50 11q0 -59 30 -86t97 -27q58 0 97 26t39 73q0 27 -17.5 42t-46 24t-60 17.5t-59.5 21.5t-46 36.5t-18 63.5q0 50 26 86t69.5 55.5t93.5 19.5q64 0 102.5 -32.5t42.5 -92.5l-48 -12q-5 91 -98 91q-59 0 -96 -30t-37 -78q0 -30 18 -47.5t46 -27.5
t59.5 -18t59.5 -20.5t46 -34.5t18 -59q0 -46 -27 -79.5t-70.5 -52t-94.5 -18.5zM262 573l-95 167l45 10l78 -138l127 138l47 -10l-155 -167h-47z" />
    <glyph glyph-name="uni0162" unicode="&#x162;" horiz-adv-x="535" 
d="M611 710l-13 -49h-229l-117 -661h-58l117 661h-234l9 49h525zM165 -223q-30 0 -50 6t-38 17l18 34q17 -10 34 -15t38 -5q30 0 49.5 14.5t19.5 39.5q0 37 -56 37h-36l77 113h46l-53 -78q32 -5 50.5 -22.5t18.5 -45.5q0 -44 -35.5 -69.5t-82.5 -25.5z" />
    <glyph glyph-name="uni0163" unicode="&#x163;" horiz-adv-x="354" 
d="M213 -8q-79 0 -113 46.5t-20 123.5l54 286h-89l8 47h90l19 104h55l-19 -104h176l-9 -47h-176l-55 -291q-10 -55 11 -85t75 -30q25 0 46 6t45 23l14 -43q-22 -19 -51.5 -27.5t-60.5 -8.5zM125 -223q-30 0 -50 6t-38 17l18 34q17 -10 34 -15t38 -5q30 0 49.5 14.5
t19.5 39.5q0 37 -56 37h-36l77 113h46l-53 -78q32 -5 50.5 -22.5t18.5 -45.5q0 -44 -35.5 -69.5t-82.5 -25.5z" />
    <glyph glyph-name="Tcaron" unicode="&#x164;" horiz-adv-x="535" 
d="M611 710l-13 -49h-229l-117 -661h-58l117 661h-234l9 49h525zM340 788l-95 167l45 10l78 -137l127 137l47 -10l-155 -167h-47z" />
    <glyph glyph-name="tcaron" unicode="&#x165;" horiz-adv-x="354" 
d="M213 -8q-79 0 -113 46.5t-20 123.5l54 286h-89l8 47h90l19 104h55l-19 -104h176l-9 -47h-176l-55 -291q-10 -55 11 -85t75 -30q25 0 46 6t45 23l14 -43q-22 -19 -51.5 -27.5t-60.5 -8.5zM262 548l40 232h53l-56 -232h-37z" />
    <glyph glyph-name="Tbar" unicode="&#x166;" horiz-adv-x="535" 
d="M611 710l-13 -49h-229l-117 -661h-58l117 661h-234l9 49h525zM101 338l6 44h365l-6 -44h-365z" />
    <glyph glyph-name="tbar" unicode="&#x167;" horiz-adv-x="354" 
d="M213 -8q-79 0 -113 46.5t-20 123.5l54 286h-89l8 47h90l19 104h55l-19 -104h176l-9 -47h-176l-55 -291q-10 -55 11 -85t75 -30q25 0 46 6t45 23l14 -43q-22 -19 -51.5 -27.5t-60.5 -8.5zM37 257l7 40h279l-7 -40h-279z" />
    <glyph glyph-name="Utilde" unicode="&#x168;" horiz-adv-x="713" 
d="M654 710h57l-64 -367q-31 -184 -109.5 -267.5t-220.5 -83.5q-136 0 -193.5 80t-30.5 232l71 406h59l-71 -403q-23 -132 18 -196.5t149 -64.5q79 0 132.5 30t87 95.5t51.5 172.5zM536 785q-19 0 -39.5 9.5t-41 22.5t-39.5 22.5t-36 9.5q-21 0 -39 -17t-29 -46l-28 17
q15 42 42 65.5t61 23.5q19 0 39 -9.5t41 -22.5t40 -22.5t36 -9.5q21 0 39 17t30 46l28 -17q-15 -42 -42.5 -65.5t-61.5 -23.5z" />
    <glyph glyph-name="utilde" unicode="&#x169;" horiz-adv-x="550" 
d="M181 -8q-71 0 -103 49.5t-15 144.5l26 138q16 89 22 171h55q-3 -42 -9.5 -88.5t-13.5 -84.5l-25 -132q-14 -76 6 -111t76 -35q84 0 153 107t110 344h52l-58 -326q-7 -46 -12.5 -94.5t-5.5 -74.5h-54q1 35 6.5 80t20.5 110q-41 -97 -99.5 -147.5t-131.5 -50.5zM416 569
q-19 0 -39.5 10t-41 22.5t-39.5 22t-36 9.5q-21 0 -39 -17t-29 -45l-28 17q15 41 42 65t61 24q19 0 39 -10t41 -22.5t40 -22.5t36 -10q21 0 39 17.5t30 46.5l28 -18q-15 -42 -42.5 -65.5t-61.5 -23.5z" />
    <glyph glyph-name="Umacron" unicode="&#x16a;" horiz-adv-x="713" 
d="M654 710h57l-64 -367q-31 -184 -109.5 -267.5t-220.5 -83.5q-136 0 -193.5 80t-30.5 232l71 406h59l-71 -403q-23 -132 18 -196.5t149 -64.5q79 0 132.5 30t87 95.5t51.5 172.5zM318 858h294l-7 -41h-294z" />
    <glyph glyph-name="umacron" unicode="&#x16b;" horiz-adv-x="550" 
d="M181 -8q-71 0 -103 49.5t-15 144.5l26 138q16 89 22 171h55q-3 -42 -9.5 -88.5t-13.5 -84.5l-25 -132q-14 -76 6 -111t76 -35q84 0 153 107t110 344h52l-58 -326q-7 -46 -12.5 -94.5t-5.5 -74.5h-54q1 35 6.5 80t20.5 110q-41 -97 -99.5 -147.5t-131.5 -50.5zM198 642
h294l-7 -40h-294z" />
    <glyph glyph-name="Ubreve" unicode="&#x16c;" horiz-adv-x="713" 
d="M654 710h57l-64 -367q-31 -184 -109.5 -267.5t-220.5 -83.5q-136 0 -193.5 80t-30.5 232l71 406h59l-71 -403q-23 -132 18 -196.5t149 -64.5q79 0 132.5 30t87 95.5t51.5 172.5zM596 965l41 -10q-18 -79 -67 -125.5t-112 -46.5q-66 0 -100.5 46.5t-29.5 125.5l43 10
q-9 -139 91 -139q96 0 134 139z" />
    <glyph glyph-name="ubreve" unicode="&#x16d;" horiz-adv-x="550" 
d="M181 -8q-71 0 -103 49.5t-15 144.5l26 138q16 89 22 171h55q-3 -42 -9.5 -88.5t-13.5 -84.5l-25 -132q-14 -76 6 -111t76 -35q84 0 153 107t110 344h52l-58 -326q-7 -46 -12.5 -94.5t-5.5 -74.5h-54q1 35 6.5 80t20.5 110q-41 -97 -99.5 -147.5t-131.5 -50.5zM476 750
l41 -10q-18 -79 -67 -125.5t-112 -46.5q-66 0 -100.5 46.5t-29.5 125.5l43 10q-9 -139 91 -139q96 0 134 139z" />
    <glyph glyph-name="Uring" unicode="&#x16e;" horiz-adv-x="713" 
d="M654 710h57l-64 -367q-31 -184 -109.5 -267.5t-220.5 -83.5q-136 0 -193.5 80t-30.5 232l71 406h59l-71 -403q-23 -132 18 -196.5t149 -64.5q79 0 132.5 30t87 95.5t51.5 172.5zM468 783q-42 0 -70.5 27.5t-28.5 69.5t30 70.5t73 28.5t70.5 -27t27.5 -68q0 -43 -29 -72
t-73 -29zM469 816q29 0 47 18.5t18 49.5q0 28 -17.5 45t-45.5 17q-30 0 -48 -19t-18 -47q0 -29 18 -46.5t46 -17.5z" />
    <glyph glyph-name="uring" unicode="&#x16f;" horiz-adv-x="550" 
d="M181 -8q-71 0 -103 49.5t-15 144.5l26 138q16 89 22 171h55q-3 -42 -9.5 -88.5t-13.5 -84.5l-25 -132q-14 -76 6 -111t76 -35q84 0 153 107t110 344h52l-58 -326q-7 -46 -12.5 -94.5t-5.5 -74.5h-54q1 35 6.5 80t20.5 110q-41 -97 -99.5 -147.5t-131.5 -50.5zM348 568
q-42 0 -70.5 27.5t-28.5 68.5q0 42 30 70.5t73 28.5t70.5 -27t27.5 -68q0 -43 -29 -71.5t-73 -28.5zM349 601q29 0 47 18.5t18 48.5q0 29 -17.5 46t-45.5 17q-30 0 -48 -19t-18 -48q0 -28 18 -45.5t46 -17.5z" />
    <glyph glyph-name="Uhungarumlaut" unicode="&#x170;" horiz-adv-x="713" 
d="M654 710h57l-64 -367q-31 -184 -109.5 -267.5t-220.5 -83.5q-136 0 -193.5 80t-30.5 232l71 406h59l-71 -403q-23 -132 18 -196.5t149 -64.5q79 0 132.5 30t87 95.5t51.5 172.5zM533 788h-45l96 177l53 -18zM416 788h-44l96 177l52 -18z" />
    <glyph glyph-name="uhungarumlaut" unicode="&#x171;" horiz-adv-x="550" 
d="M181 -8q-71 0 -103 49.5t-15 144.5l26 138q16 89 22 171h55q-3 -42 -9.5 -88.5t-13.5 -84.5l-25 -132q-14 -76 6 -111t76 -35q84 0 153 107t110 344h52l-58 -326q-7 -46 -12.5 -94.5t-5.5 -74.5h-54q1 35 6.5 80t20.5 110q-41 -97 -99.5 -147.5t-131.5 -50.5zM413 573
h-45l96 177l53 -18zM296 573h-44l96 177l52 -18z" />
    <glyph glyph-name="Uogonek" unicode="&#x172;" horiz-adv-x="713" 
d="M654 710h57l-64 -367q-25 -150 -81 -232t-151 -107q-47 -13 -82 -36.5t-54 -52t-19 -55.5q0 -20 12.5 -31.5t35.5 -11.5q36 0 72 40l18 -30q-17 -22 -44 -36t-54 -14q-42 0 -65.5 21t-23.5 56q0 39 28 76t70 63q-132 2 -187.5 81.5t-28.5 229.5l71 406h59l-71 -403
q-23 -132 18 -196.5t149 -64.5q79 0 132.5 30t87 95.5t51.5 172.5z" />
    <glyph glyph-name="uogonek" unicode="&#x173;" horiz-adv-x="550" 
d="M181 -8q-71 0 -103 49.5t-15 144.5l26 138q16 89 22 171h55q-3 -42 -9.5 -88.5t-13.5 -84.5l-25 -132q-14 -76 6 -111t76 -35q84 0 153 107t110 344h52l-58 -326q-7 -46 -12.5 -94.5t-5.5 -74.5h-54q1 35 6.5 80t20.5 110q-41 -97 -99.5 -147.5t-131.5 -50.5zM345 -223
q-41 0 -65 21t-24 56q0 33 20.5 65t54 57.5t73.5 41.5l35 -18q-61 -26 -97 -63.5t-36 -76.5q0 -20 12 -31.5t35 -11.5q36 0 72 40l19 -30q-18 -22 -45 -36t-54 -14z" />
    <glyph glyph-name="Wcircumflex" unicode="&#x174;" horiz-adv-x="917" 
d="M917 710h59l-332 -710h-68l-45 624l-294 -624h-67l-50 710h54l41 -644l303 644h57l46 -645zM712 788h-51l-71 128l-118 -128h-57l155 167h47z" />
    <glyph glyph-name="wcircumflex" unicode="&#x175;" horiz-adv-x="825" 
d="M799 495h59l-275 -495h-61l-65 424l-238 -424h-61l-69 495h55l56 -435l242 435h56l63 -436zM636 573h-51l-71 128l-118 -128h-57l155 167h47z" />
    <glyph glyph-name="Ycircumflex" unicode="&#x176;" horiz-adv-x="533" 
d="M636 710l-328 -388l-57 -322h-58l58 324l-191 386h61l166 -336l284 336h65zM512 788h-51l-71 128l-118 -128h-57l155 167h47z" />
    <glyph glyph-name="ycircumflex" unicode="&#x177;" horiz-adv-x="555" 
d="M170 -210q-42 0 -83 8.5t-68 25.5l15 50q27 -15 63.5 -24.5t73.5 -9.5q97 0 147.5 49.5t71.5 161.5l28 142q-46 -104 -104.5 -148.5t-122.5 -44.5q-76 0 -110 49.5t-18 138.5l26 136q16 86 22 171h55q-3 -42 -9.5 -88.5t-13.5 -84.5l-24 -125q-13 -71 6.5 -108.5
t76.5 -37.5q56 0 105.5 42t90.5 139.5t70 262.5h52l-77 -436q-25 -143 -90.5 -206t-182.5 -63zM484 573h-51l-71 128l-118 -128h-57l155 167h47z" />
    <glyph glyph-name="Ydieresis" unicode="&#x178;" horiz-adv-x="533" 
d="M636 710l-328 -388l-57 -322h-58l58 324l-191 386h61l166 -336l284 336h65zM451 784q-18 0 -28.5 10.5t-10.5 26.5t10.5 26t28.5 10q16 0 26 -10t10 -26t-10 -26.5t-26 -10.5zM289 784q-17 0 -27.5 10.5t-10.5 26.5t10.5 26t27.5 10t27 -10t10 -26t-10 -26.5t-27 -10.5z
" />
    <glyph glyph-name="Zacute" unicode="&#x179;" horiz-adv-x="587" 
d="M-3 0l8 41l544 620h-421l9 49h498l-8 -41l-544 -620h447l-15 -49h-518zM367 788l144 177l57 -18l-147 -159h-54z" />
    <glyph glyph-name="zacute" unicode="&#x17a;" horiz-adv-x="452" 
d="M-1 0l6 37l364 411h-279l9 47h350l-6 -38l-364 -410h289l-8 -47h-361zM259 573l144 177l57 -18l-147 -159h-54z" />
    <glyph glyph-name="Zdotaccent" unicode="&#x17b;" horiz-adv-x="587" 
d="M-3 0l8 41l544 620h-421l9 49h498l-8 -41l-544 -620h447l-15 -49h-518zM407 806q-19 0 -29.5 12t-10.5 28t11.5 28t28.5 12q19 0 29.5 -12t10.5 -28t-10.5 -28t-29.5 -12z" />
    <glyph glyph-name="zdotaccent" unicode="&#x17c;" horiz-adv-x="452" 
d="M-1 0l6 37l364 411h-279l9 47h350l-6 -38l-364 -410h289l-8 -47h-361zM299 591q-19 0 -29.5 12t-10.5 28t11.5 27.5t28.5 11.5q19 0 29.5 -11.5t10.5 -27.5t-10.5 -28t-29.5 -12z" />
    <glyph glyph-name="Zcaron" unicode="&#x17d;" horiz-adv-x="587" 
d="M-3 0l8 41l544 620h-421l9 49h498l-8 -41l-544 -620h447l-15 -49h-518zM373 788l-95 167l45 10l78 -137l127 137l47 -10l-155 -167h-47z" />
    <glyph glyph-name="zcaron" unicode="&#x17e;" horiz-adv-x="452" 
d="M-1 0l6 37l364 411h-279l9 47h350l-6 -38l-364 -410h289l-8 -47h-361zM265 573l-95 167l45 10l78 -138l127 138l47 -10l-155 -167h-47z" />
    <glyph glyph-name="uni018F" unicode="&#x18f;" horiz-adv-x="747" 
d="M450 720q81 0 139.5 -33.5t89.5 -95.5t31 -146q0 -89 -28 -170.5t-79.5 -145t-123 -100.5t-158.5 -37q-102 0 -165.5 47t-82 133t14.5 202h558q23 142 -33 217t-169 75q-151 0 -250 -122l-39 34q53 71 130.5 106.5t164.5 35.5zM328 45q74 0 136.5 33.5t107.5 96t65 150.5
h-502q-19 -84 -4 -147t64.5 -98t132.5 -35z" />
    <glyph glyph-name="florin" unicode="&#x192;" horiz-adv-x="600" 
d="M67 -213q-27 0 -51.5 5t-41.5 16l16 46q35 -17 77 -17q63 0 99.5 43t49.5 131l65 437h-103l8 47h102l6 43q16 106 71.5 159t135.5 53q66 0 100 -33.5t31 -91.5l-48 -5q4 82 -87 82q-58 0 -97 -39.5t-52 -118.5l-8 -49h178l-8 -47h-176l-64 -443q-16 -110 -70.5 -164
t-132.5 -54z" />
    <glyph glyph-name="Ohorn" unicode="&#x1a0;" horiz-adv-x="767" 
d="M341 -8q-128 0 -198 71t-70 197q0 91 29.5 173.5t83 147t126.5 102t161 37.5q81 0 138.5 -33.5t88 -95.5t30.5 -146q0 -89 -28 -170.5t-79.5 -145t-123 -100.5t-158.5 -37zM345 46q76 0 136 33.5t102.5 90t65.5 128.5t23 149q0 103 -52.5 161t-149.5 58q-77 0 -139 -33.5
t-106.5 -91t-68.5 -130t-24 -150.5q0 -103 54.5 -159t158.5 -56zM636 707q52 0 73.5 26t21.5 82l46 -4q3 -66 -32.5 -108t-99.5 -42h-88l-34 55q37 -5 65 -7t48 -2z" />
    <glyph glyph-name="ohorn" unicode="&#x1a1;" horiz-adv-x="561" 
d="M330 504q82 0 130.5 -49.5t48.5 -138.5q0 -68 -21 -126.5t-58.5 -103t-87 -69.5t-106.5 -25q-86 0 -135 49.5t-49 139.5q0 63 19.5 121t56 103.5t88 72t114.5 26.5zM239 43q63 0 111 38t75.5 100t27.5 133q0 68 -33.5 104t-94.5 36q-64 0 -113.5 -37.5t-77 -99
t-27.5 -134.5q0 -68 34.5 -104t97.5 -36zM437 494q50 0 70.5 25t20.5 81l48 -4q3 -66 -32.5 -107.5t-101.5 -41.5h-40l-26 52q17 -2 33 -3.5t28 -1.5z" />
    <glyph glyph-name="Uhorn" unicode="&#x1af;" horiz-adv-x="713" 
d="M843 811q3 -67 -30.5 -106.5t-98.5 -39.5h-11l-56 -322q-32 -184 -110 -267.5t-220 -83.5q-136 0 -193.5 80t-30.5 232l71 406h59l-71 -403q-23 -132 18 -196.5t149 -64.5q79 0 132.5 30t87 95.5t51.5 172.5l64 366h42q56 0 78 21.5t24 84.5z" />
    <glyph glyph-name="uhorn" unicode="&#x1b0;" horiz-adv-x="550" 
d="M181 -8q-71 0 -103 49.5t-15 144.5l26 138q16 89 22 171h55q-3 -42 -9.5 -88.5t-13.5 -84.5l-25 -132q-14 -76 6 -111t76 -35q84 0 153 107t110 344h24q51 0 75.5 24.5t33.5 80.5l46 -4q-7 -59 -43 -97.5t-92 -46.5l-50 -283q-7 -46 -12.5 -94.5t-5.5 -74.5h-54
q1 35 6.5 80t20.5 110q-41 -97 -99.5 -147.5t-131.5 -50.5z" />
    <glyph glyph-name="uni01C4" unicode="&#x1c4;" horiz-adv-x="1299" 
d="M42 0l125 710h166q175 0 266 -68.5t91 -206.5q0 -132 -54.5 -230t-153 -151.5t-231.5 -53.5h-209zM109 50h143q119 0 204 47.5t130.5 134t45.5 202.5q0 113 -73.5 169.5t-225.5 56.5h-117zM709 0l8 41l544 620h-421l9 49h498l-8 -41l-544 -620h447l-15 -49h-518z
M1085 788l-95 167l45 10l78 -137l127 137l47 -10l-155 -167h-47z" />
    <glyph glyph-name="uni01C5" unicode="&#x1c5;" horiz-adv-x="1174" 
d="M42 0l125 710h166q175 0 266 -68.5t91 -206.5q0 -132 -54.5 -230t-153 -151.5t-231.5 -53.5h-209zM109 50h143q119 0 204 47.5t130.5 134t45.5 202.5q0 113 -73.5 169.5t-225.5 56.5h-117zM721 0l6 37l364 411h-279l9 47h350l-6 -38l-364 -410h289l-8 -47h-361zM987 573
l-95 167l45 10l78 -138l127 138l47 -10l-155 -167h-47z" />
    <glyph glyph-name="uni01C6" unicode="&#x1c6;" horiz-adv-x="1018" 
d="M210 -8q-75 0 -117.5 46.5t-42.5 130.5q0 69 21.5 129.5t60 107t90 72.5t113.5 26q39 0 76 -13t61 -33l6 37l43 245h55l-101 -571q-8 -46 -13 -94.5t-5 -74.5h-54q1 34 5 69t11 73q-36 -73 -91 -111.5t-118 -38.5zM218 43q53 0 99.5 32.5t79.5 90t46 132.5l19 106
q-48 50 -128 50q-68 0 -119 -39.5t-79.5 -104t-28.5 -138.5q0 -62 28.5 -95.5t82.5 -33.5zM566 0l6 37l364 411h-279l9 47h350l-6 -38l-364 -410h289l-8 -47h-361zM832 573l-95 167l45 10l78 -138l127 138l47 -10l-155 -167h-47z" />
    <glyph glyph-name="uni01C7" unicode="&#x1c7;" horiz-adv-x="948" 
d="M42 0l125 710h57l-115 -660h337l-15 -50h-389zM645 -8q-76 0 -118.5 36t-49.5 96l51 20q8 -53 38.5 -76.5t84.5 -23.5q63 0 98.5 37.5t49.5 121.5l90 507h57l-88 -504q-19 -108 -69 -161t-144 -53z" />
    <glyph glyph-name="uni01C8" unicode="&#x1c8;" horiz-adv-x="700" 
d="M42 0l125 710h57l-115 -660h337l-15 -50h-389zM581 324q8 44 13.5 86.5t8.5 84.5h55q-3 -42 -9.5 -88.5t-13.5 -84.5l-60 -336q-17 -97 -67 -148t-138 -51q-27 0 -51.5 5.5t-40.5 15.5l20 46q36 -17 74 -17q123 0 150 153zM661 620q-18 0 -29 12t-11 28t11.5 28t28.5 12
q19 0 29.5 -12t10.5 -28t-10.5 -28t-29.5 -12z" />
    <glyph glyph-name="uni01C9" unicode="&#x1c9;" horiz-adv-x="483" 
d="M147 -8q-52 0 -76.5 32t-16.5 83l112 633h55l-110 -624q-6 -35 5 -55t46 -20q16 0 31 5t25 11l8 -42q-15 -11 -37 -17t-42 -6zM363 324q8 44 13.5 86.5t8.5 84.5h55q-3 -42 -9.5 -88.5t-13.5 -84.5l-60 -336q-17 -97 -67 -148t-138 -51q-27 0 -51.5 5.5t-40.5 15.5l20 46
q36 -17 74 -17q123 0 150 153zM443 620q-18 0 -29 12t-11 28t11.5 28t28.5 12q19 0 29.5 -12t10.5 -28t-10.5 -28t-29.5 -12z" />
    <glyph glyph-name="uni01CA" unicode="&#x1ca;" horiz-adv-x="1144" 
d="M650 710h55l-125 -710h-48l-328 617l-108 -617h-54l125 710h48l327 -617zM841 -8q-76 0 -118.5 36t-49.5 96l51 20q8 -53 38.5 -76.5t84.5 -23.5q63 0 98.5 37.5t49.5 121.5l90 507h57l-88 -504q-19 -108 -69 -161t-144 -53z" />
    <glyph glyph-name="uni01CB" unicode="&#x1cb;" horiz-adv-x="936" 
d="M650 710h55l-125 -710h-48l-328 617l-108 -617h-54l125 710h48l327 -617zM817 324q8 44 13.5 86.5t8.5 84.5h55q-3 -42 -9.5 -88.5t-13.5 -84.5l-60 -336q-17 -97 -67 -148t-138 -51q-27 0 -51.5 5.5t-40.5 15.5l20 46q36 -17 74 -17q123 0 150 153zM897 620
q-18 0 -29 12t-11 28t11.5 28t28.5 12q19 0 29.5 -12t10.5 -28t-10.5 -28t-29.5 -12z" />
    <glyph glyph-name="uni01CC" unicode="&#x1cc;" horiz-adv-x="787" 
d="M35 0l57 324q8 44 14 86.5t9 84.5h53q-2 -39 -9.5 -90.5t-22.5 -109.5q41 103 101.5 156t136.5 53t109.5 -50t12.5 -149l-36 -173q-13 -62 -13 -132h-56q0 63 14 129l35 170q17 81 -3.5 117.5t-78.5 36.5q-59 0 -110 -47t-91.5 -146.5t-67.5 -259.5h-54zM667 324
q8 44 13.5 86.5t8.5 84.5h55q-3 -42 -9.5 -88.5t-13.5 -84.5l-60 -336q-17 -97 -67 -148t-138 -51q-27 0 -51.5 5.5t-40.5 15.5l20 46q36 -17 74 -17q123 0 150 153zM747 620q-18 0 -29 12t-11 28t11.5 28t28.5 12q19 0 29.5 -12t10.5 -28t-10.5 -28t-29.5 -12z" />
    <glyph glyph-name="Gcaron" unicode="&#x1e6;" horiz-adv-x="718" 
d="M431 335h234l-59 -335h-43l9 94q-43 -49 -97 -75.5t-133 -26.5q-129 0 -199 71t-70 197q0 92 29.5 175t83 147t127.5 101t163 37q81 0 140.5 -33.5t86.5 -99.5l-49 -33q-24 56 -68.5 84t-113.5 28q-77 0 -140 -33t-107.5 -89.5t-68.5 -129.5t-24 -153q0 -103 54 -159
t159 -56q104 0 169 53t81 147l8 41h-181zM454 788l-95 167l45 10l78 -137l127 137l47 -10l-155 -167h-47z" />
    <glyph glyph-name="gcaron" unicode="&#x1e7;" horiz-adv-x="571" 
d="M182 -210q-42 0 -84 9t-70 26l19 50q29 -17 65.5 -26t72.5 -9q96 0 147.5 49.5t72.5 161.5l18 95q-37 -72 -92 -109t-118 -37q-75 0 -118.5 44.5t-43.5 128.5q0 68 21.5 128t60 105.5t91 71.5t114.5 26q42 0 82 -15t64 -38l17 44h40q-10 -48 -18 -86t-13 -67l-50 -284
q-25 -140 -89 -204t-189 -64zM218 50q55 0 102 31.5t81 88t47 130.5l18 105q-23 23 -56 36t-74 13q-68 0 -119.5 -39t-80.5 -102t-29 -136q0 -61 29 -94t82 -33zM342 573l-95 167l45 10l78 -138l127 138l47 -10l-155 -167h-47z" />
    <glyph glyph-name="uni01EA" unicode="&#x1ea;" horiz-adv-x="767" 
d="M315 -223q-41 0 -65 21t-24 56q0 39 28 76t71 63q-121 4 -186.5 74t-65.5 193q0 91 29.5 173.5t83 147t126.5 102t161 37.5q81 0 138.5 -33.5t88 -95.5t30.5 -146q0 -77 -20.5 -148t-59.5 -130.5t-93.5 -101.5t-122.5 -60q-51 -13 -86 -37.5t-53.5 -53t-18.5 -54.5
q0 -20 12 -31.5t35 -11.5q37 0 72 40l19 -30q-18 -22 -44.5 -36t-54.5 -14zM345 46q76 0 136 33.5t102.5 90t65.5 128.5t23 149q0 103 -52.5 161t-149.5 58q-77 0 -139 -33.5t-106.5 -91t-68.5 -130t-24 -150.5q0 -103 54.5 -159t158.5 -56z" />
    <glyph glyph-name="uni01EB" unicode="&#x1eb;" horiz-adv-x="561" 
d="M213 -223q-41 0 -65 21t-24 56q0 39 26.5 76t68.5 63q-78 5 -122.5 54t-44.5 134q0 63 19.5 121t56 103.5t88 72t114.5 26.5q82 0 130.5 -49.5t48.5 -138.5q0 -73 -25 -136t-67.5 -108t-97.5 -64q-44 -16 -76.5 -41t-50.5 -53t-18 -54q0 -20 12 -31.5t35 -11.5
q37 0 72 40l19 -30q-18 -22 -44.5 -36t-54.5 -14zM239 43q63 0 111 38t75.5 100t27.5 133q0 68 -33.5 104t-94.5 36q-64 0 -113.5 -37.5t-77 -99t-27.5 -134.5q0 -68 34.5 -104t97.5 -36z" />
    <glyph glyph-name="Aringacute" unicode="&#x1fa;" horiz-adv-x="668" 
d="M-23 0l418 710h51l154 -710h-56l-41 200h-348l-116 -200h-62zM184 249h308l-81 391zM446 783q-42 0 -70.5 27.5t-28.5 69.5t30 70.5t73 28.5q38 0 65 -23l89 82l37 -23l-104 -87q11 -20 11 -44q0 -43 -29 -72t-73 -29zM447 816q29 0 47 18.5t18 49.5q0 28 -17.5 45
t-45.5 17q-30 0 -48 -19t-18 -47q0 -29 18 -46.5t46 -17.5z" />
    <glyph glyph-name="aringacute" unicode="&#x1fb;" horiz-adv-x="567" 
d="M210 -8q-75 0 -117.5 46.5t-42.5 130.5q0 69 21.5 129.5t60 107t90 72.5t113.5 26q42 0 81.5 -15t62.5 -38l17 44h41q-11 -48 -18.5 -86t-13.5 -67l-30 -173q-8 -46 -13 -94.5t-5 -74.5h-54q1 34 5 69t11 73q-36 -73 -91 -111.5t-118 -38.5zM218 43q53 0 99.5 32.5
t79.5 90t46 132.5l19 106q-48 50 -128 50q-68 0 -119 -39.5t-79.5 -104t-28.5 -138.5q0 -62 28.5 -95.5t82.5 -33.5zM380 568q-42 0 -70.5 27.5t-28.5 68.5q0 42 30 70.5t73 28.5q38 0 65 -22l89 81l37 -23l-104 -86q11 -20 11 -45q0 -43 -29 -71.5t-73 -28.5zM381 601
q29 0 47 18.5t18 48.5q0 29 -17.5 46t-45.5 17q-30 0 -48 -19t-18 -48q0 -28 18 -45.5t46 -17.5z" />
    <glyph glyph-name="AEacute" unicode="&#x1fc;" horiz-adv-x="883" 
d="M-23 0l418 710h517l-9 -49h-327l-49 -275h321l-8 -49h-321l-51 -288h343l-15 -49h-393l35 201h-283l-116 -201h-62zM183 249h264l72 412h-97zM541 788l144 177l57 -18l-147 -159h-54z" />
    <glyph glyph-name="aeacute" unicode="&#x1fd;" horiz-adv-x="866" 
d="M186 -8q-73 0 -115 33.5t-42 90.5q0 74 56 115.5t145 41.5h169l6 33q12 73 -13.5 111t-93.5 38q-63 0 -106 -31.5t-62 -89.5l-50 9q23 74 83 117.5t142 43.5q67 0 106 -31t46 -86q36 55 91.5 86t118.5 31q79 0 121 -38.5t42 -98.5t-40.5 -99.5t-124.5 -39.5h-217
q-13 -92 28 -138.5t122 -46.5q43 0 86 18t74 58l32 -34q-37 -47 -87 -70t-110 -23q-81 0 -128.5 37t-60.5 96q-33 -61 -91.5 -97t-126.5 -36zM661 458q-53 0 -95 -25t-70.5 -67.5t-38.5 -92.5h204q60 0 89 25t29 67q0 40 -29.5 66.5t-88.5 26.5zM192 40q50 0 91.5 22.5
t69 62.5t36.5 92l2 10h-163q-65 0 -103.5 -27.5t-38.5 -78.5q0 -39 28 -60t78 -21zM452 573l144 177l57 -18l-147 -159h-54z" />
    <glyph glyph-name="Oslashacute" unicode="&#x1fe;" horiz-adv-x="767" 
d="M341 -8q-128 0 -198 71t-70 197q0 91 29.5 173.5t83 147t126.5 102t161 37.5q81 0 138.5 -33.5t88 -95.5t30.5 -146q0 -89 -28 -170.5t-79.5 -145t-123 -100.5t-158.5 -37zM345 46q76 0 136 33.5t102.5 90t65.5 128.5t23 149q0 103 -52.5 161t-149.5 58q-77 0 -139 -33.5
t-106.5 -91t-68.5 -130t-24 -150.5q0 -103 54.5 -159t158.5 -56zM113 21l-34 32l612 636l34 -32zM448 788l144 177l57 -18l-147 -159h-54z" />
    <glyph glyph-name="oslashacute" unicode="&#x1ff;" horiz-adv-x="561" 
d="M330 504q82 0 130.5 -49.5t48.5 -138.5q0 -68 -21 -126.5t-58.5 -103t-87 -69.5t-106.5 -25q-86 0 -135 49.5t-49 139.5q0 63 19.5 121t56 103.5t88 72t114.5 26.5zM239 43q63 0 111 38t75.5 100t27.5 133q0 68 -33.5 104t-94.5 36q-64 0 -113.5 -37.5t-77 -99
t-27.5 -134.5q0 -68 34.5 -104t97.5 -36zM73 0l-33 29l57 59l24 22l291 301l20 25l57 59l32 -30l-57 -59l-24 -22l-291 -301l-19 -24zM308 573l144 177l57 -18l-147 -159h-54z" />
    <glyph glyph-name="uni0200" unicode="&#x200;" horiz-adv-x="668" 
d="M-23 0l418 710h51l154 -710h-56l-41 200h-348l-116 -200h-62zM184 249h308l-81 391zM466 788l-47 159l59 18l33 -177h-45zM350 788l-48 159l59 18l33 -177h-44z" />
    <glyph glyph-name="uni0201" unicode="&#x201;" horiz-adv-x="567" 
d="M210 -8q-75 0 -117.5 46.5t-42.5 130.5q0 69 21.5 129.5t60 107t90 72.5t113.5 26q42 0 81.5 -15t62.5 -38l17 44h41q-11 -48 -18.5 -86t-13.5 -67l-30 -173q-8 -46 -13 -94.5t-5 -74.5h-54q1 34 5 69t11 73q-36 -73 -91 -111.5t-118 -38.5zM218 43q53 0 99.5 32.5
t79.5 90t46 132.5l19 106q-48 50 -128 50q-68 0 -119 -39.5t-79.5 -104t-28.5 -138.5q0 -62 28.5 -95.5t82.5 -33.5zM400 573l-47 159l59 18l33 -177h-45zM284 573l-48 159l59 18l33 -177h-44z" />
    <glyph glyph-name="uni0202" unicode="&#x202;" horiz-adv-x="668" 
d="M-23 0l418 710h51l154 -710h-56l-41 200h-348l-116 -200h-62zM184 249h308l-81 391zM545 788q7 134 -88 134q-98 0 -136 -134h-45q19 83 68 130t115 47q65 0 99.5 -46.5t26.5 -130.5h-40z" />
    <glyph glyph-name="uni0203" unicode="&#x203;" horiz-adv-x="567" 
d="M210 -8q-75 0 -117.5 46.5t-42.5 130.5q0 69 21.5 129.5t60 107t90 72.5t113.5 26q42 0 81.5 -15t62.5 -38l17 44h41q-11 -48 -18.5 -86t-13.5 -67l-30 -173q-8 -46 -13 -94.5t-5 -74.5h-54q1 34 5 69t11 73q-36 -73 -91 -111.5t-118 -38.5zM218 43q53 0 99.5 32.5
t79.5 90t46 132.5l19 106q-48 50 -128 50q-68 0 -119 -39.5t-79.5 -104t-28.5 -138.5q0 -62 28.5 -95.5t82.5 -33.5zM479 573q7 134 -88 134q-98 0 -136 -134h-45q19 83 68 130t115 47q65 0 99.5 -46.5t26.5 -130.5h-40z" />
    <glyph glyph-name="uni0204" unicode="&#x204;" horiz-adv-x="533" 
d="M107 49h353l-15 -49h-403l125 710h395l-9 -49h-338l-49 -275h332l-9 -49h-331zM414 788l-47 159l59 18l33 -177h-45zM298 788l-48 159l59 18l33 -177h-44z" />
    <glyph glyph-name="uni0205" unicode="&#x205;" horiz-adv-x="533" 
d="M258 -8q-95 0 -150 50.5t-55 145.5q0 63 19.5 119.5t56 101t87.5 70t115 25.5q79 0 122 -38.5t43 -98.5t-41 -99.5t-134 -43.5l-212 -9q-8 -85 32.5 -128.5t120.5 -43.5q45 0 88 18t75 58l31 -34q-73 -93 -198 -93zM117 264v-2l198 9q73 3 101.5 28.5t28.5 65.5
t-29.5 66.5t-89.5 26.5q-56 0 -99.5 -26.5t-72 -71t-37.5 -96.5zM381 573l-47 159l59 18l33 -177h-45zM265 573l-48 159l59 18l33 -177h-44z" />
    <glyph glyph-name="uni0206" unicode="&#x206;" horiz-adv-x="533" 
d="M107 49h353l-15 -49h-403l125 710h395l-9 -49h-338l-49 -275h332l-9 -49h-331zM493 788q7 134 -88 134q-98 0 -136 -134h-45q19 83 68 130t115 47q65 0 99.5 -46.5t26.5 -130.5h-40z" />
    <glyph glyph-name="uni0207" unicode="&#x207;" horiz-adv-x="533" 
d="M258 -8q-95 0 -150 50.5t-55 145.5q0 63 19.5 119.5t56 101t87.5 70t115 25.5q79 0 122 -38.5t43 -98.5t-41 -99.5t-134 -43.5l-212 -9q-8 -85 32.5 -128.5t120.5 -43.5q45 0 88 18t75 58l31 -34q-73 -93 -198 -93zM117 264v-2l198 9q73 3 101.5 28.5t28.5 65.5
t-29.5 66.5t-89.5 26.5q-56 0 -99.5 -26.5t-72 -71t-37.5 -96.5zM460 573q7 134 -88 134q-98 0 -136 -134h-45q19 83 68 130t115 47q65 0 99.5 -46.5t26.5 -130.5h-40z" />
    <glyph glyph-name="uni0208" unicode="&#x208;" horiz-adv-x="228" 
d="M42 0l125 710h57l-125 -710h-57zM245 788l-47 159l59 18l33 -177h-45zM129 788l-48 159l59 18l33 -177h-44z" />
    <glyph glyph-name="uni0209" unicode="&#x209;" horiz-adv-x="212" 
d="M44 0q0 32 4 64t10 65l34 195q8 44 13.5 86.5t8.5 84.5h55q-3 -42 -9.5 -88.5t-13.5 -84.5l-34 -191q-5 -32 -8.5 -64t-3.5 -67h-56zM191 573l-47 159l59 18l33 -177h-45zM75 573l-48 159l59 18l33 -177h-44z" />
    <glyph glyph-name="uni020A" unicode="&#x20a;" horiz-adv-x="228" 
d="M42 0l125 710h57l-125 -710h-57zM324 788q7 134 -88 134q-98 0 -136 -134h-45q19 83 68 130t115 47q65 0 99.5 -46.5t26.5 -130.5h-40z" />
    <glyph glyph-name="uni020B" unicode="&#x20b;" horiz-adv-x="212" 
d="M44 0q0 32 4 64t10 65l34 195q8 44 13.5 86.5t8.5 84.5h55q-3 -42 -9.5 -88.5t-13.5 -84.5l-34 -191q-5 -32 -8.5 -64t-3.5 -67h-56zM270 573q7 134 -88 134q-98 0 -136 -134h-45q19 83 68 130t115 47q65 0 99.5 -46.5t26.5 -130.5h-40z" />
    <glyph glyph-name="uni020C" unicode="&#x20c;" horiz-adv-x="767" 
d="M341 -8q-128 0 -198 71t-70 197q0 91 29.5 173.5t83 147t126.5 102t161 37.5q81 0 138.5 -33.5t88 -95.5t30.5 -146q0 -89 -28 -170.5t-79.5 -145t-123 -100.5t-158.5 -37zM345 46q76 0 136 33.5t102.5 90t65.5 128.5t23 149q0 103 -52.5 161t-149.5 58q-77 0 -139 -33.5
t-106.5 -91t-68.5 -130t-24 -150.5q0 -103 54.5 -159t158.5 -56zM513 788l-47 159l59 18l33 -177h-45zM397 788l-48 159l59 18l33 -177h-44z" />
    <glyph glyph-name="uni020D" unicode="&#x20d;" horiz-adv-x="561" 
d="M330 504q82 0 130.5 -49.5t48.5 -138.5q0 -68 -21 -126.5t-58.5 -103t-87 -69.5t-106.5 -25q-86 0 -135 49.5t-49 139.5q0 63 19.5 121t56 103.5t88 72t114.5 26.5zM239 43q63 0 111 38t75.5 100t27.5 133q0 68 -33.5 104t-94.5 36q-64 0 -113.5 -37.5t-77 -99
t-27.5 -134.5q0 -68 34.5 -104t97.5 -36zM373 573l-47 159l59 18l33 -177h-45zM257 573l-48 159l59 18l33 -177h-44z" />
    <glyph glyph-name="uni020E" unicode="&#x20e;" horiz-adv-x="767" 
d="M341 -8q-128 0 -198 71t-70 197q0 91 29.5 173.5t83 147t126.5 102t161 37.5q81 0 138.5 -33.5t88 -95.5t30.5 -146q0 -89 -28 -170.5t-79.5 -145t-123 -100.5t-158.5 -37zM345 46q76 0 136 33.5t102.5 90t65.5 128.5t23 149q0 103 -52.5 161t-149.5 58q-77 0 -139 -33.5
t-106.5 -91t-68.5 -130t-24 -150.5q0 -103 54.5 -159t158.5 -56zM592 788q7 134 -88 134q-98 0 -136 -134h-45q19 83 68 130t115 47q65 0 99.5 -46.5t26.5 -130.5h-40z" />
    <glyph glyph-name="uni020F" unicode="&#x20f;" horiz-adv-x="561" 
d="M330 504q82 0 130.5 -49.5t48.5 -138.5q0 -68 -21 -126.5t-58.5 -103t-87 -69.5t-106.5 -25q-86 0 -135 49.5t-49 139.5q0 63 19.5 121t56 103.5t88 72t114.5 26.5zM239 43q63 0 111 38t75.5 100t27.5 133q0 68 -33.5 104t-94.5 36q-64 0 -113.5 -37.5t-77 -99
t-27.5 -134.5q0 -68 34.5 -104t97.5 -36zM452 573q7 134 -88 134q-98 0 -136 -134h-45q19 83 68 130t115 47q65 0 99.5 -46.5t26.5 -130.5h-40z" />
    <glyph glyph-name="uni0210" unicode="&#x210;" horiz-adv-x="565" 
d="M542 59l10 -43q-32 -21 -76 -21q-39 0 -67 18.5t-51 62.5l-108 213q-9 18 -27 31.5t-42 13.5h-24l-59 -334h-56l125 710h180q106 0 161 -40.5t55 -115.5q0 -69 -34 -118t-93 -75t-134 -26h-29q13 -8 24 -22.5t22 -36.5l81 -161q23 -44 41 -57.5t48 -13.5q16 0 29 4.5
t24 10.5zM343 662h-129l-49 -282h128q96 0 154 40.5t58 127.5q0 114 -162 114zM434 788l-47 159l59 18l33 -177h-45zM318 788l-48 159l59 18l33 -177h-44z" />
    <glyph glyph-name="uni0211" unicode="&#x211;" horiz-adv-x="366" 
d="M378 443q-10 3 -19 4.5t-21 1.5q-87 0 -147.5 -108t-101.5 -341h-54l57 324q7 43 13 86t9 85h54q-3 -37 -10 -85.5t-17 -98.5q43 107 98 150t111 43q13 0 25 -1.5t20 -5.5zM306 573l-47 159l59 18l33 -177h-45zM190 573l-48 159l59 18l33 -177h-44z" />
    <glyph glyph-name="uni0212" unicode="&#x212;" horiz-adv-x="565" 
d="M542 59l10 -43q-32 -21 -76 -21q-39 0 -67 18.5t-51 62.5l-108 213q-9 18 -27 31.5t-42 13.5h-24l-59 -334h-56l125 710h180q106 0 161 -40.5t55 -115.5q0 -69 -34 -118t-93 -75t-134 -26h-29q13 -8 24 -22.5t22 -36.5l81 -161q23 -44 41 -57.5t48 -13.5q16 0 29 4.5
t24 10.5zM343 662h-129l-49 -282h128q96 0 154 40.5t58 127.5q0 114 -162 114zM513 788q7 134 -88 134q-98 0 -136 -134h-45q19 83 68 130t115 47q65 0 99.5 -46.5t26.5 -130.5h-40z" />
    <glyph glyph-name="uni0213" unicode="&#x213;" horiz-adv-x="366" 
d="M378 443q-10 3 -19 4.5t-21 1.5q-87 0 -147.5 -108t-101.5 -341h-54l57 324q7 43 13 86t9 85h54q-3 -37 -10 -85.5t-17 -98.5q43 107 98 150t111 43q13 0 25 -1.5t20 -5.5zM385 573q7 134 -88 134q-98 0 -136 -134h-45q19 83 68 130t115 47q65 0 99.5 -46.5t26.5 -130.5
h-40z" />
    <glyph glyph-name="uni0214" unicode="&#x214;" horiz-adv-x="713" 
d="M654 710h57l-64 -367q-31 -184 -109.5 -267.5t-220.5 -83.5q-136 0 -193.5 80t-30.5 232l71 406h59l-71 -403q-23 -132 18 -196.5t149 -64.5q79 0 132.5 30t87 95.5t51.5 172.5zM488 788l-47 159l59 18l33 -177h-45zM372 788l-48 159l59 18l33 -177h-44z" />
    <glyph glyph-name="uni0215" unicode="&#x215;" horiz-adv-x="550" 
d="M181 -8q-71 0 -103 49.5t-15 144.5l26 138q16 89 22 171h55q-3 -42 -9.5 -88.5t-13.5 -84.5l-25 -132q-14 -76 6 -111t76 -35q84 0 153 107t110 344h52l-58 -326q-7 -46 -12.5 -94.5t-5.5 -74.5h-54q1 35 6.5 80t20.5 110q-41 -97 -99.5 -147.5t-131.5 -50.5zM368 573
l-47 159l59 18l33 -177h-45zM252 573l-48 159l59 18l33 -177h-44z" />
    <glyph glyph-name="uni0216" unicode="&#x216;" horiz-adv-x="713" 
d="M654 710h57l-64 -367q-31 -184 -109.5 -267.5t-220.5 -83.5q-136 0 -193.5 80t-30.5 232l71 406h59l-71 -403q-23 -132 18 -196.5t149 -64.5q79 0 132.5 30t87 95.5t51.5 172.5zM567 788q7 134 -88 134q-98 0 -136 -134h-45q19 83 68 130t115 47q65 0 99.5 -46.5
t26.5 -130.5h-40z" />
    <glyph glyph-name="uni0217" unicode="&#x217;" horiz-adv-x="550" 
d="M181 -8q-71 0 -103 49.5t-15 144.5l26 138q16 89 22 171h55q-3 -42 -9.5 -88.5t-13.5 -84.5l-25 -132q-14 -76 6 -111t76 -35q84 0 153 107t110 344h52l-58 -326q-7 -46 -12.5 -94.5t-5.5 -74.5h-54q1 35 6.5 80t20.5 110q-41 -97 -99.5 -147.5t-131.5 -50.5zM447 573
q7 134 -88 134q-98 0 -136 -134h-45q19 83 68 130t115 47q65 0 99.5 -46.5t26.5 -130.5h-40z" />
    <glyph glyph-name="uni0218" unicode="&#x218;" horiz-adv-x="558" 
d="M255 -8q-115 0 -173 54.5t-55 163.5l56 7q0 -93 41 -133t135 -40q88 0 139.5 41.5t51.5 115.5q0 37 -18 58.5t-47 34t-64 21.5t-69.5 19.5t-64 28.5t-47 49.5t-17.5 80.5q0 68 32 119t88 79.5t127 28.5q93 0 142.5 -48.5t48.5 -139.5l-52 -8q0 75 -34.5 110t-105.5 35
q-85 0 -136.5 -47.5t-51.5 -124.5q0 -39 17.5 -62.5t47 -37t64 -23t69.5 -19.5t64 -27t47 -46t18 -76q0 -66 -33 -114t-90.5 -74t-129.5 -26zM148 -276q16 20 25 42t9 41q0 12 -2 23t-2 21q0 24 12 39t31 15q33 0 33 -38q0 -25 -19.5 -67t-52.5 -76h-34z" />
    <glyph glyph-name="uni0219" unicode="&#x219;" horiz-adv-x="444" 
d="M195 -8q-176 0 -176 148l50 11q0 -59 30 -86t97 -27q58 0 97 26t39 73q0 27 -17.5 42t-46 24t-60 17.5t-59.5 21.5t-46 36.5t-18 63.5q0 50 26 86t69.5 55.5t93.5 19.5q64 0 102.5 -32.5t42.5 -92.5l-48 -12q-5 91 -98 91q-59 0 -96 -30t-37 -78q0 -30 18 -47.5t46 -27.5
t59.5 -18t59.5 -20.5t46 -34.5t18 -59q0 -46 -27 -79.5t-70.5 -52t-94.5 -18.5zM92 -276q16 20 25 42t9 41q0 12 -2 23t-2 21q0 24 12 39t31 15q33 0 33 -38q0 -25 -19.5 -67t-52.5 -76h-34z" />
    <glyph glyph-name="uni021A" unicode="&#x21a;" horiz-adv-x="535" 
d="M611 710l-13 -49h-229l-117 -661h-58l117 661h-234l9 49h525zM131 -276q16 20 25 42t9 41q0 12 -2 23t-2 21q0 24 12 39t31 15q33 0 33 -38q0 -25 -19.5 -67t-52.5 -76h-34z" />
    <glyph glyph-name="uni021B" unicode="&#x21b;" horiz-adv-x="354" 
d="M213 -8q-79 0 -113 46.5t-20 123.5l54 286h-89l8 47h90l19 104h55l-19 -104h176l-9 -47h-176l-55 -291q-10 -55 11 -85t75 -30q25 0 46 6t45 23l14 -43q-22 -19 -51.5 -27.5t-60.5 -8.5zM91 -276q16 20 25 42t9 41q0 12 -2 23t-2 21q0 24 12 39t31 15q33 0 33 -38
q0 -25 -19.5 -67t-52.5 -76h-34z" />
    <glyph glyph-name="uni022A" unicode="&#x22a;" horiz-adv-x="767" 
d="M341 -8q-128 0 -198 71t-70 197q0 91 29.5 173.5t83 147t126.5 102t161 37.5q81 0 138.5 -33.5t88 -95.5t30.5 -146q0 -89 -28 -170.5t-79.5 -145t-123 -100.5t-158.5 -37zM345 46q76 0 136 33.5t102.5 90t65.5 128.5t23 149q0 103 -52.5 161t-149.5 58q-77 0 -139 -33.5
t-106.5 -91t-68.5 -130t-24 -150.5q0 -103 54.5 -159t158.5 -56zM379 910l7 41h241l-7 -41h-241zM403 784q-17 0 -27.5 10.5t-10.5 26.5t10.5 26t27.5 10t27 -10t10 -26t-10 -26.5t-27 -10.5zM565 784q-18 0 -28.5 10.5t-10.5 26.5t10.5 26t28.5 10q16 0 26 -10t10 -26
t-10 -26.5t-26 -10.5z" />
    <glyph glyph-name="uni022B" unicode="&#x22b;" horiz-adv-x="561" 
d="M330 504q82 0 130.5 -49.5t48.5 -138.5q0 -68 -21 -126.5t-58.5 -103t-87 -69.5t-106.5 -25q-86 0 -135 49.5t-49 139.5q0 63 19.5 121t56 103.5t88 72t114.5 26.5zM239 43q63 0 111 38t75.5 100t27.5 133q0 68 -33.5 104t-94.5 36q-64 0 -113.5 -37.5t-77 -99
t-27.5 -134.5q0 -68 34.5 -104t97.5 -36zM239 695l7 40h241l-7 -40h-241zM263 569q-17 0 -27.5 10.5t-10.5 26.5q0 15 10.5 25.5t27.5 10.5t27 -10.5t10 -25.5q0 -16 -10 -26.5t-27 -10.5zM425 569q-18 0 -28.5 10.5t-10.5 26.5q0 15 10.5 25.5t28.5 10.5q16 0 26 -10.5
t10 -25.5q0 -16 -10 -26.5t-26 -10.5z" />
    <glyph glyph-name="uni022C" unicode="&#x22c;" horiz-adv-x="767" 
d="M341 -8q-128 0 -198 71t-70 197q0 91 29.5 173.5t83 147t126.5 102t161 37.5q81 0 138.5 -33.5t88 -95.5t30.5 -146q0 -89 -28 -170.5t-79.5 -145t-123 -100.5t-158.5 -37zM345 46q76 0 136 33.5t102.5 90t65.5 128.5t23 149q0 103 -52.5 161t-149.5 58q-77 0 -139 -33.5
t-106.5 -91t-68.5 -130t-24 -150.5q0 -103 54.5 -159t158.5 -56zM341 938l7 41h326l-7 -41h-326zM561 785q-19 0 -39.5 9.5t-41 22.5t-39.5 22.5t-36 9.5q-21 0 -39 -17t-29 -46l-28 17q15 42 42 65.5t61 23.5q19 0 39 -9.5t41 -22.5t40 -22.5t36 -9.5q21 0 39 17t30 46
l28 -17q-15 -42 -42.5 -65.5t-61.5 -23.5z" />
    <glyph glyph-name="uni022D" unicode="&#x22d;" horiz-adv-x="561" 
d="M330 504q82 0 130.5 -49.5t48.5 -138.5q0 -68 -21 -126.5t-58.5 -103t-87 -69.5t-106.5 -25q-86 0 -135 49.5t-49 139.5q0 63 19.5 121t56 103.5t88 72t114.5 26.5zM239 43q63 0 111 38t75.5 100t27.5 133q0 68 -33.5 104t-94.5 36q-64 0 -113.5 -37.5t-77 -99
t-27.5 -134.5q0 -68 34.5 -104t97.5 -36zM201 723l7 40h326l-7 -40h-326zM421 569q-19 0 -39.5 10t-41 22.5t-39.5 22t-36 9.5q-21 0 -39 -17t-29 -45l-28 17q15 41 42 65t61 24q19 0 39 -10t41 -22.5t40 -22.5t36 -10q21 0 39 17.5t30 46.5l28 -18q-15 -42 -42.5 -65.5
t-61.5 -23.5z" />
    <glyph glyph-name="uni0230" unicode="&#x230;" horiz-adv-x="767" 
d="M341 -8q-128 0 -198 71t-70 197q0 91 29.5 173.5t83 147t126.5 102t161 37.5q81 0 138.5 -33.5t88 -95.5t30.5 -146q0 -89 -28 -170.5t-79.5 -145t-123 -100.5t-158.5 -37zM345 46q76 0 136 33.5t102.5 90t65.5 128.5t23 149q0 103 -52.5 161t-149.5 58q-77 0 -139 -33.5
t-106.5 -91t-68.5 -130t-24 -150.5q0 -103 54.5 -159t158.5 -56zM407 939l7 40h195l-8 -40h-194zM488 806q-19 0 -29.5 12t-10.5 28t11.5 28t28.5 12q19 0 29.5 -12t10.5 -28t-10.5 -28t-29.5 -12z" />
    <glyph glyph-name="uni0231" unicode="&#x231;" horiz-adv-x="561" 
d="M330 504q82 0 130.5 -49.5t48.5 -138.5q0 -68 -21 -126.5t-58.5 -103t-87 -69.5t-106.5 -25q-86 0 -135 49.5t-49 139.5q0 63 19.5 121t56 103.5t88 72t114.5 26.5zM239 43q63 0 111 38t75.5 100t27.5 133q0 68 -33.5 104t-94.5 36q-64 0 -113.5 -37.5t-77 -99
t-27.5 -134.5q0 -68 34.5 -104t97.5 -36zM267 723l7 41h195l-8 -41h-194zM348 591q-19 0 -29.5 12t-10.5 28t11.5 27.5t28.5 11.5q19 0 29.5 -11.5t10.5 -27.5t-10.5 -28t-29.5 -12z" />
    <glyph glyph-name="uni0232" unicode="&#x232;" horiz-adv-x="533" 
d="M636 710l-328 -388l-57 -322h-58l58 324l-191 386h61l166 -336l284 336h65zM229 858h294l-7 -41h-294z" />
    <glyph glyph-name="uni0233" unicode="&#x233;" horiz-adv-x="555" 
d="M170 -210q-42 0 -83 8.5t-68 25.5l15 50q27 -15 63.5 -24.5t73.5 -9.5q97 0 147.5 49.5t71.5 161.5l28 142q-46 -104 -104.5 -148.5t-122.5 -44.5q-76 0 -110 49.5t-18 138.5l26 136q16 86 22 171h55q-3 -42 -9.5 -88.5t-13.5 -84.5l-24 -125q-13 -71 6.5 -108.5
t76.5 -37.5q56 0 105.5 42t90.5 139.5t70 262.5h52l-77 -436q-25 -143 -90.5 -206t-182.5 -63zM201 642h294l-7 -40h-294z" />
    <glyph glyph-name="uni0237" unicode="&#x237;" horiz-adv-x="227" 
d="M108 324q8 44 13.5 86.5t8.5 84.5h55q-3 -42 -9.5 -88.5t-13.5 -84.5l-60 -336q-17 -97 -67 -148t-138 -51q-27 0 -51.5 5.5t-40.5 15.5l20 46q36 -17 74 -17q123 0 150 153z" />
    <glyph glyph-name="uni0259" unicode="&#x259;" horiz-adv-x="533" 
d="M287 504q90 0 144 -50.5t54 -145.5q0 -62 -19.5 -119t-56 -101t-87.5 -70t-114 -26q-80 0 -123 39t-43 99q0 59 41.5 99t133.5 44l212 9q8 85 -32 128t-117 43q-48 0 -89 -17.5t-78 -57.5l-31 34q38 45 91.5 68.5t113.5 23.5zM93 132q0 -41 29.5 -67.5t89.5 -26.5
q56 0 99.5 27t72 71t37.5 96l1 3l-199 -9q-72 -3 -101 -28.5t-29 -65.5z" />
    <glyph glyph-name="uni02B9" unicode="&#x2b9;" horiz-adv-x="642" 
d="M317 573l144 177l57 -18l-147 -159h-54z" />
    <glyph glyph-name="uni02BA" unicode="&#x2ba;" horiz-adv-x="620" 
d="M429 573h-45l96 177l53 -18zM312 573h-44l96 177l52 -18z" />
    <glyph glyph-name="uni02BB" unicode="&#x2bb;" horiz-adv-x="639" 
d="M414 750q-16 -21 -25 -42.5t-9 -40.5q0 -13 2 -24t2 -21q0 -24 -12 -39t-30 -15q-34 0 -34 38q0 25 19.5 67t52.5 77h34z" />
    <glyph glyph-name="uni02BC" unicode="&#x2bc;" horiz-adv-x="165" 
d="M51 537q12 25 19 45.5t7 46.5q0 11 -0.5 21.5t-0.5 23.5q1 17 11 29.5t27 12.5q30 0 30 -33q0 -18 -10 -45t-25 -54.5t-32 -46.5h-26z" />
    <glyph glyph-name="uni02BE" unicode="&#x2be;" horiz-adv-x="613" 
d="M300 568v37q25 0 44 16.5t19 46.5q0 28 -19 44t-44 16v36q43 0 72.5 -26.5t29.5 -70.5q0 -45 -30 -72t-72 -27z" />
    <glyph glyph-name="uni02BF" unicode="&#x2bf;" horiz-adv-x="613" 
d="M313 568q-42 0 -72 27t-30 72q0 44 29.5 70.5t72.5 26.5v-36q-25 0 -44 -16t-19 -44q0 -30 19 -46.5t44 -16.5v-37z" />
    <glyph glyph-name="circumflex" unicode="&#x2c6;" horiz-adv-x="644" 
d="M484 573h-51l-71 128l-118 -128h-57l155 167h47z" />
    <glyph glyph-name="caron" unicode="&#x2c7;" horiz-adv-x="644" 
d="M325 573l-95 167l45 10l78 -138l127 138l47 -10l-155 -167h-47z" />
    <glyph glyph-name="uni02C8" unicode="&#x2c8;" horiz-adv-x="618" 
d="M301 573l31 177h44l-31 -177h-44z" />
    <glyph glyph-name="uni02C9" unicode="&#x2c9;" horiz-adv-x="626" 
d="M190 644h300l-8 -44h-300z" />
    <glyph glyph-name="uni02CA" unicode="&#x2ca;" horiz-adv-x="642" 
d="M317 573l144 177l57 -18l-147 -159h-54z" />
    <glyph glyph-name="uni02CB" unicode="&#x2cb;" horiz-adv-x="642" 
d="M318 573l-91 159l62 18l81 -177h-52z" />
    <glyph glyph-name="uni02CC" unicode="&#x2cc;" horiz-adv-x="618" 
d="M159 -234l25 139h43l-24 -139h-44z" />
    <glyph glyph-name="breve" unicode="&#x2d8;" horiz-adv-x="644" 
d="M492 750l41 -10q-18 -79 -67 -125.5t-112 -46.5q-66 0 -100.5 46.5t-29.5 125.5l43 10q-9 -139 91 -139q96 0 134 139z" />
    <glyph glyph-name="dotaccent" unicode="&#x2d9;" horiz-adv-x="648" 
d="M359 591q-19 0 -29.5 12t-10.5 28t11.5 27.5t28.5 11.5q19 0 29.5 -11.5t10.5 -27.5t-10.5 -28t-29.5 -12z" />
    <glyph glyph-name="ring" unicode="&#x2da;" horiz-adv-x="626" 
d="M364 568q-42 0 -70.5 27.5t-28.5 68.5q0 42 30 70.5t73 28.5t70.5 -27t27.5 -68q0 -43 -29 -71.5t-73 -28.5zM365 601q29 0 47 18.5t18 48.5q0 29 -17.5 46t-45.5 17q-30 0 -48 -19t-18 -48q0 -28 18 -45.5t46 -17.5z" />
    <glyph glyph-name="ogonek" unicode="&#x2db;" horiz-adv-x="628" 
d="M121.679 -223q-41 0 -61.2979 21q-20.2969 21 -14.125 56q5.81836 33 31.9609 65t64.1396 57.5q37.9961 25.5 80.8174 41.5l31.8262 -18q-65.585 -26 -108.197 -63.5t-49.4893 -76.5q-3.52637 -20 6.44629 -31.5q9.97168 -11.5 32.9717 -11.5q36 0 79.0537 40l13.71 -30
q-21.8799 -22 -51.3486 -36q-29.4678 -14 -56.4678 -14z" />
    <glyph glyph-name="tilde" unicode="&#x2dc;" horiz-adv-x="634" 
d="M432 569q-19 0 -39.5 10t-41 22.5t-39.5 22t-36 9.5q-21 0 -39 -17t-29 -45l-28 17q15 41 42 65t61 24q19 0 39 -10t41 -22.5t40 -22.5t36 -10q21 0 39 17.5t30 46.5l28 -18q-15 -42 -42.5 -65.5t-61.5 -23.5z" />
    <glyph glyph-name="hungarumlaut" unicode="&#x2dd;" horiz-adv-x="620" 
d="M429 573h-45l96 177l53 -18zM312 573h-44l96 177l52 -18z" />
    <glyph glyph-name="gravecomb" unicode="&#x300;" 
d="M318 573l-91 159l62 18l81 -177h-52z" />
    <glyph glyph-name="acutecomb" unicode="&#x301;" 
d="M317 573l144 177l57 -18l-147 -159h-54z" />
    <glyph glyph-name="uni0302" unicode="&#x302;" 
d="M484 573h-51l-71 128l-118 -128h-57l155 167h47z" />
    <glyph glyph-name="tildecomb" unicode="&#x303;" 
d="M432 569q-19 0 -39.5 10t-41 22.5t-39.5 22t-36 9.5q-21 0 -39 -17t-29 -45l-28 17q15 41 42 65t61 24q19 0 39 -10t41 -22.5t40 -22.5t36 -10q21 0 39 17.5t30 46.5l28 -18q-15 -42 -42.5 -65.5t-61.5 -23.5z" />
    <glyph glyph-name="uni0304" unicode="&#x304;" 
d="M195 642h294l-7 -40h-294z" />
    <glyph glyph-name="uni0306" unicode="&#x306;" 
d="M492 750l41 -10q-18 -79 -67 -125.5t-112 -46.5q-66 0 -100.5 46.5t-29.5 125.5l43 10q-9 -139 91 -139q96 0 134 139z" />
    <glyph glyph-name="uni0307" unicode="&#x307;" 
d="M359 591q-19 0 -29.5 12t-10.5 28t11.5 27.5t28.5 11.5q19 0 29.5 -11.5t10.5 -27.5t-10.5 -28t-29.5 -12z" />
    <glyph glyph-name="uni0308" unicode="&#x308;" 
d="M436 569q-18 0 -28.5 10.5t-10.5 26.5q0 15 10.5 25.5t28.5 10.5q16 0 26 -10.5t10 -25.5q0 -16 -10 -26.5t-26 -10.5zM274 569q-17 0 -27.5 10.5t-10.5 26.5q0 15 10.5 25.5t27.5 10.5t27 -10.5t10 -25.5q0 -16 -10 -26.5t-27 -10.5z" />
    <glyph glyph-name="hookabovecomb" unicode="&#x309;" 
d="M390 751q32 0 49 -14.5t17 -37.5q0 -25 -12 -39t-28.5 -24t-31 -24t-18.5 -39h-35l2 11q6 26 18.5 41t26 24.5t23.5 18.5t10 25q0 9 -7 16t-23 7q-20 0 -38 -9.5t-34 -31.5l-23 20q18 27 45.5 41.5t58.5 14.5z" />
    <glyph glyph-name="uni030A" unicode="&#x30a;" 
d="M364 568q-42 0 -70.5 27.5t-28.5 68.5q0 42 30 70.5t73 28.5t70.5 -27t27.5 -68q0 -43 -29 -71.5t-73 -28.5zM365 601q29 0 47 18.5t18 48.5q0 29 -17.5 46t-45.5 17q-30 0 -48 -19t-18 -48q0 -28 18 -45.5t46 -17.5z" />
    <glyph glyph-name="uni030B" unicode="&#x30b;" 
d="M429 573h-45l96 177l53 -18zM312 573h-44l96 177l52 -18z" />
    <glyph glyph-name="uni030C" unicode="&#x30c;" 
d="M325 573l-95 167l45 10l78 -138l127 138l47 -10l-155 -167h-47z" />
    <glyph glyph-name="uni030F" unicode="&#x30f;" 
d="M384 573l-47 159l59 18l33 -177h-45zM268 573l-48 159l59 18l33 -177h-44z" />
    <glyph glyph-name="uni0311" unicode="&#x311;" 
d="M463 573q7 134 -88 134q-98 0 -136 -134h-45q19 83 68 130t115 47q65 0 99.5 -46.5t26.5 -130.5h-40z" />
    <glyph glyph-name="uni0312" unicode="&#x312;" 
d="M414 750q-16 -21 -25 -42.5t-9 -40.5q0 -13 2 -24t2 -21q0 -24 -12 -39t-30 -15q-34 0 -34 38q0 25 19.5 67t52.5 77h34z" />
    <glyph glyph-name="uni031B" unicode="&#x31b;" 
d="M236 494q50 0 70.5 25t20.5 81l48 -4q3 -66 -32.5 -107.5t-101.5 -41.5h-40l-26 52q17 -2 33 -3.5t28 -1.5z" />
    <glyph glyph-name="dotbelowcomb" unicode="&#x323;" 
d="M212 -176q-19 0 -29 12t-10 27q0 16 11 28t28 12q19 0 29.5 -12t10.5 -28q0 -15 -11 -27t-29 -12z" />
    <glyph glyph-name="uni0324" unicode="&#x324;" 
d="M305 -168q-17 0 -27 10.5t-10 26.5q0 15 10.5 25.5t27.5 10.5t27 -10.5t10 -25.5q0 -16 -10.5 -26.5t-27.5 -10.5zM144 -168q-18 0 -28 10.5t-10 26.5q0 15 10.5 25.5t28.5 10.5q16 0 26 -10.5t10 -25.5q0 -16 -10.5 -26.5t-26.5 -10.5z" />
    <glyph glyph-name="uni0326" unicode="&#x326;" 
d="M134 -276q16 20 25 42t9 41q0 12 -2 23t-2 21q0 24 12 39t31 15q33 0 33 -38q0 -25 -19.5 -67t-52.5 -76h-34z" />
    <glyph glyph-name="uni0327" unicode="&#x327;" 
d="M151 -223q-30 0 -50 6t-38 17l18 34q17 -10 34 -15t38 -5q30 0 49.5 14.5t19.5 39.5q0 37 -56 37h-36l77 113h46l-53 -78q32 -5 50.5 -22.5t18.5 -45.5q0 -44 -35.5 -69.5t-82.5 -25.5z" />
    <glyph glyph-name="uni0328" unicode="&#x328;" 
d="M249 -223q-41 0 -65 21t-24 56q0 33 20.5 65t54 57.5t73.5 41.5l35 -18q-61 -26 -97 -63.5t-36 -76.5q0 -20 12 -31.5t35 -11.5q36 0 72 40l19 -30q-18 -22 -45 -36t-54 -14z" />
    <glyph glyph-name="uni032E" unicode="&#x32e;" 
d="M321 -95h45q-19 -61 -62.5 -100t-104.5 -39q-66 0 -98.5 40.5t-30.5 98.5h43q1 -41 21.5 -68t66.5 -27q45 0 75 26t45 69z" />
    <glyph glyph-name="uni0331" unicode="&#x331;" 
d="M57 -122h295l-7 -41h-295z" />
    <glyph glyph-name="uni0335" unicode="&#x335;" 
d="M116 386l7 40h330l-7 -40h-330z" />
    <glyph glyph-name="uni0336" unicode="&#x336;" 
d="M-3 384l7 44h701l-7 -44h-701z" />
    <glyph glyph-name="uni0337" unicode="&#x337;" 
d="M363 257l-17 35l200 113l19 -35z" />
    <glyph glyph-name="uni0338" unicode="&#x338;" 
d="M79 0l-33 29l57 59l24 22l291 301l20 25l57 59l32 -30l-57 -59l-24 -22l-291 -301l-19 -24z" />
    <glyph glyph-name="uni0394" unicode="&#x394;" horiz-adv-x="600" 
d="M-28 0l392 710h50l127 -710h-569zM60 48h418l-98 594z" />
    <glyph glyph-name="uni03A9" unicode="&#x3a9;" horiz-adv-x="819" 
d="M498 720q80 0 137.5 -32.5t89 -91t31.5 -137.5q0 -78 -28 -156.5t-78 -145.5t-117 -112h181l-7 -45h-267l4 27q78 46 135 115t89 151t32 166q0 95 -54.5 152t-149.5 57q-75 0 -136.5 -30.5t-105 -84t-66.5 -122.5t-23 -146q0 -83 33 -148.5t98 -109.5l-4 -27h-266l8 45
h181q-108 88 -108 240q1 89 29 167.5t79.5 139t123.5 94.5t159 34z" />
    <glyph glyph-name="pi" unicode="&#x3c0;" horiz-adv-x="612" 
d="M48 0q36 80 74 196t64 252h-111l8 47h510l-9 -47h-111l-55 -309q-9 -49 11.5 -73t63.5 -24q38 0 76 25l11 -43q-39 -32 -97 -32q-70 0 -100.5 37t-18.5 106l55 313h-178q-28 -144 -63 -255t-71 -193h-59z" />
    <glyph glyph-name="uni1E08" unicode="&#x1e08;" horiz-adv-x="641" 
d="M615 135q-49 -72 -120 -107.5t-153 -35.5q-129 0 -199 71t-70 197q0 92 29.5 175t82.5 147t126 101t160 37q80 0 138.5 -33.5t84.5 -98.5l-48 -31q-23 54 -66 81.5t-112 27.5q-76 0 -138 -33t-106 -89.5t-68 -129.5t-24 -153q0 -103 54.5 -159t158.5 -56q72 0 129.5 30
t100.5 92zM280 -223q-30 0 -50 6t-38 17l18 34q17 -10 34 -15t38 -5q30 0 49.5 14.5t19.5 39.5q0 37 -56 37h-36l77 113h46l-53 -78q32 -5 50.5 -22.5t18.5 -45.5q0 -44 -35.5 -69.5t-82.5 -25.5zM448 788l144 177l57 -18l-147 -159h-54z" />
    <glyph glyph-name="uni1E09" unicode="&#x1e09;" horiz-adv-x="485" 
d="M241 -8q-90 0 -139.5 50.5t-49.5 138.5q0 63 19.5 121t56 103.5t88 72t114.5 26.5q64 0 103.5 -26t59.5 -69l-46 -30q-15 36 -44 55t-74 19q-66 0 -116 -37t-78 -98.5t-28 -134.5q0 -66 36 -103t107 -37q43 1 82.5 18.5t70.5 57.5l36 -32q-74 -95 -198 -95zM176 -223
q-30 0 -50 6t-38 17l18 34q17 -10 34 -15t38 -5q30 0 49.5 14.5t19.5 39.5q0 37 -56 37h-36l77 113h46l-53 -78q32 -5 50.5 -22.5t18.5 -45.5q0 -44 -35.5 -69.5t-82.5 -25.5zM315 573l144 177l57 -18l-147 -159h-54z" />
    <glyph glyph-name="uni1E0C" unicode="&#x1e0c;" horiz-adv-x="727" 
d="M42 0l125 710h166q175 0 266 -68.5t91 -206.5q0 -132 -54.5 -230t-153 -151.5t-231.5 -53.5h-209zM109 50h143q119 0 204 47.5t130.5 134t45.5 202.5q0 113 -73.5 169.5t-225.5 56.5h-117zM293 -176q-19 0 -29 12t-10 27q0 16 11 28t28 12q19 0 29.5 -12t10.5 -28
q0 -15 -11 -27t-29 -12z" />
    <glyph glyph-name="uni1E0D" unicode="&#x1e0d;" horiz-adv-x="567" 
d="M210 -8q-75 0 -117.5 46.5t-42.5 130.5q0 69 21.5 129.5t60 107t90 72.5t113.5 26q39 0 76 -13t61 -33l6 37l43 245h55l-101 -571q-8 -46 -13 -94.5t-5 -74.5h-54q1 34 5 69t11 73q-36 -73 -91 -111.5t-118 -38.5zM218 43q53 0 99.5 32.5t79.5 90t46 132.5l19 106
q-48 50 -128 50q-68 0 -119 -39.5t-79.5 -104t-28.5 -138.5q0 -62 28.5 -95.5t82.5 -33.5zM238 -176q-19 0 -29 12t-10 27q0 16 11 28t28 12q19 0 29.5 -12t10.5 -28q0 -15 -11 -27t-29 -12z" />
    <glyph glyph-name="uni1E0E" unicode="&#x1e0e;" horiz-adv-x="727" 
d="M42 0l125 710h166q175 0 266 -68.5t91 -206.5q0 -132 -54.5 -230t-153 -151.5t-231.5 -53.5h-209zM109 50h143q119 0 204 47.5t130.5 134t45.5 202.5q0 113 -73.5 169.5t-225.5 56.5h-117zM148 -122h295l-7 -41h-295z" />
    <glyph glyph-name="uni1E0F" unicode="&#x1e0f;" horiz-adv-x="567" 
d="M210 -8q-75 0 -117.5 46.5t-42.5 130.5q0 69 21.5 129.5t60 107t90 72.5t113.5 26q39 0 76 -13t61 -33l6 37l43 245h55l-101 -571q-8 -46 -13 -94.5t-5 -74.5h-54q1 34 5 69t11 73q-36 -73 -91 -111.5t-118 -38.5zM218 43q53 0 99.5 32.5t79.5 90t46 132.5l19 106
q-48 50 -128 50q-68 0 -119 -39.5t-79.5 -104t-28.5 -138.5q0 -62 28.5 -95.5t82.5 -33.5zM93 -122h295l-7 -41h-295z" />
    <glyph glyph-name="uni1E14" unicode="&#x1e14;" horiz-adv-x="533" 
d="M107 49h353l-15 -49h-403l125 710h395l-9 -49h-338l-49 -275h332l-9 -49h-331zM372 905l-83 145l63 18l74 -163h-54zM287 817l7 41h194l-7 -41h-194z" />
    <glyph glyph-name="uni1E15" unicode="&#x1e15;" horiz-adv-x="533" 
d="M258 -8q-95 0 -150 50.5t-55 145.5q0 63 19.5 119.5t56 101t87.5 70t115 25.5q79 0 122 -38.5t43 -98.5t-41 -99.5t-134 -43.5l-212 -9q-8 -85 32.5 -128.5t120.5 -43.5q45 0 88 18t75 58l31 -34q-73 -93 -198 -93zM117 264v-2l198 9q73 3 101.5 28.5t28.5 65.5
t-29.5 66.5t-89.5 26.5q-56 0 -99.5 -26.5t-72 -71t-37.5 -96.5zM339 689l-83 146l63 18l74 -164h-54zM254 602l7 40h194l-7 -40h-194z" />
    <glyph glyph-name="uni1E16" unicode="&#x1e16;" horiz-adv-x="533" 
d="M107 49h353l-15 -49h-403l125 710h395l-9 -49h-338l-49 -275h332l-9 -49h-331zM372 905l132 163l57 -18l-135 -145h-54zM287 817l7 41h194l-7 -41h-194z" />
    <glyph glyph-name="uni1E17" unicode="&#x1e17;" horiz-adv-x="533" 
d="M258 -8q-95 0 -150 50.5t-55 145.5q0 63 19.5 119.5t56 101t87.5 70t115 25.5q79 0 122 -38.5t43 -98.5t-41 -99.5t-134 -43.5l-212 -9q-8 -85 32.5 -128.5t120.5 -43.5q45 0 88 18t75 58l31 -34q-73 -93 -198 -93zM117 264v-2l198 9q73 3 101.5 28.5t28.5 65.5
t-29.5 66.5t-89.5 26.5q-56 0 -99.5 -26.5t-72 -71t-37.5 -96.5zM339 689l132 164l57 -18l-135 -146h-54zM254 602l7 40h194l-7 -40h-194z" />
    <glyph glyph-name="uni1E1C" unicode="&#x1e1c;" horiz-adv-x="533" 
d="M107 49h353l-15 -49h-403l125 710h395l-9 -49h-338l-49 -275h332l-9 -49h-331zM180 -223q-30 0 -50 6t-38 17l18 34q17 -10 34 -15t38 -5q30 0 49.5 14.5t19.5 39.5q0 37 -56 37h-36l77 113h46l-53 -78q32 -5 50.5 -22.5t18.5 -45.5q0 -44 -35.5 -69.5t-82.5 -25.5z
M522 965l41 -10q-18 -79 -67 -125.5t-112 -46.5q-66 0 -100.5 46.5t-29.5 125.5l43 10q-9 -139 91 -139q96 0 134 139z" />
    <glyph glyph-name="uni1E1D" unicode="&#x1e1d;" horiz-adv-x="533" 
d="M258 -8q-95 0 -150 50.5t-55 145.5q0 63 19.5 119.5t56 101t87.5 70t115 25.5q79 0 122 -38.5t43 -98.5t-41 -99.5t-134 -43.5l-212 -9q-8 -85 32.5 -128.5t120.5 -43.5q45 0 88 18t75 58l31 -34q-73 -93 -198 -93zM117 264v-2l198 9q73 3 101.5 28.5t28.5 65.5
t-29.5 66.5t-89.5 26.5q-56 0 -99.5 -26.5t-72 -71t-37.5 -96.5zM186 -223q-30 0 -50 6t-38 17l18 34q17 -10 34 -15t38 -5q30 0 49.5 14.5t19.5 39.5q0 37 -56 37h-36l77 113h46l-53 -78q32 -5 50.5 -22.5t18.5 -45.5q0 -44 -35.5 -69.5t-82.5 -25.5zM489 750l41 -10
q-18 -79 -67 -125.5t-112 -46.5q-66 0 -100.5 46.5t-29.5 125.5l43 10q-9 -139 91 -139q96 0 134 139z" />
    <glyph glyph-name="uni1E20" unicode="&#x1e20;" horiz-adv-x="718" 
d="M431 335h234l-59 -335h-43l9 94q-43 -49 -97 -75.5t-133 -26.5q-129 0 -199 71t-70 197q0 92 29.5 175t83 147t127.5 101t163 37q81 0 140.5 -33.5t86.5 -99.5l-49 -33q-24 56 -68.5 84t-113.5 28q-77 0 -140 -33t-107.5 -89.5t-68.5 -129.5t-24 -153q0 -103 54 -159
t159 -56q104 0 169 53t81 147l8 41h-181zM343 858h294l-7 -41h-294z" />
    <glyph glyph-name="uni1E21" unicode="&#x1e21;" horiz-adv-x="571" 
d="M182 -210q-42 0 -84 9t-70 26l19 50q29 -17 65.5 -26t72.5 -9q96 0 147.5 49.5t72.5 161.5l18 95q-37 -72 -92 -109t-118 -37q-75 0 -118.5 44.5t-43.5 128.5q0 68 21.5 128t60 105.5t91 71.5t114.5 26q42 0 82 -15t64 -38l17 44h40q-10 -48 -18 -86t-13 -67l-50 -284
q-25 -140 -89 -204t-189 -64zM218 50q55 0 102 31.5t81 88t47 130.5l18 105q-23 23 -56 36t-74 13q-68 0 -119.5 -39t-80.5 -102t-29 -136q0 -61 29 -94t82 -33zM231 642h294l-7 -40h-294z" />
    <glyph glyph-name="uni1E24" unicode="&#x1e24;" horiz-adv-x="708" 
d="M42 0l125 710h57l-56 -323h422l57 323h57l-125 -710h-57l59 336h-422l-60 -336h-57zM287 -176q-19 0 -29 12t-10 27q0 16 11 28t28 12q19 0 29.5 -12t10.5 -28q0 -15 -11 -27t-29 -12z" />
    <glyph glyph-name="uni1E25" unicode="&#x1e25;" horiz-adv-x="559" 
d="M35 0l130 740h55l-44 -245l-41 -204q40 105 101 159t138 54q76 0 109.5 -50t12.5 -149l-36 -173q-13 -62 -13 -132h-56q0 63 14 129l35 170q17 81 -3.5 117.5t-78.5 36.5q-59 0 -110 -47t-91.5 -146.5t-67.5 -259.5h-54zM214 -176q-19 0 -29 12t-10 27q0 16 11 28t28 12
q19 0 29.5 -12t10.5 -28q0 -15 -11 -27t-29 -12z" />
    <glyph glyph-name="uni1E2A" unicode="&#x1e2a;" horiz-adv-x="708" 
d="M42 0l125 710h57l-56 -323h422l57 323h57l-125 -710h-57l59 336h-422l-60 -336h-57zM398 -95h45q-19 -61 -62.5 -100t-104.5 -39q-66 0 -98.5 40.5t-30.5 98.5h43q1 -41 21.5 -68t66.5 -27q45 0 75 26t45 69z" />
    <glyph glyph-name="uni1E2B" unicode="&#x1e2b;" horiz-adv-x="559" 
d="M35 0l130 740h55l-44 -245l-41 -204q40 105 101 159t138 54q76 0 109.5 -50t12.5 -149l-36 -173q-13 -62 -13 -132h-56q0 63 14 129l35 170q17 81 -3.5 117.5t-78.5 36.5q-59 0 -110 -47t-91.5 -146.5t-67.5 -259.5h-54zM325 -95h45q-19 -61 -62.5 -100t-104.5 -39
q-66 0 -98.5 40.5t-30.5 98.5h43q1 -41 21.5 -68t66.5 -27q45 0 75 26t45 69z" />
    <glyph glyph-name="uni1E2E" unicode="&#x1e2e;" horiz-adv-x="228" 
d="M42 0l125 710h57l-125 -710h-57zM201 891l144 177l57 -18l-147 -159h-54zM135 784q-17 0 -27.5 10.5t-10.5 26.5t10.5 26t27.5 10t27 -10t10 -26t-10 -26.5t-27 -10.5zM297 784q-18 0 -28.5 10.5t-10.5 26.5t10.5 26t28.5 10q16 0 26 -10t10 -26t-10 -26.5t-26 -10.5z
" />
    <glyph glyph-name="uni1E2F" unicode="&#x1e2f;" horiz-adv-x="212" 
d="M44 0q0 32 4 64t10 65l34 195q8 44 13.5 86.5t8.5 84.5h55q-3 -42 -9.5 -88.5t-13.5 -84.5l-34 -191q-5 -32 -8.5 -64t-3.5 -67h-56zM147 676l144 177l57 -18l-147 -159h-54zM81 569q-17 0 -27.5 10.5t-10.5 26.5q0 15 10.5 25.5t27.5 10.5t27 -10.5t10 -25.5
q0 -16 -10 -26.5t-27 -10.5zM243 569q-18 0 -28.5 10.5t-10.5 26.5q0 15 10.5 25.5t28.5 10.5q16 0 26 -10.5t10 -25.5q0 -16 -10 -26.5t-26 -10.5z" />
    <glyph glyph-name="uni1E36" unicode="&#x1e36;" horiz-adv-x="473" 
d="M42 0l125 710h57l-115 -660h337l-15 -50h-389zM212 -176q-19 0 -29 12t-10 27q0 16 11 28t28 12q19 0 29.5 -12t10.5 -28q0 -15 -11 -27t-29 -12z" />
    <glyph glyph-name="uni1E37" unicode="&#x1e37;" horiz-adv-x="255" 
d="M147 -8q-52 0 -76.5 32t-16.5 83l112 633h55l-110 -624q-6 -35 5 -55t46 -20q16 0 31 5t25 11l8 -42q-15 -11 -37 -17t-42 -6zM49 -176q-19 0 -29 12t-10 27q0 16 11 28t28 12q19 0 29.5 -12t10.5 -28q0 -15 -11 -27t-29 -12z" />
    <glyph glyph-name="uni1E3A" unicode="&#x1e3a;" horiz-adv-x="473" 
d="M42 0l125 710h57l-115 -660h337l-15 -50h-389zM67 -122h295l-7 -41h-295z" />
    <glyph glyph-name="uni1E3B" unicode="&#x1e3b;" horiz-adv-x="255" 
d="M147 -8q-52 0 -76.5 32t-16.5 83l112 633h55l-110 -624q-6 -35 5 -55t46 -20q16 0 31 5t25 11l8 -42q-15 -11 -37 -17t-42 -6zM-96 -122h295l-7 -41h-295z" />
    <glyph glyph-name="uni1E42" unicode="&#x1e42;" horiz-adv-x="907" 
d="M33 0l159 710h60l168 -645l402 645h60l-98 -710h-53l81 602l-377 -602h-52l-159 611l-137 -611h-54zM386 -176q-19 0 -29 12t-10 27q0 16 11 28t28 12q19 0 29.5 -12t10.5 -28q0 -15 -11 -27t-29 -12z" />
    <glyph glyph-name="uni1E43" unicode="&#x1e43;" horiz-adv-x="896" 
d="M36 0l57 324q8 44 13.5 86.5t8.5 84.5h54q-3 -39 -10.5 -90.5t-21.5 -109.5q40 103 100 156t133 53q64 0 99 -39t26 -126q42 82 98.5 123.5t121.5 41.5q73 0 106 -50t12 -149l-36 -173q-13 -62 -13 -132h-56q0 63 14 129l35 170q17 81 -3 117.5t-75 36.5q-57 0 -107 -47
t-90 -146.5t-67 -259.5h-54l52 299q15 81 -4.5 117.5t-74.5 36.5q-57 0 -107 -47t-90 -146.5t-67 -259.5h-54zM384 -176q-19 0 -29 12t-10 27q0 16 11 28t28 12q19 0 29.5 -12t10.5 -28q0 -15 -11 -27t-29 -12z" />
    <glyph glyph-name="uni1E44" unicode="&#x1e44;" horiz-adv-x="709" 
d="M650 710h55l-125 -710h-48l-328 617l-108 -617h-54l125 710h48l327 -617zM461 806q-19 0 -29.5 12t-10.5 28t11.5 28t28.5 12q19 0 29.5 -12t10.5 -28t-10.5 -28t-29.5 -12z" />
    <glyph glyph-name="uni1E45" unicode="&#x1e45;" horiz-adv-x="559" 
d="M35 0l57 324q8 44 14 86.5t9 84.5h53q-2 -39 -9.5 -90.5t-22.5 -109.5q41 103 101.5 156t136.5 53t109.5 -50t12.5 -149l-36 -173q-13 -62 -13 -132h-56q0 63 14 129l35 170q17 81 -3.5 117.5t-78.5 36.5q-59 0 -110 -47t-91.5 -146.5t-67.5 -259.5h-54zM347 591
q-19 0 -29.5 12t-10.5 28t11.5 27.5t28.5 11.5q19 0 29.5 -11.5t10.5 -27.5t-10.5 -28t-29.5 -12z" />
    <glyph glyph-name="uni1E46" unicode="&#x1e46;" horiz-adv-x="709" 
d="M650 710h55l-125 -710h-48l-328 617l-108 -617h-54l125 710h48l327 -617zM288 -176q-19 0 -29 12t-10 27q0 16 11 28t28 12q19 0 29.5 -12t10.5 -28q0 -15 -11 -27t-29 -12z" />
    <glyph glyph-name="uni1E47" unicode="&#x1e47;" horiz-adv-x="559" 
d="M35 0l57 324q8 44 14 86.5t9 84.5h53q-2 -39 -9.5 -90.5t-22.5 -109.5q41 103 101.5 156t136.5 53t109.5 -50t12.5 -149l-36 -173q-13 -62 -13 -132h-56q0 63 14 129l35 170q17 81 -3.5 117.5t-78.5 36.5q-59 0 -110 -47t-91.5 -146.5t-67.5 -259.5h-54zM214 -176
q-19 0 -29 12t-10 27q0 16 11 28t28 12q19 0 29.5 -12t10.5 -28q0 -15 -11 -27t-29 -12z" />
    <glyph glyph-name="uni1E48" unicode="&#x1e48;" horiz-adv-x="709" 
d="M650 710h55l-125 -710h-48l-328 617l-108 -617h-54l125 710h48l327 -617zM143 -122h295l-7 -41h-295z" />
    <glyph glyph-name="uni1E49" unicode="&#x1e49;" horiz-adv-x="559" 
d="M35 0l57 324q8 44 14 86.5t9 84.5h53q-2 -39 -9.5 -90.5t-22.5 -109.5q41 103 101.5 156t136.5 53t109.5 -50t12.5 -149l-36 -173q-13 -62 -13 -132h-56q0 63 14 129l35 170q17 81 -3.5 117.5t-78.5 36.5q-59 0 -110 -47t-91.5 -146.5t-67.5 -259.5h-54zM69 -122h295
l-7 -41h-295z" />
    <glyph glyph-name="uni1E4C" unicode="&#x1e4c;" horiz-adv-x="767" 
d="M341 -8q-128 0 -198 71t-70 197q0 91 29.5 173.5t83 147t126.5 102t161 37.5q81 0 138.5 -33.5t88 -95.5t30.5 -146q0 -89 -28 -170.5t-79.5 -145t-123 -100.5t-158.5 -37zM345 46q76 0 136 33.5t102.5 90t65.5 128.5t23 149q0 103 -52.5 161t-149.5 58q-77 0 -139 -33.5
t-106.5 -91t-68.5 -130t-24 -150.5q0 -103 54.5 -159t158.5 -56zM473 905l133 163l57 -18l-135 -145h-55zM561 785q-19 0 -39.5 9.5t-41 22.5t-39.5 22.5t-36 9.5q-21 0 -39 -17t-29 -46l-28 17q15 42 42 65.5t61 23.5q19 0 39 -9.5t41 -22.5t40 -22.5t36 -9.5q21 0 39 17
t30 46l28 -17q-15 -42 -42.5 -65.5t-61.5 -23.5z" />
    <glyph glyph-name="uni1E4D" unicode="&#x1e4d;" horiz-adv-x="561" 
d="M330 504q82 0 130.5 -49.5t48.5 -138.5q0 -68 -21 -126.5t-58.5 -103t-87 -69.5t-106.5 -25q-86 0 -135 49.5t-49 139.5q0 63 19.5 121t56 103.5t88 72t114.5 26.5zM239 43q63 0 111 38t75.5 100t27.5 133q0 68 -33.5 104t-94.5 36q-64 0 -113.5 -37.5t-77 -99
t-27.5 -134.5q0 -68 34.5 -104t97.5 -36zM333 689l133 164l57 -18l-135 -146h-55zM421 569q-19 0 -39.5 10t-41 22.5t-39.5 22t-36 9.5q-21 0 -39 -17t-29 -45l-28 17q15 41 42 65t61 24q19 0 39 -10t41 -22.5t40 -22.5t36 -10q21 0 39 17.5t30 46.5l28 -18
q-15 -42 -42.5 -65.5t-61.5 -23.5z" />
    <glyph glyph-name="uni1E4E" unicode="&#x1e4e;" horiz-adv-x="767" 
d="M341 -8q-128 0 -198 71t-70 197q0 91 29.5 173.5t83 147t126.5 102t161 37.5q81 0 138.5 -33.5t88 -95.5t30.5 -146q0 -89 -28 -170.5t-79.5 -145t-123 -100.5t-158.5 -37zM345 46q76 0 136 33.5t102.5 90t65.5 128.5t23 149q0 103 -52.5 161t-149.5 58q-77 0 -139 -33.5
t-106.5 -91t-68.5 -130t-24 -150.5q0 -103 54.5 -159t158.5 -56zM433 959q-18 0 -28 10.5t-10 26.5q0 15 10.5 25.5t28.5 10.5q16 0 26 -10.5t10 -25.5q0 -16 -10.5 -26.5t-26.5 -10.5zM594 959q-17 0 -27 10.5t-10 26.5q0 15 10.5 25.5t27.5 10.5t27 -10.5t10 -25.5
q0 -16 -10.5 -26.5t-27.5 -10.5zM561 785q-19 0 -39.5 9.5t-41 22.5t-39.5 22.5t-36 9.5q-21 0 -39 -17t-29 -46l-28 17q15 42 42 65.5t61 23.5q19 0 39 -9.5t41 -22.5t40 -22.5t36 -9.5q21 0 39 17t30 46l28 -17q-15 -42 -42.5 -65.5t-61.5 -23.5z" />
    <glyph glyph-name="uni1E4F" unicode="&#x1e4f;" horiz-adv-x="561" 
d="M330 504q82 0 130.5 -49.5t48.5 -138.5q0 -68 -21 -126.5t-58.5 -103t-87 -69.5t-106.5 -25q-86 0 -135 49.5t-49 139.5q0 63 19.5 121t56 103.5t88 72t114.5 26.5zM239 43q63 0 111 38t75.5 100t27.5 133q0 68 -33.5 104t-94.5 36q-64 0 -113.5 -37.5t-77 -99
t-27.5 -134.5q0 -68 34.5 -104t97.5 -36zM293 744q-18 0 -28 10t-10 26t10.5 26.5t28.5 10.5q16 0 26 -10.5t10 -26.5t-10.5 -26t-26.5 -10zM454 744q-17 0 -27 10t-10 26t10.5 26.5t27.5 10.5t27 -10.5t10 -26.5t-10.5 -26t-27.5 -10zM421 569q-19 0 -39.5 10t-41 22.5
t-39.5 22t-36 9.5q-21 0 -39 -17t-29 -45l-28 17q15 41 42 65t61 24q19 0 39 -10t41 -22.5t40 -22.5t36 -10q21 0 39 17.5t30 46.5l28 -18q-15 -42 -42.5 -65.5t-61.5 -23.5z" />
    <glyph glyph-name="uni1E50" unicode="&#x1e50;" horiz-adv-x="767" 
d="M341 -8q-128 0 -198 71t-70 197q0 91 29.5 173.5t83 147t126.5 102t161 37.5q81 0 138.5 -33.5t88 -95.5t30.5 -146q0 -89 -28 -170.5t-79.5 -145t-123 -100.5t-158.5 -37zM345 46q76 0 136 33.5t102.5 90t65.5 128.5t23 149q0 103 -52.5 161t-149.5 58q-77 0 -139 -33.5
t-106.5 -91t-68.5 -130t-24 -150.5q0 -103 54.5 -159t158.5 -56zM471 905l-83 145l63 18l74 -163h-54zM386 817l7 41h194l-7 -41h-194z" />
    <glyph glyph-name="uni1E51" unicode="&#x1e51;" horiz-adv-x="561" 
d="M330 504q82 0 130.5 -49.5t48.5 -138.5q0 -68 -21 -126.5t-58.5 -103t-87 -69.5t-106.5 -25q-86 0 -135 49.5t-49 139.5q0 63 19.5 121t56 103.5t88 72t114.5 26.5zM239 43q63 0 111 38t75.5 100t27.5 133q0 68 -33.5 104t-94.5 36q-64 0 -113.5 -37.5t-77 -99
t-27.5 -134.5q0 -68 34.5 -104t97.5 -36zM331 689l-83 146l63 18l74 -164h-54zM246 602l7 40h194l-7 -40h-194z" />
    <glyph glyph-name="uni1E52" unicode="&#x1e52;" horiz-adv-x="767" 
d="M341 -8q-128 0 -198 71t-70 197q0 91 29.5 173.5t83 147t126.5 102t161 37.5q81 0 138.5 -33.5t88 -95.5t30.5 -146q0 -89 -28 -170.5t-79.5 -145t-123 -100.5t-158.5 -37zM345 46q76 0 136 33.5t102.5 90t65.5 128.5t23 149q0 103 -52.5 161t-149.5 58q-77 0 -139 -33.5
t-106.5 -91t-68.5 -130t-24 -150.5q0 -103 54.5 -159t158.5 -56zM471 905l132 163l57 -18l-135 -145h-54zM386 817l7 41h194l-7 -41h-194z" />
    <glyph glyph-name="uni1E53" unicode="&#x1e53;" horiz-adv-x="561" 
d="M330 504q82 0 130.5 -49.5t48.5 -138.5q0 -68 -21 -126.5t-58.5 -103t-87 -69.5t-106.5 -25q-86 0 -135 49.5t-49 139.5q0 63 19.5 121t56 103.5t88 72t114.5 26.5zM239 43q63 0 111 38t75.5 100t27.5 133q0 68 -33.5 104t-94.5 36q-64 0 -113.5 -37.5t-77 -99
t-27.5 -134.5q0 -68 34.5 -104t97.5 -36zM331 689l132 164l57 -18l-135 -146h-54zM246 602l7 40h194l-7 -40h-194z" />
    <glyph glyph-name="uni1E5A" unicode="&#x1e5a;" horiz-adv-x="565" 
d="M542 59l10 -43q-32 -21 -76 -21q-39 0 -67 18.5t-51 62.5l-108 213q-9 18 -27 31.5t-42 13.5h-24l-59 -334h-56l125 710h180q106 0 161 -40.5t55 -115.5q0 -69 -34 -118t-93 -75t-134 -26h-29q13 -8 24 -22.5t22 -36.5l81 -161q23 -44 41 -57.5t48 -13.5q16 0 29 4.5
t24 10.5zM343 662h-129l-49 -282h128q96 0 154 40.5t58 127.5q0 114 -162 114zM236 -176q-19 0 -29 12t-10 27q0 16 11 28t28 12q19 0 29.5 -12t10.5 -28q0 -15 -11 -27t-29 -12z" />
    <glyph glyph-name="uni1E5B" unicode="&#x1e5b;" horiz-adv-x="366" 
d="M378 443q-10 3 -19 4.5t-21 1.5q-87 0 -147.5 -108t-101.5 -341h-54l57 324q7 43 13 86t9 85h54q-3 -37 -10 -85.5t-17 -98.5q43 107 98 150t111 43q13 0 25 -1.5t20 -5.5zM38 -176q-19 0 -29 12t-10 27q0 16 11 28t28 12q19 0 29.5 -12t10.5 -28q0 -15 -11 -27t-29 -12z
" />
    <glyph glyph-name="uni1E5E" unicode="&#x1e5e;" horiz-adv-x="565" 
d="M542 59l10 -43q-32 -21 -76 -21q-39 0 -67 18.5t-51 62.5l-108 213q-9 18 -27 31.5t-42 13.5h-24l-59 -334h-56l125 710h180q106 0 161 -40.5t55 -115.5q0 -69 -34 -118t-93 -75t-134 -26h-29q13 -8 24 -22.5t22 -36.5l81 -161q23 -44 41 -57.5t48 -13.5q16 0 29 4.5
t24 10.5zM343 662h-129l-49 -282h128q96 0 154 40.5t58 127.5q0 114 -162 114zM91 -122h295l-7 -41h-295z" />
    <glyph glyph-name="uni1E5F" unicode="&#x1e5f;" horiz-adv-x="366" 
d="M378 443q-10 3 -19 4.5t-21 1.5q-87 0 -147.5 -108t-101.5 -341h-54l57 324q7 43 13 86t9 85h54q-3 -37 -10 -85.5t-17 -98.5q43 107 98 150t111 43q13 0 25 -1.5t20 -5.5zM-107 -122h295l-7 -41h-295z" />
    <glyph glyph-name="uni1E60" unicode="&#x1e60;" horiz-adv-x="558" 
d="M255 -8q-115 0 -173 54.5t-55 163.5l56 7q0 -93 41 -133t135 -40q88 0 139.5 41.5t51.5 115.5q0 37 -18 58.5t-47 34t-64 21.5t-69.5 19.5t-64 28.5t-47 49.5t-17.5 80.5q0 68 32 119t88 79.5t127 28.5q93 0 142.5 -48.5t48.5 -139.5l-52 -8q0 75 -34.5 110t-105.5 35
q-85 0 -136.5 -47.5t-51.5 -124.5q0 -39 17.5 -62.5t47 -37t64 -23t69.5 -19.5t64 -27t47 -46t18 -76q0 -66 -33 -114t-90.5 -74t-129.5 -26zM390 806q-19 0 -29.5 12t-10.5 28t11.5 28t28.5 12q19 0 29.5 -12t10.5 -28t-10.5 -28t-29.5 -12z" />
    <glyph glyph-name="uni1E61" unicode="&#x1e61;" horiz-adv-x="444" 
d="M195 -8q-176 0 -176 148l50 11q0 -59 30 -86t97 -27q58 0 97 26t39 73q0 27 -17.5 42t-46 24t-60 17.5t-59.5 21.5t-46 36.5t-18 63.5q0 50 26 86t69.5 55.5t93.5 19.5q64 0 102.5 -32.5t42.5 -92.5l-48 -12q-5 91 -98 91q-59 0 -96 -30t-37 -78q0 -30 18 -47.5t46 -27.5
t59.5 -18t59.5 -20.5t46 -34.5t18 -59q0 -46 -27 -79.5t-70.5 -52t-94.5 -18.5zM296 591q-19 0 -29.5 12t-10.5 28t11.5 27.5t28.5 11.5q19 0 29.5 -11.5t10.5 -27.5t-10.5 -28t-29.5 -12z" />
    <glyph glyph-name="uni1E62" unicode="&#x1e62;" horiz-adv-x="558" 
d="M255 -8q-115 0 -173 54.5t-55 163.5l56 7q0 -93 41 -133t135 -40q88 0 139.5 41.5t51.5 115.5q0 37 -18 58.5t-47 34t-64 21.5t-69.5 19.5t-64 28.5t-47 49.5t-17.5 80.5q0 68 32 119t88 79.5t127 28.5q93 0 142.5 -48.5t48.5 -139.5l-52 -8q0 75 -34.5 110t-105.5 35
q-85 0 -136.5 -47.5t-51.5 -124.5q0 -39 17.5 -62.5t47 -37t64 -23t69.5 -19.5t64 -27t47 -46t18 -76q0 -66 -33 -114t-90.5 -74t-129.5 -26zM217 -176q-19 0 -29 12t-10 27q0 16 11 28t28 12q19 0 29.5 -12t10.5 -28q0 -15 -11 -27t-29 -12z" />
    <glyph glyph-name="uni1E63" unicode="&#x1e63;" horiz-adv-x="444" 
d="M195 -8q-176 0 -176 148l50 11q0 -59 30 -86t97 -27q58 0 97 26t39 73q0 27 -17.5 42t-46 24t-60 17.5t-59.5 21.5t-46 36.5t-18 63.5q0 50 26 86t69.5 55.5t93.5 19.5q64 0 102.5 -32.5t42.5 -92.5l-48 -12q-5 91 -98 91q-59 0 -96 -30t-37 -78q0 -30 18 -47.5t46 -27.5
t59.5 -18t59.5 -20.5t46 -34.5t18 -59q0 -46 -27 -79.5t-70.5 -52t-94.5 -18.5zM161 -176q-19 0 -29 12t-10 27q0 16 11 28t28 12q19 0 29.5 -12t10.5 -28q0 -15 -11 -27t-29 -12z" />
    <glyph glyph-name="uni1E64" unicode="&#x1e64;" horiz-adv-x="558" 
d="M255 -8q-115 0 -173 54.5t-55 163.5l56 7q0 -93 41 -133t135 -40q88 0 139.5 41.5t51.5 115.5q0 37 -18 58.5t-47 34t-64 21.5t-69.5 19.5t-64 28.5t-47 49.5t-17.5 80.5q0 68 32 119t88 79.5t127 28.5q93 0 142.5 -48.5t48.5 -139.5l-52 -8q0 75 -34.5 110t-105.5 35
q-85 0 -136.5 -47.5t-51.5 -124.5q0 -39 17.5 -62.5t47 -37t64 -23t69.5 -19.5t64 -27t47 -46t18 -76q0 -66 -33 -114t-90.5 -74t-129.5 -26zM409 946q-18 0 -28.5 12t-10.5 28t11.5 28t28.5 12q18 0 28.5 -12t10.5 -28t-10.5 -28t-29.5 -12zM355 788l144 177l57 -18
l-147 -159h-54z" />
    <glyph glyph-name="uni1E65" unicode="&#x1e65;" horiz-adv-x="444" 
d="M195 -8q-176 0 -176 148l50 11q0 -59 30 -86t97 -27q58 0 97 26t39 73q0 27 -17.5 42t-46 24t-60 17.5t-59.5 21.5t-46 36.5t-18 63.5q0 50 26 86t69.5 55.5t93.5 19.5q64 0 102.5 -32.5t42.5 -92.5l-48 -12q-5 91 -98 91q-59 0 -96 -30t-37 -78q0 -30 18 -47.5t46 -27.5
t59.5 -18t59.5 -20.5t46 -34.5t18 -59q0 -46 -27 -79.5t-70.5 -52t-94.5 -18.5zM315 731q-18 0 -28.5 12t-10.5 28t11.5 28t28.5 12q18 0 28.5 -12t10.5 -28t-10.5 -28t-29.5 -12zM261 573l144 177l57 -18l-147 -159h-54z" />
    <glyph glyph-name="uni1E66" unicode="&#x1e66;" horiz-adv-x="558" 
d="M255 -8q-115 0 -173 54.5t-55 163.5l56 7q0 -93 41 -133t135 -40q88 0 139.5 41.5t51.5 115.5q0 37 -18 58.5t-47 34t-64 21.5t-69.5 19.5t-64 28.5t-47 49.5t-17.5 80.5q0 68 32 119t88 79.5t127 28.5q93 0 142.5 -48.5t48.5 -139.5l-52 -8q0 75 -34.5 110t-105.5 35
q-85 0 -136.5 -47.5t-51.5 -124.5q0 -39 17.5 -62.5t47 -37t64 -23t69.5 -19.5t64 -27t47 -46t18 -76q0 -66 -33 -114t-90.5 -74t-129.5 -26zM418 962q-19 0 -29.5 12t-10.5 28t11 28t29 12t28.5 -12t10.5 -28t-10.5 -28t-28.5 -12zM356 788l-95 167l45 10l78 -137l127 137
l47 -10l-155 -167h-47z" />
    <glyph glyph-name="uni1E67" unicode="&#x1e67;" horiz-adv-x="444" 
d="M195 -8q-176 0 -176 148l50 11q0 -59 30 -86t97 -27q58 0 97 26t39 73q0 27 -17.5 42t-46 24t-60 17.5t-59.5 21.5t-46 36.5t-18 63.5q0 50 26 86t69.5 55.5t93.5 19.5q64 0 102.5 -32.5t42.5 -92.5l-48 -12q-5 91 -98 91q-59 0 -96 -30t-37 -78q0 -30 18 -47.5t46 -27.5
t59.5 -18t59.5 -20.5t46 -34.5t18 -59q0 -46 -27 -79.5t-70.5 -52t-94.5 -18.5zM324 747q-19 0 -29.5 11.5t-10.5 27.5t11 28t29 12t28.5 -12t10.5 -28t-10.5 -27.5t-28.5 -11.5zM262 573l-95 167l45 10l78 -138l127 138l47 -10l-155 -167h-47z" />
    <glyph glyph-name="uni1E68" unicode="&#x1e68;" horiz-adv-x="558" 
d="M255 -8q-115 0 -173 54.5t-55 163.5l56 7q0 -93 41 -133t135 -40q88 0 139.5 41.5t51.5 115.5q0 37 -18 58.5t-47 34t-64 21.5t-69.5 19.5t-64 28.5t-47 49.5t-17.5 80.5q0 68 32 119t88 79.5t127 28.5q93 0 142.5 -48.5t48.5 -139.5l-52 -8q0 75 -34.5 110t-105.5 35
q-85 0 -136.5 -47.5t-51.5 -124.5q0 -39 17.5 -62.5t47 -37t64 -23t69.5 -19.5t64 -27t47 -46t18 -76q0 -66 -33 -114t-90.5 -74t-129.5 -26zM217 -176q-19 0 -29 12t-10 27q0 16 11 28t28 12q19 0 29.5 -12t10.5 -28q0 -15 -11 -27t-29 -12zM390 806q-19 0 -29.5 12
t-10.5 28t11.5 28t28.5 12q19 0 29.5 -12t10.5 -28t-10.5 -28t-29.5 -12z" />
    <glyph glyph-name="uni1E69" unicode="&#x1e69;" horiz-adv-x="444" 
d="M195 -8q-176 0 -176 148l50 11q0 -59 30 -86t97 -27q58 0 97 26t39 73q0 27 -17.5 42t-46 24t-60 17.5t-59.5 21.5t-46 36.5t-18 63.5q0 50 26 86t69.5 55.5t93.5 19.5q64 0 102.5 -32.5t42.5 -92.5l-48 -12q-5 91 -98 91q-59 0 -96 -30t-37 -78q0 -30 18 -47.5t46 -27.5
t59.5 -18t59.5 -20.5t46 -34.5t18 -59q0 -46 -27 -79.5t-70.5 -52t-94.5 -18.5zM161 -176q-19 0 -29 12t-10 27q0 16 11 28t28 12q19 0 29.5 -12t10.5 -28q0 -15 -11 -27t-29 -12zM296 591q-19 0 -29.5 12t-10.5 28t11.5 27.5t28.5 11.5q19 0 29.5 -11.5t10.5 -27.5
t-10.5 -28t-29.5 -12z" />
    <glyph glyph-name="uni1E6C" unicode="&#x1e6c;" horiz-adv-x="535" 
d="M611 710l-13 -49h-229l-117 -661h-58l117 661h-234l9 49h525zM200 -176q-19 0 -29 12t-10 27q0 16 11 28t28 12q19 0 29.5 -12t10.5 -28q0 -15 -11 -27t-29 -12z" />
    <glyph glyph-name="uni1E6D" unicode="&#x1e6d;" horiz-adv-x="354" 
d="M213 -8q-79 0 -113 46.5t-20 123.5l54 286h-89l8 47h90l19 104h55l-19 -104h176l-9 -47h-176l-55 -291q-10 -55 11 -85t75 -30q25 0 46 6t45 23l14 -43q-22 -19 -51.5 -27.5t-60.5 -8.5zM160 -176q-19 0 -29 12t-10 27q0 16 11 28t28 12q19 0 29.5 -12t10.5 -28
q0 -15 -11 -27t-29 -12z" />
    <glyph glyph-name="uni1E6E" unicode="&#x1e6e;" horiz-adv-x="535" 
d="M611 710l-13 -49h-229l-117 -661h-58l117 661h-234l9 49h525zM55 -122h295l-7 -41h-295z" />
    <glyph glyph-name="uni1E6F" unicode="&#x1e6f;" horiz-adv-x="354" 
d="M213 -8q-79 0 -113 46.5t-20 123.5l54 286h-89l8 47h90l19 104h55l-19 -104h176l-9 -47h-176l-55 -291q-10 -55 11 -85t75 -30q25 0 46 6t45 23l14 -43q-22 -19 -51.5 -27.5t-60.5 -8.5zM15 -122h295l-7 -41h-295z" />
    <glyph glyph-name="uni1E78" unicode="&#x1e78;" horiz-adv-x="713" 
d="M654 710h57l-64 -367q-31 -184 -109.5 -267.5t-220.5 -83.5q-136 0 -193.5 80t-30.5 232l71 406h59l-71 -403q-23 -132 18 -196.5t149 -64.5q79 0 132.5 30t87 95.5t51.5 172.5zM448 905l133 163l57 -18l-135 -145h-55zM536 785q-19 0 -39.5 9.5t-41 22.5t-39.5 22.5
t-36 9.5q-21 0 -39 -17t-29 -46l-28 17q15 42 42 65.5t61 23.5q19 0 39 -9.5t41 -22.5t40 -22.5t36 -9.5q21 0 39 17t30 46l28 -17q-15 -42 -42.5 -65.5t-61.5 -23.5z" />
    <glyph glyph-name="uni1E79" unicode="&#x1e79;" horiz-adv-x="550" 
d="M181 -8q-71 0 -103 49.5t-15 144.5l26 138q16 89 22 171h55q-3 -42 -9.5 -88.5t-13.5 -84.5l-25 -132q-14 -76 6 -111t76 -35q84 0 153 107t110 344h52l-58 -326q-7 -46 -12.5 -94.5t-5.5 -74.5h-54q1 35 6.5 80t20.5 110q-41 -97 -99.5 -147.5t-131.5 -50.5zM328 689
l133 164l57 -18l-135 -146h-55zM416 569q-19 0 -39.5 10t-41 22.5t-39.5 22t-36 9.5q-21 0 -39 -17t-29 -45l-28 17q15 41 42 65t61 24q19 0 39 -10t41 -22.5t40 -22.5t36 -10q21 0 39 17.5t30 46.5l28 -18q-15 -42 -42.5 -65.5t-61.5 -23.5z" />
    <glyph glyph-name="uni1E7A" unicode="&#x1e7a;" horiz-adv-x="713" 
d="M654 710h57l-64 -367q-31 -184 -109.5 -267.5t-220.5 -83.5q-136 0 -193.5 80t-30.5 232l71 406h59l-71 -403q-23 -132 18 -196.5t149 -64.5q79 0 132.5 30t87 95.5t51.5 172.5zM400 911q-17 0 -27 10t-10 26t10.5 26.5t27.5 10.5t27 -10.5t10 -26.5t-10.5 -26t-27.5 -10
zM562 911q-18 0 -28 10t-10 26t10.5 26.5t28.5 10.5q16 0 26 -10.5t10 -26.5t-10.5 -26t-26.5 -10zM337 817l7 41h242l-7 -41h-242z" />
    <glyph glyph-name="uni1E7B" unicode="&#x1e7b;" horiz-adv-x="550" 
d="M181 -8q-71 0 -103 49.5t-15 144.5l26 138q16 89 22 171h55q-3 -42 -9.5 -88.5t-13.5 -84.5l-25 -132q-14 -76 6 -111t76 -35q84 0 153 107t110 344h52l-58 -326q-7 -46 -12.5 -94.5t-5.5 -74.5h-54q1 35 6.5 80t20.5 110q-41 -97 -99.5 -147.5t-131.5 -50.5zM280 695
q-17 0 -27 10.5t-10 26.5q0 15 10.5 25.5t27.5 10.5t27 -10.5t10 -25.5q0 -16 -10.5 -26.5t-27.5 -10.5zM442 695q-18 0 -28 10.5t-10 26.5q0 15 10.5 25.5t28.5 10.5q16 0 26 -10.5t10 -25.5q0 -16 -10.5 -26.5t-26.5 -10.5zM217 602l7 40h242l-7 -40h-242z" />
    <glyph glyph-name="Wgrave" unicode="&#x1e80;" horiz-adv-x="917" 
d="M917 710h59l-332 -710h-68l-45 624l-294 -624h-67l-50 710h54l41 -644l303 644h57l46 -645zM538 788l-91 159l62 18l81 -177h-52z" />
    <glyph glyph-name="wgrave" unicode="&#x1e81;" horiz-adv-x="825" 
d="M799 495h59l-275 -495h-61l-65 424l-238 -424h-61l-69 495h55l56 -435l242 435h56l63 -436zM462 573l-91 159l62 18l81 -177h-52z" />
    <glyph glyph-name="Wacute" unicode="&#x1e82;" horiz-adv-x="917" 
d="M917 710h59l-332 -710h-68l-45 624l-294 -624h-67l-50 710h54l41 -644l303 644h57l46 -645zM534 788l144 177l57 -18l-147 -159h-54z" />
    <glyph glyph-name="wacute" unicode="&#x1e83;" horiz-adv-x="825" 
d="M799 495h59l-275 -495h-61l-65 424l-238 -424h-61l-69 495h55l56 -435l242 435h56l63 -436zM458 573l144 177l57 -18l-147 -159h-54z" />
    <glyph glyph-name="Wdieresis" unicode="&#x1e84;" horiz-adv-x="917" 
d="M917 710h59l-332 -710h-68l-45 624l-294 -624h-67l-50 710h54l41 -644l303 644h57l46 -645zM651 784q-18 0 -28.5 10.5t-10.5 26.5t10.5 26t28.5 10q16 0 26 -10t10 -26t-10 -26.5t-26 -10.5zM489 784q-17 0 -27.5 10.5t-10.5 26.5t10.5 26t27.5 10t27 -10t10 -26
t-10 -26.5t-27 -10.5z" />
    <glyph glyph-name="wdieresis" unicode="&#x1e85;" horiz-adv-x="825" 
d="M799 495h59l-275 -495h-61l-65 424l-238 -424h-61l-69 495h55l56 -435l242 435h56l63 -436zM575 569q-18 0 -28.5 10.5t-10.5 26.5q0 15 10.5 25.5t28.5 10.5q16 0 26 -10.5t10 -25.5q0 -16 -10 -26.5t-26 -10.5zM413 569q-17 0 -27.5 10.5t-10.5 26.5q0 15 10.5 25.5
t27.5 10.5t27 -10.5t10 -25.5q0 -16 -10 -26.5t-27 -10.5z" />
    <glyph glyph-name="uni1E8E" unicode="&#x1e8e;" horiz-adv-x="533" 
d="M636 710l-328 -388l-57 -322h-58l58 324l-191 386h61l166 -336l284 336h65zM374 806q-19 0 -29.5 12t-10.5 28t11.5 28t28.5 12q19 0 29.5 -12t10.5 -28t-10.5 -28t-29.5 -12z" />
    <glyph glyph-name="uni1E8F" unicode="&#x1e8f;" horiz-adv-x="555" 
d="M170 -210q-42 0 -83 8.5t-68 25.5l15 50q27 -15 63.5 -24.5t73.5 -9.5q97 0 147.5 49.5t71.5 161.5l28 142q-46 -104 -104.5 -148.5t-122.5 -44.5q-76 0 -110 49.5t-18 138.5l26 136q16 86 22 171h55q-3 -42 -9.5 -88.5t-13.5 -84.5l-24 -125q-13 -71 6.5 -108.5
t76.5 -37.5q56 0 105.5 42t90.5 139.5t70 262.5h52l-77 -436q-25 -143 -90.5 -206t-182.5 -63zM346 591q-19 0 -29.5 12t-10.5 28t11.5 27.5t28.5 11.5q19 0 29.5 -11.5t10.5 -27.5t-10.5 -28t-29.5 -12z" />
    <glyph glyph-name="uni1E92" unicode="&#x1e92;" horiz-adv-x="587" 
d="M-3 0l8 41l544 620h-421l9 49h498l-8 -41l-544 -620h447l-15 -49h-518zM233 -176q-19 0 -29 12t-10 27q0 16 11 28t28 12q19 0 29.5 -12t10.5 -28q0 -15 -11 -27t-29 -12z" />
    <glyph glyph-name="uni1E93" unicode="&#x1e93;" horiz-adv-x="452" 
d="M-1 0l6 37l364 411h-279l9 47h350l-6 -38l-364 -410h289l-8 -47h-361zM164 -176q-19 0 -29 12t-10 27q0 16 11 28t28 12q19 0 29.5 -12t10.5 -28q0 -15 -11 -27t-29 -12z" />
    <glyph glyph-name="uni1E97" unicode="&#x1e97;" horiz-adv-x="354" 
d="M213 -8q-79 0 -113 46.5t-20 123.5l54 286h-89l8 47h90l19 104h55l-19 -104h176l-9 -47h-176l-55 -291q-10 -55 11 -85t75 -30q25 0 46 6t45 23l14 -43q-22 -19 -51.5 -27.5t-60.5 -8.5zM291 673q-18 0 -28.5 10.5t-10.5 26.5q0 15 10.5 25.5t28.5 10.5q16 0 26 -10.5
t10 -25.5q0 -16 -10 -26.5t-26 -10.5zM129 673q-17 0 -27.5 10.5t-10.5 26.5q0 15 10.5 25.5t27.5 10.5t27 -10.5t10 -25.5q0 -16 -10 -26.5t-27 -10.5z" />
    <glyph glyph-name="uni1E9E" unicode="&#x1e9e;" horiz-adv-x="685" 
d="M441 720q100 0 158 -44.5t58 -121.5q0 -67 -40 -120t-105 -77q52 -16 80.5 -53.5t28.5 -92.5q0 -63 -30 -112.5t-82.5 -78t-119.5 -28.5q-92 0 -142 46.5t-52 133.5l51 15q4 -145 147 -145q77 0 123.5 46.5t46.5 122.5q0 59 -39 90.5t-112 31.5h-49l8 49h58q49 0 87.5 22
t61 60.5t22.5 86.5q0 57 -41.5 88t-117.5 31q-223 0 -263 -225l-79 -445h-57l79 450q24 133 105 201.5t215 68.5z" />
    <glyph glyph-name="uni1EA0" unicode="&#x1ea0;" horiz-adv-x="668" 
d="M-23 0l418 710h51l154 -710h-56l-41 200h-348l-116 -200h-62zM184 249h308l-81 391zM267 -176q-19 0 -29 12t-10 27q0 16 11 28t28 12q19 0 29.5 -12t10.5 -28q0 -15 -11 -27t-29 -12z" />
    <glyph glyph-name="uni1EA1" unicode="&#x1ea1;" horiz-adv-x="567" 
d="M210 -8q-75 0 -117.5 46.5t-42.5 130.5q0 69 21.5 129.5t60 107t90 72.5t113.5 26q42 0 81.5 -15t62.5 -38l17 44h41q-11 -48 -18.5 -86t-13.5 -67l-30 -173q-8 -46 -13 -94.5t-5 -74.5h-54q1 34 5 69t11 73q-36 -73 -91 -111.5t-118 -38.5zM218 43q53 0 99.5 32.5
t79.5 90t46 132.5l19 106q-48 50 -128 50q-68 0 -119 -39.5t-79.5 -104t-28.5 -138.5q0 -62 28.5 -95.5t82.5 -33.5zM239 -176q-19 0 -29 12t-10 27q0 16 11 28t28 12q19 0 29.5 -12t10.5 -28q0 -15 -11 -27t-29 -12z" />
    <glyph glyph-name="uni1EA2" unicode="&#x1ea2;" horiz-adv-x="668" 
d="M-23 0l418 710h51l154 -710h-56l-41 200h-348l-116 -200h-62zM184 249h308l-81 391zM472 966q32 0 49 -14t17 -37q0 -26 -12 -39.5t-28.5 -24t-31 -24t-18.5 -39.5h-35l2 11q6 27 18.5 42t26 24t23.5 18.5t10 24.5q0 10 -7 17t-23 7q-20 0 -38 -10t-34 -32l-23 21
q18 27 45.5 41t58.5 14z" />
    <glyph glyph-name="uni1EA3" unicode="&#x1ea3;" horiz-adv-x="567" 
d="M210 -8q-75 0 -117.5 46.5t-42.5 130.5q0 69 21.5 129.5t60 107t90 72.5t113.5 26q42 0 81.5 -15t62.5 -38l17 44h41q-11 -48 -18.5 -86t-13.5 -67l-30 -173q-8 -46 -13 -94.5t-5 -74.5h-54q1 34 5 69t11 73q-36 -73 -91 -111.5t-118 -38.5zM218 43q53 0 99.5 32.5
t79.5 90t46 132.5l19 106q-48 50 -128 50q-68 0 -119 -39.5t-79.5 -104t-28.5 -138.5q0 -62 28.5 -95.5t82.5 -33.5zM406 751q32 0 49 -14.5t17 -37.5q0 -25 -12 -39t-28.5 -24t-31 -24t-18.5 -39h-35l2 11q6 26 18.5 41t26 24.5t23.5 18.5t10 25q0 9 -7 16t-23 7
q-20 0 -38 -9.5t-34 -31.5l-23 20q18 27 45.5 41.5t58.5 14.5z" />
    <glyph glyph-name="uni1EA4" unicode="&#x1ea4;" horiz-adv-x="668" 
d="M-23 0l418 710h51l154 -710h-56l-41 200h-348l-116 -200h-62zM184 249h308l-81 391zM538 925l144 177l55 -18l-147 -159h-52zM282 788l155 167h47l95 -167h-52l-71 128l-118 -128h-56z" />
    <glyph glyph-name="uni1EA5" unicode="&#x1ea5;" horiz-adv-x="567" 
d="M210 -8q-75 0 -117.5 46.5t-42.5 130.5q0 69 21.5 129.5t60 107t90 72.5t113.5 26q42 0 81.5 -15t62.5 -38l17 44h41q-11 -48 -18.5 -86t-13.5 -67l-30 -173q-8 -46 -13 -94.5t-5 -74.5h-54q1 34 5 69t11 73q-36 -73 -91 -111.5t-118 -38.5zM218 43q53 0 99.5 32.5
t79.5 90t46 132.5l19 106q-48 50 -128 50q-68 0 -119 -39.5t-79.5 -104t-28.5 -138.5q0 -62 28.5 -95.5t82.5 -33.5zM472 710l144 177l55 -18l-147 -159h-52zM216 573l155 167h47l95 -167h-52l-71 128l-118 -128h-56z" />
    <glyph glyph-name="uni1EA6" unicode="&#x1ea6;" horiz-adv-x="668" 
d="M-23 0l418 710h51l154 -710h-56l-41 200h-348l-116 -200h-62zM184 249h308l-81 391zM320 925l-90 159l60 18l81 -177h-51zM282 788l155 167h47l95 -167h-52l-71 128l-118 -128h-56z" />
    <glyph glyph-name="uni1EA7" unicode="&#x1ea7;" horiz-adv-x="567" 
d="M210 -8q-75 0 -117.5 46.5t-42.5 130.5q0 69 21.5 129.5t60 107t90 72.5t113.5 26q42 0 81.5 -15t62.5 -38l17 44h41q-11 -48 -18.5 -86t-13.5 -67l-30 -173q-8 -46 -13 -94.5t-5 -74.5h-54q1 34 5 69t11 73q-36 -73 -91 -111.5t-118 -38.5zM218 43q53 0 99.5 32.5
t79.5 90t46 132.5l19 106q-48 50 -128 50q-68 0 -119 -39.5t-79.5 -104t-28.5 -138.5q0 -62 28.5 -95.5t82.5 -33.5zM254 710l-90 159l60 18l81 -177h-51zM216 573l155 167h47l95 -167h-52l-71 128l-118 -128h-56z" />
    <glyph glyph-name="uni1EA8" unicode="&#x1ea8;" horiz-adv-x="668" 
d="M-23 0l418 710h51l154 -710h-56l-41 200h-348l-116 -200h-62zM184 249h308l-81 391zM550 925l2 11q5 27 17.5 42t26.5 24t24 18.5t10 24.5q0 10 -7 17t-23 7q-20 0 -38 -10t-34 -32l-23 21q18 27 45.5 41t58.5 14q32 0 49 -14t17 -37q0 -26 -12 -39.5t-28.5 -24t-31 -24
t-19.5 -39.5h-34zM282 788l155 167h47l95 -167h-52l-71 128l-118 -128h-56z" />
    <glyph glyph-name="uni1EA9" unicode="&#x1ea9;" horiz-adv-x="567" 
d="M210 -8q-75 0 -117.5 46.5t-42.5 130.5q0 69 21.5 129.5t60 107t90 72.5t113.5 26q42 0 81.5 -15t62.5 -38l17 44h41q-11 -48 -18.5 -86t-13.5 -67l-30 -173q-8 -46 -13 -94.5t-5 -74.5h-54q1 34 5 69t11 73q-36 -73 -91 -111.5t-118 -38.5zM218 43q53 0 99.5 32.5
t79.5 90t46 132.5l19 106q-48 50 -128 50q-68 0 -119 -39.5t-79.5 -104t-28.5 -138.5q0 -62 28.5 -95.5t82.5 -33.5zM484 710l2 11q5 26 17.5 41t26.5 24.5t24 18.5t10 25q0 9 -7 16t-23 7q-20 0 -38 -9.5t-34 -31.5l-23 20q18 27 45.5 41.5t58.5 14.5q32 0 49 -14.5
t17 -37.5q0 -25 -12 -39t-28.5 -24t-31 -24t-19.5 -39h-34zM216 573l155 167h47l95 -167h-52l-71 128l-118 -128h-56z" />
    <glyph glyph-name="uni1EAA" unicode="&#x1eaa;" horiz-adv-x="668" 
d="M-23 0l418 710h51l154 -710h-56l-41 200h-348l-116 -200h-62zM184 249h308l-81 391zM618 1067l25 -19q-15 -38 -40 -59.5t-57 -21.5q-26 0 -54 14.5t-54 29t-47 14.5t-38 -15t-29 -41l-24 19q14 38 39 59.5t58 21.5q24 0 52 -14.5t55 -29t47 -14.5q21 0 38 15t29 41z
M282 788l154 162h47l96 -162h-52l-72 124l-117 -124h-56z" />
    <glyph glyph-name="uni1EAB" unicode="&#x1eab;" horiz-adv-x="567" 
d="M210 -8q-75 0 -117.5 46.5t-42.5 130.5q0 69 21.5 129.5t60 107t90 72.5t113.5 26q42 0 81.5 -15t62.5 -38l17 44h41q-11 -48 -18.5 -86t-13.5 -67l-30 -173q-8 -46 -13 -94.5t-5 -74.5h-54q1 34 5 69t11 73q-36 -73 -91 -111.5t-118 -38.5zM218 43q53 0 99.5 32.5
t79.5 90t46 132.5l19 106q-48 50 -128 50q-68 0 -119 -39.5t-79.5 -104t-28.5 -138.5q0 -62 28.5 -95.5t82.5 -33.5zM552 851l25 -19q-15 -38 -40 -59t-57 -21q-26 0 -54 14.5t-54 29t-47 14.5t-38 -15.5t-29 -41.5l-24 19q14 38 39 59.5t58 21.5q24 0 52 -14.5t55 -29
t47 -14.5q21 0 38 15.5t29 40.5zM216 573l154 162h47l96 -162h-52l-72 123l-117 -123h-56z" />
    <glyph glyph-name="uni1EAC" unicode="&#x1eac;" horiz-adv-x="668" 
d="M-23 0l418 710h51l154 -710h-56l-41 200h-348l-116 -200h-62zM184 249h308l-81 391zM267 -176q-19 0 -29 12t-10 27q0 16 11 28t28 12q19 0 29.5 -12t10.5 -28q0 -15 -11 -27t-29 -12zM579 788h-51l-71 128l-118 -128h-57l155 167h47z" />
    <glyph glyph-name="uni1EAD" unicode="&#x1ead;" horiz-adv-x="567" 
d="M210 -8q-75 0 -117.5 46.5t-42.5 130.5q0 69 21.5 129.5t60 107t90 72.5t113.5 26q42 0 81.5 -15t62.5 -38l17 44h41q-11 -48 -18.5 -86t-13.5 -67l-30 -173q-8 -46 -13 -94.5t-5 -74.5h-54q1 34 5 69t11 73q-36 -73 -91 -111.5t-118 -38.5zM218 43q53 0 99.5 32.5
t79.5 90t46 132.5l19 106q-48 50 -128 50q-68 0 -119 -39.5t-79.5 -104t-28.5 -138.5q0 -62 28.5 -95.5t82.5 -33.5zM239 -176q-19 0 -29 12t-10 27q0 16 11 28t28 12q19 0 29.5 -12t10.5 -28q0 -15 -11 -27t-29 -12zM513 573h-51l-71 128l-118 -128h-57l155 167h47z" />
    <glyph glyph-name="uni1EAE" unicode="&#x1eae;" horiz-adv-x="668" 
d="M-23 0l418 710h51l154 -710h-56l-41 200h-348l-116 -200h-62zM184 249h308l-81 391zM419 905l130 163l56 -18l-133 -145h-53zM574 965l41 -10q-18 -78 -67 -125t-112 -47q-66 0 -100.5 46.5t-29.5 125.5l43 10q-9 -139 91 -139q96 0 134 139z" />
    <glyph glyph-name="uni1EAF" unicode="&#x1eaf;" horiz-adv-x="567" 
d="M210 -8q-75 0 -117.5 46.5t-42.5 130.5q0 69 21.5 129.5t60 107t90 72.5t113.5 26q42 0 81.5 -15t62.5 -38l17 44h41q-11 -48 -18.5 -86t-13.5 -67l-30 -173q-8 -46 -13 -94.5t-5 -74.5h-54q1 34 5 69t11 73q-36 -73 -91 -111.5t-118 -38.5zM218 43q53 0 99.5 32.5
t79.5 90t46 132.5l19 106q-48 50 -128 50q-68 0 -119 -39.5t-79.5 -104t-28.5 -138.5q0 -62 28.5 -95.5t82.5 -33.5zM353 689l130 164l56 -18l-133 -146h-53zM508 750l41 -10q-18 -79 -67 -125.5t-112 -46.5q-66 0 -100.5 46.5t-29.5 125.5l43 10q-9 -139 91 -139
q96 0 134 139z" />
    <glyph glyph-name="uni1EB0" unicode="&#x1eb0;" horiz-adv-x="668" 
d="M-23 0l418 710h51l154 -710h-56l-41 200h-348l-116 -200h-62zM184 249h308l-81 391zM430 905l-81 145l62 18l72 -163h-53zM574 965l41 -10q-18 -79 -67 -125.5t-112 -46.5q-66 0 -100.5 46.5t-29.5 125.5l43 10q-9 -139 91 -139q96 0 134 139z" />
    <glyph glyph-name="uni1EB1" unicode="&#x1eb1;" horiz-adv-x="567" 
d="M210 -8q-75 0 -117.5 46.5t-42.5 130.5q0 69 21.5 129.5t60 107t90 72.5t113.5 26q42 0 81.5 -15t62.5 -38l17 44h41q-11 -48 -18.5 -86t-13.5 -67l-30 -173q-8 -46 -13 -94.5t-5 -74.5h-54q1 34 5 69t11 73q-36 -73 -91 -111.5t-118 -38.5zM218 43q53 0 99.5 32.5
t79.5 90t46 132.5l19 106q-48 50 -128 50q-68 0 -119 -39.5t-79.5 -104t-28.5 -138.5q0 -62 28.5 -95.5t82.5 -33.5zM364 689l-81 146l62 18l72 -164h-53zM508 750l41 -10q-18 -79 -67 -125.5t-112 -46.5q-66 0 -100.5 46.5t-29.5 125.5l43 10q-9 -139 91 -139q96 0 134 139
z" />
    <glyph glyph-name="uni1EB2" unicode="&#x1eb2;" horiz-adv-x="668" 
d="M-23 0l418 710h51l154 -710h-56l-41 200h-348l-116 -200h-62zM184 249h308l-81 391zM493 1083q32 0 49 -14.5t17 -37.5q0 -25 -12 -39t-29 -24t-31 -24t-19 -39h-34l2 10q5 27 17.5 42t26.5 24t23.5 18.5t9.5 25.5q0 9 -6.5 16t-23.5 7q-19 0 -37.5 -10t-33.5 -31l-24 20
q18 27 45.5 41.5t59.5 14.5zM574 965l41 -10q-18 -79 -67 -125.5t-112 -46.5q-66 0 -100.5 46.5t-29.5 125.5l43 10q-9 -139 91 -139q96 0 134 139z" />
    <glyph glyph-name="uni1EB3" unicode="&#x1eb3;" horiz-adv-x="567" 
d="M210 -8q-75 0 -117.5 46.5t-42.5 130.5q0 69 21.5 129.5t60 107t90 72.5t113.5 26q42 0 81.5 -15t62.5 -38l17 44h41q-11 -48 -18.5 -86t-13.5 -67l-30 -173q-8 -46 -13 -94.5t-5 -74.5h-54q1 34 5 69t11 73q-36 -73 -91 -111.5t-118 -38.5zM218 43q53 0 99.5 32.5
t79.5 90t46 132.5l19 106q-48 50 -128 50q-68 0 -119 -39.5t-79.5 -104t-28.5 -138.5q0 -62 28.5 -95.5t82.5 -33.5zM427 867q32 0 49 -14t17 -37q0 -26 -12 -39.5t-29 -24t-31 -24t-19 -39.5h-34l2 11q5 27 17.5 42t26.5 24t23.5 18t9.5 25q0 10 -6.5 17t-23.5 7
q-19 0 -37.5 -10t-33.5 -32l-24 21q18 26 45.5 40.5t59.5 14.5zM508 750l41 -10q-18 -79 -67 -125.5t-112 -46.5q-66 0 -100.5 46.5t-29.5 125.5l43 10q-9 -139 91 -139q96 0 134 139z" />
    <glyph glyph-name="uni1EB4" unicode="&#x1eb4;" horiz-adv-x="668" 
d="M-23 0l418 710h51l154 -710h-56l-41 200h-348l-116 -200h-62zM184 249h308l-81 391zM618 1065l26 -19q-13 -37 -40 -57.5t-62 -20.5q-25 0 -51.5 14.5t-52 28.5t-47.5 14q-46 0 -66 -56l-26 19q13 39 39.5 60t61.5 21q24 0 51 -14.5t52.5 -29t47.5 -14.5t39 14.5t28 39.5
zM339 941q-2 -57 24.5 -86t78.5 -29q102 0 133 115l41 -9q-21 -75 -67 -112t-111 -37t-104 40t-38 109z" />
    <glyph glyph-name="uni1EB5" unicode="&#x1eb5;" horiz-adv-x="567" 
d="M210 -8q-75 0 -117.5 46.5t-42.5 130.5q0 69 21.5 129.5t60 107t90 72.5t113.5 26q42 0 81.5 -15t62.5 -38l17 44h41q-11 -48 -18.5 -86t-13.5 -67l-30 -173q-8 -46 -13 -94.5t-5 -74.5h-54q1 34 5 69t11 73q-36 -73 -91 -111.5t-118 -38.5zM218 43q53 0 99.5 32.5
t79.5 90t46 132.5l19 106q-48 50 -128 50q-68 0 -119 -39.5t-79.5 -104t-28.5 -138.5q0 -62 28.5 -95.5t82.5 -33.5zM552 850l26 -19q-13 -38 -40 -58t-62 -20q-25 0 -51.5 14t-52 28.5t-47.5 14.5q-46 0 -66 -56l-26 18q13 40 39.5 60.5t61.5 20.5q24 0 51 -14.5t52.5 -29
t47.5 -14.5t39 14.5t28 40.5zM273 726q-2 -58 24.5 -86.5t78.5 -28.5q102 0 133 115l41 -9q-21 -75 -67 -112t-111 -37t-104 40t-38 109z" />
    <glyph glyph-name="uni1EB6" unicode="&#x1eb6;" horiz-adv-x="668" 
d="M-23 0l418 710h51l154 -710h-56l-41 200h-348l-116 -200h-62zM184 249h308l-81 391zM267 -176q-19 0 -29 12t-10 27q0 16 11 28t28 12q19 0 29.5 -12t10.5 -28q0 -15 -11 -27t-29 -12zM574 965l41 -10q-18 -79 -67 -125.5t-112 -46.5q-66 0 -100.5 46.5t-29.5 125.5
l43 10q-9 -139 91 -139q96 0 134 139z" />
    <glyph glyph-name="uni1EB7" unicode="&#x1eb7;" horiz-adv-x="567" 
d="M210 -8q-75 0 -117.5 46.5t-42.5 130.5q0 69 21.5 129.5t60 107t90 72.5t113.5 26q42 0 81.5 -15t62.5 -38l17 44h41q-11 -48 -18.5 -86t-13.5 -67l-30 -173q-8 -46 -13 -94.5t-5 -74.5h-54q1 34 5 69t11 73q-36 -73 -91 -111.5t-118 -38.5zM218 43q53 0 99.5 32.5
t79.5 90t46 132.5l19 106q-48 50 -128 50q-68 0 -119 -39.5t-79.5 -104t-28.5 -138.5q0 -62 28.5 -95.5t82.5 -33.5zM239 -176q-19 0 -29 12t-10 27q0 16 11 28t28 12q19 0 29.5 -12t10.5 -28q0 -15 -11 -27t-29 -12zM508 750l41 -10q-18 -79 -67 -125.5t-112 -46.5
q-66 0 -100.5 46.5t-29.5 125.5l43 10q-9 -139 91 -139q96 0 134 139z" />
    <glyph glyph-name="uni1EB8" unicode="&#x1eb8;" horiz-adv-x="533" 
d="M107 49h353l-15 -49h-403l125 710h395l-9 -49h-338l-49 -275h332l-9 -49h-331zM215 -176q-19 0 -29 12t-10 27q0 16 11 28t28 12q19 0 29.5 -12t10.5 -28q0 -15 -11 -27t-29 -12z" />
    <glyph glyph-name="uni1EB9" unicode="&#x1eb9;" horiz-adv-x="533" 
d="M258 -8q-95 0 -150 50.5t-55 145.5q0 63 19.5 119.5t56 101t87.5 70t115 25.5q79 0 122 -38.5t43 -98.5t-41 -99.5t-134 -43.5l-212 -9q-8 -85 32.5 -128.5t120.5 -43.5q45 0 88 18t75 58l31 -34q-73 -93 -198 -93zM117 264v-2l198 9q73 3 101.5 28.5t28.5 65.5
t-29.5 66.5t-89.5 26.5q-56 0 -99.5 -26.5t-72 -71t-37.5 -96.5zM221 -176q-19 0 -29 12t-10 27q0 16 11 28t28 12q19 0 29.5 -12t10.5 -28q0 -15 -11 -27t-29 -12z" />
    <glyph glyph-name="uni1EBA" unicode="&#x1eba;" horiz-adv-x="533" 
d="M107 49h353l-15 -49h-403l125 710h395l-9 -49h-338l-49 -275h332l-9 -49h-331zM420 966q32 0 49 -14t17 -37q0 -26 -12 -39.5t-28.5 -24t-31 -24t-18.5 -39.5h-35l2 11q6 27 18.5 42t26 24t23.5 18.5t10 24.5q0 10 -7 17t-23 7q-20 0 -38 -10t-34 -32l-23 21
q18 27 45.5 41t58.5 14z" />
    <glyph glyph-name="uni1EBB" unicode="&#x1ebb;" horiz-adv-x="533" 
d="M258 -8q-95 0 -150 50.5t-55 145.5q0 63 19.5 119.5t56 101t87.5 70t115 25.5q79 0 122 -38.5t43 -98.5t-41 -99.5t-134 -43.5l-212 -9q-8 -85 32.5 -128.5t120.5 -43.5q45 0 88 18t75 58l31 -34q-73 -93 -198 -93zM117 264v-2l198 9q73 3 101.5 28.5t28.5 65.5
t-29.5 66.5t-89.5 26.5q-56 0 -99.5 -26.5t-72 -71t-37.5 -96.5zM387 751q32 0 49 -14.5t17 -37.5q0 -25 -12 -39t-28.5 -24t-31 -24t-18.5 -39h-35l2 11q6 26 18.5 41t26 24.5t23.5 18.5t10 25q0 9 -7 16t-23 7q-20 0 -38 -9.5t-34 -31.5l-23 20q18 27 45.5 41.5t58.5 14.5
z" />
    <glyph glyph-name="uni1EBC" unicode="&#x1ebc;" horiz-adv-x="533" 
d="M107 49h353l-15 -49h-403l125 710h395l-9 -49h-338l-49 -275h332l-9 -49h-331zM462 785q-19 0 -39.5 9.5t-41 22.5t-39.5 22.5t-36 9.5q-21 0 -39 -17t-29 -46l-28 17q15 42 42 65.5t61 23.5q19 0 39 -9.5t41 -22.5t40 -22.5t36 -9.5q21 0 39 17t30 46l28 -17
q-15 -42 -42.5 -65.5t-61.5 -23.5z" />
    <glyph glyph-name="uni1EBD" unicode="&#x1ebd;" horiz-adv-x="533" 
d="M258 -8q-95 0 -150 50.5t-55 145.5q0 63 19.5 119.5t56 101t87.5 70t115 25.5q79 0 122 -38.5t43 -98.5t-41 -99.5t-134 -43.5l-212 -9q-8 -85 32.5 -128.5t120.5 -43.5q45 0 88 18t75 58l31 -34q-73 -93 -198 -93zM117 264v-2l198 9q73 3 101.5 28.5t28.5 65.5
t-29.5 66.5t-89.5 26.5q-56 0 -99.5 -26.5t-72 -71t-37.5 -96.5zM429 569q-19 0 -39.5 10t-41 22.5t-39.5 22t-36 9.5q-21 0 -39 -17t-29 -45l-28 17q15 41 42 65t61 24q19 0 39 -10t41 -22.5t40 -22.5t36 -10q21 0 39 17.5t30 46.5l28 -18q-15 -42 -42.5 -65.5t-61.5 -23.5
z" />
    <glyph glyph-name="uni1EBE" unicode="&#x1ebe;" horiz-adv-x="533" 
d="M107 49h353l-15 -49h-403l125 710h395l-9 -49h-338l-49 -275h332l-9 -49h-331zM486 925l144 177l55 -18l-147 -159h-52zM230 788l155 167h47l95 -167h-52l-71 128l-118 -128h-56z" />
    <glyph glyph-name="uni1EBF" unicode="&#x1ebf;" horiz-adv-x="533" 
d="M258 -8q-95 0 -150 50.5t-55 145.5q0 63 19.5 119.5t56 101t87.5 70t115 25.5q79 0 122 -38.5t43 -98.5t-41 -99.5t-134 -43.5l-212 -9q-8 -85 32.5 -128.5t120.5 -43.5q45 0 88 18t75 58l31 -34q-73 -93 -198 -93zM117 264v-2l198 9q73 3 101.5 28.5t28.5 65.5
t-29.5 66.5t-89.5 26.5q-56 0 -99.5 -26.5t-72 -71t-37.5 -96.5zM453 710l144 177l55 -18l-147 -159h-52zM197 573l155 167h47l95 -167h-52l-71 128l-118 -128h-56z" />
    <glyph glyph-name="uni1EC0" unicode="&#x1ec0;" horiz-adv-x="533" 
d="M107 49h353l-15 -49h-403l125 710h395l-9 -49h-338l-49 -275h332l-9 -49h-331zM268 925l-90 159l60 18l81 -177h-51zM230 788l155 167h47l95 -167h-52l-71 128l-118 -128h-56z" />
    <glyph glyph-name="uni1EC1" unicode="&#x1ec1;" horiz-adv-x="533" 
d="M258 -8q-95 0 -150 50.5t-55 145.5q0 63 19.5 119.5t56 101t87.5 70t115 25.5q79 0 122 -38.5t43 -98.5t-41 -99.5t-134 -43.5l-212 -9q-8 -85 32.5 -128.5t120.5 -43.5q45 0 88 18t75 58l31 -34q-73 -93 -198 -93zM117 264v-2l198 9q73 3 101.5 28.5t28.5 65.5
t-29.5 66.5t-89.5 26.5q-56 0 -99.5 -26.5t-72 -71t-37.5 -96.5zM235 710l-90 159l60 18l81 -177h-51zM197 573l155 167h47l95 -167h-52l-71 128l-118 -128h-56z" />
    <glyph glyph-name="uni1EC2" unicode="&#x1ec2;" horiz-adv-x="533" 
d="M107 49h353l-15 -49h-403l125 710h395l-9 -49h-338l-49 -275h332l-9 -49h-331zM498 925l2 11q5 27 17.5 42t26.5 24t24 18.5t10 24.5q0 10 -7 17t-23 7q-20 0 -38 -10t-34 -32l-23 21q18 27 45.5 41t58.5 14q32 0 49 -14t17 -37q0 -26 -12 -39.5t-28.5 -24t-31 -24
t-19.5 -39.5h-34zM230 788l155 167h47l95 -167h-52l-71 128l-118 -128h-56z" />
    <glyph glyph-name="uni1EC3" unicode="&#x1ec3;" horiz-adv-x="533" 
d="M258 -8q-95 0 -150 50.5t-55 145.5q0 63 19.5 119.5t56 101t87.5 70t115 25.5q79 0 122 -38.5t43 -98.5t-41 -99.5t-134 -43.5l-212 -9q-8 -85 32.5 -128.5t120.5 -43.5q45 0 88 18t75 58l31 -34q-73 -93 -198 -93zM117 264v-2l198 9q73 3 101.5 28.5t28.5 65.5
t-29.5 66.5t-89.5 26.5q-56 0 -99.5 -26.5t-72 -71t-37.5 -96.5zM465 710l2 11q5 26 17.5 41t26.5 24.5t24 18.5t10 25q0 9 -7 16t-23 7q-20 0 -38 -9.5t-34 -31.5l-23 20q18 27 45.5 41.5t58.5 14.5q32 0 49 -14.5t17 -37.5q0 -25 -12 -39t-28.5 -24t-31 -24t-19.5 -39h-34
zM197 573l155 167h47l95 -167h-52l-71 128l-118 -128h-56z" />
    <glyph glyph-name="uni1EC4" unicode="&#x1ec4;" horiz-adv-x="533" 
d="M107 49h353l-15 -49h-403l125 710h395l-9 -49h-338l-49 -275h332l-9 -49h-331zM566 1067l25 -19q-15 -38 -40 -59.5t-57 -21.5q-26 0 -54 14.5t-54 29t-47 14.5t-38 -15t-29 -41l-24 19q14 38 39 59.5t58 21.5q24 0 52 -14.5t55 -29t47 -14.5q21 0 38 15t29 41zM230 788
l154 162h47l96 -162h-52l-72 124l-117 -124h-56z" />
    <glyph glyph-name="uni1EC5" unicode="&#x1ec5;" horiz-adv-x="533" 
d="M258 -8q-95 0 -150 50.5t-55 145.5q0 63 19.5 119.5t56 101t87.5 70t115 25.5q79 0 122 -38.5t43 -98.5t-41 -99.5t-134 -43.5l-212 -9q-8 -85 32.5 -128.5t120.5 -43.5q45 0 88 18t75 58l31 -34q-73 -93 -198 -93zM117 264v-2l198 9q73 3 101.5 28.5t28.5 65.5
t-29.5 66.5t-89.5 26.5q-56 0 -99.5 -26.5t-72 -71t-37.5 -96.5zM533 851l25 -19q-15 -38 -40 -59t-57 -21q-26 0 -54 14.5t-54 29t-47 14.5t-38 -15.5t-29 -41.5l-24 19q14 38 39 59.5t58 21.5q24 0 52 -14.5t55 -29t47 -14.5q21 0 38 15.5t29 40.5zM197 573l154 162h47
l96 -162h-52l-72 123l-117 -123h-56z" />
    <glyph glyph-name="uni1EC6" unicode="&#x1ec6;" horiz-adv-x="533" 
d="M107 49h353l-15 -49h-403l125 710h395l-9 -49h-338l-49 -275h332l-9 -49h-331zM215 -176q-19 0 -29 12t-10 27q0 16 11 28t28 12q19 0 29.5 -12t10.5 -28q0 -15 -11 -27t-29 -12zM527 788h-51l-71 128l-118 -128h-57l155 167h47z" />
    <glyph glyph-name="uni1EC7" unicode="&#x1ec7;" horiz-adv-x="533" 
d="M258 -8q-95 0 -150 50.5t-55 145.5q0 63 19.5 119.5t56 101t87.5 70t115 25.5q79 0 122 -38.5t43 -98.5t-41 -99.5t-134 -43.5l-212 -9q-8 -85 32.5 -128.5t120.5 -43.5q45 0 88 18t75 58l31 -34q-73 -93 -198 -93zM117 264v-2l198 9q73 3 101.5 28.5t28.5 65.5
t-29.5 66.5t-89.5 26.5q-56 0 -99.5 -26.5t-72 -71t-37.5 -96.5zM221 -176q-19 0 -29 12t-10 27q0 16 11 28t28 12q19 0 29.5 -12t10.5 -28q0 -15 -11 -27t-29 -12zM494 573h-51l-71 128l-118 -128h-57l155 167h47z" />
    <glyph glyph-name="uni1EC8" unicode="&#x1ec8;" horiz-adv-x="228" 
d="M42 0l125 710h57l-125 -710h-57zM251 966q32 0 49 -14t17 -37q0 -26 -12 -39.5t-28.5 -24t-31 -24t-18.5 -39.5h-35l2 11q6 27 18.5 42t26 24t23.5 18.5t10 24.5q0 10 -7 17t-23 7q-20 0 -38 -10t-34 -32l-23 21q18 27 45.5 41t58.5 14z" />
    <glyph glyph-name="uni1EC9" unicode="&#x1ec9;" horiz-adv-x="212" 
d="M44 0q0 32 4 64t10 65l34 195q8 44 13.5 86.5t8.5 84.5h55q-3 -42 -9.5 -88.5t-13.5 -84.5l-34 -191q-5 -32 -8.5 -64t-3.5 -67h-56zM197 751q32 0 49 -14.5t17 -37.5q0 -25 -12 -39t-28.5 -24t-31 -24t-18.5 -39h-35l2 11q6 26 18.5 41t26 24.5t23.5 18.5t10 25
q0 9 -7 16t-23 7q-20 0 -38 -9.5t-34 -31.5l-23 20q18 27 45.5 41.5t58.5 14.5z" />
    <glyph glyph-name="uni1ECA" unicode="&#x1eca;" horiz-adv-x="228" 
d="M42 0l125 710h57l-125 -710h-57zM47 -176q-19 0 -29 12t-10 27q0 16 11 28t28 12q19 0 29.5 -12t10.5 -28q0 -15 -11 -27t-29 -12z" />
    <glyph glyph-name="uni1ECB" unicode="&#x1ecb;" horiz-adv-x="212" 
d="M44 0q0 32 4 64t10 65l34 195q8 44 13.5 86.5t8.5 84.5h55q-3 -42 -9.5 -88.5t-13.5 -84.5l-34 -191q-5 -32 -8.5 -64t-3.5 -67h-56zM172 620q-18 0 -29 12t-11 28t11.5 28t28.5 12q19 0 29.5 -12t10.5 -28t-10.5 -28t-29.5 -12zM82 -176q-19 0 -29 12t-10 27q0 16 11 28
t28 12q19 0 29.5 -12t10.5 -28q0 -15 -11 -27t-29 -12z" />
    <glyph glyph-name="uni1ECC" unicode="&#x1ecc;" horiz-adv-x="767" 
d="M341 -8q-128 0 -198 71t-70 197q0 91 29.5 173.5t83 147t126.5 102t161 37.5q81 0 138.5 -33.5t88 -95.5t30.5 -146q0 -89 -28 -170.5t-79.5 -145t-123 -100.5t-158.5 -37zM345 46q76 0 136 33.5t102.5 90t65.5 128.5t23 149q0 103 -52.5 161t-149.5 58q-77 0 -139 -33.5
t-106.5 -91t-68.5 -130t-24 -150.5q0 -103 54.5 -159t158.5 -56zM315 -176q-19 0 -29 12t-10 27q0 16 11 28t28 12q19 0 29.5 -12t10.5 -28q0 -15 -11 -27t-29 -12z" />
    <glyph glyph-name="uni1ECD" unicode="&#x1ecd;" horiz-adv-x="561" 
d="M330 504q82 0 130.5 -49.5t48.5 -138.5q0 -68 -21 -126.5t-58.5 -103t-87 -69.5t-106.5 -25q-86 0 -135 49.5t-49 139.5q0 63 19.5 121t56 103.5t88 72t114.5 26.5zM239 43q63 0 111 38t75.5 100t27.5 133q0 68 -33.5 104t-94.5 36q-64 0 -113.5 -37.5t-77 -99
t-27.5 -134.5q0 -68 34.5 -104t97.5 -36zM213 -176q-19 0 -29 12t-10 27q0 16 11 28t28 12q19 0 29.5 -12t10.5 -28q0 -15 -11 -27t-29 -12z" />
    <glyph glyph-name="uni1ECE" unicode="&#x1ece;" horiz-adv-x="767" 
d="M341 -8q-128 0 -198 71t-70 197q0 91 29.5 173.5t83 147t126.5 102t161 37.5q81 0 138.5 -33.5t88 -95.5t30.5 -146q0 -89 -28 -170.5t-79.5 -145t-123 -100.5t-158.5 -37zM345 46q76 0 136 33.5t102.5 90t65.5 128.5t23 149q0 103 -52.5 161t-149.5 58q-77 0 -139 -33.5
t-106.5 -91t-68.5 -130t-24 -150.5q0 -103 54.5 -159t158.5 -56zM519 966q32 0 49 -14t17 -37q0 -26 -12 -39.5t-28.5 -24t-31 -24t-18.5 -39.5h-35l2 11q6 27 18.5 42t26 24t23.5 18.5t10 24.5q0 10 -7 17t-23 7q-20 0 -38 -10t-34 -32l-23 21q18 27 45.5 41t58.5 14z" />
    <glyph glyph-name="uni1ECF" unicode="&#x1ecf;" horiz-adv-x="561" 
d="M330 504q82 0 130.5 -49.5t48.5 -138.5q0 -68 -21 -126.5t-58.5 -103t-87 -69.5t-106.5 -25q-86 0 -135 49.5t-49 139.5q0 63 19.5 121t56 103.5t88 72t114.5 26.5zM239 43q63 0 111 38t75.5 100t27.5 133q0 68 -33.5 104t-94.5 36q-64 0 -113.5 -37.5t-77 -99
t-27.5 -134.5q0 -68 34.5 -104t97.5 -36zM379 751q32 0 49 -14.5t17 -37.5q0 -25 -12 -39t-28.5 -24t-31 -24t-18.5 -39h-35l2 11q6 26 18.5 41t26 24.5t23.5 18.5t10 25q0 9 -7 16t-23 7q-20 0 -38 -9.5t-34 -31.5l-23 20q18 27 45.5 41.5t58.5 14.5z" />
    <glyph glyph-name="uni1ED0" unicode="&#x1ed0;" horiz-adv-x="767" 
d="M341 -8q-128 0 -198 71t-70 197q0 91 29.5 173.5t83 147t126.5 102t161 37.5q81 0 138.5 -33.5t88 -95.5t30.5 -146q0 -89 -28 -170.5t-79.5 -145t-123 -100.5t-158.5 -37zM345 46q76 0 136 33.5t102.5 90t65.5 128.5t23 149q0 103 -52.5 161t-149.5 58q-77 0 -139 -33.5
t-106.5 -91t-68.5 -130t-24 -150.5q0 -103 54.5 -159t158.5 -56zM585 925l144 177l55 -18l-147 -159h-52zM329 788l155 167h47l95 -167h-52l-71 128l-118 -128h-56z" />
    <glyph glyph-name="uni1ED1" unicode="&#x1ed1;" horiz-adv-x="561" 
d="M330 504q82 0 130.5 -49.5t48.5 -138.5q0 -68 -21 -126.5t-58.5 -103t-87 -69.5t-106.5 -25q-86 0 -135 49.5t-49 139.5q0 63 19.5 121t56 103.5t88 72t114.5 26.5zM239 43q63 0 111 38t75.5 100t27.5 133q0 68 -33.5 104t-94.5 36q-64 0 -113.5 -37.5t-77 -99
t-27.5 -134.5q0 -68 34.5 -104t97.5 -36zM445 710l144 177l55 -18l-147 -159h-52zM189 573l155 167h47l95 -167h-52l-71 128l-118 -128h-56z" />
    <glyph glyph-name="uni1ED2" unicode="&#x1ed2;" horiz-adv-x="767" 
d="M341 -8q-128 0 -198 71t-70 197q0 91 29.5 173.5t83 147t126.5 102t161 37.5q81 0 138.5 -33.5t88 -95.5t30.5 -146q0 -89 -28 -170.5t-79.5 -145t-123 -100.5t-158.5 -37zM345 46q76 0 136 33.5t102.5 90t65.5 128.5t23 149q0 103 -52.5 161t-149.5 58q-77 0 -139 -33.5
t-106.5 -91t-68.5 -130t-24 -150.5q0 -103 54.5 -159t158.5 -56zM367 925l-90 159l60 18l81 -177h-51zM329 788l155 167h47l95 -167h-52l-71 128l-118 -128h-56z" />
    <glyph glyph-name="uni1ED3" unicode="&#x1ed3;" horiz-adv-x="561" 
d="M330 504q82 0 130.5 -49.5t48.5 -138.5q0 -68 -21 -126.5t-58.5 -103t-87 -69.5t-106.5 -25q-86 0 -135 49.5t-49 139.5q0 63 19.5 121t56 103.5t88 72t114.5 26.5zM239 43q63 0 111 38t75.5 100t27.5 133q0 68 -33.5 104t-94.5 36q-64 0 -113.5 -37.5t-77 -99
t-27.5 -134.5q0 -68 34.5 -104t97.5 -36zM227 710l-90 159l60 18l81 -177h-51zM189 573l155 167h47l95 -167h-52l-71 128l-118 -128h-56z" />
    <glyph glyph-name="uni1ED4" unicode="&#x1ed4;" horiz-adv-x="767" 
d="M341 -8q-128 0 -198 71t-70 197q0 91 29.5 173.5t83 147t126.5 102t161 37.5q81 0 138.5 -33.5t88 -95.5t30.5 -146q0 -89 -28 -170.5t-79.5 -145t-123 -100.5t-158.5 -37zM345 46q76 0 136 33.5t102.5 90t65.5 128.5t23 149q0 103 -52.5 161t-149.5 58q-77 0 -139 -33.5
t-106.5 -91t-68.5 -130t-24 -150.5q0 -103 54.5 -159t158.5 -56zM597 925l2 11q5 27 17.5 42t26.5 24t24 18.5t10 24.5q0 10 -7 17t-23 7q-20 0 -38 -10t-34 -32l-23 21q18 27 45.5 41t58.5 14q32 0 49 -14t17 -37q0 -26 -12 -39.5t-28.5 -24t-31 -24t-19.5 -39.5h-34z
M329 788l155 167h47l95 -167h-52l-71 128l-118 -128h-56z" />
    <glyph glyph-name="uni1ED5" unicode="&#x1ed5;" horiz-adv-x="561" 
d="M330 504q82 0 130.5 -49.5t48.5 -138.5q0 -68 -21 -126.5t-58.5 -103t-87 -69.5t-106.5 -25q-86 0 -135 49.5t-49 139.5q0 63 19.5 121t56 103.5t88 72t114.5 26.5zM239 43q63 0 111 38t75.5 100t27.5 133q0 68 -33.5 104t-94.5 36q-64 0 -113.5 -37.5t-77 -99
t-27.5 -134.5q0 -68 34.5 -104t97.5 -36zM457 710l2 11q5 26 17.5 41t26.5 24.5t24 18.5t10 25q0 9 -7 16t-23 7q-20 0 -38 -9.5t-34 -31.5l-23 20q18 27 45.5 41.5t58.5 14.5q32 0 49 -14.5t17 -37.5q0 -25 -12 -39t-28.5 -24t-31 -24t-19.5 -39h-34zM189 573l155 167h47
l95 -167h-52l-71 128l-118 -128h-56z" />
    <glyph glyph-name="uni1ED6" unicode="&#x1ed6;" horiz-adv-x="767" 
d="M341 -8q-128 0 -198 71t-70 197q0 91 29.5 173.5t83 147t126.5 102t161 37.5q81 0 138.5 -33.5t88 -95.5t30.5 -146q0 -89 -28 -170.5t-79.5 -145t-123 -100.5t-158.5 -37zM345 46q76 0 136 33.5t102.5 90t65.5 128.5t23 149q0 103 -52.5 161t-149.5 58q-77 0 -139 -33.5
t-106.5 -91t-68.5 -130t-24 -150.5q0 -103 54.5 -159t158.5 -56zM665 1067l25 -19q-15 -38 -40 -59.5t-57 -21.5q-26 0 -54 14.5t-54 29t-47 14.5t-38 -15t-29 -41l-24 19q14 38 39 59.5t58 21.5q24 0 52 -14.5t55 -29t47 -14.5q21 0 38 15t29 41zM329 788l154 162h47
l96 -162h-52l-72 124l-117 -124h-56z" />
    <glyph glyph-name="uni1ED7" unicode="&#x1ed7;" horiz-adv-x="561" 
d="M330 504q82 0 130.5 -49.5t48.5 -138.5q0 -68 -21 -126.5t-58.5 -103t-87 -69.5t-106.5 -25q-86 0 -135 49.5t-49 139.5q0 63 19.5 121t56 103.5t88 72t114.5 26.5zM239 43q63 0 111 38t75.5 100t27.5 133q0 68 -33.5 104t-94.5 36q-64 0 -113.5 -37.5t-77 -99
t-27.5 -134.5q0 -68 34.5 -104t97.5 -36zM525 851l25 -19q-15 -38 -40 -59t-57 -21q-26 0 -54 14.5t-54 29t-47 14.5t-38 -15.5t-29 -41.5l-24 19q14 38 39 59.5t58 21.5q24 0 52 -14.5t55 -29t47 -14.5q21 0 38 15.5t29 40.5zM189 573l154 162h47l96 -162h-52l-72 123
l-117 -123h-56z" />
    <glyph glyph-name="uni1ED8" unicode="&#x1ed8;" horiz-adv-x="767" 
d="M341 -8q-128 0 -198 71t-70 197q0 91 29.5 173.5t83 147t126.5 102t161 37.5q81 0 138.5 -33.5t88 -95.5t30.5 -146q0 -89 -28 -170.5t-79.5 -145t-123 -100.5t-158.5 -37zM345 46q76 0 136 33.5t102.5 90t65.5 128.5t23 149q0 103 -52.5 161t-149.5 58q-77 0 -139 -33.5
t-106.5 -91t-68.5 -130t-24 -150.5q0 -103 54.5 -159t158.5 -56zM315 -176q-19 0 -29 12t-10 27q0 16 11 28t28 12q19 0 29.5 -12t10.5 -28q0 -15 -11 -27t-29 -12zM626 788h-51l-71 128l-118 -128h-57l155 167h47z" />
    <glyph glyph-name="uni1ED9" unicode="&#x1ed9;" horiz-adv-x="561" 
d="M330 504q82 0 130.5 -49.5t48.5 -138.5q0 -68 -21 -126.5t-58.5 -103t-87 -69.5t-106.5 -25q-86 0 -135 49.5t-49 139.5q0 63 19.5 121t56 103.5t88 72t114.5 26.5zM239 43q63 0 111 38t75.5 100t27.5 133q0 68 -33.5 104t-94.5 36q-64 0 -113.5 -37.5t-77 -99
t-27.5 -134.5q0 -68 34.5 -104t97.5 -36zM213 -176q-19 0 -29 12t-10 27q0 16 11 28t28 12q19 0 29.5 -12t10.5 -28q0 -15 -11 -27t-29 -12zM486 573h-51l-71 128l-118 -128h-57l155 167h47z" />
    <glyph glyph-name="uni1EDA" unicode="&#x1eda;" horiz-adv-x="767" 
d="M341 -8q-128 0 -198 71t-70 197q0 91 29.5 173.5t83 147t126.5 102t161 37.5q81 0 138.5 -33.5t88 -95.5t30.5 -146q0 -89 -28 -170.5t-79.5 -145t-123 -100.5t-158.5 -37zM345 46q76 0 136 33.5t102.5 90t65.5 128.5t23 149q0 103 -52.5 161t-149.5 58q-77 0 -139 -33.5
t-106.5 -91t-68.5 -130t-24 -150.5q0 -103 54.5 -159t158.5 -56zM636 707q52 0 73.5 26t21.5 82l46 -4q3 -66 -32.5 -108t-99.5 -42h-88l-34 55q37 -5 65 -7t48 -2zM448 788l144 177l57 -18l-147 -159h-54z" />
    <glyph glyph-name="uni1EDB" unicode="&#x1edb;" horiz-adv-x="561" 
d="M330 504q82 0 130.5 -49.5t48.5 -138.5q0 -68 -21 -126.5t-58.5 -103t-87 -69.5t-106.5 -25q-86 0 -135 49.5t-49 139.5q0 63 19.5 121t56 103.5t88 72t114.5 26.5zM239 43q63 0 111 38t75.5 100t27.5 133q0 68 -33.5 104t-94.5 36q-64 0 -113.5 -37.5t-77 -99
t-27.5 -134.5q0 -68 34.5 -104t97.5 -36zM437 494q50 0 70.5 25t20.5 81l48 -4q3 -66 -32.5 -107.5t-101.5 -41.5h-40l-26 52q17 -2 33 -3.5t28 -1.5zM308 573l144 177l57 -18l-147 -159h-54z" />
    <glyph glyph-name="uni1EDC" unicode="&#x1edc;" horiz-adv-x="767" 
d="M341 -8q-128 0 -198 71t-70 197q0 91 29.5 173.5t83 147t126.5 102t161 37.5q81 0 138.5 -33.5t88 -95.5t30.5 -146q0 -89 -28 -170.5t-79.5 -145t-123 -100.5t-158.5 -37zM345 46q76 0 136 33.5t102.5 90t65.5 128.5t23 149q0 103 -52.5 161t-149.5 58q-77 0 -139 -33.5
t-106.5 -91t-68.5 -130t-24 -150.5q0 -103 54.5 -159t158.5 -56zM636 707q52 0 73.5 26t21.5 82l46 -4q3 -66 -32.5 -108t-99.5 -42h-88l-34 55q37 -5 65 -7t48 -2zM452 788l-91 159l62 18l81 -177h-52z" />
    </font>
</defs>
</svg>
