<?xml version="1.0" standalone="no"?>
<!DOCTYPE svg PUBLIC "-//W3C//DTD SVG 1.1//EN" "http://www.w3.org/Graphics/SVG/1.1/DTD/svg11.dtd" >
<svg xmlns="http://www.w3.org/2000/svg" xmlns:xlink="http://www.w3.org/1999/xlink" version="1.1">
<metadata>
Created by FontForge 20201107 at Mon Sep  2 17:38:19 2019
 By 
Copyright 2019 The Livvic Project Authors (https://github.com/Fonthausen/Livvic)
</metadata>
<defs>
<font id="Livvic-ExtraLight" horiz-adv-x="0" >
  <font-face 
    font-family="Livvic ExtraLight"
    font-weight="275"
    font-stretch="normal"
    units-per-em="1000"
    panose-1="0 0 0 0 0 0 0 0 0 0"
    ascent="800"
    descent="-200"
    x-height="492"
    cap-height="710"
    bbox="-130 -281 1264 1106"
    underline-thickness="50"
    underline-position="-125"
    unicode-range="U+000D-FB02"
  />
<missing-glyph horiz-adv-x="290" 
 />
    <glyph glyph-name="f_f" unicode="ff" horiz-adv-x="636" 
d="M99 0v457h-101v35h101v61q0 92 44.5 144.5t121.5 52.5q63 0 100 -32t42 -88l-33 -4q-11 88 -109 88q-60 0 -93.5 -41t-33.5 -117v-64h125v-35h-124v-457h-40zM416 0v457h-123v35h123v59q0 93 44.5 146t122.5 53q63 0 100 -32t41 -88l-33 -4q-10 88 -108 88
q-61 0 -94 -41.5t-33 -118.5v-62h183v-35h-182v-457h-41z" />
    <glyph glyph-name="f_f_i" unicode="ffi" horiz-adv-x="803" 
d="M99 0v457h-101v35h101v61q0 92 44.5 144.5t121.5 52.5q63 0 100 -32t42 -88l-33 -4q-11 88 -109 88q-60 0 -93.5 -41.5t-33.5 -116.5v-64h184v-35h-183v-457h-40zM398 0v457h-101v35h101v60q0 93 44.5 145.5t122.5 52.5q47 0 75 -17l-14 -34q-23 15 -63 15
q-59 0 -92.5 -41.5t-33.5 -118.5v-62h184v-35h-183v-457h-40zM721 492v-492h-40v492h40zM701 628q-14 0 -22.5 10t-8.5 22t9 22t22 10q15 0 23.5 -10t8.5 -22t-8.5 -22t-23.5 -10z" />
    <glyph glyph-name="f_f_j" unicode="ffj" horiz-adv-x="806" 
d="M99 0v457h-101v35h101v61q0 92 44.5 144.5t121.5 52.5q63 0 100 -32t42 -88l-33 -4q-11 88 -109 88q-60 0 -93.5 -41.5t-33.5 -116.5v-64h184v-35h-183v-457h-40zM398 0v457h-101v35h101v60q0 93 44.5 145.5t122.5 52.5q47 0 75 -17l-14 -34q-23 15 -63 15
q-59 0 -92.5 -41.5t-33.5 -118.5v-62h184v-35h-183v-457h-40zM556 -216q-51 0 -86 22l11 36q20 -10 38.5 -15t36.5 -5q70 0 99 45t29 116v509h41v-513q0 -91 -44.5 -143t-124.5 -52zM704 628q-14 0 -22.5 10t-8.5 22t9 22t22 10q15 0 23.5 -10t8.5 -22t-8.5 -22t-23.5 -10z
" />
    <glyph glyph-name="f_f_l" unicode="ffl" horiz-adv-x="865" 
d="M99 0v457h-101v35h101v61q0 92 44.5 144.5t121.5 52.5q63 0 100 -32t42 -88l-33 -4q-11 88 -109 88q-60 0 -93.5 -41.5t-33.5 -116.5v-64h184v-35h-183v-457h-40zM398 0v457h-101v35h101v60q0 93 44.5 145.5t122.5 52.5q47 0 75 -17l-14 -34q-23 15 -63 15
q-59 0 -92.5 -41.5t-33.5 -118.5v-62h184v-35h-183v-457h-40zM805 -7q-55 0 -80 30.5t-25 77.5v639h40v-631q0 -37 15 -58.5t53 -21.5q17 0 31.5 5t22.5 11l14 -31q-13 -10 -33 -15.5t-38 -5.5z" />
    <glyph glyph-name="f_i" unicode="fi" horiz-adv-x="504" 
d="M99 0v457h-101v35h101v60q0 93 44.5 145.5t122.5 52.5q47 0 75 -17l-14 -34q-23 15 -63 15q-59 0 -92.5 -41.5t-33.5 -118.5v-62h184v-35h-183v-457h-40zM422 492v-492h-40v492h40zM402 628q-14 0 -22.5 10t-8.5 22t9 22t22 10q15 0 23.5 -10t8.5 -22t-8.5 -22t-23.5 -10
z" />
    <glyph glyph-name="f_l" unicode="fl" horiz-adv-x="566" 
d="M99 0v457h-101v35h101v60q0 93 44.5 145.5t122.5 52.5q47 0 75 -17l-14 -34q-23 15 -63 15q-59 0 -92.5 -41.5t-33.5 -118.5v-62h184v-35h-183v-457h-40zM506 -7q-55 0 -80 30.5t-25 77.5v639h40v-631q0 -37 15 -58.5t53 -21.5q17 0 31.5 5t22.5 11l14 -31
q-13 -10 -33 -15.5t-38 -5.5z" />
    <glyph glyph-name=".notdef" horiz-adv-x="290" 
 />
    <glyph glyph-name=".null" 
 />
    <glyph glyph-name="nonmarkingreturn" horiz-adv-x="333" 
 />
    <glyph glyph-name="CR" unicode="&#xd;" horiz-adv-x="219" 
 />
    <glyph glyph-name="space" unicode=" " horiz-adv-x="219" 
 />
    <glyph glyph-name="exclam" unicode="!" horiz-adv-x="155" 
d="M63 144l-1 596h44l-16 -596h-27zM77 -7q-14 0 -23 9.5t-9 23.5t9.5 23.5t22.5 9.5q15 0 23.5 -9.5t8.5 -23.5t-8.5 -23.5t-23.5 -9.5z" />
    <glyph glyph-name="quotedbl" unicode="&#x22;" horiz-adv-x="289" 
d="M83 517l-6 193h42l-6 -193h-30zM176 517l-6 193h42l-6 -193h-30z" />
    <glyph glyph-name="numbersign" unicode="#" horiz-adv-x="600" 
d="M96 0l45 213h-114l8 40h114l43 203h-114l8 40h115l45 214h40l-45 -214h178l45 214h40l-45 -214h114l-8 -40h-115l-42 -203h114l-8 -40h-115l-45 -213h-40l45 213h-178l-45 -213h-40zM190 253h177l43 203h-178z" />
    <glyph glyph-name="dollar" unicode="$" horiz-adv-x="600" 
d="M283 -120v114q-88 7 -142 60t-67 155l40 5q17 -99 64.5 -141t135.5 -42q79 0 124.5 40t45.5 107q0 49 -20.5 77t-54.5 42t-74 22.5t-80.5 19t-74 30t-54 56t-20.5 98.5q0 51 23 93t63 69t91 33v112h33v-110q76 -2 127 -49.5t63 -136.5l-36 -6q-13 80 -53.5 117t-105.5 37
q-72 0 -117.5 -43.5t-45.5 -115.5q0 -53 20.5 -83t54.5 -46t74 -25.5t80.5 -19t74 -28t54 -52t20.5 -90.5q0 -55 -26.5 -97t-74 -65.5t-109.5 -23.5v-113h-33z" />
    <glyph glyph-name="percent" unicode="%" horiz-adv-x="690" 
d="M201 436q-64 0 -103 36.5t-39 94.5q0 66 42 108.5t110 42.5q62 0 100 -36t38 -95q0 -42 -19 -76.5t-53 -54.5t-76 -20zM123 0l405 710h39l-405 -710h-39zM201 468q49 0 81 33.5t32 83.5q0 46 -28 74t-75 28q-54 0 -85.5 -34.5t-31.5 -85.5q0 -44 29 -71.5t78 -27.5z
M482 -6q-63 0 -102 36t-39 95q0 66 42 108.5t110 42.5q62 0 100 -36t38 -95q0 -42 -19.5 -76.5t-53 -54.5t-76.5 -20zM483 26q49 0 81 33t32 83q0 46 -28.5 74t-74.5 28q-54 0 -85.5 -34t-31.5 -85q0 -44 29 -71.5t78 -27.5z" />
    <glyph glyph-name="ampersand" unicode="&#x26;" horiz-adv-x="755" 
d="M290 -8q-67 0 -118 24t-79.5 69t-28.5 107q0 58 20.5 97.5t53 67t68.5 50.5l-18 21q-40 45 -54 80t-14 77q0 61 40 101.5t106 40.5q63 0 101 -35.5t38 -93.5q0 -53 -21 -88.5t-54 -60.5t-69 -47l239 -269q29 40 46 97t20 131h-120v33h268v-33h-113q-3 -81 -23.5 -145
t-54.5 -109l4 -4q36 -40 61 -55.5t57 -16.5q14 0 30.5 5t28.5 15l15 -29q-17 -14 -34.5 -19.5t-40.5 -6.5q-38 -1 -70.5 17t-70.5 61l-3 4q-42 -43 -95.5 -64.5t-114.5 -21.5zM216 452l22 -25q34 21 63.5 43t48 51t18.5 70q0 48 -26 74.5t-76 26.5q-48 0 -78 -30t-30 -77
q0 -37 12.5 -66.5t45.5 -66.5zM105 195q0 -77 51.5 -122t135.5 -45q54 0 101.5 19t83.5 57l-248 278q-33 -21 -61.5 -45.5t-45.5 -58.5t-17 -83z" />
    <glyph glyph-name="quotesingle" unicode="'" horiz-adv-x="196" 
d="M83 517l-6 193h42l-6 -193h-30z" />
    <glyph glyph-name="parenleft" unicode="(" horiz-adv-x="267" 
d="M265 -207q-97 98 -140.5 216.5t-43.5 260.5q0 143 43.5 262.5t140.5 213.5l24 -22q-51 -47 -88.5 -116.5t-57.5 -155.5t-20 -182q1 -145 45 -264.5t121 -190.5z" />
    <glyph glyph-name="parenright" unicode=")" horiz-adv-x="267" 
d="M1 -207l-23 22q76 71 120.5 190.5t44.5 264.5q1 96 -19.5 182t-57.5 155.5t-88 116.5l23 22q98 -94 141.5 -213.5t43.5 -262.5q0 -142 -43.5 -260.5t-141.5 -216.5z" />
    <glyph glyph-name="asterisk" unicode="*" horiz-adv-x="452" 
d="M357 525q25 -17 16 -32q-8 -16 -34 -1q-20 10 -41.5 26t-59.5 41q1 -46 4 -72t3 -50q0 -29 -19 -29t-19 29q0 24 3.5 50t4.5 72q-38 -25 -60 -41t-41 -26q-27 -15 -35 1q-9 15 16 32q20 10 44.5 21t65.5 31q-41 20 -65.5 31.5t-44.5 22.5q-24 17 -16 32q9 16 35 1
q19 -11 41 -27.5t60 -39.5q-1 45 -4.5 71.5t-3.5 48.5q0 30 19 30t19 -30q0 -22 -3 -48.5t-4 -71.5q38 24 59.5 40t41.5 27q26 15 34 -1q8 -15 -16 -32q-19 -11 -44 -22.5t-65 -31.5q40 -20 65 -31t44 -21z" />
    <glyph glyph-name="plus" unicode="+" horiz-adv-x="600" 
d="M282 492h37v-227h221v-38h-221v-227h-37v227h-222v38h222v227z" />
    <glyph glyph-name="comma" unicode="," horiz-adv-x="138" 
d="M40 -89q10 29 10 55q0 21 -5 35t-5 28q0 16 9 24t21 8q30 0 30 -36q0 -25 -10.5 -57t-27.5 -57h-22z" />
    <glyph glyph-name="hyphen" unicode="-" horiz-adv-x="376" 
d="M60 234v37h256v-37h-256z" />
    <glyph glyph-name="period" unicode="." horiz-adv-x="138" 
d="M69 -7q-15 0 -24 10t-9 24t9.5 23.5t23.5 9.5q15 0 24 -9.5t9 -23.5t-9 -24t-24 -10z" />
    <glyph glyph-name="slash" unicode="/" horiz-adv-x="285" 
d="M0 -200l250 940h42l-250 -940h-42z" />
    <glyph glyph-name="zero" unicode="0" horiz-adv-x="600" 
d="M295 -7q-109 0 -170.5 86.5t-61.5 262.5q0 114 31 199t87 132t131 47q68 0 118.5 -41.5t78.5 -120.5t28 -189q0 -121 -31 -205t-85.5 -128t-125.5 -43zM295 33q89 0 145 84t56 256q0 148 -50 228t-134 80q-61 0 -108 -40t-73 -116.5t-26 -184.5q0 -156 51 -231.5
t139 -75.5z" />
    <glyph glyph-name="one" unicode="1" horiz-adv-x="600" 
d="M139 0v35h159v618l-160 -107l-19 30l197 134h23v-675h156v-35h-356z" />
    <glyph glyph-name="two" unicode="2" horiz-adv-x="600" 
d="M113 0v27q108 93 176.5 166.5t106 132t51.5 108t14 94.5q0 70 -41.5 112t-111.5 42q-72 0 -117.5 -38t-71.5 -116l-34 13q22 78 77.5 128.5t143.5 50.5q89 0 143 -51.5t55 -139.5q1 -71 -31.5 -145t-106 -159.5t-194.5 -189.5h351v-35h-410z" />
    <glyph glyph-name="three" unicode="3" horiz-adv-x="600" 
d="M281 -7q-126 0 -200 55l18 37q34 -25 79.5 -39t106.5 -14q86 0 137.5 42t51.5 117q0 78 -50 115t-125 37h-39v39h18q84 0 134 40t50 122q0 61 -42 99.5t-111 38.5q-72 0 -118 -38t-72 -116l-34 13q22 78 78 128.5t147 50.5q62 0 105.5 -25t66.5 -65.5t23 -86.5
q0 -65 -34 -111t-93 -66q66 -18 102 -62.5t36 -113.5q0 -94 -64 -145.5t-171 -51.5z" />
    <glyph glyph-name="four" unicode="4" horiz-adv-x="600" 
d="M403 0v226h-343v27l357 459h26v-450h100v-36h-100v-226h-40zM110 262h293v376z" />
    <glyph glyph-name="five" unicode="5" horiz-adv-x="600" 
d="M281 -7q-123 0 -200 53l19 37q34 -24 82.5 -37.5t102.5 -13.5q52 0 95 18t68.5 56t25.5 99q0 81 -63 123.5t-193 46.5l-90 3l22 332h334v-35h-297l-17 -259l53 -2q148 -6 220.5 -60t72.5 -150q0 -102 -65 -156.5t-170 -54.5z" />
    <glyph glyph-name="six" unicode="6" horiz-adv-x="600" 
d="M324 -7q-119 0 -177.5 84.5t-58.5 242.5q0 116 28.5 206.5t86.5 142t148 51.5q72 0 123.5 -40.5t75.5 -119.5l-38 -15q-21 74 -63 105.5t-100 31.5q-64 0 -113.5 -39t-77.5 -119t-28 -204v-28q22 68 78.5 109.5t132.5 41.5q62 0 108 -28t71.5 -75.5t25.5 -107.5
q0 -73 -29.5 -126.5t-80 -83t-112.5 -29.5zM321 30q80 0 131.5 52.5t51.5 146.5q0 80 -45.5 128.5t-120.5 48.5q-53 0 -96.5 -23.5t-69 -67t-25.5 -102.5q0 -82 46 -132.5t128 -50.5z" />
    <glyph glyph-name="seven" unicode="7" horiz-adv-x="600" 
d="M189 0h-43l327 675h-382v35h430v-24z" />
    <glyph glyph-name="eight" unicode="8" horiz-adv-x="600" 
d="M300 -7q-107 0 -169.5 50.5t-62.5 135.5q0 63 38.5 112.5t101.5 68.5q-57 19 -90.5 63.5t-33.5 101.5q0 55 26.5 99.5t75 70t114.5 25.5t114.5 -25.5t75 -70t26.5 -99.5q0 -57 -33.5 -102t-90.5 -63q60 -19 100 -68.5t40 -112.5q0 -85 -62.5 -135.5t-169.5 -50.5z
M300 377q80 0 127 40t47 108q0 72 -49 115t-125 43t-125 -42.5t-49 -115.5q0 -68 47.5 -108t126.5 -40zM300 30q88 0 138.5 40.5t50.5 109.5q0 47 -24 83.5t-66.5 57.5t-98.5 21t-99 -20.5t-66.5 -57t-23.5 -84.5q0 -69 50.5 -109.5t138.5 -40.5z" />
    <glyph glyph-name="nine" unicode="9" horiz-adv-x="600" 
d="M276 719q119 0 177.5 -84.5t58.5 -242.5q0 -116 -28.5 -206.5t-86.5 -142t-148 -51.5q-72 0 -123.5 40.5t-75.5 119.5l38 15q21 -74 63 -105.5t100 -31.5q64 0 113.5 39t77.5 119t28 204v28q-22 -68 -78.5 -109.5t-132.5 -41.5q-62 0 -108 28t-71.5 75.5t-25.5 107.5
q0 73 29.5 126.5t80 83t112.5 29.5zM279 682q-80 0 -131.5 -52.5t-51.5 -146.5q0 -80 45.5 -128.5t120.5 -48.5q53 0 96.5 23.5t69 67t25.5 102.5q0 82 -46 132.5t-128 50.5z" />
    <glyph glyph-name="colon" unicode=":" horiz-adv-x="138" 
d="M69 -7q-15 0 -24 10t-9 24t9.5 23.5t23.5 9.5q15 0 24 -9.5t9 -23.5t-9 -24t-24 -10zM69 432q-15 0 -24 10t-9 24t9.5 23.5t23.5 9.5q15 0 24 -9.5t9 -23.5t-9 -24t-24 -10z" />
    <glyph glyph-name="semicolon" unicode=";" horiz-adv-x="138" 
d="M40 -89q10 29 10 55q0 21 -5 35t-5 28q0 16 9 24t21 8q30 0 30 -36q0 -25 -10.5 -57t-27.5 -57h-22zM69 432q-15 0 -24 10t-9 24t9.5 23.5t23.5 9.5q15 0 24 -9.5t9 -23.5t-9 -24t-24 -10z" />
    <glyph glyph-name="less" unicode="&#x3c;" horiz-adv-x="600" 
d="M75 230v34l450 225v-44l-401 -198l401 -199v-44z" />
    <glyph glyph-name="equal" unicode="=" horiz-adv-x="600" 
d="M540 358v-38h-480v38h480zM540 173v-38h-480v38h480z" />
    <glyph glyph-name="greater" unicode="&#x3e;" horiz-adv-x="600" 
d="M525 230l-450 -226v44l401 199l-401 198v44l450 -225v-34z" />
    <glyph glyph-name="question" unicode="?" horiz-adv-x="511" 
d="M206 141l-30 1q0 68 24 119t86 103q46 39 69.5 67.5t31.5 55.5t8 60q0 66 -42.5 100.5t-107.5 34.5q-70 0 -117 -37.5t-72 -116.5l-34 13q23 84 81.5 131.5t141.5 47.5q55 0 98.5 -20.5t68 -59.5t24.5 -92q0 -41 -12 -75t-41 -68t-80 -76q-48 -42 -71 -86t-26 -102z
M187 -7q-14 0 -23.5 9.5t-9.5 23.5t9.5 23.5t23.5 9.5q15 0 23.5 -9.5t8.5 -23.5t-8.5 -23.5t-23.5 -9.5z" />
    <glyph glyph-name="at" unicode="@" horiz-adv-x="954" 
d="M493 -212q-204 0 -314.5 120.5t-110.5 340.5q0 105 30.5 192.5t86 151t133 98t170.5 34.5q120 0 209.5 -47t139 -132t49.5 -198q0 -93 -25 -163.5t-67.5 -110.5t-96.5 -40q-52 0 -77.5 35.5t-17.5 94.5q-20 -37 -52 -66t-69.5 -46.5t-74.5 -17.5q-70 0 -108 41t-38 116
q0 65 21.5 121.5t59 99t85.5 66.5t101 24q28 0 55 -7t47.5 -18t27.5 -24l14 40l29 -1l-57 -306q-11 -55 3.5 -86t50.5 -31q43 0 78 36.5t55.5 99.5t20.5 143q0 102 -45.5 178t-127.5 119t-190 43q-114 0 -200 -55.5t-134 -154t-48 -229.5q0 -204 100.5 -314t289.5 -110
q54 0 105 13t93.5 36.5t70.5 55.5l28 -23q-32 -36 -80 -63t-105 -41.5t-115 -14.5zM402 73q51 0 97 27.5t78.5 72t43.5 97.5l29 146q-24 27 -55.5 38t-77.5 11q-58 0 -108 -37t-80 -99t-30 -139q0 -117 103 -117z" />
    <glyph glyph-name="A" unicode="A" horiz-adv-x="664" 
d="M27 0l290 710h38l278 -710h-43l-81 208h-355l-84 -208h-43zM169 244h327l-160 415z" />
    <glyph glyph-name="B" unicode="B" horiz-adv-x="596" 
d="M88 0v710h150q106 0 169.5 -21.5t92 -62.5t28.5 -99q0 -62 -35 -106t-102 -61q67 -17 105.5 -64t38.5 -109q0 -95 -59.5 -141t-161.5 -46h-226zM237 674h-108v-298h141q107 0 161.5 37t54.5 114q0 79 -59 113t-190 34zM129 36h182q84 0 133 35.5t49 114.5q0 76 -51 115
t-145 39h-168v-304z" />
    <glyph glyph-name="C" unicode="C" horiz-adv-x="635" 
d="M627 134q-37 -68 -102 -104.5t-151 -36.5q-94 0 -163 42t-106 120.5t-37 187.5q0 111 41 196t114 133t169 48q78 0 139.5 -33t96.5 -97l-33 -27q-33 58 -82.5 87t-123.5 29q-81 0 -144 -42.5t-98.5 -119t-35.5 -176.5q0 -145 69 -226.5t193 -81.5q79 0 133.5 32.5
t86.5 93.5z" />
    <glyph glyph-name="D" unicode="D" horiz-adv-x="723" 
d="M88 0v710h159q408 0 408 -352q0 -171 -99.5 -264.5t-286.5 -93.5h-181zM130 37h135q347 0 347 320q0 159 -88 237.5t-270 78.5h-124v-636z" />
    <glyph glyph-name="E" unicode="E" horiz-adv-x="526" 
d="M469 674h-340v-295h335v-35h-335v-308h356l-5 -36h-392v710h381v-36z" />
    <glyph glyph-name="F" unicode="F" horiz-adv-x="464" 
d="M450 674h-321v-306h317v-35h-317v-333h-41v710h362v-36z" />
    <glyph glyph-name="G" unicode="G" horiz-adv-x="711" 
d="M417 327h224v-327h-30l-8 113q-34 -60 -89.5 -90t-137.5 -30q-95 0 -164 41.5t-106.5 119.5t-37.5 189t41.5 196t116 133t174.5 48q78 0 139 -33.5t96 -97.5l-33 -26q-31 57 -81 86.5t-127 29.5q-84 0 -147.5 -42.5t-99.5 -119t-36 -176.5q0 -149 69.5 -228.5
t197.5 -79.5q110 0 167 57.5t57 153.5v48h-185v35z" />
    <glyph glyph-name="H" unicode="H" horiz-adv-x="701" 
d="M88 0v710h42v-330h441v330h42v-710h-42v343h-441v-343h-42z" />
    <glyph glyph-name="I" unicode="I" horiz-adv-x="218" 
d="M88 0v710h42v-710h-42z" />
    <glyph glyph-name="J" unicode="J" horiz-adv-x="426" 
d="M168 -7q-75 0 -121 35t-60 92l36 15q16 -55 52 -79t95 -24q67 0 97.5 39.5t30.5 130.5v508h42v-506q0 -109 -42.5 -160t-129.5 -51z" />
    <glyph glyph-name="K" unicode="K" horiz-adv-x="516" 
d="M88 0v710h42v-339l349 339h54l-362 -350q33 -15 64 -61l132 -193q31 -46 53 -60.5t51 -14.5q26 0 49 15l11 -32q-26 -18 -64 -18t-67.5 18t-60.5 63l-147 215q-25 37 -62 42v-334h-42z" />
    <glyph glyph-name="L" unicode="L" horiz-adv-x="464" 
d="M88 0v710h42v-673h342l-5 -37h-379z" />
    <glyph glyph-name="M" unicode="M" horiz-adv-x="901" 
d="M79 0l34 710h47l291 -666l292 666h47l30 -710h-38l-28 642l-283 -642h-41l-281 641l-31 -641h-39z" />
    <glyph glyph-name="N" unicode="N" horiz-adv-x="703" 
d="M575 710h39v-710h-33l-453 635v-635h-40v710h34l453 -635v635z" />
    <glyph glyph-name="O" unicode="O" horiz-adv-x="764" 
d="M377 -7q-95 0 -164.5 41t-107 119t-37.5 189t42.5 196.5t117 133.5t169.5 48q90 0 157.5 -44t104.5 -122.5t37 -184.5q0 -115 -41 -199.5t-113 -130.5t-165 -46zM377 33q81 0 143.5 40t97.5 116t35 184q0 94 -31.5 163t-88.5 106t-135 37q-84 0 -148.5 -41.5t-101.5 -118
t-37 -179.5q0 -148 71.5 -227.5t194.5 -79.5z" />
    <glyph glyph-name="P" unicode="P" horiz-adv-x="581" 
d="M130 0h-42v710h215q117 0 182 -51.5t65 -146.5q0 -209 -273 -209h-147v-303zM294 674h-164v-334h149q120 0 174.5 41t54.5 130q0 84 -53 123.5t-161 39.5z" />
    <glyph glyph-name="Q" unicode="Q" horiz-adv-x="764" 
d="M654 -87q-9 -54 -47 -87t-99 -33q-82 0 -124.5 48.5t-42.5 139.5v13q-127 12 -200 102t-73 246q0 111 42.5 196.5t117 133.5t169.5 48q90 0 157.5 -44t104.5 -122.5t37 -184.5q0 -115 -41 -199.5t-112 -130.5t-161 -46v-10q0 -79 29.5 -116.5t97.5 -37.5q46 0 74 25
t34 65zM377 33q81 0 143.5 40t97.5 116t35 184q0 94 -31.5 163t-88.5 106t-135 37q-84 0 -148.5 -41.5t-101.5 -118t-37 -179.5q0 -148 71.5 -227.5t194.5 -79.5z" />
    <glyph glyph-name="R" unicode="R" horiz-adv-x="552" 
d="M567 46l10 -32q-13 -10 -29 -14t-34 -4q-37 0 -66.5 16.5t-62.5 64.5l-151 221q-11 16 -31.5 30.5t-48.5 14.5h-25v-343h-41v710h186q110 0 168.5 -48.5t58.5 -131.5q0 -87 -61.5 -137t-162.5 -50h-45q15 -7 29.5 -21.5t31.5 -39.5l117 -172q22 -33 37.5 -50t31.5 -23
t40 -6q14 0 26 4.5t22 10.5zM270 674h-141v-297h135q94 0 144.5 38t50.5 112q0 67 -44.5 107t-144.5 40z" />
    <glyph glyph-name="S" unicode="S" horiz-adv-x="552" 
d="M288 -7q-110 0 -174 52.5t-76 163.5l40 5q17 -99 66 -140.5t147 -41.5q82 0 129 39.5t47 106.5q0 48 -19 75.5t-59.5 43.5t-104.5 29q-58 12 -104 31.5t-72.5 58t-26.5 107.5q0 56 27 100.5t75 70.5t109 26q88 0 143 -47.5t67 -138.5l-37 -6q-14 80 -56 116.5t-117 36.5
q-77 0 -123 -43t-46 -115q0 -52 20 -83t59 -48t95 -28q74 -15 121 -36t69 -56.5t22 -92.5t-28 -98.5t-77.5 -64.5t-115.5 -23z" />
    <glyph glyph-name="T" unicode="T" horiz-adv-x="527" 
d="M518 710l-3 -36h-230v-674h-43v674h-235v36h511z" />
    <glyph glyph-name="U" unicode="U" horiz-adv-x="706" 
d="M578 710h42l1 -364q1 -177 -66 -265t-210 -88q-134 0 -197 75t-63 237v405h44v-404q0 -145 51 -209t165 -64q127 0 181 76.5t53 235.5z" />
    <glyph glyph-name="V" unicode="V" horiz-adv-x="557" 
d="M523 710h42l-273 -710h-50l-224 710h43l208 -671z" />
    <glyph glyph-name="W" unicode="W" horiz-adv-x="902" 
d="M835 710h41l-207 -710h-50l-160 641l-190 -641h-51l-175 710h42l160 -666l197 666h37l167 -667z" />
    <glyph glyph-name="X" unicode="X" horiz-adv-x="556" 
d="M51 0h-47l252 365l-235 345h47l213 -311l217 311h45l-240 -345l250 -365h-48l-225 331z" />
    <glyph glyph-name="Y" unicode="Y" horiz-adv-x="522" 
d="M543 710l-261 -386v-324h-42v325l-261 385h48l236 -349l235 349h45z" />
    <glyph glyph-name="Z" unicode="Z" horiz-adv-x="580" 
d="M42 0v30l451 644h-438v36h489v-30l-451 -644h463l-5 -36h-509z" />
    <glyph glyph-name="bracketleft" unicode="[" horiz-adv-x="233" 
d="M212 -200h-124v940h124v-32h-85v-876h85v-32z" />
    <glyph glyph-name="backslash" unicode="\" horiz-adv-x="285" 
d="M285 -200h-42l-250 940h42z" />
    <glyph glyph-name="bracketright" unicode="]" horiz-adv-x="232" 
d="M21 -200v32h84v876h-84v32h123v-940h-123z" />
    <glyph glyph-name="asciicircum" unicode="^" horiz-adv-x="600" 
d="M316 577l226 -450h-42l-200 405l-200 -405h-42l224 450h34z" />
    <glyph glyph-name="underscore" unicode="_" horiz-adv-x="431" 
d="M33 -35v35h365v-35h-365z" />
    <glyph glyph-name="grave" unicode="`" horiz-adv-x="641" 
d="M312 573l-115 162l41 15l113 -177h-39z" />
    <glyph glyph-name="a" unicode="a" horiz-adv-x="559" 
d="M477 493v-493h-40l4 149q-24 -70 -76 -113t-118 -43q-88 0 -137 64t-49 166q0 83 28 145.5t79 98t120 35.5q52 0 92 -25.5t56 -64.5l9 81h32zM289 464q-56 0 -97.5 -29t-64.5 -82t-23 -125q0 -92 39 -144.5t108 -52.5q55 0 97 33.5t66 92t24 132.5q0 82 -40 128.5
t-109 46.5z" />
    <glyph glyph-name="b" unicode="b" horiz-adv-x="559" 
d="M82 0v740h40v-247l-3 -145q25 69 76 111.5t117 42.5q89 0 137.5 -64t48.5 -166q0 -83 -28 -145.5t-78.5 -98t-120.5 -35.5q-52 0 -92 25.5t-56 65.5l-9 -84h-32zM271 31q55 0 96.5 29t64.5 82.5t23 124.5q0 92 -39 144.5t-108 52.5q-54 0 -96.5 -33.5t-66.5 -92
t-24 -131.5q0 -82 40 -129t110 -47z" />
    <glyph glyph-name="c" unicode="c" horiz-adv-x="483" 
d="M281 -7q-103 0 -161.5 65t-58.5 180q0 76 28.5 136t80 94t120.5 34q63 0 105 -27t64 -67l-31 -24q-22 39 -56.5 59.5t-82.5 20.5q-56 0 -97.5 -29t-64.5 -80t-23 -117q0 -101 46.5 -154t132.5 -53q46 0 83.5 18t62.5 61l30 -23q-25 -45 -70 -69.5t-108 -24.5z" />
    <glyph glyph-name="d" unicode="d" horiz-adv-x="559" 
d="M477 740v-740h-40l4 149q-24 -70 -76 -113t-118 -43q-88 0 -137 64t-49 166q0 83 28 145.5t79 98t120 35.5q47 0 88.5 -23t61.5 -71l-1 84v248h40zM289 464q-56 0 -97.5 -29t-64.5 -82t-23 -125q0 -92 39 -144.5t108 -52.5q55 0 97 33.5t66 92t24 132.5q0 82 -40 128.5
t-109 46.5z" />
    <glyph glyph-name="e" unicode="e" horiz-adv-x="530" 
d="M293 -7q-109 0 -170.5 65.5t-61.5 181.5q0 76 29.5 135.5t81 93t116.5 33.5q62 0 108 -28.5t68.5 -88.5t12.5 -154h-373q1 -99 50.5 -149.5t140.5 -50.5q48 0 88 18t67 61l29 -23q-28 -45 -74.5 -69.5t-111.5 -24.5zM289 467q-52 0 -92.5 -26.5t-65 -72t-27.5 -101.5h338
q3 71 -16 115t-55 64.5t-82 20.5z" />
    <glyph glyph-name="f" unicode="f" horiz-adv-x="319" 
d="M99 0v457h-101v35h101v61q0 92 44.5 144.5t121.5 52.5q63 0 100 -32t42 -88l-33 -4q-11 88 -109 88q-60 0 -93.5 -41.5t-33.5 -116.5v-64h184v-35h-183v-457h-40z" />
    <glyph glyph-name="g" unicode="g" horiz-adv-x="563" 
d="M255 -210q-42 0 -83.5 9t-71.5 27l14 38q31 -19 69.5 -27.5t72.5 -8.5q99 0 142.5 51.5t43.5 166.5l1 101q-26 -67 -77.5 -108t-116.5 -41q-90 0 -139 63t-49 165q0 81 28.5 143.5t79.5 97.5t121 35q53 0 93.5 -25.5t56.5 -64.5l9 81h32v-442q0 -136 -54.5 -198.5
t-171.5 -62.5zM291 464q-56 0 -98.5 -29t-65.5 -81.5t-23 -122.5q0 -91 39.5 -143t109.5 -52q55 0 97.5 33.5t67 91.5t24.5 130q0 81 -40.5 127t-110.5 46z" />
    <glyph glyph-name="h" unicode="h" horiz-adv-x="550" 
d="M82 0v740h40v-248l-5 -215q24 116 78 170.5t129 54.5q72 0 111 -49t38 -144l-2 -309h-40l2 301q0 82 -28 122.5t-89 40.5q-56 0 -100.5 -44t-70 -145.5t-24.5 -274.5h-39z" />
    <glyph glyph-name="i" unicode="i" horiz-adv-x="204" 
d="M122 492v-492h-40v492h40zM102 628q-14 0 -22.5 10t-8.5 22t9 22t22 10q15 0 23.5 -10t8.5 -22t-8.5 -22t-23.5 -10z" />
    <glyph glyph-name="j" unicode="j" horiz-adv-x="220" 
d="M-31 -216q-51 0 -86 22l11 36q20 -10 38.5 -15t36.5 -5q70 0 99 45t29 116v509h41v-513q0 -91 -44.5 -143t-124.5 -52zM117 628q-14 0 -22.5 10t-8.5 22t9 22t22 10q15 0 23.5 -10t8.5 -22t-8.5 -22t-23.5 -10z" />
    <glyph glyph-name="k" unicode="k" horiz-adv-x="418" 
d="M82 0v740h40v-463l225 214h55l-247 -234q20 -12 39 -39l97 -136q21 -29 40 -40.5t48 -11.5q24 0 43 13l11 -30q-24 -18 -61 -18q-67 0 -108 58l-97 136q-14 19 -25 30.5t-20 17.5v-237h-40z" />
    <glyph glyph-name="l" unicode="l" horiz-adv-x="247" 
d="M187 -7q-55 0 -80 30.5t-25 77.5v639h40v-631q0 -37 15 -58.5t53 -21.5q17 0 31.5 5t22.5 11l14 -31q-13 -10 -33 -15.5t-38 -5.5z" />
    <glyph glyph-name="m" unicode="m" horiz-adv-x="886" 
d="M82 0v492h40l-5 -215q24 117 77 171t125 54q70 0 108 -46.5t39 -147.5q26 100 77 147t120 47q71 0 109 -49t37 -144l-2 -309h-40l2 301q1 163 -114 163q-41 0 -75.5 -24t-60.5 -78t-40.5 -143t-13.5 -219h-39v301q0 85 -27.5 124t-86.5 39q-41 0 -76 -24t-61 -78
t-40 -143t-14 -219h-39z" />
    <glyph glyph-name="n" unicode="n" horiz-adv-x="550" 
d="M82 0v492h40l-5 -215q24 116 78 170.5t129 54.5q72 0 111 -49t38 -144l-2 -309h-40l2 301q0 82 -28 122.5t-89 40.5q-56 0 -100.5 -44t-70 -145.5t-24.5 -274.5h-39z" />
    <glyph glyph-name="o" unicode="o" horiz-adv-x="556" 
d="M286 502q96 0 152 -66t56 -180q0 -75 -28 -134.5t-77.5 -94t-113.5 -34.5q-100 0 -157 66t-57 180q0 75 28 134.5t78.5 94t118.5 34.5zM275 31q53 0 92.5 28.5t62 79.5t22.5 117q0 100 -44 154t-121 54q-55 0 -96.5 -29t-64 -79.5t-22.5 -116.5q0 -100 45 -154t126 -54z
" />
    <glyph glyph-name="p" unicode="p" horiz-adv-x="559" 
d="M82 -200v692h41l-2 -139q25 67 76 108t115 41q89 0 137.5 -64t48.5 -166q0 -83 -28 -145.5t-78.5 -98t-120.5 -35.5q-50 0 -91 25t-59 70l1 -88v-200h-40zM271 31q55 0 96.5 29t64.5 82.5t23 124.5q0 92 -39 144.5t-108 52.5q-54 0 -96.5 -33.5t-66.5 -92t-24 -131.5
q0 -82 40 -129t110 -47z" />
    <glyph glyph-name="q" unicode="q" horiz-adv-x="559" 
d="M477 493v-693h-39v200l4 151q-24 -71 -76 -114.5t-119 -43.5q-88 0 -137 64t-49 166q0 83 28 145.5t79 98t120 35.5q52 0 92 -25.5t56 -64.5l9 81h32zM289 464q-56 0 -97.5 -29t-64.5 -82t-23 -125q0 -92 39 -144.5t108 -52.5q55 0 97 33.5t66 92t24 132.5
q0 82 -40 128.5t-109 46.5z" />
    <glyph glyph-name="r" unicode="r" horiz-adv-x="359" 
d="M335 455q-10 3 -19.5 4t-21.5 1q-87 0 -129.5 -111.5t-42.5 -348.5h-39v315l-1 177h41l-3 -208q22 120 69.5 169t106.5 49q11 0 23.5 -1.5t21.5 -5.5z" />
    <glyph glyph-name="s" unicode="s" horiz-adv-x="438" 
d="M230 -7q-176 0 -189 146l38 8q8 -62 44 -90.5t107 -28.5q62 0 95 28t33 71q0 42 -31.5 59.5t-96.5 31.5q-77 16 -118 45.5t-41 96.5q0 39 20.5 71t57 50.5t85.5 18.5q63 0 103.5 -31t50.5 -92l-37 -8q-15 97 -118 97q-53 0 -87.5 -29t-34.5 -77t31 -70t98 -36
q81 -18 119.5 -43t38.5 -84q1 -56 -45 -95t-123 -39z" />
    <glyph glyph-name="t" unicode="t" horiz-adv-x="344" 
d="M248 -7q-77 0 -114 42t-36 114l3 308h-90v35h90l1 104h40l-1 -104h179v-35h-179l-3 -306q-1 -55 26 -87.5t85 -32.5q24 0 44.5 6t40.5 22l16 -32q-19 -18 -46.5 -26t-55.5 -8z" />
    <glyph glyph-name="u" unicode="u" horiz-adv-x="541" 
d="M224 -7q-70 0 -108.5 47t-38.5 136l4 316h40l-3 -308q-1 -76 26 -114.5t87 -38.5q56 0 99 44t67.5 145t23.5 272h38v-492h-40l5 209q-26 -115 -78.5 -165.5t-121.5 -50.5z" />
    <glyph glyph-name="v" unicode="v" horiz-adv-x="468" 
d="M419 492h41l-199 -492h-51l-163 492h42l148 -456z" />
    <glyph glyph-name="w" unicode="w" horiz-adv-x="817" 
d="M761 492h42l-190 -492h-43l-147 440l-173 -440h-42l-156 492h42l137 -443l173 443h40l148 -445z" />
    <glyph glyph-name="x" unicode="x" horiz-adv-x="461" 
d="M70 0h-46l182 249l-175 243h49l151 -210l153 210h46l-177 -241l180 -251h-48l-157 218z" />
    <glyph glyph-name="y" unicode="y" horiz-adv-x="547" 
d="M239 -210q-41 0 -82 8.5t-69 24.5l14 38q27 -15 65 -24t75 -9q98 0 141 51t44 167l2 168q-25 -115 -78.5 -165.5t-127.5 -50.5q-69 0 -107.5 47t-38.5 136l4 311h40l-3 -303q-1 -75 26 -114t87 -39q59 0 103 44t68.5 144t24.5 268h38v-439q0 -139 -55.5 -201t-170.5 -62z
" />
    <glyph glyph-name="z" unicode="z" horiz-adv-x="450" 
d="M45 0v27l303 430h-289v35h341v-26l-303 -431h300v-35h-352z" />
    <glyph glyph-name="braceleft" unicode="{" horiz-adv-x="298" 
d="M143 -74q0 -49 31 -75.5t82 -28.5l-6 -28q-36 2 -70 16t-56.5 44.5t-22.5 82.5q0 27 8.5 57t20 61t20 58.5t8.5 48.5q0 38 -30.5 63.5t-83.5 25.5v40q53 0 83.5 25.5t30.5 63.5q0 21 -8.5 48.5t-20 58.5t-20 61t-8.5 57q0 52 22.5 82.5t56.5 44.5t70 16l6 -28
q-51 -2 -82 -28.5t-31 -75.5q0 -42 14.5 -80.5t28.5 -74.5t14 -70q0 -37 -15 -61.5t-38.5 -38.5t-47.5 -20q24 -6 47.5 -20t38.5 -38.5t15 -61.5q0 -34 -14 -70t-28.5 -74.5t-14.5 -80.5z" />
    <glyph glyph-name="bar" unicode="|" horiz-adv-x="234" 
d="M98 -200v940h38v-940h-38z" />
    <glyph glyph-name="braceright" unicode="}" horiz-adv-x="298" 
d="M155 -74q0 42 -14.5 80.5t-28.5 74.5t-14 70q0 37 15 61.5t38.5 38.5t46.5 20q-23 6 -46.5 20t-38.5 38.5t-15 61.5q0 34 14 70t28.5 74.5t14.5 80.5q0 49 -31.5 75.5t-81.5 28.5l6 28q36 -2 70 -16t56.5 -44.5t22.5 -82.5q0 -27 -8.5 -57t-20 -61t-20 -58.5t-8.5 -48.5
q0 -38 30.5 -63.5t83.5 -25.5v-40q-53 0 -83.5 -25.5t-30.5 -63.5q0 -21 8.5 -48.5t20 -58.5t20 -61t8.5 -57q0 -52 -22.5 -82.5t-56.5 -44.5t-70 -16l-6 28q50 2 81.5 28.5t31.5 75.5z" />
    <glyph glyph-name="asciitilde" unicode="~" horiz-adv-x="600" 
d="M409 202q-16 0 -45 7.5t-62.5 17.5t-64.5 18t-53 8q-29 0 -50.5 -16t-35.5 -44l-26 22q19 32 48 54.5t71 22.5q16 0 45 -8t62.5 -18t64.5 -17.5t53 -7.5q29 0 50.5 15.5t35.5 43.5l26 -21q-19 -33 -48 -55t-71 -22z" />
    <glyph glyph-name="uni00A0" unicode="&#xa0;" horiz-adv-x="219" 
 />
    <glyph glyph-name="exclamdown" unicode="&#xa1;" horiz-adv-x="155" 
d="M77 433q-13 0 -22.5 9.5t-9.5 23.5t9.5 23.5t23.5 9.5q15 0 23.5 -9.5t8.5 -23.5q0 -13 -9 -23t-24 -10zM49 -200l16 549h27l1 -549h-44z" />
    <glyph glyph-name="cent" unicode="&#xa2;" horiz-adv-x="600" 
d="M294 -120v114q-93 7 -145 71t-52 173q0 70 24.5 126.5t68.5 92t104 43.5v112h35v-110q61 0 102.5 -27t63.5 -67l-31 -24q-22 39 -56.5 59.5t-82.5 20.5q-56 0 -97.5 -29t-64.5 -80t-23 -117q0 -101 46 -154t133 -53q45 0 83 18t63 61l30 -23q-24 -43 -66 -67.5
t-100 -26.5v-113h-35z" />
    <glyph glyph-name="sterling" unicode="&#xa3;" horiz-adv-x="600" 
d="M90 -10l-18 25q44 25 69 47.5t36 49t11 61.5q0 38 -11 80.5t-24 86.5h-127v30h118q-9 33 -15.5 65.5t-6.5 64.5q0 103 58 161.5t157 58.5q85 0 140 -47.5t67 -131.5l-34 -10q-25 153 -172 153q-85 0 -131 -47.5t-46 -134.5q0 -33 6.5 -66t15.5 -66h222v-30h-214
q12 -44 23 -85.5t11 -80.5q0 -35 -13 -65t-37 -49q18 6 36 6q39 0 85 -10t88 -20t70 -10q56 0 85 60l26 -19q-16 -37 -46.5 -56.5t-70.5 -19.5q-19 0 -48 6t-64 13.5t-70.5 13.5t-66.5 6q-33 0 -58.5 -9.5t-50.5 -30.5z" />
    <glyph glyph-name="currency" unicode="&#xa4;" horiz-adv-x="600" 
d="M91 110l-19 21l48 52q-29 33 -45.5 76t-16.5 91q0 49 17 93t47 77l-50 55l19 21l51 -56q32 28 72.5 44.5t85.5 16.5t85.5 -16.5t72.5 -44.5l50 51l20 -21l-48 -52q29 -33 45.5 -76.5t16.5 -91.5t-16 -90t-44 -75l52 -55l-22 -19l-50 53q-32 -30 -73.5 -47t-88.5 -17
q-46 0 -87 16.5t-73 45.5zM302 131q57 0 104.5 29.5t75.5 79t28 110.5q0 62 -28 111.5t-75.5 79t-104.5 28.5q-59 0 -107 -29t-76.5 -78.5t-28.5 -111.5q0 -61 28.5 -110.5t76.5 -79t107 -29.5z" />
    <glyph glyph-name="yen" unicode="&#xa5;" horiz-adv-x="600" 
d="M96 184v31h182v112h-182v30h163l-239 353h47l234 -346l233 346h45l-238 -353h163v-30h-184v0v-112h184v-31h-184v-184h-42v184h-182z" />
    <glyph glyph-name="brokenbar" unicode="&#xa6;" horiz-adv-x="234" 
d="M98 380v360h38v-360h-38zM136 160v-360h-38v360h38z" />
    <glyph glyph-name="section" unicode="&#xa7;" horiz-adv-x="489" 
d="M403 132q0 -40 -21 -72t-58.5 -51t-88.5 -19q-65 0 -106.5 31.5t-51.5 91.5l38 8q15 -95 121 -95q56 0 91 28.5t35 77.5q0 38 -21.5 59t-55.5 31.5t-72 18t-71.5 19.5t-55 35.5t-21.5 66.5q0 39 23 66.5t60 40.5q-27 15 -44.5 40.5t-17.5 68.5q0 40 20.5 72t58.5 50.5
t88 18.5q65 0 106.5 -31t51.5 -92l-37 -8q-15 96 -121 96q-57 0 -92 -29t-35 -77q0 -39 21.5 -59.5t55.5 -31t72 -18.5t72 -20t55.5 -35.5t21.5 -66.5q0 -39 -23.5 -66.5t-59.5 -40.5q27 -15 44.5 -40.5t17.5 -67.5zM106 364q0 -30 17 -47t44.5 -26t60.5 -16t65 -16
q39 4 64.5 27t25.5 59q0 30 -17 47t-45 26.5t-61 16t-64 15.5q-40 -4 -65 -26.5t-25 -59.5z" />
    <glyph glyph-name="dieresis" unicode="&#xa8;" horiz-adv-x="669" 
d="M259 570q-14 0 -22.5 7.5t-8.5 21.5q0 13 8.5 21.5t22.5 8.5q13 0 21 -8.5t8 -21.5q0 -14 -8 -21.5t-21 -7.5zM413 570q-14 0 -22.5 7.5t-8.5 21.5q0 13 8.5 21.5t22.5 8.5q13 0 21 -8.5t8 -21.5q0 -29 -29 -29z" />
    <glyph glyph-name="copyright" unicode="&#xa9;" horiz-adv-x="801" 
d="M400 -5q-75 0 -139.5 27t-113 75t-75.5 112.5t-27 139.5q0 76 27 140t75 112t113 75t140 27q76 0 140.5 -27t113 -75t75.5 -112t27 -140q0 -75 -27 -139.5t-75.5 -112.5t-113 -75t-140.5 -27zM400 23q69 0 128 24.5t103.5 69t69 104t24.5 129.5t-24.5 129t-69 103
t-103.5 68.5t-128 24.5t-128.5 -24.5t-103.5 -68.5t-68.5 -103t-24.5 -129q0 -69 25 -128.5t69 -104t103.5 -69.5t127.5 -25zM545 228q-20 -38 -57.5 -58.5t-85.5 -20.5q-81 0 -127.5 52t-46.5 141q0 61 23 108t64.5 73t96.5 26q90 0 134 -73l-28 -21q-32 60 -107 60
q-64 0 -105 -48t-41 -125q0 -75 36.5 -117t100.5 -42q81 0 117 67z" />
    <glyph glyph-name="ordfeminine" unicode="&#xaa;" horiz-adv-x="326" 
d="M277 473h-35l1 66q-15 -32 -41.5 -51.5t-59.5 -19.5q-51 0 -78 35.5t-27 93.5q0 67 35 110t92 43q30 0 52 -13.5t29 -33.5l5 43h27v-273zM166 718q-43 0 -69 -32t-26 -86q0 -48 20 -74t54 -26q42 0 70.5 36.5t28.5 92.5q0 42 -21 65.5t-57 23.5z" />
    <glyph glyph-name="guillemotleft" unicode="&#xab;" horiz-adv-x="373" 
d="M163 70l-130 174v18l130 174h46l-135 -183l135 -183h-46zM312 70l-130 174v18l130 174h46l-135 -183l135 -183h-46z" />
    <glyph glyph-name="logicalnot" unicode="&#xac;" horiz-adv-x="600" 
d="M75 265h450v-265h-37v227h-413v38z" />
    <glyph glyph-name="uni00AD" unicode="&#xad;" horiz-adv-x="376" 
d="M60 234v37h256v-37h-256z" />
    <glyph glyph-name="registered" unicode="&#xae;" horiz-adv-x="801" 
d="M400 -5q-75 0 -140 27t-113 75.5t-75 112.5t-27 139t27 139.5t75 112.5t113 75t140 27q76 0 140.5 -27t113 -75t75.5 -112.5t27 -139.5t-27 -139.5t-75.5 -112.5t-113.5 -75t-140 -27zM400 23q70 0 129 24.5t103 69t68.5 104t24.5 129.5q0 69 -24.5 128.5t-68.5 103.5
t-103 68.5t-129 24.5q-69 0 -128.5 -24.5t-103.5 -68.5t-68.5 -103t-24.5 -129q0 -69 25 -128.5t69 -104t103.5 -69.5t127.5 -25zM531 153q-31 0 -53.5 18.5t-39.5 45.5l-34 54t-37 45.5t-49 18.5v0v-180h-35v391h115q53 0 85 -28.5t32 -76.5q0 -44 -33 -74.5t-86 -30.5h-17
q23 -9 41 -33.5t35 -52t36.5 -47t44.5 -19.5q13 0 31 8l7 -28q-17 -11 -43 -11zM395 517h-77v-156h55q106 0 106 79q0 35 -23.5 56t-60.5 21z" />
    <glyph glyph-name="macron" unicode="&#xaf;" horiz-adv-x="627" 
d="M173 634h287v-31h-287v31z" />
    <glyph glyph-name="degree" unicode="&#xb0;" horiz-adv-x="353" 
d="M177 444q-37 0 -67.5 18t-48.5 49t-18 70t18 69.5t48.5 48.5t67.5 18t67 -18t48 -48.5t18 -69.5t-18 -70t-48 -49t-67 -18zM177 473q46 0 74 30t28 77t-28 77.5t-74 30.5t-74.5 -30.5t-28.5 -77.5t28.5 -77t74.5 -30z" />
    <glyph glyph-name="plusminus" unicode="&#xb1;" horiz-adv-x="600" 
d="M282 492h36v-170h175v-39h-175v-172h-36v172h-175v39h175v170zM75 0v39h450v-39h-450z" />
    <glyph glyph-name="uni00B2" unicode="&#xb2;" horiz-adv-x="330" 
d="M58 343q77 64 117 112t54 84.5t14 67.5q0 34 -20.5 55t-57.5 21q-35 0 -57.5 -19.5t-34.5 -55.5l-29 12q11 41 44 68t80 27t79 -28t32 -81q1 -53 -37 -114t-137 -143h185v-30h-232v24z" />
    <glyph glyph-name="uni00B3" unicode="&#xb3;" horiz-adv-x="330" 
d="M152 315q-31 0 -62 8t-48 19l12 32q19 -12 47 -19.5t52 -7.5q45 0 71.5 22.5t26.5 57.5q0 40 -27.5 60t-76.5 20h-29v29h32q44 0 69.5 21.5t25.5 59.5q0 31 -20 49t-54 18q-66 0 -93 -68l-28 14q15 42 47.5 63.5t76.5 21.5q48 0 77 -27t29 -69q0 -32 -18 -58t-49 -37
q74 -20 74 -97q0 -48 -37.5 -80t-97.5 -32z" />
    <glyph glyph-name="acute" unicode="&#xb4;" horiz-adv-x="643" 
d="M314 573l113 177l41 -15l-115 -162h-39z" />
    <glyph glyph-name="uni00B5" unicode="&#xb5;" horiz-adv-x="541" 
d="M421 492h38v-492h-40l5 214q-25 -117 -77 -169t-120 -52q-37 0 -65 13t-47 46v-252h-38v692h42l-2 -308q-1 -76 26.5 -114.5t87.5 -38.5q56 0 99 44t67 145t24 272z" />
    <glyph glyph-name="paragraph" unicode="&#xb6;" horiz-adv-x="554" 
d="M31 508q0 93 65 148.5t198 55.5h58v-712h-41v304h-27q-126 0 -189.5 55.5t-63.5 148.5zM425 710h41v-710h-41v710z" />
    <glyph glyph-name="periodcentered" unicode="&#xb7;" horiz-adv-x="148" 
d="M74 236q-14 0 -23.5 10t-9.5 24t9.5 24.5t23.5 10.5q15 0 24 -10.5t9 -24.5t-9 -24t-24 -10z" />
    <glyph glyph-name="cedilla" unicode="&#xb8;" horiz-adv-x="618" 
d="M272 -223q-29 0 -48 6t-39 17l15 28q18 -10 34 -15t37 -5q27 0 45.5 13.5t18.5 39.5q0 45 -67 45h-32l58 112h38l-43 -83q37 -4 59 -22.5t22 -50.5q0 -38 -29.5 -61.5t-68.5 -23.5z" />
    <glyph glyph-name="uni00B9" unicode="&#xb9;" horiz-adv-x="330" 
d="M71 349h88v312l-78 -52l-16 25l109 76h20v-361h85v-30h-208v30z" />
    <glyph glyph-name="ordmasculine" unicode="&#xba;" horiz-adv-x="321" 
d="M164 750q59 0 89.5 -39.5t30.5 -96.5q0 -64 -35.5 -105t-91.5 -41q-58 0 -89 38.5t-31 96.5q0 65 35.5 106t91.5 41zM157 499q42 0 67 31.5t25 84.5q0 49 -22.5 76t-61.5 27q-43 0 -68 -32t-25 -83q0 -49 22.5 -76.5t62.5 -27.5z" />
    <glyph glyph-name="guillemotright" unicode="&#xbb;" horiz-adv-x="373" 
d="M61 70h-47l135 183l-135 183h47l129 -174v-18zM210 70h-47l135 183l-135 183h47l129 -174v-18z" />
    <glyph glyph-name="onequarter" unicode="&#xbc;" horiz-adv-x="785" 
d="M71 349h88v312l-78 -52l-16 25l109 76h20v-361h85v-30h-208v30zM200 0l349 710h36l-349 -710h-36zM760 117h-53v-117h-33v117h-187v21l195 254h25v-247h53v-28zM527 145h147v190z" />
    <glyph glyph-name="onehalf" unicode="&#xbd;" horiz-adv-x="785" 
d="M71 349h88v312l-78 -52l-16 25l109 76h20v-361h85v-30h-208v30zM200 0l349 710h36l-349 -710h-36zM513 24q77 64 117 112t54 84.5t14 67.5q0 34 -20.5 55t-57.5 21q-35 0 -57.5 -19.5t-34.5 -55.5l-29 12q11 41 44 68t80 27t79 -28t32 -81q1 -53 -37 -114t-137 -143h185
v-30h-232v24z" />
    <glyph glyph-name="threequarters" unicode="&#xbe;" horiz-adv-x="785" 
d="M152 315q-31 0 -62 8t-48 19l12 32q19 -12 47 -19.5t52 -7.5q45 0 71.5 22.5t26.5 57.5q0 40 -27.5 60t-76.5 20h-29v29h32q44 0 69.5 21.5t25.5 59.5q0 31 -20 49t-54 18q-66 0 -93 -68l-28 14q15 42 47.5 63.5t76.5 21.5q48 0 77 -27t29 -69q0 -32 -18 -58t-49 -37
q74 -20 74 -97q0 -48 -37.5 -80t-97.5 -32zM200 0l349 710h36l-349 -710h-36zM760 117h-53v-117h-33v117h-187v21l195 254h25v-247h53v-28zM527 145h147v190z" />
    <glyph glyph-name="questiondown" unicode="&#xbf;" horiz-adv-x="511" 
d="M324 433q-15 0 -23.5 9.5t-8.5 23.5q0 13 8.5 23t23.5 10q14 0 23.5 -10t9.5 -23q0 -14 -9.5 -23.5t-23.5 -9.5zM266 -213q-55 0 -98.5 20.5t-68 58.5t-24.5 90q0 39 12.5 72t41.5 67t79 76q48 42 71 82t26 98l30 -1q0 -45 -10.5 -80t-34.5 -66.5t-65 -66.5
q-46 -39 -69.5 -68t-31.5 -55.5t-8 -56.5q0 -64 42.5 -97.5t107.5 -33.5q140 0 189 150l34 -14q-23 -81 -81.5 -128t-141.5 -47z" />
    <glyph glyph-name="Agrave" unicode="&#xc0;" horiz-adv-x="664" 
d="M27 0l290 710h38l278 -710h-43l-81 208h-355l-84 -208h-43zM169 244h327l-160 415zM313 791l-115 161l41 16l113 -177h-39z" />
    <glyph glyph-name="Aacute" unicode="&#xc1;" horiz-adv-x="664" 
d="M27 0l290 710h38l278 -710h-43l-81 208h-355l-84 -208h-43zM169 244h327l-160 415zM311 791l113 177l41 -16l-115 -161h-39z" />
    <glyph glyph-name="Acircumflex" unicode="&#xc2;" horiz-adv-x="664" 
d="M27 0l290 710h38l278 -710h-43l-81 208h-355l-84 -208h-43zM169 244h327l-160 415zM473 791h-40l-101 136l-101 -136h-40l124 167h34z" />
    <glyph glyph-name="Atilde" unicode="&#xc3;" horiz-adv-x="664" 
d="M27 0l290 710h38l278 -710h-43l-81 208h-355l-84 -208h-43zM169 244h327l-160 415zM416 788q-19 0 -41 10t-45.5 22.5t-44.5 22.5t-38 10q-22 0 -36 -18t-20 -47l-24 12q7 40 28 63t53 23q19 0 41 -10t45 -23t44.5 -23t38.5 -10q22 0 36 18t20 48l24 -13
q-7 -40 -28 -62.5t-53 -22.5z" />
    <glyph glyph-name="Adieresis" unicode="&#xc4;" horiz-adv-x="664" 
d="M27 0l290 710h38l278 -710h-43l-81 208h-355l-84 -208h-43zM169 244h327l-160 415zM256 787q-14 0 -22.5 8t-8.5 22q0 13 8.5 21t22.5 8q13 0 21 -8t8 -21q0 -14 -8 -22t-21 -8zM410 787q-14 0 -22.5 8t-8.5 22q0 13 8.5 21t22.5 8q13 0 21 -8t8 -21q0 -30 -29 -30z" />
    <glyph glyph-name="Aring" unicode="&#xc5;" horiz-adv-x="664" 
d="M27 0l290 710h38l278 -710h-43l-81 208h-355l-84 -208h-43zM169 244h327l-160 415zM331 786q-41 0 -68 26.5t-27 66.5q0 41 28.5 69t70.5 28q41 0 67 -26t26 -67q0 -42 -27.5 -69.5t-69.5 -27.5zM332 814q30 0 48 19t18 50q0 30 -17.5 47t-46.5 17q-31 0 -49.5 -19
t-18.5 -49q0 -29 18.5 -47t47.5 -18z" />
    <glyph glyph-name="AE" unicode="&#xc6;" horiz-adv-x="874" 
d="M27 0l290 710h500v-36h-329v-295h324v-35h-324v-308h345l-5 -36h-381v209h-293l-84 -209h-43zM168 244h279v430h-105z" />
    <glyph glyph-name="Ccedilla" unicode="&#xc7;" horiz-adv-x="635" 
d="M627 134q-37 -68 -102 -104.5t-151 -36.5q-94 0 -163 42t-106 120.5t-37 187.5q0 111 41 196t114 133t169 48q78 0 139.5 -33t96.5 -97l-33 -27q-33 58 -82.5 87t-123.5 29q-81 0 -144 -42.5t-98.5 -119t-35.5 -176.5q0 -145 69 -226.5t193 -81.5q79 0 133.5 32.5
t86.5 93.5zM358 -223q-29 0 -48 6t-39 17l15 28q18 -10 34 -15t37 -5q27 0 45.5 13.5t18.5 39.5q0 45 -67 45h-32l58 112h38l-43 -83q37 -4 59 -22.5t22 -50.5q0 -38 -29.5 -61.5t-68.5 -23.5z" />
    <glyph glyph-name="Egrave" unicode="&#xc8;" horiz-adv-x="526" 
d="M469 674h-340v-295h335v-35h-335v-308h356l-5 -36h-392v710h381v-36zM259 791l-115 161l41 16l113 -177h-39z" />
    <glyph glyph-name="Eacute" unicode="&#xc9;" horiz-adv-x="526" 
d="M469 674h-340v-295h335v-35h-335v-308h356l-5 -36h-392v710h381v-36zM257 791l113 177l41 -16l-115 -161h-39z" />
    <glyph glyph-name="Ecircumflex" unicode="&#xca;" horiz-adv-x="526" 
d="M469 674h-340v-295h335v-35h-335v-308h356l-5 -36h-392v710h381v-36zM419 791h-40l-101 136l-101 -136h-40l124 167h34z" />
    <glyph glyph-name="Edieresis" unicode="&#xcb;" horiz-adv-x="526" 
d="M469 674h-340v-295h335v-35h-335v-308h356l-5 -36h-392v710h381v-36zM202 787q-14 0 -22.5 8t-8.5 22q0 13 8.5 21t22.5 8q13 0 21 -8t8 -21q0 -14 -8 -22t-21 -8zM356 787q-14 0 -22.5 8t-8.5 22q0 13 8.5 21t22.5 8q13 0 21 -8t8 -21q0 -30 -29 -30z" />
    <glyph glyph-name="Igrave" unicode="&#xcc;" horiz-adv-x="218" 
d="M88 0v710h42v-710h-42zM91 791l-115 161l41 16l113 -177h-39z" />
    <glyph glyph-name="Iacute" unicode="&#xcd;" horiz-adv-x="218" 
d="M88 0v710h42v-710h-42zM89 791l113 177l41 -16l-115 -161h-39z" />
    <glyph glyph-name="Icircumflex" unicode="&#xce;" horiz-adv-x="218" 
d="M88 0v710h42v-710h-42zM251 791h-40l-101 136l-101 -136h-40l124 167h34z" />
    <glyph glyph-name="Idieresis" unicode="&#xcf;" horiz-adv-x="218" 
d="M88 0v710h42v-710h-42zM34 787q-14 0 -22.5 8t-8.5 22q0 13 8.5 21t22.5 8q13 0 21 -8t8 -21q0 -14 -8 -22t-21 -8zM188 787q-14 0 -22.5 8t-8.5 22q0 13 8.5 21t22.5 8q13 0 21 -8t8 -21q0 -30 -29 -30z" />
    <glyph glyph-name="Eth" unicode="&#xd0;" horiz-adv-x="723" 
d="M88 0v710h159q408 0 408 -352q0 -171 -99.5 -264.5t-286.5 -93.5h-181zM130 37h135q347 0 347 320q0 159 -88 237.5t-270 78.5h-124v-636zM3 343v34h354v-34h-354z" />
    <glyph glyph-name="Ntilde" unicode="&#xd1;" horiz-adv-x="702" 
d="M575 710h39v-710h-33l-453 635v-635h-40v710h34l453 -635v635zM436 787q-19 0 -41 10t-45.5 22.5t-44.5 22.5t-38 10q-22 0 -36 -18t-20 -47l-24 12q7 40 28 63t53 23q19 0 41 -10t45 -23t44.5 -23t38.5 -10q22 0 36 18t20 48l24 -13q-7 -40 -28 -62.5t-53 -22.5z" />
    <glyph glyph-name="Ograve" unicode="&#xd2;" horiz-adv-x="764" 
d="M377 -7q-95 0 -164.5 41t-107 119t-37.5 189t42.5 196.5t117 133.5t169.5 48q90 0 157.5 -44t104.5 -122.5t37 -184.5q0 -115 -41 -199.5t-113 -130.5t-165 -46zM377 33q81 0 143.5 40t97.5 116t35 184q0 94 -31.5 163t-88.5 106t-135 37q-84 0 -148.5 -41.5t-101.5 -118
t-37 -179.5q0 -148 71.5 -227.5t194.5 -79.5zM363 791l-115 161l41 16l113 -177h-39z" />
    <glyph glyph-name="Oacute" unicode="&#xd3;" horiz-adv-x="764" 
d="M377 -7q-95 0 -164.5 41t-107 119t-37.5 189t42.5 196.5t117 133.5t169.5 48q90 0 157.5 -44t104.5 -122.5t37 -184.5q0 -115 -41 -199.5t-113 -130.5t-165 -46zM377 33q81 0 143.5 40t97.5 116t35 184q0 94 -31.5 163t-88.5 106t-135 37q-84 0 -148.5 -41.5t-101.5 -118
t-37 -179.5q0 -148 71.5 -227.5t194.5 -79.5zM361 791l113 177l41 -16l-115 -161h-39z" />
    <glyph glyph-name="Ocircumflex" unicode="&#xd4;" horiz-adv-x="764" 
d="M377 -7q-95 0 -164.5 41t-107 119t-37.5 189t42.5 196.5t117 133.5t169.5 48q90 0 157.5 -44t104.5 -122.5t37 -184.5q0 -115 -41 -199.5t-113 -130.5t-165 -46zM377 33q81 0 143.5 40t97.5 116t35 184q0 94 -31.5 163t-88.5 106t-135 37q-84 0 -148.5 -41.5t-101.5 -118
t-37 -179.5q0 -148 71.5 -227.5t194.5 -79.5zM523 791h-40l-101 136l-101 -136h-40l124 167h34z" />
    <glyph glyph-name="Otilde" unicode="&#xd5;" horiz-adv-x="764" 
d="M377 -7q-95 0 -164.5 41t-107 119t-37.5 189t42.5 196.5t117 133.5t169.5 48q90 0 157.5 -44t104.5 -122.5t37 -184.5q0 -115 -41 -199.5t-113 -130.5t-165 -46zM377 33q81 0 143.5 40t97.5 116t35 184q0 94 -31.5 163t-88.5 106t-135 37q-84 0 -148.5 -41.5t-101.5 -118
t-37 -179.5q0 -148 71.5 -227.5t194.5 -79.5zM466 788q-19 0 -41 10t-45.5 22.5t-44.5 22.5t-38 10q-22 0 -36 -18t-20 -47l-24 12q7 40 28 63t53 23q19 0 41 -10t45 -23t44.5 -23t38.5 -10q22 0 36 18t20 48l24 -13q-7 -40 -28 -62.5t-53 -22.5z" />
    <glyph glyph-name="Odieresis" unicode="&#xd6;" horiz-adv-x="764" 
d="M377 -7q-95 0 -164.5 41t-107 119t-37.5 189t42.5 196.5t117 133.5t169.5 48q90 0 157.5 -44t104.5 -122.5t37 -184.5q0 -115 -41 -199.5t-113 -130.5t-165 -46zM377 33q81 0 143.5 40t97.5 116t35 184q0 94 -31.5 163t-88.5 106t-135 37q-84 0 -148.5 -41.5t-101.5 -118
t-37 -179.5q0 -148 71.5 -227.5t194.5 -79.5zM306 787q-14 0 -22.5 8t-8.5 22q0 13 8.5 21t22.5 8q13 0 21 -8t8 -21q0 -14 -8 -22t-21 -8zM460 787q-14 0 -22.5 8t-8.5 22q0 13 8.5 21t22.5 8q13 0 21 -8t8 -21q0 -30 -29 -30z" />
    <glyph glyph-name="multiply" unicode="&#xd7;" horiz-adv-x="600" 
d="M473 100l-27 -26l-146 145l-146 -145l-27 26l146 146l-146 146l27 27l146 -146l146 146l27 -27l-146 -146z" />
    <glyph glyph-name="Oslash" unicode="&#xd8;" horiz-adv-x="764" 
d="M377 -7q-95 0 -164.5 41t-107 119t-37.5 189t42.5 196.5t117 133.5t169.5 48q90 0 157.5 -44t104.5 -122.5t37 -184.5q0 -115 -41 -199.5t-113 -130.5t-165 -46zM377 33q81 0 143.5 40t97.5 116t35 184q0 94 -31.5 163t-88.5 106t-135 37q-84 0 -148.5 -41.5t-101.5 -118
t-37 -179.5q0 -148 71.5 -227.5t194.5 -79.5zM153 -19l-30 20l489 728l29 -20z" />
    <glyph glyph-name="Ugrave" unicode="&#xd9;" horiz-adv-x="706" 
d="M578 710h42l1 -364q1 -177 -66 -265t-210 -88q-134 0 -197 75t-63 237v405h44v-404q0 -145 51 -209t165 -64q127 0 181 76.5t53 235.5zM335 791l-115 161l41 16l113 -177h-39z" />
    <glyph glyph-name="Uacute" unicode="&#xda;" horiz-adv-x="706" 
d="M578 710h42l1 -364q1 -177 -66 -265t-210 -88q-134 0 -197 75t-63 237v405h44v-404q0 -145 51 -209t165 -64q127 0 181 76.5t53 235.5zM333 791l113 177l41 -16l-115 -161h-39z" />
    <glyph glyph-name="Ucircumflex" unicode="&#xdb;" horiz-adv-x="706" 
d="M578 710h42l1 -364q1 -177 -66 -265t-210 -88q-134 0 -197 75t-63 237v405h44v-404q0 -145 51 -209t165 -64q127 0 181 76.5t53 235.5zM495 791h-40l-101 136l-101 -136h-40l124 167h34z" />
    <glyph glyph-name="Udieresis" unicode="&#xdc;" horiz-adv-x="706" 
d="M578 710h42l1 -364q1 -177 -66 -265t-210 -88q-134 0 -197 75t-63 237v405h44v-404q0 -145 51 -209t165 -64q127 0 181 76.5t53 235.5zM278 787q-14 0 -22.5 8t-8.5 22q0 13 8.5 21t22.5 8q13 0 21 -8t8 -21q0 -14 -8 -22t-21 -8zM432 787q-14 0 -22.5 8t-8.5 22
q0 13 8.5 21t22.5 8q13 0 21 -8t8 -21q0 -30 -29 -30z" />
    <glyph glyph-name="Yacute" unicode="&#xdd;" horiz-adv-x="522" 
d="M543 710l-261 -386v-324h-42v325l-261 385h48l236 -349l235 349h45zM241 791l113 177l41 -16l-115 -161h-39z" />
    <glyph glyph-name="Thorn" unicode="&#xde;" horiz-adv-x="590" 
d="M130 710v-126h173q117 0 182 -52.5t65 -146.5q0 -209 -273 -209h-147v-176h-42v712zM294 549h-164v-337h149q120 0 174.5 41.5t54.5 130.5q0 165 -214 165z" />
    <glyph glyph-name="germandbls" unicode="&#xdf;" horiz-adv-x="611" 
d="M416 -7q-77 0 -127.5 39t-54.5 112l36 7q6 -60 44.5 -91.5t101.5 -31.5q60 0 93.5 25.5t33.5 67.5q0 35 -20 55t-52 32t-67.5 23t-67.5 25.5t-52 40t-20 68.5q0 38 17 65.5t42.5 49.5t51 43t42.5 46t17 59q0 40 -31.5 63.5t-86.5 23.5q-85 0 -131.5 -57t-46.5 -162v-496
h-40v458h-100v34h100q1 121 59 189.5t159 68.5q69 0 111 -33.5t42 -88.5q0 -39 -17 -67.5t-41.5 -50t-49.5 -42t-42 -44t-17 -55.5q0 -35 20.5 -55.5t52.5 -33t68 -23t68 -25.5t52 -40.5t20 -66.5q0 -60 -46.5 -96t-120.5 -36z" />
    <glyph glyph-name="agrave" unicode="&#xe0;" horiz-adv-x="559" 
d="M477 493v-493h-40l4 149q-24 -70 -76 -113t-118 -43q-88 0 -137 64t-49 166q0 83 28 145.5t79 98t120 35.5q52 0 92 -25.5t56 -64.5l9 81h32zM289 464q-56 0 -97.5 -29t-64.5 -82t-23 -125q0 -92 39 -144.5t108 -52.5q55 0 97 33.5t66 92t24 132.5q0 82 -40 128.5
t-109 46.5zM285 573l-115 162l41 15l113 -177h-39z" />
    <glyph glyph-name="aacute" unicode="&#xe1;" horiz-adv-x="559" 
d="M477 493v-493h-40l4 149q-24 -70 -76 -113t-118 -43q-88 0 -137 64t-49 166q0 83 28 145.5t79 98t120 35.5q52 0 92 -25.5t56 -64.5l9 81h32zM289 464q-56 0 -97.5 -29t-64.5 -82t-23 -125q0 -92 39 -144.5t108 -52.5q55 0 97 33.5t66 92t24 132.5q0 82 -40 128.5
t-109 46.5zM283 573l113 177l41 -15l-115 -162h-39z" />
    <glyph glyph-name="acircumflex" unicode="&#xe2;" horiz-adv-x="559" 
d="M477 493v-493h-40l4 149q-24 -70 -76 -113t-118 -43q-88 0 -137 64t-49 166q0 83 28 145.5t79 98t120 35.5q52 0 92 -25.5t56 -64.5l9 81h32zM289 464q-56 0 -97.5 -29t-64.5 -82t-23 -125q0 -92 39 -144.5t108 -52.5q55 0 97 33.5t66 92t24 132.5q0 82 -40 128.5
t-109 46.5zM445 573h-40l-101 136l-101 -136h-40l124 167h34z" />
    <glyph glyph-name="atilde" unicode="&#xe3;" horiz-adv-x="559" 
d="M477 493v-493h-40l4 149q-24 -70 -76 -113t-118 -43q-88 0 -137 64t-49 166q0 83 28 145.5t79 98t120 35.5q52 0 92 -25.5t56 -64.5l9 81h32zM289 464q-56 0 -97.5 -29t-64.5 -82t-23 -125q0 -92 39 -144.5t108 -52.5q55 0 97 33.5t66 92t24 132.5q0 82 -40 128.5
t-109 46.5zM388 570q-19 0 -41 10t-45.5 23t-44.5 23t-38 10q-22 0 -36 -18t-20 -48l-24 13q7 39 28 62t53 23q19 0 41 -10t45 -23t44.5 -23t38.5 -10q22 0 36 18.5t20 47.5l24 -13q-7 -40 -28 -62.5t-53 -22.5z" />
    <glyph glyph-name="adieresis" unicode="&#xe4;" horiz-adv-x="559" 
d="M477 493v-493h-40l4 149q-24 -70 -76 -113t-118 -43q-88 0 -137 64t-49 166q0 83 28 145.5t79 98t120 35.5q52 0 92 -25.5t56 -64.5l9 81h32zM289 464q-56 0 -97.5 -29t-64.5 -82t-23 -125q0 -92 39 -144.5t108 -52.5q55 0 97 33.5t66 92t24 132.5q0 82 -40 128.5
t-109 46.5zM228 570q-14 0 -22.5 7.5t-8.5 21.5q0 13 8.5 21.5t22.5 8.5q13 0 21 -8.5t8 -21.5q0 -14 -8 -21.5t-21 -7.5zM382 570q-14 0 -22.5 7.5t-8.5 21.5q0 13 8.5 21.5t22.5 8.5q13 0 21 -8.5t8 -21.5q0 -29 -29 -29z" />
    <glyph glyph-name="aring" unicode="&#xe5;" horiz-adv-x="559" 
d="M477 493v-493h-40l4 149q-24 -70 -76 -113t-118 -43q-88 0 -137 64t-49 166q0 83 28 145.5t79 98t120 35.5q52 0 92 -25.5t56 -64.5l9 81h32zM289 464q-56 0 -97.5 -29t-64.5 -82t-23 -125q0 -92 39 -144.5t108 -52.5q55 0 97 33.5t66 92t24 132.5q0 82 -40 128.5
t-109 46.5zM303 568q-41 0 -68 26.5t-27 67.5t28.5 68.5t70.5 27.5q41 0 67 -26t26 -66q0 -42 -27.5 -70t-69.5 -28zM304 597q30 0 48 19t18 50q0 29 -17.5 46.5t-46.5 17.5q-31 0 -49.5 -19.5t-18.5 -48.5t18.5 -47t47.5 -18z" />
    <glyph glyph-name="ae" unicode="&#xe6;" horiz-adv-x="868" 
d="M220 -7q-77 0 -123 38t-46 97q0 65 47 102t134 37h170v39q0 77 -34 118t-107 41q-64 0 -104.5 -34.5t-51.5 -97.5l-38 7q11 72 62.5 117t131.5 45q75 0 117.5 -34.5t55.5 -94.5q27 60 78.5 94.5t114.5 34.5q61 0 107 -28.5t68 -88.5t12 -154h-369q1 -99 50.5 -149.5
t138.5 -50.5q46 0 86.5 18t66.5 61l29 -23q-27 -45 -73.5 -69.5t-110.5 -24.5q-79 0 -133 36.5t-77 103.5q-22 -62 -76 -101t-126 -39zM627 467q-50 0 -90 -26.5t-64.5 -72t-26.5 -101.5h333q4 70 -15 114t-55 65t-82 21zM224 29q53 0 93 25.5t62.5 68t22.5 93.5v14h-170
q-68 0 -103 -26.5t-35 -73.5t34 -74t96 -27z" />
    <glyph glyph-name="ccedilla" unicode="&#xe7;" horiz-adv-x="483" 
d="M281 -7q-103 0 -161.5 65t-58.5 180q0 76 28.5 136t80 94t120.5 34q63 0 105 -27t64 -67l-31 -24q-22 39 -56.5 59.5t-82.5 20.5q-56 0 -97.5 -29t-64.5 -80t-23 -117q0 -101 46.5 -154t132.5 -53q46 0 83.5 18t62.5 61l30 -23q-25 -45 -70 -69.5t-108 -24.5zM253 -223
q-29 0 -48 6t-39 17l15 28q18 -10 34 -15t37 -5q27 0 45.5 13.5t18.5 39.5q0 45 -67 45h-32l58 112h38l-43 -83q37 -4 59 -22.5t22 -50.5q0 -38 -29.5 -61.5t-68.5 -23.5z" />
    <glyph glyph-name="egrave" unicode="&#xe8;" horiz-adv-x="530" 
d="M293 -7q-109 0 -170.5 65.5t-61.5 181.5q0 76 29.5 135.5t81 93t116.5 33.5q62 0 108 -28.5t68.5 -88.5t12.5 -154h-373q1 -99 50.5 -149.5t140.5 -50.5q48 0 88 18t67 61l29 -23q-28 -45 -74.5 -69.5t-111.5 -24.5zM289 467q-52 0 -92.5 -26.5t-65 -72t-27.5 -101.5h338
q3 71 -16 115t-55 64.5t-82 20.5zM269 573l-115 162l41 15l113 -177h-39z" />
    <glyph glyph-name="eacute" unicode="&#xe9;" horiz-adv-x="530" 
d="M293 -7q-109 0 -170.5 65.5t-61.5 181.5q0 76 29.5 135.5t81 93t116.5 33.5q62 0 108 -28.5t68.5 -88.5t12.5 -154h-373q1 -99 50.5 -149.5t140.5 -50.5q48 0 88 18t67 61l29 -23q-28 -45 -74.5 -69.5t-111.5 -24.5zM289 467q-52 0 -92.5 -26.5t-65 -72t-27.5 -101.5h338
q3 71 -16 115t-55 64.5t-82 20.5zM267 573l113 177l41 -15l-115 -162h-39z" />
    <glyph glyph-name="ecircumflex" unicode="&#xea;" horiz-adv-x="530" 
d="M293 -7q-109 0 -170.5 65.5t-61.5 181.5q0 76 29.5 135.5t81 93t116.5 33.5q62 0 108 -28.5t68.5 -88.5t12.5 -154h-373q1 -99 50.5 -149.5t140.5 -50.5q48 0 88 18t67 61l29 -23q-28 -45 -74.5 -69.5t-111.5 -24.5zM289 467q-52 0 -92.5 -26.5t-65 -72t-27.5 -101.5h338
q3 71 -16 115t-55 64.5t-82 20.5zM429 573h-40l-101 136l-101 -136h-40l124 167h34z" />
    <glyph glyph-name="edieresis" unicode="&#xeb;" horiz-adv-x="530" 
d="M293 -7q-109 0 -170.5 65.5t-61.5 181.5q0 76 29.5 135.5t81 93t116.5 33.5q62 0 108 -28.5t68.5 -88.5t12.5 -154h-373q1 -99 50.5 -149.5t140.5 -50.5q48 0 88 18t67 61l29 -23q-28 -45 -74.5 -69.5t-111.5 -24.5zM289 467q-52 0 -92.5 -26.5t-65 -72t-27.5 -101.5h338
q3 71 -16 115t-55 64.5t-82 20.5zM212 570q-14 0 -22.5 7.5t-8.5 21.5q0 13 8.5 21.5t22.5 8.5q13 0 21 -8.5t8 -21.5q0 -14 -8 -21.5t-21 -7.5zM366 570q-14 0 -22.5 7.5t-8.5 21.5q0 13 8.5 21.5t22.5 8.5q13 0 21 -8.5t8 -21.5q0 -29 -29 -29z" />
    <glyph glyph-name="igrave" unicode="&#xec;" horiz-adv-x="204" 
d="M122 492v-492h-40v492h40zM83 573l-115 162l41 15l113 -177h-39z" />
    <glyph glyph-name="iacute" unicode="&#xed;" horiz-adv-x="204" 
d="M122 492v-492h-40v492h40zM81 573l113 177l41 -15l-115 -162h-39z" />
    <glyph glyph-name="icircumflex" unicode="&#xee;" horiz-adv-x="204" 
d="M122 492v-492h-40v492h40zM243 573h-40l-101 136l-101 -136h-40l124 167h34z" />
    <glyph glyph-name="idieresis" unicode="&#xef;" horiz-adv-x="204" 
d="M122 492v-492h-40v492h40zM26 570q-14 0 -22.5 7.5t-8.5 21.5q0 13 8.5 21.5t22.5 8.5q13 0 21 -8.5t8 -21.5q0 -14 -8 -21.5t-21 -7.5zM180 570q-14 0 -22.5 7.5t-8.5 21.5q0 13 8.5 21.5t22.5 8.5q13 0 21 -8.5t8 -21.5q0 -29 -29 -29z" />
    <glyph glyph-name="eth" unicode="&#xf0;" horiz-adv-x="530" 
d="M259 -7q-90 0 -144.5 59t-54.5 163q0 74 28.5 130.5t77 89t109.5 32.5q51 0 91.5 -25t60.5 -68q-7 78 -34.5 140.5t-76.5 109.5l-164 -81l-15 29l153 76q-53 42 -127 70l14 32q88 -35 148 -85l108 54l14 -30l-97 -48q64 -63 93.5 -154t29.5 -217q0 -85 -27 -147.5
t-75 -96t-112 -33.5zM263 31q48 0 86 26.5t60 74t22 110.5q0 90 -41 138.5t-113 48.5q-49 0 -88.5 -26t-63 -74t-23.5 -114q0 -84 39.5 -134t121.5 -50z" />
    <glyph glyph-name="ntilde" unicode="&#xf1;" horiz-adv-x="550" 
d="M82 0v492h40l-5 -215q24 116 78 170.5t129 54.5q72 0 111 -49t38 -144l-2 -309h-40l2 301q0 82 -28 122.5t-89 40.5q-56 0 -100.5 -44t-70 -145.5t-24.5 -274.5h-39zM359 570q-19 0 -41 10t-45.5 23t-44.5 23t-38 10q-22 0 -36 -18t-20 -48l-24 13q7 39 28 62t53 23
q19 0 41 -10t45 -23t44.5 -23t38.5 -10q22 0 36 18.5t20 47.5l24 -13q-7 -40 -28 -62.5t-53 -22.5z" />
    <glyph glyph-name="ograve" unicode="&#xf2;" horiz-adv-x="556" 
d="M286 502q96 0 152 -66t56 -180q0 -75 -28 -134.5t-77.5 -94t-113.5 -34.5q-100 0 -157 66t-57 180q0 75 28 134.5t78.5 94t118.5 34.5zM275 31q53 0 92.5 28.5t62 79.5t22.5 117q0 100 -44 154t-121 54q-55 0 -96.5 -29t-64 -79.5t-22.5 -116.5q0 -100 45 -154t126 -54z
M259 573l-115 162l41 15l113 -177h-39z" />
    <glyph glyph-name="oacute" unicode="&#xf3;" horiz-adv-x="556" 
d="M286 502q96 0 152 -66t56 -180q0 -75 -28 -134.5t-77.5 -94t-113.5 -34.5q-100 0 -157 66t-57 180q0 75 28 134.5t78.5 94t118.5 34.5zM275 31q53 0 92.5 28.5t62 79.5t22.5 117q0 100 -44 154t-121 54q-55 0 -96.5 -29t-64 -79.5t-22.5 -116.5q0 -100 45 -154t126 -54z
M257 573l113 177l41 -15l-115 -162h-39z" />
    <glyph glyph-name="ocircumflex" unicode="&#xf4;" horiz-adv-x="556" 
d="M286 502q96 0 152 -66t56 -180q0 -75 -28 -134.5t-77.5 -94t-113.5 -34.5q-100 0 -157 66t-57 180q0 75 28 134.5t78.5 94t118.5 34.5zM275 31q53 0 92.5 28.5t62 79.5t22.5 117q0 100 -44 154t-121 54q-55 0 -96.5 -29t-64 -79.5t-22.5 -116.5q0 -100 45 -154t126 -54z
M419 573h-40l-101 136l-101 -136h-40l124 167h34z" />
    <glyph glyph-name="otilde" unicode="&#xf5;" horiz-adv-x="556" 
d="M286 502q96 0 152 -66t56 -180q0 -75 -28 -134.5t-77.5 -94t-113.5 -34.5q-100 0 -157 66t-57 180q0 75 28 134.5t78.5 94t118.5 34.5zM275 31q53 0 92.5 28.5t62 79.5t22.5 117q0 100 -44 154t-121 54q-55 0 -96.5 -29t-64 -79.5t-22.5 -116.5q0 -100 45 -154t126 -54z
M362 570q-19 0 -41 10t-45.5 23t-44.5 23t-38 10q-22 0 -36 -18t-20 -48l-24 13q7 39 28 62t53 23q19 0 41 -10t45 -23t44.5 -23t38.5 -10q22 0 36 18.5t20 47.5l24 -13q-7 -40 -28 -62.5t-53 -22.5z" />
    <glyph glyph-name="odieresis" unicode="&#xf6;" horiz-adv-x="556" 
d="M286 502q96 0 152 -66t56 -180q0 -75 -28 -134.5t-77.5 -94t-113.5 -34.5q-100 0 -157 66t-57 180q0 75 28 134.5t78.5 94t118.5 34.5zM275 31q53 0 92.5 28.5t62 79.5t22.5 117q0 100 -44 154t-121 54q-55 0 -96.5 -29t-64 -79.5t-22.5 -116.5q0 -100 45 -154t126 -54z
M202 570q-14 0 -22.5 7.5t-8.5 21.5q0 13 8.5 21.5t22.5 8.5q13 0 21 -8.5t8 -21.5q0 -14 -8 -21.5t-21 -7.5zM356 570q-14 0 -22.5 7.5t-8.5 21.5q0 13 8.5 21.5t22.5 8.5q13 0 21 -8.5t8 -21.5q0 -29 -29 -29z" />
    <glyph glyph-name="divide" unicode="&#xf7;" horiz-adv-x="600" 
d="M300 452q-14 0 -20 7.5t-6 18.5q0 9 6 16.5t20 7.5q15 0 21 -7.5t6 -16.5q0 -11 -6 -18.5t-21 -7.5zM540 266v-38h-480v38h480zM300 -7q-14 0 -20 7.5t-6 17.5t6 17.5t20 7.5q15 0 21 -7.5t6 -17.5t-6 -17.5t-21 -7.5z" />
    <glyph glyph-name="oslash" unicode="&#xf8;" horiz-adv-x="556" 
d="M286 502q96 0 152 -66t56 -180q0 -75 -28 -134.5t-77.5 -94t-113.5 -34.5q-100 0 -157 66t-57 180q0 75 28 134.5t78.5 94t118.5 34.5zM275 31q53 0 92.5 28.5t62 79.5t22.5 117q0 100 -44 154t-121 54q-55 0 -96.5 -29t-64 -79.5t-22.5 -116.5q0 -100 45 -154t126 -54z
M113 -30l-29 18l46 68l12 17l244 362l12 20l46 68l29 -19l-46 -68l-12 -16l-244 -362l-12 -20z" />
    <glyph glyph-name="ugrave" unicode="&#xf9;" horiz-adv-x="541" 
d="M224 -7q-70 0 -108.5 47t-38.5 136l4 316h40l-3 -308q-1 -76 26 -114.5t87 -38.5q56 0 99 44t67.5 145t23.5 272h38v-492h-40l5 209q-26 -115 -78.5 -165.5t-121.5 -50.5zM252 573l-115 162l41 15l113 -177h-39z" />
    <glyph glyph-name="uacute" unicode="&#xfa;" horiz-adv-x="541" 
d="M224 -7q-70 0 -108.5 47t-38.5 136l4 316h40l-3 -308q-1 -76 26 -114.5t87 -38.5q56 0 99 44t67.5 145t23.5 272h38v-492h-40l5 209q-26 -115 -78.5 -165.5t-121.5 -50.5zM250 573l113 177l41 -15l-115 -162h-39z" />
    <glyph glyph-name="ucircumflex" unicode="&#xfb;" horiz-adv-x="541" 
d="M224 -7q-70 0 -108.5 47t-38.5 136l4 316h40l-3 -308q-1 -76 26 -114.5t87 -38.5q56 0 99 44t67.5 145t23.5 272h38v-492h-40l5 209q-26 -115 -78.5 -165.5t-121.5 -50.5zM412 573h-40l-101 136l-101 -136h-40l124 167h34z" />
    <glyph glyph-name="udieresis" unicode="&#xfc;" horiz-adv-x="541" 
d="M224 -7q-70 0 -108.5 47t-38.5 136l4 316h40l-3 -308q-1 -76 26 -114.5t87 -38.5q56 0 99 44t67.5 145t23.5 272h38v-492h-40l5 209q-26 -115 -78.5 -165.5t-121.5 -50.5zM195 570q-14 0 -22.5 7.5t-8.5 21.5q0 13 8.5 21.5t22.5 8.5q13 0 21 -8.5t8 -21.5
q0 -14 -8 -21.5t-21 -7.5zM349 570q-14 0 -22.5 7.5t-8.5 21.5q0 13 8.5 21.5t22.5 8.5q13 0 21 -8.5t8 -21.5q0 -29 -29 -29z" />
    <glyph glyph-name="yacute" unicode="&#xfd;" horiz-adv-x="547" 
d="M239 -210q-41 0 -82 8.5t-69 24.5l14 38q27 -15 65 -24t75 -9q98 0 141 51t44 167l2 168q-25 -115 -78.5 -165.5t-127.5 -50.5q-69 0 -107.5 47t-38.5 136l4 311h40l-3 -303q-1 -75 26 -114t87 -39q59 0 103 44t68.5 144t24.5 268h38v-439q0 -139 -55.5 -201t-170.5 -62z
M254 573l113 177l41 -15l-115 -162h-39z" />
    <glyph glyph-name="thorn" unicode="&#xfe;" horiz-adv-x="559" 
d="M82 -200v940h40v-247l-1 -141q25 68 75.5 109t115.5 41q89 0 137.5 -64t48.5 -166q0 -83 -28 -145.5t-78.5 -98t-120.5 -35.5q-50 0 -91 25t-59 70l1 -88v-200h-40zM271 31q55 0 96.5 29t64.5 82.5t23 124.5q0 92 -39 144.5t-108 52.5q-54 0 -96.5 -33.5t-66.5 -92
t-24 -131.5q0 -82 40 -129t110 -47z" />
    <glyph glyph-name="ydieresis" unicode="&#xff;" horiz-adv-x="547" 
d="M239 -210q-41 0 -82 8.5t-69 24.5l14 38q27 -15 65 -24t75 -9q98 0 141 51t44 167l2 168q-25 -115 -78.5 -165.5t-127.5 -50.5q-69 0 -107.5 47t-38.5 136l4 311h40l-3 -303q-1 -75 26 -114t87 -39q59 0 103 44t68.5 144t24.5 268h38v-439q0 -139 -55.5 -201t-170.5 -62z
M199 570q-14 0 -22.5 7.5t-8.5 21.5q0 13 8.5 21.5t22.5 8.5q13 0 21 -8.5t8 -21.5q0 -14 -8 -21.5t-21 -7.5zM353 570q-14 0 -22.5 7.5t-8.5 21.5q0 13 8.5 21.5t22.5 8.5q13 0 21 -8.5t8 -21.5q0 -29 -29 -29z" />
    <glyph glyph-name="Amacron" unicode="&#x100;" horiz-adv-x="664" 
d="M27 0l290 710h38l278 -710h-43l-81 208h-355l-84 -208h-43zM169 244h327l-160 415zM189 851h287v-30h-287v30z" />
    <glyph glyph-name="amacron" unicode="&#x101;" horiz-adv-x="559" 
d="M477 493v-493h-40l4 149q-24 -70 -76 -113t-118 -43q-88 0 -137 64t-49 166q0 83 28 145.5t79 98t120 35.5q52 0 92 -25.5t56 -64.5l9 81h32zM289 464q-56 0 -97.5 -29t-64.5 -82t-23 -125q0 -92 39 -144.5t108 -52.5q55 0 97 33.5t66 92t24 132.5q0 82 -40 128.5
t-109 46.5zM161 634h287v-31h-287v31z" />
    <glyph glyph-name="Abreve" unicode="&#x102;" horiz-adv-x="664" 
d="M27 0l290 710h38l278 -710h-43l-81 208h-355l-84 -208h-43zM169 244h327l-160 415zM450 967l33 -9q-8 -80 -48 -126t-103 -46t-103 46t-48 126l33 9q16 -148 118 -148t118 148z" />
    <glyph glyph-name="abreve" unicode="&#x103;" horiz-adv-x="559" 
d="M477 493v-493h-40l4 149q-24 -70 -76 -113t-118 -43q-88 0 -137 64t-49 166q0 83 28 145.5t79 98t120 35.5q52 0 92 -25.5t56 -64.5l9 81h32zM289 464q-56 0 -97.5 -29t-64.5 -82t-23 -125q0 -92 39 -144.5t108 -52.5q55 0 97 33.5t66 92t24 132.5q0 82 -40 128.5
t-109 46.5zM422 749l33 -9q-8 -79 -48 -125.5t-103 -46.5t-103 46.5t-48 125.5l33 9q16 -147 118 -147t118 147z" />
    <glyph glyph-name="Aogonek" unicode="&#x104;" horiz-adv-x="664" 
d="M27 0l290 710h38l278 -710h-43l-81 208h-355l-84 -208h-43zM169 244h327l-160 415zM577 -223q-46 0 -70 25.5t-24 63.5q0 43 34 85t87 64l29 -15q-49 -23 -80.5 -58t-31.5 -73q0 -27 14.5 -43.5t42.5 -16.5q39 0 67 41l20 -23q-13 -22 -37.5 -36t-50.5 -14z" />
    <glyph glyph-name="aogonek" unicode="&#x105;" horiz-adv-x="559" 
d="M477 493v-493h-40l4 149q-24 -70 -76 -113t-118 -43q-88 0 -137 64t-49 166q0 83 28 145.5t79 98t120 35.5q52 0 92 -25.5t56 -64.5l9 81h32zM289 464q-56 0 -97.5 -29t-64.5 -82t-23 -125q0 -92 39 -144.5t108 -52.5q55 0 97 33.5t66 92t24 132.5q0 82 -40 128.5
t-109 46.5zM422 -223q-46 0 -70 25.5t-24 63.5q0 43 34 85t87 64l29 -15q-49 -23 -80.5 -58t-31.5 -73q0 -27 14.5 -43.5t42.5 -16.5q39 0 67 41l20 -23q-13 -22 -37.5 -36t-50.5 -14z" />
    <glyph glyph-name="Cacute" unicode="&#x106;" horiz-adv-x="635" 
d="M627 134q-37 -68 -102 -104.5t-151 -36.5q-94 0 -163 42t-106 120.5t-37 187.5q0 111 41 196t114 133t169 48q78 0 139.5 -33t96.5 -97l-33 -27q-33 58 -82.5 87t-123.5 29q-81 0 -144 -42.5t-98.5 -119t-35.5 -176.5q0 -145 69 -226.5t193 -81.5q79 0 133.5 32.5
t86.5 93.5zM362 791l113 177l41 -16l-115 -161h-39z" />
    <glyph glyph-name="cacute" unicode="&#x107;" horiz-adv-x="483" 
d="M281 -7q-103 0 -161.5 65t-58.5 180q0 76 28.5 136t80 94t120.5 34q63 0 105 -27t64 -67l-31 -24q-22 39 -56.5 59.5t-82.5 20.5q-56 0 -97.5 -29t-64.5 -80t-23 -117q0 -101 46.5 -154t132.5 -53q46 0 83.5 18t62.5 61l30 -23q-25 -45 -70 -69.5t-108 -24.5zM267 573
l113 177l41 -15l-115 -162h-39z" />
    <glyph glyph-name="Ccircumflex" unicode="&#x108;" horiz-adv-x="635" 
d="M627 134q-37 -68 -102 -104.5t-151 -36.5q-94 0 -163 42t-106 120.5t-37 187.5q0 111 41 196t114 133t169 48q78 0 139.5 -33t96.5 -97l-33 -27q-33 58 -82.5 87t-123.5 29q-81 0 -144 -42.5t-98.5 -119t-35.5 -176.5q0 -145 69 -226.5t193 -81.5q79 0 133.5 32.5
t86.5 93.5zM524 791h-40l-101 136l-101 -136h-40l124 167h34z" />
    <glyph glyph-name="ccircumflex" unicode="&#x109;" horiz-adv-x="483" 
d="M281 -7q-103 0 -161.5 65t-58.5 180q0 76 28.5 136t80 94t120.5 34q63 0 105 -27t64 -67l-31 -24q-22 39 -56.5 59.5t-82.5 20.5q-56 0 -97.5 -29t-64.5 -80t-23 -117q0 -101 46.5 -154t132.5 -53q46 0 83.5 18t62.5 61l30 -23q-25 -45 -70 -69.5t-108 -24.5zM429 573
h-40l-101 136l-101 -136h-40l124 167h34z" />
    <glyph glyph-name="Cdotaccent" unicode="&#x10a;" horiz-adv-x="635" 
d="M627 134q-37 -68 -102 -104.5t-151 -36.5q-94 0 -163 42t-106 120.5t-37 187.5q0 111 41 196t114 133t169 48q78 0 139.5 -33t96.5 -97l-33 -27q-33 58 -82.5 87t-123.5 29q-81 0 -144 -42.5t-98.5 -119t-35.5 -176.5q0 -145 69 -226.5t193 -81.5q79 0 133.5 32.5
t86.5 93.5zM383 813q-15 0 -23.5 9.5t-8.5 21.5q0 13 9.5 22.5t22.5 9.5q15 0 23.5 -9.5t8.5 -22.5q0 -12 -8.5 -21.5t-23.5 -9.5z" />
    <glyph glyph-name="cdotaccent" unicode="&#x10b;" horiz-adv-x="483" 
d="M281 -7q-103 0 -161.5 65t-58.5 180q0 76 28.5 136t80 94t120.5 34q63 0 105 -27t64 -67l-31 -24q-22 39 -56.5 59.5t-82.5 20.5q-56 0 -97.5 -29t-64.5 -80t-23 -117q0 -101 46.5 -154t132.5 -53q46 0 83.5 18t62.5 61l30 -23q-25 -45 -70 -69.5t-108 -24.5zM288 595
q-15 0 -23.5 9.5t-8.5 22.5q0 12 9.5 22t22.5 10q15 0 23.5 -10t8.5 -22q0 -13 -8.5 -22.5t-23.5 -9.5z" />
    <glyph glyph-name="Ccaron" unicode="&#x10c;" horiz-adv-x="635" 
d="M627 134q-37 -68 -102 -104.5t-151 -36.5q-94 0 -163 42t-106 120.5t-37 187.5q0 111 41 196t114 133t169 48q78 0 139.5 -33t96.5 -97l-33 -27q-33 58 -82.5 87t-123.5 29q-81 0 -144 -42.5t-98.5 -119t-35.5 -176.5q0 -145 69 -226.5t193 -81.5q79 0 133.5 32.5
t86.5 93.5zM366 791l-124 167l33 10l108 -146l108 146l33 -10l-124 -167h-34z" />
    <glyph glyph-name="ccaron" unicode="&#x10d;" horiz-adv-x="483" 
d="M281 -7q-103 0 -161.5 65t-58.5 180q0 76 28.5 136t80 94t120.5 34q63 0 105 -27t64 -67l-31 -24q-22 39 -56.5 59.5t-82.5 20.5q-56 0 -97.5 -29t-64.5 -80t-23 -117q0 -101 46.5 -154t132.5 -53q46 0 83.5 18t62.5 61l30 -23q-25 -45 -70 -69.5t-108 -24.5zM271 573
l-124 167l33 10l108 -146l108 146l33 -10l-124 -167h-34z" />
    <glyph glyph-name="Dcaron" unicode="&#x10e;" horiz-adv-x="723" 
d="M88 0v710h159q408 0 408 -352q0 -171 -99.5 -264.5t-286.5 -93.5h-181zM130 37h135q347 0 347 320q0 159 -88 237.5t-270 78.5h-124v-636zM341 791l-124 167l33 10l108 -146l108 146l33 -10l-124 -167h-34z" />
    <glyph glyph-name="dcaron" unicode="&#x10f;" horiz-adv-x="559" 
d="M477 740v-740h-40l4 149q-24 -70 -76 -113t-118 -43q-88 0 -137 64t-49 166q0 83 28 145.5t79 98t120 35.5q47 0 88.5 -23t61.5 -71l-1 84v248h40zM289 464q-56 0 -97.5 -29t-64.5 -82t-23 -125q0 -92 39 -144.5t108 -52.5q55 0 97 33.5t66 92t24 132.5q0 82 -40 128.5
t-109 46.5zM536 547v233h39l-12 -233h-27z" />
    <glyph glyph-name="Dcroat" unicode="&#x110;" horiz-adv-x="723" 
d="M88 0v710h159q408 0 408 -352q0 -171 -99.5 -264.5t-286.5 -93.5h-181zM130 37h135q347 0 347 320q0 159 -88 237.5t-270 78.5h-124v-636zM3 343v34h354v-34h-354z" />
    <glyph glyph-name="dcroat" unicode="&#x111;" horiz-adv-x="559" 
d="M477 740v-740h-40l4 149q-24 -70 -76 -113t-118 -43q-88 0 -137 64t-49 166q0 83 28 145.5t79 98t120 35.5q47 0 88.5 -23t61.5 -71l-1 84v248h40zM289 464q-56 0 -97.5 -29t-64.5 -82t-23 -125q0 -92 39 -144.5t108 -52.5q55 0 97 33.5t66 92t24 132.5q0 82 -40 128.5
t-109 46.5zM249 607v30h320v-30h-320z" />
    <glyph glyph-name="Emacron" unicode="&#x112;" horiz-adv-x="526" 
d="M469 674h-340v-295h335v-35h-335v-308h356l-5 -36h-392v710h381v-36zM134 851h287v-30h-287v30z" />
    <glyph glyph-name="emacron" unicode="&#x113;" horiz-adv-x="530" 
d="M293 -7q-109 0 -170.5 65.5t-61.5 181.5q0 76 29.5 135.5t81 93t116.5 33.5q62 0 108 -28.5t68.5 -88.5t12.5 -154h-373q1 -99 50.5 -149.5t140.5 -50.5q48 0 88 18t67 61l29 -23q-28 -45 -74.5 -69.5t-111.5 -24.5zM289 467q-52 0 -92.5 -26.5t-65 -72t-27.5 -101.5h338
q3 71 -16 115t-55 64.5t-82 20.5zM145 634h287v-31h-287v31z" />
    <glyph glyph-name="Ebreve" unicode="&#x114;" horiz-adv-x="526" 
d="M469 674h-340v-295h335v-35h-335v-308h356l-5 -36h-392v710h381v-36zM396 967l33 -9q-8 -80 -48 -126t-103 -46t-103 46t-48 126l33 9q16 -148 118 -148t118 148z" />
    <glyph glyph-name="ebreve" unicode="&#x115;" horiz-adv-x="530" 
d="M293 -7q-109 0 -170.5 65.5t-61.5 181.5q0 76 29.5 135.5t81 93t116.5 33.5q62 0 108 -28.5t68.5 -88.5t12.5 -154h-373q1 -99 50.5 -149.5t140.5 -50.5q48 0 88 18t67 61l29 -23q-28 -45 -74.5 -69.5t-111.5 -24.5zM289 467q-52 0 -92.5 -26.5t-65 -72t-27.5 -101.5h338
q3 71 -16 115t-55 64.5t-82 20.5zM406 749l33 -9q-8 -79 -48 -125.5t-103 -46.5t-103 46.5t-48 125.5l33 9q16 -147 118 -147t118 147z" />
    <glyph glyph-name="Edotaccent" unicode="&#x116;" horiz-adv-x="526" 
d="M469 674h-340v-295h335v-35h-335v-308h356l-5 -36h-392v710h381v-36zM278 813q-15 0 -23.5 9.5t-8.5 21.5q0 13 9.5 22.5t22.5 9.5q15 0 23.5 -9.5t8.5 -22.5q0 -12 -8.5 -21.5t-23.5 -9.5z" />
    <glyph glyph-name="edotaccent" unicode="&#x117;" horiz-adv-x="530" 
d="M293 -7q-109 0 -170.5 65.5t-61.5 181.5q0 76 29.5 135.5t81 93t116.5 33.5q62 0 108 -28.5t68.5 -88.5t12.5 -154h-373q1 -99 50.5 -149.5t140.5 -50.5q48 0 88 18t67 61l29 -23q-28 -45 -74.5 -69.5t-111.5 -24.5zM289 467q-52 0 -92.5 -26.5t-65 -72t-27.5 -101.5h338
q3 71 -16 115t-55 64.5t-82 20.5zM288 595q-15 0 -23.5 9.5t-8.5 22.5q0 12 9.5 22t22.5 10q15 0 23.5 -10t8.5 -22q0 -13 -8.5 -22.5t-23.5 -9.5z" />
    <glyph glyph-name="Eogonek" unicode="&#x118;" horiz-adv-x="526" 
d="M469 674h-340v-295h335v-35h-335v-308h356l-5 -36h-392v710h381v-36zM424 -223q-46 0 -70 25.5t-24 63.5q0 43 34 85t87 64l29 -15q-49 -23 -80.5 -58t-31.5 -73q0 -27 14.5 -43.5t42.5 -16.5q39 0 67 41l20 -23q-13 -22 -37.5 -36t-50.5 -14z" />
    <glyph glyph-name="eogonek" unicode="&#x119;" horiz-adv-x="530" 
d="M337 -223q-45 0 -69 24.5t-24 64.5q0 36 23 69t64 61q-19 -3 -38 -3q-109 0 -170.5 65.5t-61.5 181.5q0 76 30 135t81.5 93t115.5 34q62 0 108 -28.5t68.5 -88.5t12.5 -154h-373q1 -99 50.5 -149.5t140.5 -50.5q48 0 88 18t67 61l29 -23q-12 -20 -30 -36.5t-43 -33.5
q-64 -41 -94.5 -76t-30.5 -72q0 -27 15 -43.5t44 -16.5q17 0 34 8.5t34 31.5l18 -22q-14 -24 -38 -37t-51 -13zM289 467q-55 0 -95.5 -26.5t-63.5 -72t-26 -101.5h338q3 71 -16 115t-55 64.5t-82 20.5z" />
    <glyph glyph-name="Ecaron" unicode="&#x11a;" horiz-adv-x="526" 
d="M469 674h-340v-295h335v-35h-335v-308h356l-5 -36h-392v710h381v-36zM261 791l-124 167l33 10l108 -146l108 146l33 -10l-124 -167h-34z" />
    <glyph glyph-name="ecaron" unicode="&#x11b;" horiz-adv-x="530" 
d="M293 -7q-109 0 -170.5 65.5t-61.5 181.5q0 76 29.5 135.5t81 93t116.5 33.5q62 0 108 -28.5t68.5 -88.5t12.5 -154h-373q1 -99 50.5 -149.5t140.5 -50.5q48 0 88 18t67 61l29 -23q-28 -45 -74.5 -69.5t-111.5 -24.5zM289 467q-52 0 -92.5 -26.5t-65 -72t-27.5 -101.5h338
q3 71 -16 115t-55 64.5t-82 20.5zM271 573l-124 167l33 10l108 -146l108 146l33 -10l-124 -167h-34z" />
    <glyph glyph-name="Gcircumflex" unicode="&#x11c;" horiz-adv-x="711" 
d="M417 327h224v-327h-30l-8 113q-34 -60 -89.5 -90t-137.5 -30q-95 0 -164 41.5t-106.5 119.5t-37.5 189t41.5 196t116 133t174.5 48q78 0 139 -33.5t96 -97.5l-33 -26q-31 57 -81 86.5t-127 29.5q-84 0 -147.5 -42.5t-99.5 -119t-36 -176.5q0 -149 69.5 -228.5
t197.5 -79.5q110 0 167 57.5t57 153.5v48h-185v35zM524 791h-40l-101 136l-101 -136h-40l124 167h34z" />
    <glyph glyph-name="gcircumflex" unicode="&#x11d;" horiz-adv-x="563" 
d="M255 -210q-42 0 -83.5 9t-71.5 27l14 38q31 -19 69.5 -27.5t72.5 -8.5q99 0 142.5 51.5t43.5 166.5l1 101q-26 -67 -77.5 -108t-116.5 -41q-90 0 -139 63t-49 165q0 81 28.5 143.5t79.5 97.5t121 35q53 0 93.5 -25.5t56.5 -64.5l9 81h32v-442q0 -136 -54.5 -198.5
t-171.5 -62.5zM291 464q-56 0 -98.5 -29t-65.5 -81.5t-23 -122.5q0 -91 39.5 -143t109.5 -52q55 0 97.5 33.5t67 91.5t24.5 130q0 81 -40.5 127t-110.5 46zM445 573h-40l-101 136l-101 -136h-40l124 167h34z" />
    <glyph glyph-name="Gbreve" unicode="&#x11e;" horiz-adv-x="711" 
d="M417 327h224v-327h-30l-8 113q-34 -60 -89.5 -90t-137.5 -30q-95 0 -164 41.5t-106.5 119.5t-37.5 189t41.5 196t116 133t174.5 48q78 0 139 -33.5t96 -97.5l-33 -26q-31 57 -81 86.5t-127 29.5q-84 0 -147.5 -42.5t-99.5 -119t-36 -176.5q0 -149 69.5 -228.5
t197.5 -79.5q110 0 167 57.5t57 153.5v48h-185v35zM501 967l33 -9q-8 -80 -48 -126t-103 -46t-103 46t-48 126l33 9q16 -148 118 -148t118 148z" />
    <glyph glyph-name="gbreve" unicode="&#x11f;" horiz-adv-x="563" 
d="M255 -210q-42 0 -83.5 9t-71.5 27l14 38q31 -19 69.5 -27.5t72.5 -8.5q99 0 142.5 51.5t43.5 166.5l1 101q-26 -67 -77.5 -108t-116.5 -41q-90 0 -139 63t-49 165q0 81 28.5 143.5t79.5 97.5t121 35q53 0 93.5 -25.5t56.5 -64.5l9 81h32v-442q0 -136 -54.5 -198.5
t-171.5 -62.5zM291 464q-56 0 -98.5 -29t-65.5 -81.5t-23 -122.5q0 -91 39.5 -143t109.5 -52q55 0 97.5 33.5t67 91.5t24.5 130q0 81 -40.5 127t-110.5 46zM422 749l33 -9q-8 -79 -48 -125.5t-103 -46.5t-103 46.5t-48 125.5l33 9q16 -147 118 -147t118 147z" />
    <glyph glyph-name="Gdotaccent" unicode="&#x120;" horiz-adv-x="711" 
d="M417 327h224v-327h-30l-8 113q-34 -60 -89.5 -90t-137.5 -30q-95 0 -164 41.5t-106.5 119.5t-37.5 189t41.5 196t116 133t174.5 48q78 0 139 -33.5t96 -97.5l-33 -26q-31 57 -81 86.5t-127 29.5q-84 0 -147.5 -42.5t-99.5 -119t-36 -176.5q0 -149 69.5 -228.5
t197.5 -79.5q110 0 167 57.5t57 153.5v48h-185v35zM383 813q-15 0 -23.5 9.5t-8.5 21.5q0 13 9.5 22.5t22.5 9.5q15 0 23.5 -9.5t8.5 -22.5q0 -12 -8.5 -21.5t-23.5 -9.5z" />
    <glyph glyph-name="gdotaccent" unicode="&#x121;" horiz-adv-x="563" 
d="M255 -210q-42 0 -83.5 9t-71.5 27l14 38q31 -19 69.5 -27.5t72.5 -8.5q99 0 142.5 51.5t43.5 166.5l1 101q-26 -67 -77.5 -108t-116.5 -41q-90 0 -139 63t-49 165q0 81 28.5 143.5t79.5 97.5t121 35q53 0 93.5 -25.5t56.5 -64.5l9 81h32v-442q0 -136 -54.5 -198.5
t-171.5 -62.5zM291 464q-56 0 -98.5 -29t-65.5 -81.5t-23 -122.5q0 -91 39.5 -143t109.5 -52q55 0 97.5 33.5t67 91.5t24.5 130q0 81 -40.5 127t-110.5 46zM304 595q-15 0 -23.5 9.5t-8.5 22.5q0 12 9.5 22t22.5 10q15 0 23.5 -10t8.5 -22q0 -13 -8.5 -22.5t-23.5 -9.5z" />
    <glyph glyph-name="uni0122" unicode="&#x122;" horiz-adv-x="711" 
d="M417 327h224v-327h-30l-8 113q-34 -60 -89.5 -90t-137.5 -30q-95 0 -164 41.5t-106.5 119.5t-37.5 189t41.5 196t116 133t174.5 48q78 0 139 -33.5t96 -97.5l-33 -26q-31 57 -81 86.5t-127 29.5q-84 0 -147.5 -42.5t-99.5 -119t-36 -176.5q0 -149 69.5 -228.5
t197.5 -79.5q110 0 167 57.5t57 153.5v48h-185v35zM344 -281q9 16 15 33t6 32q0 23 -7 38.5t-7 34.5q0 18 9 30t23 12q31 0 31 -48q0 -25 -9.5 -62t-33.5 -70h-27z" />
    <glyph glyph-name="uni0123" unicode="&#x123;" horiz-adv-x="563" 
d="M255 -210q-42 0 -83.5 9t-71.5 27l14 38q31 -19 69.5 -27.5t72.5 -8.5q99 0 142.5 51.5t43.5 166.5l1 101q-26 -67 -77.5 -108t-116.5 -41q-90 0 -139 63t-49 165q0 81 28.5 143.5t79.5 97.5t121 35q53 0 93.5 -25.5t56.5 -64.5l9 81h32v-442q0 -136 -54.5 -198.5
t-171.5 -62.5zM291 464q-56 0 -98.5 -29t-65.5 -81.5t-23 -122.5q0 -91 39.5 -143t109.5 -52q55 0 97.5 33.5t67 91.5t24.5 130q0 81 -40.5 127t-110.5 46zM344 750q-21 -38 -21 -67q0 -23 6.5 -38t6.5 -34q0 -42 -30 -42q-34 0 -34 48q0 25 10 62t34 71h28z" />
    <glyph glyph-name="Hcircumflex" unicode="&#x124;" horiz-adv-x="701" 
d="M88 0v710h42v-330h441v330h42v-710h-42v343h-441v-343h-42zM492 791h-40l-101 136l-101 -136h-40l124 167h34z" />
    <glyph glyph-name="hcircumflex" unicode="&#x125;" horiz-adv-x="550" 
d="M82 0v740h40v-248l-5 -215q24 116 78 170.5t129 54.5q72 0 111 -49t38 -144l-2 -309h-40l2 301q0 82 -28 122.5t-89 40.5q-56 0 -100.5 -44t-70 -145.5t-24.5 -274.5h-39zM417 791h-40l-101 136l-101 -136h-40l124 167h34z" />
    <glyph glyph-name="Hbar" unicode="&#x126;" horiz-adv-x="701" 
d="M88 0v710h42v-330h441v330h42v-710h-42v343h-441v-343h-42zM2 553v34h697v-34h-697z" />
    <glyph glyph-name="hbar" unicode="&#x127;" horiz-adv-x="550" 
d="M82 0v740h40v-248l-5 -215q24 116 78 170.5t129 54.5q72 0 111 -49t38 -144l-2 -309h-40l2 301q0 82 -28 122.5t-89 40.5q-56 0 -100.5 -44t-70 -145.5t-24.5 -274.5h-39zM-9 607v30h320v-30h-320z" />
    <glyph glyph-name="Itilde" unicode="&#x128;" horiz-adv-x="218" 
d="M88 0v710h42v-710h-42zM194 788q-19 0 -41 10t-45.5 22.5t-44.5 22.5t-38 10q-22 0 -36 -18t-20 -47l-24 12q7 40 28 63t53 23q19 0 41 -10t45 -23t44.5 -23t38.5 -10q22 0 36 18t20 48l24 -13q-7 -40 -28 -62.5t-53 -22.5z" />
    <glyph glyph-name="itilde" unicode="&#x129;" horiz-adv-x="204" 
d="M122 492v-492h-40v492h40zM186 570q-19 0 -41 10t-45.5 23t-44.5 23t-38 10q-22 0 -36 -18t-20 -48l-24 13q7 39 28 62t53 23q19 0 41 -10t45 -23t44.5 -23t38.5 -10q22 0 36 18.5t20 47.5l24 -13q-7 -40 -28 -62.5t-53 -22.5z" />
    <glyph glyph-name="Imacron" unicode="&#x12a;" horiz-adv-x="218" 
d="M88 0v710h42v-710h-42zM-34 851h287v-30h-287v30z" />
    <glyph glyph-name="imacron" unicode="&#x12b;" horiz-adv-x="204" 
d="M122 492v-492h-40v492h40zM-42 634h287v-31h-287v31z" />
    <glyph glyph-name="Ibreve" unicode="&#x12c;" horiz-adv-x="218" 
d="M88 0v710h42v-710h-42zM228 967l33 -9q-8 -80 -48 -126t-103 -46t-103 46t-48 126l33 9q16 -148 118 -148t118 148z" />
    <glyph glyph-name="ibreve" unicode="&#x12d;" horiz-adv-x="204" 
d="M122 492v-492h-40v492h40zM220 749l33 -9q-8 -79 -48 -125.5t-103 -46.5t-103 46.5t-48 125.5l33 9q16 -147 118 -147t118 147z" />
    <glyph glyph-name="Iogonek" unicode="&#x12e;" horiz-adv-x="218" 
d="M88 0v710h42v-710h-42zM115 -223q-40 0 -62.5 24.5t-22.5 64.5t21.5 81.5t55.5 68.5l24 -16q-30 -25 -47 -61t-17 -70q0 -29 13.5 -45t36.5 -16q34 0 55 41l21 -21q-11 -23 -32.5 -37t-45.5 -14z" />
    <glyph glyph-name="iogonek" unicode="&#x12f;" horiz-adv-x="204" 
d="M122 492v-492h-40v492h40zM102 628q-14 0 -22.5 10t-8.5 22t9 22t22 10q15 0 23.5 -10t8.5 -22t-8.5 -22t-23.5 -10zM106 -223q-40 0 -62.5 24.5t-22.5 64.5t21.5 81.5t55.5 68.5l24 -16q-30 -25 -47 -61t-17 -70q0 -29 13.5 -45t36.5 -16q34 0 55 41l21 -21
q-11 -23 -32.5 -37t-45.5 -14z" />
    <glyph glyph-name="Idotaccent" unicode="&#x130;" horiz-adv-x="218" 
d="M88 0v710h42v-710h-42zM110 813q-15 0 -23.5 9.5t-8.5 21.5q0 13 9.5 22.5t22.5 9.5q15 0 23.5 -9.5t8.5 -22.5q0 -12 -8.5 -21.5t-23.5 -9.5z" />
    <glyph glyph-name="dotlessi" unicode="&#x131;" horiz-adv-x="204" 
d="M122 492v-492h-40v492h40z" />
    <glyph glyph-name="Jcircumflex" unicode="&#x134;" horiz-adv-x="426" 
d="M168 -7q-75 0 -121 35t-60 92l36 15q16 -55 52 -79t95 -24q67 0 97.5 39.5t30.5 130.5v508h42v-506q0 -109 -42.5 -160t-129.5 -51zM460 791h-40l-101 136l-101 -136h-40l124 167h34z" />
    <glyph glyph-name="jcircumflex" unicode="&#x135;" horiz-adv-x="220" 
d="M-31 -216q-51 0 -86 22l11 36q20 -10 38.5 -15t36.5 -5q70 0 99 45t29 116v509h41v-513q0 -91 -44.5 -143t-124.5 -52zM259 573h-40l-101 136l-101 -136h-40l124 167h34z" />
    <glyph glyph-name="uni0136" unicode="&#x136;" horiz-adv-x="516" 
d="M88 0v710h42v-339l349 339h54l-362 -350q33 -15 64 -61l132 -193q31 -46 53 -60.5t51 -14.5q26 0 49 15l11 -32q-26 -18 -64 -18t-67.5 18t-60.5 63l-147 215q-25 37 -62 42v-334h-42zM238 -281q9 16 15 33t6 32q0 23 -7 38.5t-7 34.5q0 18 9 30t23 12q31 0 31 -48
q0 -25 -9.5 -62t-33.5 -70h-27z" />
    <glyph glyph-name="uni0137" unicode="&#x137;" horiz-adv-x="418" 
d="M82 0v740h40v-463l225 214h55l-247 -234q20 -12 39 -39l97 -136q21 -29 40 -40.5t48 -11.5q24 0 43 13l11 -30q-24 -18 -61 -18q-67 0 -108 58l-97 136q-14 19 -25 30.5t-20 17.5v-237h-40zM198 -281q9 16 15 33t6 32q0 23 -7 38.5t-7 34.5q0 18 9 30t23 12q31 0 31 -48
q0 -25 -9.5 -62t-33.5 -70h-27z" />
    <glyph glyph-name="kgreenlandic" unicode="&#x138;" horiz-adv-x="418" 
d="M82 0v492h40v-215l225 214h55l-247 -234q20 -12 39 -39l97 -136q21 -29 40 -40.5t48 -11.5q24 0 43 13l11 -30q-24 -18 -61 -18q-67 0 -108 58l-97 136q-14 19 -25 30.5t-20 17.5v-237h-40z" />
    <glyph glyph-name="Lacute" unicode="&#x139;" horiz-adv-x="464" 
d="M88 0v710h42v-673h342l-5 -37h-379zM89 791l113 177l41 -16l-115 -161h-39z" />
    <glyph glyph-name="lacute" unicode="&#x13a;" horiz-adv-x="248" 
d="M187 -7q-55 0 -80 30.5t-25 77.5v639h40v-631q0 -37 15 -58.5t53 -21.5q17 0 31.5 5t22.5 11l14 -31q-13 -10 -33 -15.5t-38 -5.5zM81 791l113 177l41 -16l-115 -161h-39z" />
    <glyph glyph-name="uni013B" unicode="&#x13b;" horiz-adv-x="464" 
d="M88 0v710h42v-673h342l-5 -37h-379zM238 -281q9 16 15 33t6 32q0 23 -7 38.5t-7 34.5q0 18 9 30t23 12q31 0 31 -48q0 -25 -9.5 -62t-33.5 -70h-27z" />
    <glyph glyph-name="uni013C" unicode="&#x13c;" horiz-adv-x="248" 
d="M187 -7q-55 0 -80 30.5t-25 77.5v639h40v-631q0 -37 15 -58.5t53 -21.5q17 0 31.5 5t22.5 11l14 -31q-13 -10 -33 -15.5t-38 -5.5zM73 -281q9 16 15 33t6 32q0 23 -7 38.5t-7 34.5q0 18 9 30t23 12q31 0 31 -48q0 -25 -9.5 -62t-33.5 -70h-27z" />
    <glyph glyph-name="Lcaron" unicode="&#x13d;" horiz-adv-x="464" 
d="M88 0v710h42v-673h342l-5 -37h-379zM230 517v233h39l-12 -233h-27z" />
    <glyph glyph-name="lcaron" unicode="&#x13e;" horiz-adv-x="248" 
d="M187 -7q-55 0 -80 30.5t-25 77.5v639h40v-631q0 -37 15 -58.5t53 -21.5q17 0 31.5 5t22.5 11l14 -31q-13 -10 -33 -15.5t-38 -5.5zM180 547v233h39l-12 -233h-27z" />
    <glyph glyph-name="Ldot" unicode="&#x13f;" horiz-adv-x="464" 
d="M88 0v710h42v-673h342l-5 -37h-379zM357 349q-16 0 -25.5 10t-9.5 24t10 24t25 10q16 0 25 -10t9 -24t-9 -24t-25 -10z" />
    <glyph glyph-name="ldot" unicode="&#x140;" horiz-adv-x="257" 
d="M187 -7q-55 0 -80 30.5t-25 77.5v639h40v-631q0 -37 15 -58.5t53 -21.5q17 0 31.5 5t22.5 11l14 -31q-13 -10 -33 -15.5t-38 -5.5zM235 362q-16 0 -25.5 10t-9.5 24t10 24t25 10q16 0 25 -10t9 -24t-9 -24t-25 -10z" />
    <glyph glyph-name="Lslash" unicode="&#x141;" horiz-adv-x="464" 
d="M88 0v710h42v-673h342l-5 -37h-379zM34 271l-19 27l287 200l20 -27z" />
    <glyph glyph-name="lslash" unicode="&#x142;" horiz-adv-x="248" 
d="M187 -7q-55 0 -80 30.5t-25 77.5v639h40v-631q0 -37 15 -58.5t53 -21.5q17 0 31.5 5t22.5 11l14 -31q-13 -10 -33 -15.5t-38 -5.5zM28 302l-18 24l163 135l20 -25z" />
    <glyph glyph-name="Nacute" unicode="&#x143;" horiz-adv-x="702" 
d="M575 710h39v-710h-33l-453 635v-635h-40v710h34l453 -635v635zM331 790l113 177l41 -16l-115 -161h-39z" />
    <glyph glyph-name="nacute" unicode="&#x144;" horiz-adv-x="550" 
d="M82 0v492h40l-5 -215q24 116 78 170.5t129 54.5q72 0 111 -49t38 -144l-2 -309h-40l2 301q0 82 -28 122.5t-89 40.5q-56 0 -100.5 -44t-70 -145.5t-24.5 -274.5h-39zM254 573l113 177l41 -15l-115 -162h-39z" />
    <glyph glyph-name="uni0145" unicode="&#x145;" horiz-adv-x="702" 
d="M575 710h39v-710h-33l-453 635v-635h-40v710h34l453 -635v635zM313 -281q9 16 15 33t6 32q0 23 -7 38.5t-7 34.5q0 18 9 30t23 12q31 0 31 -48q0 -25 -9.5 -62t-33.5 -70h-27z" />
    <glyph glyph-name="uni0146" unicode="&#x146;" horiz-adv-x="550" 
d="M82 0v492h40l-5 -215q24 116 78 170.5t129 54.5q72 0 111 -49t38 -144l-2 -309h-40l2 301q0 82 -28 122.5t-89 40.5q-56 0 -100.5 -44t-70 -145.5t-24.5 -274.5h-39zM237 -281q9 16 15 33t6 32q0 23 -7 38.5t-7 34.5q0 18 9 30t23 12q31 0 31 -48q0 -25 -9.5 -62
t-33.5 -70h-27z" />
    <glyph glyph-name="Ncaron" unicode="&#x147;" horiz-adv-x="702" 
d="M575 710h39v-710h-33l-453 635v-635h-40v710h34l453 -635v635zM335 790l-124 167l33 10l108 -146l108 146l33 -10l-124 -167h-34z" />
    <glyph glyph-name="ncaron" unicode="&#x148;" horiz-adv-x="550" 
d="M82 0v492h40l-5 -215q24 116 78 170.5t129 54.5q72 0 111 -49t38 -144l-2 -309h-40l2 301q0 82 -28 122.5t-89 40.5q-56 0 -100.5 -44t-70 -145.5t-24.5 -274.5h-39zM258 573l-124 167l33 10l108 -146l108 146l33 -10l-124 -167h-34z" />
    <glyph glyph-name="napostrophe" unicode="&#x149;" horiz-adv-x="559" 
d="M45 564q3 13 6 27.5t3 26.5q0 20 -4.5 35.5t-4.5 33.5q0 13 6.5 20.5t15.5 7.5q25 0 25 -37q0 -25 -8 -57.5t-21 -56.5h-18zM91 0v492h40l-5 -215q24 116 78 170.5t129 54.5q72 0 111 -49t38 -144l-2 -309h-40l2 301q0 82 -28 122.5t-89 40.5q-56 0 -100.5 -44
t-70 -145.5t-24.5 -274.5h-39z" />
    <glyph glyph-name="Eng" unicode="&#x14a;" horiz-adv-x="703" 
d="M457 -207q-69 0 -111.5 35.5t-48.5 91.5l35 15q8 -55 42.5 -80.5t86.5 -25.5q56 0 85.5 35t29.5 101v42l-448 628v-635h-40v710h34l453 -635v635h39v-735q0 -92 -40.5 -137t-116.5 -45z" />
    <glyph glyph-name="eng" unicode="&#x14b;" horiz-adv-x="550" 
d="M471 -23q-1 -90 -44 -141.5t-123 -51.5q-24 0 -47 6t-40 16l11 36q20 -11 39 -15.5t37 -4.5q69 0 97.5 44.5t29.5 114.5l2 320q0 82 -27.5 122.5t-89.5 40.5q-56 0 -100.5 -44t-70 -145.5t-24.5 -274.5h-39v492h40l-5 -215q24 116 78 170.5t129 54.5q72 0 111 -49
t38 -144z" />
    <glyph glyph-name="Omacron" unicode="&#x14c;" horiz-adv-x="764" 
d="M377 -7q-95 0 -164.5 41t-107 119t-37.5 189t42.5 196.5t117 133.5t169.5 48q90 0 157.5 -44t104.5 -122.5t37 -184.5q0 -115 -41 -199.5t-113 -130.5t-165 -46zM377 33q81 0 143.5 40t97.5 116t35 184q0 94 -31.5 163t-88.5 106t-135 37q-84 0 -148.5 -41.5t-101.5 -118
t-37 -179.5q0 -148 71.5 -227.5t194.5 -79.5zM238 851h287v-30h-287v30z" />
    <glyph glyph-name="omacron" unicode="&#x14d;" horiz-adv-x="556" 
d="M286 502q96 0 152 -66t56 -180q0 -75 -28 -134.5t-77.5 -94t-113.5 -34.5q-100 0 -157 66t-57 180q0 75 28 134.5t78.5 94t118.5 34.5zM275 31q53 0 92.5 28.5t62 79.5t22.5 117q0 100 -44 154t-121 54q-55 0 -96.5 -29t-64 -79.5t-22.5 -116.5q0 -100 45 -154t126 -54z
M134 634h287v-31h-287v31z" />
    <glyph glyph-name="Obreve" unicode="&#x14e;" horiz-adv-x="764" 
d="M377 -7q-95 0 -164.5 41t-107 119t-37.5 189t42.5 196.5t117 133.5t169.5 48q90 0 157.5 -44t104.5 -122.5t37 -184.5q0 -115 -41 -199.5t-113 -130.5t-165 -46zM377 33q81 0 143.5 40t97.5 116t35 184q0 94 -31.5 163t-88.5 106t-135 37q-84 0 -148.5 -41.5t-101.5 -118
t-37 -179.5q0 -148 71.5 -227.5t194.5 -79.5zM500 967l33 -9q-8 -80 -48 -126t-103 -46t-103 46t-48 126l33 9q16 -148 118 -148t118 148z" />
    <glyph glyph-name="obreve" unicode="&#x14f;" horiz-adv-x="556" 
d="M286 502q96 0 152 -66t56 -180q0 -75 -28 -134.5t-77.5 -94t-113.5 -34.5q-100 0 -157 66t-57 180q0 75 28 134.5t78.5 94t118.5 34.5zM275 31q53 0 92.5 28.5t62 79.5t22.5 117q0 100 -44 154t-121 54q-55 0 -96.5 -29t-64 -79.5t-22.5 -116.5q0 -100 45 -154t126 -54z
M396 749l33 -9q-8 -79 -48 -125.5t-103 -46.5t-103 46.5t-48 125.5l33 9q16 -147 118 -147t118 147z" />
    <glyph glyph-name="Ohungarumlaut" unicode="&#x150;" horiz-adv-x="764" 
d="M377 -7q-95 0 -164.5 41t-107 119t-37.5 189t42.5 196.5t117 133.5t169.5 48q90 0 157.5 -44t104.5 -122.5t37 -184.5q0 -115 -41 -199.5t-113 -130.5t-165 -46zM377 33q81 0 143.5 40t97.5 116t35 184q0 94 -31.5 163t-88.5 106t-135 37q-84 0 -148.5 -41.5t-101.5 -118
t-37 -179.5q0 -148 71.5 -227.5t194.5 -79.5zM449 791h-30l64 177l39 -16zM345 791h-30l63 177l39 -16z" />
    <glyph glyph-name="ohungarumlaut" unicode="&#x151;" horiz-adv-x="556" 
d="M286 502q96 0 152 -66t56 -180q0 -75 -28 -134.5t-77.5 -94t-113.5 -34.5q-100 0 -157 66t-57 180q0 75 28 134.5t78.5 94t118.5 34.5zM275 31q53 0 92.5 28.5t62 79.5t22.5 117q0 100 -44 154t-121 54q-55 0 -96.5 -29t-64 -79.5t-22.5 -116.5q0 -100 45 -154t126 -54z
M345 573h-30l64 177l39 -15zM241 573h-30l63 177l39 -15z" />
    <glyph glyph-name="OE" unicode="&#x152;" horiz-adv-x="984" 
d="M597 36h346l-6 -36h-362q-39 0 -74 -1.5t-71 -1.5q-175 0 -268.5 88t-93.5 257q0 111 42 195t127.5 131t216.5 47q34 0 73.5 -2.5t59.5 -2.5h339v-36h-329v-295h325v-35h-325v-308zM557 36v638q-20 1 -43 3t-57 2q-160 0 -253 -83.5t-93 -249.5q0 -159 81 -236t247 -77
q28 0 58.5 1t59.5 2z" />
    <glyph glyph-name="oe" unicode="&#x153;" horiz-adv-x="915" 
d="M275 -7q-100 0 -157 66t-57 180q0 75 28 134.5t78.5 94t117.5 34.5q73 0 122 -38.5t69 -107.5q26 67 78.5 106.5t121.5 39.5q60 0 106 -28.5t68 -88.5t12 -154h-368q1 -99 50 -149.5t138 -50.5q47 0 87 18t66 61l29 -23q-27 -45 -73.5 -69.5t-110.5 -24.5q-81 0 -135 38
t-75 109q-25 -67 -76 -107t-119 -40zM676 467q-51 0 -91 -26.5t-64 -72t-27 -101.5h332q6 106 -37.5 153t-112.5 47zM275 31q53 0 92.5 28.5t62 79.5t22.5 117q0 100 -44 154t-121 54q-55 0 -96.5 -29t-64 -79.5t-22.5 -116.5q0 -100 45 -154t126 -54z" />
    <glyph glyph-name="Racute" unicode="&#x154;" horiz-adv-x="552" 
d="M567 46l10 -32q-13 -10 -29 -14t-34 -4q-37 0 -66.5 16.5t-62.5 64.5l-151 221q-11 16 -31.5 30.5t-48.5 14.5h-25v-343h-41v710h186q110 0 168.5 -48.5t58.5 -131.5q0 -87 -61.5 -137t-162.5 -50h-45q15 -7 29.5 -21.5t31.5 -39.5l117 -172q22 -33 37.5 -50t31.5 -23
t40 -6q14 0 26 4.5t22 10.5zM270 674h-141v-297h135q94 0 144.5 38t50.5 112q0 67 -44.5 107t-144.5 40zM277 791l113 177l41 -16l-115 -161h-39z" />
    <glyph glyph-name="racute" unicode="&#x155;" horiz-adv-x="359" 
d="M335 455q-10 3 -19.5 4t-21.5 1q-87 0 -129.5 -111.5t-42.5 -348.5h-39v315l-1 177h41l-3 -208q22 120 69.5 169t106.5 49q11 0 23.5 -1.5t21.5 -5.5zM189 573l113 177l41 -15l-115 -162h-39z" />
    <glyph glyph-name="uni0156" unicode="&#x156;" horiz-adv-x="552" 
d="M567 46l10 -32q-13 -10 -29 -14t-34 -4q-37 0 -66.5 16.5t-62.5 64.5l-151 221q-11 16 -31.5 30.5t-48.5 14.5h-25v-343h-41v710h186q110 0 168.5 -48.5t58.5 -131.5q0 -87 -61.5 -137t-162.5 -50h-45q15 -7 29.5 -21.5t31.5 -39.5l117 -172q22 -33 37.5 -50t31.5 -23
t40 -6q14 0 26 4.5t22 10.5zM270 674h-141v-297h135q94 0 144.5 38t50.5 112q0 67 -44.5 107t-144.5 40zM259 -281q9 16 15 33t6 32q0 23 -7 38.5t-7 34.5q0 18 9 30t23 12q31 0 31 -48q0 -25 -9.5 -62t-33.5 -70h-27z" />
    <glyph glyph-name="uni0157" unicode="&#x157;" horiz-adv-x="359" 
d="M335 455q-10 3 -19.5 4t-21.5 1q-87 0 -129.5 -111.5t-42.5 -348.5h-39v315l-1 177h41l-3 -208q22 120 69.5 169t106.5 49q11 0 23.5 -1.5t21.5 -5.5zM64 -281q9 16 15 33t6 32q0 23 -7 38.5t-7 34.5q0 18 9 30t23 12q31 0 31 -48q0 -25 -9.5 -62t-33.5 -70h-27z" />
    <glyph glyph-name="Rcaron" unicode="&#x158;" horiz-adv-x="552" 
d="M567 46l10 -32q-13 -10 -29 -14t-34 -4q-37 0 -66.5 16.5t-62.5 64.5l-151 221q-11 16 -31.5 30.5t-48.5 14.5h-25v-343h-41v710h186q110 0 168.5 -48.5t58.5 -131.5q0 -87 -61.5 -137t-162.5 -50h-45q15 -7 29.5 -21.5t31.5 -39.5l117 -172q22 -33 37.5 -50t31.5 -23
t40 -6q14 0 26 4.5t22 10.5zM270 674h-141v-297h135q94 0 144.5 38t50.5 112q0 67 -44.5 107t-144.5 40zM281 791l-124 167l33 10l108 -146l108 146l33 -10l-124 -167h-34z" />
    <glyph glyph-name="rcaron" unicode="&#x159;" horiz-adv-x="359" 
d="M335 455q-10 3 -19.5 4t-21.5 1q-87 0 -129.5 -111.5t-42.5 -348.5h-39v315l-1 177h41l-3 -208q22 120 69.5 169t106.5 49q11 0 23.5 -1.5t21.5 -5.5zM193 573l-124 167l33 10l108 -146l108 146l33 -10l-124 -167h-34z" />
    <glyph glyph-name="Sacute" unicode="&#x15a;" horiz-adv-x="552" 
d="M288 -7q-110 0 -174 52.5t-76 163.5l40 5q17 -99 66 -140.5t147 -41.5q82 0 129 39.5t47 106.5q0 48 -19 75.5t-59.5 43.5t-104.5 29q-58 12 -104 31.5t-72.5 58t-26.5 107.5q0 56 27 100.5t75 70.5t109 26q88 0 143 -47.5t67 -138.5l-37 -6q-14 80 -56 116.5t-117 36.5
q-77 0 -123 -43t-46 -115q0 -52 20 -83t59 -48t95 -28q74 -15 121 -36t69 -56.5t22 -92.5t-28 -98.5t-77.5 -64.5t-115.5 -23zM260 791l113 177l41 -16l-115 -161h-39z" />
    <glyph glyph-name="sacute" unicode="&#x15b;" horiz-adv-x="438" 
d="M230 -7q-176 0 -189 146l38 8q8 -62 44 -90.5t107 -28.5q62 0 95 28t33 71q0 42 -31.5 59.5t-96.5 31.5q-77 16 -118 45.5t-41 96.5q0 39 20.5 71t57 50.5t85.5 18.5q63 0 103.5 -31t50.5 -92l-37 -8q-15 97 -118 97q-53 0 -87.5 -29t-34.5 -77t31 -70t98 -36
q81 -18 119.5 -43t38.5 -84q1 -56 -45 -95t-123 -39zM203 573l113 177l41 -15l-115 -162h-39z" />
    <glyph glyph-name="Scircumflex" unicode="&#x15c;" horiz-adv-x="552" 
d="M288 -7q-110 0 -174 52.5t-76 163.5l40 5q17 -99 66 -140.5t147 -41.5q82 0 129 39.5t47 106.5q0 48 -19 75.5t-59.5 43.5t-104.5 29q-58 12 -104 31.5t-72.5 58t-26.5 107.5q0 56 27 100.5t75 70.5t109 26q88 0 143 -47.5t67 -138.5l-37 -6q-14 80 -56 116.5t-117 36.5
q-77 0 -123 -43t-46 -115q0 -52 20 -83t59 -48t95 -28q74 -15 121 -36t69 -56.5t22 -92.5t-28 -98.5t-77.5 -64.5t-115.5 -23zM422 791h-40l-101 136l-101 -136h-40l124 167h34z" />
    <glyph glyph-name="scircumflex" unicode="&#x15d;" horiz-adv-x="438" 
d="M230 -7q-176 0 -189 146l38 8q8 -62 44 -90.5t107 -28.5q62 0 95 28t33 71q0 42 -31.5 59.5t-96.5 31.5q-77 16 -118 45.5t-41 96.5q0 39 20.5 71t57 50.5t85.5 18.5q63 0 103.5 -31t50.5 -92l-37 -8q-15 97 -118 97q-53 0 -87.5 -29t-34.5 -77t31 -70t98 -36
q81 -18 119.5 -43t38.5 -84q1 -56 -45 -95t-123 -39zM365 573h-40l-101 136l-101 -136h-40l124 167h34z" />
    <glyph glyph-name="Scedilla" unicode="&#x15e;" horiz-adv-x="552" 
d="M288 -7q-110 0 -174 52.5t-76 163.5l40 5q17 -99 66 -140.5t147 -41.5q82 0 129 39.5t47 106.5q0 48 -19 75.5t-59.5 43.5t-104.5 29q-58 12 -104 31.5t-72.5 58t-26.5 107.5q0 56 27 100.5t75 70.5t109 26q88 0 143 -47.5t67 -138.5l-37 -6q-14 80 -56 116.5t-117 36.5
q-77 0 -123 -43t-46 -115q0 -52 20 -83t59 -48t95 -28q74 -15 121 -36t69 -56.5t22 -92.5t-28 -98.5t-77.5 -64.5t-115.5 -23zM256 -223q-29 0 -48 6t-39 17l15 28q18 -10 34 -15t37 -5q27 0 45.5 13.5t18.5 39.5q0 45 -67 45h-32l58 112h38l-43 -83q37 -4 59 -22.5
t22 -50.5q0 -38 -29.5 -61.5t-68.5 -23.5z" />
    <glyph glyph-name="scedilla" unicode="&#x15f;" horiz-adv-x="438" 
d="M230 -7q-176 0 -189 146l38 8q8 -62 44 -90.5t107 -28.5q62 0 95 28t33 71q0 42 -31.5 59.5t-96.5 31.5q-77 16 -118 45.5t-41 96.5q0 39 20.5 71t57 50.5t85.5 18.5q63 0 103.5 -31t50.5 -92l-37 -8q-15 97 -118 97q-53 0 -87.5 -29t-34.5 -77t31 -70t98 -36
q81 -18 119.5 -43t38.5 -84q1 -56 -45 -95t-123 -39zM199 -223q-29 0 -48 6t-39 17l15 28q18 -10 34 -15t37 -5q27 0 45.5 13.5t18.5 39.5q0 45 -67 45h-32l58 112h38l-43 -83q37 -4 59 -22.5t22 -50.5q0 -38 -29.5 -61.5t-68.5 -23.5z" />
    <glyph glyph-name="Scaron" unicode="&#x160;" horiz-adv-x="552" 
d="M288 -7q-110 0 -174 52.5t-76 163.5l40 5q17 -99 66 -140.5t147 -41.5q82 0 129 39.5t47 106.5q0 48 -19 75.5t-59.5 43.5t-104.5 29q-58 12 -104 31.5t-72.5 58t-26.5 107.5q0 56 27 100.5t75 70.5t109 26q88 0 143 -47.5t67 -138.5l-37 -6q-14 80 -56 116.5t-117 36.5
q-77 0 -123 -43t-46 -115q0 -52 20 -83t59 -48t95 -28q74 -15 121 -36t69 -56.5t22 -92.5t-28 -98.5t-77.5 -64.5t-115.5 -23zM264 791l-124 167l33 10l108 -146l108 146l33 -10l-124 -167h-34z" />
    <glyph glyph-name="scaron" unicode="&#x161;" horiz-adv-x="438" 
d="M230 -7q-176 0 -189 146l38 8q8 -62 44 -90.5t107 -28.5q62 0 95 28t33 71q0 42 -31.5 59.5t-96.5 31.5q-77 16 -118 45.5t-41 96.5q0 39 20.5 71t57 50.5t85.5 18.5q63 0 103.5 -31t50.5 -92l-37 -8q-15 97 -118 97q-53 0 -87.5 -29t-34.5 -77t31 -70t98 -36
q81 -18 119.5 -43t38.5 -84q1 -56 -45 -95t-123 -39zM207 573l-124 167l33 10l108 -146l108 146l33 -10l-124 -167h-34z" />
    <glyph glyph-name="uni0162" unicode="&#x162;" horiz-adv-x="527" 
d="M518 710l-3 -36h-230v-674h-43v674h-235v36h511zM239 -223q-29 0 -48 6t-39 17l15 28q18 -10 34 -15t37 -5q27 0 45.5 13.5t18.5 39.5q0 45 -67 45h-32l58 112h38l-43 -83q37 -4 59 -22.5t22 -50.5q0 -38 -29.5 -61.5t-68.5 -23.5z" />
    <glyph glyph-name="uni0163" unicode="&#x163;" horiz-adv-x="344" 
d="M248 -7q-77 0 -114 42t-36 114l3 308h-90v35h90l1 104h40l-1 -104h179v-35h-179l-3 -306q-1 -55 26 -87.5t85 -32.5q24 0 44.5 6t40.5 22l16 -32q-19 -18 -46.5 -26t-55.5 -8zM198 -223q-29 0 -48 6t-39 17l15 28q18 -10 34 -15t37 -5q27 0 45.5 13.5t18.5 39.5
q0 45 -67 45h-32l58 112h38l-43 -83q37 -4 59 -22.5t22 -50.5q0 -38 -29.5 -61.5t-68.5 -23.5z" />
    <glyph glyph-name="Tcaron" unicode="&#x164;" horiz-adv-x="527" 
d="M518 710l-3 -36h-230v-674h-43v674h-235v36h511zM247 791l-124 167l33 10l108 -146l108 146l33 -10l-124 -167h-34z" />
    <glyph glyph-name="tcaron" unicode="&#x165;" horiz-adv-x="344" 
d="M248 -7q-77 0 -114 42t-36 114l3 308h-90v35h90l1 104h40l-1 -104h179v-35h-179l-3 -306q-1 -55 26 -87.5t85 -32.5q24 0 44.5 6t40.5 22l16 -32q-19 -18 -46.5 -26t-55.5 -8zM200 547v233h39l-12 -233h-27z" />
    <glyph glyph-name="Tbar" unicode="&#x166;" horiz-adv-x="527" 
d="M518 710l-3 -36h-230v-674h-43v674h-235v36h511zM87 343v34h352v-34h-352z" />
    <glyph glyph-name="tbar" unicode="&#x167;" horiz-adv-x="348" 
d="M242 -7q-77 0 -114 42t-36 114l3 308h-90v35h90l1 104h40l-1 -104h179v-35h-179l-3 -306q-1 -55 26 -87.5t85 -32.5q24 0 44.5 6t40.5 22l16 -32q-19 -18 -46.5 -26t-55.5 -8zM31 263v30h269v-30h-269z" />
    <glyph glyph-name="Utilde" unicode="&#x168;" horiz-adv-x="706" 
d="M578 710h42l1 -364q1 -177 -66 -265t-210 -88q-134 0 -197 75t-63 237v405h44v-404q0 -145 51 -209t165 -64q127 0 181 76.5t53 235.5zM438 788q-19 0 -41 10t-45.5 22.5t-44.5 22.5t-38 10q-22 0 -36 -18t-20 -47l-24 12q7 40 28 63t53 23q19 0 41 -10t45 -23t44.5 -23
t38.5 -10q22 0 36 18t20 48l24 -13q-7 -40 -28 -62.5t-53 -22.5z" />
    <glyph glyph-name="utilde" unicode="&#x169;" horiz-adv-x="541" 
d="M224 -7q-70 0 -108.5 47t-38.5 136l4 316h40l-3 -308q-1 -76 26 -114.5t87 -38.5q56 0 99 44t67.5 145t23.5 272h38v-492h-40l5 209q-26 -115 -78.5 -165.5t-121.5 -50.5zM355 570q-19 0 -41 10t-45.5 23t-44.5 23t-38 10q-22 0 -36 -18t-20 -48l-24 13q7 39 28 62t53 23
q19 0 41 -10t45 -23t44.5 -23t38.5 -10q22 0 36 18.5t20 47.5l24 -13q-7 -40 -28 -62.5t-53 -22.5z" />
    <glyph glyph-name="Umacron" unicode="&#x16a;" horiz-adv-x="706" 
d="M578 710h42l1 -364q1 -177 -66 -265t-210 -88q-134 0 -197 75t-63 237v405h44v-404q0 -145 51 -209t165 -64q127 0 181 76.5t53 235.5zM211 851h287v-30h-287v30z" />
    <glyph glyph-name="umacron" unicode="&#x16b;" horiz-adv-x="541" 
d="M224 -7q-70 0 -108.5 47t-38.5 136l4 316h40l-3 -308q-1 -76 26 -114.5t87 -38.5q56 0 99 44t67.5 145t23.5 272h38v-492h-40l5 209q-26 -115 -78.5 -165.5t-121.5 -50.5zM127 634h287v-31h-287v31z" />
    <glyph glyph-name="Ubreve" unicode="&#x16c;" horiz-adv-x="706" 
d="M578 710h42l1 -364q1 -177 -66 -265t-210 -88q-134 0 -197 75t-63 237v405h44v-404q0 -145 51 -209t165 -64q127 0 181 76.5t53 235.5zM472 967l33 -9q-8 -80 -48 -126t-103 -46t-103 46t-48 126l33 9q16 -148 118 -148t118 148z" />
    <glyph glyph-name="ubreve" unicode="&#x16d;" horiz-adv-x="541" 
d="M224 -7q-70 0 -108.5 47t-38.5 136l4 316h40l-3 -308q-1 -76 26 -114.5t87 -38.5q56 0 99 44t67.5 145t23.5 272h38v-492h-40l5 209q-26 -115 -78.5 -165.5t-121.5 -50.5zM389 749l33 -9q-8 -79 -48 -125.5t-103 -46.5t-103 46.5t-48 125.5l33 9q16 -147 118 -147
t118 147z" />
    <glyph glyph-name="Uring" unicode="&#x16e;" horiz-adv-x="706" 
d="M578 710h42l1 -364q1 -177 -66 -265t-210 -88q-134 0 -197 75t-63 237v405h44v-404q0 -145 51 -209t165 -64q127 0 181 76.5t53 235.5zM353 786q-41 0 -68 26.5t-27 66.5q0 41 28.5 69t70.5 28q41 0 67 -26t26 -67q0 -42 -27.5 -69.5t-69.5 -27.5zM354 814q30 0 48 19
t18 50q0 30 -17.5 47t-46.5 17q-31 0 -49.5 -19t-18.5 -49q0 -29 18.5 -47t47.5 -18z" />
    <glyph glyph-name="uring" unicode="&#x16f;" horiz-adv-x="541" 
d="M224 -7q-70 0 -108.5 47t-38.5 136l4 316h40l-3 -308q-1 -76 26 -114.5t87 -38.5q56 0 99 44t67.5 145t23.5 272h38v-492h-40l5 209q-26 -115 -78.5 -165.5t-121.5 -50.5zM270 568q-41 0 -68 26.5t-27 67.5t28.5 68.5t70.5 27.5q41 0 67 -26t26 -66q0 -42 -27.5 -70
t-69.5 -28zM271 597q30 0 48 19t18 50q0 29 -17.5 46.5t-46.5 17.5q-31 0 -49.5 -19.5t-18.5 -48.5t18.5 -47t47.5 -18z" />
    <glyph glyph-name="Uhungarumlaut" unicode="&#x170;" horiz-adv-x="706" 
d="M578 710h42l1 -364q1 -177 -66 -265t-210 -88q-134 0 -197 75t-63 237v405h44v-404q0 -145 51 -209t165 -64q127 0 181 76.5t53 235.5zM421 791h-30l64 177l39 -16zM317 791h-30l63 177l39 -16z" />
    <glyph glyph-name="uhungarumlaut" unicode="&#x171;" horiz-adv-x="541" 
d="M224 -7q-70 0 -108.5 47t-38.5 136l4 316h40l-3 -308q-1 -76 26 -114.5t87 -38.5q56 0 99 44t67.5 145t23.5 272h38v-492h-40l5 209q-26 -115 -78.5 -165.5t-121.5 -50.5zM338 573h-30l64 177l39 -15zM234 573h-30l63 177l39 -15z" />
    <glyph glyph-name="Uogonek" unicode="&#x172;" horiz-adv-x="706" 
d="M381 -223q-47 0 -71 24.5t-24 64.5q0 36 22 70t58 57h-21q-134 0 -197 75t-63 237v405h44v-404q0 -145 51 -209t165 -64q127 0 181 76.5t53 235.5l-1 365h42l1 -364q1 -270 -157 -333q-73 -29 -107.5 -68t-34.5 -78q0 -25 15 -41.5t44 -16.5q33 0 67 42l20 -24
q-14 -22 -38 -36t-49 -14z" />
    <glyph glyph-name="uogonek" unicode="&#x173;" horiz-adv-x="541" 
d="M224 -7q-70 0 -108.5 47t-38.5 136l4 316h40l-3 -308q-1 -76 26 -114.5t87 -38.5q56 0 99 44t67.5 145t23.5 272h38v-492h-40l5 209q-26 -115 -78.5 -165.5t-121.5 -50.5zM404 -223q-46 0 -70 25.5t-24 63.5q0 43 34 85t87 64l29 -15q-49 -23 -80.5 -58t-31.5 -73
q0 -27 14.5 -43.5t42.5 -16.5q39 0 67 41l20 -23q-13 -22 -37.5 -36t-50.5 -14z" />
    <glyph glyph-name="Wcircumflex" unicode="&#x174;" horiz-adv-x="902" 
d="M835 710h41l-207 -710h-50l-160 641l-190 -641h-51l-175 710h42l160 -666l197 666h37l167 -667zM602 791h-40l-101 136l-101 -136h-40l124 167h34z" />
    <glyph glyph-name="wcircumflex" unicode="&#x175;" horiz-adv-x="817" 
d="M761 492h42l-190 -492h-43l-147 440l-173 -440h-42l-156 492h42l137 -443l173 443h40l148 -445zM568 573h-40l-101 136l-101 -136h-40l124 167h34z" />
    <glyph glyph-name="Ycircumflex" unicode="&#x176;" horiz-adv-x="522" 
d="M543 710l-261 -386v-324h-42v325l-261 385h48l236 -349l235 349h45zM403 791h-40l-101 136l-101 -136h-40l124 167h34z" />
    <glyph glyph-name="ycircumflex" unicode="&#x177;" horiz-adv-x="547" 
d="M239 -210q-41 0 -82 8.5t-69 24.5l14 38q27 -15 65 -24t75 -9q98 0 141 51t44 167l2 168q-25 -115 -78.5 -165.5t-127.5 -50.5q-69 0 -107.5 47t-38.5 136l4 311h40l-3 -303q-1 -75 26 -114t87 -39q59 0 103 44t68.5 144t24.5 268h38v-439q0 -139 -55.5 -201t-170.5 -62z
M416 573h-40l-101 136l-101 -136h-40l124 167h34z" />
    <glyph glyph-name="Ydieresis" unicode="&#x178;" horiz-adv-x="522" 
d="M543 710l-261 -386v-324h-42v325l-261 385h48l236 -349l235 349h45zM186 787q-14 0 -22.5 8t-8.5 22q0 13 8.5 21t22.5 8q13 0 21 -8t8 -21q0 -14 -8 -22t-21 -8zM340 787q-14 0 -22.5 8t-8.5 22q0 13 8.5 21t22.5 8q13 0 21 -8t8 -21q0 -30 -29 -30z" />
    <glyph glyph-name="Zacute" unicode="&#x179;" horiz-adv-x="580" 
d="M42 0v30l451 644h-438v36h489v-30l-451 -644h463l-5 -36h-509zM276 791l113 177l41 -16l-115 -161h-39z" />
    <glyph glyph-name="zacute" unicode="&#x17a;" horiz-adv-x="450" 
d="M45 0v27l303 430h-289v35h341v-26l-303 -431h300v-35h-352zM209 573l113 177l41 -15l-115 -162h-39z" />
    <glyph glyph-name="Zdotaccent" unicode="&#x17b;" horiz-adv-x="580" 
d="M42 0v30l451 644h-438v36h489v-30l-451 -644h463l-5 -36h-509zM297 813q-15 0 -23.5 9.5t-8.5 21.5q0 13 9.5 22.5t22.5 9.5q15 0 23.5 -9.5t8.5 -22.5q0 -12 -8.5 -21.5t-23.5 -9.5z" />
    <glyph glyph-name="zdotaccent" unicode="&#x17c;" horiz-adv-x="450" 
d="M45 0v27l303 430h-289v35h341v-26l-303 -431h300v-35h-352zM230 595q-15 0 -23.5 9.5t-8.5 22.5q0 12 9.5 22t22.5 10q15 0 23.5 -10t8.5 -22q0 -13 -8.5 -22.5t-23.5 -9.5z" />
    <glyph glyph-name="Zcaron" unicode="&#x17d;" horiz-adv-x="580" 
d="M42 0v30l451 644h-438v36h489v-30l-451 -644h463l-5 -36h-509zM280 791l-124 167l33 10l108 -146l108 146l33 -10l-124 -167h-34z" />
    <glyph glyph-name="zcaron" unicode="&#x17e;" horiz-adv-x="450" 
d="M45 0v27l303 430h-289v35h341v-26l-303 -431h300v-35h-352zM213 573l-124 167l33 10l108 -146l108 146l33 -10l-124 -167h-34z" />
    <glyph glyph-name="uni018F" unicode="&#x18f;" horiz-adv-x="742" 
d="M371 720q91 0 159.5 -42t106 -121t37.5 -190q0 -119 -37.5 -202.5t-106.5 -127.5t-166 -44q-104 0 -173.5 46t-100.5 130.5t-19 199.5h561q-2 158 -73.5 234t-188.5 76q-78 0 -136.5 -32t-96.5 -93l-33 25q42 69 111.5 105t155.5 36zM365 30q120 0 191.5 78.5t75.5 223.5
h-521q-6 -90 21.5 -157.5t86.5 -106t146 -38.5z" />
    <glyph glyph-name="florin" unicode="&#x192;" horiz-adv-x="600" 
d="M148 492h101l-1 49q-2 100 43.5 154.5t123.5 54.5q66 0 103 -32.5t40 -87.5l-34 -4q-12 87 -109 87q-60 0 -93.5 -41.5t-33.5 -125.5v-54h184v-35h-183l13 -458q3 -106 -43.5 -160.5t-123.5 -54.5q-24 0 -49 5t-42 17l14 35q21 -11 39 -15t36 -4q69 0 100 48t29 135
l-12 452h-102v35z" />
    <glyph glyph-name="Ohorn" unicode="&#x1a0;" horiz-adv-x="764" 
d="M377 -7q-95 0 -164.5 41t-107 119t-37.5 189t42.5 196.5t117 133.5t169.5 48q90 0 157.5 -44t104.5 -122.5t37 -184.5q0 -115 -41 -199.5t-113 -130.5t-165 -46zM377 33q81 0 143.5 40t97.5 116t35 184q0 94 -31.5 163t-88.5 106t-135 37q-84 0 -148.5 -41.5t-101.5 -118
t-37 -179.5q0 -148 71.5 -227.5t194.5 -79.5zM568 707q53 0 75 27t21 81l34 -4q4 -61 -29.5 -100.5t-93.5 -39.5h-90l-34 45q39 -4 67 -6.5t50 -2.5z" />
    <glyph glyph-name="ohorn" unicode="&#x1a1;" horiz-adv-x="556" 
d="M286 502q96 0 152 -66t56 -180q0 -75 -28 -134.5t-77.5 -94t-113.5 -34.5q-100 0 -157 66t-57 180q0 75 28 134.5t78.5 94t118.5 34.5zM275 31q53 0 92.5 28.5t62 79.5t22.5 117q0 100 -44 154t-121 54q-55 0 -96.5 -29t-64 -79.5t-22.5 -116.5q0 -100 45 -154t126 -54z
M393 491q52 0 73 26t20 80l36 -4q4 -61 -29 -100t-96 -39h-34l-30 43q17 -2 31.5 -4t28.5 -2z" />
    <glyph glyph-name="Uhorn" unicode="&#x1af;" horiz-adv-x="706" 
d="M742 811q3 -63 -28.5 -99.5t-93.5 -36.5l1 -329q1 -177 -66 -265t-210 -88q-134 0 -197 75t-63 237v405h44v-404q0 -145 51 -209t165 -64q127 0 181 76.5t53 235.5l-1 365h26q57 0 80 21.5t24 83.5z" />
    <glyph glyph-name="uhorn" unicode="&#x1b0;" horiz-adv-x="541" 
d="M570 593q2 -57 -26.5 -93t-84.5 -41v-459h-40l4 208q-25 -115 -77.5 -165t-121.5 -50q-70 0 -108.5 47t-38.5 136l4 316h40l-3 -308q-1 -76 26 -114.5t87 -38.5q56 0 99 44t67.5 145t23.5 272h22q52 0 72.5 25.5t19.5 79.5z" />
    <glyph glyph-name="uni01C4" unicode="&#x1c4;" horiz-adv-x="1288" 
d="M88 0v710h159q408 0 408 -352q0 -171 -99.5 -264.5t-286.5 -93.5h-181zM130 37h135q347 0 347 320q0 159 -88 237.5t-270 78.5h-124v-636zM750 0v30l451 644h-438v36h489v-30l-451 -644h463l-5 -36h-509zM988 791l-124 167l33 10l108 -146l108 146l33 -10l-124 -167h-34z
" />
    <glyph glyph-name="uni01C5" unicode="&#x1c5;" horiz-adv-x="1168" 
d="M88 0v710h159q408 0 408 -352q0 -171 -99.5 -264.5t-286.5 -93.5h-181zM130 37h135q347 0 347 320q0 159 -88 237.5t-270 78.5h-124v-636zM763 0v27l303 430h-289v35h341v-26l-303 -431h300v-35h-352zM931 573l-124 167l33 10l108 -146l108 146l33 -10l-124 -167h-34z
" />
    <glyph glyph-name="uni01C6" unicode="&#x1c6;" horiz-adv-x="1009" 
d="M477 740v-740h-40l4 149q-24 -70 -76 -113t-118 -43q-88 0 -137 64t-49 166q0 83 28 145.5t79 98t120 35.5q47 0 88.5 -23t61.5 -71l-1 84v248h40zM289 464q-56 0 -97.5 -29t-64.5 -82t-23 -125q0 -92 39 -144.5t108 -52.5q55 0 97 33.5t66 92t24 132.5q0 82 -40 128.5
t-109 46.5zM604 0v27l303 430h-289v35h341v-26l-303 -431h300v-35h-352zM772 573l-124 167l33 10l108 -146l108 146l33 -10l-124 -167h-34z" />
    <glyph glyph-name="uni01C7" unicode="&#x1c7;" horiz-adv-x="930" 
d="M88 0v710h42v-673h342l-5 -37h-379zM672 -7q-75 0 -121 35t-60 92l36 15q16 -55 52 -79t95 -24q67 0 97.5 39.5t30.5 130.5v508h42v-506q0 -109 -42.5 -160t-129.5 -51z" />
    <glyph glyph-name="uni01C8" unicode="&#x1c8;" horiz-adv-x="684" 
d="M88 0v710h42v-673h342l-5 -37h-379zM433 -216q-51 0 -86 22l11 36q20 -10 38.5 -15t36.5 -5q70 0 99 45t29 116v509h41v-513q0 -91 -44.5 -143t-124.5 -52zM581 628q-14 0 -22.5 10t-8.5 22t9 22t22 10q15 0 23.5 -10t8.5 -22t-8.5 -22t-23.5 -10z" />
    <glyph glyph-name="uni01C9" unicode="&#x1c9;" horiz-adv-x="467" 
d="M187 -7q-55 0 -80 30.5t-25 77.5v639h40v-631q0 -37 15 -58.5t53 -21.5q17 0 31.5 5t22.5 11l14 -31q-13 -10 -33 -15.5t-38 -5.5zM217 -216q-51 0 -86 22l11 36q20 -10 38.5 -15t36.5 -5q70 0 99 45t29 116v509h41v-513q0 -91 -44.5 -143t-124.5 -52zM365 628
q-14 0 -22.5 10t-8.5 22t9 22t22 10q15 0 23.5 -10t8.5 -22t-8.5 -22t-23.5 -10z" />
    <glyph glyph-name="uni01CA" unicode="&#x1ca;" horiz-adv-x="1128" 
d="M575 710h39v-710h-33l-453 635v-635h-40v710h34l453 -635v635zM870 -7q-75 0 -121 35t-60 92l36 15q16 -55 52 -79t95 -24q67 0 97.5 39.5t30.5 130.5v508h42v-506q0 -109 -42.5 -160t-129.5 -51z" />
    <glyph glyph-name="uni01CB" unicode="&#x1cb;" horiz-adv-x="922" 
d="M575 710h39v-710h-33l-453 635v-635h-40v710h34l453 -635v635zM671 -216q-51 0 -86 22l11 36q20 -10 38.5 -15t36.5 -5q70 0 99 45t29 116v509h41v-513q0 -91 -44.5 -143t-124.5 -52zM819 628q-14 0 -22.5 10t-8.5 22t9 22t22 10q15 0 23.5 -10t8.5 -22t-8.5 -22
t-23.5 -10z" />
    <glyph glyph-name="uni01CC" unicode="&#x1cc;" horiz-adv-x="770" 
d="M82 0v492h40l-5 -215q24 116 78 170.5t129 54.5q72 0 111 -49t38 -144l-2 -309h-40l2 301q0 82 -28 122.5t-89 40.5q-56 0 -100.5 -44t-70 -145.5t-24.5 -274.5h-39zM519 -216q-51 0 -86 22l11 36q20 -10 38.5 -15t36.5 -5q70 0 99 45t29 116v509h41v-513
q0 -91 -44.5 -143t-124.5 -52zM667 628q-14 0 -22.5 10t-8.5 22t9 22t22 10q15 0 23.5 -10t8.5 -22t-8.5 -22t-23.5 -10z" />
    <glyph glyph-name="Gcaron" unicode="&#x1e6;" horiz-adv-x="711" 
d="M417 327h224v-327h-30l-8 113q-34 -60 -89.5 -90t-137.5 -30q-95 0 -164 41.5t-106.5 119.5t-37.5 189t41.5 196t116 133t174.5 48q78 0 139 -33.5t96 -97.5l-33 -26q-31 57 -81 86.5t-127 29.5q-84 0 -147.5 -42.5t-99.5 -119t-36 -176.5q0 -149 69.5 -228.5
t197.5 -79.5q110 0 167 57.5t57 153.5v48h-185v35zM366 791l-124 167l33 10l108 -146l108 146l33 -10l-124 -167h-34z" />
    <glyph glyph-name="gcaron" unicode="&#x1e7;" horiz-adv-x="563" 
d="M255 -210q-42 0 -83.5 9t-71.5 27l14 38q31 -19 69.5 -27.5t72.5 -8.5q99 0 142.5 51.5t43.5 166.5l1 101q-26 -67 -77.5 -108t-116.5 -41q-90 0 -139 63t-49 165q0 81 28.5 143.5t79.5 97.5t121 35q53 0 93.5 -25.5t56.5 -64.5l9 81h32v-442q0 -136 -54.5 -198.5
t-171.5 -62.5zM291 464q-56 0 -98.5 -29t-65.5 -81.5t-23 -122.5q0 -91 39.5 -143t109.5 -52q55 0 97.5 33.5t67 91.5t24.5 130q0 81 -40.5 127t-110.5 46zM287 573l-124 167l33 10l108 -146l108 146l33 -10l-124 -167h-34z" />
    <glyph glyph-name="uni01EA" unicode="&#x1ea;" horiz-adv-x="764" 
d="M394 -223q-47 0 -71 24.5t-24 64.5q0 35 21.5 68t62.5 59h-6q-95 0 -164.5 41t-107 119t-37.5 189t42.5 196.5t116.5 133.5t168 48q91 0 158.5 -44t105 -122.5t37.5 -184.5q0 -96 -28.5 -169t-78 -121.5t-112.5 -69.5q-68 -23 -105 -61.5t-37 -78.5q0 -27 15 -44t43 -17
q37 0 67 43l20 -24q-12 -22 -36.5 -36t-49.5 -14zM377 33q81 0 143.5 40t97.5 116t35 184q0 94 -31.5 163t-88.5 106t-135 37q-84 0 -148.5 -41.5t-101.5 -118t-37 -179.5q0 -148 71.5 -227.5t194.5 -79.5z" />
    <glyph glyph-name="uni01EB" unicode="&#x1eb;" horiz-adv-x="556" 
d="M288 -223q-42 0 -67 24.5t-25 64.5q0 68 85 127h-6q-100 0 -157 66t-57 180q0 75 28 134.5t78.5 94t118.5 34.5q96 0 152 -66t56 -180q0 -83 -33.5 -144.5t-82.5 -90.5q-74 -43 -109.5 -78.5t-35.5 -73.5q0 -28 14.5 -44t42.5 -16q38 0 67 41l20 -23q-14 -24 -38.5 -37
t-50.5 -13zM275 31q53 0 92.5 28.5t62 79.5t22.5 117q0 100 -44 154t-121 54q-55 0 -96.5 -29t-64 -79.5t-22.5 -116.5q0 -100 45 -154t126 -54z" />
    <glyph glyph-name="Aringacute" unicode="&#x1fa;" horiz-adv-x="664" 
d="M27 0l290 710h38l278 -710h-43l-81 208h-355l-84 -208h-43zM169 244h327l-160 415zM331 786q-41 0 -68 26.5t-27 66.5q0 41 28.5 69t70.5 28q34 0 59 -19l71 78l29 -23l-79 -79q13 -22 13 -50q0 -42 -27.5 -69.5t-69.5 -27.5zM332 814q30 0 48 19t18 50q0 30 -17.5 47
t-46.5 17q-31 0 -49.5 -19t-18.5 -49q0 -29 18.5 -47t47.5 -18z" />
    <glyph glyph-name="aringacute" unicode="&#x1fb;" horiz-adv-x="559" 
d="M477 493v-493h-40l4 149q-24 -70 -76 -113t-118 -43q-88 0 -137 64t-49 166q0 83 28 145.5t79 98t120 35.5q52 0 92 -25.5t56 -64.5l9 81h32zM289 464q-56 0 -97.5 -29t-64.5 -82t-23 -125q0 -92 39 -144.5t108 -52.5q55 0 97 33.5t66 92t24 132.5q0 82 -40 128.5
t-109 46.5zM303 568q-41 0 -68 26.5t-27 67.5t28.5 68.5t70.5 27.5q34 0 59 -18l71 77l29 -23l-79 -78q13 -22 13 -50q0 -42 -27.5 -70t-69.5 -28zM304 597q30 0 48 19t18 50q0 29 -17.5 46.5t-46.5 17.5q-31 0 -49.5 -19.5t-18.5 -48.5t18.5 -47t47.5 -18z" />
    <glyph glyph-name="AEacute" unicode="&#x1fc;" horiz-adv-x="874" 
d="M27 0l290 710h500v-36h-329v-295h324v-35h-324v-308h345l-5 -36h-381v209h-293l-84 -209h-43zM168 244h279v430h-105zM446 791l113 177l41 -16l-115 -161h-39z" />
    <glyph glyph-name="aeacute" unicode="&#x1fd;" horiz-adv-x="868" 
d="M220 -7q-77 0 -123 38t-46 97q0 65 47 102t134 37h170v39q0 77 -34 118t-107 41q-64 0 -104.5 -34.5t-51.5 -97.5l-38 7q11 72 62.5 117t131.5 45q75 0 117.5 -34.5t55.5 -94.5q27 60 78.5 94.5t114.5 34.5q61 0 107 -28.5t68 -88.5t12 -154h-369q1 -99 50.5 -149.5
t138.5 -50.5q46 0 86.5 18t66.5 61l29 -23q-27 -45 -73.5 -69.5t-110.5 -24.5q-79 0 -133 36.5t-77 103.5q-22 -62 -76 -101t-126 -39zM627 467q-50 0 -90 -26.5t-64.5 -72t-26.5 -101.5h333q4 70 -15 114t-55 65t-82 21zM224 29q53 0 93 25.5t62.5 68t22.5 93.5v14h-170
q-68 0 -103 -26.5t-35 -73.5t34 -74t96 -27zM404 573l113 177l41 -15l-115 -162h-39z" />
    <glyph glyph-name="Oslashacute" unicode="&#x1fe;" horiz-adv-x="764" 
d="M377 -7q-95 0 -164.5 41t-107 119t-37.5 189t42.5 196.5t117 133.5t169.5 48q90 0 157.5 -44t104.5 -122.5t37 -184.5q0 -115 -41 -199.5t-113 -130.5t-165 -46zM377 33q81 0 143.5 40t97.5 116t35 184q0 94 -31.5 163t-88.5 106t-135 37q-84 0 -148.5 -41.5t-101.5 -118
t-37 -179.5q0 -148 71.5 -227.5t194.5 -79.5zM153 -19l-30 20l489 728l29 -20zM361 791l113 177l41 -16l-115 -161h-39z" />
    <glyph glyph-name="oslashacute" unicode="&#x1ff;" horiz-adv-x="556" 
d="M286 502q96 0 152 -66t56 -180q0 -75 -28 -134.5t-77.5 -94t-113.5 -34.5q-100 0 -157 66t-57 180q0 75 28 134.5t78.5 94t118.5 34.5zM275 31q53 0 92.5 28.5t62 79.5t22.5 117q0 100 -44 154t-121 54q-55 0 -96.5 -29t-64 -79.5t-22.5 -116.5q0 -100 45 -154t126 -54z
M113 -30l-29 18l46 68l12 17l244 362l12 20l46 68l29 -19l-46 -68l-12 -16l-244 -362l-12 -20zM257 573l113 177l41 -15l-115 -162h-39z" />
    <glyph glyph-name="uni0200" unicode="&#x200;" horiz-adv-x="664" 
d="M27 0l290 710h38l278 -710h-43l-81 208h-355l-84 -208h-43zM169 244h327l-160 415zM369 791l-72 161l39 16l63 -177h-30zM265 791l-73 161l39 16l64 -177h-30z" />
    <glyph glyph-name="uni0201" unicode="&#x201;" horiz-adv-x="559" 
d="M477 493v-493h-40l4 149q-24 -70 -76 -113t-118 -43q-88 0 -137 64t-49 166q0 83 28 145.5t79 98t120 35.5q52 0 92 -25.5t56 -64.5l9 81h32zM289 464q-56 0 -97.5 -29t-64.5 -82t-23 -125q0 -92 39 -144.5t108 -52.5q55 0 97 33.5t66 92t24 132.5q0 82 -40 128.5
t-109 46.5zM341 573l-72 162l39 15l63 -177h-30zM237 573l-73 162l39 15l64 -177h-30z" />
    <glyph glyph-name="uni0202" unicode="&#x202;" horiz-adv-x="664" 
d="M27 0l290 710h38l278 -710h-43l-81 208h-355l-84 -208h-43zM169 244h327l-160 415zM449 791q-18 142 -117 142q-98 0 -117 -142h-34q8 83 48 129.5t103 46.5t103 -46.5t48 -129.5h-34z" />
    <glyph glyph-name="uni0203" unicode="&#x203;" horiz-adv-x="559" 
d="M477 493v-493h-40l4 149q-24 -70 -76 -113t-118 -43q-88 0 -137 64t-49 166q0 83 28 145.5t79 98t120 35.5q52 0 92 -25.5t56 -64.5l9 81h32zM289 464q-56 0 -97.5 -29t-64.5 -82t-23 -125q0 -92 39 -144.5t108 -52.5q55 0 97 33.5t66 92t24 132.5q0 82 -40 128.5
t-109 46.5zM421 573q-18 143 -117 143q-98 0 -117 -143h-34q8 84 48 130t103 46t103 -46t48 -130h-34z" />
    <glyph glyph-name="uni0204" unicode="&#x204;" horiz-adv-x="526" 
d="M469 674h-340v-295h335v-35h-335v-308h356l-5 -36h-392v710h381v-36zM315 791l-72 161l39 16l63 -177h-30zM211 791l-73 161l39 16l64 -177h-30z" />
    <glyph glyph-name="uni0205" unicode="&#x205;" horiz-adv-x="530" 
d="M293 -7q-109 0 -170.5 65.5t-61.5 181.5q0 76 29.5 135.5t81 93t116.5 33.5q62 0 108 -28.5t68.5 -88.5t12.5 -154h-373q1 -99 50.5 -149.5t140.5 -50.5q48 0 88 18t67 61l29 -23q-28 -45 -74.5 -69.5t-111.5 -24.5zM289 467q-52 0 -92.5 -26.5t-65 -72t-27.5 -101.5h338
q3 71 -16 115t-55 64.5t-82 20.5zM325 573l-72 162l39 15l63 -177h-30zM221 573l-73 162l39 15l64 -177h-30z" />
    <glyph glyph-name="uni0206" unicode="&#x206;" horiz-adv-x="526" 
d="M469 674h-340v-295h335v-35h-335v-308h356l-5 -36h-392v710h381v-36zM395 791q-18 142 -117 142q-98 0 -117 -142h-34q8 83 48 129.5t103 46.5t103 -46.5t48 -129.5h-34z" />
    <glyph glyph-name="uni0207" unicode="&#x207;" horiz-adv-x="530" 
d="M293 -7q-109 0 -170.5 65.5t-61.5 181.5q0 76 29.5 135.5t81 93t116.5 33.5q62 0 108 -28.5t68.5 -88.5t12.5 -154h-373q1 -99 50.5 -149.5t140.5 -50.5q48 0 88 18t67 61l29 -23q-28 -45 -74.5 -69.5t-111.5 -24.5zM289 467q-52 0 -92.5 -26.5t-65 -72t-27.5 -101.5h338
q3 71 -16 115t-55 64.5t-82 20.5zM405 573q-18 143 -117 143q-98 0 -117 -143h-34q8 84 48 130t103 46t103 -46t48 -130h-34z" />
    <glyph glyph-name="uni0208" unicode="&#x208;" horiz-adv-x="218" 
d="M88 0v710h42v-710h-42zM147 791l-72 161l39 16l63 -177h-30zM43 791l-73 161l39 16l64 -177h-30z" />
    <glyph glyph-name="uni0209" unicode="&#x209;" horiz-adv-x="204" 
d="M122 492v-492h-40v492h40zM139 573l-72 162l39 15l63 -177h-30zM35 573l-73 162l39 15l64 -177h-30z" />
    <glyph glyph-name="uni020A" unicode="&#x20a;" horiz-adv-x="218" 
d="M88 0v710h42v-710h-42zM227 791q-18 142 -117 142q-98 0 -117 -142h-34q8 83 48 129.5t103 46.5t103 -46.5t48 -129.5h-34z" />
    <glyph glyph-name="uni020B" unicode="&#x20b;" horiz-adv-x="204" 
d="M122 492v-492h-40v492h40zM219 573q-18 143 -117 143q-98 0 -117 -143h-34q8 84 48 130t103 46t103 -46t48 -130h-34z" />
    <glyph glyph-name="uni020C" unicode="&#x20c;" horiz-adv-x="764" 
d="M377 -7q-95 0 -164.5 41t-107 119t-37.5 189t42.5 196.5t117 133.5t169.5 48q90 0 157.5 -44t104.5 -122.5t37 -184.5q0 -115 -41 -199.5t-113 -130.5t-165 -46zM377 33q81 0 143.5 40t97.5 116t35 184q0 94 -31.5 163t-88.5 106t-135 37q-84 0 -148.5 -41.5t-101.5 -118
t-37 -179.5q0 -148 71.5 -227.5t194.5 -79.5zM419 791l-72 161l39 16l63 -177h-30zM315 791l-73 161l39 16l64 -177h-30z" />
    <glyph glyph-name="uni020D" unicode="&#x20d;" horiz-adv-x="556" 
d="M286 502q96 0 152 -66t56 -180q0 -75 -28 -134.5t-77.5 -94t-113.5 -34.5q-100 0 -157 66t-57 180q0 75 28 134.5t78.5 94t118.5 34.5zM275 31q53 0 92.5 28.5t62 79.5t22.5 117q0 100 -44 154t-121 54q-55 0 -96.5 -29t-64 -79.5t-22.5 -116.5q0 -100 45 -154t126 -54z
M315 573l-72 162l39 15l63 -177h-30zM211 573l-73 162l39 15l64 -177h-30z" />
    <glyph glyph-name="uni020E" unicode="&#x20e;" horiz-adv-x="764" 
d="M377 -7q-95 0 -164.5 41t-107 119t-37.5 189t42.5 196.5t117 133.5t169.5 48q90 0 157.5 -44t104.5 -122.5t37 -184.5q0 -115 -41 -199.5t-113 -130.5t-165 -46zM377 33q81 0 143.5 40t97.5 116t35 184q0 94 -31.5 163t-88.5 106t-135 37q-84 0 -148.5 -41.5t-101.5 -118
t-37 -179.5q0 -148 71.5 -227.5t194.5 -79.5zM499 791q-18 142 -117 142q-98 0 -117 -142h-34q8 83 48 129.5t103 46.5t103 -46.5t48 -129.5h-34z" />
    <glyph glyph-name="uni020F" unicode="&#x20f;" horiz-adv-x="556" 
d="M286 502q96 0 152 -66t56 -180q0 -75 -28 -134.5t-77.5 -94t-113.5 -34.5q-100 0 -157 66t-57 180q0 75 28 134.5t78.5 94t118.5 34.5zM275 31q53 0 92.5 28.5t62 79.5t22.5 117q0 100 -44 154t-121 54q-55 0 -96.5 -29t-64 -79.5t-22.5 -116.5q0 -100 45 -154t126 -54z
M395 573q-18 143 -117 143q-98 0 -117 -143h-34q8 84 48 130t103 46t103 -46t48 -130h-34z" />
    <glyph glyph-name="uni0210" unicode="&#x210;" horiz-adv-x="552" 
d="M567 46l10 -32q-13 -10 -29 -14t-34 -4q-37 0 -66.5 16.5t-62.5 64.5l-151 221q-11 16 -31.5 30.5t-48.5 14.5h-25v-343h-41v710h186q110 0 168.5 -48.5t58.5 -131.5q0 -87 -61.5 -137t-162.5 -50h-45q15 -7 29.5 -21.5t31.5 -39.5l117 -172q22 -33 37.5 -50t31.5 -23
t40 -6q14 0 26 4.5t22 10.5zM270 674h-141v-297h135q94 0 144.5 38t50.5 112q0 67 -44.5 107t-144.5 40zM335 791l-72 161l39 16l63 -177h-30zM231 791l-73 161l39 16l64 -177h-30z" />
    <glyph glyph-name="uni0211" unicode="&#x211;" horiz-adv-x="359" 
d="M335 455q-10 3 -19.5 4t-21.5 1q-87 0 -129.5 -111.5t-42.5 -348.5h-39v315l-1 177h41l-3 -208q22 120 69.5 169t106.5 49q11 0 23.5 -1.5t21.5 -5.5zM247 573l-72 162l39 15l63 -177h-30zM143 573l-73 162l39 15l64 -177h-30z" />
    <glyph glyph-name="uni0212" unicode="&#x212;" horiz-adv-x="552" 
d="M567 46l10 -32q-13 -10 -29 -14t-34 -4q-37 0 -66.5 16.5t-62.5 64.5l-151 221q-11 16 -31.5 30.5t-48.5 14.5h-25v-343h-41v710h186q110 0 168.5 -48.5t58.5 -131.5q0 -87 -61.5 -137t-162.5 -50h-45q15 -7 29.5 -21.5t31.5 -39.5l117 -172q22 -33 37.5 -50t31.5 -23
t40 -6q14 0 26 4.5t22 10.5zM270 674h-141v-297h135q94 0 144.5 38t50.5 112q0 67 -44.5 107t-144.5 40zM415 791q-18 142 -117 142q-98 0 -117 -142h-34q8 83 48 129.5t103 46.5t103 -46.5t48 -129.5h-34z" />
    <glyph glyph-name="uni0213" unicode="&#x213;" horiz-adv-x="359" 
d="M335 455q-10 3 -19.5 4t-21.5 1q-87 0 -129.5 -111.5t-42.5 -348.5h-39v315l-1 177h41l-3 -208q22 120 69.5 169t106.5 49q11 0 23.5 -1.5t21.5 -5.5zM327 573q-18 143 -117 143q-98 0 -117 -143h-34q8 84 48 130t103 46t103 -46t48 -130h-34z" />
    <glyph glyph-name="uni0214" unicode="&#x214;" horiz-adv-x="706" 
d="M578 710h42l1 -364q1 -177 -66 -265t-210 -88q-134 0 -197 75t-63 237v405h44v-404q0 -145 51 -209t165 -64q127 0 181 76.5t53 235.5zM391 791l-72 161l39 16l63 -177h-30zM287 791l-73 161l39 16l64 -177h-30z" />
    <glyph glyph-name="uni0215" unicode="&#x215;" horiz-adv-x="541" 
d="M224 -7q-70 0 -108.5 47t-38.5 136l4 316h40l-3 -308q-1 -76 26 -114.5t87 -38.5q56 0 99 44t67.5 145t23.5 272h38v-492h-40l5 209q-26 -115 -78.5 -165.5t-121.5 -50.5zM308 573l-72 162l39 15l63 -177h-30zM204 573l-73 162l39 15l64 -177h-30z" />
    <glyph glyph-name="uni0216" unicode="&#x216;" horiz-adv-x="706" 
d="M578 710h42l1 -364q1 -177 -66 -265t-210 -88q-134 0 -197 75t-63 237v405h44v-404q0 -145 51 -209t165 -64q127 0 181 76.5t53 235.5zM471 791q-18 142 -117 142q-98 0 -117 -142h-34q8 83 48 129.5t103 46.5t103 -46.5t48 -129.5h-34z" />
    <glyph glyph-name="uni0217" unicode="&#x217;" horiz-adv-x="541" 
d="M224 -7q-70 0 -108.5 47t-38.5 136l4 316h40l-3 -308q-1 -76 26 -114.5t87 -38.5q56 0 99 44t67.5 145t23.5 272h38v-492h-40l5 209q-26 -115 -78.5 -165.5t-121.5 -50.5zM388 573q-18 143 -117 143q-98 0 -117 -143h-34q8 84 48 130t103 46t103 -46t48 -130h-34z" />
    <glyph glyph-name="uni0218" unicode="&#x218;" horiz-adv-x="552" 
d="M288 -7q-110 0 -174 52.5t-76 163.5l40 5q17 -99 66 -140.5t147 -41.5q82 0 129 39.5t47 106.5q0 48 -19 75.5t-59.5 43.5t-104.5 29q-58 12 -104 31.5t-72.5 58t-26.5 107.5q0 56 27 100.5t75 70.5t109 26q88 0 143 -47.5t67 -138.5l-37 -6q-14 80 -56 116.5t-117 36.5
q-77 0 -123 -43t-46 -115q0 -52 20 -83t59 -48t95 -28q74 -15 121 -36t69 -56.5t22 -92.5t-28 -98.5t-77.5 -64.5t-115.5 -23zM242 -281q9 16 15 33t6 32q0 23 -7 38.5t-7 34.5q0 18 9 30t23 12q31 0 31 -48q0 -25 -9.5 -62t-33.5 -70h-27z" />
    <glyph glyph-name="uni0219" unicode="&#x219;" horiz-adv-x="438" 
d="M230 -7q-176 0 -189 146l38 8q8 -62 44 -90.5t107 -28.5q62 0 95 28t33 71q0 42 -31.5 59.5t-96.5 31.5q-77 16 -118 45.5t-41 96.5q0 39 20.5 71t57 50.5t85.5 18.5q63 0 103.5 -31t50.5 -92l-37 -8q-15 97 -118 97q-53 0 -87.5 -29t-34.5 -77t31 -70t98 -36
q81 -18 119.5 -43t38.5 -84q1 -56 -45 -95t-123 -39zM185 -281q9 16 15 33t6 32q0 23 -7 38.5t-7 34.5q0 18 9 30t23 12q31 0 31 -48q0 -25 -9.5 -62t-33.5 -70h-27z" />
    <glyph glyph-name="uni021A" unicode="&#x21a;" horiz-adv-x="527" 
d="M518 710l-3 -36h-230v-674h-43v674h-235v36h511zM225 -281q9 16 15 33t6 32q0 23 -7 38.5t-7 34.5q0 18 9 30t23 12q31 0 31 -48q0 -25 -9.5 -62t-33.5 -70h-27z" />
    <glyph glyph-name="uni021B" unicode="&#x21b;" horiz-adv-x="344" 
d="M248 -7q-77 0 -114 42t-36 114l3 308h-90v35h90l1 104h40l-1 -104h179v-35h-179l-3 -306q-1 -55 26 -87.5t85 -32.5q24 0 44.5 6t40.5 22l16 -32q-19 -18 -46.5 -26t-55.5 -8zM184 -281q9 16 15 33t6 32q0 23 -7 38.5t-7 34.5q0 18 9 30t23 12q31 0 31 -48
q0 -25 -9.5 -62t-33.5 -70h-27z" />
    <glyph glyph-name="uni022A" unicode="&#x22a;" horiz-adv-x="764" 
d="M377 -7q-95 0 -164.5 41t-107 119t-37.5 189t42.5 196.5t117 133.5t169.5 48q90 0 157.5 -44t104.5 -122.5t37 -184.5q0 -115 -41 -199.5t-113 -130.5t-165 -46zM377 33q81 0 143.5 40t97.5 116t35 184q0 94 -31.5 163t-88.5 106t-135 37q-84 0 -148.5 -41.5t-101.5 -118
t-37 -179.5q0 -148 71.5 -227.5t194.5 -79.5zM270 902v31h224v-31h-224zM306 787q-14 0 -22.5 8t-8.5 22q0 13 8.5 21t22.5 8q13 0 21 -8t8 -21q0 -14 -8 -22t-21 -8zM460 787q-14 0 -22.5 8t-8.5 22q0 13 8.5 21t22.5 8q13 0 21 -8t8 -21q0 -30 -29 -30z" />
    <glyph glyph-name="uni022B" unicode="&#x22b;" horiz-adv-x="556" 
d="M286 502q96 0 152 -66t56 -180q0 -75 -28 -134.5t-77.5 -94t-113.5 -34.5q-100 0 -157 66t-57 180q0 75 28 134.5t78.5 94t118.5 34.5zM275 31q53 0 92.5 28.5t62 79.5t22.5 117q0 100 -44 154t-121 54q-55 0 -96.5 -29t-64 -79.5t-22.5 -116.5q0 -100 45 -154t126 -54z
M166 684v31h224v-31h-224zM202 570q-14 0 -22.5 7.5t-8.5 21.5q0 13 8.5 21.5t22.5 8.5q13 0 21 -8.5t8 -21.5q0 -14 -8 -21.5t-21 -7.5zM356 570q-14 0 -22.5 7.5t-8.5 21.5q0 13 8.5 21.5t22.5 8.5q13 0 21 -8.5t8 -21.5q0 -29 -29 -29z" />
    <glyph glyph-name="uni022C" unicode="&#x22c;" horiz-adv-x="764" 
d="M377 -7q-95 0 -164.5 41t-107 119t-37.5 189t42.5 196.5t117 133.5t169.5 48q90 0 157.5 -44t104.5 -122.5t37 -184.5q0 -115 -41 -199.5t-113 -130.5t-165 -46zM377 33q81 0 143.5 40t97.5 116t35 184q0 94 -31.5 163t-88.5 106t-135 37q-84 0 -148.5 -41.5t-101.5 -118
t-37 -179.5q0 -148 71.5 -227.5t194.5 -79.5zM224 931v31h316v-31h-316zM466 788q-19 0 -41 10t-45.5 22.5t-44.5 22.5t-38 10q-22 0 -36 -18t-20 -47l-24 12q7 40 28 63t53 23q19 0 41 -10t45 -23t44.5 -23t38.5 -10q22 0 36 18t20 48l24 -13q-7 -40 -28 -62.5t-53 -22.5z
" />
    <glyph glyph-name="uni022D" unicode="&#x22d;" horiz-adv-x="556" 
d="M286 502q96 0 152 -66t56 -180q0 -75 -28 -134.5t-77.5 -94t-113.5 -34.5q-100 0 -157 66t-57 180q0 75 28 134.5t78.5 94t118.5 34.5zM275 31q53 0 92.5 28.5t62 79.5t22.5 117q0 100 -44 154t-121 54q-55 0 -96.5 -29t-64 -79.5t-22.5 -116.5q0 -100 45 -154t126 -54z
M120 714v30h316v-30h-316zM362 570q-19 0 -41 10t-45.5 23t-44.5 23t-38 10q-22 0 -36 -18t-20 -48l-24 13q7 39 28 62t53 23q19 0 41 -10t45 -23t44.5 -23t38.5 -10q22 0 36 18.5t20 47.5l24 -13q-7 -40 -28 -62.5t-53 -22.5z" />
    <glyph glyph-name="uni0230" unicode="&#x230;" horiz-adv-x="764" 
d="M377 -7q-95 0 -164.5 41t-107 119t-37.5 189t42.5 196.5t117 133.5t169.5 48q90 0 157.5 -44t104.5 -122.5t37 -184.5q0 -115 -41 -199.5t-113 -130.5t-165 -46zM377 33q81 0 143.5 40t97.5 116t35 184q0 94 -31.5 163t-88.5 106t-135 37q-84 0 -148.5 -41.5t-101.5 -118
t-37 -179.5q0 -148 71.5 -227.5t194.5 -79.5zM296 932v31h172v-31h-172zM382 813q-15 0 -23.5 9.5t-8.5 21.5q0 13 9.5 22.5t22.5 9.5q15 0 23.5 -9.5t8.5 -22.5q0 -12 -8.5 -21.5t-23.5 -9.5z" />
    <glyph glyph-name="uni0231" unicode="&#x231;" horiz-adv-x="556" 
d="M286 502q96 0 152 -66t56 -180q0 -75 -28 -134.5t-77.5 -94t-113.5 -34.5q-100 0 -157 66t-57 180q0 75 28 134.5t78.5 94t118.5 34.5zM275 31q53 0 92.5 28.5t62 79.5t22.5 117q0 100 -44 154t-121 54q-55 0 -96.5 -29t-64 -79.5t-22.5 -116.5q0 -100 45 -154t126 -54z
M192 714v31h172v-31h-172zM278 595q-15 0 -23.5 9.5t-8.5 22.5q0 12 9.5 22t22.5 10q15 0 23.5 -10t8.5 -22q0 -13 -8.5 -22.5t-23.5 -9.5z" />
    <glyph glyph-name="uni0232" unicode="&#x232;" horiz-adv-x="522" 
d="M543 710l-261 -386v-324h-42v325l-261 385h48l236 -349l235 349h45zM119 851h287v-30h-287v30z" />
    <glyph glyph-name="uni0233" unicode="&#x233;" horiz-adv-x="547" 
d="M239 -210q-41 0 -82 8.5t-69 24.5l14 38q27 -15 65 -24t75 -9q98 0 141 51t44 167l2 168q-25 -115 -78.5 -165.5t-127.5 -50.5q-69 0 -107.5 47t-38.5 136l4 311h40l-3 -303q-1 -75 26 -114t87 -39q59 0 103 44t68.5 144t24.5 268h38v-439q0 -139 -55.5 -201t-170.5 -62z
M131 634h287v-31h-287v31z" />
    <glyph glyph-name="uni0237" unicode="&#x237;" horiz-adv-x="219" 
d="M-31 -216q-51 0 -86 22l11 36q20 -10 38.5 -15t36.5 -5q70 0 99 45t29 116v509h41v-513q0 -91 -44.5 -143t-124.5 -52z" />
    <glyph glyph-name="uni0259" unicode="&#x259;" horiz-adv-x="530" 
d="M249 502q103 0 161.5 -65.5t58.5 -181.5q0 -76 -28 -135.5t-78 -93t-114 -33.5q-63 0 -110.5 28.5t-71 88.5t-14.5 154h374q-2 99 -49.5 149.5t-130.5 50.5q-49 0 -92.5 -18t-73.5 -61l-29 23q31 45 81.5 69.5t115.5 24.5zM249 28q51 0 90 26.5t62 72t26 101.5h-338
q-4 -71 16.5 -115t58 -64.5t85.5 -20.5z" />
    <glyph glyph-name="uni02B9" unicode="&#x2b9;" horiz-adv-x="643" 
d="M314 573l112 177l41 -15l-114 -162h-39z" />
    <glyph glyph-name="uni02BA" unicode="&#x2ba;" horiz-adv-x="620" 
d="M402 573h-30l64 177l39 -15zM298 573h-30l63 177l39 -15z" />
    <glyph glyph-name="uni02BB" unicode="&#x2bb;" horiz-adv-x="639" 
d="M364 749q-21 -37 -21 -66q0 -23 6.5 -38t6.5 -34q0 -18 -8.5 -30.5t-22.5 -12.5q-15 0 -23.5 13t-8.5 36q0 25 9.5 61.5t33.5 70.5h28z" />
    <glyph glyph-name="uni02BC" unicode="&#x2bc;" horiz-adv-x="148" 
d="M45 564q3 13 6 27.5t3 26.5q0 20 -4.5 35.5t-4.5 33.5q0 13 6.5 20.5t15.5 7.5q25 0 25 -37q0 -25 -8 -57.5t-21 -56.5h-18z" />
    <glyph glyph-name="uni02BE" unicode="&#x2be;" horiz-adv-x="613" 
d="M300 568v32q25 0 45 16.5t20 48.5q0 31 -20 47.5t-45 16.5v31q41 0 69 -26t28 -70q0 -43 -28.5 -69.5t-68.5 -26.5z" />
    <glyph glyph-name="uni02BF" unicode="&#x2bf;" horiz-adv-x="613" 
d="M313 568q-40 0 -68.5 26.5t-28.5 69.5q0 44 28 70t69 26v-31q-25 0 -45 -16.5t-20 -47.5q0 -32 20 -48.5t45 -16.5v-32z" />
    <glyph glyph-name="circumflex" unicode="&#x2c6;" horiz-adv-x="643" 
d="M463 573h-40l-101 136l-101 -136h-40l124 167h34z" />
    <glyph glyph-name="caron" unicode="&#x2c7;" horiz-adv-x="643" 
d="M318 573l-124 167l33 10l108 -146l108 146l33 -10l-124 -167h-34z" />
    <glyph glyph-name="uni02C8" unicode="&#x2c8;" horiz-adv-x="618" 
d="M294 573v176h31v-176h-31z" />
    <glyph glyph-name="uni02C9" unicode="&#x2c9;" horiz-adv-x="627" 
d="M167 635h293v-33h-293v33z" />
    <glyph glyph-name="uni02CA" unicode="&#x2ca;" horiz-adv-x="643" 
d="M303 573l113 177l41 -15l-115 -162h-39z" />
    <glyph glyph-name="uni02CB" unicode="&#x2cb;" horiz-adv-x="641" 
d="M311 573l-114 162l40 15l113 -177h-39z" />
    <glyph glyph-name="uni02CC" unicode="&#x2cc;" horiz-adv-x="618" 
d="M294 -234v133h31v-133h-31z" />
    <glyph glyph-name="breve" unicode="&#x2d8;" horiz-adv-x="643" 
d="M453 749l33 -9q-8 -79 -48 -125.5t-103 -46.5t-103 46.5t-48 125.5l33 9q16 -147 118 -147t118 147z" />
    <glyph glyph-name="dotaccent" unicode="&#x2d9;" horiz-adv-x="647" 
d="M335 595q-15 0 -23.5 9.5t-8.5 22.5q0 12 9.5 22t22.5 10q15 0 23.5 -10t8.5 -22q0 -13 -8.5 -22.5t-23.5 -9.5z" />
    <glyph glyph-name="ring" unicode="&#x2da;" horiz-adv-x="626" 
d="M334 568q-41 0 -68 26.5t-27 67.5t28.5 68.5t70.5 27.5q41 0 67 -26t26 -66q0 -42 -27.5 -70t-69.5 -28zM335 597q30 0 48 19t18 50q0 29 -17.5 46.5t-46.5 17.5q-31 0 -49.5 -19.5t-18.5 -48.5t18.5 -47t47.5 -18z" />
    <glyph glyph-name="ogonek" unicode="&#x2db;" horiz-adv-x="629" 
d="M268 -223q-46 0 -70 25.5t-24 63.5q0 43 34 85t87 64l29 -15q-49 -23 -80.5 -58t-31.5 -73q0 -27 14.5 -43.5t42.5 -16.5q39 0 67 41l20 -23q-13 -22 -37.5 -36t-50.5 -14z" />
    <glyph glyph-name="tilde" unicode="&#x2dc;" horiz-adv-x="633" 
d="M419 570q-19 0 -41 10t-45.5 23t-44.5 23t-38 10q-22 0 -36 -18t-20 -48l-24 13q7 39 28 62t53 23q19 0 41 -10t45 -23t44.5 -23t38.5 -10q22 0 36 18.5t20 47.5l24 -13q-7 -40 -28 -62.5t-53 -22.5z" />
    <glyph glyph-name="hungarumlaut" unicode="&#x2dd;" horiz-adv-x="620" 
d="M402 573h-30l64 177l39 -15zM298 573h-30l63 177l39 -15z" />
    <glyph glyph-name="gravecomb" unicode="&#x300;" 
d="M312 573l-115 162l41 15l113 -177h-39z" />
    <glyph glyph-name="acutecomb" unicode="&#x301;" 
d="M314 573l113 177l41 -15l-115 -162h-39z" />
    <glyph glyph-name="uni0302" unicode="&#x302;" 
d="M463 573h-40l-101 136l-101 -136h-40l124 167h34z" />
    <glyph glyph-name="tildecomb" unicode="&#x303;" 
d="M419 570q-19 0 -41 10t-45.5 23t-44.5 23t-38 10q-22 0 -36 -18t-20 -48l-24 13q7 39 28 62t53 23q19 0 41 -10t45 -23t44.5 -23t38.5 -10q22 0 36 18.5t20 47.5l24 -13q-7 -40 -28 -62.5t-53 -22.5z" />
    <glyph glyph-name="uni0304" unicode="&#x304;" 
d="M173 634h287v-31h-287v31z" />
    <glyph glyph-name="uni0306" unicode="&#x306;" 
d="M453 749l33 -9q-8 -79 -48 -125.5t-103 -46.5t-103 46.5t-48 125.5l33 9q16 -147 118 -147t118 147z" />
    <glyph glyph-name="uni0307" unicode="&#x307;" 
d="M335 595q-15 0 -23.5 9.5t-8.5 22.5q0 12 9.5 22t22.5 10q15 0 23.5 -10t8.5 -22q0 -13 -8.5 -22.5t-23.5 -9.5z" />
    <glyph glyph-name="uni0308" unicode="&#x308;" 
d="M259 570q-14 0 -22.5 7.5t-8.5 21.5q0 13 8.5 21.5t22.5 8.5q13 0 21 -8.5t8 -21.5q0 -14 -8 -21.5t-21 -7.5zM413 570q-14 0 -22.5 7.5t-8.5 21.5q0 13 8.5 21.5t22.5 8.5q13 0 21 -8.5t8 -21.5q0 -29 -29 -29z" />
    <glyph glyph-name="hookabovecomb" unicode="&#x309;" 
d="M342 751q33 0 52 -16t19 -41q0 -24 -9.5 -37t-22.5 -22.5t-22.5 -22.5t-9.5 -39h-28v9q0 26 9 41t20.5 24.5t20.5 19.5t9 25q0 13 -9.5 22t-29.5 9q-37 0 -61 -43l-23 16q31 55 85 55z" />
    <glyph glyph-name="uni030A" unicode="&#x30a;" 
d="M334 568q-41 0 -68 26.5t-27 67.5t28.5 68.5t70.5 27.5q41 0 67 -26t26 -66q0 -42 -27.5 -70t-69.5 -28zM335 597q30 0 48 19t18 50q0 29 -17.5 46.5t-46.5 17.5q-31 0 -49.5 -19.5t-18.5 -48.5t18.5 -47t47.5 -18z" />
    <glyph glyph-name="uni030B" unicode="&#x30b;" 
d="M402 573h-30l64 177l39 -15zM298 573h-30l63 177l39 -15z" />
    <glyph glyph-name="uni030C" unicode="&#x30c;" 
d="M318 573l-124 167l33 10l108 -146l108 146l33 -10l-124 -167h-34z" />
    <glyph glyph-name="uni030F" unicode="&#x30f;" 
d="M372 573l-72 162l39 15l63 -177h-30zM268 573l-73 162l39 15l64 -177h-30z" />
    <glyph glyph-name="uni0311" unicode="&#x311;" 
d="M452 573q-18 143 -117 143q-98 0 -117 -143h-34q8 84 48 130t103 46t103 -46t48 -130h-34z" />
    <glyph glyph-name="uni0312" unicode="&#x312;" 
d="M375 750q-21 -38 -21 -67q0 -23 6.5 -38t6.5 -34q0 -42 -30 -42q-34 0 -34 48q0 25 10 62t34 71h28z" />
    <glyph glyph-name="uni031B" unicode="&#x31b;" 
d="M212 491q52 0 73 26t20 80l36 -4q4 -61 -29 -100t-96 -39h-34l-30 43q17 -2 31.5 -4t28.5 -2z" />
    <glyph glyph-name="dotbelowcomb" unicode="&#x323;" 
d="M323 -167q-14 0 -23 10t-9 22t9.5 22t22.5 10q15 0 23.5 -10t8.5 -22t-8.5 -22t-23.5 -10z" />
    <glyph glyph-name="uni0324" unicode="&#x324;" 
d="M258 -159q-14 0 -22.5 8t-8.5 22q0 13 8.5 21t22.5 8q13 0 21 -8t8 -21q0 -14 -8 -22t-21 -8zM412 -159q-13 0 -22 8t-9 22q0 13 9 21t22 8t21 -8t8 -21q0 -30 -29 -30z" />
    <glyph glyph-name="uni0326" unicode="&#x326;" 
d="M275 -281q9 16 15 33t6 32q0 23 -7 38.5t-7 34.5q0 18 9 30t23 12q31 0 31 -48q0 -25 -9.5 -62t-33.5 -70h-27z" />
    <glyph glyph-name="uni0327" unicode="&#x327;" 
d="M272 -223q-29 0 -48 6t-39 17l15 28q18 -10 34 -15t37 -5q27 0 45.5 13.5t18.5 39.5q0 45 -67 45h-32l58 112h38l-43 -83q37 -4 59 -22.5t22 -50.5q0 -38 -29.5 -61.5t-68.5 -23.5z" />
    <glyph glyph-name="uni0328" unicode="&#x328;" 
d="M268 -223q-46 0 -70 25.5t-24 63.5q0 43 34 85t87 64l29 -15q-49 -23 -80.5 -58t-31.5 -73q0 -27 14.5 -43.5t42.5 -16.5q39 0 67 41l20 -23q-13 -22 -37.5 -36t-50.5 -14z" />
    <glyph glyph-name="uni032E" unicode="&#x32e;" 
d="M429 -101h36q-11 -59 -47 -96t-97 -37q-60 0 -96.5 36t-45.5 97h35q8 -41 34 -69t73 -28q48 0 74 28t34 69z" />
    <glyph glyph-name="uni0331" unicode="&#x331;" 
d="M170 -128h287v-31h-287v31z" />
    <glyph glyph-name="uni0335" unicode="&#x335;" 
d="M125 391v30h320v-30h-320z" />
    <glyph glyph-name="uni0336" unicode="&#x336;" 
d="M13 389v34h697v-34h-697z" />
    <glyph glyph-name="uni0337" unicode="&#x337;" 
d="M408 252l-18 24l163 135l20 -25z" />
    <glyph glyph-name="uni0338" unicode="&#x338;" 
d="M118 -30l-29 18l46 68l12 17l244 362l12 20l46 68l29 -19l-46 -68l-12 -16l-244 -362l-12 -20z" />
    <glyph glyph-name="uni0394" unicode="&#x394;" horiz-adv-x="600" 
d="M16 0l272 710h37l259 -710h-568zM73 36h454l-221 625z" />
    <glyph glyph-name="uni03A9" unicode="&#x3a9;" horiz-adv-x="820" 
d="M423 720q90 0 156.5 -42.5t103.5 -117t37 -170.5q0 -73 -19.5 -140.5t-56 -123t-88.5 -93.5h189v-33h-257v17q96 63 144 160.5t48 222.5q0 83 -32 146.5t-90 99t-135 35.5q-83 0 -146.5 -40.5t-99.5 -111t-36 -160.5q0 -116 48 -206.5t143 -145.5v-17h-257v33h184
q-77 55 -118 139t-41 190q0 103 41.5 184t114.5 127.5t167 46.5z" />
    <glyph glyph-name="pi" unicode="&#x3c0;" horiz-adv-x="603" 
d="M140 0h-44q21 76 39 196t19 262h-110v35h493v-35h-111v-326q0 -53 25.5 -77.5t70.5 -24.5q37 0 71 26l16 -33q-34 -30 -86 -30q-67 0 -102 35t-35 100v330h-190q-3 -149 -18.5 -264t-37.5 -194z" />
    <glyph glyph-name="uni1E08" unicode="&#x1e08;" horiz-adv-x="635" 
d="M627 134q-37 -68 -102 -104.5t-151 -36.5q-94 0 -163 42t-106 120.5t-37 187.5q0 111 41 196t114 133t169 48q78 0 139.5 -33t96.5 -97l-33 -27q-33 58 -82.5 87t-123.5 29q-81 0 -144 -42.5t-98.5 -119t-35.5 -176.5q0 -145 69 -226.5t193 -81.5q79 0 133.5 32.5
t86.5 93.5zM358 -223q-29 0 -48 6t-39 17l15 28q18 -10 34 -15t37 -5q27 0 45.5 13.5t18.5 39.5q0 45 -67 45h-32l58 112h38l-43 -83q37 -4 59 -22.5t22 -50.5q0 -38 -29.5 -61.5t-68.5 -23.5zM362 791l113 177l41 -16l-115 -161h-39z" />
    <glyph glyph-name="uni1E09" unicode="&#x1e09;" horiz-adv-x="483" 
d="M281 -7q-103 0 -161.5 65t-58.5 180q0 76 28.5 136t80 94t120.5 34q63 0 105 -27t64 -67l-31 -24q-22 39 -56.5 59.5t-82.5 20.5q-56 0 -97.5 -29t-64.5 -80t-23 -117q0 -101 46.5 -154t132.5 -53q46 0 83.5 18t62.5 61l30 -23q-25 -45 -70 -69.5t-108 -24.5zM253 -223
q-29 0 -48 6t-39 17l15 28q18 -10 34 -15t37 -5q27 0 45.5 13.5t18.5 39.5q0 45 -67 45h-32l58 112h38l-43 -83q37 -4 59 -22.5t22 -50.5q0 -38 -29.5 -61.5t-68.5 -23.5zM267 573l113 177l41 -15l-115 -162h-39z" />
    <glyph glyph-name="uni1E0C" unicode="&#x1e0c;" horiz-adv-x="723" 
d="M88 0v710h159q408 0 408 -352q0 -171 -99.5 -264.5t-286.5 -93.5h-181zM130 37h135q347 0 347 320q0 159 -88 237.5t-270 78.5h-124v-636zM357 -167q-14 0 -23 10t-9 22t9.5 22t22.5 10q15 0 23.5 -10t8.5 -22t-8.5 -22t-23.5 -10z" />
    <glyph glyph-name="uni1E0D" unicode="&#x1e0d;" horiz-adv-x="559" 
d="M477 740v-740h-40l4 149q-24 -70 -76 -113t-118 -43q-88 0 -137 64t-49 166q0 83 28 145.5t79 98t120 35.5q47 0 88.5 -23t61.5 -71l-1 84v248h40zM289 464q-56 0 -97.5 -29t-64.5 -82t-23 -125q0 -92 39 -144.5t108 -52.5q55 0 97 33.5t66 92t24 132.5q0 82 -40 128.5
t-109 46.5zM304 -167q-14 0 -23 10t-9 22t9.5 22t22.5 10q15 0 23.5 -10t8.5 -22t-8.5 -22t-23.5 -10z" />
    <glyph glyph-name="uni1E0E" unicode="&#x1e0e;" horiz-adv-x="723" 
d="M88 0v710h159q408 0 408 -352q0 -171 -99.5 -264.5t-286.5 -93.5h-181zM130 37h135q347 0 347 320q0 159 -88 237.5t-270 78.5h-124v-636zM214 -128h287v-31h-287v31z" />
    <glyph glyph-name="uni1E0F" unicode="&#x1e0f;" horiz-adv-x="559" 
d="M477 740v-740h-40l4 149q-24 -70 -76 -113t-118 -43q-88 0 -137 64t-49 166q0 83 28 145.5t79 98t120 35.5q47 0 88.5 -23t61.5 -71l-1 84v248h40zM289 464q-56 0 -97.5 -29t-64.5 -82t-23 -125q0 -92 39 -144.5t108 -52.5q55 0 97 33.5t66 92t24 132.5q0 82 -40 128.5
t-109 46.5zM161 -128h287v-31h-287v31z" />
    <glyph glyph-name="uni1E14" unicode="&#x1e14;" horiz-adv-x="526" 
d="M469 674h-340v-295h335v-35h-335v-308h356l-5 -36h-392v710h381v-36zM259 897l-104 147l41 15l101 -162h-38zM192 821v30h172v-30h-172z" />
    <glyph glyph-name="uni1E15" unicode="&#x1e15;" horiz-adv-x="530" 
d="M293 -7q-109 0 -170.5 65.5t-61.5 181.5q0 76 29.5 135.5t81 93t116.5 33.5q62 0 108 -28.5t68.5 -88.5t12.5 -154h-373q1 -99 50.5 -149.5t140.5 -50.5q48 0 88 18t67 61l29 -23q-28 -45 -74.5 -69.5t-111.5 -24.5zM289 467q-52 0 -92.5 -26.5t-65 -72t-27.5 -101.5h338
q3 71 -16 115t-55 64.5t-82 20.5zM269 680l-104 146l41 15l101 -161h-38zM202 603v31h172v-31h-172z" />
    <glyph glyph-name="uni1E16" unicode="&#x1e16;" horiz-adv-x="526" 
d="M469 674h-340v-295h335v-35h-335v-308h356l-5 -36h-392v710h381v-36zM259 897l101 162l41 -15l-104 -147h-38zM192 821v30h172v-30h-172z" />
    <glyph glyph-name="uni1E17" unicode="&#x1e17;" horiz-adv-x="530" 
d="M293 -7q-109 0 -170.5 65.5t-61.5 181.5q0 76 29.5 135.5t81 93t116.5 33.5q62 0 108 -28.5t68.5 -88.5t12.5 -154h-373q1 -99 50.5 -149.5t140.5 -50.5q48 0 88 18t67 61l29 -23q-28 -45 -74.5 -69.5t-111.5 -24.5zM289 467q-52 0 -92.5 -26.5t-65 -72t-27.5 -101.5h338
q3 71 -16 115t-55 64.5t-82 20.5zM269 680l101 161l41 -15l-104 -146h-38zM202 603v31h172v-31h-172z" />
    <glyph glyph-name="uni1E1C" unicode="&#x1e1c;" horiz-adv-x="526" 
d="M469 674h-340v-295h335v-35h-335v-308h356l-5 -36h-392v710h381v-36zM253 -223q-29 0 -48 6t-39 17l15 28q18 -10 34 -15t37 -5q27 0 45.5 13.5t18.5 39.5q0 45 -67 45h-32l58 112h38l-43 -83q37 -4 59 -22.5t22 -50.5q0 -38 -29.5 -61.5t-68.5 -23.5zM396 967l33 -9
q-8 -80 -48 -126t-103 -46t-103 46t-48 126l33 9q16 -148 118 -148t118 148z" />
    <glyph glyph-name="uni1E1D" unicode="&#x1e1d;" horiz-adv-x="530" 
d="M293 -7q-109 0 -170.5 65.5t-61.5 181.5q0 76 29.5 135.5t81 93t116.5 33.5q62 0 108 -28.5t68.5 -88.5t12.5 -154h-373q1 -99 50.5 -149.5t140.5 -50.5q48 0 88 18t67 61l29 -23q-28 -45 -74.5 -69.5t-111.5 -24.5zM289 467q-52 0 -92.5 -26.5t-65 -72t-27.5 -101.5h338
q3 71 -16 115t-55 64.5t-82 20.5zM263 -223q-29 0 -48 6t-39 17l15 28q18 -10 34 -15t37 -5q27 0 45.5 13.5t18.5 39.5q0 45 -67 45h-32l58 112h38l-43 -83q37 -4 59 -22.5t22 -50.5q0 -38 -29.5 -61.5t-68.5 -23.5zM406 749l33 -9q-8 -79 -48 -125.5t-103 -46.5t-103 46.5
t-48 125.5l33 9q16 -147 118 -147t118 147z" />
    <glyph glyph-name="uni1E20" unicode="&#x1e20;" horiz-adv-x="711" 
d="M417 327h224v-327h-30l-8 113q-34 -60 -89.5 -90t-137.5 -30q-95 0 -164 41.5t-106.5 119.5t-37.5 189t41.5 196t116 133t174.5 48q78 0 139 -33.5t96 -97.5l-33 -26q-31 57 -81 86.5t-127 29.5q-84 0 -147.5 -42.5t-99.5 -119t-36 -176.5q0 -149 69.5 -228.5
t197.5 -79.5q110 0 167 57.5t57 153.5v48h-185v35zM239 851h287v-30h-287v30z" />
    <glyph glyph-name="uni1E21" unicode="&#x1e21;" horiz-adv-x="563" 
d="M255 -210q-42 0 -83.5 9t-71.5 27l14 38q31 -19 69.5 -27.5t72.5 -8.5q99 0 142.5 51.5t43.5 166.5l1 101q-26 -67 -77.5 -108t-116.5 -41q-90 0 -139 63t-49 165q0 81 28.5 143.5t79.5 97.5t121 35q53 0 93.5 -25.5t56.5 -64.5l9 81h32v-442q0 -136 -54.5 -198.5
t-171.5 -62.5zM291 464q-56 0 -98.5 -29t-65.5 -81.5t-23 -122.5q0 -91 39.5 -143t109.5 -52q55 0 97.5 33.5t67 91.5t24.5 130q0 81 -40.5 127t-110.5 46zM161 634h287v-31h-287v31z" />
    <glyph glyph-name="uni1E24" unicode="&#x1e24;" horiz-adv-x="701" 
d="M88 0v710h42v-330h441v330h42v-710h-42v343h-441v-343h-42zM350 -167q-14 0 -23 10t-9 22t9.5 22t22.5 10q15 0 23.5 -10t8.5 -22t-8.5 -22t-23.5 -10z" />
    <glyph glyph-name="uni1E25" unicode="&#x1e25;" horiz-adv-x="550" 
d="M82 0v740h40v-248l-5 -215q24 116 78 170.5t129 54.5q72 0 111 -49t38 -144l-2 -309h-40l2 301q0 82 -28 122.5t-89 40.5q-56 0 -100.5 -44t-70 -145.5t-24.5 -274.5h-39zM276 -167q-14 0 -23 10t-9 22t9.5 22t22.5 10q15 0 23.5 -10t8.5 -22t-8.5 -22t-23.5 -10z" />
    <glyph glyph-name="uni1E2A" unicode="&#x1e2a;" horiz-adv-x="701" 
d="M88 0v710h42v-330h441v330h42v-710h-42v343h-441v-343h-42zM458 -101h36q-11 -59 -47 -96t-97 -37q-60 0 -96.5 36t-45.5 97h35q8 -41 34 -69t73 -28q48 0 74 28t34 69z" />
    <glyph glyph-name="uni1E2B" unicode="&#x1e2b;" horiz-adv-x="550" 
d="M82 0v740h40v-248l-5 -215q24 116 78 170.5t129 54.5q72 0 111 -49t38 -144l-2 -309h-40l2 301q0 82 -28 122.5t-89 40.5q-56 0 -100.5 -44t-70 -145.5t-24.5 -274.5h-39zM384 -101h36q-11 -59 -47 -96t-97 -37q-60 0 -96.5 36t-45.5 97h35q8 -41 34 -69t73 -28
q48 0 74 28t34 69z" />
    <glyph glyph-name="uni1E2E" unicode="&#x1e2e;" horiz-adv-x="218" 
d="M88 0v710h42v-710h-42zM91 882l112 177l41 -15l-115 -162h-38zM34 787q-14 0 -22.5 8t-8.5 22q0 13 8.5 21t22.5 8q13 0 21 -8t8 -21q0 -14 -8 -22t-21 -8zM188 787q-14 0 -22.5 8t-8.5 22q0 13 8.5 21t22.5 8q13 0 21 -8t8 -21q0 -30 -29 -30z" />
    <glyph glyph-name="uni1E2F" unicode="&#x1e2f;" horiz-adv-x="204" 
d="M122 492v-492h-40v492h40zM83 664l112 177l41 -15l-115 -162h-38zM26 570q-14 0 -22.5 7.5t-8.5 21.5q0 13 8.5 21.5t22.5 8.5q13 0 21 -8.5t8 -21.5q0 -14 -8 -21.5t-21 -7.5zM180 570q-14 0 -22.5 7.5t-8.5 21.5q0 13 8.5 21.5t22.5 8.5q13 0 21 -8.5t8 -21.5
q0 -29 -29 -29z" />
    <glyph glyph-name="uni1E36" unicode="&#x1e36;" horiz-adv-x="464" 
d="M88 0v710h42v-673h342l-5 -37h-379zM277 -167q-14 0 -23 10t-9 22t9.5 22t22.5 10q15 0 23.5 -10t8.5 -22t-8.5 -22t-23.5 -10z" />
    <glyph glyph-name="uni1E37" unicode="&#x1e37;" horiz-adv-x="248" 
d="M187 -7q-55 0 -80 30.5t-25 77.5v639h40v-631q0 -37 15 -58.5t53 -21.5q17 0 31.5 5t22.5 11l14 -31q-13 -10 -33 -15.5t-38 -5.5zM112 -167q-14 0 -23 10t-9 22t9.5 22t22.5 10q15 0 23.5 -10t8.5 -22t-8.5 -22t-23.5 -10z" />
    <glyph glyph-name="uni1E3A" unicode="&#x1e3a;" horiz-adv-x="464" 
d="M88 0v710h42v-673h342l-5 -37h-379zM133 -128h287v-31h-287v31z" />
    <glyph glyph-name="uni1E3B" unicode="&#x1e3b;" horiz-adv-x="248" 
d="M187 -7q-55 0 -80 30.5t-25 77.5v639h40v-631q0 -37 15 -58.5t53 -21.5q17 0 31.5 5t22.5 11l14 -31q-13 -10 -33 -15.5t-38 -5.5zM-32 -128h287v-31h-287v31z" />
    <glyph glyph-name="uni1E42" unicode="&#x1e42;" horiz-adv-x="901" 
d="M79 0l34 710h47l291 -666l292 666h47l30 -710h-38l-28 642l-283 -642h-41l-281 641l-31 -641h-39zM450 -167q-14 0 -23 10t-9 22t9.5 22t22.5 10q15 0 23.5 -10t8.5 -22t-8.5 -22t-23.5 -10z" />
    <glyph glyph-name="uni1E43" unicode="&#x1e43;" horiz-adv-x="886" 
d="M82 0v492h40l-5 -215q24 117 77 171t125 54q70 0 108 -46.5t39 -147.5q26 100 77 147t120 47q71 0 109 -49t37 -144l-2 -309h-40l2 301q1 163 -114 163q-41 0 -75.5 -24t-60.5 -78t-40.5 -143t-13.5 -219h-39v301q0 85 -27.5 124t-86.5 39q-41 0 -76 -24t-61 -78
t-40 -143t-14 -219h-39zM445 -167q-14 0 -23 10t-9 22t9.5 22t22.5 10q15 0 23.5 -10t8.5 -22t-8.5 -22t-23.5 -10z" />
    <glyph glyph-name="uni1E44" unicode="&#x1e44;" horiz-adv-x="702" 
d="M575 710h39v-710h-33l-453 635v-635h-40v710h34l453 -635v635zM352 812q-15 0 -23.5 9.5t-8.5 21.5q0 13 9.5 22.5t22.5 9.5q15 0 23.5 -9.5t8.5 -22.5q0 -12 -8.5 -21.5t-23.5 -9.5z" />
    <glyph glyph-name="uni1E45" unicode="&#x1e45;" horiz-adv-x="550" 
d="M82 0v492h40l-5 -215q24 116 78 170.5t129 54.5q72 0 111 -49t38 -144l-2 -309h-40l2 301q0 82 -28 122.5t-89 40.5q-56 0 -100.5 -44t-70 -145.5t-24.5 -274.5h-39zM275 595q-15 0 -23.5 9.5t-8.5 22.5q0 12 9.5 22t22.5 10q15 0 23.5 -10t8.5 -22q0 -13 -8.5 -22.5
t-23.5 -9.5z" />
    <glyph glyph-name="uni1E46" unicode="&#x1e46;" horiz-adv-x="702" 
d="M575 710h39v-710h-33l-453 635v-635h-40v710h34l453 -635v635zM352 -167q-14 0 -23 10t-9 22t9.5 22t22.5 10q15 0 23.5 -10t8.5 -22t-8.5 -22t-23.5 -10z" />
    <glyph glyph-name="uni1E47" unicode="&#x1e47;" horiz-adv-x="550" 
d="M82 0v492h40l-5 -215q24 116 78 170.5t129 54.5q72 0 111 -49t38 -144l-2 -309h-40l2 301q0 82 -28 122.5t-89 40.5q-56 0 -100.5 -44t-70 -145.5t-24.5 -274.5h-39zM276 -167q-14 0 -23 10t-9 22t9.5 22t22.5 10q15 0 23.5 -10t8.5 -22t-8.5 -22t-23.5 -10z" />
    <glyph glyph-name="uni1E48" unicode="&#x1e48;" horiz-adv-x="702" 
d="M575 710h39v-710h-33l-453 635v-635h-40v710h34l453 -635v635zM208 -128h287v-31h-287v31z" />
    <glyph glyph-name="uni1E49" unicode="&#x1e49;" horiz-adv-x="550" 
d="M82 0v492h40l-5 -215q24 116 78 170.5t129 54.5q72 0 111 -49t38 -144l-2 -309h-40l2 301q0 82 -28 122.5t-89 40.5q-56 0 -100.5 -44t-70 -145.5t-24.5 -274.5h-39zM133 -128h287v-31h-287v31z" />
    <glyph glyph-name="uni1E4C" unicode="&#x1e4c;" horiz-adv-x="764" 
d="M377 -7q-95 0 -164.5 41t-107 119t-37.5 189t42.5 196.5t117 133.5t169.5 48q90 0 157.5 -44t104.5 -122.5t37 -184.5q0 -115 -41 -199.5t-113 -130.5t-165 -46zM377 33q81 0 143.5 40t97.5 116t35 184q0 94 -31.5 163t-88.5 106t-135 37q-84 0 -148.5 -41.5t-101.5 -118
t-37 -179.5q0 -148 71.5 -227.5t194.5 -79.5zM365 897l102 162l41 -15l-104 -147h-39zM466 788q-19 0 -41 10t-45.5 22.5t-44.5 22.5t-38 10q-22 0 -36 -18t-20 -47l-24 12q7 40 28 63t53 23q19 0 41 -10t45 -23t44.5 -23t38.5 -10q22 0 36 18t20 48l24 -13
q-7 -40 -28 -62.5t-53 -22.5z" />
    <glyph glyph-name="uni1E4D" unicode="&#x1e4d;" horiz-adv-x="556" 
d="M286 502q96 0 152 -66t56 -180q0 -75 -28 -134.5t-77.5 -94t-113.5 -34.5q-100 0 -157 66t-57 180q0 75 28 134.5t78.5 94t118.5 34.5zM275 31q53 0 92.5 28.5t62 79.5t22.5 117q0 100 -44 154t-121 54q-55 0 -96.5 -29t-64 -79.5t-22.5 -116.5q0 -100 45 -154t126 -54z
M261 680l102 161l41 -15l-104 -146h-39zM362 570q-19 0 -41 10t-45.5 23t-44.5 23t-38 10q-22 0 -36 -18t-20 -48l-24 13q7 39 28 62t53 23q19 0 41 -10t45 -23t44.5 -23t38.5 -10q22 0 36 18.5t20 47.5l24 -13q-7 -40 -28 -62.5t-53 -22.5z" />
    <glyph glyph-name="uni1E4E" unicode="&#x1e4e;" horiz-adv-x="764" 
d="M377 -7q-95 0 -164.5 41t-107 119t-37.5 189t42.5 196.5t117 133.5t169.5 48q90 0 157.5 -44t104.5 -122.5t37 -184.5q0 -115 -41 -199.5t-113 -130.5t-165 -46zM377 33q81 0 143.5 40t97.5 116t35 184q0 94 -31.5 163t-88.5 106t-135 37q-84 0 -148.5 -41.5t-101.5 -118
t-37 -179.5q0 -148 71.5 -227.5t194.5 -79.5zM306 957q-14 0 -23 8t-9 22q0 13 9 21t23 8q12 0 20 -8t8 -21q0 -14 -8 -22t-20 -8zM459 957q-13 0 -21.5 8t-8.5 22q0 13 8.5 21t21.5 8t21.5 -8t8.5 -21q0 -30 -30 -30zM466 788q-19 0 -41 10t-45.5 22.5t-44.5 22.5t-38 10
q-22 0 -36 -18t-20 -47l-24 12q7 40 28 63t53 23q19 0 41 -10t45 -23t44.5 -23t38.5 -10q22 0 36 18t20 48l24 -13q-7 -40 -28 -62.5t-53 -22.5z" />
    <glyph glyph-name="uni1E4F" unicode="&#x1e4f;" horiz-adv-x="556" 
d="M286 502q96 0 152 -66t56 -180q0 -75 -28 -134.5t-77.5 -94t-113.5 -34.5q-100 0 -157 66t-57 180q0 75 28 134.5t78.5 94t118.5 34.5zM275 31q53 0 92.5 28.5t62 79.5t22.5 117q0 100 -44 154t-121 54q-55 0 -96.5 -29t-64 -79.5t-22.5 -116.5q0 -100 45 -154t126 -54z
M202 740q-14 0 -23 7.5t-9 22.5q0 13 9 21t23 8q12 0 20 -8t8 -21q0 -15 -8 -22.5t-20 -7.5zM355 740q-13 0 -21.5 7.5t-8.5 22.5q0 13 8.5 21t21.5 8t21.5 -8t8.5 -21q0 -30 -30 -30zM362 570q-19 0 -41 10t-45.5 23t-44.5 23t-38 10q-22 0 -36 -18t-20 -48l-24 13
q7 39 28 62t53 23q19 0 41 -10t45 -23t44.5 -23t38.5 -10q22 0 36 18.5t20 47.5l24 -13q-7 -40 -28 -62.5t-53 -22.5z" />
    <glyph glyph-name="uni1E50" unicode="&#x1e50;" horiz-adv-x="764" 
d="M377 -7q-95 0 -164.5 41t-107 119t-37.5 189t42.5 196.5t117 133.5t169.5 48q90 0 157.5 -44t104.5 -122.5t37 -184.5q0 -115 -41 -199.5t-113 -130.5t-165 -46zM377 33q81 0 143.5 40t97.5 116t35 184q0 94 -31.5 163t-88.5 106t-135 37q-84 0 -148.5 -41.5t-101.5 -118
t-37 -179.5q0 -148 71.5 -227.5t194.5 -79.5zM363 897l-104 147l41 15l101 -162h-38zM296 821v30h172v-30h-172z" />
    <glyph glyph-name="uni1E51" unicode="&#x1e51;" horiz-adv-x="556" 
d="M286 502q96 0 152 -66t56 -180q0 -75 -28 -134.5t-77.5 -94t-113.5 -34.5q-100 0 -157 66t-57 180q0 75 28 134.5t78.5 94t118.5 34.5zM275 31q53 0 92.5 28.5t62 79.5t22.5 117q0 100 -44 154t-121 54q-55 0 -96.5 -29t-64 -79.5t-22.5 -116.5q0 -100 45 -154t126 -54z
M259 680l-104 146l41 15l101 -161h-38zM192 603v31h172v-31h-172z" />
    <glyph glyph-name="uni1E52" unicode="&#x1e52;" horiz-adv-x="764" 
d="M377 -7q-95 0 -164.5 41t-107 119t-37.5 189t42.5 196.5t117 133.5t169.5 48q90 0 157.5 -44t104.5 -122.5t37 -184.5q0 -115 -41 -199.5t-113 -130.5t-165 -46zM377 33q81 0 143.5 40t97.5 116t35 184q0 94 -31.5 163t-88.5 106t-135 37q-84 0 -148.5 -41.5t-101.5 -118
t-37 -179.5q0 -148 71.5 -227.5t194.5 -79.5zM363 897l101 162l41 -15l-104 -147h-38zM296 821v30h172v-30h-172z" />
    <glyph glyph-name="uni1E53" unicode="&#x1e53;" horiz-adv-x="556" 
d="M286 502q96 0 152 -66t56 -180q0 -75 -28 -134.5t-77.5 -94t-113.5 -34.5q-100 0 -157 66t-57 180q0 75 28 134.5t78.5 94t118.5 34.5zM275 31q53 0 92.5 28.5t62 79.5t22.5 117q0 100 -44 154t-121 54q-55 0 -96.5 -29t-64 -79.5t-22.5 -116.5q0 -100 45 -154t126 -54z
M259 680l101 161l41 -15l-104 -146h-38zM192 603v31h172v-31h-172z" />
    <glyph glyph-name="uni1E5A" unicode="&#x1e5a;" horiz-adv-x="552" 
d="M567 46l10 -32q-13 -10 -29 -14t-34 -4q-37 0 -66.5 16.5t-62.5 64.5l-151 221q-11 16 -31.5 30.5t-48.5 14.5h-25v-343h-41v710h186q110 0 168.5 -48.5t58.5 -131.5q0 -87 -61.5 -137t-162.5 -50h-45q15 -7 29.5 -21.5t31.5 -39.5l117 -172q22 -33 37.5 -50t31.5 -23
t40 -6q14 0 26 4.5t22 10.5zM270 674h-141v-297h135q94 0 144.5 38t50.5 112q0 67 -44.5 107t-144.5 40zM298 -167q-14 0 -23 10t-9 22t9.5 22t22.5 10q15 0 23.5 -10t8.5 -22t-8.5 -22t-23.5 -10z" />
    <glyph glyph-name="uni1E5B" unicode="&#x1e5b;" horiz-adv-x="359" 
d="M335 455q-10 3 -19.5 4t-21.5 1q-87 0 -129.5 -111.5t-42.5 -348.5h-39v315l-1 177h41l-3 -208q22 120 69.5 169t106.5 49q11 0 23.5 -1.5t21.5 -5.5zM103 -167q-14 0 -23 10t-9 22t9.5 22t22.5 10q15 0 23.5 -10t8.5 -22t-8.5 -22t-23.5 -10z" />
    <glyph glyph-name="uni1E5E" unicode="&#x1e5e;" horiz-adv-x="552" 
d="M567 46l10 -32q-13 -10 -29 -14t-34 -4q-37 0 -66.5 16.5t-62.5 64.5l-151 221q-11 16 -31.5 30.5t-48.5 14.5h-25v-343h-41v710h186q110 0 168.5 -48.5t58.5 -131.5q0 -87 -61.5 -137t-162.5 -50h-45q15 -7 29.5 -21.5t31.5 -39.5l117 -172q22 -33 37.5 -50t31.5 -23
t40 -6q14 0 26 4.5t22 10.5zM270 674h-141v-297h135q94 0 144.5 38t50.5 112q0 67 -44.5 107t-144.5 40zM154 -128h287v-31h-287v31z" />
    <glyph glyph-name="uni1E5F" unicode="&#x1e5f;" horiz-adv-x="359" 
d="M335 455q-10 3 -19.5 4t-21.5 1q-87 0 -129.5 -111.5t-42.5 -348.5h-39v315l-1 177h41l-3 -208q22 120 69.5 169t106.5 49q11 0 23.5 -1.5t21.5 -5.5zM-41 -128h287v-31h-287v31z" />
    <glyph glyph-name="uni1E60" unicode="&#x1e60;" horiz-adv-x="552" 
d="M288 -7q-110 0 -174 52.5t-76 163.5l40 5q17 -99 66 -140.5t147 -41.5q82 0 129 39.5t47 106.5q0 48 -19 75.5t-59.5 43.5t-104.5 29q-58 12 -104 31.5t-72.5 58t-26.5 107.5q0 56 27 100.5t75 70.5t109 26q88 0 143 -47.5t67 -138.5l-37 -6q-14 80 -56 116.5t-117 36.5
q-77 0 -123 -43t-46 -115q0 -52 20 -83t59 -48t95 -28q74 -15 121 -36t69 -56.5t22 -92.5t-28 -98.5t-77.5 -64.5t-115.5 -23zM281 813q-15 0 -23.5 9.5t-8.5 21.5q0 13 9.5 22.5t22.5 9.5q15 0 23.5 -9.5t8.5 -22.5q0 -12 -8.5 -21.5t-23.5 -9.5z" />
    <glyph glyph-name="uni1E61" unicode="&#x1e61;" horiz-adv-x="438" 
d="M230 -7q-176 0 -189 146l38 8q8 -62 44 -90.5t107 -28.5q62 0 95 28t33 71q0 42 -31.5 59.5t-96.5 31.5q-77 16 -118 45.5t-41 96.5q0 39 20.5 71t57 50.5t85.5 18.5q63 0 103.5 -31t50.5 -92l-37 -8q-15 97 -118 97q-53 0 -87.5 -29t-34.5 -77t31 -70t98 -36
q81 -18 119.5 -43t38.5 -84q1 -56 -45 -95t-123 -39zM224 595q-15 0 -23.5 9.5t-8.5 22.5q0 12 9.5 22t22.5 10q15 0 23.5 -10t8.5 -22q0 -13 -8.5 -22.5t-23.5 -9.5z" />
    <glyph glyph-name="uni1E62" unicode="&#x1e62;" horiz-adv-x="552" 
d="M288 -7q-110 0 -174 52.5t-76 163.5l40 5q17 -99 66 -140.5t147 -41.5q82 0 129 39.5t47 106.5q0 48 -19 75.5t-59.5 43.5t-104.5 29q-58 12 -104 31.5t-72.5 58t-26.5 107.5q0 56 27 100.5t75 70.5t109 26q88 0 143 -47.5t67 -138.5l-37 -6q-14 80 -56 116.5t-117 36.5
q-77 0 -123 -43t-46 -115q0 -52 20 -83t59 -48t95 -28q74 -15 121 -36t69 -56.5t22 -92.5t-28 -98.5t-77.5 -64.5t-115.5 -23zM281 -167q-14 0 -23 10t-9 22t9.5 22t22.5 10q15 0 23.5 -10t8.5 -22t-8.5 -22t-23.5 -10z" />
    <glyph glyph-name="uni1E63" unicode="&#x1e63;" horiz-adv-x="438" 
d="M230 -7q-176 0 -189 146l38 8q8 -62 44 -90.5t107 -28.5q62 0 95 28t33 71q0 42 -31.5 59.5t-96.5 31.5q-77 16 -118 45.5t-41 96.5q0 39 20.5 71t57 50.5t85.5 18.5q63 0 103.5 -31t50.5 -92l-37 -8q-15 97 -118 97q-53 0 -87.5 -29t-34.5 -77t31 -70t98 -36
q81 -18 119.5 -43t38.5 -84q1 -56 -45 -95t-123 -39zM224 -167q-14 0 -23 10t-9 22t9.5 22t22.5 10q15 0 23.5 -10t8.5 -22t-8.5 -22t-23.5 -10z" />
    <glyph glyph-name="uni1E64" unicode="&#x1e64;" horiz-adv-x="552" 
d="M288 -7q-110 0 -174 52.5t-76 163.5l40 5q17 -99 66 -140.5t147 -41.5q82 0 129 39.5t47 106.5q0 48 -19 75.5t-59.5 43.5t-104.5 29q-58 12 -104 31.5t-72.5 58t-26.5 107.5q0 56 27 100.5t75 70.5t109 26q88 0 143 -47.5t67 -138.5l-37 -6q-14 80 -56 116.5t-117 36.5
q-77 0 -123 -43t-46 -115q0 -52 20 -83t59 -48t95 -28q74 -15 121 -36t69 -56.5t22 -92.5t-28 -98.5t-77.5 -64.5t-115.5 -23zM279 949q-15 0 -23.5 10t-8.5 22t9.5 22t22.5 10q15 0 23.5 -10t8.5 -22t-8.5 -22t-23.5 -10zM263 791l112 177l41 -16l-114 -161h-39z" />
    <glyph glyph-name="uni1E65" unicode="&#x1e65;" horiz-adv-x="438" 
d="M230 -7q-176 0 -189 146l38 8q8 -62 44 -90.5t107 -28.5q62 0 95 28t33 71q0 42 -31.5 59.5t-96.5 31.5q-77 16 -118 45.5t-41 96.5q0 39 20.5 71t57 50.5t85.5 18.5q63 0 103.5 -31t50.5 -92l-37 -8q-15 97 -118 97q-53 0 -87.5 -29t-34.5 -77t31 -70t98 -36
q81 -18 119.5 -43t38.5 -84q1 -56 -45 -95t-123 -39zM222 732q-15 0 -23.5 9.5t-8.5 21.5q0 13 9.5 22.5t22.5 9.5q15 0 23.5 -9.5t8.5 -22.5q0 -12 -8.5 -21.5t-23.5 -9.5zM206 573l112 177l41 -15l-114 -162h-39z" />
    <glyph glyph-name="uni1E66" unicode="&#x1e66;" horiz-adv-x="552" 
d="M288 -7q-110 0 -174 52.5t-76 163.5l40 5q17 -99 66 -140.5t147 -41.5q82 0 129 39.5t47 106.5q0 48 -19 75.5t-59.5 43.5t-104.5 29q-58 12 -104 31.5t-72.5 58t-26.5 107.5q0 56 27 100.5t75 70.5t109 26q88 0 143 -47.5t67 -138.5l-37 -6q-14 80 -56 116.5t-117 36.5
q-77 0 -123 -43t-46 -115q0 -52 20 -83t59 -48t95 -28q74 -15 121 -36t69 -56.5t22 -92.5t-28 -98.5t-77.5 -64.5t-115.5 -23zM281 964q-15 0 -23.5 9.5t-8.5 21.5q0 13 9.5 22.5t22.5 9.5q15 0 23.5 -9.5t8.5 -22.5q0 -12 -8.5 -21.5t-23.5 -9.5zM422 958l-124 -167h-34
l-124 167l33 10l108 -146l108 146z" />
    <glyph glyph-name="uni1E67" unicode="&#x1e67;" horiz-adv-x="438" 
d="M230 -7q-176 0 -189 146l38 8q8 -62 44 -90.5t107 -28.5q62 0 95 28t33 71q0 42 -31.5 59.5t-96.5 31.5q-77 16 -118 45.5t-41 96.5q0 39 20.5 71t57 50.5t85.5 18.5q63 0 103.5 -31t50.5 -92l-37 -8q-15 97 -118 97q-53 0 -87.5 -29t-34.5 -77t31 -70t98 -36
q81 -18 119.5 -43t38.5 -84q1 -56 -45 -95t-123 -39zM224 746q-15 0 -23.5 10t-8.5 22t9.5 22t22.5 10q15 0 23.5 -10t8.5 -22t-8.5 -22t-23.5 -10zM365 740l-124 -167h-34l-124 167l33 10l108 -146l108 146z" />
    <glyph glyph-name="uni1E68" unicode="&#x1e68;" horiz-adv-x="552" 
d="M288 -7q-110 0 -174 52.5t-76 163.5l40 5q17 -99 66 -140.5t147 -41.5q82 0 129 39.5t47 106.5q0 48 -19 75.5t-59.5 43.5t-104.5 29q-58 12 -104 31.5t-72.5 58t-26.5 107.5q0 56 27 100.5t75 70.5t109 26q88 0 143 -47.5t67 -138.5l-37 -6q-14 80 -56 116.5t-117 36.5
q-77 0 -123 -43t-46 -115q0 -52 20 -83t59 -48t95 -28q74 -15 121 -36t69 -56.5t22 -92.5t-28 -98.5t-77.5 -64.5t-115.5 -23zM281 -167q-14 0 -23 10t-9 22t9.5 22t22.5 10q15 0 23.5 -10t8.5 -22t-8.5 -22t-23.5 -10zM281 813q-15 0 -23.5 9.5t-8.5 21.5q0 13 9.5 22.5
t22.5 9.5q15 0 23.5 -9.5t8.5 -22.5q0 -12 -8.5 -21.5t-23.5 -9.5z" />
    <glyph glyph-name="uni1E69" unicode="&#x1e69;" horiz-adv-x="438" 
d="M230 -7q-176 0 -189 146l38 8q8 -62 44 -90.5t107 -28.5q62 0 95 28t33 71q0 42 -31.5 59.5t-96.5 31.5q-77 16 -118 45.5t-41 96.5q0 39 20.5 71t57 50.5t85.5 18.5q63 0 103.5 -31t50.5 -92l-37 -8q-15 97 -118 97q-53 0 -87.5 -29t-34.5 -77t31 -70t98 -36
q81 -18 119.5 -43t38.5 -84q1 -56 -45 -95t-123 -39zM224 -167q-14 0 -23 10t-9 22t9.5 22t22.5 10q15 0 23.5 -10t8.5 -22t-8.5 -22t-23.5 -10zM224 595q-15 0 -23.5 9.5t-8.5 22.5q0 12 9.5 22t22.5 10q15 0 23.5 -10t8.5 -22q0 -13 -8.5 -22.5t-23.5 -9.5z" />
    <glyph glyph-name="uni1E6C" unicode="&#x1e6c;" horiz-adv-x="527" 
d="M518 710l-3 -36h-230v-674h-43v674h-235v36h511zM264 -167q-14 0 -23 10t-9 22t9.5 22t22.5 10q15 0 23.5 -10t8.5 -22t-8.5 -22t-23.5 -10z" />
    <glyph glyph-name="uni1E6D" unicode="&#x1e6d;" horiz-adv-x="344" 
d="M248 -7q-77 0 -114 42t-36 114l3 308h-90v35h90l1 104h40l-1 -104h179v-35h-179l-3 -306q-1 -55 26 -87.5t85 -32.5q24 0 44.5 6t40.5 22l16 -32q-19 -18 -46.5 -26t-55.5 -8zM223 -167q-14 0 -23 10t-9 22t9.5 22t22.5 10q15 0 23.5 -10t8.5 -22t-8.5 -22t-23.5 -10z
" />
    <glyph glyph-name="uni1E6E" unicode="&#x1e6e;" horiz-adv-x="527" 
d="M518 710l-3 -36h-230v-674h-43v674h-235v36h511zM120 -128h287v-31h-287v31z" />
    <glyph glyph-name="uni1E6F" unicode="&#x1e6f;" horiz-adv-x="344" 
d="M248 -7q-77 0 -114 42t-36 114l3 308h-90v35h90l1 104h40l-1 -104h179v-35h-179l-3 -306q-1 -55 26 -87.5t85 -32.5q24 0 44.5 6t40.5 22l16 -32q-19 -18 -46.5 -26t-55.5 -8zM79 -128h287v-31h-287v31z" />
    <glyph glyph-name="uni1E78" unicode="&#x1e78;" horiz-adv-x="706" 
d="M578 710h42l1 -364q1 -177 -66 -265t-210 -88q-134 0 -197 75t-63 237v405h44v-404q0 -145 51 -209t165 -64q127 0 181 76.5t53 235.5zM337 897l102 162l41 -15l-104 -147h-39zM438 788q-19 0 -41 10t-45.5 22.5t-44.5 22.5t-38 10q-22 0 -36 -18t-20 -47l-24 12
q7 40 28 63t53 23q19 0 41 -10t45 -23t44.5 -23t38.5 -10q22 0 36 18t20 48l24 -13q-7 -40 -28 -62.5t-53 -22.5z" />
    <glyph glyph-name="uni1E79" unicode="&#x1e79;" horiz-adv-x="541" 
d="M224 -7q-70 0 -108.5 47t-38.5 136l4 316h40l-3 -308q-1 -76 26 -114.5t87 -38.5q56 0 99 44t67.5 145t23.5 272h38v-492h-40l5 209q-26 -115 -78.5 -165.5t-121.5 -50.5zM254 680l102 161l41 -15l-104 -146h-39zM355 570q-19 0 -41 10t-45.5 23t-44.5 23t-38 10
q-22 0 -36 -18t-20 -48l-24 13q7 39 28 62t53 23q19 0 41 -10t45 -23t44.5 -23t38.5 -10q22 0 36 18.5t20 47.5l24 -13q-7 -40 -28 -62.5t-53 -22.5z" />
    <glyph glyph-name="uni1E7A" unicode="&#x1e7a;" horiz-adv-x="706" 
d="M578 710h42l1 -364q1 -177 -66 -265t-210 -88q-134 0 -197 75t-63 237v405h44v-404q0 -145 51 -209t165 -64q127 0 181 76.5t53 235.5zM278 907q-14 0 -22.5 8t-8.5 22q0 13 8.5 21t22.5 8q13 0 21 -8t8 -21q0 -14 -8 -22t-21 -8zM432 907q-14 0 -22.5 8t-8.5 22
q0 13 8.5 21t22.5 8q13 0 21 -8t8 -21q0 -30 -29 -30zM242 821v30h224v-30h-224z" />
    <glyph glyph-name="uni1E7B" unicode="&#x1e7b;" horiz-adv-x="541" 
d="M224 -7q-70 0 -108.5 47t-38.5 136l4 316h40l-3 -308q-1 -76 26 -114.5t87 -38.5q56 0 99 44t67.5 145t23.5 272h38v-492h-40l5 209q-26 -115 -78.5 -165.5t-121.5 -50.5zM195 690q-14 0 -22.5 8t-8.5 22q0 13 8.5 21t22.5 8q13 0 21 -8t8 -21q0 -14 -8 -22t-21 -8z
M349 690q-14 0 -22.5 8t-8.5 22q0 13 8.5 21t22.5 8q13 0 21 -8t8 -21q0 -30 -29 -30zM159 603v31h224v-31h-224z" />
    <glyph glyph-name="Wgrave" unicode="&#x1e80;" horiz-adv-x="902" 
d="M835 710h41l-207 -710h-50l-160 641l-190 -641h-51l-175 710h42l160 -666l197 666h37l167 -667zM442 791l-115 161l41 16l113 -177h-39z" />
    <glyph glyph-name="wgrave" unicode="&#x1e81;" horiz-adv-x="817" 
d="M761 492h42l-190 -492h-43l-147 440l-173 -440h-42l-156 492h42l137 -443l173 443h40l148 -445zM408 573l-115 162l41 15l113 -177h-39z" />
    <glyph glyph-name="Wacute" unicode="&#x1e82;" horiz-adv-x="902" 
d="M835 710h41l-207 -710h-50l-160 641l-190 -641h-51l-175 710h42l160 -666l197 666h37l167 -667zM440 791l113 177l41 -16l-115 -161h-39z" />
    <glyph glyph-name="wacute" unicode="&#x1e83;" horiz-adv-x="817" 
d="M761 492h42l-190 -492h-43l-147 440l-173 -440h-42l-156 492h42l137 -443l173 443h40l148 -445zM406 573l113 177l41 -15l-115 -162h-39z" />
    <glyph glyph-name="Wdieresis" unicode="&#x1e84;" horiz-adv-x="902" 
d="M835 710h41l-207 -710h-50l-160 641l-190 -641h-51l-175 710h42l160 -666l197 666h37l167 -667zM385 787q-14 0 -22.5 8t-8.5 22q0 13 8.5 21t22.5 8q13 0 21 -8t8 -21q0 -14 -8 -22t-21 -8zM539 787q-14 0 -22.5 8t-8.5 22q0 13 8.5 21t22.5 8q13 0 21 -8t8 -21
q0 -30 -29 -30z" />
    <glyph glyph-name="wdieresis" unicode="&#x1e85;" horiz-adv-x="817" 
d="M761 492h42l-190 -492h-43l-147 440l-173 -440h-42l-156 492h42l137 -443l173 443h40l148 -445zM351 570q-14 0 -22.5 7.5t-8.5 21.5q0 13 8.5 21.5t22.5 8.5q13 0 21 -8.5t8 -21.5q0 -14 -8 -21.5t-21 -7.5zM505 570q-14 0 -22.5 7.5t-8.5 21.5q0 13 8.5 21.5t22.5 8.5
q13 0 21 -8.5t8 -21.5q0 -29 -29 -29z" />
    <glyph glyph-name="uni1E8E" unicode="&#x1e8e;" horiz-adv-x="522" 
d="M543 710l-261 -386v-324h-42v325l-261 385h48l236 -349l235 349h45zM262 813q-15 0 -23.5 9.5t-8.5 21.5q0 13 9.5 22.5t22.5 9.5q15 0 23.5 -9.5t8.5 -22.5q0 -12 -8.5 -21.5t-23.5 -9.5z" />
    <glyph glyph-name="uni1E8F" unicode="&#x1e8f;" horiz-adv-x="547" 
d="M239 -210q-41 0 -82 8.5t-69 24.5l14 38q27 -15 65 -24t75 -9q98 0 141 51t44 167l2 168q-25 -115 -78.5 -165.5t-127.5 -50.5q-69 0 -107.5 47t-38.5 136l4 311h40l-3 -303q-1 -75 26 -114t87 -39q59 0 103 44t68.5 144t24.5 268h38v-439q0 -139 -55.5 -201t-170.5 -62z
M275 595q-15 0 -23.5 9.5t-8.5 22.5q0 12 9.5 22t22.5 10q15 0 23.5 -10t8.5 -22q0 -13 -8.5 -22.5t-23.5 -9.5z" />
    <glyph glyph-name="uni1E92" unicode="&#x1e92;" horiz-adv-x="580" 
d="M42 0v30l451 644h-438v36h489v-30l-451 -644h463l-5 -36h-509zM296 -167q-14 0 -23 10t-9 22t9.5 22t22.5 10q15 0 23.5 -10t8.5 -22t-8.5 -22t-23.5 -10z" />
    <glyph glyph-name="uni1E93" unicode="&#x1e93;" horiz-adv-x="450" 
d="M45 0v27l303 430h-289v35h341v-26l-303 -431h300v-35h-352zM230 -167q-14 0 -23 10t-9 22t9.5 22t22.5 10q15 0 23.5 -10t8.5 -22t-8.5 -22t-23.5 -10z" />
    <glyph glyph-name="uni1E97" unicode="&#x1e97;" horiz-adv-x="344" 
d="M248 -7q-77 0 -114 42t-36 114l3 308h-90v35h90l1 104h40l-1 -104h179v-35h-179l-3 -306q-1 -55 26 -87.5t85 -32.5q24 0 44.5 6t40.5 22l16 -32q-19 -18 -46.5 -26t-55.5 -8zM46 674q-14 0 -22.5 7.5t-8.5 21.5q0 13 8.5 21.5t22.5 8.5q13 0 21 -8.5t8 -21.5
q0 -14 -8 -21.5t-21 -7.5zM200 674q-14 0 -22.5 7.5t-8.5 21.5q0 13 8.5 21.5t22.5 8.5q13 0 21 -8.5t8 -21.5q0 -29 -29 -29z" />
    <glyph glyph-name="uni1E9E" unicode="&#x1e9e;" horiz-adv-x="676" 
d="M363 720q69 0 120.5 -24.5t80 -68.5t28.5 -102q0 -61 -32 -103t-82 -63q63 -19 100 -67.5t37 -118.5q0 -84 -54.5 -132t-140.5 -48q-94 0 -150.5 46.5t-69.5 131.5l36 12q15 -78 60.5 -115.5t123.5 -37.5q69 0 111 37.5t42 106.5q0 78 -48.5 122t-134.5 44h-47v35h56
q66 0 108.5 41t42.5 108q0 74 -49.5 116t-137.5 42q-115 0 -174 -58.5t-59 -171.5v-452h-42v452q0 128 70.5 198t204.5 70z" />
    <glyph glyph-name="uni1EA0" unicode="&#x1ea0;" horiz-adv-x="664" 
d="M27 0l290 710h38l278 -710h-43l-81 208h-355l-84 -208h-43zM169 244h327l-160 415zM332 -167q-14 0 -23 10t-9 22t9.5 22t22.5 10q15 0 23.5 -10t8.5 -22t-8.5 -22t-23.5 -10z" />
    <glyph glyph-name="uni1EA1" unicode="&#x1ea1;" horiz-adv-x="559" 
d="M477 493v-493h-40l4 149q-24 -70 -76 -113t-118 -43q-88 0 -137 64t-49 166q0 83 28 145.5t79 98t120 35.5q52 0 92 -25.5t56 -64.5l9 81h32zM289 464q-56 0 -97.5 -29t-64.5 -82t-23 -125q0 -92 39 -144.5t108 -52.5q55 0 97 33.5t66 92t24 132.5q0 82 -40 128.5
t-109 46.5zM304 -167q-14 0 -23 10t-9 22t9.5 22t22.5 10q15 0 23.5 -10t8.5 -22t-8.5 -22t-23.5 -10z" />
    <glyph glyph-name="uni1EA2" unicode="&#x1ea2;" horiz-adv-x="664" 
d="M27 0l290 710h38l278 -710h-43l-81 208h-355l-84 -208h-43zM169 244h327l-160 415zM339 969q33 0 52 -16t19 -41q0 -24 -9.5 -37t-22.5 -22.5t-22.5 -23t-9.5 -38.5h-28v8q0 26 9 41t20.5 25t20.5 19.5t9 25.5q0 13 -9.5 21.5t-29.5 8.5q-37 0 -61 -42l-23 16
q31 55 85 55z" />
    <glyph glyph-name="uni1EA3" unicode="&#x1ea3;" horiz-adv-x="559" 
d="M477 493v-493h-40l4 149q-24 -70 -76 -113t-118 -43q-88 0 -137 64t-49 166q0 83 28 145.5t79 98t120 35.5q52 0 92 -25.5t56 -64.5l9 81h32zM289 464q-56 0 -97.5 -29t-64.5 -82t-23 -125q0 -92 39 -144.5t108 -52.5q55 0 97 33.5t66 92t24 132.5q0 82 -40 128.5
t-109 46.5zM311 751q33 0 52 -16t19 -41q0 -24 -9.5 -37t-22.5 -22.5t-22.5 -22.5t-9.5 -39h-28v9q0 26 9 41t20.5 24.5t20.5 19.5t9 25q0 13 -9.5 22t-29.5 9q-37 0 -61 -43l-23 16q31 55 85 55z" />
    <glyph glyph-name="uni1EA4" unicode="&#x1ea4;" horiz-adv-x="664" 
d="M27 0l290 710h38l278 -710h-43l-81 208h-355l-84 -208h-43zM169 244h327l-160 415zM411 928l111 177l41 -16l-113 -161h-39zM191 791l124 167h34l124 -167h-40l-101 136l-101 -136h-40z" />
    <glyph glyph-name="uni1EA5" unicode="&#x1ea5;" horiz-adv-x="559" 
d="M477 493v-493h-40l4 149q-24 -70 -76 -113t-118 -43q-88 0 -137 64t-49 166q0 83 28 145.5t79 98t120 35.5q52 0 92 -25.5t56 -64.5l9 81h32zM289 464q-56 0 -97.5 -29t-64.5 -82t-23 -125q0 -92 39 -144.5t108 -52.5q55 0 97 33.5t66 92t24 132.5q0 82 -40 128.5
t-109 46.5zM383 710l111 177l41 -15l-113 -162h-39zM163 573l124 167h34l124 -167h-40l-101 136l-101 -136h-40z" />
    <glyph glyph-name="uni1EA6" unicode="&#x1ea6;" horiz-adv-x="664" 
d="M27 0l290 710h38l278 -710h-43l-81 208h-355l-84 -208h-43zM169 244h327l-160 415zM214 928l-113 161l41 16l111 -177h-39zM191 791l124 167h34l124 -167h-40l-101 136l-101 -136h-40z" />
    <glyph glyph-name="uni1EA7" unicode="&#x1ea7;" horiz-adv-x="559" 
d="M477 493v-493h-40l4 149q-24 -70 -76 -113t-118 -43q-88 0 -137 64t-49 166q0 83 28 145.5t79 98t120 35.5q52 0 92 -25.5t56 -64.5l9 81h32zM289 464q-56 0 -97.5 -29t-64.5 -82t-23 -125q0 -92 39 -144.5t108 -52.5q55 0 97 33.5t66 92t24 132.5q0 82 -40 128.5
t-109 46.5zM186 710l-113 162l41 15l111 -177h-39zM163 573l124 167h34l124 -167h-40l-101 136l-101 -136h-40z" />
    <glyph glyph-name="uni1EA8" unicode="&#x1ea8;" horiz-adv-x="664" 
d="M27 0l290 710h38l278 -710h-43l-81 208h-355l-84 -208h-43zM169 244h327l-160 415zM423 928v8q0 26 8.5 41t20.5 25t20.5 19.5t8.5 25.5q0 13 -9.5 21.5t-29.5 8.5q-37 0 -61 -42l-23 16q31 55 86 55q32 0 51 -16t19 -41q0 -24 -9.5 -37t-22.5 -22.5t-22.5 -23
t-9.5 -38.5h-27zM191 791l124 167h34l124 -167h-40l-101 136l-101 -136h-40z" />
    <glyph glyph-name="uni1EA9" unicode="&#x1ea9;" horiz-adv-x="559" 
d="M477 493v-493h-40l4 149q-24 -70 -76 -113t-118 -43q-88 0 -137 64t-49 166q0 83 28 145.5t79 98t120 35.5q52 0 92 -25.5t56 -64.5l9 81h32zM289 464q-56 0 -97.5 -29t-64.5 -82t-23 -125q0 -92 39 -144.5t108 -52.5q55 0 97 33.5t66 92t24 132.5q0 82 -40 128.5
t-109 46.5zM395 710v9q0 26 8.5 41t20.5 24.5t20.5 19.5t8.5 25q0 13 -9.5 22t-29.5 9q-37 0 -61 -43l-23 16q31 55 86 55q32 0 51 -16t19 -41q0 -24 -9.5 -37t-22.5 -22.5t-22.5 -22.5t-9.5 -39h-27zM163 573l124 167h34l124 -167h-40l-101 136l-101 -136h-40z" />
    <glyph glyph-name="uni1EAA" unicode="&#x1eaa;" horiz-adv-x="664" 
d="M27 0l290 710h38l278 -710h-43l-81 208h-355l-84 -208h-43zM169 244h327l-160 415zM469 1059l24 -14q-7 -36 -28 -57t-54 -21q-17 0 -38.5 9t-43.5 21t-42 21t-35 9q-23 0 -37.5 -16t-19.5 -43l-24 13q7 37 28 58t54 21q17 0 38 -9t43 -21t42.5 -21t35.5 -9q22 0 36.5 16
t20.5 43zM191 791l124 162h34l124 -162h-40l-101 131l-101 -131h-40z" />
    <glyph glyph-name="uni1EAB" unicode="&#x1eab;" horiz-adv-x="559" 
d="M477 493v-493h-40l4 149q-24 -70 -76 -113t-118 -43q-88 0 -137 64t-49 166q0 83 28 145.5t79 98t120 35.5q52 0 92 -25.5t56 -64.5l9 81h32zM289 464q-56 0 -97.5 -29t-64.5 -82t-23 -125q0 -92 39 -144.5t108 -52.5q55 0 97 33.5t66 92t24 132.5q0 82 -40 128.5
t-109 46.5zM441 841l24 -14q-7 -36 -28 -57t-54 -21q-17 0 -38.5 9.5t-43.5 21t-42 20.5t-35 9q-23 0 -37.5 -16t-19.5 -43l-24 14q7 36 28 57.5t54 21.5q17 0 38 -9t43 -21t42.5 -21t35.5 -9q22 0 36.5 16t20.5 42zM163 573l124 162h34l124 -162h-40l-101 131l-101 -131
h-40z" />
    <glyph glyph-name="uni1EAC" unicode="&#x1eac;" horiz-adv-x="664" 
d="M27 0l290 710h38l278 -710h-43l-81 208h-355l-84 -208h-43zM169 244h327l-160 415zM332 -167q-14 0 -23 10t-9 22t9.5 22t22.5 10q15 0 23.5 -10t8.5 -22t-8.5 -22t-23.5 -10zM473 791h-40l-101 136l-101 -136h-40l124 167h34z" />
    <glyph glyph-name="uni1EAD" unicode="&#x1ead;" horiz-adv-x="559" 
d="M477 493v-493h-40l4 149q-24 -70 -76 -113t-118 -43q-88 0 -137 64t-49 166q0 83 28 145.5t79 98t120 35.5q52 0 92 -25.5t56 -64.5l9 81h32zM289 464q-56 0 -97.5 -29t-64.5 -82t-23 -125q0 -92 39 -144.5t108 -52.5q55 0 97 33.5t66 92t24 132.5q0 82 -40 128.5
t-109 46.5zM304 -167q-14 0 -23 10t-9 22t9.5 22t22.5 10q15 0 23.5 -10t8.5 -22t-8.5 -22t-23.5 -10zM445 573h-40l-101 136l-101 -136h-40l124 167h34z" />
    <glyph glyph-name="uni1EAE" unicode="&#x1eae;" horiz-adv-x="664" 
d="M27 0l290 710h38l278 -710h-43l-81 208h-355l-84 -208h-43zM169 244h327l-160 415zM313 897l98 162l40 -15l-99 -147h-39zM332 786q-63 0 -103.5 46t-48.5 126l33 9q16 -148 119 -148t119 148l33 -9q-8 -80 -48.5 -126t-103.5 -46z" />
    <glyph glyph-name="uni1EAF" unicode="&#x1eaf;" horiz-adv-x="559" 
d="M477 493v-493h-40l4 149q-24 -70 -76 -113t-118 -43q-88 0 -137 64t-49 166q0 83 28 145.5t79 98t120 35.5q52 0 92 -25.5t56 -64.5l9 81h32zM289 464q-56 0 -97.5 -29t-64.5 -82t-23 -125q0 -92 39 -144.5t108 -52.5q55 0 97 33.5t66 92t24 132.5q0 82 -40 128.5
t-109 46.5zM285 680l98 161l40 -15l-99 -146h-39zM304 568q-63 0 -103.5 46.5t-48.5 125.5l33 9q16 -147 119 -147t119 147l33 -9q-8 -79 -48.5 -125.5t-103.5 -46.5z" />
    <glyph glyph-name="uni1EB0" unicode="&#x1eb0;" horiz-adv-x="664" 
d="M27 0l290 710h38l278 -710h-43l-81 208h-355l-84 -208h-43zM169 244h327l-160 415zM312 897l-99 147l40 15l98 -162h-39zM332 786q-63 0 -103.5 46t-48.5 126l33 9q17 -148 119 -148q103 0 119 148l33 -9q-8 -80 -48.5 -126t-103.5 -46z" />
    <glyph glyph-name="uni1EB1" unicode="&#x1eb1;" horiz-adv-x="559" 
d="M477 493v-493h-40l4 149q-24 -70 -76 -113t-118 -43q-88 0 -137 64t-49 166q0 83 28 145.5t79 98t120 35.5q52 0 92 -25.5t56 -64.5l9 81h32zM289 464q-56 0 -97.5 -29t-64.5 -82t-23 -125q0 -92 39 -144.5t108 -52.5q55 0 97 33.5t66 92t24 132.5q0 82 -40 128.5
t-109 46.5zM284 680l-99 146l40 15l98 -161h-39zM304 568q-63 0 -103.5 46.5t-48.5 125.5l33 9q17 -147 119 -147q103 0 119 147l33 -9q-8 -79 -48.5 -125.5t-103.5 -46.5z" />
    <glyph glyph-name="uni1EB2" unicode="&#x1eb2;" horiz-adv-x="664" 
d="M27 0l290 710h38l278 -710h-43l-81 208h-355l-84 -208h-43zM169 244h327l-160 415zM318 897v9q0 26 9 41t20.5 24.5t20.5 19.5t9 26q0 13 -9.5 21.5t-29.5 8.5q-37 0 -61 -43l-23 17q31 54 85 54q33 0 52 -15.5t19 -40.5t-9.5 -37.5t-22.5 -22t-22.5 -23t-9.5 -39.5h-28z
M332 786q-63 0 -103.5 46t-48.5 126l33 9q17 -148 119 -148q103 0 119 148l33 -9q-8 -80 -48.5 -126t-103.5 -46z" />
    <glyph glyph-name="uni1EB3" unicode="&#x1eb3;" horiz-adv-x="559" 
d="M477 493v-493h-40l4 149q-24 -70 -76 -113t-118 -43q-88 0 -137 64t-49 166q0 83 28 145.5t79 98t120 35.5q52 0 92 -25.5t56 -64.5l9 81h32zM289 464q-56 0 -97.5 -29t-64.5 -82t-23 -125q0 -92 39 -144.5t108 -52.5q55 0 97 33.5t66 92t24 132.5q0 82 -40 128.5
t-109 46.5zM290 680v9q0 26 9 41t20.5 24.5t20.5 19t9 25.5q0 13 -9.5 21.5t-29.5 8.5q-37 0 -61 -42l-23 16q31 55 85 55q33 0 52 -16t19 -41q0 -24 -9.5 -37t-22.5 -22.5t-22.5 -23t-9.5 -38.5h-28zM304 568q-63 0 -103.5 46.5t-48.5 125.5l33 9q17 -147 119 -147
q103 0 119 147l33 -9q-8 -79 -48.5 -125.5t-103.5 -46.5z" />
    <glyph glyph-name="uni1EB4" unicode="&#x1eb4;" horiz-adv-x="664" 
d="M27 0l290 710h38l278 -710h-43l-81 208h-355l-84 -208h-43zM169 244h327l-160 415zM469 1059l24 -14q-7 -36 -28 -57t-54 -21q-17 0 -38.5 9t-43.5 21t-42 21t-35 9q-23 0 -37.5 -16t-19.5 -43l-24 13q7 37 28 58t54 21q17 0 38 -9t43 -21t42.5 -21t35.5 -9q22 0 36.5 16
t20.5 43zM209 940q7 -60 39 -90.5t84 -30.5q54 0 86 30.5t37 90.5l33 -8q-7 -68 -49.5 -107t-106.5 -39t-106.5 39t-49.5 107z" />
    <glyph glyph-name="uni1EB5" unicode="&#x1eb5;" horiz-adv-x="559" 
d="M477 493v-493h-40l4 149q-24 -70 -76 -113t-118 -43q-88 0 -137 64t-49 166q0 83 28 145.5t79 98t120 35.5q52 0 92 -25.5t56 -64.5l9 81h32zM289 464q-56 0 -97.5 -29t-64.5 -82t-23 -125q0 -92 39 -144.5t108 -52.5q55 0 97 33.5t66 92t24 132.5q0 82 -40 128.5
t-109 46.5zM441 841l24 -14q-7 -36 -28 -57t-54 -21q-17 0 -38.5 9.5t-43.5 21t-42 20.5t-35 9q-23 0 -37.5 -16t-19.5 -43l-24 14q7 36 28 57.5t54 21.5q17 0 38 -9t43 -21t42.5 -21t35.5 -9q22 0 36.5 16t20.5 42zM181 723q7 -60 39 -90.5t84 -30.5q54 0 86 30.5t37 90.5
l33 -9q-7 -68 -49.5 -107t-106.5 -39t-106.5 39t-49.5 107z" />
    <glyph glyph-name="uni1EB6" unicode="&#x1eb6;" horiz-adv-x="664" 
d="M27 0l290 710h38l278 -710h-43l-81 208h-355l-84 -208h-43zM169 244h327l-160 415zM332 -167q-14 0 -23 10t-9 22t9.5 22t22.5 10q15 0 23.5 -10t8.5 -22t-8.5 -22t-23.5 -10zM450 967l33 -9q-8 -80 -48 -126t-103 -46t-103 46t-48 126l33 9q16 -148 118 -148t118 148z
" />
    <glyph glyph-name="uni1EB7" unicode="&#x1eb7;" horiz-adv-x="559" 
d="M477 493v-493h-40l4 149q-24 -70 -76 -113t-118 -43q-88 0 -137 64t-49 166q0 83 28 145.5t79 98t120 35.5q52 0 92 -25.5t56 -64.5l9 81h32zM289 464q-56 0 -97.5 -29t-64.5 -82t-23 -125q0 -92 39 -144.5t108 -52.5q55 0 97 33.5t66 92t24 132.5q0 82 -40 128.5
t-109 46.5zM304 -167q-14 0 -23 10t-9 22t9.5 22t22.5 10q15 0 23.5 -10t8.5 -22t-8.5 -22t-23.5 -10zM422 749l33 -9q-8 -79 -48 -125.5t-103 -46.5t-103 46.5t-48 125.5l33 9q16 -147 118 -147t118 147z" />
    <glyph glyph-name="uni1EB8" unicode="&#x1eb8;" horiz-adv-x="526" 
d="M469 674h-340v-295h335v-35h-335v-308h356l-5 -36h-392v710h381v-36zM278 -167q-14 0 -23 10t-9 22t9.5 22t22.5 10q15 0 23.5 -10t8.5 -22t-8.5 -22t-23.5 -10z" />
    <glyph glyph-name="uni1EB9" unicode="&#x1eb9;" horiz-adv-x="530" 
d="M293 -7q-109 0 -170.5 65.5t-61.5 181.5q0 76 29.5 135.5t81 93t116.5 33.5q62 0 108 -28.5t68.5 -88.5t12.5 -154h-373q1 -99 50.5 -149.5t140.5 -50.5q48 0 88 18t67 61l29 -23q-28 -45 -74.5 -69.5t-111.5 -24.5zM289 467q-52 0 -92.5 -26.5t-65 -72t-27.5 -101.5h338
q3 71 -16 115t-55 64.5t-82 20.5zM288 -167q-14 0 -23 10t-9 22t9.5 22t22.5 10q15 0 23.5 -10t8.5 -22t-8.5 -22t-23.5 -10z" />
    <glyph glyph-name="uni1EBA" unicode="&#x1eba;" horiz-adv-x="526" 
d="M469 674h-340v-295h335v-35h-335v-308h356l-5 -36h-392v710h381v-36zM285 969q33 0 52 -16t19 -41q0 -24 -9.5 -37t-22.5 -22.5t-22.5 -23t-9.5 -38.5h-28v8q0 26 9 41t20.5 25t20.5 19.5t9 25.5q0 13 -9.5 21.5t-29.5 8.5q-37 0 -61 -42l-23 16q31 55 85 55z" />
    <glyph glyph-name="uni1EBB" unicode="&#x1ebb;" horiz-adv-x="530" 
d="M293 -7q-109 0 -170.5 65.5t-61.5 181.5q0 76 29.5 135.5t81 93t116.5 33.5q62 0 108 -28.5t68.5 -88.5t12.5 -154h-373q1 -99 50.5 -149.5t140.5 -50.5q48 0 88 18t67 61l29 -23q-28 -45 -74.5 -69.5t-111.5 -24.5zM289 467q-52 0 -92.5 -26.5t-65 -72t-27.5 -101.5h338
q3 71 -16 115t-55 64.5t-82 20.5zM295 751q33 0 52 -16t19 -41q0 -24 -9.5 -37t-22.5 -22.5t-22.5 -22.5t-9.5 -39h-28v9q0 26 9 41t20.5 24.5t20.5 19.5t9 25q0 13 -9.5 22t-29.5 9q-37 0 -61 -43l-23 16q31 55 85 55z" />
    <glyph glyph-name="uni1EBC" unicode="&#x1ebc;" horiz-adv-x="526" 
d="M469 674h-340v-295h335v-35h-335v-308h356l-5 -36h-392v710h381v-36zM362 788q-19 0 -41 10t-45.5 22.5t-44.5 22.5t-38 10q-22 0 -36 -18t-20 -47l-24 12q7 40 28 63t53 23q19 0 41 -10t45 -23t44.5 -23t38.5 -10q22 0 36 18t20 48l24 -13q-7 -40 -28 -62.5t-53 -22.5z
" />
    <glyph glyph-name="uni1EBD" unicode="&#x1ebd;" horiz-adv-x="530" 
d="M293 -7q-109 0 -170.5 65.5t-61.5 181.5q0 76 29.5 135.5t81 93t116.5 33.5q62 0 108 -28.5t68.5 -88.5t12.5 -154h-373q1 -99 50.5 -149.5t140.5 -50.5q48 0 88 18t67 61l29 -23q-28 -45 -74.5 -69.5t-111.5 -24.5zM289 467q-52 0 -92.5 -26.5t-65 -72t-27.5 -101.5h338
q3 71 -16 115t-55 64.5t-82 20.5zM372 570q-19 0 -41 10t-45.5 23t-44.5 23t-38 10q-22 0 -36 -18t-20 -48l-24 13q7 39 28 62t53 23q19 0 41 -10t45 -23t44.5 -23t38.5 -10q22 0 36 18.5t20 47.5l24 -13q-7 -40 -28 -62.5t-53 -22.5z" />
    <glyph glyph-name="uni1EBE" unicode="&#x1ebe;" horiz-adv-x="526" 
d="M469 674h-340v-295h335v-35h-335v-308h356l-5 -36h-392v710h381v-36zM357 928l111 177l41 -16l-113 -161h-39zM137 791l124 167h34l124 -167h-40l-101 136l-101 -136h-40z" />
    <glyph glyph-name="uni1EBF" unicode="&#x1ebf;" horiz-adv-x="530" 
d="M293 -7q-109 0 -170.5 65.5t-61.5 181.5q0 76 29.5 135.5t81 93t116.5 33.5q62 0 108 -28.5t68.5 -88.5t12.5 -154h-373q1 -99 50.5 -149.5t140.5 -50.5q48 0 88 18t67 61l29 -23q-28 -45 -74.5 -69.5t-111.5 -24.5zM289 467q-52 0 -92.5 -26.5t-65 -72t-27.5 -101.5h338
q3 71 -16 115t-55 64.5t-82 20.5zM367 710l111 177l41 -15l-113 -162h-39zM147 573l124 167h34l124 -167h-40l-101 136l-101 -136h-40z" />
    <glyph glyph-name="uni1EC0" unicode="&#x1ec0;" horiz-adv-x="526" 
d="M469 674h-340v-295h335v-35h-335v-308h356l-5 -36h-392v710h381v-36zM160 928l-113 161l41 16l111 -177h-39zM137 791l124 167h34l124 -167h-40l-101 136l-101 -136h-40z" />
    <glyph glyph-name="uni1EC1" unicode="&#x1ec1;" horiz-adv-x="530" 
d="M293 -7q-109 0 -170.5 65.5t-61.5 181.5q0 76 29.5 135.5t81 93t116.5 33.5q62 0 108 -28.5t68.5 -88.5t12.5 -154h-373q1 -99 50.5 -149.5t140.5 -50.5q48 0 88 18t67 61l29 -23q-28 -45 -74.5 -69.5t-111.5 -24.5zM289 467q-52 0 -92.5 -26.5t-65 -72t-27.5 -101.5h338
q3 71 -16 115t-55 64.5t-82 20.5zM170 710l-113 162l41 15l111 -177h-39zM147 573l124 167h34l124 -167h-40l-101 136l-101 -136h-40z" />
    <glyph glyph-name="uni1EC2" unicode="&#x1ec2;" horiz-adv-x="526" 
d="M469 674h-340v-295h335v-35h-335v-308h356l-5 -36h-392v710h381v-36zM369 928v8q0 26 8.5 41t20.5 25t20.5 19.5t8.5 25.5q0 13 -9.5 21.5t-29.5 8.5q-37 0 -61 -42l-23 16q31 55 86 55q32 0 51 -16t19 -41q0 -24 -9.5 -37t-22.5 -22.5t-22.5 -23t-9.5 -38.5h-27z
M137 791l124 167h34l124 -167h-40l-101 136l-101 -136h-40z" />
    <glyph glyph-name="uni1EC3" unicode="&#x1ec3;" horiz-adv-x="530" 
d="M293 -7q-109 0 -170.5 65.5t-61.5 181.5q0 76 29.5 135.5t81 93t116.5 33.5q62 0 108 -28.5t68.5 -88.5t12.5 -154h-373q1 -99 50.5 -149.5t140.5 -50.5q48 0 88 18t67 61l29 -23q-28 -45 -74.5 -69.5t-111.5 -24.5zM289 467q-52 0 -92.5 -26.5t-65 -72t-27.5 -101.5h338
q3 71 -16 115t-55 64.5t-82 20.5zM379 710v9q0 26 8.5 41t20.5 24.5t20.5 19.5t8.5 25q0 13 -9.5 22t-29.5 9q-37 0 -61 -43l-23 16q31 55 86 55q32 0 51 -16t19 -41q0 -24 -9.5 -37t-22.5 -22.5t-22.5 -22.5t-9.5 -39h-27zM147 573l124 167h34l124 -167h-40l-101 136
l-101 -136h-40z" />
    <glyph glyph-name="uni1EC4" unicode="&#x1ec4;" horiz-adv-x="526" 
d="M469 674h-340v-295h335v-35h-335v-308h356l-5 -36h-392v710h381v-36zM415 1059l24 -14q-7 -36 -28 -57t-54 -21q-17 0 -38.5 9t-43.5 21t-42 21t-35 9q-23 0 -37.5 -16t-19.5 -43l-24 13q7 37 28 58t54 21q17 0 38 -9t43 -21t42.5 -21t35.5 -9q22 0 36.5 16t20.5 43z
M137 791l124 162h34l124 -162h-40l-101 131l-101 -131h-40z" />
    <glyph glyph-name="uni1EC5" unicode="&#x1ec5;" horiz-adv-x="530" 
d="M293 -7q-109 0 -170.5 65.5t-61.5 181.5q0 76 29.5 135.5t81 93t116.5 33.5q62 0 108 -28.5t68.5 -88.5t12.5 -154h-373q1 -99 50.5 -149.5t140.5 -50.5q48 0 88 18t67 61l29 -23q-28 -45 -74.5 -69.5t-111.5 -24.5zM289 467q-52 0 -92.5 -26.5t-65 -72t-27.5 -101.5h338
q3 71 -16 115t-55 64.5t-82 20.5zM425 841l24 -14q-7 -36 -28 -57t-54 -21q-17 0 -38.5 9.5t-43.5 21t-42 20.5t-35 9q-23 0 -37.5 -16t-19.5 -43l-24 14q7 36 28 57.5t54 21.5q17 0 38 -9t43 -21t42.5 -21t35.5 -9q22 0 36.5 16t20.5 42zM147 573l124 162h34l124 -162h-40
l-101 131l-101 -131h-40z" />
    <glyph glyph-name="uni1EC6" unicode="&#x1ec6;" horiz-adv-x="526" 
d="M469 674h-340v-295h335v-35h-335v-308h356l-5 -36h-392v710h381v-36zM278 -167q-14 0 -23 10t-9 22t9.5 22t22.5 10q15 0 23.5 -10t8.5 -22t-8.5 -22t-23.5 -10zM419 791h-40l-101 136l-101 -136h-40l124 167h34z" />
    <glyph glyph-name="uni1EC7" unicode="&#x1ec7;" horiz-adv-x="530" 
d="M293 -7q-109 0 -170.5 65.5t-61.5 181.5q0 76 29.5 135.5t81 93t116.5 33.5q62 0 108 -28.5t68.5 -88.5t12.5 -154h-373q1 -99 50.5 -149.5t140.5 -50.5q48 0 88 18t67 61l29 -23q-28 -45 -74.5 -69.5t-111.5 -24.5zM289 467q-52 0 -92.5 -26.5t-65 -72t-27.5 -101.5h338
q3 71 -16 115t-55 64.5t-82 20.5zM288 -167q-14 0 -23 10t-9 22t9.5 22t22.5 10q15 0 23.5 -10t8.5 -22t-8.5 -22t-23.5 -10zM429 573h-40l-101 136l-101 -136h-40l124 167h34z" />
    <glyph glyph-name="uni1EC8" unicode="&#x1ec8;" horiz-adv-x="218" 
d="M88 0v710h42v-710h-42zM117 969q33 0 52 -16t19 -41q0 -24 -9.5 -37t-22.5 -22.5t-22.5 -23t-9.5 -38.5h-28v8q0 26 9 41t20.5 25t20.5 19.5t9 25.5q0 13 -9.5 21.5t-29.5 8.5q-37 0 -61 -42l-23 16q31 55 85 55z" />
    <glyph glyph-name="uni1EC9" unicode="&#x1ec9;" horiz-adv-x="204" 
d="M122 492v-492h-40v492h40zM109 751q33 0 52 -16t19 -41q0 -24 -9.5 -37t-22.5 -22.5t-22.5 -22.5t-9.5 -39h-28v9q0 26 9 41t20.5 24.5t20.5 19.5t9 25q0 13 -9.5 22t-29.5 9q-37 0 -61 -43l-23 16q31 55 85 55z" />
    <glyph glyph-name="uni1ECA" unicode="&#x1eca;" horiz-adv-x="218" 
d="M88 0v710h42v-710h-42zM109 -167q-14 0 -23 10t-9 22t9.5 22t22.5 10q15 0 23.5 -10t8.5 -22t-8.5 -22t-23.5 -10z" />
    <glyph glyph-name="uni1ECB" unicode="&#x1ecb;" horiz-adv-x="204" 
d="M122 492v-492h-40v492h40zM102 628q-14 0 -22.5 10t-8.5 22t9 22t22 10q15 0 23.5 -10t8.5 -22t-8.5 -22t-23.5 -10zM102 -167q-14 0 -23 10t-9 22t9.5 22t22.5 10q15 0 23.5 -10t8.5 -22t-8.5 -22t-23.5 -10z" />
    <glyph glyph-name="uni1ECC" unicode="&#x1ecc;" horiz-adv-x="764" 
d="M377 -7q-95 0 -164.5 41t-107 119t-37.5 189t42.5 196.5t117 133.5t169.5 48q90 0 157.5 -44t104.5 -122.5t37 -184.5q0 -115 -41 -199.5t-113 -130.5t-165 -46zM377 33q81 0 143.5 40t97.5 116t35 184q0 94 -31.5 163t-88.5 106t-135 37q-84 0 -148.5 -41.5t-101.5 -118
t-37 -179.5q0 -148 71.5 -227.5t194.5 -79.5zM382 -167q-14 0 -23 10t-9 22t9.5 22t22.5 10q15 0 23.5 -10t8.5 -22t-8.5 -22t-23.5 -10z" />
    <glyph glyph-name="uni1ECD" unicode="&#x1ecd;" horiz-adv-x="556" 
d="M286 502q96 0 152 -66t56 -180q0 -75 -28 -134.5t-77.5 -94t-113.5 -34.5q-100 0 -157 66t-57 180q0 75 28 134.5t78.5 94t118.5 34.5zM275 31q53 0 92.5 28.5t62 79.5t22.5 117q0 100 -44 154t-121 54q-55 0 -96.5 -29t-64 -79.5t-22.5 -116.5q0 -100 45 -154t126 -54z
M278 -167q-14 0 -23 10t-9 22t9.5 22t22.5 10q15 0 23.5 -10t8.5 -22t-8.5 -22t-23.5 -10z" />
    <glyph glyph-name="uni1ECE" unicode="&#x1ece;" horiz-adv-x="764" 
d="M377 -7q-95 0 -164.5 41t-107 119t-37.5 189t42.5 196.5t117 133.5t169.5 48q90 0 157.5 -44t104.5 -122.5t37 -184.5q0 -115 -41 -199.5t-113 -130.5t-165 -46zM377 33q81 0 143.5 40t97.5 116t35 184q0 94 -31.5 163t-88.5 106t-135 37q-84 0 -148.5 -41.5t-101.5 -118
t-37 -179.5q0 -148 71.5 -227.5t194.5 -79.5zM389 969q33 0 52 -16t19 -41q0 -24 -9.5 -37t-22.5 -22.5t-22.5 -23t-9.5 -38.5h-28v8q0 26 9 41t20.5 25t20.5 19.5t9 25.5q0 13 -9.5 21.5t-29.5 8.5q-37 0 -61 -42l-23 16q31 55 85 55z" />
    <glyph glyph-name="uni1ECF" unicode="&#x1ecf;" horiz-adv-x="556" 
d="M286 502q96 0 152 -66t56 -180q0 -75 -28 -134.5t-77.5 -94t-113.5 -34.5q-100 0 -157 66t-57 180q0 75 28 134.5t78.5 94t118.5 34.5zM275 31q53 0 92.5 28.5t62 79.5t22.5 117q0 100 -44 154t-121 54q-55 0 -96.5 -29t-64 -79.5t-22.5 -116.5q0 -100 45 -154t126 -54z
M285 751q33 0 52 -16t19 -41q0 -24 -9.5 -37t-22.5 -22.5t-22.5 -22.5t-9.5 -39h-28v9q0 26 9 41t20.5 24.5t20.5 19.5t9 25q0 13 -9.5 22t-29.5 9q-37 0 -61 -43l-23 16q31 55 85 55z" />
    <glyph glyph-name="uni1ED0" unicode="&#x1ed0;" horiz-adv-x="764" 
d="M377 -7q-95 0 -164.5 41t-107 119t-37.5 189t42.5 196.5t117 133.5t169.5 48q90 0 157.5 -44t104.5 -122.5t37 -184.5q0 -115 -41 -199.5t-113 -130.5t-165 -46zM377 33q81 0 143.5 40t97.5 116t35 184q0 94 -31.5 163t-88.5 106t-135 37q-84 0 -148.5 -41.5t-101.5 -118
t-37 -179.5q0 -148 71.5 -227.5t194.5 -79.5zM461 928l111 177l41 -16l-113 -161h-39zM241 791l124 167h34l124 -167h-40l-101 136l-101 -136h-40z" />
    <glyph glyph-name="uni1ED1" unicode="&#x1ed1;" horiz-adv-x="556" 
d="M286 502q96 0 152 -66t56 -180q0 -75 -28 -134.5t-77.5 -94t-113.5 -34.5q-100 0 -157 66t-57 180q0 75 28 134.5t78.5 94t118.5 34.5zM275 31q53 0 92.5 28.5t62 79.5t22.5 117q0 100 -44 154t-121 54q-55 0 -96.5 -29t-64 -79.5t-22.5 -116.5q0 -100 45 -154t126 -54z
M357 710l111 177l41 -15l-113 -162h-39zM137 573l124 167h34l124 -167h-40l-101 136l-101 -136h-40z" />
    <glyph glyph-name="uni1ED2" unicode="&#x1ed2;" horiz-adv-x="764" 
d="M377 -7q-95 0 -164.5 41t-107 119t-37.5 189t42.5 196.5t117 133.5t169.5 48q90 0 157.5 -44t104.5 -122.5t37 -184.5q0 -115 -41 -199.5t-113 -130.5t-165 -46zM377 33q81 0 143.5 40t97.5 116t35 184q0 94 -31.5 163t-88.5 106t-135 37q-84 0 -148.5 -41.5t-101.5 -118
t-37 -179.5q0 -148 71.5 -227.5t194.5 -79.5zM264 928l-113 161l41 16l111 -177h-39zM241 791l124 167h34l124 -167h-40l-101 136l-101 -136h-40z" />
    <glyph glyph-name="uni1ED3" unicode="&#x1ed3;" horiz-adv-x="556" 
d="M286 502q96 0 152 -66t56 -180q0 -75 -28 -134.5t-77.5 -94t-113.5 -34.5q-100 0 -157 66t-57 180q0 75 28 134.5t78.5 94t118.5 34.5zM275 31q53 0 92.5 28.5t62 79.5t22.5 117q0 100 -44 154t-121 54q-55 0 -96.5 -29t-64 -79.5t-22.5 -116.5q0 -100 45 -154t126 -54z
M160 710l-113 162l41 15l111 -177h-39zM137 573l124 167h34l124 -167h-40l-101 136l-101 -136h-40z" />
    <glyph glyph-name="uni1ED4" unicode="&#x1ed4;" horiz-adv-x="764" 
d="M377 -7q-95 0 -164.5 41t-107 119t-37.5 189t42.5 196.5t117 133.5t169.5 48q90 0 157.5 -44t104.5 -122.5t37 -184.5q0 -115 -41 -199.5t-113 -130.5t-165 -46zM377 33q81 0 143.5 40t97.5 116t35 184q0 94 -31.5 163t-88.5 106t-135 37q-84 0 -148.5 -41.5t-101.5 -118
t-37 -179.5q0 -148 71.5 -227.5t194.5 -79.5zM473 928v8q0 26 8.5 41t20.5 25t20.5 19.5t8.5 25.5q0 13 -9.5 21.5t-29.5 8.5q-37 0 -61 -42l-23 16q31 55 86 55q32 0 51 -16t19 -41q0 -24 -9.5 -37t-22.5 -22.5t-22.5 -23t-9.5 -38.5h-27zM241 791l124 167h34l124 -167h-40
l-101 136l-101 -136h-40z" />
    <glyph glyph-name="uni1ED5" unicode="&#x1ed5;" horiz-adv-x="556" 
d="M286 502q96 0 152 -66t56 -180q0 -75 -28 -134.5t-77.5 -94t-113.5 -34.5q-100 0 -157 66t-57 180q0 75 28 134.5t78.5 94t118.5 34.5zM275 31q53 0 92.5 28.5t62 79.5t22.5 117q0 100 -44 154t-121 54q-55 0 -96.5 -29t-64 -79.5t-22.5 -116.5q0 -100 45 -154t126 -54z
M369 710v9q0 26 8.5 41t20.5 24.5t20.5 19.5t8.5 25q0 13 -9.5 22t-29.5 9q-37 0 -61 -43l-23 16q31 55 86 55q32 0 51 -16t19 -41q0 -24 -9.5 -37t-22.5 -22.5t-22.5 -22.5t-9.5 -39h-27zM137 573l124 167h34l124 -167h-40l-101 136l-101 -136h-40z" />
    <glyph glyph-name="uni1ED6" unicode="&#x1ed6;" horiz-adv-x="764" 
d="M377 -7q-95 0 -164.5 41t-107 119t-37.5 189t42.5 196.5t117 133.5t169.5 48q90 0 157.5 -44t104.5 -122.5t37 -184.5q0 -115 -41 -199.5t-113 -130.5t-165 -46zM377 33q81 0 143.5 40t97.5 116t35 184q0 94 -31.5 163t-88.5 106t-135 37q-84 0 -148.5 -41.5t-101.5 -118
t-37 -179.5q0 -148 71.5 -227.5t194.5 -79.5zM519 1059l24 -14q-7 -36 -28 -57t-54 -21q-17 0 -38.5 9t-43.5 21t-42 21t-35 9q-23 0 -37.5 -16t-19.5 -43l-24 13q7 37 28 58t54 21q17 0 38 -9t43 -21t42.5 -21t35.5 -9q22 0 36.5 16t20.5 43zM241 791l124 162h34l124 -162
h-40l-101 131l-101 -131h-40z" />
    <glyph glyph-name="uni1ED7" unicode="&#x1ed7;" horiz-adv-x="556" 
d="M286 502q96 0 152 -66t56 -180q0 -75 -28 -134.5t-77.5 -94t-113.5 -34.5q-100 0 -157 66t-57 180q0 75 28 134.5t78.5 94t118.5 34.5zM275 31q53 0 92.5 28.5t62 79.5t22.5 117q0 100 -44 154t-121 54q-55 0 -96.5 -29t-64 -79.5t-22.5 -116.5q0 -100 45 -154t126 -54z
M415 841l24 -14q-7 -36 -28 -57t-54 -21q-17 0 -38.5 9.5t-43.5 21t-42 20.5t-35 9q-23 0 -37.5 -16t-19.5 -43l-24 14q7 36 28 57.5t54 21.5q17 0 38 -9t43 -21t42.5 -21t35.5 -9q22 0 36.5 16t20.5 42zM137 573l124 162h34l124 -162h-40l-101 131l-101 -131h-40z" />
    <glyph glyph-name="uni1ED8" unicode="&#x1ed8;" horiz-adv-x="764" 
d="M377 -7q-95 0 -164.5 41t-107 119t-37.5 189t42.5 196.5t117 133.5t169.5 48q90 0 157.5 -44t104.5 -122.5t37 -184.5q0 -115 -41 -199.5t-113 -130.5t-165 -46zM377 33q81 0 143.5 40t97.5 116t35 184q0 94 -31.5 163t-88.5 106t-135 37q-84 0 -148.5 -41.5t-101.5 -118
t-37 -179.5q0 -148 71.5 -227.5t194.5 -79.5zM382 -167q-14 0 -23 10t-9 22t9.5 22t22.5 10q15 0 23.5 -10t8.5 -22t-8.5 -22t-23.5 -10zM523 791h-40l-101 136l-101 -136h-40l124 167h34z" />
    <glyph glyph-name="uni1ED9" unicode="&#x1ed9;" horiz-adv-x="556" 
d="M286 502q96 0 152 -66t56 -180q0 -75 -28 -134.5t-77.5 -94t-113.5 -34.5q-100 0 -157 66t-57 180q0 75 28 134.5t78.5 94t118.5 34.5zM275 31q53 0 92.5 28.5t62 79.5t22.5 117q0 100 -44 154t-121 54q-55 0 -96.5 -29t-64 -79.5t-22.5 -116.5q0 -100 45 -154t126 -54z
M278 -167q-14 0 -23 10t-9 22t9.5 22t22.5 10q15 0 23.5 -10t8.5 -22t-8.5 -22t-23.5 -10zM419 573h-40l-101 136l-101 -136h-40l124 167h34z" />
    <glyph glyph-name="uni1EDA" unicode="&#x1eda;" horiz-adv-x="764" 
d="M377 -7q-95 0 -164.5 41t-107 119t-37.5 189t42.5 196.5t117 133.5t169.5 48q90 0 157.5 -44t104.5 -122.5t37 -184.5q0 -115 -41 -199.5t-113 -130.5t-165 -46zM377 33q81 0 143.5 40t97.5 116t35 184q0 94 -31.5 163t-88.5 106t-135 37q-84 0 -148.5 -41.5t-101.5 -118
t-37 -179.5q0 -148 71.5 -227.5t194.5 -79.5zM568 707q53 0 75 27t21 81l34 -4q4 -61 -29.5 -100.5t-93.5 -39.5h-90l-34 45q39 -4 67 -6.5t50 -2.5zM361 791l113 177l41 -16l-115 -161h-39z" />
    <glyph glyph-name="uni1EDB" unicode="&#x1edb;" horiz-adv-x="556" 
d="M286 502q96 0 152 -66t56 -180q0 -75 -28 -134.5t-77.5 -94t-113.5 -34.5q-100 0 -157 66t-57 180q0 75 28 134.5t78.5 94t118.5 34.5zM275 31q53 0 92.5 28.5t62 79.5t22.5 117q0 100 -44 154t-121 54q-55 0 -96.5 -29t-64 -79.5t-22.5 -116.5q0 -100 45 -154t126 -54z
M393 491q52 0 73 26t20 80l36 -4q4 -61 -29 -100t-96 -39h-34l-30 43q17 -2 31.5 -4t28.5 -2zM257 573l113 177l41 -15l-115 -162h-39z" />
    <glyph glyph-name="uni1EDC" unicode="&#x1edc;" horiz-adv-x="764" 
d="M377 -7q-95 0 -164.5 41t-107 119t-37.5 189t42.5 196.5t117 133.5t169.5 48q90 0 157.5 -44t104.5 -122.5t37 -184.5q0 -115 -41 -199.5t-113 -130.5t-165 -46zM377 33q81 0 143.5 40t97.5 116t35 184q0 94 -31.5 163t-88.5 106t-135 37q-84 0 -148.5 -41.5t-101.5 -118
t-37 -179.5q0 -148 71.5 -227.5t194.5 -79.5zM568 707q53 0 75 27t21 81l34 -4q4 -61 -29.5 -100.5t-93.5 -39.5h-90l-34 45q39 -4 67 -6.5t50 -2.5zM363 791l-115 161l41 16l113 -177h-39z" />
    <glyph glyph-name="uni1EDD" unicode="&#x1edd;" horiz-adv-x="556" 
d="M286 502q96 0 152 -66t56 -180q0 -75 -28 -134.5t-77.5 -94t-113.5 -34.5q-100 0 -157 66t-57 180q0 75 28 134.5t78.5 94t118.5 34.5zM275 31q53 0 92.5 28.5t62 79.5t22.5 117q0 100 -44 154t-121 54q-55 0 -96.5 -29t-64 -79.5t-22.5 -116.5q0 -100 45 -154t126 -54z
M393 491q52 0 73 26t20 80l36 -4q4 -61 -29 -100t-96 -39h-34l-30 43q17 -2 31.5 -4t28.5 -2zM259 573l-115 162l41 15l113 -177h-39z" />
    <glyph glyph-name="uni1EDE" unicode="&#x1ede;" horiz-adv-x="764" 
d="M377 -7q-95 0 -164.5 41t-107 119t-37.5 189t42.5 196.5t117 133.5t169.5 48q90 0 157.5 -44t104.5 -122.5t37 -184.5q0 -115 -41 -199.5t-113 -130.5t-165 -46zM377 33q81 0 143.5 40t97.5 116t35 184q0 94 -31.5 163t-88.5 106t-135 37q-84 0 -148.5 -41.5t-101.5 -118
t-37 -179.5q0 -148 71.5 -227.5t194.5 -79.5zM568 707q53 0 75 27t21 81l34 -4q4 -61 -29.5 -100.5t-93.5 -39.5h-90l-34 45q39 -4 67 -6.5t50 -2.5zM389 969q33 0 52 -16t19 -41q0 -24 -9.5 -37t-22.5 -22.5t-22.5 -23t-9.5 -38.5h-28v8q0 26 9 41t20.5 25t20.5 19.5
t9 25.5q0 13 -9.5 21.5t-29.5 8.5q-37 0 -61 -42l-23 16q31 55 85 55z" />
    <glyph glyph-name="uni1EDF" unicode="&#x1edf;" horiz-adv-x="556" 
d="M286 502q96 0 152 -66t56 -180q0 -75 -28 -134.5t-77.5 -94t-113.5 -34.5q-100 0 -157 66t-57 180q0 75 28 134.5t78.5 94t118.5 34.5zM275 31q53 0 92.5 28.5t62 79.5t22.5 117q0 100 -44 154t-121 54q-55 0 -96.5 -29t-64 -79.5t-22.5 -116.5q0 -100 45 -154t126 -54z
M393 491q52 0 73 26t20 80l36 -4q4 -61 -29 -100t-96 -39h-34l-30 43q17 -2 31.5 -4t28.5 -2zM285 751q33 0 52 -16t19 -41q0 -24 -9.5 -37t-22.5 -22.5t-22.5 -22.5t-9.5 -39h-28v9q0 26 9 41t20.5 24.5t20.5 19.5t9 25q0 13 -9.5 22t-29.5 9q-37 0 -61 -43l-23 16
q31 55 85 55z" />
    <glyph glyph-name="uni1EE0" unicode="&#x1ee0;" horiz-adv-x="764" 
d="M377 -7q-95 0 -164.5 41t-107 119t-37.5 189t42.5 196.5t117 133.5t169.5 48q90 0 157.5 -44t104.5 -122.5t37 -184.5q0 -115 -41 -199.5t-113 -130.5t-165 -46zM377 33q81 0 143.5 40t97.5 116t35 184q0 94 -31.5 163t-88.5 106t-135 37q-84 0 -148.5 -41.5t-101.5 -118
t-37 -179.5q0 -148 71.5 -227.5t194.5 -79.5zM568 707q53 0 75 27t21 81l34 -4q4 -61 -29.5 -100.5t-93.5 -39.5h-90l-34 45q39 -4 67 -6.5t50 -2.5zM466 788q-19 0 -41 10t-45.5 22.5t-44.5 22.5t-38 10q-22 0 -36 -18t-20 -47l-24 12q7 40 28 63t53 23q19 0 41 -10t45 -23
t44.5 -23t38.5 -10q22 0 36 18t20 48l24 -13q-7 -40 -28 -62.5t-53 -22.5z" />
    <glyph glyph-name="uni1EE1" unicode="&#x1ee1;" horiz-adv-x="556" 
d="M286 502q96 0 152 -66t56 -180q0 -75 -28 -134.5t-77.5 -94t-113.5 -34.5q-100 0 -157 66t-57 180q0 75 28 134.5t78.5 94t118.5 34.5zM275 31q53 0 92.5 28.5t62 79.5t22.5 117q0 100 -44 154t-121 54q-55 0 -96.5 -29t-64 -79.5t-22.5 -116.5q0 -100 45 -154t126 -54z
M393 491q52 0 73 26t20 80l36 -4q4 -61 -29 -100t-96 -39h-34l-30 43q17 -2 31.5 -4t28.5 -2zM362 570q-19 0 -41 10t-45.5 23t-44.5 23t-38 10q-22 0 -36 -18t-20 -48l-24 13q7 39 28 62t53 23q19 0 41 -10t45 -23t44.5 -23t38.5 -10q22 0 36 18.5t20 47.5l24 -13
q-7 -40 -28 -62.5t-53 -22.5z" />
    <glyph glyph-name="uni1EE2" unicode="&#x1ee2;" horiz-adv-x="764" 
d="M377 -7q-95 0 -164.5 41t-107 119t-37.5 189t42.5 196.5t117 133.5t169.5 48q90 0 157.5 -44t104.5 -122.5t37 -184.5q0 -115 -41 -199.5t-113 -130.5t-165 -46zM377 33q81 0 143.5 40t97.5 116t35 184q0 94 -31.5 163t-88.5 106t-135 37q-84 0 -148.5 -41.5t-101.5 -118
t-37 -179.5q0 -148 71.5 -227.5t194.5 -79.5zM568 707q53 0 75 27t21 81l34 -4q4 -61 -29.5 -100.5t-93.5 -39.5h-90l-34 45q39 -4 67 -6.5t50 -2.5zM382 -167q-14 0 -23 10t-9 22t9.5 22t22.5 10q15 0 23.5 -10t8.5 -22t-8.5 -22t-23.5 -10z" />
    <glyph glyph-name="uni1EE3" unicode="&#x1ee3;" horiz-adv-x="556" 
d="M286 502q96 0 152 -66t56 -180q0 -75 -28 -134.5t-77.5 -94t-113.5 -34.5q-100 0 -157 66t-57 180q0 75 28 134.5t78.5 94t118.5 34.5zM275 31q53 0 92.5 28.5t62 79.5t22.5 117q0 100 -44 154t-121 54q-55 0 -96.5 -29t-64 -79.5t-22.5 -116.5q0 -100 45 -154t126 -54z
M393 491q52 0 73 26t20 80l36 -4q4 -61 -29 -100t-96 -39h-34l-30 43q17 -2 31.5 -4t28.5 -2zM278 -167q-14 0 -23 10t-9 22t9.5 22t22.5 10q15 0 23.5 -10t8.5 -22t-8.5 -22t-23.5 -10z" />
    <glyph glyph-name="uni1EE4" unicode="&#x1ee4;" horiz-adv-x="706" 
d="M578 710h42l1 -364q1 -177 -66 -265t-210 -88q-134 0 -197 75t-63 237v405h44v-404q0 -145 51 -209t165 -64q127 0 181 76.5t53 235.5zM354 -167q-14 0 -23 10t-9 22t9.5 22t22.5 10q15 0 23.5 -10t8.5 -22t-8.5 -22t-23.5 -10z" />
    <glyph glyph-name="uni1EE5" unicode="&#x1ee5;" horiz-adv-x="541" 
d="M224 -7q-70 0 -108.5 47t-38.5 136l4 316h40l-3 -308q-1 -76 26 -114.5t87 -38.5q56 0 99 44t67.5 145t23.5 272h38v-492h-40l5 209q-26 -115 -78.5 -165.5t-121.5 -50.5zM271 -167q-14 0 -23 10t-9 22t9.5 22t22.5 10q15 0 23.5 -10t8.5 -22t-8.5 -22t-23.5 -10z" />
    <glyph glyph-name="uni1EE6" unicode="&#x1ee6;" horiz-adv-x="706" 
d="M578 710h42l1 -364q1 -177 -66 -265t-210 -88q-134 0 -197 75t-63 237v405h44v-404q0 -145 51 -209t165 -64q127 0 181 76.5t53 235.5zM361 969q33 0 52 -16t19 -41q0 -24 -9.5 -37t-22.5 -22.5t-22.5 -23t-9.5 -38.5h-28v8q0 26 9 41t20.5 25t20.5 19.5t9 25.5
q0 13 -9.5 21.5t-29.5 8.5q-37 0 -61 -42l-23 16q31 55 85 55z" />
    <glyph glyph-name="uni1EE7" unicode="&#x1ee7;" horiz-adv-x="541" 
d="M224 -7q-70 0 -108.5 47t-38.5 136l4 316h40l-3 -308q-1 -76 26 -114.5t87 -38.5q56 0 99 44t67.5 145t23.5 272h38v-492h-40l5 209q-26 -115 -78.5 -165.5t-121.5 -50.5zM278 751q33 0 52 -16t19 -41q0 -24 -9.5 -37t-22.5 -22.5t-22.5 -22.5t-9.5 -39h-28v9q0 26 9 41
t20.5 24.5t20.5 19.5t9 25q0 13 -9.5 22t-29.5 9q-37 0 -61 -43l-23 16q31 55 85 55z" />
    <glyph glyph-name="uni1EE8" unicode="&#x1ee8;" horiz-adv-x="706" 
d="M742 811q3 -63 -28.5 -99.5t-93.5 -36.5l1 -329q1 -177 -66 -265t-210 -88q-134 0 -197 75t-63 237v405h44v-404q0 -145 51 -209t165 -64q127 0 181 76.5t53 235.5l-1 365h26q57 0 80 21.5t24 83.5zM333 791l113 177l41 -16l-115 -161h-39z" />
    <glyph glyph-name="uni1EE9" unicode="&#x1ee9;" horiz-adv-x="541" 
d="M570 593q2 -57 -26.5 -93t-84.5 -41v-459h-40l4 208q-25 -115 -77.5 -165t-121.5 -50q-70 0 -108.5 47t-38.5 136l4 316h40l-3 -308q-1 -76 26 -114.5t87 -38.5q56 0 99 44t67.5 145t23.5 272h22q52 0 72.5 25.5t19.5 79.5zM251 573l113 177l41 -15l-115 -162h-39z" />
    <glyph glyph-name="uni1EEA" unicode="&#x1eea;" horiz-adv-x="706" 
d="M742 811q3 -63 -28.5 -99.5t-93.5 -36.5l1 -329q1 -177 -66 -265t-210 -88q-134 0 -197 75t-63 237v405h44v-404q0 -145 51 -209t165 -64q127 0 181 76.5t53 235.5l-1 365h26q57 0 80 21.5t24 83.5zM335 791l-115 161l41 16l113 -177h-39z" />
    <glyph glyph-name="uni1EEB" unicode="&#x1eeb;" horiz-adv-x="541" 
d="M570 593q2 -57 -26.5 -93t-84.5 -41v-459h-40l4 208q-25 -115 -77.5 -165t-121.5 -50q-70 0 -108.5 47t-38.5 136l4 316h40l-3 -308q-1 -76 26 -114.5t87 -38.5q56 0 99 44t67.5 145t23.5 272h22q52 0 72.5 25.5t19.5 79.5zM253 573l-115 162l41 15l113 -177h-39z" />
    <glyph glyph-name="uni1EEC" unicode="&#x1eec;" horiz-adv-x="706" 
d="M742 811q3 -63 -28.5 -99.5t-93.5 -36.5l1 -329q1 -177 -66 -265t-210 -88q-134 0 -197 75t-63 237v405h44v-404q0 -145 51 -209t165 -64q127 0 181 76.5t53 235.5l-1 365h26q57 0 80 21.5t24 83.5zM361 969q33 0 52 -16t19 -41q0 -24 -9.5 -37t-22.5 -22.5t-22.5 -23
t-9.5 -38.5h-28v8q0 26 9 41t20.5 25t20.5 19.5t9 25.5q0 13 -9.5 21.5t-29.5 8.5q-37 0 -61 -42l-23 16q31 55 85 55z" />
    <glyph glyph-name="uni1EED" unicode="&#x1eed;" horiz-adv-x="541" 
d="M570 593q2 -57 -26.5 -93t-84.5 -41v-459h-40l4 208q-25 -115 -77.5 -165t-121.5 -50q-70 0 -108.5 47t-38.5 136l4 316h40l-3 -308q-1 -76 26 -114.5t87 -38.5q56 0 99 44t67.5 145t23.5 272h22q52 0 72.5 25.5t19.5 79.5zM279 751q33 0 52 -16t19 -41q0 -24 -9.5 -37
t-22.5 -22.5t-22.5 -22.5t-9.5 -39h-28v9q0 26 9 41t20.5 24.5t20.5 19.5t9 25q0 13 -9.5 22t-29.5 9q-37 0 -61 -43l-23 16q31 55 85 55z" />
    <glyph glyph-name="uni1EEE" unicode="&#x1eee;" horiz-adv-x="706" 
d="M742 811q3 -63 -28.5 -99.5t-93.5 -36.5l1 -329q1 -177 -66 -265t-210 -88q-134 0 -197 75t-63 237v405h44v-404q0 -145 51 -209t165 -64q127 0 181 76.5t53 235.5l-1 365h26q57 0 80 21.5t24 83.5zM438 788q-19 0 -41 10t-45.5 22.5t-44.5 22.5t-38 10q-22 0 -36 -18
t-20 -47l-24 12q7 40 28 63t53 23q19 0 41 -10t45 -23t44.5 -23t38.5 -10q22 0 36 18t20 48l24 -13q-7 -40 -28 -62.5t-53 -22.5z" />
    <glyph glyph-name="uni1EEF" unicode="&#x1eef;" horiz-adv-x="541" 
d="M570 593q2 -57 -26.5 -93t-84.5 -41v-459h-40l4 208q-25 -115 -77.5 -165t-121.5 -50q-70 0 -108.5 47t-38.5 136l4 316h40l-3 -308q-1 -76 26 -114.5t87 -38.5q56 0 99 44t67.5 145t23.5 272h22q52 0 72.5 25.5t19.5 79.5zM356 570q-19 0 -41 10t-45.5 23t-44.5 23
t-38 10q-22 0 -36 -18t-20 -48l-24 13q7 39 28 62t53 23q19 0 41 -10t45 -23t44.5 -23t38.5 -10q22 0 36 18.5t20 47.5l24 -13q-7 -40 -28 -62.5t-53 -22.5z" />
    <glyph glyph-name="uni1EF0" unicode="&#x1ef0;" horiz-adv-x="706" 
d="M742 811q3 -63 -28.5 -99.5t-93.5 -36.5l1 -329q1 -177 -66 -265t-210 -88q-134 0 -197 75t-63 237v405h44v-404q0 -145 51 -209t165 -64q127 0 181 76.5t53 235.5l-1 365h26q57 0 80 21.5t24 83.5zM354 -167q-14 0 -23 10t-9 22t9.5 22t22.5 10q15 0 23.5 -10t8.5 -22
t-8.5 -22t-23.5 -10z" />
    <glyph glyph-name="uni1EF1" unicode="&#x1ef1;" horiz-adv-x="541" 
d="M570 593q2 -57 -26.5 -93t-84.5 -41v-459h-40l4 208q-25 -115 -77.5 -165t-121.5 -50q-70 0 -108.5 47t-38.5 136l4 316h40l-3 -308q-1 -76 26 -114.5t87 -38.5q56 0 99 44t67.5 145t23.5 272h22q52 0 72.5 25.5t19.5 79.5zM272 -167q-14 0 -23 10t-9 22t9.5 22t22.5 10
q15 0 23.5 -10t8.5 -22t-8.5 -22t-23.5 -10z" />
    <glyph glyph-name="Ygrave" unicode="&#x1ef2;" horiz-adv-x="522" 
d="M543 710l-261 -386v-324h-42v325l-261 385h48l236 -349l235 349h45zM243 791l-115 161l41 16l113 -177h-39z" />
    <glyph glyph-name="ygrave" unicode="&#x1ef3;" horiz-adv-x="547" 
d="M239 -210q-41 0 -82 8.5t-69 24.5l14 38q27 -15 65 -24t75 -9q98 0 141 51t44 167l2 168q-25 -115 -78.5 -165.5t-127.5 -50.5q-69 0 -107.5 47t-38.5 136l4 311h40l-3 -303q-1 -75 26 -114t87 -39q59 0 103 44t68.5 144t24.5 268h38v-439q0 -139 -55.5 -201t-170.5 -62z
M256 573l-115 162l41 15l113 -177h-39z" />
    <glyph glyph-name="uni1EF4" unicode="&#x1ef4;" horiz-adv-x="522" 
d="M543 710l-261 -386v-324h-42v325l-261 385h48l236 -349l235 349h45zM262 -167q-14 0 -23 10t-9 22t9.5 22t22.5 10q15 0 23.5 -10t8.5 -22t-8.5 -22t-23.5 -10z" />
    <glyph glyph-name="uni1EF5" unicode="&#x1ef5;" horiz-adv-x="547" 
d="M239 -210q-41 0 -82 8.5t-69 24.5l14 38q27 -15 65 -24t75 -9q98 0 141 51t44 167l2 168q-25 -115 -78.5 -165.5t-127.5 -50.5q-69 0 -107.5 47t-38.5 136l4 311h40l-3 -303q-1 -75 26 -114t87 -39q59 0 103 44t68.5 144t24.5 268h38v-439q0 -139 -55.5 -201t-170.5 -62z
M487 -167q-14 0 -23 10t-9 22t9.5 22t22.5 10q15 0 23.5 -10t8.5 -22t-8.5 -22t-23.5 -10z" />
    <glyph glyph-name="uni1EF6" unicode="&#x1ef6;" horiz-adv-x="522" 
d="M543 710l-261 -386v-324h-42v325l-261 385h48l236 -349l235 349h45zM269 969q33 0 52 -16t19 -41q0 -24 -9.5 -37t-22.5 -22.5t-22.5 -23t-9.5 -38.5h-28v8q0 26 9 41t20.5 25t20.5 19.5t9 25.5q0 13 -9.5 21.5t-29.5 8.5q-37 0 -61 -42l-23 16q31 55 85 55z" />
    <glyph glyph-name="uni1EF7" unicode="&#x1ef7;" horiz-adv-x="547" 
d="M239 -210q-41 0 -82 8.5t-69 24.5l14 38q27 -15 65 -24t75 -9q98 0 141 51t44 167l2 168q-25 -115 -78.5 -165.5t-127.5 -50.5q-69 0 -107.5 47t-38.5 136l4 311h40l-3 -303q-1 -75 26 -114t87 -39q59 0 103 44t68.5 144t24.5 268h38v-439q0 -139 -55.5 -201t-170.5 -62z
M282 751q33 0 52 -16t19 -41q0 -24 -9.5 -37t-22.5 -22.5t-22.5 -22.5t-9.5 -39h-28v9q0 26 9 41t20.5 24.5t20.5 19.5t9 25q0 13 -9.5 22t-29.5 9q-37 0 -61 -43l-23 16q31 55 85 55z" />
    <glyph glyph-name="uni1EF8" unicode="&#x1ef8;" horiz-adv-x="522" 
d="M543 710l-261 -386v-324h-42v325l-261 385h48l236 -349l235 349h45zM346 788q-19 0 -41 10t-45.5 22.5t-44.5 22.5t-38 10q-22 0 -36 -18t-20 -47l-24 12q7 40 28 63t53 23q19 0 41 -10t45 -23t44.5 -23t38.5 -10q22 0 36 18t20 48l24 -13q-7 -40 -28 -62.5t-53 -22.5z
" />
    <glyph glyph-name="uni1EF9" unicode="&#x1ef9;" horiz-adv-x="547" 
d="M239 -210q-41 0 -82 8.5t-69 24.5l14 38q27 -15 65 -24t75 -9q98 0 141 51t44 167l2 168q-25 -115 -78.5 -165.5t-127.5 -50.5q-69 0 -107.5 47t-38.5 136l4 311h40l-3 -303q-1 -75 26 -114t87 -39q59 0 103 44t68.5 144t24.5 268h38v-439q0 -139 -55.5 -201t-170.5 -62z
M359 570q-19 0 -41 10t-45.5 23t-44.5 23t-38 10q-22 0 -36 -18t-20 -48l-24 13q7 39 28 62t53 23q19 0 41 -10t45 -23t44.5 -23t38.5 -10q22 0 36 18.5t20 47.5l24 -13q-7 -40 -28 -62.5t-53 -22.5z" />
    <glyph glyph-name="uni2007" unicode="&#x2007;" horiz-adv-x="600" 
 />
    <glyph glyph-name="uni2008" unicode="&#x2008;" horiz-adv-x="138" 
 />
    <glyph glyph-name="uni2009" unicode="&#x2009;" horiz-adv-x="200" 
 />
    <glyph glyph-name="uni200A" unicode="&#x200a;" horiz-adv-x="143" 
 />
    <glyph glyph-name="uni200B" unicode="&#x200b;" 
 />
    <glyph glyph-name="uni2010" unicode="&#x2010;" horiz-adv-x="376" 
d="M60 234v37h256v-37h-256z" />
    <glyph glyph-name="figuredash" unicode="&#x2012;" horiz-adv-x="600" 
d="M20 238v35h560v-35h-560z" />
    <glyph glyph-name="endash" unicode="&#x2013;" horiz-adv-x="500" 
d="M20 238v35h460v-35h-460z" />
    <glyph glyph-name="emdash" unicode="&#x2014;" horiz-adv-x="1000" 
d="M20 238v35h960v-35h-960z" />
    <glyph glyph-name="uni2015" unicode="&#x2015;" horiz-adv-x="1000" 
d="M20 238v35h960v-35h-960z" />
    <glyph glyph-name="quoteleft" unicode="&#x2018;" horiz-adv-x="148" 
d="M100 750q-10 -29 -10 -55q0 -20 5 -34.5t5 -28.5q0 -16 -8.5 -25t-20.5 -9q-28 0 -28 38q0 25 10.5 57t25.5 57h21z" />
    <glyph glyph-name="quoteright" unicode="&#x2019;" horiz-adv-x="148" 
d="M45 598q10 29 10 55q0 20 -5 34.5t-5 28.5q0 17 8 25.5t20 8.5q29 0 29 -38q0 -25 -10.5 -57t-25.5 -57h-21z" />
    <glyph glyph-name="quotesinglbase" unicode="&#x201a;" horiz-adv-x="148" 
d="M45 -89q10 29 10 55q0 21 -5 35t-5 28q0 16 9 24t21 8q30 0 30 -36q0 -25 -10.5 -57t-27.5 -57h-22z" />
    <glyph glyph-name="quotedblleft" unicode="&#x201c;" horiz-adv-x="245" 
d="M199 750q-10 -29 -10 -55q0 -20 5 -34.5t5 -28.5q0 -16 -8.5 -25t-20.5 -9q-28 0 -28 38q0 25 10.5 57t25.5 57h21zM102 750q-10 -29 -10 -55q0 -20 5 -34.5t5 -28.5q0 -16 -8.5 -25t-20.5 -9q-28 0 -28 38q0 25 10.5 57t25.5 57h21z" />
    <glyph glyph-name="quotedblright" unicode="&#x201d;" horiz-adv-x="245" 
d="M142 598q10 29 10 55q0 20 -5 34.5t-5 28.5q0 17 8 25.5t20 8.5q29 0 29 -38q0 -25 -10.5 -57t-25.5 -57h-21zM45 598q10 29 10 55q0 20 -5 34.5t-5 28.5q0 17 8 25.5t20 8.5q29 0 29 -38q0 -25 -10.5 -57t-25.5 -57h-21z" />
    <glyph glyph-name="quotedblbase" unicode="&#x201e;" horiz-adv-x="237" 
d="M135 -89q10 29 10 55q0 21 -5 35t-5 28q0 16 9 24t21 8q30 0 30 -36q0 -25 -10.5 -57t-27.5 -57h-22zM45 -89q10 29 10 55q0 21 -5 35t-5 28q0 16 9 24t21 8q30 0 30 -36q0 -25 -10.5 -57t-27.5 -57h-22z" />
    <glyph glyph-name="dagger" unicode="&#x2020;" horiz-adv-x="399" 
d="M219 740v-156h145v-35h-145v-315h-38v315h-145v35h145v156h38z" />
    <glyph glyph-name="daggerdbl" unicode="&#x2021;" horiz-adv-x="399" 
d="M364 549h-145v-228h145v-35h-145v-155h-38v155h-145v35h145v228h-145v35h145v156h38v-156h145v-35z" />
    <glyph glyph-name="bullet" unicode="&#x2022;" horiz-adv-x="457" 
d="M228 80q-48 0 -86.5 22.5t-61 61t-22.5 87.5t22.5 88t61 61t86.5 22t87 -22t61.5 -61t22.5 -88t-22.5 -87.5t-61.5 -61t-87 -22.5z" />
    <glyph glyph-name="ellipsis" unicode="&#x2026;" horiz-adv-x="357" 
d="M179 -7q-15 0 -24 10t-9 24t9.5 23.5t23.5 9.5q15 0 24 -9.5t9 -23.5t-9 -24t-24 -10zM288 -7q-15 0 -24 10t-9 24t9.5 23.5t23.5 9.5q15 0 24 -9.5t9 -23.5t-9 -24t-24 -10zM69 -7q-15 0 -24 10t-9 24t9.5 23.5t23.5 9.5q15 0 24 -9.5t9 -23.5t-9 -24t-24 -10z" />
    <glyph glyph-name="perthousand" unicode="&#x2030;" horiz-adv-x="1028" 
d="M201 436q-64 0 -103 36.5t-39 94.5q0 66 42 108.5t110 42.5q62 0 100 -36t38 -95q0 -42 -19 -76.5t-53 -54.5t-76 -20zM123 0l405 710h39l-405 -710h-39zM201 468q49 0 81 33.5t32 83.5q0 46 -28 74t-75 28q-54 0 -85.5 -34.5t-31.5 -85.5q0 -44 29 -71.5t78 -27.5z
M820 -6q-63 0 -102.5 36t-39.5 95q0 66 42.5 108.5t110.5 42.5q62 0 100 -36t38 -95q0 -42 -19.5 -76.5t-53 -54.5t-76.5 -20zM482 -6q-63 0 -102 36t-39 95q0 66 42 108.5t110 42.5q62 0 100 -36t38 -95q0 -42 -19.5 -76.5t-53 -54.5t-76.5 -20zM821 26q49 0 81 33t32 83
q0 46 -28.5 74t-74.5 28q-54 0 -85.5 -34t-31.5 -85q0 -44 28.5 -71.5t78.5 -27.5zM483 26q49 0 81 33t32 83q0 46 -28.5 74t-74.5 28q-54 0 -85.5 -34t-31.5 -85q0 -44 29 -71.5t78 -27.5z" />
    <glyph glyph-name="minute" unicode="&#x2032;" horiz-adv-x="196" 
d="M83 517l-6 193h42l-6 -193h-30z" />
    </font>
</defs>
</svg>
