<?xml version="1.0" standalone="no"?>
<!DOCTYPE svg PUBLIC "-//W3C//DTD SVG 1.1//EN" "http://www.w3.org/Graphics/SVG/1.1/DTD/svg11.dtd" >
<svg xmlns="http://www.w3.org/2000/svg" xmlns:xlink="http://www.w3.org/1999/xlink" version="1.1">
<metadata>
Created by FontForge 20201107 at Mon Sep  2 17:38:18 2019
 By 
Copyright 2019 The Livvic Project Authors (https://github.com/Fonthausen/Livvic)
</metadata>
<defs>
<font id="Livvic-BoldItalic" horiz-adv-x="0" >
  <font-face 
    font-family="Livvic"
    font-weight="700"
    font-style="italic"
    font-stretch="normal"
    units-per-em="1000"
    panose-1="0 0 0 0 0 0 0 0 0 0"
    ascent="800"
    descent="-200"
    x-height="509"
    cap-height="710"
    bbox="-207 -241 1433 1137"
    underline-thickness="50"
    underline-position="-125"
    slope="-10"
    unicode-range="U+000D-FB02"
  />
<missing-glyph horiz-adv-x="290" 
 />
    <glyph glyph-name="f_f" unicode="ff" horiz-adv-x="734" 
d="M43 0l67 382h-94l22 127h95l3 18q19 108 88.5 165.5t168.5 57.5q58 0 99 -22t57 -67q73 89 199 89q77 0 122.5 -38t44.5 -117l-134 -16q-1 20 -14.5 31t-35.5 11q-72 0 -87 -82l-5 -30h137l-22 -127h-135l-68 -382h-153l68 382h-86l22 127h86l3 18q6 33 17 62l-82 -10
q-1 20 -14.5 31t-35.5 11q-72 0 -87 -82l-5 -30h88l-22 -127h-86l-68 -382h-153z" />
    <glyph glyph-name="f_f_i" unicode="ffi" horiz-adv-x="998" 
d="M43 0l67 382h-94l22 127h95l3 18q19 108 88.5 165.5t168.5 57.5q76 0 122 -38t44 -117l-133 -16q-1 20 -14.5 31t-35.5 11q-72 0 -87 -82l-5 -30h136l-22 -127h-134l-68 -382h-153zM402 0l67 382h-94l22 127h95l3 18q19 108 88.5 165.5t166.5 57.5q37 0 68.5 -8.5
t47.5 -24.5l-83 -109q-8 6 -20.5 9.5t-25.5 3.5q-74 0 -89 -83l-5 -29h136l-22 -127h-134l-68 -382h-153zM749 0q0 32 5 66t11 66l36 208q10 57 15.5 95.5t8.5 73.5h154q-3 -41 -10 -86t-14 -87l-35 -196q-6 -36 -11 -70.5t-5 -69.5h-155zM929 569q-44 0 -70 27t-26 64
t25.5 64t70.5 27q44 0 70 -27t26 -64t-26 -64t-70 -27z" />
    <glyph glyph-name="f_f_j" unicode="ffj" horiz-adv-x="1127" 
d="M43 0l67 382h-94l22 127h95l3 18q19 108 88.5 165.5t168.5 57.5q76 0 122 -38t44 -117l-133 -16q-1 20 -14.5 31t-35.5 11q-72 0 -87 -82l-5 -30h136l-22 -127h-134l-68 -382h-153zM422 0l67 382h-94l22 127h95l3 18q19 108 88.5 165.5t168.5 57.5q76 0 122 -38t44 -117
l-133 -16q-1 20 -14.5 31t-35.5 11q-72 0 -87 -82l-5 -30h136l-22 -127h-134l-68 -382h-153zM929 340q9 57 15 95.5t8 73.5h154q-3 -41 -10 -86t-14 -87l-55 -306q-19 -107 -82.5 -168t-188.5 -61q-73 0 -116 17l43 125q44 -12 85 -12q47 0 72 23.5t34 74.5zM1056 569
q-44 0 -70 27t-26 64t25.5 64t70.5 27q44 0 70 -27t26 -64t-26 -64t-70 -27z" />
    <glyph glyph-name="f_f_l" unicode="ffl" horiz-adv-x="1046" 
d="M43 0l67 382h-94l22 127h95l3 18q19 108 88.5 165.5t168.5 57.5q76 0 122 -38t44 -117l-133 -16q-1 20 -14.5 31t-35.5 11q-72 0 -87 -82l-5 -30h136l-22 -127h-134l-68 -382h-153zM402 0l67 382h-94l22 127h95l3 18q19 108 88.5 165.5t166.5 57.5q37 0 68.5 -8.5
t47.5 -24.5l-83 -109q-8 6 -20.5 9.5t-25.5 3.5q-74 0 -89 -83l-5 -29h136l-22 -127h-134l-68 -382h-153zM910 -10q-77 0 -110.5 46t-20.5 120l103 584h153l-101 -573q-9 -46 35 -46q23 0 41 11l18 -109q-20 -16 -51.5 -24.5t-66.5 -8.5z" />
    <glyph glyph-name="f_i" unicode="fi" horiz-adv-x="640" 
d="M43 0l67 382h-94l22 127h95l3 18q19 108 88.5 165.5t166.5 57.5q37 0 68.5 -8.5t47.5 -24.5l-83 -109q-8 6 -20.5 9.5t-25.5 3.5q-74 0 -89 -83l-5 -29h136l-22 -127h-134l-68 -382h-153zM390 0q0 32 5 66t11 66l36 208q10 57 15.5 95.5t8.5 73.5h154q-3 -41 -10 -86
t-14 -87l-35 -196q-6 -36 -11 -70.5t-5 -69.5h-155zM570 569q-44 0 -70 27t-26 64t25.5 64t70.5 27q44 0 70 -27t26 -64t-26 -64t-70 -27z" />
    <glyph glyph-name="f_l" unicode="fl" horiz-adv-x="688" 
d="M43 0l67 382h-94l22 127h95l3 18q19 108 88.5 165.5t166.5 57.5q37 0 68.5 -8.5t47.5 -24.5l-83 -109q-8 6 -20.5 9.5t-25.5 3.5q-74 0 -89 -83l-5 -29h136l-22 -127h-134l-68 -382h-153zM551 -10q-77 0 -110.5 46t-20.5 120l103 584h153l-101 -573q-9 -46 35 -46
q23 0 41 11l18 -109q-20 -16 -51.5 -24.5t-66.5 -8.5z" />
    <glyph glyph-name=".notdef" horiz-adv-x="290" 
 />
    <glyph glyph-name=".null" 
 />
    <glyph glyph-name="nonmarkingreturn" horiz-adv-x="333" 
 />
    <glyph glyph-name="CR" unicode="&#xd;" horiz-adv-x="252" 
 />
    <glyph glyph-name="space" unicode=" " horiz-adv-x="252" 
 />
    <glyph glyph-name="exclam" unicode="!" horiz-adv-x="274" 
d="M81 240l61 500h174l-129 -500h-106zM106 -10q-43 0 -70 26t-27 67q0 40 27 66t70 26t70 -26t27 -66q0 -41 -27 -67t-70 -26z" />
    <glyph glyph-name="quotedbl" unicode="&#x22;" horiz-adv-x="489" 
d="M104 357l30 353h163l-93 -353h-100zM322 357l30 353h163l-93 -353h-100z" />
    <glyph glyph-name="numbersign" unicode="#" horiz-adv-x="600" 
d="M7 0l70 183h-83l46 117h82l42 109h-82l46 117h80l71 184h132l-71 -184h86l71 184h132l-71 -184h83l-46 -117h-82l-41 -109h82l-46 -117h-81l-70 -183h-132l70 183h-86l-70 -183h-132zM254 300h86l42 109h-87z" />
    <glyph glyph-name="dollar" unicode="$" horiz-adv-x="600" 
d="M180 -120l20 116q-88 15 -138 70.5t-44 145.5l155 22q-2 -52 28 -79.5t90 -27.5q50 0 79.5 21.5t29.5 55.5q0 26 -22 41t-57 26t-74 23.5t-73.5 33.5t-57 56t-22.5 92q0 65 30.5 115.5t83 82.5t120.5 42l20 114h106l-21 -114q76 -13 123 -64t45 -130l-149 -24
q0 41 -25 63.5t-64 22.5q-45 0 -73 -24.5t-28 -58.5q0 -30 22.5 -46.5t57 -27.5t73.5 -23t74 -31.5t57 -52t22 -86.5q0 -71 -34.5 -122.5t-94 -82t-134.5 -36.5l-19 -113h-106z" />
    <glyph glyph-name="percent" unicode="%" horiz-adv-x="833" 
d="M254 383q-79 0 -127 44t-48 118q0 51 24.5 90.5t67 62.5t97.5 23q80 0 128 -43.5t48 -118.5q0 -51 -24.5 -91t-67 -62.5t-98.5 -22.5zM49 0l630 710h140l-631 -710h-139zM259 477q35 0 56.5 22.5t21.5 58.5q0 32 -19 50.5t-52 18.5q-37 0 -58 -22t-21 -59q0 -33 19 -51
t53 -18zM602 -8q-80 0 -128.5 44t-48.5 118q0 51 24.5 91t67.5 62.5t98 22.5q80 0 127.5 -44t47.5 -118q0 -51 -24 -90.5t-67 -62.5t-97 -23zM605 86q35 0 56.5 22.5t21.5 60.5q0 32 -19.5 49.5t-52.5 17.5q-36 0 -57.5 -22.5t-21.5 -58.5q0 -33 19.5 -51t53.5 -18z" />
    <glyph glyph-name="ampersand" unicode="&#x26;" horiz-adv-x="836" 
d="M287 -8q-74 0 -131 23.5t-89 67t-32 103.5q0 55 20 95t53.5 69t72.5 50q-19 26 -29 52.5t-10 56.5q0 63 31 110.5t85 73t122 25.5q79 0 127.5 -37t48.5 -100q0 -56 -24.5 -92.5t-63.5 -60t-82 -42.5l148 -172q36 44 57 101h-80l22 126h290l-22 -126h-79
q-35 -105 -104 -181q31 -17 72 -17q36 0 69 18l18 -110q-54 -35 -131 -35q-48 0 -85 12t-68 37q-46 -23 -97.5 -35t-108.5 -12zM289 533q0 -15 7 -30.5t25 -38.5q44 21 73.5 43.5t29.5 56.5q0 23 -15.5 32.5t-38.5 9.5q-36 0 -58.5 -20.5t-22.5 -52.5zM195 213q0 -45 36 -71
t101 -26q40 0 78 12l-160 189q-25 -18 -40 -43.5t-15 -60.5z" />
    <glyph glyph-name="quotesingle" unicode="'" horiz-adv-x="271" 
d="M104 357l30 353h163l-93 -353h-100z" />
    <glyph glyph-name="parenleft" unicode="(" horiz-adv-x="354" 
d="M236 -216q-194 143 -194 385q0 124 44 235t124 200t188 147l50 -75q-128 -98 -190 -234t-62 -295q0 -95 28 -165.5t79 -126.5z" />
    <glyph glyph-name="parenright" unicode=")" horiz-adv-x="354" 
d="M-39 -216l-51 76q128 97 190.5 233.5t62.5 295.5q0 95 -28.5 165.5t-79.5 125.5l68 71q193 -142 193 -384q0 -124 -44 -235t-124 -200t-187 -148z" />
    <glyph glyph-name="asterisk" unicode="*" horiz-adv-x="455" 
d="M441 500q26 -14 33.5 -37t-5.5 -46q-13 -22 -36.5 -27t-50.5 10q-18 11 -32 30.5t-46 49.5q9 -43 19.5 -65t10.5 -44q0 -29 -16 -47t-42 -18t-42 18t-16 48q0 21 10.5 43t19.5 65q-32 -30 -46 -50t-32 -30q-26 -15 -49.5 -10t-36.5 27t-5.5 45.5t33.5 37.5q18 11 42 13
t66 15q-42 13 -66 15.5t-42 12.5q-27 15 -34.5 38t6.5 45q13 23 36.5 27.5t49.5 -9.5q18 -11 32 -31t46 -49q-9 43 -19.5 65t-10.5 43q0 29 16 47.5t42 17.5q26 0 42 -18t16 -47q0 -22 -10.5 -43.5t-19.5 -65.5q32 30 46 50t32 31q27 14 50 9t37 -27q13 -22 5.5 -45
t-33.5 -38q-19 -11 -43 -13t-66 -15q42 -13 66 -15.5t43 -12.5z" />
    <glyph glyph-name="plus" unicode="+" horiz-adv-x="600" 
d="M181 0l33 185h-180l25 139h180l32 185h147l-32 -185h180l-25 -139h-180l-33 -185h-147z" />
    <glyph glyph-name="comma" unicode="," horiz-adv-x="275" 
d="M-41 -176q61 101 61 162q0 26 -6 46.5t-6 46.5q0 55 33.5 83.5t80.5 28.5q42 0 66 -22.5t24 -69.5q0 -30 -16.5 -67t-42.5 -75.5t-57 -73t-60 -59.5h-77z" />
    <glyph glyph-name="hyphen" unicode="-" horiz-adv-x="436" 
d="M48 189l25 136h315l-24 -136h-316z" />
    <glyph glyph-name="period" unicode="." horiz-adv-x="275" 
d="M108 -10q-48 0 -76 29t-28 72t28 72t76 29t76.5 -29t28.5 -72t-28.5 -72t-76.5 -29z" />
    <glyph glyph-name="slash" unicode="/" horiz-adv-x="386" 
d="M-80 -200l412 940h147l-412 -940h-147z" />
    <glyph glyph-name="zero" unicode="0" horiz-adv-x="600" 
d="M261 -10q-103 -1 -162 59.5t-59 187.5q0 91 23 177.5t67 155.5t108 109.5t147 40.5q100 0 155.5 -62t55.5 -184q0 -90 -22.5 -176t-65 -155.5t-105 -111t-142.5 -41.5zM280 128q33 0 58.5 23t44.5 61t31 84t18 93t6 86q0 108 -73 108q-42 0 -73.5 -33t-52 -85t-31 -111
t-10.5 -112q0 -114 82 -114z" />
    <glyph glyph-name="one" unicode="1" horiz-adv-x="600" 
d="M49 0l22 127h160l64 361l-112 -70l-64 119l284 173h90l-103 -583h148l-22 -127h-467z" />
    <glyph glyph-name="two" unicode="2" horiz-adv-x="600" 
d="M19 0l19 107q66 42 132 92t120.5 104t87.5 107t33 100q0 32 -19 51.5t-57 19.5q-45 0 -81 -27.5t-58 -72.5l-109 62q40 84 114.5 130.5t167.5 46.5t148.5 -47t55.5 -132q0 -80 -44.5 -154t-118.5 -139.5t-163 -120.5h273l-22 -127h-479z" />
    <glyph glyph-name="three" unicode="3" horiz-adv-x="600" 
d="M213 -10q-49 0 -104.5 12.5t-93.5 33.5l62 137q33 -20 73 -32t87 -12q79 0 109.5 28.5t30.5 68.5q0 70 -113 70h-45l22 126h48q56 0 90.5 26t34.5 69q0 30 -19 47t-57 17q-48 0 -84.5 -27.5t-58.5 -72.5l-109 62q40 84 114.5 130.5t168.5 46.5q92 0 149 -43.5t57 -123.5
q0 -66 -36.5 -116.5t-93.5 -75.5q90 -34 90 -130q0 -79 -44 -132.5t-117 -81t-161 -27.5z" />
    <glyph glyph-name="four" unicode="4" horiz-adv-x="600" 
d="M292 0l29 167h-307l20 109l426 436h111l-75 -420h100l-22 -125h-100l-29 -167h-153zM203 292h140l31 176z" />
    <glyph glyph-name="five" unicode="5" horiz-adv-x="600" 
d="M216 -10q-51 0 -107 12.5t-94 33.5l62 137q33 -20 73 -32t87 -12q69 0 106.5 27t37.5 79q0 39 -32 61.5t-118 25.5l-122 5l99 383h378l-22 -127h-235l-34 -131q116 -6 180 -53t64 -141q0 -86 -43.5 -146t-117 -91t-162.5 -31z" />
    <glyph glyph-name="six" unicode="6" horiz-adv-x="600" 
d="M297 -10q-114 0 -178 66.5t-64 196.5q0 27 2 55.5t8 59.5q21 115 72.5 193.5t125 118.5t158.5 40q81 0 136 -39t78 -116l-131 -59q-12 38 -35.5 56.5t-65.5 18.5q-60 0 -107 -46t-67 -142q65 59 157 59q51 0 94.5 -20.5t69.5 -62t26 -106.5q0 -80 -37 -142t-100.5 -96.5
t-141.5 -34.5zM302 118q50 0 83 33.5t33 90.5q0 38 -22 60t-62 22q-57 0 -90 -35.5t-33 -84.5q0 -39 24.5 -62.5t66.5 -23.5z" />
    <glyph glyph-name="seven" unicode="7" horiz-adv-x="600" 
d="M224 0h-173l385 583h-313l22 127h484l-22 -126z" />
    <glyph glyph-name="eight" unicode="8" horiz-adv-x="600" 
d="M264 -10q-115 0 -181.5 47t-66.5 130q0 73 45.5 124t112.5 72q-40 19 -61.5 53t-21.5 80q0 68 39.5 118t103.5 78t138 28q66 0 117.5 -22t81.5 -61.5t30 -92.5q0 -66 -37.5 -113t-99.5 -69q45 -19 71.5 -57.5t26.5 -88.5q0 -73 -40.5 -123.5t-108 -76.5t-149.5 -26z
M330 420q47 0 79.5 28t32.5 74q0 32 -22 51t-60 19q-48 0 -80.5 -28t-32.5 -75q0 -32 22 -50.5t61 -18.5zM275 118q56 0 93.5 26t37.5 78q0 35 -26.5 55.5t-73.5 20.5q-58 0 -94 -30t-36 -77q0 -34 26 -53.5t73 -19.5z" />
    <glyph glyph-name="nine" unicode="9" horiz-adv-x="600" 
d="M339 722q114 0 178 -66.5t64 -196.5q0 -27 -2 -55.5t-8 -59.5q-21 -115 -72.5 -193.5t-125 -118.5t-158.5 -40q-81 0 -136 39t-78 116l131 59q12 -38 35.5 -56.5t65.5 -18.5q60 0 107 46t67 142q-65 -59 -157 -59q-51 0 -94.5 20.5t-69.5 62t-26 106.5q0 80 37 142
t100.5 96.5t141.5 34.5zM334 594q-50 0 -83 -33.5t-33 -90.5q0 -38 22 -60t62 -22q57 0 90 35.5t33 84.5q0 39 -24.5 62.5t-66.5 23.5z" />
    <glyph glyph-name="colon" unicode=":" horiz-adv-x="275" 
d="M108 -10q-48 0 -76 29t-28 72t28 72t76 29t76.5 -29t28.5 -72t-28.5 -72t-76.5 -29zM166 316q-48 0 -76 29t-28 72t28 72t76 29t76.5 -29t28.5 -72t-28.5 -72t-76.5 -29z" />
    <glyph glyph-name="semicolon" unicode=";" horiz-adv-x="275" 
d="M-41 -176q61 101 61 162q0 26 -6 46.5t-6 46.5q0 55 33.5 83.5t80.5 28.5q42 0 66 -22.5t24 -69.5q0 -30 -16.5 -67t-42.5 -75.5t-57 -73t-60 -59.5h-77zM166 316q-48 0 -76 29t-28 72t28 72t76 29t76.5 -29t28.5 -72t-28.5 -72t-76.5 -29z" />
    <glyph glyph-name="less" unicode="&#x3c;" horiz-adv-x="600" 
d="M54 309l547 212l-25 -144l-340 -129l295 -128l-24 -134l-472 212z" />
    <glyph glyph-name="equal" unicode="=" horiz-adv-x="600" 
d="M56 311l22 124h507l-21 -124h-508zM15 75l21 124h508l-22 -124h-507z" />
    <glyph glyph-name="greater" unicode="&#x3e;" horiz-adv-x="600" 
d="M545 198l-547 -212l25 144l340 129l-295 128l24 134l473 -212z" />
    <glyph glyph-name="question" unicode="?" horiz-adv-x="507" 
d="M282 237l-115 7q5 74 32.5 123t81.5 88q44 31 59 47.5t15 33.5q0 45 -66 45q-45 0 -83 -26t-63 -74l-107 67q24 52 68 90.5t101 60t119 21.5q86 0 139 -41t53 -114q0 -64 -36 -109.5t-92 -86.5q-34 -25 -55 -45t-33 -40t-18 -47zM208 -10q-43 0 -70.5 25.5t-27.5 65.5
q0 41 26.5 68t70.5 27q43 0 70 -26t27 -67t-26.5 -67t-69.5 -26z" />
    <glyph glyph-name="at" unicode="@" horiz-adv-x="1006" 
d="M467 -212q-127 0 -224.5 46t-153.5 134t-56 214q0 119 40 218.5t113.5 172t173.5 112.5t220 40q129 0 219.5 -41.5t138 -118.5t47.5 -181q0 -65 -15.5 -128.5t-46 -115t-75 -82t-102.5 -30.5q-54 0 -89 22.5t-46 63.5q-62 -86 -165 -86q-80 0 -129 51t-49 140
q0 62 21 115.5t58.5 94.5t88 64.5t110.5 23.5q81 0 134 -39l17 30l89 -19l-48 -277q-12 -66 34 -66q21 0 37 23t26.5 59.5t16 75.5t5.5 71q0 117 -72.5 174t-209.5 57q-120 0 -210.5 -52.5t-141 -145t-50.5 -214.5q0 -94 37.5 -157t104.5 -95.5t156 -32.5q58 0 117 15.5
t103 43.5l48 -108q-55 -35 -123 -53.5t-149 -18.5zM487 149q45 0 78 39.5t48 118.5l13 69q-26 19 -65 19q-41 0 -74 -22.5t-52 -60t-19 -82.5q0 -81 71 -81z" />
    <glyph glyph-name="A" unicode="A" horiz-adv-x="697" 
d="M-69 0l434 710h137l170 -710h-160l-31 145h-293l-85 -145h-172zM268 281h183l-49 229z" />
    <glyph glyph-name="B" unicode="B" horiz-adv-x="647" 
d="M21 0l125 710h271q114 0 177.5 -44t63.5 -126q0 -61 -30.5 -107t-80.5 -73q33 -18 52 -51.5t19 -76.5q0 -72 -39 -124t-105.5 -80t-147.5 -28h-305zM398 577h-114l-27 -153h109q59 0 93 19.5t34 70.5q0 63 -95 63zM206 133h134q55 0 85.5 23.5t30.5 71.5q0 33 -24 47.5
t-74 14.5h-124z" />
    <glyph glyph-name="C" unicode="C" horiz-adv-x="680" 
d="M674 139q-52 -75 -136 -112t-179 -37t-165 34t-109 97t-39 151q0 95 33.5 177t92.5 142.5t138.5 94.5t172.5 34q95 0 162 -36t99 -109l-139 -89q-17 46 -56.5 67.5t-87.5 21.5q-70 0 -126 -37.5t-89 -101.5t-33 -144q0 -74 43 -115.5t121 -41.5q50 0 101 23t90 76z" />
    <glyph glyph-name="D" unicode="D" horiz-adv-x="757" 
d="M22 0l125 710h223q182 0 278 -76.5t96 -215.5q0 -93 -32.5 -169.5t-91 -132t-139 -86t-176.5 -30.5h-283zM212 145h108q124 0 191 68.5t67 186.5q0 82 -51.5 123.5t-159.5 41.5h-82z" />
    <glyph glyph-name="E" unicode="E" horiz-adv-x="579" 
d="M208 141h335l-35 -141h-486l125 710h487l-25 -141h-326l-25 -141h306l-25 -141h-306z" />
    <glyph glyph-name="F" unicode="F" horiz-adv-x="532" 
d="M182 0h-160l125 710h464l-25 -141h-303l-27 -151h282l-25 -140h-281z" />
    <glyph glyph-name="G" unicode="G" horiz-adv-x="768" 
d="M442 386h302l-67 -386h-130v51q-41 -33 -89.5 -47t-102.5 -14q-93 0 -162.5 34.5t-108 97.5t-38.5 150q0 95 33.5 177t94 142.5t142 94.5t177.5 34q60 0 115 -15.5t98.5 -47t67.5 -80.5l-141 -91q-20 41 -64 65t-98 24q-73 0 -131.5 -37.5t-92.5 -101.5t-34 -144
q0 -74 42.5 -115.5t121.5 -41.5q68 0 120 30t67 88h-145z" />
    <glyph glyph-name="H" unicode="H" horiz-adv-x="758" 
d="M22 0l125 710h163l-49 -281h297l49 281h164l-125 -710h-164l51 286h-297l-51 -286h-163z" />
    <glyph glyph-name="I" unicode="I" horiz-adv-x="297" 
d="M22 0l125 710h163l-125 -710h-163z" />
    <glyph glyph-name="J" unicode="J" horiz-adv-x="501" 
d="M165 -10q-85 0 -140.5 40t-71.5 117l144 59q11 -36 30.5 -54t53.5 -18q32 0 55 22t31 67l86 487h163l-82 -469q-44 -251 -269 -251z" />
    <glyph glyph-name="K" unicode="K" horiz-adv-x="673" 
d="M22 0l125 710h163l-53 -304l326 304h201l-387 -357q20 -12 34.5 -30t24.5 -41l43 -99q12 -27 31.5 -38.5t47.5 -11.5q41 0 68 18l20 -124q-24 -19 -60.5 -28t-72.5 -9q-129 0 -175 104l-61 136q-10 24 -24 36.5t-38 17.5l-50 -284h-163z" />
    <glyph glyph-name="L" unicode="L" horiz-adv-x="532" 
d="M22 0l125 710h163l-99 -567h306l-35 -143h-460z" />
    <glyph glyph-name="M" unicode="M" horiz-adv-x="946" 
d="M20 0l150 710h138l153 -505l343 505h137l-107 -710h-158l55 360l-248 -360h-118l-114 377l-80 -377h-151z" />
    <glyph glyph-name="N" unicode="N" horiz-adv-x="751" 
d="M607 710h157l-125 -710h-145l-236 452l-79 -452h-157l125 710h145l236 -452z" />
    <glyph glyph-name="O" unicode="O" horiz-adv-x="781" 
d="M353 -10q-93 0 -162 34t-107 97t-38 151q0 95 33 177t91.5 142.5t137 94.5t171.5 34q88 0 153.5 -35t101.5 -99t36 -151q0 -93 -32 -174t-89 -142t-133 -95t-163 -34zM371 135q66 0 118.5 37.5t83 101.5t30.5 144q0 73 -39.5 115t-108.5 42t-123.5 -37.5t-86.5 -101.5
t-32 -144q0 -74 41.5 -115.5t116.5 -41.5z" />
    <glyph glyph-name="P" unicode="P" horiz-adv-x="640" 
d="M181 0h-159l125 710h252q126 0 198.5 -48t72.5 -146q0 -92 -45 -151t-124 -88t-182 -29h-94zM376 577h-93l-35 -194h99q83 0 121.5 27.5t38.5 86.5q0 43 -34 61.5t-97 18.5z" />
    <glyph glyph-name="Q" unicode="Q" horiz-adv-x="781" 
d="M459 -210q-70 0 -117.5 26t-68 73t-9.5 110q-101 22 -159.5 92.5t-58.5 180.5q0 95 33 177t91.5 142.5t137 94.5t171.5 34q88 0 153.5 -35t101.5 -99t36 -151q0 -84 -26 -158t-73 -132.5t-110.5 -97t-137.5 -51.5v-1q-14 -76 54 -76q47 0 60 42l129 -16
q-23 -80 -77 -117.5t-130 -37.5zM371 135q66 0 118.5 37.5t83 101.5t30.5 144q0 73 -39.5 115t-108.5 42t-123.5 -37.5t-86.5 -101.5t-32 -144q0 -74 41.5 -115.5t116.5 -41.5z" />
    <glyph glyph-name="R" unicode="R" horiz-adv-x="656" 
d="M637 153l20 -126q-25 -18 -60 -27.5t-69 -9.5q-68 0 -112 26.5t-67 79.5l-60 134q-11 24 -25 33.5t-33 10.5l-49 -274h-160l125 710h223q135 0 201.5 -47.5t66.5 -138.5q0 -98 -60 -160.5t-157 -79.5q28 -15 45 -51l25 -52q12 -25 31 -36.5t44 -11.5q22 0 39.5 4.5
t31.5 15.5zM340 577h-56l-31 -176h73q76 0 111.5 25.5t35.5 74.5q0 41 -33.5 58.5t-99.5 17.5z" />
    <glyph glyph-name="S" unicode="S" horiz-adv-x="599" 
d="M262 -9q-124 0 -193.5 57.5t-63.5 163.5l156 22q-3 -52 28 -79.5t96 -27.5q57 0 87.5 21.5t30.5 55.5q0 26 -22 41t-56.5 26t-73.5 23.5t-74 33.5t-57 56t-22 92q0 73 39 128t106 85.5t150 30.5q105 0 167 -53.5t60 -144.5l-149 -24q0 41 -25 63.5t-68 22.5
q-53 0 -82.5 -24.5t-29.5 -58.5q0 -30 22 -46.5t57 -27.5t74 -23t74 -31.5t57 -52t22 -86.5q0 -77 -41.5 -131.5t-112 -83t-156.5 -28.5z" />
    <glyph glyph-name="T" unicode="T" horiz-adv-x="592" 
d="M694 710l-47 -143h-214l-100 -567h-164l100 567h-225l25 143h625z" />
    <glyph glyph-name="U" unicode="U" horiz-adv-x="759" 
d="M613 710h161l-66 -386q-28 -163 -120 -248.5t-240 -85.5q-102 0 -169.5 37.5t-95.5 107.5t-11 166l72 409h164l-70 -396q-31 -179 127 -179q77 0 121.5 48.5t62.5 151.5z" />
    <glyph glyph-name="V" unicode="V" horiz-adv-x="655" 
d="M597 710h170l-379 -710h-231l-85 710h166l63 -569z" />
    <glyph glyph-name="W" unicode="W" horiz-adv-x="1014" 
d="M939 710h162l-331 -710h-185l-27 504l-230 -504h-186l-51 710h157l29 -490l222 490h193l25 -491z" />
    <glyph glyph-name="X" unicode="X" horiz-adv-x="634" 
d="M-54 0l299 363l-160 347h177l95 -209l169 209h181l-285 -349l168 -361h-180l-100 222l-178 -222h-186z" />
    <glyph glyph-name="Y" unicode="Y" horiz-adv-x="611" 
d="M713 710l-314 -393l-56 -317h-164l56 315l-182 395h175l111 -249l193 249h181z" />
    <glyph glyph-name="Z" unicode="Z" horiz-adv-x="640" 
d="M-8 0l21 118l427 449h-329l25 143h555l-21 -118l-427 -449h359l-35 -143h-575z" />
    <glyph glyph-name="bracketleft" unicode="[" horiz-adv-x="334" 
d="M-14 -200l166 940h265l-20 -115h-116l-125 -710h115l-20 -115h-265z" />
    <glyph glyph-name="backslash" unicode="\" horiz-adv-x="386" 
d="M306 -200h-139l-88 940h138z" />
    <glyph glyph-name="bracketright" unicode="]" horiz-adv-x="334" 
d="M-78 -200l20 115h117l125 710h-116l20 115h265l-166 -940h-265z" />
    <glyph glyph-name="asciicircum" unicode="^" horiz-adv-x="600" 
d="M418 609l122 -510h-133l-71 319l-186 -319h-145l303 510h110z" />
    <glyph glyph-name="underscore" unicode="_" horiz-adv-x="547" 
d="M-43 -127l22 127h499l-22 -127h-499z" />
    <glyph glyph-name="grave" unicode="`" horiz-adv-x="643" 
d="M274 573l-119 139l167 38l90 -177h-138z" />
    <glyph glyph-name="a" unicode="a" horiz-adv-x="618" 
d="M215 -10q-87 0 -137.5 52.5t-50.5 143.5q0 71 23.5 131.5t66 105t100 69.5t124.5 25q90 0 145 -45l18 35h104q-7 -34 -16.5 -81.5t-19.5 -100.5l-27 -151q-9 -50 -13.5 -95t-4.5 -79h-151q0 22 3 46t8 47q-65 -103 -172 -103zM267 123q54 0 93.5 49.5t53.5 134.5l10 54
q-28 25 -79 25q-71 0 -115 -49t-44 -127q0 -87 81 -87z" />
    <glyph glyph-name="b" unicode="b" horiz-adv-x="618" 
d="M277 -10q-89 0 -144 44l-16 -34h-105q6 34 15 81.5t19 100.5l98 558h153l-40 -231l-21 -88q64 96 167 96q88 0 138.5 -52.5t50.5 -144.5q0 -70 -23.5 -130.5t-66.5 -105.5t-100 -69.5t-125 -24.5zM273 121q71 0 115.5 49t44.5 127q0 87 -82 87q-53 0 -92.5 -49.5
t-54.5 -134.5l-10 -55q28 -24 79 -24z" />
    <glyph glyph-name="c" unicode="c" horiz-adv-x="497" 
d="M255 -10q-107 0 -167.5 54.5t-60.5 148.5q0 69 24 128t67 103t101 68.5t126 24.5t115 -26t72 -81l-123 -82q-9 29 -29.5 42t-51.5 13q-40 0 -72 -22.5t-50.5 -61.5t-18.5 -87q0 -89 93 -88q63 0 105 56l92 -86q-74 -104 -222 -104z" />
    <glyph glyph-name="d" unicode="d" horiz-adv-x="618" 
d="M215 -10q-87 0 -137.5 52.5t-50.5 143.5q0 71 23.5 131.5t66 105t100 69.5t124.5 25q63 0 108 -22l2 14l41 231h153l-100 -566q-9 -50 -13.5 -95t-4.5 -79h-151q0 22 3 46t8 47q-65 -103 -172 -103zM267 123q54 0 93.5 49.5t53.5 134.5l10 54q-28 25 -79 25
q-71 0 -115 -49t-44 -127q0 -87 81 -87z" />
    <glyph glyph-name="e" unicode="e" horiz-adv-x="547" 
d="M266 -10q-72 0 -125.5 26t-83 74t-28.5 113q0 90 40.5 161t110 112t158.5 41q87 0 139.5 -41t52.5 -110q0 -70 -49 -112t-133 -48l-167 -12q5 -34 35 -53.5t79 -19.5q33 0 66 12.5t54 33.5l66 -93q-35 -40 -89.5 -62t-125.5 -22zM328 406q-49 0 -84 -29t-49 -79l133 9
q31 2 48.5 15.5t17.5 38.5q0 21 -17.5 33t-48.5 12z" />
    <glyph glyph-name="f" unicode="f" horiz-adv-x="379" 
d="M43 0l67 382h-94l22 127h95l3 18q19 108 88.5 165.5t168.5 57.5q76 0 122 -38t44 -117l-133 -16q-1 20 -14.5 31t-35.5 11q-72 0 -87 -82l-5 -30h136l-22 -127h-134l-68 -382h-153z" />
    <glyph glyph-name="g" unicode="g" horiz-adv-x="622" 
d="M180 -210q-59 0 -111 11.5t-81 30.5l53 130q68 -38 154 -38q80 0 123 36t63 121l7 28q-65 -99 -172 -99q-87 0 -137.5 50t-50.5 139q0 68 23.5 126t66.5 101t100.5 67t125.5 24q90 0 146 -43l17 33h104q-7 -36 -17 -83.5t-19 -98.5l-39 -226q-28 -158 -116 -233.5
t-240 -75.5zM268 143q55 0 96 45t54 123l10 52q-29 23 -81 23q-70 0 -115 -45.5t-45 -116.5q0 -81 81 -81z" />
    <glyph glyph-name="h" unicode="h" horiz-adv-x="623" 
d="M14 0l130 740h153l-41 -231l-29 -119q39 61 91.5 94t117.5 33q89 0 128 -60t14 -169l-34 -148q-7 -36 -10.5 -70.5t-3.5 -69.5h-156q0 66 15 132l35 153q10 45 -2.5 67.5t-45.5 22.5q-43 0 -81.5 -34t-70.5 -116t-57 -225h-153z" />
    <glyph glyph-name="i" unicode="i" horiz-adv-x="270" 
d="M21 0q0 32 5 66t11 66l36 208q10 57 15.5 95.5t8.5 73.5h154q-3 -41 -10 -86t-14 -87l-35 -196q-6 -36 -11 -70.5t-5 -69.5h-155zM201 569q-44 0 -70 27t-26 64t25.5 64t70.5 27q44 0 70 -27t26 -64t-26 -64t-70 -27z" />
    <glyph glyph-name="j" unicode="j" horiz-adv-x="281" 
d="M82 340q9 57 15 95.5t8 73.5h154q-3 -41 -10 -86t-14 -87l-55 -306q-19 -107 -82.5 -168t-188.5 -61q-73 0 -116 17l43 125q44 -12 85 -12q47 0 72 23.5t34 74.5zM209 569q-44 0 -70 27t-26 64t25.5 64t70.5 27q44 0 70 -27t26 -64t-26 -64t-70 -27z" />
    <glyph glyph-name="k" unicode="k" horiz-adv-x="568" 
d="M14 0l130 740h153l-76 -430l221 199h190l-276 -248q18 -13 28 -36l25 -53q14 -29 32.5 -42t46.5 -13q17 0 31.5 4t28.5 11l17 -112q-27 -17 -59.5 -24t-65.5 -6q-65 1 -102.5 25.5t-64.5 83.5l-26 53q-20 44 -43 59l-37 -211h-153z" />
    <glyph glyph-name="l" unicode="l" horiz-adv-x="309" 
d="M172 -10q-77 0 -110.5 46t-20.5 120l103 584h153l-101 -573q-9 -46 35 -46q23 0 41 11l18 -109q-20 -16 -51.5 -24.5t-66.5 -8.5z" />
    <glyph glyph-name="m" unicode="m" horiz-adv-x="968" 
d="M14 0l60 340q10 57 15.5 95.5t9.5 73.5h151q-4 -58 -25 -125q39 65 91.5 99t116.5 34q60 0 97.5 -29.5t47.5 -85.5q40 56 92.5 85.5t114.5 29.5q87 0 125.5 -60t13.5 -169l-33 -148q-8 -36 -11.5 -70.5t-3.5 -69.5h-156q0 66 16 132l34 153q11 45 -1.5 67.5t-42.5 22.5
q-41 0 -78.5 -34t-70 -116t-57.5 -225h-153l50 285q16 90 -44 90q-41 0 -78.5 -34t-69.5 -116t-57 -225h-154z" />
    <glyph glyph-name="n" unicode="n" horiz-adv-x="623" 
d="M14 0l60 340q9 57 15 95.5t9 73.5h151q-4 -59 -25 -125q39 64 92.5 98.5t119.5 34.5q89 0 128 -60t14 -169l-34 -148q-7 -36 -10.5 -70.5t-3.5 -69.5h-156q0 66 15 132l35 153q10 45 -2.5 67.5t-45.5 22.5q-43 0 -81.5 -34t-70.5 -116t-57 -225h-153z" />
    <glyph glyph-name="o" unicode="o" horiz-adv-x="596" 
d="M351 517q99 0 158 -53.5t59 -148.5q0 -68 -24 -127t-67.5 -103.5t-102 -69.5t-128.5 -25q-101 0 -160 53.5t-59 147.5q0 66 22.5 124.5t65.5 104t102.5 71.5t133.5 26zM271 123q38 0 69.5 23t50.5 62t19 87q0 43 -22 66t-62 23q-43 0 -74.5 -25t-48.5 -64t-17 -83
q0 -42 21.5 -65.5t63.5 -23.5z" />
    <glyph glyph-name="p" unicode="p" horiz-adv-x="618" 
d="M402 517q88 0 138.5 -52.5t50.5 -144.5q0 -70 -23.5 -130.5t-66 -105.5t-100 -69.5t-125.5 -24.5q-62 0 -108 21l-1 -13l-35 -198h-154l95 540q10 57 15.5 95.5t9.5 73.5h151q-2 -22 -6 -45.5t-10 -46.5q65 100 169 100zM350 384q-53 0 -92.5 -49.5t-54.5 -134.5l-10 -55
q28 -24 79 -24q71 0 115.5 49t44.5 127q0 87 -82 87z" />
    <glyph glyph-name="q" unicode="q" horiz-adv-x="618" 
d="M607 508q-7 -35 -16 -82.5t-18 -100.5l-93 -525h-153l35 198l20 88q-64 -96 -167 -96q-87 0 -137.5 52.5t-50.5 143.5q0 71 23.5 131.5t66 105t100 69.5t124.5 25q89 0 144 -44l17 35h105zM267 123q54 0 93.5 49.5t53.5 134.5l10 54q-28 25 -79 25q-71 0 -115 -49
t-44 -127q0 -87 81 -87z" />
    <glyph glyph-name="r" unicode="r" horiz-adv-x="427" 
d="M427 361q-19 8 -48 8q-54 0 -92.5 -36.5t-67 -118t-51.5 -214.5h-153l60 340q10 57 15.5 95.5t8.5 73.5h152q-2 -25 -8.5 -58t-15.5 -68q39 72 90 103t103 31q17 0 31.5 -2t28.5 -7z" />
    <glyph glyph-name="s" unicode="s" horiz-adv-x="485" 
d="M212 -10q-104 0 -160 41.5t-61 109.5l133 32q0 -31 25.5 -47.5t69.5 -16.5q39 0 60 10t21 29q0 16 -17.5 25t-45.5 15t-59 14.5t-59 23.5t-45.5 41t-17.5 68q0 59 33 99.5t86.5 61.5t115.5 21q81 0 133 -39t59 -96l-131 -34q-6 50 -74 50q-31 0 -51 -11t-20 -30
q0 -17 17.5 -26t45 -16t58.5 -15.5t58.5 -23t45 -40t17.5 -66.5q0 -60 -33 -100t-87.5 -60t-116.5 -20z" />
    <glyph glyph-name="t" unicode="t" horiz-adv-x="428" 
d="M250 -10q-64 0 -106.5 26t-60.5 72t-7 105l36 189h-84l22 127h87l20 104h152l-20 -104h159l-22 -127h-161l-36 -184q-15 -76 63 -76q46 0 89 27l24 -117q-26 -21 -66 -31.5t-89 -10.5z" />
    <glyph glyph-name="u" unicode="u" horiz-adv-x="610" 
d="M185 -10q-88 0 -125 59t-16 168l22 123q11 57 16 95.5t8 73.5h154q-3 -41 -10 -86t-15 -87l-20 -107q-9 -45 2.5 -71t49.5 -26q35 0 70 34.5t67.5 116.5t59.5 226h149l-59 -335q-9 -50 -14 -95t-5 -79h-150q0 28 4.5 59t11.5 60q-78 -129 -200 -129z" />
    <glyph glyph-name="v" unicode="v" horiz-adv-x="545" 
d="M450 509h160l-277 -509h-218l-70 509h159l45 -383z" />
    <glyph glyph-name="w" unicode="w" horiz-adv-x="883" 
d="M785 509h156l-265 -509h-191l-30 294l-149 -294h-190l-69 509h153l39 -363l181 363h146l37 -366z" />
    <glyph glyph-name="x" unicode="x" horiz-adv-x="516" 
d="M-66 0l236 267l-136 242h173l67 -124l107 124h190l-225 -254l143 -255h-173l-74 138l-118 -138h-190z" />
    <glyph glyph-name="y" unicode="y" horiz-adv-x="614" 
d="M171 -210q-31 0 -65.5 4.5t-65 13.5t-50.5 24l49 130q32 -17 68.5 -27.5t85.5 -10.5q83 0 125 38t62 119l8 34q-40 -53 -89.5 -79t-102.5 -26q-90 0 -129 60t-19 168l19 104q10 55 15 93.5t8 73.5h154q-3 -42 -10 -86t-14 -85l-17 -89q-8 -45 3.5 -71t46.5 -26
q41 0 77 33t67 110.5t56 213.5h148l-72 -410q-20 -115 -67 -182.5t-120 -97t-171 -29.5z" />
    <glyph glyph-name="z" unicode="z" horiz-adv-x="462" 
d="M-20 0l20 116l268 266h-213l22 127h412l-19 -110l-271 -272h222l-22 -127h-419z" />
    <glyph glyph-name="braceleft" unicode="{" horiz-adv-x="429" 
d="M274 -206q-100 10 -145.5 52.5t-45.5 100.5q0 31 11.5 59t27 54t27.5 51t12 50q0 29 -21.5 44.5t-77.5 15.5l17 100q61 0 94.5 21t33.5 74q0 30 -8.5 63t-8.5 71q0 62 33 104.5t90.5 65.5t128.5 28l1 -98q-43 -2 -69.5 -24.5t-26.5 -64.5q0 -30 9 -59.5t9 -66.5
q0 -70 -46 -109.5t-117 -54.5q64 -14 88 -47t24 -71q0 -34 -11.5 -60.5t-26 -49.5t-25.5 -45.5t-11 -47.5q0 -27 17.5 -45.5t48.5 -23.5z" />
    <glyph glyph-name="bar" unicode="|" horiz-adv-x="308" 
d="M-4 -200l166 940h155l-166 -940h-155z" />
    <glyph glyph-name="braceright" unicode="}" horiz-adv-x="429" 
d="M-6 -206l-2 98q44 3 70 25t26 64q0 30 -9 59.5t-9 66.5q0 70 46 109.5t118 54.5q-64 14 -88.5 47t-24.5 71q0 34 11.5 60.5t26 49.5t26 45.5t11.5 47.5q0 27 -18 45.5t-49 23.5l33 87q100 -10 145.5 -52.5t45.5 -100.5q0 -31 -12 -59t-27.5 -54t-27.5 -51t-12 -50
q0 -29 21.5 -44.5t77.5 -15.5l-17 -100q-61 0 -94 -21t-33 -74q0 -30 8 -63t8 -71q0 -62 -33 -104.5t-90 -65.5t-128 -28z" />
    <glyph glyph-name="asciitilde" unicode="~" horiz-adv-x="600" 
d="M389 157q-24 0 -51.5 8.5t-54.5 20t-51 20t-41 8.5q-27 0 -46.5 -9.5t-37.5 -31.5l-62 70q29 55 73 82.5t93 27.5q24 0 51.5 -8.5t54.5 -20t50.5 -20.5t40.5 -9q28 0 47.5 10t37.5 32l62 -70q-29 -55 -73 -82.5t-93 -27.5z" />
    <glyph glyph-name="uni00A0" unicode="&#xa0;" horiz-adv-x="252" 
 />
    <glyph glyph-name="exclamdown" unicode="&#xa1;" horiz-adv-x="274" 
d="M165 334q-44 0 -70.5 27t-26.5 65q0 40 26.5 66.5t70.5 26.5q45 0 71 -26.5t26 -66.5q0 -38 -26 -65t-71 -27zM-42 -200l126 469h106l-57 -469h-175z" />
    <glyph glyph-name="cent" unicode="&#xa2;" horiz-adv-x="600" 
d="M218 -120l21 115q-79 15 -122.5 67t-43.5 131q0 81 33 148.5t91 112t133 57.5l20 118h106l-20 -115q101 -15 141 -104l-122 -82q-9 29 -29.5 41.5t-52.5 13.5q-40 1 -72 -22t-50.5 -62t-18.5 -87q0 -89 94 -88q63 0 104 56l93 -86q-62 -87 -179 -102l-20 -112h-106z" />
    <glyph glyph-name="sterling" unicode="&#xa3;" horiz-adv-x="600" 
d="M49 -12l-47 104q39 13 70.5 40.5t49.5 62.5t18 72q0 8 -1 17t-2 19h-120l19 106h84q-1 17 -1 34q0 87 37.5 149t103.5 95t151 33q99 0 156.5 -45t71.5 -132l-134 -54q-8 49 -35 70.5t-72 21.5q-60 0 -90 -34.5t-30 -98.5q0 -11 0.5 -20.5t2.5 -18.5h148l-19 -106h-115
q-2 -39 -14.5 -76.5t-37.5 -69.5q10 3 27 3q21 0 41.5 -8t41 -16.5t42.5 -8.5q48 0 84 42l77 -70q-32 -50 -82 -80t-102 -30q-29 0 -63 10t-68.5 20.5t-64.5 10.5q-64 0 -127 -42z" />
    <glyph glyph-name="currency" unicode="&#xa4;" horiz-adv-x="600" 
d="M126 71l-83 83l66 66q-16 28 -25 60t-9 67q0 65 31 122l-63 62l83 83l59 -58q29 20 63.5 31t71.5 11q36 0 69 -10t62 -29l63 64l83 -83l-65 -66q16 -28 24.5 -60t8.5 -67q0 -37 -9.5 -70t-26.5 -62l58 -59l-83 -84l-59 60q-27 -17 -58.5 -26t-66.5 -9q-36 0 -69 10
t-61 28zM320 226q32 0 58 16.5t41 44t15 60.5t-15 60.5t-41 44t-58 17.5t-57.5 -16t-41 -45t-15.5 -61q0 -49 32 -85t82 -36z" />
    <glyph glyph-name="yen" unicode="&#xa5;" horiz-adv-x="600" 
d="M45 119l19 106h152l11 58h-152l19 106h124l-147 321h175l97 -219l166 219h180l-258 -321h117l-18 -106h-140l-10 -58h139l-19 -106h-139l-21 -119h-164l21 119h-152z" />
    <glyph glyph-name="brokenbar" unicode="&#xa6;" horiz-adv-x="308" 
d="M98 380l64 360h154l-64 -360h-154zM-4 -200l64 360h154l-64 -360h-154z" />
    <glyph glyph-name="section" unicode="&#xa7;" horiz-adv-x="525" 
d="M223 -10q-99 0 -145.5 39t-51.5 96l127 35q2 -24 20 -38.5t54 -14.5q39 0 55 13.5t16 30.5t-17.5 26.5t-45 17t-59 16t-59 22t-45 36t-17.5 58.5q0 47 24 78.5t64 49.5q-15 15 -23.5 35t-8.5 48q0 59 31.5 99.5t83 61.5t111.5 21q99 0 145.5 -39t51.5 -96l-127 -35
q-2 24 -20 38.5t-54 14.5q-39 0 -55 -13.5t-16 -30.5t17.5 -26.5t45 -17t59 -16t59 -22t45 -36t17.5 -58.5q0 -48 -24 -79.5t-64 -48.5q15 -15 23.5 -35.5t8.5 -47.5q0 -59 -31.5 -99.5t-83 -61.5t-111.5 -21zM208 363q0 -15 15.5 -24.5t40 -16.5l52.5 -15q36 10 36 40
q0 15 -15.5 24.5t-40 16.5l-52.5 15q-36 -10 -36 -40z" />
    <glyph glyph-name="dieresis" unicode="&#xa8;" horiz-adv-x="672" 
d="M466 568q-43 0 -65 26t-22 55q0 31 22 56t65 25q41 0 63.5 -25t22.5 -56q0 -29 -22.5 -55t-63.5 -26zM255 568q-43 0 -65.5 26t-22.5 55q0 31 22.5 56t65.5 25q40 0 62.5 -25t22.5 -56q0 -29 -22.5 -55t-62.5 -26z" />
    <glyph glyph-name="copyright" unicode="&#xa9;" horiz-adv-x="831" 
d="M434 -14q-78 0 -146 27.5t-118.5 77t-79 115.5t-28.5 143t28 143t79 115.5t118.5 77t146.5 27.5q77 0 144.5 -27.5t117.5 -77t78.5 -115.5t28.5 -143t-28.5 -143t-78.5 -115.5t-117.5 -77t-144.5 -27.5zM434 44q64 0 119 23.5t97 65t65 97t23 120.5t-23 120t-65 96.5
t-97 64.5t-119 23q-65 0 -120.5 -23t-97 -64.5t-64.5 -96.5t-23 -120t23 -120.5t64.5 -97t97 -65t120.5 -23.5zM615 233q-27 -40 -73 -62t-100 -22q-103 0 -160.5 51t-57.5 142q0 62 28.5 109t79 73.5t116.5 26.5q60 0 99 -20t69 -64l-96 -62q-12 23 -32.5 32.5t-38.5 9.5
q-43 0 -69.5 -28.5t-26.5 -73.5q0 -44 24 -68t67 -24q19 0 41 11t37 37z" />
    <glyph glyph-name="ordfeminine" unicode="&#xaa;" horiz-adv-x="377" 
d="M377 462h-118l8 29q-34 -35 -83 -35q-45 0 -76 28.5t-31 81.5q0 51 22 92.5t60.5 66.5t89.5 25q59 0 81 -35l13 29h84zM256 655q-26 0 -42 -22t-16 -49q0 -33 32 -33q24 0 39.5 24t15.5 48q0 32 -29 32z" />
    <glyph glyph-name="guillemotleft" unicode="&#xab;" horiz-adv-x="564" 
d="M112 70l-86 153l11 60l139 153h168l-174 -188l101 -178h-159zM353 70l-86 153l11 60l139 153h168l-174 -188l101 -178h-159z" />
    <glyph glyph-name="logicalnot" unicode="&#xac;" horiz-adv-x="600" 
d="M57 324h510l-57 -324h-147l32 185h-363z" />
    <glyph glyph-name="uni00AD" unicode="&#xad;" horiz-adv-x="436" 
d="M48 189l25 136h315l-24 -136h-316z" />
    <glyph glyph-name="registered" unicode="&#xae;" horiz-adv-x="831" 
d="M434 -14q-79 0 -146.5 28t-118.5 77t-79 115t-28 143t28 143t78.5 115.5t118.5 77t147 27.5q78 0 145 -27.5t117.5 -77t78.5 -115.5t28 -143t-28 -142.5t-78.5 -115t-117.5 -77.5t-145 -28zM434 44q64 0 119.5 23.5t97 65t64.5 97t23 120.5q0 64 -23 119.5t-64.5 96.5
t-97 64.5t-119.5 23.5q-65 0 -120.5 -23t-97 -64.5t-64.5 -96.5t-23 -120t23 -120.5t64.5 -97t97 -65t120.5 -23.5zM572 151q-45 0 -70.5 13.5t-38.5 34.5t-21.5 42t-18 35.5t-28.5 16.5v-135h-124v391h144q88 0 134.5 -33.5t46.5 -97.5q0 -37 -21 -65t-57 -42q20 -9 28 -22
t16 -23.5t28 -10.5q24 0 40 12l29 -91q-14 -11 -38.5 -18t-48.5 -7zM409 464h-14v-90h14q35 0 48 12.5t13 32.5q0 45 -61 45z" />
    <glyph glyph-name="macron" unicode="&#xaf;" horiz-adv-x="624" 
d="M173 698h344l-18 -102h-344z" />
    <glyph glyph-name="degree" unicode="&#xb0;" horiz-adv-x="396" 
d="M251 397q-46 0 -83.5 20.5t-59 57t-21.5 83.5q0 46 21.5 82t59 56.5t83.5 20.5q47 0 83.5 -20.5t58 -56.5t21.5 -82q0 -47 -21.5 -83.5t-58 -57t-83.5 -20.5zM251 487q28 0 48.5 20t20.5 52q0 31 -20.5 50.5t-48.5 19.5q-29 0 -49 -19.5t-20 -50.5q0 -32 20 -52t49 -20z
" />
    <glyph glyph-name="plusminus" unicode="&#xb1;" horiz-adv-x="600" 
d="M278 509h134l-19 -109h132l-22 -123h-132l-19 -109h-135l20 109h-133l22 123h133zM0 0l22 123h510l-22 -123h-510z" />
    <glyph glyph-name="uni00B2" unicode="&#xb2;" horiz-adv-x="330" 
d="M45 396q30 17 63 40.5t62 50t47.5 53.5t18.5 50q0 27 -29 27q-19 0 -33.5 -13.5t-25.5 -37.5l-79 45q21 48 66 76t99 28t88.5 -27t34.5 -77q0 -62 -46.5 -112.5t-114.5 -88.5h136l-16 -91h-284z" />
    <glyph glyph-name="uni00B3" unicode="&#xb3;" horiz-adv-x="330" 
d="M182 313q-32 0 -63.5 8t-48.5 19l30 94q44 -23 86 -23q51 0 51 34q0 12 -10 20.5t-34 8.5h-28l3 79h16q47 0 47 35q0 29 -31 29q-15 0 -29.5 -9.5t-21.5 -26.5l-74 51q18 35 56.5 59t91.5 24q58 0 94.5 -28.5t35.5 -79.5q0 -31 -16 -55t-40 -34q60 -18 60 -80
q0 -39 -24 -67t-63.5 -43t-87.5 -15z" />
    <glyph glyph-name="acute" unicode="&#xb4;" horiz-adv-x="640" 
d="M274 573l154 177l153 -38l-169 -139h-138z" />
    <glyph glyph-name="uni00B5" unicode="&#xb5;" horiz-adv-x="610" 
d="M449 509h148l-90 -509h-149l21 85q-35 -51 -75 -73t-82 -22q-47 0 -71 15l-27 -205h-153l124 709h156l-53 -287q-7 -41 5 -65.5t45 -24.5q29 0 56 16t52 57t48 115t45 189z" />
    <glyph glyph-name="paragraph" unicode="&#xb6;" horiz-adv-x="784" 
d="M637 710h160l-125 -710h-160zM49 443q0 88 45 147.5t121.5 89.5t172.5 30h179l-125 -710h-159l44 248h-20q-121 0 -189.5 50t-68.5 145z" />
    <glyph glyph-name="periodcentered" unicode="&#xb7;" horiz-adv-x="285" 
d="M145 166q-48 0 -76 29t-28 72t28 72t76 29t76.5 -29t28.5 -72t-28.5 -72t-76.5 -29z" />
    <glyph glyph-name="cedilla" unicode="&#xb8;" horiz-adv-x="618" 
d="M158 -223q-31 0 -67.5 6.5t-55.5 16.5l40 75q17 -7 43 -12t49 -5q42 0 42 24q0 7 -7 11t-27 4h-65l81 121h97l-31 -52q75 -17 75 -78q0 -49 -45.5 -80t-128.5 -31z" />
    <glyph glyph-name="uni00B9" unicode="&#xb9;" horiz-adv-x="330" 
d="M65 410h88l25 140l-57 -35l-46 86l183 109h69l-52 -300h81l-16 -91h-291z" />
    <glyph glyph-name="ordmasculine" unicode="&#xba;" horiz-adv-x="361" 
d="M219 456q-66 0 -103 33.5t-37 87.5q0 47 23 86.5t65 63t100 23.5q64 0 100 -33.5t36 -86.5q0 -50 -23.5 -89t-65 -62t-95.5 -23zM229 547q29 0 45.5 24t16.5 50q0 18 -10.5 28.5t-26.5 10.5q-27 0 -44.5 -23t-17.5 -52q0 -38 37 -38z" />
    <glyph glyph-name="guillemotright" unicode="&#xbb;" horiz-adv-x="564" 
d="M211 436l86 -153l-10 -60l-140 -153h-168l174 188l-101 178h159zM452 436l86 -153l-10 -60l-140 -153h-168l174 188l-101 178h159z" />
    <glyph glyph-name="onequarter" unicode="&#xbc;" horiz-adv-x="827" 
d="M65 410h88l25 140l-57 -35l-46 86l183 109h69l-52 -300h81l-16 -91h-291zM175 0l349 710h128l-350 -710h-127zM788 77h-43l-14 -77h-106l14 77h-160l12 73l225 242h85l-43 -239h42zM587 153h65l16 89z" />
    <glyph glyph-name="onehalf" unicode="&#xbd;" horiz-adv-x="827" 
d="M65 410h88l25 140l-57 -35l-46 86l183 109h69l-52 -300h81l-16 -91h-291zM175 0l349 710h128l-350 -710h-127zM486 77q30 17 63 40.5t62 50t47.5 53.5t18.5 50q0 27 -29 27q-19 0 -33.5 -13.5t-25.5 -37.5l-79 45q21 48 66 76t99 28t88.5 -27t34.5 -77
q0 -62 -46.5 -112.5t-114.5 -88.5h136l-16 -91h-284z" />
    <glyph glyph-name="threequarters" unicode="&#xbe;" horiz-adv-x="827" 
d="M182 313q-32 0 -63.5 8t-48.5 19l30 94q44 -23 86 -23q51 0 51 34q0 12 -10 20.5t-34 8.5h-28l3 79h16q47 0 47 35q0 29 -31 29q-15 0 -29.5 -9.5t-21.5 -26.5l-74 51q18 35 56.5 59t91.5 24q58 0 94.5 -28.5t35.5 -79.5q0 -31 -16 -55t-40 -34q60 -18 60 -80
q0 -39 -24 -67t-63.5 -43t-87.5 -15zM175 0l349 710h128l-350 -710h-127zM788 77h-43l-14 -77h-106l14 77h-160l12 73l225 242h85l-43 -239h42zM587 153h65l16 89z" />
    <glyph glyph-name="questiondown" unicode="&#xbf;" horiz-adv-x="511" 
d="M301 336q-43 0 -70 25.5t-27 66.5t26.5 67t69.5 26t70.5 -25.5t27.5 -65.5q0 -41 -26.5 -67.5t-70.5 -26.5zM183 -210q-85 0 -138.5 41t-53.5 115q0 64 36 109.5t92 86.5q34 25 55 45t33 40t19 47l114 -7q-5 -74 -32.5 -123t-81.5 -88q-43 -31 -58.5 -47.5t-15.5 -34.5
q0 -45 67 -45q45 0 83 26t62 74l108 -67q-25 -52 -69 -90.5t-100.5 -60t-119.5 -21.5z" />
    <glyph glyph-name="Agrave" unicode="&#xc0;" horiz-adv-x="697" 
d="M-69 0l434 710h137l170 -710h-160l-31 145h-293l-85 -145h-172zM268 281h183l-49 229zM372 774l-119 138l167 39l90 -177h-138z" />
    <glyph glyph-name="Aacute" unicode="&#xc1;" horiz-adv-x="697" 
d="M-69 0l434 710h137l170 -710h-160l-31 145h-293l-85 -145h-172zM268 281h183l-49 229zM372 774l154 177l153 -39l-169 -138h-138z" />
    <glyph glyph-name="Acircumflex" unicode="&#xc2;" horiz-adv-x="697" 
d="M-69 0l434 710h137l170 -710h-160l-31 145h-293l-85 -145h-172zM268 281h183l-49 229zM637 774h-137l-41 73l-67 -73h-148l164 167h126z" />
    <glyph glyph-name="Atilde" unicode="&#xc3;" horiz-adv-x="697" 
d="M-69 0l434 710h137l170 -710h-160l-31 145h-293l-85 -145h-172zM268 281h183l-49 229zM521 768q-29 0 -57.5 13t-54.5 26.5t-47 13.5q-14 0 -33.5 -11.5t-34.5 -33.5l-52 50q23 54 61.5 81t85.5 27q28 0 57 -13.5t55 -26.5t46 -13q18 0 36.5 11t32.5 35l52 -50
q-23 -54 -62 -81.5t-85 -27.5z" />
    <glyph glyph-name="Adieresis" unicode="&#xc4;" horiz-adv-x="697" 
d="M-69 0l434 710h137l170 -710h-160l-31 145h-293l-85 -145h-172zM268 281h183l-49 229zM561 769q-43 0 -65 26t-22 55q0 31 22 56t65 25q41 0 63.5 -25t22.5 -56q0 -29 -22.5 -55t-63.5 -26zM350 769q-43 0 -65.5 26t-22.5 55q0 31 22.5 56t65.5 25q40 0 62.5 -25
t22.5 -56q0 -29 -22.5 -55t-62.5 -26z" />
    <glyph glyph-name="Aring" unicode="&#xc5;" horiz-adv-x="697" 
d="M-69 0l434 710h137l170 -710h-160l-31 145h-293l-85 -145h-172zM268 281h183l-49 229zM460 769q-34 0 -61.5 15t-44 40.5t-16.5 56.5q0 32 17 58.5t45 41.5t63 15q51 0 85.5 -31.5t34.5 -79.5q0 -49 -35.5 -82.5t-87.5 -33.5zM461 828q24 0 39 16t15 41q0 23 -15.5 37.5
t-37.5 14.5q-24 0 -40 -16t-16 -40t15.5 -38.5t39.5 -14.5z" />
    <glyph glyph-name="AE" unicode="&#xc6;" horiz-adv-x="948" 
d="M-69 0l434 710h637l-25 -141h-314l-25 -141h294l-25 -141h-294l-26 -146h325l-36 -141h-476l25 143h-239l-83 -143h-172zM269 284h181l50 285h-64z" />
    <glyph glyph-name="Ccedilla" unicode="&#xc7;" horiz-adv-x="680" 
d="M674 139q-52 -75 -136 -112t-179 -37t-165 34t-109 97t-39 151q0 95 33.5 177t92.5 142.5t138.5 94.5t172.5 34q95 0 162 -36t99 -109l-139 -89q-17 46 -56.5 67.5t-87.5 21.5q-70 0 -126 -37.5t-89 -101.5t-33 -144q0 -74 43 -115.5t121 -41.5q50 0 101 23t90 76z
M294 -223q-31 0 -67.5 6.5t-55.5 16.5l40 75q17 -7 43 -12t49 -5q42 0 42 24q0 7 -7 11t-27 4h-65l81 121h97l-31 -52q75 -17 75 -78q0 -49 -45.5 -80t-128.5 -31z" />
    <glyph glyph-name="Egrave" unicode="&#xc8;" horiz-adv-x="579" 
d="M208 141h335l-35 -141h-486l125 710h487l-25 -141h-326l-25 -141h306l-25 -141h-306zM333 774l-119 138l167 39l90 -177h-138z" />
    <glyph glyph-name="Eacute" unicode="&#xc9;" horiz-adv-x="579" 
d="M208 141h335l-35 -141h-486l125 710h487l-25 -141h-326l-25 -141h306l-25 -141h-306zM333 774l154 177l153 -39l-169 -138h-138z" />
    <glyph glyph-name="Ecircumflex" unicode="&#xca;" horiz-adv-x="579" 
d="M208 141h335l-35 -141h-486l125 710h487l-25 -141h-326l-25 -141h306l-25 -141h-306zM598 774h-137l-41 73l-67 -73h-148l164 167h126z" />
    <glyph glyph-name="Edieresis" unicode="&#xcb;" horiz-adv-x="579" 
d="M208 141h335l-35 -141h-486l125 710h487l-25 -141h-326l-25 -141h306l-25 -141h-306zM522 769q-43 0 -65 26t-22 55q0 31 22 56t65 25q41 0 63.5 -25t22.5 -56q0 -29 -22.5 -55t-63.5 -26zM311 769q-43 0 -65.5 26t-22.5 55q0 31 22.5 56t65.5 25q40 0 62.5 -25t22.5 -56
q0 -29 -22.5 -55t-62.5 -26z" />
    <glyph glyph-name="Igrave" unicode="&#xcc;" horiz-adv-x="297" 
d="M22 0l125 710h163l-125 -710h-163zM170 774l-119 138l167 39l90 -177h-138z" />
    <glyph glyph-name="Iacute" unicode="&#xcd;" horiz-adv-x="297" 
d="M22 0l125 710h163l-125 -710h-163zM170 774l154 177l153 -39l-169 -138h-138z" />
    <glyph glyph-name="Icircumflex" unicode="&#xce;" horiz-adv-x="297" 
d="M22 0l125 710h163l-125 -710h-163zM436 774h-137l-41 73l-67 -73h-148l164 167h126z" />
    <glyph glyph-name="Idieresis" unicode="&#xcf;" horiz-adv-x="297" 
d="M22 0l125 710h163l-125 -710h-163zM360 769q-43 0 -65 26t-22 55q0 31 22 56t65 25q41 0 63.5 -25t22.5 -56q0 -29 -22.5 -55t-63.5 -26zM149 769q-43 0 -65.5 26t-22.5 55q0 31 22.5 56t65.5 25q40 0 62.5 -25t22.5 -56q0 -29 -22.5 -55t-62.5 -26z" />
    <glyph glyph-name="Eth" unicode="&#xd0;" horiz-adv-x="757" 
d="M22 0l125 710h223q182 0 278 -76.5t96 -215.5q0 -93 -32.5 -169.5t-91 -132t-139 -86t-176.5 -30.5h-283zM212 145h108q124 0 191 68.5t67 186.5q0 82 -51.5 123.5t-159.5 41.5h-82zM23 303l20 114h386l-20 -114h-386z" />
    <glyph glyph-name="Ntilde" unicode="&#xd1;" horiz-adv-x="751" 
d="M607 710h157l-125 -710h-145l-236 452l-79 -452h-157l125 710h145l236 -452zM547 770q-29 0 -57.5 13t-54.5 26.5t-47 13.5q-14 0 -33.5 -11.5t-34.5 -33.5l-52 50q23 54 61.5 81t85.5 27q28 0 57 -13.5t55 -26.5t46 -13q18 0 36.5 11t32.5 35l52 -50q-23 -54 -62 -81.5
t-85 -27.5z" />
    <glyph glyph-name="Ograve" unicode="&#xd2;" horiz-adv-x="781" 
d="M353 -10q-93 0 -162 34t-107 97t-38 151q0 95 33 177t91.5 142.5t137 94.5t171.5 34q88 0 153.5 -35t101.5 -99t36 -151q0 -93 -32 -174t-89 -142t-133 -95t-163 -34zM371 135q66 0 118.5 37.5t83 101.5t30.5 144q0 73 -39.5 115t-108.5 42t-123.5 -37.5t-86.5 -101.5
t-32 -144q0 -74 41.5 -115.5t116.5 -41.5zM413 774l-119 138l167 39l90 -177h-138z" />
    <glyph glyph-name="Oacute" unicode="&#xd3;" horiz-adv-x="781" 
d="M353 -10q-93 0 -162 34t-107 97t-38 151q0 95 33 177t91.5 142.5t137 94.5t171.5 34q88 0 153.5 -35t101.5 -99t36 -151q0 -93 -32 -174t-89 -142t-133 -95t-163 -34zM371 135q66 0 118.5 37.5t83 101.5t30.5 144q0 73 -39.5 115t-108.5 42t-123.5 -37.5t-86.5 -101.5
t-32 -144q0 -74 41.5 -115.5t116.5 -41.5zM413 774l154 177l153 -39l-169 -138h-138z" />
    <glyph glyph-name="Ocircumflex" unicode="&#xd4;" horiz-adv-x="781" 
d="M353 -10q-93 0 -162 34t-107 97t-38 151q0 95 33 177t91.5 142.5t137 94.5t171.5 34q88 0 153.5 -35t101.5 -99t36 -151q0 -93 -32 -174t-89 -142t-133 -95t-163 -34zM371 135q66 0 118.5 37.5t83 101.5t30.5 144q0 73 -39.5 115t-108.5 42t-123.5 -37.5t-86.5 -101.5
t-32 -144q0 -74 41.5 -115.5t116.5 -41.5zM679 774h-137l-41 73l-67 -73h-148l164 167h126z" />
    <glyph glyph-name="Otilde" unicode="&#xd5;" horiz-adv-x="781" 
d="M353 -10q-93 0 -162 34t-107 97t-38 151q0 95 33 177t91.5 142.5t137 94.5t171.5 34q88 0 153.5 -35t101.5 -99t36 -151q0 -93 -32 -174t-89 -142t-133 -95t-163 -34zM371 135q66 0 118.5 37.5t83 101.5t30.5 144q0 73 -39.5 115t-108.5 42t-123.5 -37.5t-86.5 -101.5
t-32 -144q0 -74 41.5 -115.5t116.5 -41.5zM563 768q-29 0 -57.5 13t-54.5 26.5t-47 13.5q-14 0 -33.5 -11.5t-34.5 -33.5l-52 50q23 54 61.5 81t85.5 27q28 0 57 -13.5t55 -26.5t46 -13q18 0 36.5 11t32.5 35l52 -50q-23 -54 -62 -81.5t-85 -27.5z" />
    <glyph glyph-name="Odieresis" unicode="&#xd6;" horiz-adv-x="781" 
d="M353 -10q-93 0 -162 34t-107 97t-38 151q0 95 33 177t91.5 142.5t137 94.5t171.5 34q88 0 153.5 -35t101.5 -99t36 -151q0 -93 -32 -174t-89 -142t-133 -95t-163 -34zM371 135q66 0 118.5 37.5t83 101.5t30.5 144q0 73 -39.5 115t-108.5 42t-123.5 -37.5t-86.5 -101.5
t-32 -144q0 -74 41.5 -115.5t116.5 -41.5zM603 769q-43 0 -65 26t-22 55q0 31 22 56t65 25q41 0 63.5 -25t22.5 -56q0 -29 -22.5 -55t-63.5 -26zM392 769q-43 0 -65.5 26t-22.5 55q0 31 22.5 56t65.5 25q40 0 62.5 -25t22.5 -56q0 -29 -22.5 -55t-62.5 -26z" />
    <glyph glyph-name="multiply" unicode="&#xd7;" horiz-adv-x="600" 
d="M169 25l-99 98l132 132l-132 131l99 98l131 -131l131 131l99 -98l-132 -131l132 -132l-99 -98l-131 131z" />
    <glyph glyph-name="Oslash" unicode="&#xd8;" horiz-adv-x="781" 
d="M353 -10q-93 0 -162 34t-107 97t-38 151q0 95 33 177t91.5 142.5t137 94.5t171.5 34q88 0 153.5 -35t101.5 -99t36 -151q0 -93 -32 -174t-89 -142t-133 -95t-163 -34zM371 135q66 0 118.5 37.5t83 101.5t30.5 144q0 73 -39.5 115t-108.5 42t-123.5 -37.5t-86.5 -101.5
t-32 -144q0 -74 41.5 -115.5t116.5 -41.5zM133 -16l-89 82l641 660l89 -82z" />
    <glyph glyph-name="Ugrave" unicode="&#xd9;" horiz-adv-x="759" 
d="M613 710h161l-66 -386q-28 -163 -120 -248.5t-240 -85.5q-102 0 -169.5 37.5t-95.5 107.5t-11 166l72 409h164l-70 -396q-31 -179 127 -179q77 0 121.5 48.5t62.5 151.5zM402 774l-119 138l167 39l90 -177h-138z" />
    <glyph glyph-name="Uacute" unicode="&#xda;" horiz-adv-x="759" 
d="M613 710h161l-66 -386q-28 -163 -120 -248.5t-240 -85.5q-102 0 -169.5 37.5t-95.5 107.5t-11 166l72 409h164l-70 -396q-31 -179 127 -179q77 0 121.5 48.5t62.5 151.5zM402 774l154 177l153 -39l-169 -138h-138z" />
    <glyph glyph-name="Ucircumflex" unicode="&#xdb;" horiz-adv-x="759" 
d="M613 710h161l-66 -386q-28 -163 -120 -248.5t-240 -85.5q-102 0 -169.5 37.5t-95.5 107.5t-11 166l72 409h164l-70 -396q-31 -179 127 -179q77 0 121.5 48.5t62.5 151.5zM667 774h-137l-41 73l-67 -73h-148l164 167h126z" />
    <glyph glyph-name="Udieresis" unicode="&#xdc;" horiz-adv-x="759" 
d="M613 710h161l-66 -386q-28 -163 -120 -248.5t-240 -85.5q-102 0 -169.5 37.5t-95.5 107.5t-11 166l72 409h164l-70 -396q-31 -179 127 -179q77 0 121.5 48.5t62.5 151.5zM591 769q-43 0 -65 26t-22 55q0 31 22 56t65 25q41 0 63.5 -25t22.5 -56q0 -29 -22.5 -55
t-63.5 -26zM380 769q-43 0 -65.5 26t-22.5 55q0 31 22.5 56t65.5 25q40 0 62.5 -25t22.5 -56q0 -29 -22.5 -55t-62.5 -26z" />
    <glyph glyph-name="Yacute" unicode="&#xdd;" horiz-adv-x="611" 
d="M713 710l-314 -393l-56 -317h-164l56 315l-182 395h175l111 -249l193 249h181zM331 774l154 177l153 -39l-169 -138h-138z" />
    <glyph glyph-name="Thorn" unicode="&#xde;" horiz-adv-x="641" 
d="M22 0l126 710h160l-18 -99h95q126 0 198.5 -48t72.5 -146q0 -92 -45 -151t-124 -88t-182 -29h-97l-27 -149h-159zM362 478h-95l-35 -195h101q83 0 121.5 28t38.5 87q0 43 -34 61.5t-97 18.5z" />
    <glyph glyph-name="germandbls" unicode="&#xdf;" horiz-adv-x="712" 
d="M16 382l22 127h96q29 112 115.5 176.5t211.5 64.5q91 0 145.5 -38t54.5 -101q0 -43 -18.5 -74t-45 -53.5t-53 -40.5t-44.5 -34.5t-18 -34.5q0 -16 15.5 -25.5t40.5 -18t52.5 -18.5t52.5 -26t40.5 -41t15.5 -65q0 -60 -30.5 -102.5t-83 -65t-117.5 -22.5q-92 0 -144.5 37
t-59.5 105l142 33q6 -59 77 -59q31 0 48 11t17 29t-15.5 29t-40.5 19.5t-52.5 18t-52 24t-40 37.5t-15.5 58q0 45 19 76t47.5 53.5t56.5 41.5t47.5 39t19.5 46q0 45 -73 45q-142 0 -169 -155l-84 -478h-153l67 382h-94z" />
    <glyph glyph-name="agrave" unicode="&#xe0;" horiz-adv-x="618" 
d="M215 -10q-87 0 -137.5 52.5t-50.5 143.5q0 71 23.5 131.5t66 105t100 69.5t124.5 25q90 0 145 -45l18 35h104q-7 -34 -16.5 -81.5t-19.5 -100.5l-27 -151q-9 -50 -13.5 -95t-4.5 -79h-151q0 22 3 46t8 47q-65 -103 -172 -103zM267 123q54 0 93.5 49.5t53.5 134.5l10 54
q-28 25 -79 25q-71 0 -115 -49t-44 -127q0 -87 81 -87zM307 573l-119 139l167 38l90 -177h-138z" />
    <glyph glyph-name="aacute" unicode="&#xe1;" horiz-adv-x="618" 
d="M215 -10q-87 0 -137.5 52.5t-50.5 143.5q0 71 23.5 131.5t66 105t100 69.5t124.5 25q90 0 145 -45l18 35h104q-7 -34 -16.5 -81.5t-19.5 -100.5l-27 -151q-9 -50 -13.5 -95t-4.5 -79h-151q0 22 3 46t8 47q-65 -103 -172 -103zM267 123q54 0 93.5 49.5t53.5 134.5l10 54
q-28 25 -79 25q-71 0 -115 -49t-44 -127q0 -87 81 -87zM307 573l154 177l153 -38l-169 -139h-138z" />
    <glyph glyph-name="acircumflex" unicode="&#xe2;" horiz-adv-x="618" 
d="M215 -10q-87 0 -137.5 52.5t-50.5 143.5q0 71 23.5 131.5t66 105t100 69.5t124.5 25q90 0 145 -45l18 35h104q-7 -34 -16.5 -81.5t-19.5 -100.5l-27 -151q-9 -50 -13.5 -95t-4.5 -79h-151q0 22 3 46t8 47q-65 -103 -172 -103zM267 123q54 0 93.5 49.5t53.5 134.5l10 54
q-28 25 -79 25q-71 0 -115 -49t-44 -127q0 -87 81 -87zM572 573h-137l-41 73l-67 -73h-148l164 167h126z" />
    <glyph glyph-name="atilde" unicode="&#xe3;" horiz-adv-x="618" 
d="M215 -10q-87 0 -137.5 52.5t-50.5 143.5q0 71 23.5 131.5t66 105t100 69.5t124.5 25q90 0 145 -45l18 35h104q-7 -34 -16.5 -81.5t-19.5 -100.5l-27 -151q-9 -50 -13.5 -95t-4.5 -79h-151q0 22 3 46t8 47q-65 -103 -172 -103zM267 123q54 0 93.5 49.5t53.5 134.5l10 54
q-28 25 -79 25q-71 0 -115 -49t-44 -127q0 -87 81 -87zM456 567q-29 0 -57.5 13t-54.5 26.5t-47 13.5q-14 0 -33.5 -11.5t-34.5 -33.5l-52 50q23 54 61.5 81t85.5 27q28 0 57 -13.5t55 -26.5t46 -13q18 0 36.5 11t32.5 35l52 -50q-23 -54 -62 -81.5t-85 -27.5z" />
    <glyph glyph-name="adieresis" unicode="&#xe4;" horiz-adv-x="618" 
d="M215 -10q-87 0 -137.5 52.5t-50.5 143.5q0 71 23.5 131.5t66 105t100 69.5t124.5 25q90 0 145 -45l18 35h104q-7 -34 -16.5 -81.5t-19.5 -100.5l-27 -151q-9 -50 -13.5 -95t-4.5 -79h-151q0 22 3 46t8 47q-65 -103 -172 -103zM267 123q54 0 93.5 49.5t53.5 134.5l10 54
q-28 25 -79 25q-71 0 -115 -49t-44 -127q0 -87 81 -87zM496 568q-43 0 -65 26t-22 55q0 31 22 56t65 25q41 0 63.5 -25t22.5 -56q0 -29 -22.5 -55t-63.5 -26zM285 568q-43 0 -65.5 26t-22.5 55q0 31 22.5 56t65.5 25q40 0 62.5 -25t22.5 -56q0 -29 -22.5 -55t-62.5 -26z" />
    <glyph glyph-name="aring" unicode="&#xe5;" horiz-adv-x="618" 
d="M215 -10q-87 0 -137.5 52.5t-50.5 143.5q0 71 23.5 131.5t66 105t100 69.5t124.5 25q90 0 145 -45l18 35h104q-7 -34 -16.5 -81.5t-19.5 -100.5l-27 -151q-9 -50 -13.5 -95t-4.5 -79h-151q0 22 3 46t8 47q-65 -103 -172 -103zM267 123q54 0 93.5 49.5t53.5 134.5l10 54
q-28 25 -79 25q-71 0 -115 -49t-44 -127q0 -87 81 -87zM395 568q-34 0 -61.5 15t-44 40.5t-16.5 56.5q0 32 17 58.5t45 41.5t63 15q51 0 85.5 -31.5t34.5 -79.5q0 -49 -35.5 -82.5t-87.5 -33.5zM396 627q24 0 39 16t15 41q0 23 -15.5 37.5t-37.5 14.5q-24 0 -40 -15.5
t-16 -40.5q0 -24 15.5 -38.5t39.5 -14.5z" />
    <glyph glyph-name="ae" unicode="&#xe6;" horiz-adv-x="849" 
d="M206 -10q-93 0 -144 38.5t-51 106.5q0 82 63.5 129t168.5 47h105l2 9q7 37 -11 56t-55 19q-69 0 -104 -60l-126 26q32 73 99 114.5t153 41.5q51 0 95 -16.5t66 -56.5q34 35 81.5 54t104.5 19q52 0 92 -18.5t63.5 -52.5t23.5 -80q0 -70 -49 -113t-129 -43h-167
q-2 -41 28.5 -65t83.5 -24q31 0 64 12.5t54 33.5l65 -93q-34 -40 -88 -62t-119 -22q-119 0 -178 87q-34 -44 -85 -65.5t-106 -21.5zM632 406q-44 0 -77 -25t-49 -70h136q22 0 37.5 12t15.5 35q0 19 -14.5 33.5t-48.5 14.5zM228 105q84 0 99 87l3 18h-90q-36 0 -57 -15.5
t-21 -40.5q0 -49 66 -49z" />
    <glyph glyph-name="ccedilla" unicode="&#xe7;" horiz-adv-x="497" 
d="M255 -10q-107 0 -167.5 54.5t-60.5 148.5q0 69 24 128t67 103t101 68.5t126 24.5t115 -26t72 -81l-123 -82q-9 29 -29.5 42t-51.5 13q-40 0 -72 -22.5t-50.5 -61.5t-18.5 -87q0 -89 93 -88q63 0 105 56l92 -86q-74 -104 -222 -104zM183 -223q-31 0 -67.5 6.5t-55.5 16.5
l40 75q17 -7 43 -12t49 -5q42 0 42 24q0 7 -7 11t-27 4h-65l81 121h97l-31 -52q75 -17 75 -78q0 -49 -45.5 -80t-128.5 -31z" />
    <glyph glyph-name="egrave" unicode="&#xe8;" horiz-adv-x="547" 
d="M266 -10q-72 0 -125.5 26t-83 74t-28.5 113q0 90 40.5 161t110 112t158.5 41q87 0 139.5 -41t52.5 -110q0 -70 -49 -112t-133 -48l-167 -12q5 -34 35 -53.5t79 -19.5q33 0 66 12.5t54 33.5l66 -93q-35 -40 -89.5 -62t-125.5 -22zM328 406q-49 0 -84 -29t-49 -79l133 9
q31 2 48.5 15.5t17.5 38.5q0 21 -17.5 33t-48.5 12zM276 573l-119 139l167 38l90 -177h-138z" />
    <glyph glyph-name="eacute" unicode="&#xe9;" horiz-adv-x="547" 
d="M266 -10q-72 0 -125.5 26t-83 74t-28.5 113q0 90 40.5 161t110 112t158.5 41q87 0 139.5 -41t52.5 -110q0 -70 -49 -112t-133 -48l-167 -12q5 -34 35 -53.5t79 -19.5q33 0 66 12.5t54 33.5l66 -93q-35 -40 -89.5 -62t-125.5 -22zM328 406q-49 0 -84 -29t-49 -79l133 9
q31 2 48.5 15.5t17.5 38.5q0 21 -17.5 33t-48.5 12zM276 573l154 177l153 -38l-169 -139h-138z" />
    <glyph glyph-name="ecircumflex" unicode="&#xea;" horiz-adv-x="547" 
d="M266 -10q-72 0 -125.5 26t-83 74t-28.5 113q0 90 40.5 161t110 112t158.5 41q87 0 139.5 -41t52.5 -110q0 -70 -49 -112t-133 -48l-167 -12q5 -34 35 -53.5t79 -19.5q33 0 66 12.5t54 33.5l66 -93q-35 -40 -89.5 -62t-125.5 -22zM328 406q-49 0 -84 -29t-49 -79l133 9
q31 2 48.5 15.5t17.5 38.5q0 21 -17.5 33t-48.5 12zM542 573h-137l-41 73l-67 -73h-148l164 167h126z" />
    <glyph glyph-name="edieresis" unicode="&#xeb;" horiz-adv-x="547" 
d="M266 -10q-72 0 -125.5 26t-83 74t-28.5 113q0 90 40.5 161t110 112t158.5 41q87 0 139.5 -41t52.5 -110q0 -70 -49 -112t-133 -48l-167 -12q5 -34 35 -53.5t79 -19.5q33 0 66 12.5t54 33.5l66 -93q-35 -40 -89.5 -62t-125.5 -22zM328 406q-49 0 -84 -29t-49 -79l133 9
q31 2 48.5 15.5t17.5 38.5q0 21 -17.5 33t-48.5 12zM466 568q-43 0 -65 26t-22 55q0 31 22 56t65 25q41 0 63.5 -25t22.5 -56q0 -29 -22.5 -55t-63.5 -26zM255 568q-43 0 -65.5 26t-22.5 55q0 31 22.5 56t65.5 25q40 0 62.5 -25t22.5 -56q0 -29 -22.5 -55t-62.5 -26z" />
    <glyph glyph-name="igrave" unicode="&#xec;" horiz-adv-x="270" 
d="M21 0q0 32 5 66t11 66l36 208q10 57 15.5 95.5t8.5 73.5h154q-3 -41 -10 -86t-14 -87l-35 -196q-6 -36 -11 -70.5t-5 -69.5h-155zM116 573l-119 139l167 38l90 -177h-138z" />
    <glyph glyph-name="iacute" unicode="&#xed;" horiz-adv-x="270" 
d="M21 0q0 32 5 66t11 66l36 208q10 57 15.5 95.5t8.5 73.5h154q-3 -41 -10 -86t-14 -87l-35 -196q-6 -36 -11 -70.5t-5 -69.5h-155zM116 573l154 177l153 -38l-169 -139h-138z" />
    <glyph glyph-name="icircumflex" unicode="&#xee;" horiz-adv-x="270" 
d="M21 0q0 32 5 66t11 66l36 208q10 57 15.5 95.5t8.5 73.5h154q-3 -41 -10 -86t-14 -87l-35 -196q-6 -36 -11 -70.5t-5 -69.5h-155zM381 573h-137l-41 73l-67 -73h-148l164 167h126z" />
    <glyph glyph-name="idieresis" unicode="&#xef;" horiz-adv-x="270" 
d="M21 0q0 32 5 66t11 66l36 208q10 57 15.5 95.5t8.5 73.5h154q-3 -41 -10 -86t-14 -87l-35 -196q-6 -36 -11 -70.5t-5 -69.5h-155zM305 568q-43 0 -65 26t-22 55q0 31 22 56t65 25q41 0 63.5 -25t22.5 -56q0 -29 -22.5 -55t-63.5 -26zM94 568q-43 0 -65.5 26t-22.5 55
q0 31 22.5 56t65.5 25q40 0 62.5 -25t22.5 -56q0 -29 -22.5 -55t-62.5 -26z" />
    <glyph glyph-name="eth" unicode="&#xf0;" horiz-adv-x="610" 
d="M256 -10q-67 0 -118.5 25t-80.5 71t-29 109q0 58 22.5 108t62 87.5t92 58.5t112.5 21q89 0 128 -51q-9 63 -48 113l-189 -40l-19 86l121 26q-42 25 -96 40l70 112q128 -37 207 -113l125 27l17 -87l-82 -18q46 -80 46 -182q0 -82 -23.5 -153.5t-68.5 -125.5t-107.5 -84
t-141.5 -30zM284 123q37 0 67 18t47.5 48t17.5 67q0 39 -23.5 63t-68.5 24q-64 0 -100.5 -38t-36.5 -92q0 -40 25 -65t72 -25z" />
    <glyph glyph-name="ntilde" unicode="&#xf1;" horiz-adv-x="623" 
d="M14 0l60 340q9 57 15 95.5t9 73.5h151q-4 -59 -25 -125q39 64 92.5 98.5t119.5 34.5q89 0 128 -60t14 -169l-34 -148q-7 -36 -10.5 -70.5t-3.5 -69.5h-156q0 66 15 132l35 153q10 45 -2.5 67.5t-45.5 22.5q-43 0 -81.5 -34t-70.5 -116t-57 -225h-153zM450 567
q-29 0 -57.5 13t-54.5 26.5t-47 13.5q-14 0 -33.5 -11.5t-34.5 -33.5l-52 50q23 54 61.5 81t85.5 27q28 0 57 -13.5t55 -26.5t46 -13q18 0 36.5 11t32.5 35l52 -50q-23 -54 -62 -81.5t-85 -27.5z" />
    <glyph glyph-name="ograve" unicode="&#xf2;" horiz-adv-x="596" 
d="M351 517q99 0 158 -53.5t59 -148.5q0 -68 -24 -127t-67.5 -103.5t-102 -69.5t-128.5 -25q-101 0 -160 53.5t-59 147.5q0 66 22.5 124.5t65.5 104t102.5 71.5t133.5 26zM271 123q38 0 69.5 23t50.5 62t19 87q0 43 -22 66t-62 23q-43 0 -74.5 -25t-48.5 -64t-17 -83
q0 -42 21.5 -65.5t63.5 -23.5zM285 573l-119 139l167 38l90 -177h-138z" />
    <glyph glyph-name="oacute" unicode="&#xf3;" horiz-adv-x="596" 
d="M351 517q99 0 158 -53.5t59 -148.5q0 -68 -24 -127t-67.5 -103.5t-102 -69.5t-128.5 -25q-101 0 -160 53.5t-59 147.5q0 66 22.5 124.5t65.5 104t102.5 71.5t133.5 26zM271 123q38 0 69.5 23t50.5 62t19 87q0 43 -22 66t-62 23q-43 0 -74.5 -25t-48.5 -64t-17 -83
q0 -42 21.5 -65.5t63.5 -23.5zM285 573l154 177l153 -38l-169 -139h-138z" />
    <glyph glyph-name="ocircumflex" unicode="&#xf4;" horiz-adv-x="596" 
d="M351 517q99 0 158 -53.5t59 -148.5q0 -68 -24 -127t-67.5 -103.5t-102 -69.5t-128.5 -25q-101 0 -160 53.5t-59 147.5q0 66 22.5 124.5t65.5 104t102.5 71.5t133.5 26zM271 123q38 0 69.5 23t50.5 62t19 87q0 43 -22 66t-62 23q-43 0 -74.5 -25t-48.5 -64t-17 -83
q0 -42 21.5 -65.5t63.5 -23.5zM550 573h-137l-41 73l-67 -73h-148l164 167h126z" />
    <glyph glyph-name="otilde" unicode="&#xf5;" horiz-adv-x="596" 
d="M351 517q99 0 158 -53.5t59 -148.5q0 -68 -24 -127t-67.5 -103.5t-102 -69.5t-128.5 -25q-101 0 -160 53.5t-59 147.5q0 66 22.5 124.5t65.5 104t102.5 71.5t133.5 26zM271 123q38 0 69.5 23t50.5 62t19 87q0 43 -22 66t-62 23q-43 0 -74.5 -25t-48.5 -64t-17 -83
q0 -42 21.5 -65.5t63.5 -23.5zM434 567q-29 0 -57.5 13t-54.5 26.5t-47 13.5q-14 0 -33.5 -11.5t-34.5 -33.5l-52 50q23 54 61.5 81t85.5 27q28 0 57 -13.5t55 -26.5t46 -13q18 0 36.5 11t32.5 35l52 -50q-23 -54 -62 -81.5t-85 -27.5z" />
    <glyph glyph-name="odieresis" unicode="&#xf6;" horiz-adv-x="596" 
d="M351 517q99 0 158 -53.5t59 -148.5q0 -68 -24 -127t-67.5 -103.5t-102 -69.5t-128.5 -25q-101 0 -160 53.5t-59 147.5q0 66 22.5 124.5t65.5 104t102.5 71.5t133.5 26zM271 123q38 0 69.5 23t50.5 62t19 87q0 43 -22 66t-62 23q-43 0 -74.5 -25t-48.5 -64t-17 -83
q0 -42 21.5 -65.5t63.5 -23.5zM474 568q-43 0 -65 26t-22 55q0 31 22 56t65 25q41 0 63.5 -25t22.5 -56q0 -29 -22.5 -55t-63.5 -26zM263 568q-43 0 -65.5 26t-22.5 55q0 31 22.5 56t65.5 25q40 0 62.5 -25t22.5 -56q0 -29 -22.5 -55t-62.5 -26z" />
    <glyph glyph-name="divide" unicode="&#xf7;" horiz-adv-x="600" 
d="M333 364q-34 0 -58 22t-24 55q0 34 24 56t58 22q33 0 57 -22t24 -56q0 -33 -24 -55t-57 -22zM564 316l-21 -123h-507l21 123h507zM267 -10q-33 0 -57 22t-24 56q0 33 24 55t57 22q34 0 58 -22t24 -55q0 -34 -24 -56t-58 -22z" />
    <glyph glyph-name="oslash" unicode="&#xf8;" horiz-adv-x="596" 
d="M351 517q99 0 158 -53.5t59 -148.5q0 -68 -24 -127t-67.5 -103.5t-102 -69.5t-128.5 -25q-101 0 -160 53.5t-59 147.5q0 66 22.5 124.5t65.5 104t102.5 71.5t133.5 26zM271 123q38 0 69.5 23t50.5 62t19 87q0 43 -22 66t-62 23q-43 0 -74.5 -25t-48.5 -64t-17 -83
q0 -42 21.5 -65.5t63.5 -23.5zM111 -15l-79 74l57 59l80 69l207 212l51 66l57 59l80 -74l-57 -59l-81 -69l-207 -212l-51 -66z" />
    <glyph glyph-name="ugrave" unicode="&#xf9;" horiz-adv-x="610" 
d="M185 -10q-88 0 -125 59t-16 168l22 123q11 57 16 95.5t8 73.5h154q-3 -41 -10 -86t-15 -87l-20 -107q-9 -45 2.5 -71t49.5 -26q35 0 70 34.5t67.5 116.5t59.5 226h149l-59 -335q-9 -50 -14 -95t-5 -79h-150q0 28 4.5 59t11.5 60q-78 -129 -200 -129zM292 573l-119 139
l167 38l90 -177h-138z" />
    <glyph glyph-name="uacute" unicode="&#xfa;" horiz-adv-x="610" 
d="M185 -10q-88 0 -125 59t-16 168l22 123q11 57 16 95.5t8 73.5h154q-3 -41 -10 -86t-15 -87l-20 -107q-9 -45 2.5 -71t49.5 -26q35 0 70 34.5t67.5 116.5t59.5 226h149l-59 -335q-9 -50 -14 -95t-5 -79h-150q0 28 4.5 59t11.5 60q-78 -129 -200 -129zM292 573l154 177
l153 -38l-169 -139h-138z" />
    <glyph glyph-name="ucircumflex" unicode="&#xfb;" horiz-adv-x="610" 
d="M185 -10q-88 0 -125 59t-16 168l22 123q11 57 16 95.5t8 73.5h154q-3 -41 -10 -86t-15 -87l-20 -107q-9 -45 2.5 -71t49.5 -26q35 0 70 34.5t67.5 116.5t59.5 226h149l-59 -335q-9 -50 -14 -95t-5 -79h-150q0 28 4.5 59t11.5 60q-78 -129 -200 -129zM557 573h-137l-41 73
l-67 -73h-148l164 167h126z" />
    <glyph glyph-name="udieresis" unicode="&#xfc;" horiz-adv-x="610" 
d="M185 -10q-88 0 -125 59t-16 168l22 123q11 57 16 95.5t8 73.5h154q-3 -41 -10 -86t-15 -87l-20 -107q-9 -45 2.5 -71t49.5 -26q35 0 70 34.5t67.5 116.5t59.5 226h149l-59 -335q-9 -50 -14 -95t-5 -79h-150q0 28 4.5 59t11.5 60q-78 -129 -200 -129zM481 568
q-43 0 -65 26t-22 55q0 31 22 56t65 25q41 0 63.5 -25t22.5 -56q0 -29 -22.5 -55t-63.5 -26zM270 568q-43 0 -65.5 26t-22.5 55q0 31 22.5 56t65.5 25q40 0 62.5 -25t22.5 -56q0 -29 -22.5 -55t-62.5 -26z" />
    <glyph glyph-name="yacute" unicode="&#xfd;" horiz-adv-x="614" 
d="M171 -210q-31 0 -65.5 4.5t-65 13.5t-50.5 24l49 130q32 -17 68.5 -27.5t85.5 -10.5q83 0 125 38t62 119l8 34q-40 -53 -89.5 -79t-102.5 -26q-90 0 -129 60t-19 168l19 104q10 55 15 93.5t8 73.5h154q-3 -42 -10 -86t-14 -85l-17 -89q-8 -45 3.5 -71t46.5 -26
q41 0 77 33t67 110.5t56 213.5h148l-72 -410q-20 -115 -67 -182.5t-120 -97t-171 -29.5zM294 573l154 177l153 -38l-169 -139h-138z" />
    <glyph glyph-name="thorn" unicode="&#xfe;" horiz-adv-x="618" 
d="M132 -200h-153l166 940h153l-40 -231l-21 -88q64 96 167 96q88 0 138.5 -52.5t50.5 -144.5q0 -70 -23.5 -130.5t-66.5 -105.5t-100 -69.5t-125 -24.5q-63 0 -109 22l-2 -12zM352 384q-53 0 -92.5 -49.5t-54.5 -134.5l-10 -55q28 -24 79 -24q71 0 115.5 49t44.5 127
q0 87 -82 87z" />
    <glyph glyph-name="ydieresis" unicode="&#xff;" horiz-adv-x="614" 
d="M171 -210q-31 0 -65.5 4.5t-65 13.5t-50.5 24l49 130q32 -17 68.5 -27.5t85.5 -10.5q83 0 125 38t62 119l8 34q-40 -53 -89.5 -79t-102.5 -26q-90 0 -129 60t-19 168l19 104q10 55 15 93.5t8 73.5h154q-3 -42 -10 -86t-14 -85l-17 -89q-8 -45 3.5 -71t46.5 -26
q41 0 77 33t67 110.5t56 213.5h148l-72 -410q-20 -115 -67 -182.5t-120 -97t-171 -29.5zM483 568q-43 0 -65 26t-22 55q0 31 22 56t65 25q41 0 63.5 -25t22.5 -56q0 -29 -22.5 -55t-63.5 -26zM272 568q-43 0 -65.5 26t-22.5 55q0 31 22.5 56t65.5 25q40 0 62.5 -25t22.5 -56
q0 -29 -22.5 -55t-62.5 -26z" />
    <glyph glyph-name="Amacron" unicode="&#x100;" horiz-adv-x="697" 
d="M-69 0l434 710h137l170 -710h-160l-31 145h-293l-85 -145h-172zM268 281h183l-49 229zM291 899h344l-18 -102h-344z" />
    <glyph glyph-name="amacron" unicode="&#x101;" horiz-adv-x="618" 
d="M215 -10q-87 0 -137.5 52.5t-50.5 143.5q0 71 23.5 131.5t66 105t100 69.5t124.5 25q90 0 145 -45l18 35h104q-7 -34 -16.5 -81.5t-19.5 -100.5l-27 -151q-9 -50 -13.5 -95t-4.5 -79h-151q0 22 3 46t8 47q-65 -103 -172 -103zM267 123q54 0 93.5 49.5t53.5 134.5l10 54
q-28 25 -79 25q-71 0 -115 -49t-44 -127q0 -87 81 -87zM227 698h344l-18 -102h-344z" />
    <glyph glyph-name="Abreve" unicode="&#x102;" horiz-adv-x="697" 
d="M-69 0l434 710h137l170 -710h-160l-31 145h-293l-85 -145h-172zM268 281h183l-49 229zM556 953l96 -12q-12 -80 -67 -126t-128 -46q-83 0 -126 46t-41 126l100 12q-1 -83 69 -83q69 0 97 83z" />
    <glyph glyph-name="abreve" unicode="&#x103;" horiz-adv-x="618" 
d="M215 -10q-87 0 -137.5 52.5t-50.5 143.5q0 71 23.5 131.5t66 105t100 69.5t124.5 25q90 0 145 -45l18 35h104q-7 -34 -16.5 -81.5t-19.5 -100.5l-27 -151q-9 -50 -13.5 -95t-4.5 -79h-151q0 22 3 46t8 47q-65 -103 -172 -103zM267 123q54 0 93.5 49.5t53.5 134.5l10 54
q-28 25 -79 25q-71 0 -115 -49t-44 -127q0 -87 81 -87zM491 752l96 -12q-12 -79 -67 -125.5t-128 -46.5q-83 0 -126 46.5t-41 125.5l100 12q-1 -83 69 -83q69 0 97 83z" />
    <glyph glyph-name="Aogonek" unicode="&#x104;" horiz-adv-x="697" 
d="M-69 0l434 710h137l170 -710h-160l-31 145h-293l-85 -145h-172zM268 281h183l-49 229zM568 -223q-62 0 -99 27t-37 73q0 39 24.5 70t63 53.5t81.5 34.5l71 -35q-46 -19 -77 -44t-31 -53q0 -33 37 -33q30 0 60 30l38 -73q-21 -23 -56.5 -36.5t-74.5 -13.5z" />
    <glyph glyph-name="aogonek" unicode="&#x105;" horiz-adv-x="618" 
d="M215 -10q-87 0 -137.5 52.5t-50.5 143.5q0 71 23.5 131.5t66 105t100 69.5t124.5 25q90 0 145 -45l18 35h104q-7 -34 -16.5 -81.5t-19.5 -100.5l-27 -151q-9 -50 -13.5 -95t-4.5 -79h-151q0 22 3 46t8 47q-65 -103 -172 -103zM267 123q54 0 93.5 49.5t53.5 134.5l10 54
q-28 25 -79 25q-71 0 -115 -49t-44 -127q0 -87 81 -87zM422 -223q-62 0 -99 27t-37 73q0 39 24.5 70t63 53.5t81.5 34.5l71 -35q-46 -19 -77 -44t-31 -53q0 -33 37 -33q30 0 60 30l38 -73q-21 -23 -56.5 -36.5t-74.5 -13.5z" />
    <glyph glyph-name="Cacute" unicode="&#x106;" horiz-adv-x="680" 
d="M674 139q-52 -75 -136 -112t-179 -37t-165 34t-109 97t-39 151q0 95 33.5 177t92.5 142.5t138.5 94.5t172.5 34q95 0 162 -36t99 -109l-139 -89q-17 46 -56.5 67.5t-87.5 21.5q-70 0 -126 -37.5t-89 -101.5t-33 -144q0 -74 43 -115.5t121 -41.5q50 0 101 23t90 76z
M414 774l154 177l153 -39l-169 -138h-138z" />
    <glyph glyph-name="cacute" unicode="&#x107;" horiz-adv-x="497" 
d="M255 -10q-107 0 -167.5 54.5t-60.5 148.5q0 69 24 128t67 103t101 68.5t126 24.5t115 -26t72 -81l-123 -82q-9 29 -29.5 42t-51.5 13q-40 0 -72 -22.5t-50.5 -61.5t-18.5 -87q0 -89 93 -88q63 0 105 56l92 -86q-74 -104 -222 -104zM266 573l154 177l153 -38l-169 -139
h-138z" />
    <glyph glyph-name="Ccircumflex" unicode="&#x108;" horiz-adv-x="680" 
d="M674 139q-52 -75 -136 -112t-179 -37t-165 34t-109 97t-39 151q0 95 33.5 177t92.5 142.5t138.5 94.5t172.5 34q95 0 162 -36t99 -109l-139 -89q-17 46 -56.5 67.5t-87.5 21.5q-70 0 -126 -37.5t-89 -101.5t-33 -144q0 -74 43 -115.5t121 -41.5q50 0 101 23t90 76z
M679 774h-137l-41 73l-67 -73h-148l164 167h126z" />
    <glyph glyph-name="ccircumflex" unicode="&#x109;" horiz-adv-x="497" 
d="M255 -10q-107 0 -167.5 54.5t-60.5 148.5q0 69 24 128t67 103t101 68.5t126 24.5t115 -26t72 -81l-123 -82q-9 29 -29.5 42t-51.5 13q-40 0 -72 -22.5t-50.5 -61.5t-18.5 -87q0 -89 93 -88q63 0 105 56l92 -86q-74 -104 -222 -104zM532 573h-137l-41 73l-67 -73h-148
l164 167h126z" />
    <glyph glyph-name="Cdotaccent" unicode="&#x10a;" horiz-adv-x="680" 
d="M674 139q-52 -75 -136 -112t-179 -37t-165 34t-109 97t-39 151q0 95 33.5 177t92.5 142.5t138.5 94.5t172.5 34q95 0 162 -36t99 -109l-139 -89q-17 46 -56.5 67.5t-87.5 21.5q-70 0 -126 -37.5t-89 -101.5t-33 -144q0 -74 43 -115.5t121 -41.5q50 0 101 23t90 76z
M497 766q-44 0 -69.5 27t-25.5 64q0 38 26 64.5t70 26.5q45 0 70.5 -26.5t25.5 -64.5q0 -37 -26 -64t-71 -27z" />
    <glyph glyph-name="cdotaccent" unicode="&#x10b;" horiz-adv-x="497" 
d="M255 -10q-107 0 -167.5 54.5t-60.5 148.5q0 69 24 128t67 103t101 68.5t126 24.5t115 -26t72 -81l-123 -82q-9 29 -29.5 42t-51.5 13q-40 0 -72 -22.5t-50.5 -61.5t-18.5 -87q0 -89 93 -88q63 0 105 56l92 -86q-74 -104 -222 -104zM350 566q-44 0 -69.5 26.5t-25.5 63.5
q0 38 26 64.5t70 26.5q45 0 70.5 -26.5t25.5 -64.5q0 -37 -26 -63.5t-71 -26.5z" />
    <glyph glyph-name="Ccaron" unicode="&#x10c;" horiz-adv-x="680" 
d="M674 139q-52 -75 -136 -112t-179 -37t-165 34t-109 97t-39 151q0 95 33.5 177t92.5 142.5t138.5 94.5t172.5 34q95 0 162 -36t99 -109l-139 -89q-17 46 -56.5 67.5t-87.5 21.5q-70 0 -126 -37.5t-89 -101.5t-33 -144q0 -74 43 -115.5t121 -41.5q50 0 101 23t90 76z
M420 774l-103 167l132 10l47 -84l77 84l136 -10l-163 -167h-126z" />
    <glyph glyph-name="ccaron" unicode="&#x10d;" horiz-adv-x="497" 
d="M255 -10q-107 0 -167.5 54.5t-60.5 148.5q0 69 24 128t67 103t101 68.5t126 24.5t115 -26t72 -81l-123 -82q-9 29 -29.5 42t-51.5 13q-40 0 -72 -22.5t-50.5 -61.5t-18.5 -87q0 -89 93 -88q63 0 105 56l92 -86q-74 -104 -222 -104zM273 573l-103 167l132 10l47 -84l77 84
l136 -10l-163 -167h-126z" />
    <glyph glyph-name="Dcaron" unicode="&#x10e;" horiz-adv-x="757" 
d="M22 0l125 710h223q182 0 278 -76.5t96 -215.5q0 -93 -32.5 -169.5t-91 -132t-139 -86t-176.5 -30.5h-283zM212 145h108q124 0 191 68.5t67 186.5q0 82 -51.5 123.5t-159.5 41.5h-82zM405 774l-103 167l132 10l47 -84l77 84l136 -10l-163 -167h-126z" />
    <glyph glyph-name="dcaron" unicode="&#x10f;" horiz-adv-x="618" 
d="M215 -10q-87 0 -137.5 52.5t-50.5 143.5q0 71 23.5 131.5t66 105t100 69.5t124.5 25q63 0 108 -22l2 14l41 231h153l-100 -566q-9 -50 -13.5 -95t-4.5 -79h-151q0 22 3 46t8 47q-65 -103 -172 -103zM267 123q54 0 93.5 49.5t53.5 134.5l10 54q-28 25 -79 25
q-71 0 -115 -49t-44 -127q0 -87 81 -87zM645 553l40 227h121l-74 -227h-87z" />
    <glyph glyph-name="Dcroat" unicode="&#x110;" horiz-adv-x="757" 
d="M22 0l125 710h223q182 0 278 -76.5t96 -215.5q0 -93 -32.5 -169.5t-91 -132t-139 -86t-176.5 -30.5h-283zM212 145h108q124 0 191 68.5t67 186.5q0 82 -51.5 123.5t-159.5 41.5h-82zM23 303l20 114h386l-20 -114h-386z" />
    <glyph glyph-name="dcroat" unicode="&#x111;" horiz-adv-x="618" 
d="M215 -10q-87 0 -137.5 52.5t-50.5 143.5q0 71 23.5 131.5t66 105t100 69.5t124.5 25q63 0 108 -22l2 14l41 231h153l-100 -566q-9 -50 -13.5 -95t-4.5 -79h-151q0 22 3 46t8 47q-65 -103 -172 -103zM267 123q54 0 93.5 49.5t53.5 134.5l10 54q-28 25 -79 25
q-71 0 -115 -49t-44 -127q0 -87 81 -87zM280 574l19 108h403l-19 -108h-403z" />
    <glyph glyph-name="Emacron" unicode="&#x112;" horiz-adv-x="579" 
d="M208 141h335l-35 -141h-486l125 710h487l-25 -141h-326l-25 -141h306l-25 -141h-306zM252 899h344l-18 -102h-344z" />
    <glyph glyph-name="emacron" unicode="&#x113;" horiz-adv-x="547" 
d="M266 -10q-72 0 -125.5 26t-83 74t-28.5 113q0 90 40.5 161t110 112t158.5 41q87 0 139.5 -41t52.5 -110q0 -70 -49 -112t-133 -48l-167 -12q5 -34 35 -53.5t79 -19.5q33 0 66 12.5t54 33.5l66 -93q-35 -40 -89.5 -62t-125.5 -22zM328 406q-49 0 -84 -29t-49 -79l133 9
q31 2 48.5 15.5t17.5 38.5q0 21 -17.5 33t-48.5 12zM196 698h344l-18 -102h-344z" />
    <glyph glyph-name="Ebreve" unicode="&#x114;" horiz-adv-x="579" 
d="M208 141h335l-35 -141h-486l125 710h487l-25 -141h-326l-25 -141h306l-25 -141h-306zM517 953l96 -12q-12 -80 -67 -126t-128 -46q-83 0 -126 46t-41 126l100 12q-1 -83 69 -83q69 0 97 83z" />
    <glyph glyph-name="ebreve" unicode="&#x115;" horiz-adv-x="547" 
d="M266 -10q-72 0 -125.5 26t-83 74t-28.5 113q0 90 40.5 161t110 112t158.5 41q87 0 139.5 -41t52.5 -110q0 -70 -49 -112t-133 -48l-167 -12q5 -34 35 -53.5t79 -19.5q33 0 66 12.5t54 33.5l66 -93q-35 -40 -89.5 -62t-125.5 -22zM328 406q-49 0 -84 -29t-49 -79l133 9
q31 2 48.5 15.5t17.5 38.5q0 21 -17.5 33t-48.5 12zM461 752l96 -12q-12 -79 -67 -125.5t-128 -46.5q-83 0 -126 46.5t-41 125.5l100 12q-1 -83 69 -83q69 0 97 83z" />
    <glyph glyph-name="Edotaccent" unicode="&#x116;" horiz-adv-x="579" 
d="M208 141h335l-35 -141h-486l125 710h487l-25 -141h-326l-25 -141h306l-25 -141h-306zM416 766q-44 0 -69.5 27t-25.5 64q0 38 26 64.5t70 26.5q45 0 70.5 -26.5t25.5 -64.5q0 -37 -26 -64t-71 -27z" />
    <glyph glyph-name="edotaccent" unicode="&#x117;" horiz-adv-x="547" 
d="M266 -10q-72 0 -125.5 26t-83 74t-28.5 113q0 90 40.5 161t110 112t158.5 41q87 0 139.5 -41t52.5 -110q0 -70 -49 -112t-133 -48l-167 -12q5 -34 35 -53.5t79 -19.5q33 0 66 12.5t54 33.5l66 -93q-35 -40 -89.5 -62t-125.5 -22zM328 406q-49 0 -84 -29t-49 -79l133 9
q31 2 48.5 15.5t17.5 38.5q0 21 -17.5 33t-48.5 12zM360 566q-44 0 -69.5 26.5t-25.5 63.5q0 38 26 64.5t70 26.5q45 0 70.5 -26.5t25.5 -64.5q0 -37 -26 -63.5t-71 -26.5z" />
    <glyph glyph-name="Eogonek" unicode="&#x118;" horiz-adv-x="579" 
d="M208 141h335l-35 -141h-486l125 710h487l-25 -141h-326l-25 -141h306l-25 -141h-306zM403 -223q-62 0 -99 27t-37 73q0 39 24.5 70t63 53.5t81.5 34.5l71 -35q-46 -19 -77 -44t-31 -53q0 -33 37 -33q30 0 60 30l38 -73q-21 -23 -56.5 -36.5t-74.5 -13.5z" />
    <glyph glyph-name="eogonek" unicode="&#x119;" horiz-adv-x="547" 
d="M416 -173q-22 -23 -57 -36.5t-75 -13.5q-61 0 -98 27t-37 73q0 36 21 65t53 50q-90 12 -142.5 67.5t-51.5 143.5q0 90 40.5 161t110 112t158.5 41q87 0 139.5 -41t52.5 -110q0 -70 -49 -112t-133 -48l-167 -12q5 -34 35 -53.5t79 -19.5q33 0 66 12.5t54 33.5l66 -93
q-14 -19 -35.5 -34.5t-47.5 -28.5q-57 -28 -87 -54.5t-30 -53.5q0 -33 37 -33q30 0 60 30zM328 307q31 2 48.5 15.5t17.5 38.5q0 21 -17.5 33t-48.5 12q-49 0 -84 -29t-49 -79z" />
    <glyph glyph-name="Ecaron" unicode="&#x11a;" horiz-adv-x="579" 
d="M208 141h335l-35 -141h-486l125 710h487l-25 -141h-326l-25 -141h306l-25 -141h-306zM339 774l-103 167l132 10l47 -84l77 84l136 -10l-163 -167h-126z" />
    <glyph glyph-name="ecaron" unicode="&#x11b;" horiz-adv-x="547" 
d="M266 -10q-72 0 -125.5 26t-83 74t-28.5 113q0 90 40.5 161t110 112t158.5 41q87 0 139.5 -41t52.5 -110q0 -70 -49 -112t-133 -48l-167 -12q5 -34 35 -53.5t79 -19.5q33 0 66 12.5t54 33.5l66 -93q-35 -40 -89.5 -62t-125.5 -22zM328 406q-49 0 -84 -29t-49 -79l133 9
q31 2 48.5 15.5t17.5 38.5q0 21 -17.5 33t-48.5 12zM283 573l-103 167l132 10l47 -84l77 84l136 -10l-163 -167h-126z" />
    <glyph glyph-name="Gcircumflex" unicode="&#x11c;" horiz-adv-x="768" 
d="M442 386h302l-67 -386h-130v51q-41 -33 -89.5 -47t-102.5 -14q-93 0 -162.5 34.5t-108 97.5t-38.5 150q0 95 33.5 177t94 142.5t142 94.5t177.5 34q60 0 115 -15.5t98.5 -47t67.5 -80.5l-141 -91q-20 41 -64 65t-98 24q-73 0 -131.5 -37.5t-92.5 -101.5t-34 -144
q0 -74 42.5 -115.5t121.5 -41.5q68 0 120 30t67 88h-145zM679 774h-137l-41 73l-67 -73h-148l164 167h126z" />
    <glyph glyph-name="gcircumflex" unicode="&#x11d;" horiz-adv-x="622" 
d="M180 -210q-59 0 -111 11.5t-81 30.5l53 130q68 -38 154 -38q80 0 123 36t63 121l7 28q-65 -99 -172 -99q-87 0 -137.5 50t-50.5 139q0 68 23.5 126t66.5 101t100.5 67t125.5 24q90 0 146 -43l17 33h104q-7 -36 -17 -83.5t-19 -98.5l-39 -226q-28 -158 -116 -233.5
t-240 -75.5zM268 143q55 0 96 45t54 123l10 52q-29 23 -81 23q-70 0 -115 -45.5t-45 -116.5q0 -81 81 -81zM573 573h-137l-41 73l-67 -73h-148l164 167h126z" />
    <glyph glyph-name="Gbreve" unicode="&#x11e;" horiz-adv-x="768" 
d="M442 386h302l-67 -386h-130v51q-41 -33 -89.5 -47t-102.5 -14q-93 0 -162.5 34.5t-108 97.5t-38.5 150q0 95 33.5 177t94 142.5t142 94.5t177.5 34q60 0 115 -15.5t98.5 -47t67.5 -80.5l-141 -91q-20 41 -64 65t-98 24q-73 0 -131.5 -37.5t-92.5 -101.5t-34 -144
q0 -74 42.5 -115.5t121.5 -41.5q68 0 120 30t67 88h-145zM598 953l96 -12q-12 -80 -67 -126t-128 -46q-83 0 -126 46t-41 126l100 12q-1 -83 69 -83q69 0 97 83z" />
    <glyph glyph-name="gbreve" unicode="&#x11f;" horiz-adv-x="622" 
d="M180 -210q-59 0 -111 11.5t-81 30.5l53 130q68 -38 154 -38q80 0 123 36t63 121l7 28q-65 -99 -172 -99q-87 0 -137.5 50t-50.5 139q0 68 23.5 126t66.5 101t100.5 67t125.5 24q90 0 146 -43l17 33h104q-7 -36 -17 -83.5t-19 -98.5l-39 -226q-28 -158 -116 -233.5
t-240 -75.5zM268 143q55 0 96 45t54 123l10 52q-29 23 -81 23q-70 0 -115 -45.5t-45 -116.5q0 -81 81 -81zM492 752l96 -12q-12 -79 -67 -125.5t-128 -46.5q-83 0 -126 46.5t-41 125.5l100 12q-1 -83 69 -83q69 0 97 83z" />
    <glyph glyph-name="Gdotaccent" unicode="&#x120;" horiz-adv-x="768" 
d="M442 386h302l-67 -386h-130v51q-41 -33 -89.5 -47t-102.5 -14q-93 0 -162.5 34.5t-108 97.5t-38.5 150q0 95 33.5 177t94 142.5t142 94.5t177.5 34q60 0 115 -15.5t98.5 -47t67.5 -80.5l-141 -91q-20 41 -64 65t-98 24q-73 0 -131.5 -37.5t-92.5 -101.5t-34 -144
q0 -74 42.5 -115.5t121.5 -41.5q68 0 120 30t67 88h-145zM497 766q-44 0 -69.5 27t-25.5 64q0 38 26 64.5t70 26.5q45 0 70.5 -26.5t25.5 -64.5q0 -37 -26 -64t-71 -27z" />
    <glyph glyph-name="gdotaccent" unicode="&#x121;" horiz-adv-x="622" 
d="M180 -210q-59 0 -111 11.5t-81 30.5l53 130q68 -38 154 -38q80 0 123 36t63 121l7 28q-65 -99 -172 -99q-87 0 -137.5 50t-50.5 139q0 68 23.5 126t66.5 101t100.5 67t125.5 24q90 0 146 -43l17 33h104q-7 -36 -17 -83.5t-19 -98.5l-39 -226q-28 -158 -116 -233.5
t-240 -75.5zM268 143q55 0 96 45t54 123l10 52q-29 23 -81 23q-70 0 -115 -45.5t-45 -116.5q0 -81 81 -81zM391 566q-44 0 -69.5 26.5t-25.5 63.5q0 38 26 64.5t70 26.5q45 0 70.5 -26.5t25.5 -64.5q0 -37 -26 -63.5t-71 -26.5z" />
    <glyph glyph-name="uni0122" unicode="&#x122;" horiz-adv-x="768" 
d="M442 386h302l-67 -386h-130v51q-41 -33 -89.5 -47t-102.5 -14q-93 0 -162.5 34.5t-108 97.5t-38.5 150q0 95 33.5 177t94 142.5t142 94.5t177.5 34q60 0 115 -15.5t98.5 -47t67.5 -80.5l-141 -91q-20 41 -64 65t-98 24q-73 0 -131.5 -37.5t-92.5 -101.5t-34 -144
q0 -74 42.5 -115.5t121.5 -41.5q68 0 120 30t67 88h-145zM226 -241q19 24 26.5 44t7.5 34q0 15 -5 25.5t-5 22.5q0 24 22 41t58 17q34 0 54 -15t20 -41q0 -29 -29 -66.5t-80 -61.5h-69z" />
    <glyph glyph-name="uni0123" unicode="&#x123;" horiz-adv-x="622" 
d="M180 -210q-59 0 -111 11.5t-81 30.5l53 130q68 -38 154 -38q80 0 123 36t63 121l7 28q-65 -99 -172 -99q-87 0 -137.5 50t-50.5 139q0 68 23.5 126t66.5 101t100.5 67t125.5 24q90 0 146 -43l17 33h104q-7 -36 -17 -83.5t-19 -98.5l-39 -226q-28 -158 -116 -233.5
t-240 -75.5zM268 143q55 0 96 45t54 123l10 52q-29 23 -81 23q-70 0 -115 -45.5t-45 -116.5q0 -81 81 -81zM488 752q-19 -24 -26.5 -44.5t-7.5 -34.5q0 -15 5 -25.5t5 -21.5q0 -24 -22 -41t-58 -17q-34 0 -54 15t-20 41q0 29 29 66.5t80 61.5h69z" />
    <glyph glyph-name="Hcircumflex" unicode="&#x124;" horiz-adv-x="758" 
d="M22 0l125 710h163l-49 -281h297l49 281h164l-125 -710h-164l51 286h-297l-51 -286h-163zM666 774h-137l-41 73l-67 -73h-148l164 167h126z" />
    <glyph glyph-name="hcircumflex" unicode="&#x125;" horiz-adv-x="623" 
d="M14 0l130 740h153l-41 -231l-29 -119q39 61 91.5 94t117.5 33q89 0 128 -60t14 -169l-34 -148q-7 -36 -10.5 -70.5t-3.5 -69.5h-156q0 66 15 132l35 153q10 45 -2.5 67.5t-45.5 22.5q-43 0 -81.5 -34t-70.5 -116t-57 -225h-153zM602 774h-137l-41 73l-67 -73h-148
l164 167h126z" />
    <glyph glyph-name="Hbar" unicode="&#x126;" horiz-adv-x="758" 
d="M22 0l125 710h163l-49 -281h297l49 281h164l-125 -710h-164l51 286h-297l-51 -286h-163zM58 513l21 114h730l-20 -114h-731z" />
    <glyph glyph-name="hbar" unicode="&#x127;" horiz-adv-x="623" 
d="M14 0l130 740h153l-41 -231l-29 -119q39 61 91.5 94t117.5 33q89 0 128 -60t14 -169l-34 -148q-7 -36 -10.5 -70.5t-3.5 -69.5h-156q0 66 15 132l35 153q10 45 -2.5 67.5t-45.5 22.5q-43 0 -81.5 -34t-70.5 -116t-57 -225h-153zM47 574l19 108h403l-19 -108h-403z" />
    <glyph glyph-name="Itilde" unicode="&#x128;" horiz-adv-x="297" 
d="M22 0l125 710h163l-125 -710h-163zM320 768q-29 0 -57.5 13t-54.5 26.5t-47 13.5q-14 0 -33.5 -11.5t-34.5 -33.5l-52 50q23 54 61.5 81t85.5 27q28 0 57 -13.5t55 -26.5t46 -13q18 0 36.5 11t32.5 35l52 -50q-23 -54 -62 -81.5t-85 -27.5z" />
    <glyph glyph-name="itilde" unicode="&#x129;" horiz-adv-x="270" 
d="M21 0q0 32 5 66t11 66l36 208q10 57 15.5 95.5t8.5 73.5h154q-3 -41 -10 -86t-14 -87l-35 -196q-6 -36 -11 -70.5t-5 -69.5h-155zM265 567q-29 0 -57.5 13t-54.5 26.5t-47 13.5q-14 0 -33.5 -11.5t-34.5 -33.5l-52 50q23 54 61.5 81t85.5 27q28 0 57 -13.5t55 -26.5
t46 -13q18 0 36.5 11t32.5 35l52 -50q-23 -54 -62 -81.5t-85 -27.5z" />
    <glyph glyph-name="Imacron" unicode="&#x12a;" horiz-adv-x="297" 
d="M22 0l125 710h163l-125 -710h-163zM90 899h344l-18 -102h-344z" />
    <glyph glyph-name="imacron" unicode="&#x12b;" horiz-adv-x="270" 
d="M21 0q0 32 5 66t11 66l36 208q10 57 15.5 95.5t8.5 73.5h154q-3 -41 -10 -86t-14 -87l-35 -196q-6 -36 -11 -70.5t-5 -69.5h-155zM36 698h344l-18 -102h-344z" />
    <glyph glyph-name="Ibreve" unicode="&#x12c;" horiz-adv-x="297" 
d="M22 0l125 710h163l-125 -710h-163zM355 953l96 -12q-12 -80 -67 -126t-128 -46q-83 0 -126 46t-41 126l100 12q-1 -83 69 -83q69 0 97 83z" />
    <glyph glyph-name="ibreve" unicode="&#x12d;" horiz-adv-x="270" 
d="M21 0q0 32 5 66t11 66l36 208q10 57 15.5 95.5t8.5 73.5h154q-3 -41 -10 -86t-14 -87l-35 -196q-6 -36 -11 -70.5t-5 -69.5h-155zM300 752l96 -12q-12 -79 -67 -125.5t-128 -46.5q-83 0 -126 46.5t-41 125.5l100 12q-1 -83 69 -83q69 0 97 83z" />
    <glyph glyph-name="Iogonek" unicode="&#x12e;" horiz-adv-x="297" 
d="M22 0l125 710h163l-125 -710h-163zM89 -223q-57 0 -91.5 27t-34.5 72q0 39 22.5 70.5t59.5 53.5t81 35l59 -35q-40 -21 -65 -46t-25 -55q0 -29 29 -29q24 0 48 30l38 -73q-20 -23 -52.5 -36.5t-68.5 -13.5z" />
    <glyph glyph-name="iogonek" unicode="&#x12f;" horiz-adv-x="270" 
d="M21 0q0 32 5 66t11 66l36 208q10 57 15.5 95.5t8.5 73.5h154q-3 -41 -10 -86t-14 -87l-35 -196q-6 -36 -11 -70.5t-5 -69.5h-155zM201 569q-44 0 -70 27t-26 64t25.5 64t70.5 27q44 0 70 -27t26 -64t-26 -64t-70 -27zM80 -223q-57 0 -91.5 27t-34.5 72q0 39 22.5 70.5
t59.5 53.5t81 35l59 -35q-40 -21 -65 -46t-25 -55q0 -29 29 -29q24 0 48 30l38 -73q-20 -23 -52.5 -36.5t-68.5 -13.5z" />
    <glyph glyph-name="Idotaccent" unicode="&#x130;" horiz-adv-x="297" 
d="M22 0l125 710h163l-125 -710h-163zM254 766q-44 0 -69.5 27t-25.5 64q0 38 26 64.5t70 26.5q45 0 70.5 -26.5t25.5 -64.5q0 -37 -26 -64t-71 -27z" />
    <glyph glyph-name="dotlessi" unicode="&#x131;" horiz-adv-x="270" 
d="M21 0q0 32 5 66t11 66l36 208q10 57 15.5 95.5t8.5 73.5h154q-3 -41 -10 -86t-14 -87l-35 -196q-6 -36 -11 -70.5t-5 -69.5h-155z" />
    <glyph glyph-name="Jcircumflex" unicode="&#x134;" horiz-adv-x="501" 
d="M165 -10q-85 0 -140.5 40t-71.5 117l144 59q11 -36 30.5 -54t53.5 -18q32 0 55 22t31 67l86 487h163l-82 -469q-44 -251 -269 -251zM642 774h-137l-41 73l-67 -73h-148l164 167h126z" />
    <glyph glyph-name="jcircumflex" unicode="&#x135;" horiz-adv-x="281" 
d="M82 340q9 57 15 95.5t8 73.5h154q-3 -41 -10 -86t-14 -87l-55 -306q-19 -107 -82.5 -168t-188.5 -61q-73 0 -116 17l43 125q44 -12 85 -12q47 0 72 23.5t34 74.5zM390 573h-137l-41 73l-67 -73h-148l164 167h126z" />
    <glyph glyph-name="uni0136" unicode="&#x136;" horiz-adv-x="673" 
d="M22 0l125 710h163l-53 -304l326 304h201l-387 -357q20 -12 34.5 -30t24.5 -41l43 -99q12 -27 31.5 -38.5t47.5 -11.5q41 0 68 18l20 -124q-24 -19 -60.5 -28t-72.5 -9q-129 0 -175 104l-61 136q-10 24 -24 36.5t-38 17.5l-50 -284h-163zM174 -241q19 24 26.5 44t7.5 34
q0 15 -5 25.5t-5 22.5q0 24 22 41t58 17q34 0 54 -15t20 -41q0 -29 -29 -66.5t-80 -61.5h-69z" />
    <glyph glyph-name="uni0137" unicode="&#x137;" horiz-adv-x="568" 
d="M14 0l130 740h153l-76 -430l221 199h190l-276 -248q18 -13 28 -36l25 -53q14 -29 32.5 -42t46.5 -13q17 0 31.5 4t28.5 11l17 -112q-27 -17 -59.5 -24t-65.5 -6q-65 1 -102.5 25.5t-64.5 83.5l-26 53q-20 44 -43 59l-37 -211h-153zM164 -241q19 24 26.5 44t7.5 34
q0 15 -5 25.5t-5 22.5q0 24 22 41t58 17q34 0 54 -15t20 -41q0 -29 -29 -66.5t-80 -61.5h-69z" />
    <glyph glyph-name="kgreenlandic" unicode="&#x138;" horiz-adv-x="568" 
d="M15 0l90 509h154l-36 -198l220 198h190l-275 -248q17 -13 28 -36l25 -53q13 -29 32 -42t47 -13q16 0 30.5 4t29.5 11l17 -112q-27 -17 -60 -24t-65 -6q-65 1 -102.5 25.5t-65.5 83.5l-25 53q-20 44 -43 59l-38 -211h-153z" />
    <glyph glyph-name="Lacute" unicode="&#x139;" horiz-adv-x="532" 
d="M22 0l125 710h163l-99 -567h306l-35 -143h-460zM170 774l154 177l153 -39l-169 -138h-138z" />
    <glyph glyph-name="lacute" unicode="&#x13a;" horiz-adv-x="309" 
d="M172 -10q-77 0 -110.5 46t-20.5 120l103 584h153l-101 -573q-9 -46 35 -46q23 0 41 11l18 -109q-20 -16 -51.5 -24.5t-66.5 -8.5zM157 774l154 177l153 -39l-169 -138h-138z" />
    <glyph glyph-name="uni013B" unicode="&#x13b;" horiz-adv-x="532" 
d="M22 0l125 710h163l-99 -567h306l-35 -143h-460zM132 -241q19 24 26.5 44t7.5 34q0 15 -5 25.5t-5 22.5q0 24 22 41t58 17q34 0 54 -15t20 -41q0 -29 -29 -66.5t-80 -61.5h-69z" />
    <glyph glyph-name="uni013C" unicode="&#x13c;" horiz-adv-x="309" 
d="M172 -10q-77 0 -110.5 46t-20.5 120l103 584h153l-101 -573q-9 -46 35 -46q23 0 41 11l18 -109q-20 -16 -51.5 -24.5t-66.5 -8.5zM-20 -241q19 24 26.5 44t7.5 34q0 15 -5 25.5t-5 22.5q0 24 22 41t58 17q34 0 54 -15t20 -41q0 -29 -29 -66.5t-80 -61.5h-69z" />
    <glyph glyph-name="Lcaron" unicode="&#x13d;" horiz-adv-x="532" 
d="M22 0l125 710h163l-99 -567h306l-35 -143h-460zM378 523l40 227h121l-74 -227h-87z" />
    <glyph glyph-name="lcaron" unicode="&#x13e;" horiz-adv-x="309" 
d="M172 -10q-77 0 -110.5 46t-20.5 120l103 584h153l-101 -573q-9 -46 35 -46q23 0 41 11l18 -109q-20 -16 -51.5 -24.5t-66.5 -8.5zM297 553l40 227h121l-74 -227h-87z" />
    <glyph glyph-name="Ldot" unicode="&#x13f;" horiz-adv-x="532" 
d="M22 0l125 710h163l-99 -567h306l-35 -143h-460zM467 346q-46 0 -73 26.5t-27 64.5q0 37 26.5 63.5t73.5 26.5q46 0 73 -26.5t27 -63.5q0 -38 -27 -64.5t-73 -26.5z" />
    <glyph glyph-name="ldot" unicode="&#x140;" horiz-adv-x="422" 
d="M172 -10q-77 0 -110.5 46t-20.5 120l103 584h153l-101 -573q-9 -46 35 -46q23 0 41 11l18 -109q-20 -16 -51.5 -24.5t-66.5 -8.5zM382 347q-46 0 -73 26.5t-27 64.5q0 37 26.5 63.5t73.5 26.5q46 0 73 -26.5t27 -63.5q0 -38 -27 -64.5t-73 -26.5z" />
    <glyph glyph-name="Lslash" unicode="&#x141;" horiz-adv-x="532" 
d="M22 0l125 710h163l-99 -567h306l-35 -143h-460zM27 249l-49 103l444 203l47 -101z" />
    <glyph glyph-name="lslash" unicode="&#x142;" horiz-adv-x="309" 
d="M172 -10q-77 0 -110.5 46t-20.5 120l103 584h153l-101 -573q-9 -46 35 -46q23 0 41 11l18 -109q-20 -16 -51.5 -24.5t-66.5 -8.5zM28 252l-48 84l305 171l49 -84z" />
    <glyph glyph-name="Nacute" unicode="&#x143;" horiz-adv-x="751" 
d="M607 710h157l-125 -710h-145l-236 452l-79 -452h-157l125 710h145l236 -452zM398 776l154 177l153 -39l-169 -138h-138z" />
    <glyph glyph-name="nacute" unicode="&#x144;" horiz-adv-x="623" 
d="M14 0l60 340q9 57 15 95.5t9 73.5h151q-4 -59 -25 -125q39 64 92.5 98.5t119.5 34.5q89 0 128 -60t14 -169l-34 -148q-7 -36 -10.5 -70.5t-3.5 -69.5h-156q0 66 15 132l35 153q10 45 -2.5 67.5t-45.5 22.5q-43 0 -81.5 -34t-70.5 -116t-57 -225h-153zM301 573l154 177
l153 -38l-169 -139h-138z" />
    <glyph glyph-name="uni0145" unicode="&#x145;" horiz-adv-x="751" 
d="M607 710h157l-125 -710h-145l-236 452l-79 -452h-157l125 710h145l236 -452zM210 -241q19 24 26.5 44t7.5 34q0 15 -5 25.5t-5 22.5q0 24 22 41t58 17q34 0 54 -15t20 -41q0 -29 -29 -66.5t-80 -61.5h-69z" />
    <glyph glyph-name="uni0146" unicode="&#x146;" horiz-adv-x="623" 
d="M14 0l60 340q9 57 15 95.5t9 73.5h151q-4 -59 -25 -125q39 64 92.5 98.5t119.5 34.5q89 0 128 -60t14 -169l-34 -148q-7 -36 -10.5 -70.5t-3.5 -69.5h-156q0 66 15 132l35 153q10 45 -2.5 67.5t-45.5 22.5q-43 0 -81.5 -34t-70.5 -116t-57 -225h-153zM149 -241
q19 24 26.5 44t7.5 34q0 15 -5 25.5t-5 22.5q0 24 22 41t58 17q34 0 54 -15t20 -41q0 -29 -29 -66.5t-80 -61.5h-69z" />
    <glyph glyph-name="Ncaron" unicode="&#x147;" horiz-adv-x="751" 
d="M607 710h157l-125 -710h-145l-236 452l-79 -452h-157l125 710h145l236 -452zM404 776l-103 167l132 10l47 -84l77 84l136 -10l-163 -167h-126z" />
    <glyph glyph-name="ncaron" unicode="&#x148;" horiz-adv-x="623" 
d="M14 0l60 340q9 57 15 95.5t9 73.5h151q-4 -59 -25 -125q39 64 92.5 98.5t119.5 34.5q89 0 128 -60t14 -169l-34 -148q-7 -36 -10.5 -70.5t-3.5 -69.5h-156q0 66 15 132l35 153q10 45 -2.5 67.5t-45.5 22.5q-43 0 -81.5 -34t-70.5 -116t-57 -225h-153zM307 573l-103 167
l132 10l47 -84l77 84l136 -10l-163 -167h-126z" />
    <glyph glyph-name="napostrophe" unicode="&#x149;" horiz-adv-x="814" 
d="M12 354q29 48 45.5 88t16.5 71q0 28 -7 49t-7 48q0 45 31 77.5t87 32.5q42 0 65.5 -21t23.5 -61q0 -33 -16.5 -72t-42.5 -78t-57 -74t-61 -60h-78zM206 0l60 340q9 57 15 95.5t9 73.5h151q-4 -59 -25 -125q39 64 92.5 98.5t119.5 34.5q89 0 128 -60t14 -169l-34 -148
q-7 -36 -10.5 -70.5t-3.5 -69.5h-156q0 66 15 132l35 153q10 45 -2.5 67.5t-45.5 22.5q-43 0 -81.5 -34t-70.5 -116t-57 -225h-153z" />
    <glyph glyph-name="Eng" unicode="&#x14a;" horiz-adv-x="751" 
d="M393 -210q-76 0 -128 40t-61 117l143 58q2 -35 18 -53.5t43 -18.5t48.5 19t27.5 50l2 13l-228 437l-79 -452h-157l124 710h146l236 -452l79 452h157l-121 -688q-21 -121 -88.5 -176.5t-161.5 -55.5z" />
    <glyph glyph-name="eng" unicode="&#x14b;" horiz-adv-x="623" 
d="M531 30q-20 -107 -78 -168t-175 -61q-67 0 -108 19l47 119q36 -12 71 -12q39 0 59.5 25.5t30.5 76.5l47 256q16 90 -48 90q-43 0 -81.5 -34t-70.5 -116t-57 -225h-154l60 340q10 57 15.5 95.5t9.5 73.5h151q-4 -59 -25 -125q39 64 92.5 98.5t119.5 34.5q89 0 125.5 -60
t16.5 -169z" />
    <glyph glyph-name="Omacron" unicode="&#x14c;" horiz-adv-x="781" 
d="M353 -10q-93 0 -162 34t-107 97t-38 151q0 95 33 177t91.5 142.5t137 94.5t171.5 34q88 0 153.5 -35t101.5 -99t36 -151q0 -93 -32 -174t-89 -142t-133 -95t-163 -34zM371 135q66 0 118.5 37.5t83 101.5t30.5 144q0 73 -39.5 115t-108.5 42t-123.5 -37.5t-86.5 -101.5
t-32 -144q0 -74 41.5 -115.5t116.5 -41.5zM333 899h344l-18 -102h-344z" />
    <glyph glyph-name="omacron" unicode="&#x14d;" horiz-adv-x="596" 
d="M351 517q99 0 158 -53.5t59 -148.5q0 -68 -24 -127t-67.5 -103.5t-102 -69.5t-128.5 -25q-101 0 -160 53.5t-59 147.5q0 66 22.5 124.5t65.5 104t102.5 71.5t133.5 26zM271 123q38 0 69.5 23t50.5 62t19 87q0 43 -22 66t-62 23q-43 0 -74.5 -25t-48.5 -64t-17 -83
q0 -42 21.5 -65.5t63.5 -23.5zM205 698h344l-18 -102h-344z" />
    <glyph glyph-name="Obreve" unicode="&#x14e;" horiz-adv-x="781" 
d="M353 -10q-93 0 -162 34t-107 97t-38 151q0 95 33 177t91.5 142.5t137 94.5t171.5 34q88 0 153.5 -35t101.5 -99t36 -151q0 -93 -32 -174t-89 -142t-133 -95t-163 -34zM371 135q66 0 118.5 37.5t83 101.5t30.5 144q0 73 -39.5 115t-108.5 42t-123.5 -37.5t-86.5 -101.5
t-32 -144q0 -74 41.5 -115.5t116.5 -41.5zM598 953l96 -12q-12 -80 -67 -126t-128 -46q-83 0 -126 46t-41 126l100 12q-1 -83 69 -83q69 0 97 83z" />
    <glyph glyph-name="obreve" unicode="&#x14f;" horiz-adv-x="596" 
d="M351 517q99 0 158 -53.5t59 -148.5q0 -68 -24 -127t-67.5 -103.5t-102 -69.5t-128.5 -25q-101 0 -160 53.5t-59 147.5q0 66 22.5 124.5t65.5 104t102.5 71.5t133.5 26zM271 123q38 0 69.5 23t50.5 62t19 87q0 43 -22 66t-62 23q-43 0 -74.5 -25t-48.5 -64t-17 -83
q0 -42 21.5 -65.5t63.5 -23.5zM469 752l96 -12q-12 -79 -67 -125.5t-128 -46.5q-83 0 -126 46.5t-41 125.5l100 12q-1 -83 69 -83q69 0 97 83z" />
    <glyph glyph-name="Ohungarumlaut" unicode="&#x150;" horiz-adv-x="781" 
d="M353 -10q-93 0 -162 34t-107 97t-38 151q0 95 33 177t91.5 142.5t137 94.5t171.5 34q88 0 153.5 -35t101.5 -99t36 -151q0 -93 -32 -174t-89 -142t-133 -95t-163 -34zM371 135q66 0 118.5 37.5t83 101.5t30.5 144q0 73 -39.5 115t-108.5 42t-123.5 -37.5t-86.5 -101.5
t-32 -144q0 -74 41.5 -115.5t116.5 -41.5zM641 774h-119l104 177l133 -39zM443 774h-119l104 177l133 -39z" />
    <glyph glyph-name="ohungarumlaut" unicode="&#x151;" horiz-adv-x="596" 
d="M351 517q99 0 158 -53.5t59 -148.5q0 -68 -24 -127t-67.5 -103.5t-102 -69.5t-128.5 -25q-101 0 -160 53.5t-59 147.5q0 66 22.5 124.5t65.5 104t102.5 71.5t133.5 26zM271 123q38 0 69.5 23t50.5 62t19 87q0 43 -22 66t-62 23q-43 0 -74.5 -25t-48.5 -64t-17 -83
q0 -42 21.5 -65.5t63.5 -23.5zM512 573h-119l104 177l133 -38zM314 573h-119l104 177l133 -38z" />
    <glyph glyph-name="OE" unicode="&#x152;" horiz-adv-x="1011" 
d="M399 -6q-107 0 -185.5 36t-121.5 103t-43 159q0 59 15.5 119t49.5 114.5t90 97.5t136 68t187 25q47 0 89 -3t89 -3h361l-25 -141h-316l-24 -141h293l-25 -141h-293l-26 -146h324l-35 -141h-369q-45 0 -84.5 -3t-86.5 -3zM410 134q36 0 78 7l76 428q-17 3 -34.5 4.5
t-42.5 1.5q-90 0 -150.5 -33.5t-91 -93t-30.5 -138.5q0 -82 49.5 -129t145.5 -47z" />
    <glyph glyph-name="oe" unicode="&#x153;" horiz-adv-x="916" 
d="M348 517q59 0 101 -22.5t65 -64.5q38 41 90.5 64t114.5 23q78 0 129 -41t51 -110q0 -70 -49 -112t-132 -48l-163 -12q5 -34 34.5 -53.5t76.5 -19.5q31 0 64 12.5t54 33.5l66 -93q-35 -40 -88.5 -62t-119.5 -22q-63 0 -110 24.5t-74 69.5q-38 -44 -92.5 -69t-121.5 -25
q-100 0 -158.5 53.5t-58.5 147.5q0 66 22.5 124.5t65 104t101.5 71.5t132 26zM699 406q-47 0 -81.5 -28.5t-48.5 -79.5l130 9q29 2 46 15.5t17 38.5q0 21 -16.5 33t-46.5 12zM271 123q38 0 69.5 23t50.5 62t19 87q0 43 -22 66t-62 23q-43 0 -74.5 -25t-48.5 -64t-17 -83
q0 -42 21.5 -65.5t63.5 -23.5z" />
    <glyph glyph-name="Racute" unicode="&#x154;" horiz-adv-x="656" 
d="M637 153l20 -126q-25 -18 -60 -27.5t-69 -9.5q-68 0 -112 26.5t-67 79.5l-60 134q-11 24 -25 33.5t-33 10.5l-49 -274h-160l125 710h223q135 0 201.5 -47.5t66.5 -138.5q0 -98 -60 -160.5t-157 -79.5q28 -15 45 -51l25 -52q12 -25 31 -36.5t44 -11.5q22 0 39.5 4.5
t31.5 15.5zM340 577h-56l-31 -176h73q76 0 111.5 25.5t35.5 74.5q0 41 -33.5 58.5t-99.5 17.5zM365 774l154 177l153 -39l-169 -138h-138z" />
    <glyph glyph-name="racute" unicode="&#x155;" horiz-adv-x="427" 
d="M427 361q-19 8 -48 8q-54 0 -92.5 -36.5t-67 -118t-51.5 -214.5h-153l60 340q10 57 15.5 95.5t8.5 73.5h152q-2 -25 -8.5 -58t-15.5 -68q39 72 90 103t103 31q17 0 31.5 -2t28.5 -7zM234 573l154 177l153 -38l-169 -139h-138z" />
    <glyph glyph-name="uni0156" unicode="&#x156;" horiz-adv-x="656" 
d="M637 153l20 -126q-25 -18 -60 -27.5t-69 -9.5q-68 0 -112 26.5t-67 79.5l-60 134q-11 24 -25 33.5t-33 10.5l-49 -274h-160l125 710h223q135 0 201.5 -47.5t66.5 -138.5q0 -98 -60 -160.5t-157 -79.5q28 -15 45 -51l25 -52q12 -25 31 -36.5t44 -11.5q22 0 39.5 4.5
t31.5 15.5zM340 577h-56l-31 -176h73q76 0 111.5 25.5t35.5 74.5q0 41 -33.5 58.5t-99.5 17.5zM178 -241q19 24 26.5 44t7.5 34q0 15 -5 25.5t-5 22.5q0 24 22 41t58 17q34 0 54 -15t20 -41q0 -29 -29 -66.5t-80 -61.5h-69z" />
    <glyph glyph-name="uni0157" unicode="&#x157;" horiz-adv-x="427" 
d="M427 361q-19 8 -48 8q-54 0 -92.5 -36.5t-67 -118t-51.5 -214.5h-153l60 340q10 57 15.5 95.5t8.5 73.5h152q-2 -25 -8.5 -58t-15.5 -68q39 72 90 103t103 31q17 0 31.5 -2t28.5 -7zM-28 -241q19 24 26.5 44t7.5 34q0 15 -5 25.5t-5 22.5q0 24 22 41t58 17q34 0 54 -15
t20 -41q0 -29 -29 -66.5t-80 -61.5h-69z" />
    <glyph glyph-name="Rcaron" unicode="&#x158;" horiz-adv-x="656" 
d="M637 153l20 -126q-25 -18 -60 -27.5t-69 -9.5q-68 0 -112 26.5t-67 79.5l-60 134q-11 24 -25 33.5t-33 10.5l-49 -274h-160l125 710h223q135 0 201.5 -47.5t66.5 -138.5q0 -98 -60 -160.5t-157 -79.5q28 -15 45 -51l25 -52q12 -25 31 -36.5t44 -11.5q22 0 39.5 4.5
t31.5 15.5zM340 577h-56l-31 -176h73q76 0 111.5 25.5t35.5 74.5q0 41 -33.5 58.5t-99.5 17.5zM371 774l-103 167l132 10l47 -84l77 84l136 -10l-163 -167h-126z" />
    <glyph glyph-name="rcaron" unicode="&#x159;" horiz-adv-x="427" 
d="M427 361q-19 8 -48 8q-54 0 -92.5 -36.5t-67 -118t-51.5 -214.5h-153l60 340q10 57 15.5 95.5t8.5 73.5h152q-2 -25 -8.5 -58t-15.5 -68q39 72 90 103t103 31q17 0 31.5 -2t28.5 -7zM240 573l-103 167l132 10l47 -84l77 84l136 -10l-163 -167h-126z" />
    <glyph glyph-name="Sacute" unicode="&#x15a;" horiz-adv-x="599" 
d="M262 -9q-124 0 -193.5 57.5t-63.5 163.5l156 22q-3 -52 28 -79.5t96 -27.5q57 0 87.5 21.5t30.5 55.5q0 26 -22 41t-56.5 26t-73.5 23.5t-74 33.5t-57 56t-22 92q0 73 39 128t106 85.5t150 30.5q105 0 167 -53.5t60 -144.5l-149 -24q0 41 -25 63.5t-68 22.5
q-53 0 -82.5 -24.5t-29.5 -58.5q0 -30 22 -46.5t57 -27.5t74 -23t74 -31.5t57 -52t22 -86.5q0 -77 -41.5 -131.5t-112 -83t-156.5 -28.5zM330 774l154 177l153 -39l-169 -138h-138z" />
    <glyph glyph-name="sacute" unicode="&#x15b;" horiz-adv-x="485" 
d="M212 -10q-104 0 -160 41.5t-61 109.5l133 32q0 -31 25.5 -47.5t69.5 -16.5q39 0 60 10t21 29q0 16 -17.5 25t-45.5 15t-59 14.5t-59 23.5t-45.5 41t-17.5 68q0 59 33 99.5t86.5 61.5t115.5 21q81 0 133 -39t59 -96l-131 -34q-6 50 -74 50q-31 0 -51 -11t-20 -30
q0 -17 17.5 -26t45 -16t58.5 -15.5t58.5 -23t45 -40t17.5 -66.5q0 -60 -33 -100t-87.5 -60t-116.5 -20zM236 573l154 177l153 -38l-169 -139h-138z" />
    <glyph glyph-name="Scircumflex" unicode="&#x15c;" horiz-adv-x="599" 
d="M262 -9q-124 0 -193.5 57.5t-63.5 163.5l156 22q-3 -52 28 -79.5t96 -27.5q57 0 87.5 21.5t30.5 55.5q0 26 -22 41t-56.5 26t-73.5 23.5t-74 33.5t-57 56t-22 92q0 73 39 128t106 85.5t150 30.5q105 0 167 -53.5t60 -144.5l-149 -24q0 41 -25 63.5t-68 22.5
q-53 0 -82.5 -24.5t-29.5 -58.5q0 -30 22 -46.5t57 -27.5t74 -23t74 -31.5t57 -52t22 -86.5q0 -77 -41.5 -131.5t-112 -83t-156.5 -28.5zM595 774h-137l-41 73l-67 -73h-148l164 167h126z" />
    <glyph glyph-name="scircumflex" unicode="&#x15d;" horiz-adv-x="485" 
d="M212 -10q-104 0 -160 41.5t-61 109.5l133 32q0 -31 25.5 -47.5t69.5 -16.5q39 0 60 10t21 29q0 16 -17.5 25t-45.5 15t-59 14.5t-59 23.5t-45.5 41t-17.5 68q0 59 33 99.5t86.5 61.5t115.5 21q81 0 133 -39t59 -96l-131 -34q-6 50 -74 50q-31 0 -51 -11t-20 -30
q0 -17 17.5 -26t45 -16t58.5 -15.5t58.5 -23t45 -40t17.5 -66.5q0 -60 -33 -100t-87.5 -60t-116.5 -20zM501 573h-137l-41 73l-67 -73h-148l164 167h126z" />
    <glyph glyph-name="Scedilla" unicode="&#x15e;" horiz-adv-x="599" 
d="M262 -9q-124 0 -193.5 57.5t-63.5 163.5l156 22q-3 -52 28 -79.5t96 -27.5q57 0 87.5 21.5t30.5 55.5q0 26 -22 41t-56.5 26t-73.5 23.5t-74 33.5t-57 56t-22 92q0 73 39 128t106 85.5t150 30.5q105 0 167 -53.5t60 -144.5l-149 -24q0 41 -25 63.5t-68 22.5
q-53 0 -82.5 -24.5t-29.5 -58.5q0 -30 22 -46.5t57 -27.5t74 -23t74 -31.5t57 -52t22 -86.5q0 -77 -41.5 -131.5t-112 -83t-156.5 -28.5zM210 -223q-31 0 -67.5 6.5t-55.5 16.5l40 75q17 -7 43 -12t49 -5q42 0 42 24q0 7 -7 11t-27 4h-65l81 121h97l-31 -52q75 -17 75 -78
q0 -49 -45.5 -80t-128.5 -31z" />
    <glyph glyph-name="scedilla" unicode="&#x15f;" horiz-adv-x="485" 
d="M212 -10q-104 0 -160 41.5t-61 109.5l133 32q0 -31 25.5 -47.5t69.5 -16.5q39 0 60 10t21 29q0 16 -17.5 25t-45.5 15t-59 14.5t-59 23.5t-45.5 41t-17.5 68q0 59 33 99.5t86.5 61.5t115.5 21q81 0 133 -39t59 -96l-131 -34q-6 50 -74 50q-31 0 -51 -11t-20 -30
q0 -17 17.5 -26t45 -16t58.5 -15.5t58.5 -23t45 -40t17.5 -66.5q0 -60 -33 -100t-87.5 -60t-116.5 -20zM168 -223q-31 0 -67.5 6.5t-55.5 16.5l40 75q17 -7 43 -12t49 -5q42 0 42 24q0 7 -7 11t-27 4h-65l81 121h97l-31 -52q75 -17 75 -78q0 -49 -45.5 -80t-128.5 -31z" />
    <glyph glyph-name="Scaron" unicode="&#x160;" horiz-adv-x="599" 
d="M262 -9q-124 0 -193.5 57.5t-63.5 163.5l156 22q-3 -52 28 -79.5t96 -27.5q57 0 87.5 21.5t30.5 55.5q0 26 -22 41t-56.5 26t-73.5 23.5t-74 33.5t-57 56t-22 92q0 73 39 128t106 85.5t150 30.5q105 0 167 -53.5t60 -144.5l-149 -24q0 41 -25 63.5t-68 22.5
q-53 0 -82.5 -24.5t-29.5 -58.5q0 -30 22 -46.5t57 -27.5t74 -23t74 -31.5t57 -52t22 -86.5q0 -77 -41.5 -131.5t-112 -83t-156.5 -28.5zM336 774l-103 167l132 10l47 -84l77 84l136 -10l-163 -167h-126z" />
    <glyph glyph-name="scaron" unicode="&#x161;" horiz-adv-x="485" 
d="M212 -10q-104 0 -160 41.5t-61 109.5l133 32q0 -31 25.5 -47.5t69.5 -16.5q39 0 60 10t21 29q0 16 -17.5 25t-45.5 15t-59 14.5t-59 23.5t-45.5 41t-17.5 68q0 59 33 99.5t86.5 61.5t115.5 21q81 0 133 -39t59 -96l-131 -34q-6 50 -74 50q-31 0 -51 -11t-20 -30
q0 -17 17.5 -26t45 -16t58.5 -15.5t58.5 -23t45 -40t17.5 -66.5q0 -60 -33 -100t-87.5 -60t-116.5 -20zM242 573l-103 167l132 10l47 -84l77 84l136 -10l-163 -167h-126z" />
    <glyph glyph-name="uni0162" unicode="&#x162;" horiz-adv-x="592" 
d="M694 710l-47 -143h-214l-100 -567h-164l100 567h-225l25 143h625zM199 -223q-31 0 -67.5 6.5t-55.5 16.5l40 75q17 -7 43 -12t49 -5q42 0 42 24q0 7 -7 11t-27 4h-65l81 121h97l-31 -52q75 -17 75 -78q0 -49 -45.5 -80t-128.5 -31z" />
    <glyph glyph-name="uni0163" unicode="&#x163;" horiz-adv-x="428" 
d="M250 -10q-64 0 -106.5 26t-60.5 72t-7 105l36 189h-84l22 127h87l20 104h152l-20 -104h159l-22 -127h-161l-36 -184q-15 -76 63 -76q46 0 89 27l24 -117q-26 -21 -66 -31.5t-89 -10.5zM169 -223q-31 0 -67.5 6.5t-55.5 16.5l40 75q17 -7 43 -12t49 -5q42 0 42 24
q0 7 -7 11t-27 4h-65l81 121h97l-31 -52q75 -17 75 -78q0 -49 -45.5 -80t-128.5 -31z" />
    <glyph glyph-name="Tcaron" unicode="&#x164;" horiz-adv-x="592" 
d="M694 710l-47 -143h-214l-100 -567h-164l100 567h-225l25 143h625zM324 774l-103 167l132 10l47 -84l77 84l136 -10l-163 -167h-126z" />
    <glyph glyph-name="tcaron" unicode="&#x165;" horiz-adv-x="428" 
d="M250 -10q-64 0 -106.5 26t-60.5 72t-7 105l36 189h-84l22 127h87l20 104h152l-20 -104h159l-22 -127h-161l-36 -184q-15 -76 63 -76q46 0 89 27l24 -117q-26 -21 -66 -31.5t-89 -10.5zM337 553l40 227h121l-74 -227h-87z" />
    <glyph glyph-name="Tbar" unicode="&#x166;" horiz-adv-x="592" 
d="M694 710l-47 -143h-214l-100 -567h-164l100 567h-225l25 143h625zM79 303l19 114h451l-20 -114h-450z" />
    <glyph glyph-name="tbar" unicode="&#x167;" horiz-adv-x="428" 
d="M250 -10q-64 0 -106.5 26t-60.5 72t-7 105l36 189h-84l22 127h87l20 104h152l-20 -104h159l-22 -127h-161l-36 -184q-15 -76 63 -76q46 0 89 27l24 -117q-26 -21 -66 -31.5t-89 -10.5zM27 215l18 108h345l-19 -108h-344z" />
    <glyph glyph-name="Utilde" unicode="&#x168;" horiz-adv-x="759" 
d="M613 710h161l-66 -386q-28 -163 -120 -248.5t-240 -85.5q-102 0 -169.5 37.5t-95.5 107.5t-11 166l72 409h164l-70 -396q-31 -179 127 -179q77 0 121.5 48.5t62.5 151.5zM551 768q-29 0 -57.5 13t-54.5 26.5t-47 13.5q-14 0 -33.5 -11.5t-34.5 -33.5l-52 50
q23 54 61.5 81t85.5 27q28 0 57 -13.5t55 -26.5t46 -13q18 0 36.5 11t32.5 35l52 -50q-23 -54 -62 -81.5t-85 -27.5z" />
    <glyph glyph-name="utilde" unicode="&#x169;" horiz-adv-x="610" 
d="M185 -10q-88 0 -125 59t-16 168l22 123q11 57 16 95.5t8 73.5h154q-3 -41 -10 -86t-15 -87l-20 -107q-9 -45 2.5 -71t49.5 -26q35 0 70 34.5t67.5 116.5t59.5 226h149l-59 -335q-9 -50 -14 -95t-5 -79h-150q0 28 4.5 59t11.5 60q-78 -129 -200 -129zM441 567
q-29 0 -57.5 13t-54.5 26.5t-47 13.5q-14 0 -33.5 -11.5t-34.5 -33.5l-52 50q23 54 61.5 81t85.5 27q28 0 57 -13.5t55 -26.5t46 -13q18 0 36.5 11t32.5 35l52 -50q-23 -54 -62 -81.5t-85 -27.5z" />
    <glyph glyph-name="Umacron" unicode="&#x16a;" horiz-adv-x="759" 
d="M613 710h161l-66 -386q-28 -163 -120 -248.5t-240 -85.5q-102 0 -169.5 37.5t-95.5 107.5t-11 166l72 409h164l-70 -396q-31 -179 127 -179q77 0 121.5 48.5t62.5 151.5zM321 899h344l-18 -102h-344z" />
    <glyph glyph-name="umacron" unicode="&#x16b;" horiz-adv-x="610" 
d="M185 -10q-88 0 -125 59t-16 168l22 123q11 57 16 95.5t8 73.5h154q-3 -41 -10 -86t-15 -87l-20 -107q-9 -45 2.5 -71t49.5 -26q35 0 70 34.5t67.5 116.5t59.5 226h149l-59 -335q-9 -50 -14 -95t-5 -79h-150q0 28 4.5 59t11.5 60q-78 -129 -200 -129zM212 698h344
l-18 -102h-344z" />
    <glyph glyph-name="Ubreve" unicode="&#x16c;" horiz-adv-x="759" 
d="M613 710h161l-66 -386q-28 -163 -120 -248.5t-240 -85.5q-102 0 -169.5 37.5t-95.5 107.5t-11 166l72 409h164l-70 -396q-31 -179 127 -179q77 0 121.5 48.5t62.5 151.5zM586 953l96 -12q-12 -80 -67 -126t-128 -46q-83 0 -126 46t-41 126l100 12q-1 -83 69 -83
q69 0 97 83z" />
    <glyph glyph-name="ubreve" unicode="&#x16d;" horiz-adv-x="610" 
d="M185 -10q-88 0 -125 59t-16 168l22 123q11 57 16 95.5t8 73.5h154q-3 -41 -10 -86t-15 -87l-20 -107q-9 -45 2.5 -71t49.5 -26q35 0 70 34.5t67.5 116.5t59.5 226h149l-59 -335q-9 -50 -14 -95t-5 -79h-150q0 28 4.5 59t11.5 60q-78 -129 -200 -129zM476 752l96 -12
q-12 -79 -67 -125.5t-128 -46.5q-83 0 -126 46.5t-41 125.5l100 12q-1 -83 69 -83q69 0 97 83z" />
    <glyph glyph-name="Uring" unicode="&#x16e;" horiz-adv-x="759" 
d="M613 710h161l-66 -386q-28 -163 -120 -248.5t-240 -85.5q-102 0 -169.5 37.5t-95.5 107.5t-11 166l72 409h164l-70 -396q-31 -179 127 -179q77 0 121.5 48.5t62.5 151.5zM490 769q-34 0 -61.5 15t-44 40.5t-16.5 56.5q0 32 17 58.5t45 41.5t63 15q51 0 85.5 -31.5
t34.5 -79.5q0 -49 -35.5 -82.5t-87.5 -33.5zM491 828q24 0 39 16t15 41q0 23 -15.5 37.5t-37.5 14.5q-24 0 -40 -16t-16 -40t15.5 -38.5t39.5 -14.5z" />
    <glyph glyph-name="uring" unicode="&#x16f;" horiz-adv-x="610" 
d="M185 -10q-88 0 -125 59t-16 168l22 123q11 57 16 95.5t8 73.5h154q-3 -41 -10 -86t-15 -87l-20 -107q-9 -45 2.5 -71t49.5 -26q35 0 70 34.5t67.5 116.5t59.5 226h149l-59 -335q-9 -50 -14 -95t-5 -79h-150q0 28 4.5 59t11.5 60q-78 -129 -200 -129zM380 568
q-34 0 -61.5 15t-44 40.5t-16.5 56.5q0 32 17 58.5t45 41.5t63 15q51 0 85.5 -31.5t34.5 -79.5q0 -49 -35.5 -82.5t-87.5 -33.5zM381 627q24 0 39 16t15 41q0 23 -15.5 37.5t-37.5 14.5q-24 0 -40 -15.5t-16 -40.5q0 -24 15.5 -38.5t39.5 -14.5z" />
    <glyph glyph-name="Uhungarumlaut" unicode="&#x170;" horiz-adv-x="759" 
d="M613 710h161l-66 -386q-28 -163 -120 -248.5t-240 -85.5q-102 0 -169.5 37.5t-95.5 107.5t-11 166l72 409h164l-70 -396q-31 -179 127 -179q77 0 121.5 48.5t62.5 151.5zM629 774h-119l104 177l133 -39zM431 774h-119l104 177l133 -39z" />
    <glyph glyph-name="uhungarumlaut" unicode="&#x171;" horiz-adv-x="610" 
d="M185 -10q-88 0 -125 59t-16 168l22 123q11 57 16 95.5t8 73.5h154q-3 -41 -10 -86t-15 -87l-20 -107q-9 -45 2.5 -71t49.5 -26q35 0 70 34.5t67.5 116.5t59.5 226h149l-59 -335q-9 -50 -14 -95t-5 -79h-150q0 28 4.5 59t11.5 60q-78 -129 -200 -129zM519 573h-119
l104 177l133 -38zM321 573h-119l104 177l133 -38z" />
    <glyph glyph-name="Uogonek" unicode="&#x172;" horiz-adv-x="759" 
d="M613 710h161l-66 -386q-24 -138 -93 -219.5t-178 -112.5q-47 -14 -77 -38t-30 -51q0 -33 37 -33q30 0 60 30l38 -73q-22 -23 -57 -36.5t-74 -13.5q-62 0 -99 27t-37 73q0 37 22 66.5t56 51.5q-117 19 -172 99.5t-32 206.5l72 409h164l-70 -396q-31 -179 127 -179
q77 0 121.5 48.5t62.5 151.5z" />
    <glyph glyph-name="uogonek" unicode="&#x173;" horiz-adv-x="610" 
d="M185 -10q-88 0 -125 59t-16 168l22 123q11 57 16 95.5t8 73.5h154q-3 -41 -10 -86t-15 -87l-20 -107q-9 -45 2.5 -71t49.5 -26q35 0 70 34.5t67.5 116.5t59.5 226h149l-59 -335q-9 -50 -14 -95t-5 -79h-150q0 28 4.5 59t11.5 60q-78 -129 -200 -129zM415 -223
q-62 0 -99 27t-37 73q0 39 24.5 70t63 53.5t81.5 34.5l71 -35q-46 -19 -77 -44t-31 -53q0 -33 37 -33q30 0 60 30l38 -73q-21 -23 -56.5 -36.5t-74.5 -13.5z" />
    <glyph glyph-name="Wcircumflex" unicode="&#x174;" horiz-adv-x="1014" 
d="M939 710h162l-331 -710h-185l-27 504l-230 -504h-186l-51 710h157l29 -490l222 490h193l25 -491zM811 774h-137l-41 73l-67 -73h-148l164 167h126z" />
    <glyph glyph-name="wcircumflex" unicode="&#x175;" horiz-adv-x="883" 
d="M785 509h156l-265 -509h-191l-30 294l-149 -294h-190l-69 509h153l39 -363l181 363h146l37 -366zM705 573h-137l-41 73l-67 -73h-148l164 167h126z" />
    <glyph glyph-name="Ycircumflex" unicode="&#x176;" horiz-adv-x="611" 
d="M713 710l-314 -393l-56 -317h-164l56 315l-182 395h175l111 -249l193 249h181zM596 774h-137l-41 73l-67 -73h-148l164 167h126z" />
    <glyph glyph-name="ycircumflex" unicode="&#x177;" horiz-adv-x="614" 
d="M171 -210q-31 0 -65.5 4.5t-65 13.5t-50.5 24l49 130q32 -17 68.5 -27.5t85.5 -10.5q83 0 125 38t62 119l8 34q-40 -53 -89.5 -79t-102.5 -26q-90 0 -129 60t-19 168l19 104q10 55 15 93.5t8 73.5h154q-3 -42 -10 -86t-14 -85l-17 -89q-8 -45 3.5 -71t46.5 -26
q41 0 77 33t67 110.5t56 213.5h148l-72 -410q-20 -115 -67 -182.5t-120 -97t-171 -29.5zM559 573h-137l-41 73l-67 -73h-148l164 167h126z" />
    <glyph glyph-name="Ydieresis" unicode="&#x178;" horiz-adv-x="611" 
d="M713 710l-314 -393l-56 -317h-164l56 315l-182 395h175l111 -249l193 249h181zM520 769q-43 0 -65 26t-22 55q0 31 22 56t65 25q41 0 63.5 -25t22.5 -56q0 -29 -22.5 -55t-63.5 -26zM309 769q-43 0 -65.5 26t-22.5 55q0 31 22.5 56t65.5 25q40 0 62.5 -25t22.5 -56
q0 -29 -22.5 -55t-62.5 -26z" />
    <glyph glyph-name="Zacute" unicode="&#x179;" horiz-adv-x="640" 
d="M-8 0l21 118l427 449h-329l25 143h555l-21 -118l-427 -449h359l-35 -143h-575zM348 774l154 177l153 -39l-169 -138h-138z" />
    <glyph glyph-name="zacute" unicode="&#x17a;" horiz-adv-x="462" 
d="M-20 0l20 116l268 266h-213l22 127h412l-19 -110l-271 -272h222l-22 -127h-419zM225 573l154 177l153 -38l-169 -139h-138z" />
    <glyph glyph-name="Zdotaccent" unicode="&#x17b;" horiz-adv-x="640" 
d="M-8 0l21 118l427 449h-329l25 143h555l-21 -118l-427 -449h359l-35 -143h-575zM431 766q-44 0 -69.5 27t-25.5 64q0 38 26 64.5t70 26.5q45 0 70.5 -26.5t25.5 -64.5q0 -37 -26 -64t-71 -27z" />
    <glyph glyph-name="zdotaccent" unicode="&#x17c;" horiz-adv-x="462" 
d="M-20 0l20 116l268 266h-213l22 127h412l-19 -110l-271 -272h222l-22 -127h-419zM309 566q-44 0 -69.5 26.5t-25.5 63.5q0 38 26 64.5t70 26.5q45 0 70.5 -26.5t25.5 -64.5q0 -37 -26 -63.5t-71 -26.5z" />
    <glyph glyph-name="Zcaron" unicode="&#x17d;" horiz-adv-x="640" 
d="M-8 0l21 118l427 449h-329l25 143h555l-21 -118l-427 -449h359l-35 -143h-575zM354 774l-103 167l132 10l47 -84l77 84l136 -10l-163 -167h-126z" />
    <glyph glyph-name="zcaron" unicode="&#x17e;" horiz-adv-x="462" 
d="M-20 0l20 116l268 266h-213l22 127h412l-19 -110l-271 -272h222l-22 -127h-419zM232 573l-103 167l132 10l47 -84l77 84l136 -10l-163 -167h-126z" />
    <glyph glyph-name="uni018F" unicode="&#x18f;" horiz-adv-x="780" 
d="M464 720q95 0 163 -35t104.5 -99t36.5 -151q0 -93 -32 -174t-88.5 -142t-132 -95t-162.5 -34q-119 0 -195.5 53t-102 147.5t9.5 217.5h537q6 84 -41 125.5t-120 40.5q-60 0 -114.5 -25t-96.5 -73l-105 97q54 66 143 106.5t196 40.5zM372 132q70 0 122 38t79 106h-353
q-4 -71 33 -107.5t119 -36.5z" />
    <glyph glyph-name="florin" unicode="&#x192;" horiz-adv-x="600" 
d="M83 -199q-33 0 -63 4.5t-51 13.5l35 125q16 -5 39 -9t47 -4q47 0 74 26.5t35 91.5l38 333h-104l22 127h96l1 6q8 74 42.5 126.5t88.5 80.5t122 28q80 0 125 -38.5t46 -116.5l-133 -16q1 20 -14 31t-38 11q-36 0 -62.5 -23t-32.5 -70l-2 -19h144l-22 -127h-132l-32 -332
q-12 -123 -82.5 -186t-186.5 -63z" />
    <glyph glyph-name="Ohorn" unicode="&#x1a0;" horiz-adv-x="781" 
d="M353 -10q-93 0 -162 34t-107 97t-38 151q0 95 33 177t91.5 142.5t137 94.5t171.5 34q88 0 153.5 -35t101.5 -99t36 -151q0 -93 -32 -174t-89 -142t-133 -95t-163 -34zM371 135q66 0 118.5 37.5t83 101.5t30.5 144q0 73 -39.5 115t-108.5 42t-123.5 -37.5t-86.5 -101.5
t-32 -144q0 -74 41.5 -115.5t116.5 -41.5zM615 707q33 0 51 9.5t25 34.5t8 70l130 -10q2 -62 -21.5 -110t-67.5 -75.5t-102 -27.5h-70l-37 118q22 -3 46 -6t38 -3z" />
    <glyph glyph-name="ohorn" unicode="&#x1a1;" horiz-adv-x="596" 
d="M351 517q99 0 158 -53.5t59 -148.5q0 -68 -24 -127t-67.5 -103.5t-102 -69.5t-128.5 -25q-101 0 -160 53.5t-59 147.5q0 66 22.5 124.5t65.5 104t102.5 71.5t133.5 26zM271 123q38 0 69.5 23t50.5 62t19 87q0 43 -22 66t-62 23q-43 0 -74.5 -25t-48.5 -64t-17 -83
q0 -42 21.5 -65.5t63.5 -23.5zM451 508q27 0 43 8.5t23.5 33t8.5 70.5l131 -10q2 -62 -21.5 -109t-68 -73.5t-102.5 -26.5h-47l-31 114q12 -2 30.5 -4.5t33.5 -2.5z" />
    <glyph glyph-name="Uhorn" unicode="&#x1af;" horiz-adv-x="759" 
d="M935 811q3 -62 -18 -112t-62.5 -79t-100.5 -29l-46 -267q-28 -163 -120 -248.5t-240 -85.5q-102 0 -169.5 37.5t-95.5 107.5t-11 166l72 409h164l-70 -396q-31 -179 127 -179q77 0 121.5 48.5t62.5 151.5l64 375h109q33 0 50.5 9t24.5 33t8 69z" />
    <glyph glyph-name="uhorn" unicode="&#x1b0;" horiz-adv-x="610" 
d="M185 -10q-88 0 -125 59t-16 168l22 123q11 57 16 95.5t8 73.5h154q-3 -41 -10 -86t-15 -87l-20 -107q-9 -45 2.5 -71t49.5 -26q35 0 70 34.5t67.5 116.5t59.5 226h46q28 0 45.5 8.5t28.5 32.5t20 70l130 -10q-9 -67 -46 -116.5t-91 -73.5l-43 -246q-9 -50 -14 -95t-5 -79
h-150q0 28 4.5 59t11.5 60q-78 -129 -200 -129z" />
    <glyph glyph-name="uni01C4" unicode="&#x1c4;" horiz-adv-x="1382" 
d="M22 0l125 710h223q182 0 278 -76.5t96 -215.5q0 -93 -32.5 -169.5t-91 -132t-139 -86t-176.5 -30.5h-283zM212 145h108q124 0 191 68.5t67 186.5q0 82 -51.5 123.5t-159.5 41.5h-82zM734 0l21 118l427 449h-329l25 143h555l-21 -118l-427 -449h359l-35 -143h-575z
M1096 774l-103 167l132 10l47 -84l77 84l136 -10l-163 -167h-126z" />
    <glyph glyph-name="uni01C5" unicode="&#x1c5;" horiz-adv-x="1214" 
d="M22 0l125 710h223q182 0 278 -76.5t96 -215.5q0 -93 -32.5 -169.5t-91 -132t-139 -86t-176.5 -30.5h-283zM212 145h108q124 0 191 68.5t67 186.5q0 82 -51.5 123.5t-159.5 41.5h-82zM732 0l20 116l268 266h-213l22 127h412l-19 -110l-271 -272h222l-22 -127h-419z
M984 573l-103 167l132 10l47 -84l77 84l136 -10l-163 -167h-126z" />
    <glyph glyph-name="uni01C6" unicode="&#x1c6;" horiz-adv-x="1079" 
d="M215 -10q-87 0 -137.5 52.5t-50.5 143.5q0 71 23.5 131.5t66 105t100 69.5t124.5 25q63 0 108 -22l2 14l41 231h153l-100 -566q-9 -50 -13.5 -95t-4.5 -79h-151q0 22 3 46t8 47q-65 -103 -172 -103zM267 123q54 0 93.5 49.5t53.5 134.5l10 54q-28 25 -79 25
q-71 0 -115 -49t-44 -127q0 -87 81 -87zM598 0l20 116l268 266h-213l22 127h412l-19 -110l-271 -272h222l-22 -127h-419zM850 573l-103 167l132 10l47 -84l77 84l136 -10l-163 -167h-126z" />
    <glyph glyph-name="uni01C7" unicode="&#x1c7;" horiz-adv-x="1073" 
d="M22 0l125 710h163l-99 -567h306l-35 -143h-460zM737 -10q-85 0 -140.5 40t-71.5 117l144 59q11 -36 30.5 -54t53.5 -18q32 0 55 22t31 67l86 487h163l-82 -469q-44 -251 -269 -251z" />
    <glyph glyph-name="uni01C8" unicode="&#x1c8;" horiz-adv-x="813" 
d="M22 0l125 710h163l-99 -567h306l-35 -143h-460zM614 340q9 57 15 95.5t8 73.5h154q-3 -41 -10 -86t-14 -87l-55 -306q-19 -107 -82.5 -168t-188.5 -61q-73 0 -116 17l43 125q44 -12 85 -12q47 0 72 23.5t34 74.5zM741 569q-44 0 -70 27t-26 64t25.5 64t70.5 27
q44 0 70 -27t26 -64t-26 -64t-70 -27z" />
    <glyph glyph-name="uni01C9" unicode="&#x1c9;" horiz-adv-x="590" 
d="M172 -10q-77 0 -110.5 46t-20.5 120l103 584h153l-101 -573q-9 -46 35 -46q23 0 41 11l18 -109q-20 -16 -51.5 -24.5t-66.5 -8.5zM391 340q9 57 15 95.5t8 73.5h154q-3 -41 -10 -86t-14 -87l-55 -306q-19 -107 -82.5 -168t-188.5 -61q-73 0 -116 17l43 125q44 -12 85 -12
q47 0 72 23.5t34 74.5zM518 569q-44 0 -70 27t-26 64t25.5 64t70.5 27q44 0 70 -27t26 -64t-26 -64t-70 -27z" />
    <glyph glyph-name="uni01CA" unicode="&#x1ca;" horiz-adv-x="1252" 
d="M607 710h157l-125 -710h-145l-236 452l-79 -452h-157l125 710h145l236 -452zM916 -10q-85 0 -140.5 40t-71.5 117l144 59q11 -36 30.5 -54t53.5 -18q32 0 55 22t31 67l86 487h163l-82 -469q-44 -251 -269 -251z" />
    <glyph glyph-name="uni01CB" unicode="&#x1cb;" horiz-adv-x="1032" 
d="M607 710h157l-125 -710h-145l-236 452l-79 -452h-157l125 710h145l236 -452zM833 340q9 57 15 95.5t8 73.5h154q-3 -41 -10 -86t-14 -87l-55 -306q-19 -107 -82.5 -168t-188.5 -61q-73 0 -116 17l43 125q44 -12 85 -12q47 0 72 23.5t34 74.5zM960 569q-44 0 -70 27
t-26 64t25.5 64t70.5 27q44 0 70 -27t26 -64t-26 -64t-70 -27z" />
    <glyph glyph-name="uni01CC" unicode="&#x1cc;" horiz-adv-x="904" 
d="M14 0l60 340q9 57 15 95.5t9 73.5h151q-4 -59 -25 -125q39 64 92.5 98.5t119.5 34.5q89 0 128 -60t14 -169l-34 -148q-7 -36 -10.5 -70.5t-3.5 -69.5h-156q0 66 15 132l35 153q10 45 -2.5 67.5t-45.5 22.5q-43 0 -81.5 -34t-70.5 -116t-57 -225h-153zM705 340
q9 57 15 95.5t8 73.5h154q-3 -41 -10 -86t-14 -87l-55 -306q-19 -107 -82.5 -168t-188.5 -61q-73 0 -116 17l43 125q44 -12 85 -12q47 0 72 23.5t34 74.5zM832 569q-44 0 -70 27t-26 64t25.5 64t70.5 27q44 0 70 -27t26 -64t-26 -64t-70 -27z" />
    <glyph glyph-name="Gcaron" unicode="&#x1e6;" horiz-adv-x="768" 
d="M442 386h302l-67 -386h-130v51q-41 -33 -89.5 -47t-102.5 -14q-93 0 -162.5 34.5t-108 97.5t-38.5 150q0 95 33.5 177t94 142.5t142 94.5t177.5 34q60 0 115 -15.5t98.5 -47t67.5 -80.5l-141 -91q-20 41 -64 65t-98 24q-73 0 -131.5 -37.5t-92.5 -101.5t-34 -144
q0 -74 42.5 -115.5t121.5 -41.5q68 0 120 30t67 88h-145zM420 774l-103 167l132 10l47 -84l77 84l136 -10l-163 -167h-126z" />
    <glyph glyph-name="gcaron" unicode="&#x1e7;" horiz-adv-x="622" 
d="M180 -210q-59 0 -111 11.5t-81 30.5l53 130q68 -38 154 -38q80 0 123 36t63 121l7 28q-65 -99 -172 -99q-87 0 -137.5 50t-50.5 139q0 68 23.5 126t66.5 101t100.5 67t125.5 24q90 0 146 -43l17 33h104q-7 -36 -17 -83.5t-19 -98.5l-39 -226q-28 -158 -116 -233.5
t-240 -75.5zM268 143q55 0 96 45t54 123l10 52q-29 23 -81 23q-70 0 -115 -45.5t-45 -116.5q0 -81 81 -81zM314 573l-103 167l132 10l47 -84l77 84l136 -10l-163 -167h-126z" />
    <glyph glyph-name="uni01EA" unicode="&#x1ea;" horiz-adv-x="781" 
d="M340 -223q-61 0 -98 27t-37 73q0 37 22 66.5t56 51.5q-109 18 -173 90.5t-64 186.5q0 95 33 177t91.5 142.5t137 94.5t171.5 34q88 0 153.5 -35t101.5 -99t36 -151q0 -104 -39.5 -192t-108.5 -150t-158 -88q-59 -17 -93 -45.5t-34 -56.5q0 -33 37 -33q30 0 60 30l37 -73
q-21 -23 -56.5 -36.5t-74.5 -13.5zM371 135q66 0 118.5 37.5t83 101.5t30.5 144q0 73 -39.5 115t-108.5 42t-123.5 -37.5t-86.5 -101.5t-32 -144q0 -74 41.5 -115.5t116.5 -41.5z" />
    <glyph glyph-name="uni01EB" unicode="&#x1eb;" horiz-adv-x="596" 
d="M247 -223q-62 0 -99 27t-37 73q0 37 22.5 66.5t56.5 51.5q-77 14 -120 65t-43 131q0 66 22.5 124.5t65.5 104t102.5 71.5t133.5 26q99 0 158 -53.5t59 -148.5q0 -68 -24 -127t-67.5 -103.5t-101.5 -69.5q-132 -55 -132 -112q0 -33 37 -33q30 0 60 30l38 -73
q-21 -23 -56.5 -36.5t-74.5 -13.5zM271 123q38 0 69.5 23t50.5 62t19 87q0 43 -22 66t-62 23q-43 0 -74.5 -25t-48.5 -64t-17 -83q0 -42 21.5 -65.5t63.5 -23.5z" />
    <glyph glyph-name="Aringacute" unicode="&#x1fa;" horiz-adv-x="697" 
d="M-69 0l434 710h137l170 -710h-160l-31 145h-293l-85 -145h-172zM268 281h183l-49 229zM460 769q-34 0 -61.5 15t-44 40.5t-16.5 56.5q0 32 17 58.5t45 41.5t63 15q28 0 52 -10l83 70l117 -23l-140 -107q8 -19 8 -41q0 -49 -35.5 -82.5t-87.5 -33.5zM461 828q24 0 39 16
t15 41q0 23 -15.5 37.5t-37.5 14.5q-24 0 -40 -16t-16 -40t15.5 -38.5t39.5 -14.5z" />
    <glyph glyph-name="aringacute" unicode="&#x1fb;" horiz-adv-x="618" 
d="M215 -10q-87 0 -137.5 52.5t-50.5 143.5q0 71 23.5 131.5t66 105t100 69.5t124.5 25q90 0 145 -45l18 35h104q-7 -34 -16.5 -81.5t-19.5 -100.5l-27 -151q-9 -50 -13.5 -95t-4.5 -79h-151q0 22 3 46t8 47q-65 -103 -172 -103zM267 123q54 0 93.5 49.5t53.5 134.5l10 54
q-28 25 -79 25q-71 0 -115 -49t-44 -127q0 -87 81 -87zM395 568q-34 0 -61.5 15t-44 40.5t-16.5 56.5q0 32 17 58.5t45 41.5t63 15q28 0 52 -10l83 71l117 -23l-140 -108q8 -19 8 -41q0 -49 -35.5 -82.5t-87.5 -33.5zM396 627q24 0 39 16t15 41q0 23 -15.5 37.5t-37.5 14.5
q-24 0 -40 -15.5t-16 -40.5q0 -24 15.5 -38.5t39.5 -14.5z" />
    <glyph glyph-name="AEacute" unicode="&#x1fc;" horiz-adv-x="948" 
d="M-69 0l434 710h637l-25 -141h-314l-25 -141h294l-25 -141h-294l-26 -146h325l-36 -141h-476l25 143h-239l-83 -143h-172zM269 284h181l50 285h-64zM549 774l154 177l153 -39l-169 -138h-138z" />
    <glyph glyph-name="aeacute" unicode="&#x1fd;" horiz-adv-x="849" 
d="M206 -10q-93 0 -144 38.5t-51 106.5q0 82 63.5 129t168.5 47h105l2 9q7 37 -11 56t-55 19q-69 0 -104 -60l-126 26q32 73 99 114.5t153 41.5q51 0 95 -16.5t66 -56.5q34 35 81.5 54t104.5 19q52 0 92 -18.5t63.5 -52.5t23.5 -80q0 -70 -49 -113t-129 -43h-167
q-2 -41 28.5 -65t83.5 -24q31 0 64 12.5t54 33.5l65 -93q-34 -40 -88 -62t-119 -22q-119 0 -178 87q-34 -44 -85 -65.5t-106 -21.5zM632 406q-44 0 -77 -25t-49 -70h136q22 0 37.5 12t15.5 35q0 19 -14.5 33.5t-48.5 14.5zM228 105q84 0 99 87l3 18h-90q-36 0 -57 -15.5
t-21 -40.5q0 -49 66 -49zM403 573l154 177l153 -38l-169 -139h-138z" />
    <glyph glyph-name="Oslashacute" unicode="&#x1fe;" horiz-adv-x="781" 
d="M353 -10q-93 0 -162 34t-107 97t-38 151q0 95 33 177t91.5 142.5t137 94.5t171.5 34q88 0 153.5 -35t101.5 -99t36 -151q0 -93 -32 -174t-89 -142t-133 -95t-163 -34zM371 135q66 0 118.5 37.5t83 101.5t30.5 144q0 73 -39.5 115t-108.5 42t-123.5 -37.5t-86.5 -101.5
t-32 -144q0 -74 41.5 -115.5t116.5 -41.5zM133 -16l-89 82l641 660l89 -82zM413 774l154 177l153 -39l-169 -138h-138z" />
    <glyph glyph-name="oslashacute" unicode="&#x1ff;" horiz-adv-x="596" 
d="M351 517q99 0 158 -53.5t59 -148.5q0 -68 -24 -127t-67.5 -103.5t-102 -69.5t-128.5 -25q-101 0 -160 53.5t-59 147.5q0 66 22.5 124.5t65.5 104t102.5 71.5t133.5 26zM271 123q38 0 69.5 23t50.5 62t19 87q0 43 -22 66t-62 23q-43 0 -74.5 -25t-48.5 -64t-17 -83
q0 -42 21.5 -65.5t63.5 -23.5zM111 -15l-79 74l57 59l80 69l207 212l51 66l57 59l80 -74l-57 -59l-81 -69l-207 -212l-51 -66zM285 573l154 177l153 -38l-169 -139h-138z" />
    <glyph glyph-name="uni0200" unicode="&#x200;" horiz-adv-x="697" 
d="M-69 0l434 710h137l170 -710h-160l-31 145h-293l-85 -145h-172zM268 281h183l-49 229zM480 774l-68 138l148 39l39 -177h-119zM282 774l-68 138l148 39l39 -177h-119z" />
    <glyph glyph-name="uni0201" unicode="&#x201;" horiz-adv-x="618" 
d="M215 -10q-87 0 -137.5 52.5t-50.5 143.5q0 71 23.5 131.5t66 105t100 69.5t124.5 25q90 0 145 -45l18 35h104q-7 -34 -16.5 -81.5t-19.5 -100.5l-27 -151q-9 -50 -13.5 -95t-4.5 -79h-151q0 22 3 46t8 47q-65 -103 -172 -103zM267 123q54 0 93.5 49.5t53.5 134.5l10 54
q-28 25 -79 25q-71 0 -115 -49t-44 -127q0 -87 81 -87zM415 573l-68 139l148 38l39 -177h-119zM217 573l-68 139l148 38l39 -177h-119z" />
    <glyph glyph-name="uni0202" unicode="&#x202;" horiz-adv-x="697" 
d="M-69 0l434 710h137l170 -710h-160l-31 145h-293l-85 -145h-172zM268 281h183l-49 229zM526 774q-1 36 -17 56t-51 20q-70 0 -96 -76h-102q16 81 73.5 129t134.5 48q80 0 121.5 -47t32.5 -130h-96z" />
    <glyph glyph-name="uni0203" unicode="&#x203;" horiz-adv-x="618" 
d="M215 -10q-87 0 -137.5 52.5t-50.5 143.5q0 71 23.5 131.5t66 105t100 69.5t124.5 25q90 0 145 -45l18 35h104q-7 -34 -16.5 -81.5t-19.5 -100.5l-27 -151q-9 -50 -13.5 -95t-4.5 -79h-151q0 22 3 46t8 47q-65 -103 -172 -103zM267 123q54 0 93.5 49.5t53.5 134.5l10 54
q-28 25 -79 25q-71 0 -115 -49t-44 -127q0 -87 81 -87zM461 573q-1 36 -17 56t-51 20q-70 0 -96 -76h-102q16 82 73.5 129.5t134.5 47.5q80 0 121.5 -47t32.5 -130h-96z" />
    <glyph glyph-name="uni0204" unicode="&#x204;" horiz-adv-x="579" 
d="M208 141h335l-35 -141h-486l125 710h487l-25 -141h-326l-25 -141h306l-25 -141h-306zM441 774l-68 138l148 39l39 -177h-119zM243 774l-68 138l148 39l39 -177h-119z" />
    <glyph glyph-name="uni0205" unicode="&#x205;" horiz-adv-x="547" 
d="M266 -10q-72 0 -125.5 26t-83 74t-28.5 113q0 90 40.5 161t110 112t158.5 41q87 0 139.5 -41t52.5 -110q0 -70 -49 -112t-133 -48l-167 -12q5 -34 35 -53.5t79 -19.5q33 0 66 12.5t54 33.5l66 -93q-35 -40 -89.5 -62t-125.5 -22zM328 406q-49 0 -84 -29t-49 -79l133 9
q31 2 48.5 15.5t17.5 38.5q0 21 -17.5 33t-48.5 12zM385 573l-68 139l148 38l39 -177h-119zM187 573l-68 139l148 38l39 -177h-119z" />
    <glyph glyph-name="uni0206" unicode="&#x206;" horiz-adv-x="579" 
d="M208 141h335l-35 -141h-486l125 710h487l-25 -141h-326l-25 -141h306l-25 -141h-306zM487 774q-1 36 -17 56t-51 20q-70 0 -96 -76h-102q16 81 73.5 129t134.5 48q80 0 121.5 -47t32.5 -130h-96z" />
    <glyph glyph-name="uni0207" unicode="&#x207;" horiz-adv-x="547" 
d="M266 -10q-72 0 -125.5 26t-83 74t-28.5 113q0 90 40.5 161t110 112t158.5 41q87 0 139.5 -41t52.5 -110q0 -70 -49 -112t-133 -48l-167 -12q5 -34 35 -53.5t79 -19.5q33 0 66 12.5t54 33.5l66 -93q-35 -40 -89.5 -62t-125.5 -22zM328 406q-49 0 -84 -29t-49 -79l133 9
q31 2 48.5 15.5t17.5 38.5q0 21 -17.5 33t-48.5 12zM431 573q-1 36 -17 56t-51 20q-70 0 -96 -76h-102q16 82 73.5 129.5t134.5 47.5q80 0 121.5 -47t32.5 -130h-96z" />
    <glyph glyph-name="uni0208" unicode="&#x208;" horiz-adv-x="297" 
d="M22 0l125 710h163l-125 -710h-163zM279 774l-68 138l148 39l39 -177h-119zM81 774l-68 138l148 39l39 -177h-119z" />
    <glyph glyph-name="uni0209" unicode="&#x209;" horiz-adv-x="270" 
d="M21 0q0 32 5 66t11 66l36 208q10 57 15.5 95.5t8.5 73.5h154q-3 -41 -10 -86t-14 -87l-35 -196q-6 -36 -11 -70.5t-5 -69.5h-155zM224 573l-68 139l148 38l39 -177h-119zM26 573l-68 139l148 38l39 -177h-119z" />
    <glyph glyph-name="uni020A" unicode="&#x20a;" horiz-adv-x="297" 
d="M22 0l125 710h163l-125 -710h-163zM325 774q-1 36 -17 56t-51 20q-70 0 -96 -76h-102q16 81 73.5 129t134.5 48q80 0 121.5 -47t32.5 -130h-96z" />
    <glyph glyph-name="uni020B" unicode="&#x20b;" horiz-adv-x="270" 
d="M21 0q0 32 5 66t11 66l36 208q10 57 15.5 95.5t8.5 73.5h154q-3 -41 -10 -86t-14 -87l-35 -196q-6 -36 -11 -70.5t-5 -69.5h-155zM270 573q-1 36 -17 56t-51 20q-70 0 -96 -76h-102q16 82 73.5 129.5t134.5 47.5q80 0 121.5 -47t32.5 -130h-96z" />
    <glyph glyph-name="uni020C" unicode="&#x20c;" horiz-adv-x="781" 
d="M353 -10q-93 0 -162 34t-107 97t-38 151q0 95 33 177t91.5 142.5t137 94.5t171.5 34q88 0 153.5 -35t101.5 -99t36 -151q0 -93 -32 -174t-89 -142t-133 -95t-163 -34zM371 135q66 0 118.5 37.5t83 101.5t30.5 144q0 73 -39.5 115t-108.5 42t-123.5 -37.5t-86.5 -101.5
t-32 -144q0 -74 41.5 -115.5t116.5 -41.5zM522 774l-68 138l148 39l39 -177h-119zM324 774l-68 138l148 39l39 -177h-119z" />
    <glyph glyph-name="uni020D" unicode="&#x20d;" horiz-adv-x="596" 
d="M351 517q99 0 158 -53.5t59 -148.5q0 -68 -24 -127t-67.5 -103.5t-102 -69.5t-128.5 -25q-101 0 -160 53.5t-59 147.5q0 66 22.5 124.5t65.5 104t102.5 71.5t133.5 26zM271 123q38 0 69.5 23t50.5 62t19 87q0 43 -22 66t-62 23q-43 0 -74.5 -25t-48.5 -64t-17 -83
q0 -42 21.5 -65.5t63.5 -23.5zM393 573l-68 139l148 38l39 -177h-119zM195 573l-68 139l148 38l39 -177h-119z" />
    <glyph glyph-name="uni020E" unicode="&#x20e;" horiz-adv-x="781" 
d="M353 -10q-93 0 -162 34t-107 97t-38 151q0 95 33 177t91.5 142.5t137 94.5t171.5 34q88 0 153.5 -35t101.5 -99t36 -151q0 -93 -32 -174t-89 -142t-133 -95t-163 -34zM371 135q66 0 118.5 37.5t83 101.5t30.5 144q0 73 -39.5 115t-108.5 42t-123.5 -37.5t-86.5 -101.5
t-32 -144q0 -74 41.5 -115.5t116.5 -41.5zM568 774q-1 36 -17 56t-51 20q-70 0 -96 -76h-102q16 81 73.5 129t134.5 48q80 0 121.5 -47t32.5 -130h-96z" />
    <glyph glyph-name="uni020F" unicode="&#x20f;" horiz-adv-x="596" 
d="M351 517q99 0 158 -53.5t59 -148.5q0 -68 -24 -127t-67.5 -103.5t-102 -69.5t-128.5 -25q-101 0 -160 53.5t-59 147.5q0 66 22.5 124.5t65.5 104t102.5 71.5t133.5 26zM271 123q38 0 69.5 23t50.5 62t19 87q0 43 -22 66t-62 23q-43 0 -74.5 -25t-48.5 -64t-17 -83
q0 -42 21.5 -65.5t63.5 -23.5zM439 573q-1 36 -17 56t-51 20q-70 0 -96 -76h-102q16 82 73.5 129.5t134.5 47.5q80 0 121.5 -47t32.5 -130h-96z" />
    <glyph glyph-name="uni0210" unicode="&#x210;" horiz-adv-x="656" 
d="M637 153l20 -126q-25 -18 -60 -27.5t-69 -9.5q-68 0 -112 26.5t-67 79.5l-60 134q-11 24 -25 33.5t-33 10.5l-49 -274h-160l125 710h223q135 0 201.5 -47.5t66.5 -138.5q0 -98 -60 -160.5t-157 -79.5q28 -15 45 -51l25 -52q12 -25 31 -36.5t44 -11.5q22 0 39.5 4.5
t31.5 15.5zM340 577h-56l-31 -176h73q76 0 111.5 25.5t35.5 74.5q0 41 -33.5 58.5t-99.5 17.5zM473 774l-68 138l148 39l39 -177h-119zM275 774l-68 138l148 39l39 -177h-119z" />
    <glyph glyph-name="uni0211" unicode="&#x211;" horiz-adv-x="427" 
d="M427 361q-19 8 -48 8q-54 0 -92.5 -36.5t-67 -118t-51.5 -214.5h-153l60 340q10 57 15.5 95.5t8.5 73.5h152q-2 -25 -8.5 -58t-15.5 -68q39 72 90 103t103 31q17 0 31.5 -2t28.5 -7zM342 573l-68 139l148 38l39 -177h-119zM144 573l-68 139l148 38l39 -177h-119z" />
    <glyph glyph-name="uni0212" unicode="&#x212;" horiz-adv-x="656" 
d="M637 153l20 -126q-25 -18 -60 -27.5t-69 -9.5q-68 0 -112 26.5t-67 79.5l-60 134q-11 24 -25 33.5t-33 10.5l-49 -274h-160l125 710h223q135 0 201.5 -47.5t66.5 -138.5q0 -98 -60 -160.5t-157 -79.5q28 -15 45 -51l25 -52q12 -25 31 -36.5t44 -11.5q22 0 39.5 4.5
t31.5 15.5zM340 577h-56l-31 -176h73q76 0 111.5 25.5t35.5 74.5q0 41 -33.5 58.5t-99.5 17.5zM519 774q-1 36 -17 56t-51 20q-70 0 -96 -76h-102q16 81 73.5 129t134.5 48q80 0 121.5 -47t32.5 -130h-96z" />
    <glyph glyph-name="uni0213" unicode="&#x213;" horiz-adv-x="427" 
d="M427 361q-19 8 -48 8q-54 0 -92.5 -36.5t-67 -118t-51.5 -214.5h-153l60 340q10 57 15.5 95.5t8.5 73.5h152q-2 -25 -8.5 -58t-15.5 -68q39 72 90 103t103 31q17 0 31.5 -2t28.5 -7zM388 573q-1 36 -17 56t-51 20q-70 0 -96 -76h-102q16 82 73.5 129.5t134.5 47.5
q80 0 121.5 -47t32.5 -130h-96z" />
    <glyph glyph-name="uni0214" unicode="&#x214;" horiz-adv-x="759" 
d="M613 710h161l-66 -386q-28 -163 -120 -248.5t-240 -85.5q-102 0 -169.5 37.5t-95.5 107.5t-11 166l72 409h164l-70 -396q-31 -179 127 -179q77 0 121.5 48.5t62.5 151.5zM510 774l-68 138l148 39l39 -177h-119zM312 774l-68 138l148 39l39 -177h-119z" />
    <glyph glyph-name="uni0215" unicode="&#x215;" horiz-adv-x="610" 
d="M185 -10q-88 0 -125 59t-16 168l22 123q11 57 16 95.5t8 73.5h154q-3 -41 -10 -86t-15 -87l-20 -107q-9 -45 2.5 -71t49.5 -26q35 0 70 34.5t67.5 116.5t59.5 226h149l-59 -335q-9 -50 -14 -95t-5 -79h-150q0 28 4.5 59t11.5 60q-78 -129 -200 -129zM400 573l-68 139
l148 38l39 -177h-119zM202 573l-68 139l148 38l39 -177h-119z" />
    <glyph glyph-name="uni0216" unicode="&#x216;" horiz-adv-x="759" 
d="M613 710h161l-66 -386q-28 -163 -120 -248.5t-240 -85.5q-102 0 -169.5 37.5t-95.5 107.5t-11 166l72 409h164l-70 -396q-31 -179 127 -179q77 0 121.5 48.5t62.5 151.5zM556 774q-1 36 -17 56t-51 20q-70 0 -96 -76h-102q16 81 73.5 129t134.5 48q80 0 121.5 -47
t32.5 -130h-96z" />
    <glyph glyph-name="uni0217" unicode="&#x217;" horiz-adv-x="610" 
d="M185 -10q-88 0 -125 59t-16 168l22 123q11 57 16 95.5t8 73.5h154q-3 -41 -10 -86t-15 -87l-20 -107q-9 -45 2.5 -71t49.5 -26q35 0 70 34.5t67.5 116.5t59.5 226h149l-59 -335q-9 -50 -14 -95t-5 -79h-150q0 28 4.5 59t11.5 60q-78 -129 -200 -129zM446 573
q-1 36 -17 56t-51 20q-70 0 -96 -76h-102q16 82 73.5 129.5t134.5 47.5q80 0 121.5 -47t32.5 -130h-96z" />
    <glyph glyph-name="uni0218" unicode="&#x218;" horiz-adv-x="599" 
d="M262 -9q-124 0 -193.5 57.5t-63.5 163.5l156 22q-3 -52 28 -79.5t96 -27.5q57 0 87.5 21.5t30.5 55.5q0 26 -22 41t-56.5 26t-73.5 23.5t-74 33.5t-57 56t-22 92q0 73 39 128t106 85.5t150 30.5q105 0 167 -53.5t60 -144.5l-149 -24q0 41 -25 63.5t-68 22.5
q-53 0 -82.5 -24.5t-29.5 -58.5q0 -30 22 -46.5t57 -27.5t74 -23t74 -31.5t57 -52t22 -86.5q0 -77 -41.5 -131.5t-112 -83t-156.5 -28.5zM142 -241q19 24 26.5 44t7.5 34q0 15 -5 25.5t-5 22.5q0 24 22 41t58 17q34 0 54 -15t20 -41q0 -29 -29 -66.5t-80 -61.5h-69z" />
    <glyph glyph-name="uni0219" unicode="&#x219;" horiz-adv-x="485" 
d="M212 -10q-104 0 -160 41.5t-61 109.5l133 32q0 -31 25.5 -47.5t69.5 -16.5q39 0 60 10t21 29q0 16 -17.5 25t-45.5 15t-59 14.5t-59 23.5t-45.5 41t-17.5 68q0 59 33 99.5t86.5 61.5t115.5 21q81 0 133 -39t59 -96l-131 -34q-6 50 -74 50q-31 0 -51 -11t-20 -30
q0 -17 17.5 -26t45 -16t58.5 -15.5t58.5 -23t45 -40t17.5 -66.5q0 -60 -33 -100t-87.5 -60t-116.5 -20zM100 -241q19 24 26.5 44t7.5 34q0 15 -5 25.5t-5 22.5q0 24 22 41t58 17q34 0 54 -15t20 -41q0 -29 -29 -66.5t-80 -61.5h-69z" />
    <glyph glyph-name="uni021A" unicode="&#x21a;" horiz-adv-x="592" 
d="M694 710l-47 -143h-214l-100 -567h-164l100 567h-225l25 143h625zM131 -241q19 24 26.5 44t7.5 34q0 15 -5 25.5t-5 22.5q0 24 22 41t58 17q34 0 54 -15t20 -41q0 -29 -29 -66.5t-80 -61.5h-69z" />
    <glyph glyph-name="uni021B" unicode="&#x21b;" horiz-adv-x="428" 
d="M250 -10q-64 0 -106.5 26t-60.5 72t-7 105l36 189h-84l22 127h87l20 104h152l-20 -104h159l-22 -127h-161l-36 -184q-15 -76 63 -76q46 0 89 27l24 -117q-26 -21 -66 -31.5t-89 -10.5zM101 -241q19 24 26.5 44t7.5 34q0 15 -5 25.5t-5 22.5q0 24 22 41t58 17q34 0 54 -15
t20 -41q0 -29 -29 -66.5t-80 -61.5h-69z" />
    <glyph glyph-name="uni022A" unicode="&#x22a;" horiz-adv-x="781" 
d="M353 -10q-93 0 -162 34t-107 97t-38 151q0 95 33 177t91.5 142.5t137 94.5t171.5 34q88 0 153.5 -35t101.5 -99t36 -151q0 -93 -32 -174t-89 -142t-133 -95t-163 -34zM371 135q66 0 118.5 37.5t83 101.5t30.5 144q0 73 -39.5 115t-108.5 42t-123.5 -37.5t-86.5 -101.5
t-32 -144q0 -74 41.5 -115.5t116.5 -41.5zM333 969l18 103h369l-18 -103h-369zM392 769q-43 0 -65.5 26t-22.5 55q0 31 22.5 56t65.5 25q40 0 62.5 -25t22.5 -56q0 -29 -22.5 -55t-62.5 -26zM603 769q-43 0 -65 26t-22 55q0 31 22 56t65 25q41 0 63.5 -25t22.5 -56
q0 -29 -22.5 -55t-63.5 -26z" />
    <glyph glyph-name="uni022B" unicode="&#x22b;" horiz-adv-x="596" 
d="M351 517q99 0 158 -53.5t59 -148.5q0 -68 -24 -127t-67.5 -103.5t-102 -69.5t-128.5 -25q-101 0 -160 53.5t-59 147.5q0 66 22.5 124.5t65.5 104t102.5 71.5t133.5 26zM271 123q38 0 69.5 23t50.5 62t19 87q0 43 -22 66t-62 23q-43 0 -74.5 -25t-48.5 -64t-17 -83
q0 -42 21.5 -65.5t63.5 -23.5zM204 768l18 103h369l-18 -103h-369zM263 568q-43 0 -65.5 26t-22.5 55q0 31 22.5 56t65.5 25q40 0 62.5 -25t22.5 -56q0 -29 -22.5 -55t-62.5 -26zM474 568q-43 0 -65 26t-22 55q0 31 22 56t65 25q41 0 63.5 -25t22.5 -56q0 -29 -22.5 -55
t-63.5 -26z" />
    <glyph glyph-name="uni022C" unicode="&#x22c;" horiz-adv-x="781" 
d="M353 -10q-93 0 -162 34t-107 97t-38 151q0 95 33 177t91.5 142.5t137 94.5t171.5 34q88 0 153.5 -35t101.5 -99t36 -151q0 -93 -32 -174t-89 -142t-133 -95t-163 -34zM371 135q66 0 118.5 37.5t83 101.5t30.5 144q0 73 -39.5 115t-108.5 42t-123.5 -37.5t-86.5 -101.5
t-32 -144q0 -74 41.5 -115.5t116.5 -41.5zM323 986l18 103h395l-18 -103h-395zM563 768q-29 0 -57.5 13t-54.5 26.5t-47 13.5q-14 0 -33.5 -11.5t-34.5 -33.5l-52 50q23 54 61.5 81t85.5 27q28 0 57 -13.5t55 -26.5t46 -13q18 0 36.5 11t32.5 35l52 -50q-23 -54 -62 -81.5
t-85 -27.5z" />
    <glyph glyph-name="uni022D" unicode="&#x22d;" horiz-adv-x="596" 
d="M351 517q99 0 158 -53.5t59 -148.5q0 -68 -24 -127t-67.5 -103.5t-102 -69.5t-128.5 -25q-101 0 -160 53.5t-59 147.5q0 66 22.5 124.5t65.5 104t102.5 71.5t133.5 26zM271 123q38 0 69.5 23t50.5 62t19 87q0 43 -22 66t-62 23q-43 0 -74.5 -25t-48.5 -64t-17 -83
q0 -42 21.5 -65.5t63.5 -23.5zM194 785l18 103h395l-18 -103h-395zM434 567q-29 0 -57.5 13t-54.5 26.5t-47 13.5q-14 0 -33.5 -11.5t-34.5 -33.5l-52 50q23 54 61.5 81t85.5 27q28 0 57 -13.5t55 -26.5t46 -13q18 0 36.5 11t32.5 35l52 -50q-23 -54 -62 -81.5t-85 -27.5z
" />
    <glyph glyph-name="uni0230" unicode="&#x230;" horiz-adv-x="781" 
d="M353 -10q-93 0 -162 34t-107 97t-38 151q0 95 33 177t91.5 142.5t137 94.5t171.5 34q88 0 153.5 -35t101.5 -99t36 -151q0 -93 -32 -174t-89 -142t-133 -95t-163 -34zM371 135q66 0 118.5 37.5t83 101.5t30.5 144q0 73 -39.5 115t-108.5 42t-123.5 -37.5t-86.5 -101.5
t-32 -144q0 -74 41.5 -115.5t116.5 -41.5zM345 986l18 103h351l-18 -103h-351zM497 766q-44 0 -69.5 27t-25.5 64q0 38 26 64.5t70 26.5q45 0 70.5 -26.5t25.5 -64.5q0 -37 -26 -64t-71 -27z" />
    <glyph glyph-name="uni0231" unicode="&#x231;" horiz-adv-x="596" 
d="M351 517q99 0 158 -53.5t59 -148.5q0 -68 -24 -127t-67.5 -103.5t-102 -69.5t-128.5 -25q-101 0 -160 53.5t-59 147.5q0 66 22.5 124.5t65.5 104t102.5 71.5t133.5 26zM271 123q38 0 69.5 23t50.5 62t19 87q0 43 -22 66t-62 23q-43 0 -74.5 -25t-48.5 -64t-17 -83
q0 -42 21.5 -65.5t63.5 -23.5zM216 785l18 103h351l-18 -103h-351zM368 566q-44 0 -69.5 26.5t-25.5 63.5q0 38 26 64.5t70 26.5q45 0 70.5 -26.5t25.5 -64.5q0 -37 -26 -63.5t-71 -26.5z" />
    <glyph glyph-name="uni0232" unicode="&#x232;" horiz-adv-x="611" 
d="M713 710l-314 -393l-56 -317h-164l56 315l-182 395h175l111 -249l193 249h181zM250 899h344l-18 -102h-344z" />
    <glyph glyph-name="uni0233" unicode="&#x233;" horiz-adv-x="614" 
d="M171 -210q-31 0 -65.5 4.5t-65 13.5t-50.5 24l49 130q32 -17 68.5 -27.5t85.5 -10.5q83 0 125 38t62 119l8 34q-40 -53 -89.5 -79t-102.5 -26q-90 0 -129 60t-19 168l19 104q10 55 15 93.5t8 73.5h154q-3 -42 -10 -86t-14 -85l-17 -89q-8 -45 3.5 -71t46.5 -26
q41 0 77 33t67 110.5t56 213.5h148l-72 -410q-20 -115 -67 -182.5t-120 -97t-171 -29.5zM214 698h344l-18 -102h-344z" />
    <glyph glyph-name="uni0237" unicode="&#x237;" horiz-adv-x="281" 
d="M82 340q9 57 15 95.5t8 73.5h154q-3 -41 -10 -86t-14 -87l-55 -306q-19 -107 -82.5 -168t-188.5 -61q-73 0 -116 17l43 125q44 -12 85 -12q47 0 72 23.5t34 74.5z" />
    <glyph glyph-name="uni0259" unicode="&#x259;" horiz-adv-x="547" 
d="M292 517q67 0 118 -26t80 -74t29 -114q-1 -89 -41.5 -160t-110 -112t-157.5 -41t-140.5 41t-52.5 110t49.5 111.5t133.5 48.5l167 12q-4 34 -31 53.5t-73 19.5q-37 0 -72.5 -12.5t-58.5 -34.5l-67 96q86 82 227 82zM154 146q0 -21 17 -33t48 -12q49 0 84 28.5t49 79.5
l-133 -9q-31 -2 -48 -15.5t-17 -38.5z" />
    <glyph glyph-name="uni02B9" unicode="&#x2b9;" horiz-adv-x="640" 
d="M274 573l154 177l153 -38l-169 -139h-138z" />
    <glyph glyph-name="uni02BA" unicode="&#x2ba;" horiz-adv-x="620" 
d="M504 573h-119l104 177l133 -38zM306 573h-119l104 177l133 -38z" />
    <glyph glyph-name="uni02BB" unicode="&#x2bb;" horiz-adv-x="639" 
d="M445 752q-19 -24 -26.5 -44.5t-7.5 -34.5q0 -15 5 -25.5t5 -21.5q0 -24 -22 -41t-58 -17q-34 0 -54 15t-20 41q0 29 29 66.5t80 61.5h69z" />
    <glyph glyph-name="uni02BC" unicode="&#x2bc;" horiz-adv-x="285" 
d="M12 354q29 48 45.5 88t16.5 71q0 28 -7 49t-7 48q0 45 31 77.5t87 32.5q42 0 65.5 -21t23.5 -61q0 -33 -16.5 -72t-42.5 -78t-57 -74t-61 -60h-78z" />
    <glyph glyph-name="uni02BE" unicode="&#x2be;" horiz-adv-x="613" 
d="M300 568v65q26 0 41.5 13t15.5 36q0 21 -15.5 34.5t-41.5 13.5v63q58 0 95 -31.5t37 -80.5q0 -50 -36.5 -81.5t-95.5 -31.5z" />
    <glyph glyph-name="uni02BF" unicode="&#x2bf;" horiz-adv-x="613" 
d="M313 568q-59 0 -95.5 31.5t-36.5 81.5q0 49 37 80.5t95 31.5v-63q-26 0 -41.5 -13.5t-15.5 -34.5q0 -23 15.5 -36t41.5 -13v-65z" />
    <glyph glyph-name="circumflex" unicode="&#x2c6;" horiz-adv-x="646" 
d="M529 573h-137l-41 73l-67 -73h-148l164 167h126z" />
    <glyph glyph-name="caron" unicode="&#x2c7;" horiz-adv-x="646" 
d="M283 573l-103 167l132 10l47 -84l77 84l136 -10l-163 -167h-126z" />
    <glyph glyph-name="uni02C8" unicode="&#x2c8;" horiz-adv-x="618" 
d="M254 573l32 179h133l-32 -179h-133z" />
    <glyph glyph-name="uni02C9" unicode="&#x2c9;" horiz-adv-x="624" 
d="M174 698h343l-18 -102h-343z" />
    <glyph glyph-name="uni02CA" unicode="&#x2ca;" horiz-adv-x="640" 
d="M274 573l154 177l153 -38l-169 -139h-138z" />
    <glyph glyph-name="uni02CB" unicode="&#x2cb;" horiz-adv-x="643" 
d="M274 573l-119 139l167 38l90 -177h-138z" />
    <glyph glyph-name="uni02CC" unicode="&#x2cc;" horiz-adv-x="618" 
d="M112 -234l31 177h134l-32 -177h-133z" />
    <glyph glyph-name="breve" unicode="&#x2d8;" horiz-adv-x="646" 
d="M461 752l96 -12q-12 -79 -67 -125.5t-128 -46.5q-83 0 -126 46.5t-41 125.5l100 12q-1 -83 69 -83q69 0 97 83z" />
    <glyph glyph-name="dotaccent" unicode="&#x2d9;" horiz-adv-x="650" 
d="M360 566q-44 0 -69.5 26.5t-25.5 63.5q0 38 26 64.5t70 26.5q45 0 70.5 -26.5t25.5 -64.5q0 -37 -26 -63.5t-71 -26.5z" />
    <glyph glyph-name="ring" unicode="&#x2da;" horiz-adv-x="626" 
d="M365 568q-34 0 -61.5 15t-44 40.5t-16.5 56.5q0 32 17 58.5t45 41.5t63 15q51 0 85.5 -31.5t34.5 -79.5q0 -49 -35.5 -82.5t-87.5 -33.5zM366 627q24 0 39 16t15 41q0 23 -15.5 37.5t-37.5 14.5q-24 0 -40 -15.5t-16 -40.5q0 -24 15.5 -38.5t39.5 -14.5z" />
    <glyph glyph-name="ogonek" unicode="&#x2db;" horiz-adv-x="626" 
d="M113.679 -223q-62 0 -94.2393 27t-24.1279 73q6.87695 39 36.8428 70q29.9668 31 72.4336 53.5q42.4678 22.5 87.584 34.5l64.8281 -35q-49.3506 -19 -84.7588 -44t-40.3457 -53q-5.81836 -33 31.1816 -33q30 0 65.29 30l25.1279 -73q-25.0557 -23 -62.9365 -36.5
q-37.8799 -13.5 -76.8799 -13.5z" />
    <glyph glyph-name="tilde" unicode="&#x2dc;" horiz-adv-x="636" 
d="M426 567q-29 0 -57.5 13t-54.5 26.5t-47 13.5q-14 0 -33.5 -11.5t-34.5 -33.5l-52 50q23 54 61.5 81t85.5 27q28 0 57 -13.5t55 -26.5t46 -13q18 0 36.5 11t32.5 35l52 -50q-23 -54 -62 -81.5t-85 -27.5z" />
    <glyph glyph-name="hungarumlaut" unicode="&#x2dd;" horiz-adv-x="620" 
d="M504 573h-119l104 177l133 -38zM306 573h-119l104 177l133 -38z" />
    <glyph glyph-name="gravecomb" unicode="&#x300;" 
d="M274 573l-119 139l167 38l90 -177h-138z" />
    <glyph glyph-name="acutecomb" unicode="&#x301;" 
d="M274 573l154 177l153 -38l-169 -139h-138z" />
    <glyph glyph-name="uni0302" unicode="&#x302;" 
d="M529 573h-137l-41 73l-67 -73h-148l164 167h126z" />
    <glyph glyph-name="tildecomb" unicode="&#x303;" 
d="M426 567q-29 0 -57.5 13t-54.5 26.5t-47 13.5q-14 0 -33.5 -11.5t-34.5 -33.5l-52 50q23 54 61.5 81t85.5 27q28 0 57 -13.5t55 -26.5t46 -13q18 0 36.5 11t32.5 35l52 -50q-23 -54 -62 -81.5t-85 -27.5z" />
    <glyph glyph-name="uni0304" unicode="&#x304;" 
d="M173 698h344l-18 -102h-344z" />
    <glyph glyph-name="uni0306" unicode="&#x306;" 
d="M461 752l96 -12q-12 -79 -67 -125.5t-128 -46.5q-83 0 -126 46.5t-41 125.5l100 12q-1 -83 69 -83q69 0 97 83z" />
    <glyph glyph-name="uni0307" unicode="&#x307;" 
d="M360 566q-44 0 -69.5 26.5t-25.5 63.5q0 38 26 64.5t70 26.5q45 0 70.5 -26.5t25.5 -64.5q0 -37 -26 -63.5t-71 -26.5z" />
    <glyph glyph-name="uni0308" unicode="&#x308;" 
d="M466 568q-43 0 -65 26t-22 55q0 31 22 56t65 25q41 0 63.5 -25t22.5 -56q0 -29 -22.5 -55t-63.5 -26zM255 568q-43 0 -65.5 26t-22.5 55q0 31 22.5 56t65.5 25q40 0 62.5 -25t22.5 -56q0 -29 -22.5 -55t-62.5 -26z" />
    <glyph glyph-name="hookabovecomb" unicode="&#x309;" 
d="M390 751q51 0 80.5 -20t29.5 -52q0 -27 -15.5 -41t-37 -22.5t-39 -17.5t-20.5 -25h-85l3 16q3 19 15 30.5t25.5 19t23.5 13.5t10 13q0 12 -19 12q-43 0 -78 -37l-48 50q28 29 69.5 45t85.5 16z" />
    <glyph glyph-name="uni030A" unicode="&#x30a;" 
d="M365 568q-34 0 -61.5 15t-44 40.5t-16.5 56.5q0 32 17 58.5t45 41.5t63 15q51 0 85.5 -31.5t34.5 -79.5q0 -49 -35.5 -82.5t-87.5 -33.5zM366 627q24 0 39 16t15 41q0 23 -15.5 37.5t-37.5 14.5q-24 0 -40 -15.5t-16 -40.5q0 -24 15.5 -38.5t39.5 -14.5z" />
    <glyph glyph-name="uni030B" unicode="&#x30b;" 
d="M504 573h-119l104 177l133 -38zM306 573h-119l104 177l133 -38z" />
    <glyph glyph-name="uni030C" unicode="&#x30c;" 
d="M283 573l-103 167l132 10l47 -84l77 84l136 -10l-163 -167h-126z" />
    <glyph glyph-name="uni030F" unicode="&#x30f;" 
d="M385 573l-68 139l148 38l39 -177h-119zM187 573l-68 139l148 38l39 -177h-119z" />
    <glyph glyph-name="uni0311" unicode="&#x311;" 
d="M431 573q-1 36 -17 56t-51 20q-70 0 -96 -76h-102q16 82 73.5 129.5t134.5 47.5q80 0 121.5 -47t32.5 -130h-96z" />
    <glyph glyph-name="uni0312" unicode="&#x312;" 
d="M445 752q-19 -24 -26.5 -44.5t-7.5 -34.5q0 -15 5 -25.5t5 -21.5q0 -24 -22 -41t-58 -17q-34 0 -54 15t-20 41q0 29 29 66.5t80 61.5h69z" />
    <glyph glyph-name="uni031B" unicode="&#x31b;" 
d="M399 508q27 0 43 8.5t23.5 33t8.5 70.5l131 -10q2 -62 -21.5 -109t-68 -73.5t-102.5 -26.5h-47l-31 114q12 -2 30.5 -4.5t33.5 -2.5z" />
    <glyph glyph-name="dotbelowcomb" unicode="&#x323;" 
d="M209 -238q-44 0 -69.5 26.5t-25.5 63.5q0 38 25.5 64.5t70.5 26.5q44 0 70 -26.5t26 -64.5q0 -37 -26 -63.5t-71 -26.5z" />
    <glyph glyph-name="uni0324" unicode="&#x324;" 
d="M329 -222q-43 0 -65.5 26t-22.5 56q0 31 22 56t65 25q41 0 63.5 -25t22.5 -56q0 -30 -22.5 -56t-62.5 -26zM117 -222q-43 0 -65.5 26t-22.5 56q0 31 22 56t65 25q41 0 63.5 -25t22.5 -56q0 -30 -22 -56t-63 -26z" />
    <glyph glyph-name="uni0326" unicode="&#x326;" 
d="M106 -241q19 24 26.5 44t7.5 34q0 15 -5 25.5t-5 22.5q0 24 22 41t58 17q34 0 54 -15t20 -41q0 -29 -29 -66.5t-80 -61.5h-69z" />
    <glyph glyph-name="uni0327" unicode="&#x327;" 
d="M158 -223q-31 0 -67.5 6.5t-55.5 16.5l40 75q17 -7 43 -12t49 -5q42 0 42 24q0 7 -7 11t-27 4h-65l81 121h97l-31 -52q75 -17 75 -78q0 -49 -45.5 -80t-128.5 -31z" />
    <glyph glyph-name="uni0328" unicode="&#x328;" 
d="M243 -223q-62 0 -99 27t-37 73q0 39 24.5 70t63 53.5t81.5 34.5l71 -35q-46 -19 -77 -44t-31 -53q0 -33 37 -33q30 0 60 30l38 -73q-21 -23 -56.5 -36.5t-74.5 -13.5z" />
    <glyph glyph-name="uni032E" unicode="&#x32e;" 
d="M304 -57h101q-19 -89 -73 -133t-128 -44q-83 0 -126.5 47t-35.5 130h97q0 -76 73 -76q34 0 56 19.5t36 56.5z" />
    <glyph glyph-name="uni0331" unicode="&#x331;" 
d="M35 -85h344l-18 -103h-344z" />
    <glyph glyph-name="uni0335" unicode="&#x335;" 
d="M72 352l19 108h403l-19 -108h-403z" />
    <glyph glyph-name="uni0336" unicode="&#x336;" 
d="M-96 349l21 114h730l-20 -114h-731z" />
    <glyph glyph-name="uni0337" unicode="&#x337;" 
d="M149 202l-48 84l305 171l49 -84z" />
    <glyph glyph-name="uni0338" unicode="&#x338;" 
d="M122 -15l-79 74l57 59l80 69l207 212l51 66l57 59l80 -74l-57 -59l-81 -69l-207 -212l-51 -66z" />
    <glyph glyph-name="uni0394" unicode="&#x394;" horiz-adv-x="600" 
d="M-31 0l350 710h137l85 -710h-572zM192 136h189l-30 349z" />
    <glyph glyph-name="uni03A9" unicode="&#x3a9;" horiz-adv-x="814" 
d="M491 720q90 0 155.5 -34.5t102 -95.5t36.5 -142q0 -101 -42.5 -180t-121.5 -139h139l-23 -129h-328l17 101q88 61 137.5 140t49.5 176q0 74 -40 116t-106 42q-72 0 -124 -38.5t-80.5 -102t-28.5 -138.5q0 -65 25.5 -111.5t72.5 -83.5l-17 -101h-328l23 129h134
q-74 71 -74 184q0 85 33 159t90.5 129.5t134 87t163.5 31.5z" />
    <glyph glyph-name="pi" unicode="&#x3c0;" horiz-adv-x="681" 
d="M15 0q48 104 79 193.5t51 187.5h-114l23 127h624l-23 -127h-114l-33 -187q-13 -72 51 -72q38 0 74 22l23 -115q-26 -19 -64.5 -29t-83.5 -10q-87 0 -128 50t-26 137l36 204h-95q-21 -106 -49 -195.5t-71 -185.5h-160z" />
    <glyph glyph-name="uni1E08" unicode="&#x1e08;" horiz-adv-x="680" 
d="M674 139q-52 -75 -136 -112t-179 -37t-165 34t-109 97t-39 151q0 95 33.5 177t92.5 142.5t138.5 94.5t172.5 34q95 0 162 -36t99 -109l-139 -89q-17 46 -56.5 67.5t-87.5 21.5q-70 0 -126 -37.5t-89 -101.5t-33 -144q0 -74 43 -115.5t121 -41.5q50 0 101 23t90 76z
M294 -223q-31 0 -67.5 6.5t-55.5 16.5l40 75q17 -7 43 -12t49 -5q42 0 42 24q0 7 -7 11t-27 4h-65l81 121h97l-31 -52q75 -17 75 -78q0 -49 -45.5 -80t-128.5 -31zM414 774l154 177l153 -39l-169 -138h-138z" />
    <glyph glyph-name="uni1E09" unicode="&#x1e09;" horiz-adv-x="497" 
d="M255 -10q-107 0 -167.5 54.5t-60.5 148.5q0 69 24 128t67 103t101 68.5t126 24.5t115 -26t72 -81l-123 -82q-9 29 -29.5 42t-51.5 13q-40 0 -72 -22.5t-50.5 -61.5t-18.5 -87q0 -89 93 -88q63 0 105 56l92 -86q-74 -104 -222 -104zM183 -223q-31 0 -67.5 6.5t-55.5 16.5
l40 75q17 -7 43 -12t49 -5q42 0 42 24q0 7 -7 11t-27 4h-65l81 121h97l-31 -52q75 -17 75 -78q0 -49 -45.5 -80t-128.5 -31zM266 573l154 177l153 -38l-169 -139h-138z" />
    <glyph glyph-name="uni1E0C" unicode="&#x1e0c;" horiz-adv-x="757" 
d="M22 0l125 710h223q182 0 278 -76.5t96 -215.5q0 -93 -32.5 -169.5t-91 -132t-139 -86t-176.5 -30.5h-283zM212 145h108q124 0 191 68.5t67 186.5q0 82 -51.5 123.5t-159.5 41.5h-82zM305 -238q-44 0 -69.5 26.5t-25.5 63.5q0 38 25.5 64.5t70.5 26.5q44 0 70 -26.5
t26 -64.5q0 -37 -26 -63.5t-71 -26.5z" />
    <glyph glyph-name="uni1E0D" unicode="&#x1e0d;" horiz-adv-x="618" 
d="M215 -10q-87 0 -137.5 52.5t-50.5 143.5q0 71 23.5 131.5t66 105t100 69.5t124.5 25q63 0 108 -22l2 14l41 231h153l-100 -566q-9 -50 -13.5 -95t-4.5 -79h-151q0 22 3 46t8 47q-65 -103 -172 -103zM267 123q54 0 93.5 49.5t53.5 134.5l10 54q-28 25 -79 25
q-71 0 -115 -49t-44 -127q0 -87 81 -87zM251 -238q-44 0 -69.5 26.5t-25.5 63.5q0 38 25.5 64.5t70.5 26.5q44 0 70 -26.5t26 -64.5q0 -37 -26 -63.5t-71 -26.5z" />
    <glyph glyph-name="uni1E0E" unicode="&#x1e0e;" horiz-adv-x="757" 
d="M22 0l125 710h223q182 0 278 -76.5t96 -215.5q0 -93 -32.5 -169.5t-91 -132t-139 -86t-176.5 -30.5h-283zM212 145h108q124 0 191 68.5t67 186.5q0 82 -51.5 123.5t-159.5 41.5h-82zM144 -85h344l-18 -103h-344z" />
    <glyph glyph-name="uni1E0F" unicode="&#x1e0f;" horiz-adv-x="618" 
d="M215 -10q-87 0 -137.5 52.5t-50.5 143.5q0 71 23.5 131.5t66 105t100 69.5t124.5 25q63 0 108 -22l2 14l41 231h153l-100 -566q-9 -50 -13.5 -95t-4.5 -79h-151q0 22 3 46t8 47q-65 -103 -172 -103zM267 123q54 0 93.5 49.5t53.5 134.5l10 54q-28 25 -79 25
q-71 0 -115 -49t-44 -127q0 -87 81 -87zM90 -85h344l-18 -103h-344z" />
    <glyph glyph-name="uni1E14" unicode="&#x1e14;" horiz-adv-x="579" 
d="M208 141h335l-35 -141h-486l125 710h487l-25 -141h-326l-25 -141h306l-25 -141h-306zM365 956l-120 139l167 39l92 -178h-139zM231 797l18 102h351l-18 -102h-351z" />
    <glyph glyph-name="uni1E15" unicode="&#x1e15;" horiz-adv-x="547" 
d="M266 -10q-72 0 -125.5 26t-83 74t-28.5 113q0 90 40.5 161t110 112t158.5 41q87 0 139.5 -41t52.5 -110q0 -70 -49 -112t-133 -48l-167 -12q5 -34 35 -53.5t79 -19.5q33 0 66 12.5t54 33.5l66 -93q-35 -40 -89.5 -62t-125.5 -22zM328 406q-49 0 -84 -29t-49 -79l133 9
q31 2 48.5 15.5t17.5 38.5q0 21 -17.5 33t-48.5 12zM309 755l-120 139l167 39l92 -178h-139zM175 596l18 102h351l-18 -102h-351z" />
    <glyph glyph-name="uni1E16" unicode="&#x1e16;" horiz-adv-x="579" 
d="M208 141h335l-35 -141h-486l125 710h487l-25 -141h-326l-25 -141h306l-25 -141h-306zM367 956l153 178l153 -39l-168 -139h-138zM231 797l18 102h351l-18 -102h-351z" />
    <glyph glyph-name="uni1E17" unicode="&#x1e17;" horiz-adv-x="547" 
d="M266 -10q-72 0 -125.5 26t-83 74t-28.5 113q0 90 40.5 161t110 112t158.5 41q87 0 139.5 -41t52.5 -110q0 -70 -49 -112t-133 -48l-167 -12q5 -34 35 -53.5t79 -19.5q33 0 66 12.5t54 33.5l66 -93q-35 -40 -89.5 -62t-125.5 -22zM328 406q-49 0 -84 -29t-49 -79l133 9
q31 2 48.5 15.5t17.5 38.5q0 21 -17.5 33t-48.5 12zM311 755l153 178l153 -39l-168 -139h-138zM175 596l18 102h351l-18 -102h-351z" />
    <glyph glyph-name="uni1E1C" unicode="&#x1e1c;" horiz-adv-x="579" 
d="M208 141h335l-35 -141h-486l125 710h487l-25 -141h-326l-25 -141h306l-25 -141h-306zM213 -223q-31 0 -67.5 6.5t-55.5 16.5l40 75q17 -7 43 -12t49 -5q42 0 42 24q0 7 -7 11t-27 4h-65l81 121h97l-31 -52q75 -17 75 -78q0 -49 -45.5 -80t-128.5 -31zM517 953l96 -12
q-12 -80 -67 -126t-128 -46q-83 0 -126 46t-41 126l100 12q-1 -83 69 -83q69 0 97 83z" />
    <glyph glyph-name="uni1E1D" unicode="&#x1e1d;" horiz-adv-x="547" 
d="M266 -10q-72 0 -125.5 26t-83 74t-28.5 113q0 90 40.5 161t110 112t158.5 41q87 0 139.5 -41t52.5 -110q0 -70 -49 -112t-133 -48l-167 -12q5 -34 35 -53.5t79 -19.5q33 0 66 12.5t54 33.5l66 -93q-35 -40 -89.5 -62t-125.5 -22zM328 406q-49 0 -84 -29t-49 -79l133 9
q31 2 48.5 15.5t17.5 38.5q0 21 -17.5 33t-48.5 12zM192 -223q-31 0 -67.5 6.5t-55.5 16.5l40 75q17 -7 43 -12t49 -5q42 0 42 24q0 7 -7 11t-27 4h-65l81 121h97l-31 -52q75 -17 75 -78q0 -49 -45.5 -80t-128.5 -31zM461 752l96 -12q-12 -79 -67 -125.5t-128 -46.5
q-83 0 -126 46.5t-41 125.5l100 12q-1 -83 69 -83q69 0 97 83z" />
    <glyph glyph-name="uni1E20" unicode="&#x1e20;" horiz-adv-x="768" 
d="M442 386h302l-67 -386h-130v51q-41 -33 -89.5 -47t-102.5 -14q-93 0 -162.5 34.5t-108 97.5t-38.5 150q0 95 33.5 177t94 142.5t142 94.5t177.5 34q60 0 115 -15.5t98.5 -47t67.5 -80.5l-141 -91q-20 41 -64 65t-98 24q-73 0 -131.5 -37.5t-92.5 -101.5t-34 -144
q0 -74 42.5 -115.5t121.5 -41.5q68 0 120 30t67 88h-145zM333 899h344l-18 -102h-344z" />
    <glyph glyph-name="uni1E21" unicode="&#x1e21;" horiz-adv-x="622" 
d="M180 -210q-59 0 -111 11.5t-81 30.5l53 130q68 -38 154 -38q80 0 123 36t63 121l7 28q-65 -99 -172 -99q-87 0 -137.5 50t-50.5 139q0 68 23.5 126t66.5 101t100.5 67t125.5 24q90 0 146 -43l17 33h104q-7 -36 -17 -83.5t-19 -98.5l-39 -226q-28 -158 -116 -233.5
t-240 -75.5zM268 143q55 0 96 45t54 123l10 52q-29 23 -81 23q-70 0 -115 -45.5t-45 -116.5q0 -81 81 -81zM227 698h344l-18 -102h-344z" />
    <glyph glyph-name="uni1E24" unicode="&#x1e24;" horiz-adv-x="758" 
d="M22 0l125 710h163l-49 -281h297l49 281h164l-125 -710h-164l51 286h-297l-51 -286h-163zM308 -238q-44 0 -69.5 26.5t-25.5 63.5q0 38 25.5 64.5t70.5 26.5q44 0 70 -26.5t26 -64.5q0 -37 -26 -63.5t-71 -26.5z" />
    <glyph glyph-name="uni1E25" unicode="&#x1e25;" horiz-adv-x="623" 
d="M14 0l130 740h153l-41 -231l-29 -119q39 61 91.5 94t117.5 33q89 0 128 -60t14 -169l-34 -148q-7 -36 -10.5 -70.5t-3.5 -69.5h-156q0 66 15 132l35 153q10 45 -2.5 67.5t-45.5 22.5q-43 0 -81.5 -34t-70.5 -116t-57 -225h-153zM244 -238q-44 0 -69.5 26.5t-25.5 63.5
q0 38 25.5 64.5t70.5 26.5q44 0 70 -26.5t26 -64.5q0 -37 -26 -63.5t-71 -26.5z" />
    <glyph glyph-name="uni1E2A" unicode="&#x1e2a;" horiz-adv-x="758" 
d="M22 0l125 710h163l-49 -281h297l49 281h164l-125 -710h-164l51 286h-297l-51 -286h-163zM405 -57h101q-19 -89 -73 -133t-128 -44q-83 0 -126.5 47t-35.5 130h97q0 -76 73 -76q34 0 56 19.5t36 56.5z" />
    <glyph glyph-name="uni1E2B" unicode="&#x1e2b;" horiz-adv-x="623" 
d="M14 0l130 740h153l-41 -231l-29 -119q39 61 91.5 94t117.5 33q89 0 128 -60t14 -169l-34 -148q-7 -36 -10.5 -70.5t-3.5 -69.5h-156q0 66 15 132l35 153q10 45 -2.5 67.5t-45.5 22.5q-43 0 -81.5 -34t-70.5 -116t-57 -225h-153zM341 -57h101q-19 -89 -73 -133t-128 -44
q-83 0 -126.5 47t-35.5 130h97q0 -76 73 -76q34 0 56 19.5t36 56.5z" />
    <glyph glyph-name="uni1E2E" unicode="&#x1e2e;" horiz-adv-x="297" 
d="M22 0l125 710h163l-125 -710h-163zM203 957l153 177l153 -39l-168 -138h-138zM147 769q-43 0 -65.5 26t-22.5 55q0 31 22.5 56t65.5 25q40 0 62.5 -25t22.5 -56q0 -29 -22.5 -55t-62.5 -26zM358 769q-43 0 -65 26t-22 55q0 31 22 56t65 25q41 0 63.5 -25t22.5 -56
q0 -29 -22.5 -55t-63.5 -26z" />
    <glyph glyph-name="uni1E2F" unicode="&#x1e2f;" horiz-adv-x="270" 
d="M21 0q0 32 5 66t11 66l36 208q10 57 15.5 95.5t8.5 73.5h154q-3 -41 -10 -86t-14 -87l-35 -196q-6 -36 -11 -70.5t-5 -69.5h-155zM149 756l153 177l153 -39l-168 -138h-138zM93 568q-43 0 -65.5 26t-22.5 55q0 31 22.5 56t65.5 25q40 0 62.5 -25t22.5 -56
q0 -29 -22.5 -55t-62.5 -26zM304 568q-43 0 -65 26t-22 55q0 31 22 56t65 25q41 0 63.5 -25t22.5 -56q0 -29 -22.5 -55t-63.5 -26z" />
    <glyph glyph-name="uni1E36" unicode="&#x1e36;" horiz-adv-x="532" 
d="M22 0l125 710h163l-99 -567h306l-35 -143h-460zM226 -238q-44 0 -69.5 26.5t-25.5 63.5q0 38 25.5 64.5t70.5 26.5q44 0 70 -26.5t26 -64.5q0 -37 -26 -63.5t-71 -26.5z" />
    <glyph glyph-name="uni1E37" unicode="&#x1e37;" horiz-adv-x="309" 
d="M172 -10q-77 0 -110.5 46t-20.5 120l103 584h153l-101 -573q-9 -46 35 -46q23 0 41 11l18 -109q-20 -16 -51.5 -24.5t-66.5 -8.5zM74 -238q-44 0 -69.5 26.5t-25.5 63.5q0 38 25.5 64.5t70.5 26.5q44 0 70 -26.5t26 -64.5q0 -37 -26 -63.5t-71 -26.5z" />
    <glyph glyph-name="uni1E3A" unicode="&#x1e3a;" horiz-adv-x="532" 
d="M22 0l125 710h163l-99 -567h306l-35 -143h-460zM66 -85h344l-18 -103h-344z" />
    <glyph glyph-name="uni1E3B" unicode="&#x1e3b;" horiz-adv-x="309" 
d="M172 -10q-77 0 -110.5 46t-20.5 120l103 584h153l-101 -573q-9 -46 35 -46q23 0 41 11l18 -109q-20 -16 -51.5 -24.5t-66.5 -8.5zM-86 -85h344l-18 -103h-344z" />
    <glyph glyph-name="uni1E42" unicode="&#x1e42;" horiz-adv-x="946" 
d="M20 0l150 710h138l153 -505l343 505h137l-107 -710h-158l55 360l-248 -360h-118l-114 377l-80 -377h-151zM398 -238q-44 0 -69.5 26.5t-25.5 63.5q0 38 25.5 64.5t70.5 26.5q44 0 70 -26.5t26 -64.5q0 -37 -26 -63.5t-71 -26.5z" />
    <glyph glyph-name="uni1E43" unicode="&#x1e43;" horiz-adv-x="968" 
d="M14 0l60 340q10 57 15.5 95.5t9.5 73.5h151q-4 -58 -25 -125q39 65 91.5 99t116.5 34q60 0 97.5 -29.5t47.5 -85.5q40 56 92.5 85.5t114.5 29.5q87 0 125.5 -60t13.5 -169l-33 -148q-8 -36 -11.5 -70.5t-3.5 -69.5h-156q0 66 16 132l34 153q11 45 -1.5 67.5t-42.5 22.5
q-41 0 -78.5 -34t-70 -116t-57.5 -225h-153l50 285q16 90 -44 90q-41 0 -78.5 -34t-69.5 -116t-57 -225h-154zM418 -238q-44 0 -69.5 26.5t-25.5 63.5q0 38 25.5 64.5t70.5 26.5q44 0 70 -26.5t26 -64.5q0 -37 -26 -63.5t-71 -26.5z" />
    <glyph glyph-name="uni1E44" unicode="&#x1e44;" horiz-adv-x="751" 
d="M607 710h157l-125 -710h-145l-236 452l-79 -452h-157l125 710h145l236 -452zM481 768q-44 0 -69.5 27t-25.5 64q0 38 26 64.5t70 26.5q45 0 70.5 -26.5t25.5 -64.5q0 -37 -26 -64t-71 -27z" />
    <glyph glyph-name="uni1E45" unicode="&#x1e45;" horiz-adv-x="623" 
d="M14 0l60 340q9 57 15 95.5t9 73.5h151q-4 -59 -25 -125q39 64 92.5 98.5t119.5 34.5q89 0 128 -60t14 -169l-34 -148q-7 -36 -10.5 -70.5t-3.5 -69.5h-156q0 66 15 132l35 153q10 45 -2.5 67.5t-45.5 22.5q-43 0 -81.5 -34t-70.5 -116t-57 -225h-153zM384 566
q-44 0 -69.5 26.5t-25.5 63.5q0 38 26 64.5t70 26.5q45 0 70.5 -26.5t25.5 -64.5q0 -37 -26 -63.5t-71 -26.5z" />
    <glyph glyph-name="uni1E46" unicode="&#x1e46;" horiz-adv-x="751" 
d="M607 710h157l-125 -710h-145l-236 452l-79 -452h-157l125 710h145l236 -452zM304 -238q-44 0 -69.5 26.5t-25.5 63.5q0 38 25.5 64.5t70.5 26.5q44 0 70 -26.5t26 -64.5q0 -37 -26 -63.5t-71 -26.5z" />
    <glyph glyph-name="uni1E47" unicode="&#x1e47;" horiz-adv-x="623" 
d="M14 0l60 340q9 57 15 95.5t9 73.5h151q-4 -59 -25 -125q39 64 92.5 98.5t119.5 34.5q89 0 128 -60t14 -169l-34 -148q-7 -36 -10.5 -70.5t-3.5 -69.5h-156q0 66 15 132l35 153q10 45 -2.5 67.5t-45.5 22.5q-43 0 -81.5 -34t-70.5 -116t-57 -225h-153zM243 -238
q-44 0 -69.5 26.5t-25.5 63.5q0 38 25.5 64.5t70.5 26.5q44 0 70 -26.5t26 -64.5q0 -37 -26 -63.5t-71 -26.5z" />
    <glyph glyph-name="uni1E48" unicode="&#x1e48;" horiz-adv-x="751" 
d="M607 710h157l-125 -710h-145l-236 452l-79 -452h-157l125 710h145l236 -452zM144 -85h344l-18 -103h-344z" />
    <glyph glyph-name="uni1E49" unicode="&#x1e49;" horiz-adv-x="623" 
d="M14 0l60 340q9 57 15 95.5t9 73.5h151q-4 -59 -25 -125q39 64 92.5 98.5t119.5 34.5q89 0 128 -60t14 -169l-34 -148q-7 -36 -10.5 -70.5t-3.5 -69.5h-156q0 66 15 132l35 153q10 45 -2.5 67.5t-45.5 22.5q-43 0 -81.5 -34t-70.5 -116t-57 -225h-153zM83 -85h344
l-18 -103h-344z" />
    <glyph glyph-name="uni1E4C" unicode="&#x1e4c;" horiz-adv-x="781" 
d="M353 -10q-93 0 -162 34t-107 97t-38 151q0 95 33 177t91.5 142.5t137 94.5t171.5 34q88 0 153.5 -35t101.5 -99t36 -151q0 -93 -32 -174t-89 -142t-133 -95t-163 -34zM371 135q66 0 118.5 37.5t83 101.5t30.5 144q0 73 -39.5 115t-108.5 42t-123.5 -37.5t-86.5 -101.5
t-32 -144q0 -74 41.5 -115.5t116.5 -41.5zM447 956l154 178l153 -39l-169 -139h-138zM563 768q-29 0 -57.5 13t-54.5 26.5t-47 13.5q-14 0 -33.5 -11.5t-34.5 -33.5l-52 50q23 54 61.5 81t85.5 27q28 0 57 -13.5t55 -26.5t46 -13q18 0 36.5 11t32.5 35l52 -50
q-23 -54 -62 -81.5t-85 -27.5z" />
    <glyph glyph-name="uni1E4D" unicode="&#x1e4d;" horiz-adv-x="596" 
d="M351 517q99 0 158 -53.5t59 -148.5q0 -68 -24 -127t-67.5 -103.5t-102 -69.5t-128.5 -25q-101 0 -160 53.5t-59 147.5q0 66 22.5 124.5t65.5 104t102.5 71.5t133.5 26zM271 123q38 0 69.5 23t50.5 62t19 87q0 43 -22 66t-62 23q-43 0 -74.5 -25t-48.5 -64t-17 -83
q0 -42 21.5 -65.5t63.5 -23.5zM318 755l154 178l153 -39l-169 -139h-138zM434 567q-29 0 -57.5 13t-54.5 26.5t-47 13.5q-14 0 -33.5 -11.5t-34.5 -33.5l-52 50q23 54 61.5 81t85.5 27q28 0 57 -13.5t55 -26.5t46 -13q18 0 36.5 11t32.5 35l52 -50q-23 -54 -62 -81.5
t-85 -27.5z" />
    <glyph glyph-name="uni1E4E" unicode="&#x1e4e;" horiz-adv-x="781" 
d="M353 -10q-93 0 -162 34t-107 97t-38 151q0 95 33 177t91.5 142.5t137 94.5t171.5 34q88 0 153.5 -35t101.5 -99t36 -151q0 -93 -32 -174t-89 -142t-133 -95t-163 -34zM371 135q66 0 118.5 37.5t83 101.5t30.5 144q0 73 -39.5 115t-108.5 42t-123.5 -37.5t-86.5 -101.5
t-32 -144q0 -74 41.5 -115.5t116.5 -41.5zM428 974q-43 0 -65 26t-22 55q0 31 22 56.5t65 25.5q41 0 63.5 -25.5t22.5 -56.5q0 -29 -22.5 -55t-63.5 -26zM640 974q-43 0 -65.5 26t-22.5 55q0 31 22.5 56.5t65.5 25.5q40 0 62.5 -25.5t22.5 -56.5q0 -29 -22 -55t-63 -26z
M563 768q-29 0 -57.5 13t-54.5 26.5t-47 13.5q-14 0 -33.5 -11.5t-34.5 -33.5l-52 50q23 54 61.5 81t85.5 27q28 0 57 -13.5t55 -26.5t46 -13q18 0 36.5 11t32.5 35l52 -50q-23 -54 -62 -81.5t-85 -27.5z" />
    <glyph glyph-name="uni1E4F" unicode="&#x1e4f;" horiz-adv-x="596" 
d="M351 517q99 0 158 -53.5t59 -148.5q0 -68 -24 -127t-67.5 -103.5t-102 -69.5t-128.5 -25q-101 0 -160 53.5t-59 147.5q0 66 22.5 124.5t65.5 104t102.5 71.5t133.5 26zM271 123q38 0 69.5 23t50.5 62t19 87q0 43 -22 66t-62 23q-43 0 -74.5 -25t-48.5 -64t-17 -83
q0 -42 21.5 -65.5t63.5 -23.5zM299 773q-43 0 -65 26t-22 55q0 31 22 56.5t65 25.5q41 0 63.5 -25.5t22.5 -56.5q0 -29 -22.5 -55t-63.5 -26zM511 773q-43 0 -65.5 26t-22.5 55q0 31 22.5 56.5t65.5 25.5q40 0 62.5 -25.5t22.5 -56.5q0 -29 -22 -55t-63 -26zM434 567
q-29 0 -57.5 13t-54.5 26.5t-47 13.5q-14 0 -33.5 -11.5t-34.5 -33.5l-52 50q23 54 61.5 81t85.5 27q28 0 57 -13.5t55 -26.5t46 -13q18 0 36.5 11t32.5 35l52 -50q-23 -54 -62 -81.5t-85 -27.5z" />
    <glyph glyph-name="uni1E50" unicode="&#x1e50;" horiz-adv-x="781" 
d="M353 -10q-93 0 -162 34t-107 97t-38 151q0 95 33 177t91.5 142.5t137 94.5t171.5 34q88 0 153.5 -35t101.5 -99t36 -151q0 -93 -32 -174t-89 -142t-133 -95t-163 -34zM371 135q66 0 118.5 37.5t83 101.5t30.5 144q0 73 -39.5 115t-108.5 42t-123.5 -37.5t-86.5 -101.5
t-32 -144q0 -74 41.5 -115.5t116.5 -41.5zM446 956l-120 139l167 39l92 -178h-139zM312 797l18 102h351l-18 -102h-351z" />
    <glyph glyph-name="uni1E51" unicode="&#x1e51;" horiz-adv-x="596" 
d="M351 517q99 0 158 -53.5t59 -148.5q0 -68 -24 -127t-67.5 -103.5t-102 -69.5t-128.5 -25q-101 0 -160 53.5t-59 147.5q0 66 22.5 124.5t65.5 104t102.5 71.5t133.5 26zM271 123q38 0 69.5 23t50.5 62t19 87q0 43 -22 66t-62 23q-43 0 -74.5 -25t-48.5 -64t-17 -83
q0 -42 21.5 -65.5t63.5 -23.5zM317 755l-120 139l167 39l92 -178h-139zM183 596l18 102h351l-18 -102h-351z" />
    <glyph glyph-name="uni1E52" unicode="&#x1e52;" horiz-adv-x="781" 
d="M353 -10q-93 0 -162 34t-107 97t-38 151q0 95 33 177t91.5 142.5t137 94.5t171.5 34q88 0 153.5 -35t101.5 -99t36 -151q0 -93 -32 -174t-89 -142t-133 -95t-163 -34zM371 135q66 0 118.5 37.5t83 101.5t30.5 144q0 73 -39.5 115t-108.5 42t-123.5 -37.5t-86.5 -101.5
t-32 -144q0 -74 41.5 -115.5t116.5 -41.5zM448 956l153 178l153 -39l-168 -139h-138zM312 797l18 102h351l-18 -102h-351z" />
    <glyph glyph-name="uni1E53" unicode="&#x1e53;" horiz-adv-x="596" 
d="M351 517q99 0 158 -53.5t59 -148.5q0 -68 -24 -127t-67.5 -103.5t-102 -69.5t-128.5 -25q-101 0 -160 53.5t-59 147.5q0 66 22.5 124.5t65.5 104t102.5 71.5t133.5 26zM271 123q38 0 69.5 23t50.5 62t19 87q0 43 -22 66t-62 23q-43 0 -74.5 -25t-48.5 -64t-17 -83
q0 -42 21.5 -65.5t63.5 -23.5zM319 755l153 178l153 -39l-168 -139h-138zM183 596l18 102h351l-18 -102h-351z" />
    <glyph glyph-name="uni1E5A" unicode="&#x1e5a;" horiz-adv-x="656" 
d="M637 153l20 -126q-25 -18 -60 -27.5t-69 -9.5q-68 0 -112 26.5t-67 79.5l-60 134q-11 24 -25 33.5t-33 10.5l-49 -274h-160l125 710h223q135 0 201.5 -47.5t66.5 -138.5q0 -98 -60 -160.5t-157 -79.5q28 -15 45 -51l25 -52q12 -25 31 -36.5t44 -11.5q22 0 39.5 4.5
t31.5 15.5zM340 577h-56l-31 -176h73q76 0 111.5 25.5t35.5 74.5q0 41 -33.5 58.5t-99.5 17.5zM272 -238q-44 0 -69.5 26.5t-25.5 63.5q0 38 25.5 64.5t70.5 26.5q44 0 70 -26.5t26 -64.5q0 -37 -26 -63.5t-71 -26.5z" />
    <glyph glyph-name="uni1E5B" unicode="&#x1e5b;" horiz-adv-x="427" 
d="M427 361q-19 8 -48 8q-54 0 -92.5 -36.5t-67 -118t-51.5 -214.5h-153l60 340q10 57 15.5 95.5t8.5 73.5h152q-2 -25 -8.5 -58t-15.5 -68q39 72 90 103t103 31q17 0 31.5 -2t28.5 -7zM66 -238q-44 0 -69.5 26.5t-25.5 63.5q0 38 25.5 64.5t70.5 26.5q44 0 70 -26.5
t26 -64.5q0 -37 -26 -63.5t-71 -26.5z" />
    <glyph glyph-name="uni1E5E" unicode="&#x1e5e;" horiz-adv-x="656" 
d="M637 153l20 -126q-25 -18 -60 -27.5t-69 -9.5q-68 0 -112 26.5t-67 79.5l-60 134q-11 24 -25 33.5t-33 10.5l-49 -274h-160l125 710h223q135 0 201.5 -47.5t66.5 -138.5q0 -98 -60 -160.5t-157 -79.5q28 -15 45 -51l25 -52q12 -25 31 -36.5t44 -11.5q22 0 39.5 4.5
t31.5 15.5zM340 577h-56l-31 -176h73q76 0 111.5 25.5t35.5 74.5q0 41 -33.5 58.5t-99.5 17.5zM111 -85h344l-18 -103h-344z" />
    <glyph glyph-name="uni1E5F" unicode="&#x1e5f;" horiz-adv-x="427" 
d="M427 361q-19 8 -48 8q-54 0 -92.5 -36.5t-67 -118t-51.5 -214.5h-153l60 340q10 57 15.5 95.5t8.5 73.5h152q-2 -25 -8.5 -58t-15.5 -68q39 72 90 103t103 31q17 0 31.5 -2t28.5 -7zM-95 -85h344l-18 -103h-344z" />
    <glyph glyph-name="uni1E60" unicode="&#x1e60;" horiz-adv-x="599" 
d="M262 -9q-124 0 -193.5 57.5t-63.5 163.5l156 22q-3 -52 28 -79.5t96 -27.5q57 0 87.5 21.5t30.5 55.5q0 26 -22 41t-56.5 26t-73.5 23.5t-74 33.5t-57 56t-22 92q0 73 39 128t106 85.5t150 30.5q105 0 167 -53.5t60 -144.5l-149 -24q0 41 -25 63.5t-68 22.5
q-53 0 -82.5 -24.5t-29.5 -58.5q0 -30 22 -46.5t57 -27.5t74 -23t74 -31.5t57 -52t22 -86.5q0 -77 -41.5 -131.5t-112 -83t-156.5 -28.5zM413 766q-44 0 -69.5 27t-25.5 64q0 38 26 64.5t70 26.5q45 0 70.5 -26.5t25.5 -64.5q0 -37 -26 -64t-71 -27z" />
    <glyph glyph-name="uni1E61" unicode="&#x1e61;" horiz-adv-x="485" 
d="M212 -10q-104 0 -160 41.5t-61 109.5l133 32q0 -31 25.5 -47.5t69.5 -16.5q39 0 60 10t21 29q0 16 -17.5 25t-45.5 15t-59 14.5t-59 23.5t-45.5 41t-17.5 68q0 59 33 99.5t86.5 61.5t115.5 21q81 0 133 -39t59 -96l-131 -34q-6 50 -74 50q-31 0 -51 -11t-20 -30
q0 -17 17.5 -26t45 -16t58.5 -15.5t58.5 -23t45 -40t17.5 -66.5q0 -60 -33 -100t-87.5 -60t-116.5 -20zM319 566q-44 0 -69.5 26.5t-25.5 63.5q0 38 26 64.5t70 26.5q45 0 70.5 -26.5t25.5 -64.5q0 -37 -26 -63.5t-71 -26.5z" />
    <glyph glyph-name="uni1E62" unicode="&#x1e62;" horiz-adv-x="599" 
d="M262 -9q-124 0 -193.5 57.5t-63.5 163.5l156 22q-3 -52 28 -79.5t96 -27.5q57 0 87.5 21.5t30.5 55.5q0 26 -22 41t-56.5 26t-73.5 23.5t-74 33.5t-57 56t-22 92q0 73 39 128t106 85.5t150 30.5q105 0 167 -53.5t60 -144.5l-149 -24q0 41 -25 63.5t-68 22.5
q-53 0 -82.5 -24.5t-29.5 -58.5q0 -30 22 -46.5t57 -27.5t74 -23t74 -31.5t57 -52t22 -86.5q0 -77 -41.5 -131.5t-112 -83t-156.5 -28.5zM236 -238q-44 0 -69.5 26.5t-25.5 63.5q0 38 25.5 64.5t70.5 26.5q44 0 70 -26.5t26 -64.5q0 -37 -26 -63.5t-71 -26.5z" />
    <glyph glyph-name="uni1E63" unicode="&#x1e63;" horiz-adv-x="485" 
d="M212 -10q-104 0 -160 41.5t-61 109.5l133 32q0 -31 25.5 -47.5t69.5 -16.5q39 0 60 10t21 29q0 16 -17.5 25t-45.5 15t-59 14.5t-59 23.5t-45.5 41t-17.5 68q0 59 33 99.5t86.5 61.5t115.5 21q81 0 133 -39t59 -96l-131 -34q-6 50 -74 50q-31 0 -51 -11t-20 -30
q0 -17 17.5 -26t45 -16t58.5 -15.5t58.5 -23t45 -40t17.5 -66.5q0 -60 -33 -100t-87.5 -60t-116.5 -20zM194 -238q-44 0 -69.5 26.5t-25.5 63.5q0 38 25.5 64.5t70.5 26.5q44 0 70 -26.5t26 -64.5q0 -37 -26 -63.5t-71 -26.5z" />
    <glyph glyph-name="uni1E64" unicode="&#x1e64;" horiz-adv-x="599" 
d="M262 -9q-124 0 -193.5 57.5t-63.5 163.5l156 22q-3 -52 28 -79.5t96 -27.5q57 0 87.5 21.5t30.5 55.5q0 26 -22 41t-56.5 26t-73.5 23.5t-74 33.5t-57 56t-22 92q0 73 39 128t106 85.5t150 30.5q105 0 167 -53.5t60 -144.5l-149 -24q0 41 -25 63.5t-68 22.5
q-53 0 -82.5 -24.5t-29.5 -58.5q0 -30 22 -46.5t57 -27.5t74 -23t74 -31.5t57 -52t22 -86.5q0 -77 -41.5 -131.5t-112 -83t-156.5 -28.5zM412 933q-45 0 -70.5 26.5t-25.5 64.5q0 37 26 63.5t70 26.5q45 0 70.5 -26.5t25.5 -63.5q0 -38 -26 -64.5t-70 -26.5zM362 774
l154 177l153 -39l-169 -138h-138z" />
    <glyph glyph-name="uni1E65" unicode="&#x1e65;" horiz-adv-x="485" 
d="M212 -10q-104 0 -160 41.5t-61 109.5l133 32q0 -31 25.5 -47.5t69.5 -16.5q39 0 60 10t21 29q0 16 -17.5 25t-45.5 15t-59 14.5t-59 23.5t-45.5 41t-17.5 68q0 59 33 99.5t86.5 61.5t115.5 21q81 0 133 -39t59 -96l-131 -34q-6 50 -74 50q-31 0 -51 -11t-20 -30
q0 -17 17.5 -26t45 -16t58.5 -15.5t58.5 -23t45 -40t17.5 -66.5q0 -60 -33 -100t-87.5 -60t-116.5 -20zM318 732q-45 0 -70.5 26.5t-25.5 64.5q0 37 26 63.5t70 26.5q45 0 70.5 -26.5t25.5 -63.5q0 -38 -26 -64.5t-70 -26.5zM268 573l154 177l153 -38l-169 -139h-138z" />
    <glyph glyph-name="uni1E66" unicode="&#x1e66;" horiz-adv-x="599" 
d="M262 -9q-124 0 -193.5 57.5t-63.5 163.5l156 22q-3 -52 28 -79.5t96 -27.5q57 0 87.5 21.5t30.5 55.5q0 26 -22 41t-56.5 26t-73.5 23.5t-74 33.5t-57 56t-22 92q0 73 39 128t106 85.5t150 30.5q105 0 167 -53.5t60 -144.5l-149 -24q0 41 -25 63.5t-68 22.5
q-53 0 -82.5 -24.5t-29.5 -58.5q0 -30 22 -46.5t57 -27.5t74 -23t74 -31.5t57 -52t22 -86.5q0 -77 -41.5 -131.5t-112 -83t-156.5 -28.5zM447 954q-45 0 -70 27t-25 64q0 38 25.5 64.5t69.5 26.5q45 0 70.5 -26.5t25.5 -64.5q0 -37 -26 -64t-70 -27zM336 774l-103 167
l132 10l47 -84l77 84l136 -10l-163 -167h-126z" />
    <glyph glyph-name="uni1E67" unicode="&#x1e67;" horiz-adv-x="485" 
d="M212 -10q-104 0 -160 41.5t-61 109.5l133 32q0 -31 25.5 -47.5t69.5 -16.5q39 0 60 10t21 29q0 16 -17.5 25t-45.5 15t-59 14.5t-59 23.5t-45.5 41t-17.5 68q0 59 33 99.5t86.5 61.5t115.5 21q81 0 133 -39t59 -96l-131 -34q-6 50 -74 50q-31 0 -51 -11t-20 -30
q0 -17 17.5 -26t45 -16t58.5 -15.5t58.5 -23t45 -40t17.5 -66.5q0 -60 -33 -100t-87.5 -60t-116.5 -20zM353 754q-45 0 -70 26.5t-25 63.5q0 38 25.5 64.5t69.5 26.5q45 0 70.5 -26.5t25.5 -64.5q0 -37 -26 -63.5t-70 -26.5zM242 573l-103 167l132 10l47 -84l77 84l136 -10
l-163 -167h-126z" />
    <glyph glyph-name="uni1E68" unicode="&#x1e68;" horiz-adv-x="599" 
d="M262 -9q-124 0 -193.5 57.5t-63.5 163.5l156 22q-3 -52 28 -79.5t96 -27.5q57 0 87.5 21.5t30.5 55.5q0 26 -22 41t-56.5 26t-73.5 23.5t-74 33.5t-57 56t-22 92q0 73 39 128t106 85.5t150 30.5q105 0 167 -53.5t60 -144.5l-149 -24q0 41 -25 63.5t-68 22.5
q-53 0 -82.5 -24.5t-29.5 -58.5q0 -30 22 -46.5t57 -27.5t74 -23t74 -31.5t57 -52t22 -86.5q0 -77 -41.5 -131.5t-112 -83t-156.5 -28.5zM236 -238q-44 0 -69.5 26.5t-25.5 63.5q0 38 25.5 64.5t70.5 26.5q44 0 70 -26.5t26 -64.5q0 -37 -26 -63.5t-71 -26.5zM413 766
q-44 0 -69.5 27t-25.5 64q0 38 26 64.5t70 26.5q45 0 70.5 -26.5t25.5 -64.5q0 -37 -26 -64t-71 -27z" />
    <glyph glyph-name="uni1E69" unicode="&#x1e69;" horiz-adv-x="485" 
d="M212 -10q-104 0 -160 41.5t-61 109.5l133 32q0 -31 25.5 -47.5t69.5 -16.5q39 0 60 10t21 29q0 16 -17.5 25t-45.5 15t-59 14.5t-59 23.5t-45.5 41t-17.5 68q0 59 33 99.5t86.5 61.5t115.5 21q81 0 133 -39t59 -96l-131 -34q-6 50 -74 50q-31 0 -51 -11t-20 -30
q0 -17 17.5 -26t45 -16t58.5 -15.5t58.5 -23t45 -40t17.5 -66.5q0 -60 -33 -100t-87.5 -60t-116.5 -20zM194 -238q-44 0 -69.5 26.5t-25.5 63.5q0 38 25.5 64.5t70.5 26.5q44 0 70 -26.5t26 -64.5q0 -37 -26 -63.5t-71 -26.5zM319 566q-44 0 -69.5 26.5t-25.5 63.5
q0 38 26 64.5t70 26.5q45 0 70.5 -26.5t25.5 -64.5q0 -37 -26 -63.5t-71 -26.5z" />
    <glyph glyph-name="uni1E6C" unicode="&#x1e6c;" horiz-adv-x="592" 
d="M694 710l-47 -143h-214l-100 -567h-164l100 567h-225l25 143h625zM225 -238q-44 0 -69.5 26.5t-25.5 63.5q0 38 25.5 64.5t70.5 26.5q44 0 70 -26.5t26 -64.5q0 -37 -26 -63.5t-71 -26.5z" />
    <glyph glyph-name="uni1E6D" unicode="&#x1e6d;" horiz-adv-x="428" 
d="M250 -10q-64 0 -106.5 26t-60.5 72t-7 105l36 189h-84l22 127h87l20 104h152l-20 -104h159l-22 -127h-161l-36 -184q-15 -76 63 -76q46 0 89 27l24 -117q-26 -21 -66 -31.5t-89 -10.5zM195 -238q-44 0 -69.5 26.5t-25.5 63.5q0 38 25.5 64.5t70.5 26.5q44 0 70 -26.5
t26 -64.5q0 -37 -26 -63.5t-71 -26.5z" />
    <glyph glyph-name="uni1E6E" unicode="&#x1e6e;" horiz-adv-x="592" 
d="M694 710l-47 -143h-214l-100 -567h-164l100 567h-225l25 143h625zM64 -85h344l-18 -103h-344z" />
    <glyph glyph-name="uni1E6F" unicode="&#x1e6f;" horiz-adv-x="428" 
d="M250 -10q-64 0 -106.5 26t-60.5 72t-7 105l36 189h-84l22 127h87l20 104h152l-20 -104h159l-22 -127h-161l-36 -184q-15 -76 63 -76q46 0 89 27l24 -117q-26 -21 -66 -31.5t-89 -10.5zM34 -85h344l-18 -103h-344z" />
    <glyph glyph-name="uni1E78" unicode="&#x1e78;" horiz-adv-x="759" 
d="M613 710h161l-66 -386q-28 -163 -120 -248.5t-240 -85.5q-102 0 -169.5 37.5t-95.5 107.5t-11 166l72 409h164l-70 -396q-31 -179 127 -179q77 0 121.5 48.5t62.5 151.5zM435 956l154 178l153 -39l-169 -139h-138zM551 768q-29 0 -57.5 13t-54.5 26.5t-47 13.5
q-14 0 -33.5 -11.5t-34.5 -33.5l-52 50q23 54 61.5 81t85.5 27q28 0 57 -13.5t55 -26.5t46 -13q18 0 36.5 11t32.5 35l52 -50q-23 -54 -62 -81.5t-85 -27.5z" />
    <glyph glyph-name="uni1E79" unicode="&#x1e79;" horiz-adv-x="610" 
d="M185 -10q-88 0 -125 59t-16 168l22 123q11 57 16 95.5t8 73.5h154q-3 -41 -10 -86t-15 -87l-20 -107q-9 -45 2.5 -71t49.5 -26q35 0 70 34.5t67.5 116.5t59.5 226h149l-59 -335q-9 -50 -14 -95t-5 -79h-150q0 28 4.5 59t11.5 60q-78 -129 -200 -129zM325 755l154 178
l153 -39l-169 -139h-138zM441 567q-29 0 -57.5 13t-54.5 26.5t-47 13.5q-14 0 -33.5 -11.5t-34.5 -33.5l-52 50q23 54 61.5 81t85.5 27q28 0 57 -13.5t55 -26.5t46 -13q18 0 36.5 11t32.5 35l52 -50q-23 -54 -62 -81.5t-85 -27.5z" />
    <glyph glyph-name="uni1E7A" unicode="&#x1e7a;" horiz-adv-x="759" 
d="M613 710h161l-66 -386q-28 -163 -120 -248.5t-240 -85.5q-102 0 -169.5 37.5t-95.5 107.5t-11 166l72 409h164l-70 -396q-31 -179 127 -179q77 0 121.5 48.5t62.5 151.5zM410 937q-43 0 -65.5 25t-22.5 56q0 30 22 55.5t65 25.5q41 0 63.5 -25.5t22.5 -55.5
q0 -31 -22 -56t-63 -25zM622 937q-43 0 -66 25t-23 56q0 30 22.5 55.5t65.5 25.5q40 0 62.5 -25.5t22.5 -55.5q0 -31 -22 -56t-62 -25zM291 797l18 102h369l-18 -102h-369z" />
    <glyph glyph-name="uni1E7B" unicode="&#x1e7b;" horiz-adv-x="610" 
d="M185 -10q-88 0 -125 59t-16 168l22 123q11 57 16 95.5t8 73.5h154q-3 -41 -10 -86t-15 -87l-20 -107q-9 -45 2.5 -71t49.5 -26q35 0 70 34.5t67.5 116.5t59.5 226h149l-59 -335q-9 -50 -14 -95t-5 -79h-150q0 28 4.5 59t11.5 60q-78 -129 -200 -129zM300 736
q-43 0 -65.5 25t-22.5 56q0 30 22 56t65 26q41 0 63.5 -26t22.5 -56q0 -31 -22 -56t-63 -25zM512 736q-43 0 -66 25t-23 56q0 30 22.5 56t65.5 26q40 0 62.5 -26t22.5 -56q0 -31 -22 -56t-62 -25zM181 596l18 102h369l-18 -102h-369z" />
    <glyph glyph-name="Wgrave" unicode="&#x1e80;" horiz-adv-x="1014" 
d="M939 710h162l-331 -710h-185l-27 504l-230 -504h-186l-51 710h157l29 -490l222 490h193l25 -491zM546 774l-119 138l167 39l90 -177h-138z" />
    <glyph glyph-name="wgrave" unicode="&#x1e81;" horiz-adv-x="883" 
d="M785 509h156l-265 -509h-191l-30 294l-149 -294h-190l-69 509h153l39 -363l181 363h146l37 -366zM439 573l-119 139l167 38l90 -177h-138z" />
    <glyph glyph-name="Wacute" unicode="&#x1e82;" horiz-adv-x="1014" 
d="M939 710h162l-331 -710h-185l-27 504l-230 -504h-186l-51 710h157l29 -490l222 490h193l25 -491zM546 774l154 177l153 -39l-169 -138h-138z" />
    <glyph glyph-name="wacute" unicode="&#x1e83;" horiz-adv-x="883" 
d="M785 509h156l-265 -509h-191l-30 294l-149 -294h-190l-69 509h153l39 -363l181 363h146l37 -366zM439 573l154 177l153 -38l-169 -139h-138z" />
    <glyph glyph-name="Wdieresis" unicode="&#x1e84;" horiz-adv-x="1014" 
d="M939 710h162l-331 -710h-185l-27 504l-230 -504h-186l-51 710h157l29 -490l222 490h193l25 -491zM735 769q-43 0 -65 26t-22 55q0 31 22 56t65 25q41 0 63.5 -25t22.5 -56q0 -29 -22.5 -55t-63.5 -26zM524 769q-43 0 -65.5 26t-22.5 55q0 31 22.5 56t65.5 25
q40 0 62.5 -25t22.5 -56q0 -29 -22.5 -55t-62.5 -26z" />
    <glyph glyph-name="wdieresis" unicode="&#x1e85;" horiz-adv-x="883" 
d="M785 509h156l-265 -509h-191l-30 294l-149 -294h-190l-69 509h153l39 -363l181 363h146l37 -366zM629 568q-43 0 -65 26t-22 55q0 31 22 56t65 25q41 0 63.5 -25t22.5 -56q0 -29 -22.5 -55t-63.5 -26zM418 568q-43 0 -65.5 26t-22.5 55q0 31 22.5 56t65.5 25
q40 0 62.5 -25t22.5 -56q0 -29 -22.5 -55t-62.5 -26z" />
    <glyph glyph-name="uni1E8E" unicode="&#x1e8e;" horiz-adv-x="611" 
d="M713 710l-314 -393l-56 -317h-164l56 315l-182 395h175l111 -249l193 249h181zM414 766q-44 0 -69.5 27t-25.5 64q0 38 26 64.5t70 26.5q45 0 70.5 -26.5t25.5 -64.5q0 -37 -26 -64t-71 -27z" />
    <glyph glyph-name="uni1E8F" unicode="&#x1e8f;" horiz-adv-x="614" 
d="M171 -210q-31 0 -65.5 4.5t-65 13.5t-50.5 24l49 130q32 -17 68.5 -27.5t85.5 -10.5q83 0 125 38t62 119l8 34q-40 -53 -89.5 -79t-102.5 -26q-90 0 -129 60t-19 168l19 104q10 55 15 93.5t8 73.5h154q-3 -42 -10 -86t-14 -85l-17 -89q-8 -45 3.5 -71t46.5 -26
q41 0 77 33t67 110.5t56 213.5h148l-72 -410q-20 -115 -67 -182.5t-120 -97t-171 -29.5zM377 566q-44 0 -69.5 26.5t-25.5 63.5q0 38 26 64.5t70 26.5q45 0 70.5 -26.5t25.5 -64.5q0 -37 -26 -63.5t-71 -26.5z" />
    <glyph glyph-name="uni1E92" unicode="&#x1e92;" horiz-adv-x="640" 
d="M-8 0l21 118l427 449h-329l25 143h555l-21 -118l-427 -449h359l-35 -143h-575zM254 -238q-44 0 -69.5 26.5t-25.5 63.5q0 38 25.5 64.5t70.5 26.5q44 0 70 -26.5t26 -64.5q0 -37 -26 -63.5t-71 -26.5z" />
    <glyph glyph-name="uni1E93" unicode="&#x1e93;" horiz-adv-x="462" 
d="M-20 0l20 116l268 266h-213l22 127h412l-19 -110l-271 -272h222l-22 -127h-419zM168 -238q-44 0 -69.5 26.5t-25.5 63.5q0 38 25.5 64.5t70.5 26.5q44 0 70 -26.5t26 -64.5q0 -37 -26 -63.5t-71 -26.5z" />
    <glyph glyph-name="uni1E97" unicode="&#x1e97;" horiz-adv-x="428" 
d="M250 -10q-64 0 -106.5 26t-60.5 72t-7 105l36 189h-84l22 127h87l20 104h152l-20 -104h159l-22 -127h-161l-36 -184q-15 -76 63 -76q46 0 89 27l24 -117q-26 -21 -66 -31.5t-89 -10.5zM365 672q-43 0 -65 26t-22 55q0 31 22 56t65 25q41 0 63.5 -25t22.5 -56
q0 -29 -22.5 -55t-63.5 -26zM154 672q-43 0 -65.5 26t-22.5 55q0 31 22.5 56t65.5 25q40 0 62.5 -25t22.5 -56q0 -29 -22.5 -55t-62.5 -26z" />
    <glyph glyph-name="uni1E9E" unicode="&#x1e9e;" horiz-adv-x="751" 
d="M486 720q123 0 193 -50t70 -138q0 -57 -33.5 -101.5t-93.5 -68.5q97 -42 97 -148q0 -65 -31.5 -115.5t-86.5 -79.5t-127 -29q-102 0 -160 48.5t-66 141.5l146 36q-2 -41 18.5 -64t59.5 -23q38 0 62 25.5t24 64.5q0 72 -112 72h-65l25 135h60q56 0 86.5 22t30.5 62
q0 35 -31.5 54t-89.5 19q-89 0 -139.5 -46t-67.5 -143l-70 -394h-163l71 406q27 153 127.5 233.5t265.5 80.5z" />
    <glyph glyph-name="uni1EA0" unicode="&#x1ea0;" horiz-adv-x="697" 
d="M-69 0l434 710h137l170 -710h-160l-31 145h-293l-85 -145h-172zM268 281h183l-49 229zM278 -238q-44 0 -69.5 26.5t-25.5 63.5q0 38 25.5 64.5t70.5 26.5q44 0 70 -26.5t26 -64.5q0 -37 -26 -63.5t-71 -26.5z" />
    <glyph glyph-name="uni1EA1" unicode="&#x1ea1;" horiz-adv-x="618" 
d="M215 -10q-87 0 -137.5 52.5t-50.5 143.5q0 71 23.5 131.5t66 105t100 69.5t124.5 25q90 0 145 -45l18 35h104q-7 -34 -16.5 -81.5t-19.5 -100.5l-27 -151q-9 -50 -13.5 -95t-4.5 -79h-151q0 22 3 46t8 47q-65 -103 -172 -103zM267 123q54 0 93.5 49.5t53.5 134.5l10 54
q-28 25 -79 25q-71 0 -115 -49t-44 -127q0 -87 81 -87zM249 -238q-44 0 -69.5 26.5t-25.5 63.5q0 38 25.5 64.5t70.5 26.5q44 0 70 -26.5t26 -64.5q0 -37 -26 -63.5t-71 -26.5z" />
    <glyph glyph-name="uni1EA2" unicode="&#x1ea2;" horiz-adv-x="697" 
d="M-69 0l434 710h137l170 -710h-160l-31 145h-293l-85 -145h-172zM268 281h183l-49 229zM485 952q51 0 80.5 -20t29.5 -52q0 -27 -15.5 -41t-37 -22.5t-39 -17.5t-20.5 -25h-85l3 16q3 18 15 30t25.5 19.5t23.5 13.5t10 13q0 12 -19 12q-43 0 -78 -37l-48 50q28 29 69.5 45
t85.5 16z" />
    <glyph glyph-name="uni1EA3" unicode="&#x1ea3;" horiz-adv-x="618" 
d="M215 -10q-87 0 -137.5 52.5t-50.5 143.5q0 71 23.5 131.5t66 105t100 69.5t124.5 25q90 0 145 -45l18 35h104q-7 -34 -16.5 -81.5t-19.5 -100.5l-27 -151q-9 -50 -13.5 -95t-4.5 -79h-151q0 22 3 46t8 47q-65 -103 -172 -103zM267 123q54 0 93.5 49.5t53.5 134.5l10 54
q-28 25 -79 25q-71 0 -115 -49t-44 -127q0 -87 81 -87zM420 751q51 0 80.5 -20t29.5 -52q0 -27 -15.5 -41t-37 -22.5t-39 -17.5t-20.5 -25h-85l3 16q3 19 15 30.5t25.5 19t23.5 13.5t10 13q0 12 -19 12q-43 0 -78 -37l-48 50q28 29 69.5 45t85.5 16z" />
    <glyph glyph-name="uni1EA4" unicode="&#x1ea4;" horiz-adv-x="697" 
d="M-69 0l434 710h137l170 -710h-160l-31 145h-293l-85 -145h-172zM268 281h183l-49 229zM584 911l152 177l151 -39l-168 -138h-135zM245 774l163 167h126l103 -167h-140l-41 73l-67 -73h-144z" />
    <glyph glyph-name="uni1EA5" unicode="&#x1ea5;" horiz-adv-x="618" 
d="M215 -10q-87 0 -137.5 52.5t-50.5 143.5q0 71 23.5 131.5t66 105t100 69.5t124.5 25q90 0 145 -45l18 35h104q-7 -34 -16.5 -81.5t-19.5 -100.5l-27 -151q-9 -50 -13.5 -95t-4.5 -79h-151q0 22 3 46t8 47q-65 -103 -172 -103zM267 123q54 0 93.5 49.5t53.5 134.5l10 54
q-28 25 -79 25q-71 0 -115 -49t-44 -127q0 -87 81 -87zM519 710l152 177l151 -38l-168 -139h-135zM180 573l163 167h126l103 -167h-140l-41 73l-67 -73h-144z" />
    <glyph glyph-name="uni1EA6" unicode="&#x1ea6;" horiz-adv-x="697" 
d="M-69 0l434 710h137l170 -710h-160l-31 145h-293l-85 -145h-172zM268 281h183l-49 229zM212 911l-120 138l163 39l91 -177h-134zM245 774l163 167h126l103 -167h-140l-41 73l-67 -73h-144z" />
    <glyph glyph-name="uni1EA7" unicode="&#x1ea7;" horiz-adv-x="618" 
d="M215 -10q-87 0 -137.5 52.5t-50.5 143.5q0 71 23.5 131.5t66 105t100 69.5t124.5 25q90 0 145 -45l18 35h104q-7 -34 -16.5 -81.5t-19.5 -100.5l-27 -151q-9 -50 -13.5 -95t-4.5 -79h-151q0 22 3 46t8 47q-65 -103 -172 -103zM267 123q54 0 93.5 49.5t53.5 134.5l10 54
q-28 25 -79 25q-71 0 -115 -49t-44 -127q0 -87 81 -87zM147 710l-120 139l163 38l91 -177h-134zM180 573l163 167h126l103 -167h-140l-41 73l-67 -73h-144z" />
    <glyph glyph-name="uni1EA8" unicode="&#x1ea8;" horiz-adv-x="697" 
d="M-69 0l434 710h137l170 -710h-160l-31 145h-293l-85 -145h-172zM268 281h183l-49 229zM595 911l2 16q4 18 15.5 30t25 19.5t23.5 13.5t10 13q0 12 -19 12q-43 0 -78 -37l-47 50q27 29 68.5 45t85.5 16q52 0 81.5 -20t29.5 -52q0 -27 -16 -41t-37.5 -22.5t-38.5 -17.5
t-20 -25h-85zM245 774l163 167h126l103 -167h-140l-41 73l-67 -73h-144z" />
    <glyph glyph-name="uni1EA9" unicode="&#x1ea9;" horiz-adv-x="618" 
d="M215 -10q-87 0 -137.5 52.5t-50.5 143.5q0 71 23.5 131.5t66 105t100 69.5t124.5 25q90 0 145 -45l18 35h104q-7 -34 -16.5 -81.5t-19.5 -100.5l-27 -151q-9 -50 -13.5 -95t-4.5 -79h-151q0 22 3 46t8 47q-65 -103 -172 -103zM267 123q54 0 93.5 49.5t53.5 134.5l10 54
q-28 25 -79 25q-71 0 -115 -49t-44 -127q0 -87 81 -87zM530 710l2 16q4 19 15.5 30.5t25 19t23.5 13.5t10 13q0 12 -19 12q-43 0 -78 -37l-47 50q27 29 68.5 45t85.5 16q52 0 81.5 -20t29.5 -52q0 -27 -16 -41t-37.5 -22.5t-38.5 -17.5t-20 -25h-85zM180 573l163 167h126
l103 -167h-140l-41 73l-67 -73h-144z" />
    <glyph glyph-name="uni1EAA" unicode="&#x1eaa;" horiz-adv-x="697" 
d="M-69 0l434 710h137l170 -710h-160l-31 145h-293l-85 -145h-172zM268 281h183l-49 229zM648 1122l48 -56q-21 -48 -57.5 -73.5t-77.5 -25.5q-32 0 -62 12t-56.5 24t-47.5 12q-16 0 -34.5 -10.5t-29.5 -30.5l-47 56q20 49 56.5 73.5t77.5 24.5q32 0 62 -12t56 -24t46 -12
q19 0 37 10.5t29 31.5zM245 774l162 162h126l104 -162h-140l-42 69l-66 -69h-144z" />
    <glyph glyph-name="uni1EAB" unicode="&#x1eab;" horiz-adv-x="618" 
d="M215 -10q-87 0 -137.5 52.5t-50.5 143.5q0 71 23.5 131.5t66 105t100 69.5t124.5 25q90 0 145 -45l18 35h104q-7 -34 -16.5 -81.5t-19.5 -100.5l-27 -151q-9 -50 -13.5 -95t-4.5 -79h-151q0 22 3 46t8 47q-65 -103 -172 -103zM267 123q54 0 93.5 49.5t53.5 134.5l10 54
q-28 25 -79 25q-71 0 -115 -49t-44 -127q0 -87 81 -87zM583 921l48 -55q-21 -49 -57.5 -74.5t-77.5 -25.5q-32 0 -62 12t-56.5 24t-47.5 12q-16 0 -34.5 -10.5t-29.5 -30.5l-47 56q20 49 56.5 73.5t77.5 24.5q32 0 62 -12t56 -24t46 -12q19 0 37 10.5t29 31.5zM180 573
l162 162h126l104 -162h-140l-42 69l-66 -69h-144z" />
    <glyph glyph-name="uni1EAC" unicode="&#x1eac;" horiz-adv-x="697" 
d="M-69 0l434 710h137l170 -710h-160l-31 145h-293l-85 -145h-172zM268 281h183l-49 229zM278 -238q-44 0 -69.5 26.5t-25.5 63.5q0 38 25.5 64.5t70.5 26.5q44 0 70 -26.5t26 -64.5q0 -37 -26 -63.5t-71 -26.5zM637 774h-137l-41 73l-67 -73h-148l164 167h126z" />
    <glyph glyph-name="uni1EAD" unicode="&#x1ead;" horiz-adv-x="618" 
d="M215 -10q-87 0 -137.5 52.5t-50.5 143.5q0 71 23.5 131.5t66 105t100 69.5t124.5 25q90 0 145 -45l18 35h104q-7 -34 -16.5 -81.5t-19.5 -100.5l-27 -151q-9 -50 -13.5 -95t-4.5 -79h-151q0 22 3 46t8 47q-65 -103 -172 -103zM267 123q54 0 93.5 49.5t53.5 134.5l10 54
q-28 25 -79 25q-71 0 -115 -49t-44 -127q0 -87 81 -87zM249 -238q-44 0 -69.5 26.5t-25.5 63.5q0 38 25.5 64.5t70.5 26.5q44 0 70 -26.5t26 -64.5q0 -37 -26 -63.5t-71 -26.5zM572 573h-137l-41 73l-67 -73h-148l164 167h126z" />
    <glyph glyph-name="uni1EAE" unicode="&#x1eae;" horiz-adv-x="697" 
d="M-69 0l434 710h137l170 -710h-160l-31 145h-293l-85 -145h-172zM268 281h183l-49 229zM399 956l154 178l153 -39l-169 -139h-138zM556 953l96 -12q-12 -80 -67 -126t-128 -46q-83 0 -126 46t-41 126l100 12q-1 -83 69 -83q69 0 97 83z" />
    <glyph glyph-name="uni1EAF" unicode="&#x1eaf;" horiz-adv-x="618" 
d="M215 -10q-87 0 -137.5 52.5t-50.5 143.5q0 71 23.5 131.5t66 105t100 69.5t124.5 25q90 0 145 -45l18 35h104q-7 -34 -16.5 -81.5t-19.5 -100.5l-27 -151q-9 -50 -13.5 -95t-4.5 -79h-151q0 22 3 46t8 47q-65 -103 -172 -103zM267 123q54 0 93.5 49.5t53.5 134.5l10 54
q-28 25 -79 25q-71 0 -115 -49t-44 -127q0 -87 81 -87zM334 755l154 178l153 -39l-169 -139h-138zM491 752l96 -12q-12 -79 -67 -125.5t-128 -46.5q-83 0 -126 46.5t-41 125.5l100 12q-1 -83 69 -83q69 0 97 83z" />
    <glyph glyph-name="uni1EB0" unicode="&#x1eb0;" horiz-adv-x="697" 
d="M-69 0l434 710h137l170 -710h-160l-31 145h-293l-85 -145h-172zM268 281h183l-49 229zM408 956l-120 139l167 39l91 -178h-138zM556 953l96 -12q-8 -53 -35.5 -91.5t-69 -59.5t-90.5 -21q-83 0 -126 46t-41 126l100 12q-1 -83 69 -83q69 0 97 83z" />
    <glyph glyph-name="uni1EB1" unicode="&#x1eb1;" horiz-adv-x="618" 
d="M215 -10q-87 0 -137.5 52.5t-50.5 143.5q0 71 23.5 131.5t66 105t100 69.5t124.5 25q90 0 145 -45l18 35h104q-7 -34 -16.5 -81.5t-19.5 -100.5l-27 -151q-9 -50 -13.5 -95t-4.5 -79h-151q0 22 3 46t8 47q-65 -103 -172 -103zM267 123q54 0 93.5 49.5t53.5 134.5l10 54
q-28 25 -79 25q-71 0 -115 -49t-44 -127q0 -87 81 -87zM343 755l-120 139l167 39l91 -178h-138zM491 752l96 -12q-8 -53 -35.5 -91.5t-69 -59.5t-90.5 -21q-83 0 -126 46.5t-41 125.5l100 12q-1 -83 69 -83q69 0 97 83z" />
    <glyph glyph-name="uni1EB2" unicode="&#x1eb2;" horiz-adv-x="697" 
d="M-69 0l434 710h137l170 -710h-160l-31 145h-293l-85 -145h-172zM268 281h183l-49 229zM517 1134q51 0 80.5 -20.5t29.5 -51.5q0 -27 -16 -41.5t-37 -23t-38.5 -17t-20.5 -24.5h-85l3 16q3 18 14.5 29.5t25.5 19.5t23.5 14t9.5 13q0 11 -19 11q-42 0 -78 -36l-47 49
q28 30 69.5 46t85.5 16zM556 953l96 -12q-8 -53 -35.5 -91.5t-69 -59.5t-90.5 -21q-83 0 -126 46t-41 126l100 12q-1 -83 69 -83q69 0 97 83z" />
    <glyph glyph-name="uni1EB3" unicode="&#x1eb3;" horiz-adv-x="618" 
d="M215 -10q-87 0 -137.5 52.5t-50.5 143.5q0 71 23.5 131.5t66 105t100 69.5t124.5 25q90 0 145 -45l18 35h104q-7 -34 -16.5 -81.5t-19.5 -100.5l-27 -151q-9 -50 -13.5 -95t-4.5 -79h-151q0 22 3 46t8 47q-65 -103 -172 -103zM267 123q54 0 93.5 49.5t53.5 134.5l10 54
q-28 25 -79 25q-71 0 -115 -49t-44 -127q0 -87 81 -87zM452 933q51 0 80.5 -20t29.5 -52q0 -27 -16 -41.5t-37 -23t-38.5 -17t-20.5 -24.5h-85l3 16q3 18 14.5 29.5t25.5 19.5t23.5 14t9.5 13q0 11 -19 11q-42 0 -78 -36l-47 49q28 30 69.5 46t85.5 16zM491 752l96 -12
q-8 -53 -35.5 -91.5t-69 -59.5t-90.5 -21q-83 0 -126 46.5t-41 125.5l100 12q-1 -83 69 -83q69 0 97 83z" />
    <glyph glyph-name="uni1EB4" unicode="&#x1eb4;" horiz-adv-x="697" 
d="M-69 0l434 710h137l170 -710h-160l-31 145h-293l-85 -145h-172zM268 281h183l-49 229zM648 1122l48 -56q-20 -48 -57.5 -73.5t-86.5 -25.5q-28 0 -56 12t-53.5 24t-46.5 12q-17 0 -35.5 -10.5t-29.5 -30.5l-47 56q19 49 56 73.5t87 24.5q28 0 56 -12t53.5 -24t45.5 -12
q21 0 39 10.5t27 31.5zM381 944q2 -74 77 -74q70 0 98 74l99 -12q-16 -76 -69.5 -119.5t-133.5 -43.5q-81 0 -126 43.5t-43 119.5z" />
    <glyph glyph-name="uni1EB5" unicode="&#x1eb5;" horiz-adv-x="618" 
d="M215 -10q-87 0 -137.5 52.5t-50.5 143.5q0 71 23.5 131.5t66 105t100 69.5t124.5 25q90 0 145 -45l18 35h104q-7 -34 -16.5 -81.5t-19.5 -100.5l-27 -151q-9 -50 -13.5 -95t-4.5 -79h-151q0 22 3 46t8 47q-65 -103 -172 -103zM267 123q54 0 93.5 49.5t53.5 134.5l10 54
q-28 25 -79 25q-71 0 -115 -49t-44 -127q0 -87 81 -87zM583 921l48 -55q-20 -49 -57.5 -74.5t-86.5 -25.5q-28 0 -56 12t-53.5 24t-46.5 12q-17 0 -35.5 -10.5t-29.5 -30.5l-47 56q19 49 56 73.5t87 24.5q28 0 56 -12t53.5 -24t45.5 -12q21 0 39 10.5t27 31.5zM316 743
q2 -74 77 -74q70 0 98 74l99 -12q-16 -75 -69.5 -119t-133.5 -44q-81 0 -126 44t-43 119z" />
    <glyph glyph-name="uni1EB6" unicode="&#x1eb6;" horiz-adv-x="697" 
d="M-69 0l434 710h137l170 -710h-160l-31 145h-293l-85 -145h-172zM268 281h183l-49 229zM278 -238q-44 0 -69.5 26.5t-25.5 63.5q0 38 25.5 64.5t70.5 26.5q44 0 70 -26.5t26 -64.5q0 -37 -26 -63.5t-71 -26.5zM556 953l96 -12q-12 -80 -67 -126t-128 -46q-83 0 -126 46
t-41 126l100 12q-1 -83 69 -83q69 0 97 83z" />
    <glyph glyph-name="uni1EB7" unicode="&#x1eb7;" horiz-adv-x="618" 
d="M215 -10q-87 0 -137.5 52.5t-50.5 143.5q0 71 23.5 131.5t66 105t100 69.5t124.5 25q90 0 145 -45l18 35h104q-7 -34 -16.5 -81.5t-19.5 -100.5l-27 -151q-9 -50 -13.5 -95t-4.5 -79h-151q0 22 3 46t8 47q-65 -103 -172 -103zM267 123q54 0 93.5 49.5t53.5 134.5l10 54
q-28 25 -79 25q-71 0 -115 -49t-44 -127q0 -87 81 -87zM249 -238q-44 0 -69.5 26.5t-25.5 63.5q0 38 25.5 64.5t70.5 26.5q44 0 70 -26.5t26 -64.5q0 -37 -26 -63.5t-71 -26.5zM491 752l96 -12q-12 -79 -67 -125.5t-128 -46.5q-83 0 -126 46.5t-41 125.5l100 12
q-1 -83 69 -83q69 0 97 83z" />
    <glyph glyph-name="uni1EB8" unicode="&#x1eb8;" horiz-adv-x="579" 
d="M208 141h335l-35 -141h-486l125 710h487l-25 -141h-326l-25 -141h306l-25 -141h-306zM239 -238q-44 0 -69.5 26.5t-25.5 63.5q0 38 25.5 64.5t70.5 26.5q44 0 70 -26.5t26 -64.5q0 -37 -26 -63.5t-71 -26.5z" />
    <glyph glyph-name="uni1EB9" unicode="&#x1eb9;" horiz-adv-x="547" 
d="M266 -10q-72 0 -125.5 26t-83 74t-28.5 113q0 90 40.5 161t110 112t158.5 41q87 0 139.5 -41t52.5 -110q0 -70 -49 -112t-133 -48l-167 -12q5 -34 35 -53.5t79 -19.5q33 0 66 12.5t54 33.5l66 -93q-35 -40 -89.5 -62t-125.5 -22zM328 406q-49 0 -84 -29t-49 -79l133 9
q31 2 48.5 15.5t17.5 38.5q0 21 -17.5 33t-48.5 12zM218 -238q-44 0 -69.5 26.5t-25.5 63.5q0 38 25.5 64.5t70.5 26.5q44 0 70 -26.5t26 -64.5q0 -37 -26 -63.5t-71 -26.5z" />
    <glyph glyph-name="uni1EBA" unicode="&#x1eba;" horiz-adv-x="579" 
d="M208 141h335l-35 -141h-486l125 710h487l-25 -141h-326l-25 -141h306l-25 -141h-306zM446 952q51 0 80.5 -20t29.5 -52q0 -27 -15.5 -41t-37 -22.5t-39 -17.5t-20.5 -25h-85l3 16q3 18 15 30t25.5 19.5t23.5 13.5t10 13q0 12 -19 12q-43 0 -78 -37l-48 50q28 29 69.5 45
t85.5 16z" />
    <glyph glyph-name="uni1EBB" unicode="&#x1ebb;" horiz-adv-x="547" 
d="M266 -10q-72 0 -125.5 26t-83 74t-28.5 113q0 90 40.5 161t110 112t158.5 41q87 0 139.5 -41t52.5 -110q0 -70 -49 -112t-133 -48l-167 -12q5 -34 35 -53.5t79 -19.5q33 0 66 12.5t54 33.5l66 -93q-35 -40 -89.5 -62t-125.5 -22zM328 406q-49 0 -84 -29t-49 -79l133 9
q31 2 48.5 15.5t17.5 38.5q0 21 -17.5 33t-48.5 12zM390 751q51 0 80.5 -20t29.5 -52q0 -27 -15.5 -41t-37 -22.5t-39 -17.5t-20.5 -25h-85l3 16q3 19 15 30.5t25.5 19t23.5 13.5t10 13q0 12 -19 12q-43 0 -78 -37l-48 50q28 29 69.5 45t85.5 16z" />
    <glyph glyph-name="uni1EBC" unicode="&#x1ebc;" horiz-adv-x="579" 
d="M208 141h335l-35 -141h-486l125 710h487l-25 -141h-326l-25 -141h306l-25 -141h-306zM482 768q-29 0 -57.5 13t-54.5 26.5t-47 13.5q-14 0 -33.5 -11.5t-34.5 -33.5l-52 50q23 54 61.5 81t85.5 27q28 0 57 -13.5t55 -26.5t46 -13q18 0 36.5 11t32.5 35l52 -50
q-23 -54 -62 -81.5t-85 -27.5z" />
    <glyph glyph-name="uni1EBD" unicode="&#x1ebd;" horiz-adv-x="547" 
d="M266 -10q-72 0 -125.5 26t-83 74t-28.5 113q0 90 40.5 161t110 112t158.5 41q87 0 139.5 -41t52.5 -110q0 -70 -49 -112t-133 -48l-167 -12q5 -34 35 -53.5t79 -19.5q33 0 66 12.5t54 33.5l66 -93q-35 -40 -89.5 -62t-125.5 -22zM328 406q-49 0 -84 -29t-49 -79l133 9
q31 2 48.5 15.5t17.5 38.5q0 21 -17.5 33t-48.5 12zM426 567q-29 0 -57.5 13t-54.5 26.5t-47 13.5q-14 0 -33.5 -11.5t-34.5 -33.5l-52 50q23 54 61.5 81t85.5 27q28 0 57 -13.5t55 -26.5t46 -13q18 0 36.5 11t32.5 35l52 -50q-23 -54 -62 -81.5t-85 -27.5z" />
    <glyph glyph-name="uni1EBE" unicode="&#x1ebe;" horiz-adv-x="579" 
d="M208 141h335l-35 -141h-486l125 710h487l-25 -141h-326l-25 -141h306l-25 -141h-306zM545 911l152 177l151 -39l-168 -138h-135zM206 774l163 167h126l103 -167h-140l-41 73l-67 -73h-144z" />
    <glyph glyph-name="uni1EBF" unicode="&#x1ebf;" horiz-adv-x="547" 
d="M266 -10q-72 0 -125.5 26t-83 74t-28.5 113q0 90 40.5 161t110 112t158.5 41q87 0 139.5 -41t52.5 -110q0 -70 -49 -112t-133 -48l-167 -12q5 -34 35 -53.5t79 -19.5q33 0 66 12.5t54 33.5l66 -93q-35 -40 -89.5 -62t-125.5 -22zM328 406q-49 0 -84 -29t-49 -79l133 9
q31 2 48.5 15.5t17.5 38.5q0 21 -17.5 33t-48.5 12zM489 710l152 177l151 -38l-168 -139h-135zM150 573l163 167h126l103 -167h-140l-41 73l-67 -73h-144z" />
    <glyph glyph-name="uni1EC0" unicode="&#x1ec0;" horiz-adv-x="579" 
d="M208 141h335l-35 -141h-486l125 710h487l-25 -141h-326l-25 -141h306l-25 -141h-306zM173 911l-120 138l163 39l91 -177h-134zM206 774l163 167h126l103 -167h-140l-41 73l-67 -73h-144z" />
    <glyph glyph-name="uni1EC1" unicode="&#x1ec1;" horiz-adv-x="547" 
d="M266 -10q-72 0 -125.5 26t-83 74t-28.5 113q0 90 40.5 161t110 112t158.5 41q87 0 139.5 -41t52.5 -110q0 -70 -49 -112t-133 -48l-167 -12q5 -34 35 -53.5t79 -19.5q33 0 66 12.5t54 33.5l66 -93q-35 -40 -89.5 -62t-125.5 -22zM328 406q-49 0 -84 -29t-49 -79l133 9
q31 2 48.5 15.5t17.5 38.5q0 21 -17.5 33t-48.5 12zM117 710l-120 139l163 38l91 -177h-134zM150 573l163 167h126l103 -167h-140l-41 73l-67 -73h-144z" />
    <glyph glyph-name="uni1EC2" unicode="&#x1ec2;" horiz-adv-x="579" 
d="M208 141h335l-35 -141h-486l125 710h487l-25 -141h-326l-25 -141h306l-25 -141h-306zM556 911l2 16q4 18 15.5 30t25 19.5t23.5 13.5t10 13q0 12 -19 12q-43 0 -78 -37l-47 50q27 29 68.5 45t85.5 16q52 0 81.5 -20t29.5 -52q0 -27 -16 -41t-37.5 -22.5t-38.5 -17.5
t-20 -25h-85zM206 774l163 167h126l103 -167h-140l-41 73l-67 -73h-144z" />
    <glyph glyph-name="uni1EC3" unicode="&#x1ec3;" horiz-adv-x="547" 
d="M266 -10q-72 0 -125.5 26t-83 74t-28.5 113q0 90 40.5 161t110 112t158.5 41q87 0 139.5 -41t52.5 -110q0 -70 -49 -112t-133 -48l-167 -12q5 -34 35 -53.5t79 -19.5q33 0 66 12.5t54 33.5l66 -93q-35 -40 -89.5 -62t-125.5 -22zM328 406q-49 0 -84 -29t-49 -79l133 9
q31 2 48.5 15.5t17.5 38.5q0 21 -17.5 33t-48.5 12zM500 710l2 16q4 19 15.5 30.5t25 19t23.5 13.5t10 13q0 12 -19 12q-43 0 -78 -37l-47 50q27 29 68.5 45t85.5 16q52 0 81.5 -20t29.5 -52q0 -27 -16 -41t-37.5 -22.5t-38.5 -17.5t-20 -25h-85zM150 573l163 167h126
l103 -167h-140l-41 73l-67 -73h-144z" />
    <glyph glyph-name="uni1EC4" unicode="&#x1ec4;" horiz-adv-x="579" 
d="M208 141h335l-35 -141h-486l125 710h487l-25 -141h-326l-25 -141h306l-25 -141h-306zM609 1122l48 -56q-21 -48 -57.5 -73.5t-77.5 -25.5q-32 0 -62 12t-56.5 24t-47.5 12q-16 0 -34.5 -10.5t-29.5 -30.5l-47 56q20 49 56.5 73.5t77.5 24.5q32 0 62 -12t56 -24t46 -12
q19 0 37 10.5t29 31.5zM206 774l162 162h126l104 -162h-140l-42 69l-66 -69h-144z" />
    <glyph glyph-name="uni1EC5" unicode="&#x1ec5;" horiz-adv-x="547" 
d="M266 -10q-72 0 -125.5 26t-83 74t-28.5 113q0 90 40.5 161t110 112t158.5 41q87 0 139.5 -41t52.5 -110q0 -70 -49 -112t-133 -48l-167 -12q5 -34 35 -53.5t79 -19.5q33 0 66 12.5t54 33.5l66 -93q-35 -40 -89.5 -62t-125.5 -22zM328 406q-49 0 -84 -29t-49 -79l133 9
q31 2 48.5 15.5t17.5 38.5q0 21 -17.5 33t-48.5 12zM553 921l48 -55q-21 -49 -57.5 -74.5t-77.5 -25.5q-32 0 -62 12t-56.5 24t-47.5 12q-16 0 -34.5 -10.5t-29.5 -30.5l-47 56q20 49 56.5 73.5t77.5 24.5q32 0 62 -12t56 -24t46 -12q19 0 37 10.5t29 31.5zM150 573l162 162
h126l104 -162h-140l-42 69l-66 -69h-144z" />
    <glyph glyph-name="uni1EC6" unicode="&#x1ec6;" horiz-adv-x="579" 
d="M208 141h335l-35 -141h-486l125 710h487l-25 -141h-326l-25 -141h306l-25 -141h-306zM239 -238q-44 0 -69.5 26.5t-25.5 63.5q0 38 25.5 64.5t70.5 26.5q44 0 70 -26.5t26 -64.5q0 -37 -26 -63.5t-71 -26.5zM598 774h-137l-41 73l-67 -73h-148l164 167h126z" />
    <glyph glyph-name="uni1EC7" unicode="&#x1ec7;" horiz-adv-x="547" 
d="M266 -10q-72 0 -125.5 26t-83 74t-28.5 113q0 90 40.5 161t110 112t158.5 41q87 0 139.5 -41t52.5 -110q0 -70 -49 -112t-133 -48l-167 -12q5 -34 35 -53.5t79 -19.5q33 0 66 12.5t54 33.5l66 -93q-35 -40 -89.5 -62t-125.5 -22zM328 406q-49 0 -84 -29t-49 -79l133 9
q31 2 48.5 15.5t17.5 38.5q0 21 -17.5 33t-48.5 12zM218 -238q-44 0 -69.5 26.5t-25.5 63.5q0 38 25.5 64.5t70.5 26.5q44 0 70 -26.5t26 -64.5q0 -37 -26 -63.5t-71 -26.5zM542 573h-137l-41 73l-67 -73h-148l164 167h126z" />
    <glyph glyph-name="uni1EC8" unicode="&#x1ec8;" horiz-adv-x="297" 
d="M22 0l125 710h163l-125 -710h-163zM284 952q51 0 80.5 -20t29.5 -52q0 -27 -15.5 -41t-37 -22.5t-39 -17.5t-20.5 -25h-85l3 16q3 18 15 30t25.5 19.5t23.5 13.5t10 13q0 12 -19 12q-43 0 -78 -37l-48 50q28 29 69.5 45t85.5 16z" />
    <glyph glyph-name="uni1EC9" unicode="&#x1ec9;" horiz-adv-x="270" 
d="M21 0q0 32 5 66t11 66l36 208q10 57 15.5 95.5t8.5 73.5h154q-3 -41 -10 -86t-14 -87l-35 -196q-6 -36 -11 -70.5t-5 -69.5h-155zM229 751q51 0 80.5 -20t29.5 -52q0 -27 -15.5 -41t-37 -22.5t-39 -17.5t-20.5 -25h-85l3 16q3 19 15 30.5t25.5 19t23.5 13.5t10 13
q0 12 -19 12q-43 0 -78 -37l-48 50q28 29 69.5 45t85.5 16z" />
    <glyph glyph-name="uni1ECA" unicode="&#x1eca;" horiz-adv-x="297" 
d="M22 0l125 710h163l-125 -710h-163zM78 -238q-44 0 -69.5 26.5t-25.5 63.5q0 38 25.5 64.5t70.5 26.5q44 0 70 -26.5t26 -64.5q0 -37 -26 -63.5t-71 -26.5z" />
    <glyph glyph-name="uni1ECB" unicode="&#x1ecb;" horiz-adv-x="270" 
d="M21 0q0 32 5 66t11 66l36 208q10 57 15.5 95.5t8.5 73.5h154q-3 -41 -10 -86t-14 -87l-35 -196q-6 -36 -11 -70.5t-5 -69.5h-155zM201 569q-44 0 -70 27t-26 64t25.5 64t70.5 27q44 0 70 -27t26 -64t-26 -64t-70 -27zM109 -238q-44 0 -69.5 26.5t-25.5 63.5
q0 38 25.5 64.5t70.5 26.5q44 0 70 -26.5t26 -64.5q0 -37 -26 -63.5t-71 -26.5z" />
    <glyph glyph-name="uni1ECC" unicode="&#x1ecc;" horiz-adv-x="781" 
d="M353 -10q-93 0 -162 34t-107 97t-38 151q0 95 33 177t91.5 142.5t137 94.5t171.5 34q88 0 153.5 -35t101.5 -99t36 -151q0 -93 -32 -174t-89 -142t-133 -95t-163 -34zM371 135q66 0 118.5 37.5t83 101.5t30.5 144q0 73 -39.5 115t-108.5 42t-123.5 -37.5t-86.5 -101.5
t-32 -144q0 -74 41.5 -115.5t116.5 -41.5zM320 -238q-44 0 -69.5 26.5t-25.5 63.5q0 38 25.5 64.5t70.5 26.5q44 0 70 -26.5t26 -64.5q0 -37 -26 -63.5t-71 -26.5z" />
    <glyph glyph-name="uni1ECD" unicode="&#x1ecd;" horiz-adv-x="596" 
d="M351 517q99 0 158 -53.5t59 -148.5q0 -68 -24 -127t-67.5 -103.5t-102 -69.5t-128.5 -25q-101 0 -160 53.5t-59 147.5q0 66 22.5 124.5t65.5 104t102.5 71.5t133.5 26zM271 123q38 0 69.5 23t50.5 62t19 87q0 43 -22 66t-62 23q-43 0 -74.5 -25t-48.5 -64t-17 -83
q0 -42 21.5 -65.5t63.5 -23.5zM227 -238q-44 0 -69.5 26.5t-25.5 63.5q0 38 25.5 64.5t70.5 26.5q44 0 70 -26.5t26 -64.5q0 -37 -26 -63.5t-71 -26.5z" />
    <glyph glyph-name="uni1ECE" unicode="&#x1ece;" horiz-adv-x="781" 
d="M353 -10q-93 0 -162 34t-107 97t-38 151q0 95 33 177t91.5 142.5t137 94.5t171.5 34q88 0 153.5 -35t101.5 -99t36 -151q0 -93 -32 -174t-89 -142t-133 -95t-163 -34zM371 135q66 0 118.5 37.5t83 101.5t30.5 144q0 73 -39.5 115t-108.5 42t-123.5 -37.5t-86.5 -101.5
t-32 -144q0 -74 41.5 -115.5t116.5 -41.5zM527 952q51 0 80.5 -20t29.5 -52q0 -27 -15.5 -41t-37 -22.5t-39 -17.5t-20.5 -25h-85l3 16q3 18 15 30t25.5 19.5t23.5 13.5t10 13q0 12 -19 12q-43 0 -78 -37l-48 50q28 29 69.5 45t85.5 16z" />
    <glyph glyph-name="uni1ECF" unicode="&#x1ecf;" horiz-adv-x="596" 
d="M351 517q99 0 158 -53.5t59 -148.5q0 -68 -24 -127t-67.5 -103.5t-102 -69.5t-128.5 -25q-101 0 -160 53.5t-59 147.5q0 66 22.5 124.5t65.5 104t102.5 71.5t133.5 26zM271 123q38 0 69.5 23t50.5 62t19 87q0 43 -22 66t-62 23q-43 0 -74.5 -25t-48.5 -64t-17 -83
q0 -42 21.5 -65.5t63.5 -23.5zM398 751q51 0 80.5 -20t29.5 -52q0 -27 -15.5 -41t-37 -22.5t-39 -17.5t-20.5 -25h-85l3 16q3 19 15 30.5t25.5 19t23.5 13.5t10 13q0 12 -19 12q-43 0 -78 -37l-48 50q28 29 69.5 45t85.5 16z" />
    <glyph glyph-name="uni1ED0" unicode="&#x1ed0;" horiz-adv-x="781" 
d="M353 -10q-93 0 -162 34t-107 97t-38 151q0 95 33 177t91.5 142.5t137 94.5t171.5 34q88 0 153.5 -35t101.5 -99t36 -151q0 -93 -32 -174t-89 -142t-133 -95t-163 -34zM371 135q66 0 118.5 37.5t83 101.5t30.5 144q0 73 -39.5 115t-108.5 42t-123.5 -37.5t-86.5 -101.5
t-32 -144q0 -74 41.5 -115.5t116.5 -41.5zM626 911l152 177l151 -39l-168 -138h-135zM287 774l163 167h126l103 -167h-140l-41 73l-67 -73h-144z" />
    <glyph glyph-name="uni1ED1" unicode="&#x1ed1;" horiz-adv-x="596" 
d="M351 517q99 0 158 -53.5t59 -148.5q0 -68 -24 -127t-67.5 -103.5t-102 -69.5t-128.5 -25q-101 0 -160 53.5t-59 147.5q0 66 22.5 124.5t65.5 104t102.5 71.5t133.5 26zM271 123q38 0 69.5 23t50.5 62t19 87q0 43 -22 66t-62 23q-43 0 -74.5 -25t-48.5 -64t-17 -83
q0 -42 21.5 -65.5t63.5 -23.5zM497 710l152 177l151 -38l-168 -139h-135zM158 573l163 167h126l103 -167h-140l-41 73l-67 -73h-144z" />
    <glyph glyph-name="uni1ED2" unicode="&#x1ed2;" horiz-adv-x="781" 
d="M353 -10q-93 0 -162 34t-107 97t-38 151q0 95 33 177t91.5 142.5t137 94.5t171.5 34q88 0 153.5 -35t101.5 -99t36 -151q0 -93 -32 -174t-89 -142t-133 -95t-163 -34zM371 135q66 0 118.5 37.5t83 101.5t30.5 144q0 73 -39.5 115t-108.5 42t-123.5 -37.5t-86.5 -101.5
t-32 -144q0 -74 41.5 -115.5t116.5 -41.5zM254 911l-120 138l163 39l91 -177h-134zM287 774l163 167h126l103 -167h-140l-41 73l-67 -73h-144z" />
    <glyph glyph-name="uni1ED3" unicode="&#x1ed3;" horiz-adv-x="596" 
d="M351 517q99 0 158 -53.5t59 -148.5q0 -68 -24 -127t-67.5 -103.5t-102 -69.5t-128.5 -25q-101 0 -160 53.5t-59 147.5q0 66 22.5 124.5t65.5 104t102.5 71.5t133.5 26zM271 123q38 0 69.5 23t50.5 62t19 87q0 43 -22 66t-62 23q-43 0 -74.5 -25t-48.5 -64t-17 -83
q0 -42 21.5 -65.5t63.5 -23.5zM125 710l-120 139l163 38l91 -177h-134zM158 573l163 167h126l103 -167h-140l-41 73l-67 -73h-144z" />
    <glyph glyph-name="uni1ED4" unicode="&#x1ed4;" horiz-adv-x="781" 
d="M353 -10q-93 0 -162 34t-107 97t-38 151q0 95 33 177t91.5 142.5t137 94.5t171.5 34q88 0 153.5 -35t101.5 -99t36 -151q0 -93 -32 -174t-89 -142t-133 -95t-163 -34zM371 135q66 0 118.5 37.5t83 101.5t30.5 144q0 73 -39.5 115t-108.5 42t-123.5 -37.5t-86.5 -101.5
t-32 -144q0 -74 41.5 -115.5t116.5 -41.5zM637 911l2 16q4 18 15.5 30t25 19.5t23.5 13.5t10 13q0 12 -19 12q-43 0 -78 -37l-47 50q27 29 68.5 45t85.5 16q52 0 81.5 -20t29.5 -52q0 -27 -16 -41t-37.5 -22.5t-38.5 -17.5t-20 -25h-85zM287 774l163 167h126l103 -167h-140
l-41 73l-67 -73h-144z" />
    <glyph glyph-name="uni1ED5" unicode="&#x1ed5;" horiz-adv-x="596" 
d="M351 517q99 0 158 -53.5t59 -148.5q0 -68 -24 -127t-67.5 -103.5t-102 -69.5t-128.5 -25q-101 0 -160 53.5t-59 147.5q0 66 22.5 124.5t65.5 104t102.5 71.5t133.5 26zM271 123q38 0 69.5 23t50.5 62t19 87q0 43 -22 66t-62 23q-43 0 -74.5 -25t-48.5 -64t-17 -83
q0 -42 21.5 -65.5t63.5 -23.5zM508 710l2 16q4 19 15.5 30.5t25 19t23.5 13.5t10 13q0 12 -19 12q-43 0 -78 -37l-47 50q27 29 68.5 45t85.5 16q52 0 81.5 -20t29.5 -52q0 -27 -16 -41t-37.5 -22.5t-38.5 -17.5t-20 -25h-85zM158 573l163 167h126l103 -167h-140l-41 73
l-67 -73h-144z" />
    <glyph glyph-name="uni1ED6" unicode="&#x1ed6;" horiz-adv-x="781" 
d="M353 -10q-93 0 -162 34t-107 97t-38 151q0 95 33 177t91.5 142.5t137 94.5t171.5 34q88 0 153.5 -35t101.5 -99t36 -151q0 -93 -32 -174t-89 -142t-133 -95t-163 -34zM371 135q66 0 118.5 37.5t83 101.5t30.5 144q0 73 -39.5 115t-108.5 42t-123.5 -37.5t-86.5 -101.5
t-32 -144q0 -74 41.5 -115.5t116.5 -41.5zM690 1122l48 -56q-21 -48 -57.5 -73.5t-77.5 -25.5q-32 0 -62 12t-56.5 24t-47.5 12q-16 0 -34.5 -10.5t-29.5 -30.5l-47 56q20 49 56.5 73.5t77.5 24.5q32 0 62 -12t56 -24t46 -12q19 0 37 10.5t29 31.5zM287 774l162 162h126
l104 -162h-140l-42 69l-66 -69h-144z" />
    <glyph glyph-name="uni1ED7" unicode="&#x1ed7;" horiz-adv-x="596" 
d="M351 517q99 0 158 -53.5t59 -148.5q0 -68 -24 -127t-67.5 -103.5t-102 -69.5t-128.5 -25q-101 0 -160 53.5t-59 147.5q0 66 22.5 124.5t65.5 104t102.5 71.5t133.5 26zM271 123q38 0 69.5 23t50.5 62t19 87q0 43 -22 66t-62 23q-43 0 -74.5 -25t-48.5 -64t-17 -83
q0 -42 21.5 -65.5t63.5 -23.5zM561 921l48 -55q-21 -49 -57.5 -74.5t-77.5 -25.5q-32 0 -62 12t-56.5 24t-47.5 12q-16 0 -34.5 -10.5t-29.5 -30.5l-47 56q20 49 56.5 73.5t77.5 24.5q32 0 62 -12t56 -24t46 -12q19 0 37 10.5t29 31.5zM158 573l162 162h126l104 -162h-140
l-42 69l-66 -69h-144z" />
    <glyph glyph-name="uni1ED8" unicode="&#x1ed8;" horiz-adv-x="781" 
d="M353 -10q-93 0 -162 34t-107 97t-38 151q0 95 33 177t91.5 142.5t137 94.5t171.5 34q88 0 153.5 -35t101.5 -99t36 -151q0 -93 -32 -174t-89 -142t-133 -95t-163 -34zM371 135q66 0 118.5 37.5t83 101.5t30.5 144q0 73 -39.5 115t-108.5 42t-123.5 -37.5t-86.5 -101.5
t-32 -144q0 -74 41.5 -115.5t116.5 -41.5zM320 -238q-44 0 -69.5 26.5t-25.5 63.5q0 38 25.5 64.5t70.5 26.5q44 0 70 -26.5t26 -64.5q0 -37 -26 -63.5t-71 -26.5zM679 774h-137l-41 73l-67 -73h-148l164 167h126z" />
    <glyph glyph-name="uni1ED9" unicode="&#x1ed9;" horiz-adv-x="596" 
d="M351 517q99 0 158 -53.5t59 -148.5q0 -68 -24 -127t-67.5 -103.5t-102 -69.5t-128.5 -25q-101 0 -160 53.5t-59 147.5q0 66 22.5 124.5t65.5 104t102.5 71.5t133.5 26zM271 123q38 0 69.5 23t50.5 62t19 87q0 43 -22 66t-62 23q-43 0 -74.5 -25t-48.5 -64t-17 -83
q0 -42 21.5 -65.5t63.5 -23.5zM227 -238q-44 0 -69.5 26.5t-25.5 63.5q0 38 25.5 64.5t70.5 26.5q44 0 70 -26.5t26 -64.5q0 -37 -26 -63.5t-71 -26.5zM550 573h-137l-41 73l-67 -73h-148l164 167h126z" />
    <glyph glyph-name="uni1EDA" unicode="&#x1eda;" horiz-adv-x="781" 
d="M353 -10q-93 0 -162 34t-107 97t-38 151q0 95 33 177t91.5 142.5t137 94.5t171.5 34q88 0 153.5 -35t101.5 -99t36 -151q0 -93 -32 -174t-89 -142t-133 -95t-163 -34zM371 135q66 0 118.5 37.5t83 101.5t30.5 144q0 73 -39.5 115t-108.5 42t-123.5 -37.5t-86.5 -101.5
t-32 -144q0 -74 41.5 -115.5t116.5 -41.5zM615 707q33 0 51 9.5t25 34.5t8 70l130 -10q2 -62 -21.5 -110t-67.5 -75.5t-102 -27.5h-70l-37 118q22 -3 46 -6t38 -3zM413 774l154 177l153 -39l-169 -138h-138z" />
    <glyph glyph-name="uni1EDB" unicode="&#x1edb;" horiz-adv-x="596" 
d="M351 517q99 0 158 -53.5t59 -148.5q0 -68 -24 -127t-67.5 -103.5t-102 -69.5t-128.5 -25q-101 0 -160 53.5t-59 147.5q0 66 22.5 124.5t65.5 104t102.5 71.5t133.5 26zM271 123q38 0 69.5 23t50.5 62t19 87q0 43 -22 66t-62 23q-43 0 -74.5 -25t-48.5 -64t-17 -83
q0 -42 21.5 -65.5t63.5 -23.5zM451 508q27 0 43 8.5t23.5 33t8.5 70.5l131 -10q2 -62 -21.5 -109t-68 -73.5t-102.5 -26.5h-47l-31 114q12 -2 30.5 -4.5t33.5 -2.5zM285 573l154 177l153 -38l-169 -139h-138z" />
    <glyph glyph-name="uni1EDC" unicode="&#x1edc;" horiz-adv-x="781" 
d="M353 -10q-93 0 -162 34t-107 97t-38 151q0 95 33 177t91.5 142.5t137 94.5t171.5 34q88 0 153.5 -35t101.5 -99t36 -151q0 -93 -32 -174t-89 -142t-133 -95t-163 -34zM371 135q66 0 118.5 37.5t83 101.5t30.5 144q0 73 -39.5 115t-108.5 42t-123.5 -37.5t-86.5 -101.5
t-32 -144q0 -74 41.5 -115.5t116.5 -41.5zM615 707q33 0 51 9.5t25 34.5t8 70l130 -10q2 -62 -21.5 -110t-67.5 -75.5t-102 -27.5h-70l-37 118q22 -3 46 -6t38 -3zM413 774l-119 138l167 39l90 -177h-138z" />
    <glyph glyph-name="uni1EDD" unicode="&#x1edd;" horiz-adv-x="596" 
d="M351 517q99 0 158 -53.5t59 -148.5q0 -68 -24 -127t-67.5 -103.5t-102 -69.5t-128.5 -25q-101 0 -160 53.5t-59 147.5q0 66 22.5 124.5t65.5 104t102.5 71.5t133.5 26zM271 123q38 0 69.5 23t50.5 62t19 87q0 43 -22 66t-62 23q-43 0 -74.5 -25t-48.5 -64t-17 -83
q0 -42 21.5 -65.5t63.5 -23.5zM451 508q27 0 43 8.5t23.5 33t8.5 70.5l131 -10q2 -62 -21.5 -109t-68 -73.5t-102.5 -26.5h-47l-31 114q12 -2 30.5 -4.5t33.5 -2.5zM285 573l-119 139l167 38l90 -177h-138z" />
    <glyph glyph-name="uni1EDE" unicode="&#x1ede;" horiz-adv-x="781" 
d="M353 -10q-93 0 -162 34t-107 97t-38 151q0 95 33 177t91.5 142.5t137 94.5t171.5 34q88 0 153.5 -35t101.5 -99t36 -151q0 -93 -32 -174t-89 -142t-133 -95t-163 -34zM371 135q66 0 118.5 37.5t83 101.5t30.5 144q0 73 -39.5 115t-108.5 42t-123.5 -37.5t-86.5 -101.5
t-32 -144q0 -74 41.5 -115.5t116.5 -41.5zM615 707q33 0 51 9.5t25 34.5t8 70l130 -10q2 -62 -21.5 -110t-67.5 -75.5t-102 -27.5h-70l-37 118q22 -3 46 -6t38 -3zM527 952q51 0 80.5 -20t29.5 -52q0 -27 -15.5 -41t-37 -22.5t-39 -17.5t-20.5 -25h-85l3 16q3 18 15 30
t25.5 19.5t23.5 13.5t10 13q0 12 -19 12q-43 0 -78 -37l-48 50q28 29 69.5 45t85.5 16z" />
    <glyph glyph-name="uni1EDF" unicode="&#x1edf;" horiz-adv-x="596" 
d="M351 517q99 0 158 -53.5t59 -148.5q0 -68 -24 -127t-67.5 -103.5t-102 -69.5t-128.5 -25q-101 0 -160 53.5t-59 147.5q0 66 22.5 124.5t65.5 104t102.5 71.5t133.5 26zM271 123q38 0 69.5 23t50.5 62t19 87q0 43 -22 66t-62 23q-43 0 -74.5 -25t-48.5 -64t-17 -83
q0 -42 21.5 -65.5t63.5 -23.5zM451 508q27 0 43 8.5t23.5 33t8.5 70.5l131 -10q2 -62 -21.5 -109t-68 -73.5t-102.5 -26.5h-47l-31 114q12 -2 30.5 -4.5t33.5 -2.5zM398 751q51 0 80.5 -20t29.5 -52q0 -27 -15.5 -41t-37 -22.5t-39 -17.5t-20.5 -25h-85l3 16q3 19 15 30.5
t25.5 19t23.5 13.5t10 13q0 12 -19 12q-43 0 -78 -37l-48 50q28 29 69.5 45t85.5 16z" />
    <glyph glyph-name="uni1EE0" unicode="&#x1ee0;" horiz-adv-x="781" 
d="M353 -10q-93 0 -162 34t-107 97t-38 151q0 95 33 177t91.5 142.5t137 94.5t171.5 34q88 0 153.5 -35t101.5 -99t36 -151q0 -93 -32 -174t-89 -142t-133 -95t-163 -34zM371 135q66 0 118.5 37.5t83 101.5t30.5 144q0 73 -39.5 115t-108.5 42t-123.5 -37.5t-86.5 -101.5
t-32 -144q0 -74 41.5 -115.5t116.5 -41.5zM615 707q33 0 51 9.5t25 34.5t8 70l130 -10q2 -62 -21.5 -110t-67.5 -75.5t-102 -27.5h-70l-37 118q22 -3 46 -6t38 -3zM563 768q-29 0 -57.5 13t-54.5 26.5t-47 13.5q-14 0 -33.5 -11.5t-34.5 -33.5l-52 50q23 54 61.5 81t85.5 27
q28 0 57 -13.5t55 -26.5t46 -13q18 0 36.5 11t32.5 35l52 -50q-23 -54 -62 -81.5t-85 -27.5z" />
    </font>
</defs>
</svg>
