<?xml version="1.0" standalone="no"?>
<!DOCTYPE svg PUBLIC "-//W3C//DTD SVG 1.1//EN" "http://www.w3.org/Graphics/SVG/1.1/DTD/svg11.dtd" >
<svg xmlns="http://www.w3.org/2000/svg" xmlns:xlink="http://www.w3.org/1999/xlink" version="1.1">
<metadata>
Created by FontForge 20201107 at Mon Sep  2 17:38:16 2019
 By 
Copyright 2019 The Livvic Project Authors (https://github.com/Fonthausen/Livvic)
</metadata>
<defs>
<font id="Livvic-BlackItalic" horiz-adv-x="0" >
  <font-face 
    font-family="Livvic Black"
    font-weight="900"
    font-style="italic"
    font-stretch="normal"
    units-per-em="1000"
    panose-1="0 0 0 0 0 0 0 0 0 0"
    ascent="800"
    descent="-200"
    x-height="514"
    cap-height="710"
    bbox="-207 -259 1461 1171"
    underline-thickness="50"
    underline-position="-125"
    slope="-10"
    unicode-range="U+000D-FB02"
  />
<missing-glyph horiz-adv-x="290" 
 />
    <glyph glyph-name="f_f" unicode="ff" horiz-adv-x="762" 
d="M38 0l63 361h-92l27 153h92l2 14q18 101 91.5 161.5t183.5 60.5q57 0 98.5 -20t62.5 -60q37 38 89 59t116 21q81 0 130.5 -40.5t47.5 -125.5l-164 -19q0 14 -10.5 21.5t-27.5 7.5q-26 0 -42.5 -15.5t-21.5 -40.5l-4 -24h123l-27 -153h-122l-63 -361h-186l63 361h-74
l27 153h74l2 14q4 25 12 47l-89 -10q0 14 -10.5 21.5t-27.5 7.5q-26 0 -42.5 -15.5t-21.5 -40.5l-4 -24h77l-27 -153h-76l-63 -361h-186z" />
    <glyph glyph-name="f_f_i" unicode="ffi" horiz-adv-x="1055" 
d="M38 0l63 361h-92l27 153h92l2 14q18 101 91.5 161.5t183.5 60.5q81 0 130.5 -40.5t47.5 -125.5l-164 -19q0 14 -10.5 21.5t-27.5 7.5q-26 0 -42.5 -15.5t-21.5 -40.5l-4 -24h123l-27 -153h-122l-63 -361h-186zM414 0l63 361h-92l27 153h92l2 14q12 68 49 117.5t93 77
t125 27.5q88 0 125 -37l-98 -131q-6 5 -17 8.5t-22 3.5q-58 0 -69 -63l-3 -17h123l-27 -153h-122l-63 -361h-186zM779 0q0 38 6 73.5t11 66.5l35 200q10 56 15 97.5t7 76.5h186q-2 -37 -8 -86t-14 -94l-33 -187q-7 -41 -12.5 -76t-5.5 -71h-187zM971 553q-52 0 -83 31.5
t-31 75.5t30.5 75.5t83.5 31.5t83.5 -31.5t30.5 -75.5t-30.5 -75.5t-83.5 -31.5z" />
    <glyph glyph-name="f_f_j" unicode="ffj" horiz-adv-x="1197" 
d="M38 0l63 361h-92l27 153h92l2 14q18 101 91.5 161.5t183.5 60.5q81 0 130.5 -40.5t47.5 -125.5l-164 -19q0 14 -10.5 21.5t-27.5 7.5q-26 0 -42.5 -15.5t-21.5 -40.5l-4 -24h123l-27 -153h-122l-63 -361h-186zM434 0l63 361h-92l27 153h92l2 14q18 101 91.5 161.5
t183.5 60.5q81 0 130.5 -40.5t47.5 -125.5l-164 -19q0 14 -10.5 21.5t-27.5 7.5q-26 0 -42.5 -15.5t-21.5 -40.5l-4 -24h123l-27 -153h-122l-63 -361h-186zM974 341q10 56 15 97t7 76h184q-2 -37 -8 -86t-14 -94l-51 -289q-19 -112 -87.5 -175.5t-206.5 -63.5q-75 0 -122 15
l49 152q22 -5 46.5 -8t43.5 -3q41 0 62.5 18.5t28.5 61.5zM1113 553q-52 0 -83 31.5t-31 75.5t30.5 75.5t83.5 31.5t83.5 -31.5t30.5 -75.5t-30.5 -75.5t-83.5 -31.5z" />
    <glyph glyph-name="f_f_l" unicode="ffl" horiz-adv-x="1099" 
d="M38 0l63 361h-92l27 153h92l2 14q18 101 91.5 161.5t183.5 60.5q81 0 130.5 -40.5t47.5 -125.5l-164 -19q0 14 -10.5 21.5t-27.5 7.5q-26 0 -42.5 -15.5t-21.5 -40.5l-4 -24h123l-27 -153h-122l-63 -361h-186zM414 0l63 361h-92l27 153h92l2 14q12 68 49 117.5t93 77
t125 27.5q88 0 125 -37l-98 -131q-6 5 -17 8.5t-22 3.5q-58 0 -69 -63l-3 -17h123l-27 -153h-122l-63 -361h-186zM953 -11q-83 0 -120.5 48.5t-24.5 127.5l101 575h186l-98 -558q-4 -19 4.5 -27.5t24.5 -8.5q21 0 37 11l20 -132q-20 -17 -55 -26.5t-75 -9.5z" />
    <glyph glyph-name="f_i" unicode="fi" horiz-adv-x="679" 
d="M38 0l63 361h-92l27 153h92l2 14q12 68 49 117.5t93 77t125 27.5q88 0 125 -37l-98 -131q-6 5 -17 8.5t-22 3.5q-58 0 -69 -63l-3 -17h123l-27 -153h-122l-63 -361h-186zM403 0q0 38 6 73.5t11 66.5l35 200q10 56 15 97.5t7 76.5h186q-2 -37 -8 -86t-14 -94l-33 -187
q-7 -41 -12.5 -76t-5.5 -71h-187zM595 553q-52 0 -83 31.5t-31 75.5t30.5 75.5t83.5 31.5t83.5 -31.5t30.5 -75.5t-30.5 -75.5t-83.5 -31.5z" />
    <glyph glyph-name="f_l" unicode="fl" horiz-adv-x="723" 
d="M38 0l63 361h-92l27 153h92l2 14q12 68 49 117.5t93 77t125 27.5q88 0 125 -37l-98 -131q-6 5 -17 8.5t-22 3.5q-58 0 -69 -63l-3 -17h123l-27 -153h-122l-63 -361h-186zM577 -11q-83 0 -120.5 48.5t-24.5 127.5l101 575h186l-98 -558q-4 -19 4.5 -27.5t24.5 -8.5
q21 0 37 11l20 -132q-20 -17 -55 -26.5t-75 -9.5z" />
    <glyph glyph-name=".notdef" horiz-adv-x="290" 
 />
    <glyph glyph-name=".null" 
 />
    <glyph glyph-name="nonmarkingreturn" horiz-adv-x="333" 
 />
    <glyph glyph-name="CR" unicode="&#xd;" horiz-adv-x="262" 
 />
    <glyph glyph-name="space" unicode=" " horiz-adv-x="262" 
 />
    <glyph glyph-name="exclam" unicode="!" horiz-adv-x="308" 
d="M92 269l48 471h212l-131 -471h-129zM126 -11q-52 0 -84 31t-32 79q0 49 32 79.5t84 30.5t83.5 -30.5t31.5 -79.5t-31.5 -79.5t-83.5 -30.5z" />
    <glyph glyph-name="quotedbl" unicode="&#x22;" horiz-adv-x="547" 
d="M97 310l31 400h199l-109 -400h-121zM351 310l31 400h199l-109 -400h-121z" />
    <glyph glyph-name="numbersign" unicode="#" horiz-adv-x="600" 
d="M-7 0l67 174h-74l55 140h72l31 81h-72l55 140h71l67 175h158l-67 -175h60l67 175h158l-67 -175h74l-55 -140h-73l-31 -81h73l-55 -140h-71l-67 -174h-158l67 174h-60l-67 -174h-158zM271 314h60l31 81h-60z" />
    <glyph glyph-name="dollar" unicode="$" horiz-adv-x="600" 
d="M170 -120l20 116q-89 16 -137.5 71t-49.5 146l190 27q-4 -38 22 -61.5t70 -23.5q42 0 67 13.5t25 37.5q0 20 -21.5 32.5t-55.5 23t-72.5 24t-72.5 35t-55.5 56.5t-21.5 88q0 69 32 121t86 84.5t122 44.5l20 115h127l-20 -115q76 -15 121.5 -66t46.5 -130l-180 -30
q0 29 -22 47.5t-53 18.5q-29 0 -52 -15t-23 -41q0 -22 21.5 -35.5t56 -24t72.5 -23t72.5 -33t56 -54t21.5 -85.5q0 -71 -36 -124.5t-96.5 -86t-133.5 -40.5l-20 -113h-127z" />
    <glyph glyph-name="percent" unicode="%" horiz-adv-x="875" 
d="M256 367q-84 0 -136 46t-52 125q0 53 26.5 94.5t71.5 65.5t102 24q86 0 136 -45.5t50 -125.5q0 -55 -25 -96t-69.5 -64.5t-103.5 -23.5zM41 0l659 710h169l-660 -710h-168zM259 479q32 0 49.5 19.5t17.5 52.5q0 28 -16 43.5t-45 15.5q-32 0 -50 -18.5t-18 -52.5
q0 -29 16.5 -44.5t45.5 -15.5zM645 -9q-85 0 -137 46.5t-52 124.5q0 54 26 95.5t71.5 65t103.5 23.5q86 0 135.5 -46t49.5 -125q0 -53 -25 -95t-69.5 -65.5t-102.5 -23.5zM646 103q31 0 49.5 20t18.5 53q0 29 -17.5 43.5t-46.5 14.5q-31 0 -48.5 -19t-17.5 -51
q0 -30 16.5 -45.5t45.5 -15.5z" />
    <glyph glyph-name="ampersand" unicode="&#x26;" horiz-adv-x="860" 
d="M297 -8q-82 0 -142 24t-93 67t-33 101q0 53 19 92.5t50.5 68.5t68.5 51q-16 23 -25.5 48.5t-9.5 54.5q0 67 35 115.5t93.5 75t130.5 26.5q85 0 137.5 -36t52.5 -106q0 -54 -24 -90t-61.5 -60t-80.5 -44l133 -144q25 31 43 69h-66l26 147h297l-26 -147h-72
q-33 -88 -93 -156q25 -8 54 -8q23 0 39 4.5t36 14.5l20 -134q-62 -38 -145 -38q-51 0 -90 11t-72 34q-45 -20 -95.5 -30.5t-106.5 -10.5zM310 522q0 -10 5 -21.5t20 -29.5q38 16 62.5 33.5t24.5 41.5q0 35 -45 35q-29 0 -48 -15.5t-19 -43.5zM225 221q0 -38 31 -60.5
t84 -22.5q26 0 50 5l-135 150q-14 -14 -22 -32t-8 -40z" />
    <glyph glyph-name="quotesingle" unicode="'" horiz-adv-x="293" 
d="M97 310l31 400h199l-109 -400h-121z" />
    <glyph glyph-name="parenleft" unicode="(" horiz-adv-x="379" 
d="M243 -218q-106 66 -158 165.5t-52 223.5q0 129 47.5 241t133.5 199t201 142l54 -95q-127 -95 -189.5 -220.5t-62.5 -287.5q0 -94 29 -161t80 -123z" />
    <glyph glyph-name="parenright" unicode=")" horiz-adv-x="379" 
d="M-32 -218l-54 95q127 95 189.5 220.5t62.5 287.5q0 94 -29 161.5t-80 122.5l83 84q106 -66 158 -165.5t52 -223.5q0 -129 -47.5 -241t-133.5 -199t-201 -142z" />
    <glyph glyph-name="asterisk" unicode="*" horiz-adv-x="442" 
d="M444 492q26 -13 31.5 -37.5t-8.5 -50.5q-14 -25 -37.5 -31t-49.5 8q-21 12 -35.5 35t-48.5 54q11 -44 23.5 -68t12.5 -49q0 -28 -17.5 -45.5t-46.5 -17.5q-28 0 -46 17.5t-18 45.5q0 25 12.5 49t22.5 68q-33 -31 -47.5 -54t-35.5 -35q-25 -14 -48.5 -7.5t-38.5 31.5
q-15 24 -8.5 49t31.5 39q20 11 47.5 12.5t71.5 14.5q-44 14 -71 15t-48 13q-26 15 -32 38t9 50q14 26 38 31.5t49 -8.5q21 -12 35.5 -34.5t47.5 -54.5q-10 44 -22.5 68t-12.5 49q0 29 18 46t46 17q29 0 46.5 -17.5t17.5 -45.5q0 -25 -12.5 -49t-23.5 -69q34 32 48.5 55
t35.5 35q26 14 48.5 7.5t38.5 -31.5t9.5 -49t-32.5 -39q-20 -12 -47.5 -12.5t-71.5 -14.5q44 -13 71 -15t48 -13z" />
    <glyph glyph-name="plus" unicode="+" horiz-adv-x="600" 
d="M165 0l30 173h-167l30 168h167l30 173h179l-30 -173h168l-30 -168h-168l-30 -173h-179z" />
    <glyph glyph-name="comma" unicode="," horiz-adv-x="315" 
d="M-48 -201q37 60 55.5 105t18.5 81q0 32 -8 55.5t-8 54.5q0 65 40 99t98 34q50 0 79 -27t29 -82q0 -35 -19 -78t-50 -88t-68 -85t-73 -69h-94z" />
    <glyph glyph-name="hyphen" unicode="-" horiz-adv-x="453" 
d="M46 176l29 165h333l-29 -165h-333z" />
    <glyph glyph-name="period" unicode="." horiz-adv-x="315" 
d="M131 -11q-58 0 -91.5 34.5t-33.5 85.5q0 52 33.5 86.5t91.5 34.5t92 -34.5t34 -86.5q0 -51 -34 -85.5t-92 -34.5z" />
    <glyph glyph-name="slash" unicode="/" horiz-adv-x="416" 
d="M-81 -200l411 940h178l-411 -940h-178z" />
    <glyph glyph-name="zero" unicode="0" horiz-adv-x="600" 
d="M258 -11q-115 0 -171.5 64t-56.5 184q0 95 23 181.5t68.5 154.5t112.5 107.5t155 39.5q107 0 161 -66t54 -184q0 -92 -23 -178t-67 -154.5t-108.5 -108.5t-147.5 -40zM282 156q26 0 47 21t36.5 55.5t26 76t15.5 83.5t5 76q0 86 -54 86q-28 0 -49.5 -21t-37.5 -56
t-27 -76.5t-16 -83t-5 -75.5q0 -86 59 -86z" />
    <glyph glyph-name="one" unicode="1" horiz-adv-x="600" 
d="M36 0l27 154h161l51 290l-99 -61l-77 142l306 185h109l-98 -556h146l-27 -154h-499z" />
    <glyph glyph-name="two" unicode="2" horiz-adv-x="600" 
d="M5 0l22 130q60 35 122 79.5t114.5 94t85 97.5t32.5 90q0 29 -15.5 44.5t-44.5 15.5q-41 0 -70 -24.5t-47 -59.5l-129 77q44 85 119 130.5t168 45.5q99 0 157.5 -50t58.5 -138q0 -75 -38 -143t-104 -127.5t-148 -107.5h243l-27 -154h-499z" />
    <glyph glyph-name="three" unicode="3" horiz-adv-x="600" 
d="M208 -11q-58 0 -113 13t-88 32l72 166q31 -20 71.5 -31t89.5 -11q56 0 84 19t28 52q0 28 -23.5 40.5t-75.5 12.5h-50l27 151h53q43 0 64.5 13.5t29 30.5t7.5 27q0 22 -14.5 34.5t-44.5 12.5q-44 0 -73.5 -24.5t-47.5 -59.5l-129 77q44 85 119.5 130.5t170.5 45.5
q61 0 110 -19.5t77.5 -57t28.5 -93.5q0 -60 -34 -109.5t-90 -77.5q42 -14 64 -46.5t22 -76.5q0 -78 -44 -134.5t-120 -86.5t-171 -30z" />
    <glyph glyph-name="four" unicode="4" horiz-adv-x="600" 
d="M272 0l27 152h-297l23 131l424 429h135l-74 -417h100l-25 -143h-100l-27 -152h-186zM212 295h112l24 138z" />
    <glyph glyph-name="five" unicode="5" horiz-adv-x="600" 
d="M208 -11q-58 0 -113 13t-88 32l72 166q31 -20 71.5 -31t89.5 -11q48 0 80.5 17.5t32.5 60.5q0 32 -26.5 49.5t-96.5 20.5l-133 6l104 398h392l-27 -154h-218l-25 -94q100 -11 161 -59.5t61 -142.5q0 -89 -44.5 -149.5t-120.5 -91t-172 -30.5z" />
    <glyph glyph-name="six" unicode="6" horiz-adv-x="600" 
d="M299 -11q-115 0 -185 66.5t-70 204.5q0 23 2 50t7 56q20 117 74.5 195.5t130.5 118.5t161 40q176 0 224 -153l-160 -74q-11 29 -31 43.5t-59 14.5q-49 0 -87.5 -37t-52.5 -105q31 24 68 34.5t73 10.5q53 0 96.5 -21t70 -63t26.5 -106q0 -81 -37.5 -143t-102.5 -97
t-148 -35zM301 143q41 0 66.5 26t25.5 66q0 30 -18 47.5t-49 17.5q-40 0 -67 -26t-27 -65q0 -33 20.5 -49.5t48.5 -16.5z" />
    <glyph glyph-name="seven" unicode="7" horiz-adv-x="600" 
d="M247 0h-209l364 556h-291l27 154h499l-26 -148z" />
    <glyph glyph-name="eight" unicode="8" horiz-adv-x="600" 
d="M263 -11q-126 0 -192 50t-66 130q0 46 20.5 85t55.5 68t78 44q-79 42 -79 128q0 70 40 120.5t107 78t147 27.5q68 0 121.5 -22t84.5 -61.5t31 -93.5q0 -64 -38 -112t-97 -71q45 -19 71 -58t26 -87q0 -74 -43 -124.5t-113.5 -76t-153.5 -25.5zM333 433q36 0 60 22t24 58
q0 25 -17 39t-46 14q-37 0 -61 -22t-24 -57q0 -24 16.5 -39t47.5 -15zM279 143q47 0 76.5 20.5t29.5 59.5q0 28 -21.5 45t-59.5 17q-46 0 -76 -21t-30 -59q0 -28 22.5 -45t58.5 -17z" />
    <glyph glyph-name="nine" unicode="9" horiz-adv-x="600" 
d="M335 723q115 0 185 -66.5t70 -204.5q0 -23 -2 -50t-7 -56q-20 -117 -74.5 -195.5t-130.5 -118.5t-161 -40q-176 0 -224 153l160 74q11 -29 31 -43.5t59 -14.5q49 0 87.5 37t52.5 105q-31 -24 -68 -34.5t-73 -10.5q-53 0 -96.5 21t-70 63t-26.5 106q0 81 37.5 143
t102.5 97t148 35zM333 569q-41 0 -66.5 -26t-25.5 -66q0 -30 18 -47.5t49 -17.5q40 0 67 26t27 65q0 33 -20.5 49.5t-48.5 16.5z" />
    <glyph glyph-name="colon" unicode=":" horiz-adv-x="315" 
d="M131 -11q-58 0 -91.5 34.5t-33.5 85.5q0 52 33.5 86.5t91.5 34.5t92 -34.5t34 -86.5q0 -51 -34 -85.5t-92 -34.5zM182 282q-58 0 -91.5 34.5t-33.5 85.5q0 52 33.5 86.5t91.5 34.5t92 -34.5t34 -86.5q0 -51 -34 -85.5t-92 -34.5z" />
    <glyph glyph-name="semicolon" unicode=";" horiz-adv-x="315" 
d="M-48 -201q37 60 55.5 105t18.5 81q0 32 -8 55.5t-8 54.5q0 65 40 99t98 34q50 0 79 -27t29 -82q0 -35 -19 -78t-50 -88t-68 -85t-73 -69h-94zM182 282q-58 0 -91.5 34.5t-33.5 85.5q0 52 33.5 86.5t91.5 34.5t92 -34.5t34 -86.5q0 -51 -34 -85.5t-92 -34.5z" />
    <glyph glyph-name="less" unicode="&#x3c;" horiz-adv-x="600" 
d="M48 322l564 208l-30 -171l-305 -109l267 -108l-28 -161l-492 208z" />
    <glyph glyph-name="equal" unicode="=" horiz-adv-x="600" 
d="M52 309l26 148h514l-26 -148h-514zM8 58l26 148h514l-26 -148h-514z" />
    <glyph glyph-name="greater" unicode="&#x3e;" horiz-adv-x="600" 
d="M552 189l-564 -208l30 171l305 109l-267 108l28 161l492 -208z" />
    <glyph glyph-name="question" unicode="?" horiz-adv-x="491" 
d="M295 267l-139 7q2 54 13 91t33 64.5t57 51.5q33 23 43 31.5t10 18.5q0 11 -10 17t-33 6q-37 0 -73.5 -22.5t-59.5 -63.5l-125 81q43 81 123 126.5t174 45.5q92 0 145.5 -43t53.5 -120q0 -58 -29.5 -99t-88.5 -82q-33 -23 -52 -39t-28 -32t-14 -39zM210 -10q-52 0 -84 31
t-32 79q0 49 32 79.5t84 30.5q50 0 82.5 -30t32.5 -78q0 -49 -31.5 -80.5t-83.5 -31.5z" />
    <glyph glyph-name="at" unicode="@" horiz-adv-x="1022" 
d="M474 -212q-137 0 -238 50.5t-156.5 141.5t-55.5 212q0 120 42 218t118.5 168.5t181 108.5t228.5 38q121 0 214 -42.5t146 -123t53 -193.5q0 -67 -17.5 -128t-51 -109t-80 -75.5t-103.5 -27.5q-110 0 -143 78q-54 -78 -154 -78q-51 0 -94.5 24.5t-70 71.5t-26.5 113
q0 77 35.5 141.5t98.5 103.5t145 39q39 0 73.5 -8t62.5 -26l24 27l96 -45l-42 -248q-9 -51 24 -51q18 0 31.5 20.5t22 50.5t12.5 60.5t4 50.5q0 113 -70.5 172.5t-200.5 59.5q-117 0 -204.5 -49t-136 -135.5t-48.5 -199.5q0 -121 74 -192.5t214 -71.5q46 0 99.5 11t104.5 37
l47 -134q-56 -32 -119 -46t-140 -14zM506 169q35 0 59.5 31t34.5 87l15 83q-20 9 -47 9q-54 0 -88.5 -39t-34.5 -99q0 -33 15.5 -52.5t45.5 -19.5z" />
    <glyph glyph-name="A" unicode="A" horiz-adv-x="707" 
d="M-84 0l439 710h166l176 -710h-196l-28 127h-274l-75 -127h-208zM296 292h141l-39 175z" />
    <glyph glyph-name="B" unicode="B" horiz-adv-x="662" 
d="M14 0l125 710h286q126 0 191 -48.5t65 -128.5q0 -55 -28 -100t-72 -72q29 -18 46 -50.5t17 -72.5q0 -76 -43 -129t-115 -81t-158 -28h-314zM405 549h-98l-19 -111h107q84 0 84 63q0 48 -74 48zM239 161h125q35 0 58.5 16.5t23.5 50.5q0 24 -17 36t-55 12h-115z" />
    <glyph glyph-name="C" unicode="C" horiz-adv-x="693" 
d="M697 138q-64 -80 -148.5 -115t-179.5 -34q-160 2 -245.5 77.5t-85.5 208.5q0 96 34 177t94.5 141t141 93.5t174.5 33.5q99 0 173.5 -36.5t107.5 -112.5l-164 -107q-15 37 -47.5 59t-88.5 22q-64 0 -114 -32t-79 -86.5t-29 -123.5q0 -64 40 -101t112 -37q44 0 91.5 23
t80.5 67z" />
    <glyph glyph-name="D" unicode="D" horiz-adv-x="767" 
d="M15 0l125 710h241q188 0 284.5 -81t96.5 -218q0 -90 -33 -165.5t-92 -130.5t-138.5 -85t-172.5 -30h-311zM246 176h91q107 0 165 56t58 159q0 71 -45 107t-140 36h-66z" />
    <glyph glyph-name="E" unicode="E" horiz-adv-x="595" 
d="M243 171h329l-43 -171h-514l125 710h518l-30 -171h-322l-17 -97h296l-30 -171h-295z" />
    <glyph glyph-name="F" unicode="F" horiz-adv-x="552" 
d="M212 0h-197l125 710h494l-31 -171h-296l-19 -106h271l-30 -171h-271z" />
    <glyph glyph-name="G" unicode="G" horiz-adv-x="784" 
d="M447 403h326l-71 -403h-158l-2 44q-33 -29 -84.5 -42.5t-98.5 -12.5q-101 2 -173 37t-110 99t-38 150q0 96 35 177t97.5 141t145 93.5t176.5 33.5q106 0 189 -36t119 -110l-172 -110q-19 41 -63.5 61t-91.5 20q-64 0 -116.5 -32t-84 -86.5t-31.5 -123.5q0 -64 37.5 -101
t114.5 -37q57 0 99.5 22t57.5 55h-131z" />
    <glyph glyph-name="H" unicode="H" horiz-adv-x="774" 
d="M15 0l125 710h200l-47 -267h254l47 267h200l-125 -710h-200l48 270h-254l-48 -270h-200z" />
    <glyph glyph-name="I" unicode="I" horiz-adv-x="320" 
d="M15 0l125 710h200l-125 -710h-200z" />
    <glyph glyph-name="J" unicode="J" horiz-adv-x="523" 
d="M178 -11q-96 0 -153 43t-74 122l174 73q6 -34 24 -48.5t43 -14.5q27 0 45.5 17.5t23.5 48.5l85 480h200l-81 -455q-23 -132 -97 -199t-190 -67z" />
    <glyph glyph-name="K" unicode="K" horiz-adv-x="719" 
d="M15 0l125 710h200l-51 -292l302 292h244l-376 -358q21 -13 35.5 -32.5t23.5 -42.5l27 -67q10 -24 27.5 -35.5t46.5 -11.5q44 0 77 21l23 -154q-28 -20 -70 -31t-83 -11q-76 0 -123 28t-70 83l-46 111q-12 28 -26 41.5t-38 18.5l-48 -270h-200z" />
    <glyph glyph-name="L" unicode="L" horiz-adv-x="552" 
d="M15 0l125 710h200l-94 -536h296l-43 -174h-484z" />
    <glyph glyph-name="M" unicode="M" horiz-adv-x="959" 
d="M16 0l147 710h163l149 -463l323 463h163l-111 -710h-193l45 286l-203 -286h-140l-97 303l-63 -303h-183z" />
    <glyph glyph-name="N" unicode="N" horiz-adv-x="765" 
d="M593 710h192l-125 -710h-178l-207 389l-68 -389h-192l125 710h178l207 -388z" />
    <glyph glyph-name="O" unicode="O" horiz-adv-x="786" 
d="M355 -10q-98 0 -169.5 34t-109.5 98t-38 153q0 96 33 177t93 141t141 93.5t177 33.5q92 0 159 -35.5t104 -100t37 -153.5q0 -93 -32.5 -173.5t-90.5 -140.5t-136 -93.5t-168 -33.5zM378 165q58 0 103 32t71.5 86.5t26.5 123.5q0 65 -34.5 101.5t-95.5 36.5
q-59 0 -106 -32t-74.5 -86.5t-27.5 -123.5q0 -64 36.5 -101t100.5 -37z" />
    <glyph glyph-name="P" unicode="P" horiz-adv-x="657" 
d="M211 0h-196l125 710h260q140 0 216 -53t76 -155q0 -89 -46 -149t-125 -90.5t-180 -30.5h-89zM389 549h-81l-27 -155h79q71 0 101 22t30 65q0 32 -24.5 50t-77.5 18z" />
    <glyph glyph-name="Q" unicode="Q" horiz-adv-x="786" 
d="M464 -211q-77 0 -127 28t-71 75.5t-11 107.5q-102 24 -159.5 95t-57.5 180q0 96 33 177t93 141t141 93.5t177 33.5q92 0 159 -35.5t104 -100t37 -153.5q0 -108 -43 -197.5t-118 -150.5t-171 -83l-2 -10q-4 -19 6.5 -32t33.5 -13q15 0 27 6.5t17 22.5l157 -20
q-24 -87 -83 -126t-142 -39zM378 165q58 0 103 32t71.5 86.5t26.5 123.5q0 65 -34.5 101.5t-95.5 36.5q-59 0 -106 -32t-74.5 -86.5t-27.5 -123.5q0 -64 36.5 -101t100.5 -37z" />
    <glyph glyph-name="R" unicode="R" horiz-adv-x="686" 
d="M669 184l24 -154q-28 -19 -70.5 -30.5t-84.5 -11.5q-78 0 -122.5 27.5t-71.5 91.5l-43 103q-9 20 -19 30t-27 13l-44 -253h-196l125 710h231q291 0 291 -201q0 -93 -52 -154.5t-147 -82.5q31 -13 46 -43l14 -27q20 -39 73 -39q45 0 73 21zM350 549h-43l-25 -141h62
q119 0 119 79q0 32 -27 47t-86 15z" />
    <glyph glyph-name="S" unicode="S" horiz-adv-x="613" 
d="M270 -10q-132 0 -202 57t-71 166l190 27q-4 -38 23 -61.5t79 -23.5q47 0 72.5 13.5t25.5 37.5q0 20 -21.5 32.5t-55.5 23t-72.5 24t-72.5 35t-55.5 56.5t-21.5 88q0 80 42.5 137t114 87.5t156.5 30.5q109 0 173 -54t65 -147l-180 -30q0 29 -23 47.5t-60 18.5
q-35 0 -59 -15t-24 -41q0 -22 21.5 -35.5t56 -24t72.5 -23t72.5 -33t56 -54t21.5 -85.5q0 -79 -44.5 -136t-117.5 -87.5t-161 -30.5z" />
    <glyph glyph-name="T" unicode="T" horiz-adv-x="611" 
d="M723 710l-60 -174h-208l-95 -536h-200l95 536h-222l31 174h659z" />
    <glyph glyph-name="U" unicode="U" horiz-adv-x="774" 
d="M599 710h196l-67 -389q-28 -161 -124 -246.5t-251 -85.5q-105 0 -175 39t-99.5 110t-12.5 168l71 404h201l-70 -394q-27 -151 112 -151q65 0 102.5 39.5t51.5 123.5z" />
    <glyph glyph-name="V" unicode="V" horiz-adv-x="684" 
d="M594 710h208l-373 -710h-283l-81 710h203l54 -530z" />
    <glyph glyph-name="W" unicode="W" horiz-adv-x="1047" 
d="M948 710h196l-331 -710h-225l-20 460l-210 -460h-225l-51 710h191l24 -435l197 435h238l19 -436z" />
    <glyph glyph-name="X" unicode="X" horiz-adv-x="657" 
d="M-56 0l292 361l-156 349h216l78 -176l139 176h219l-280 -350l162 -360h-220l-81 188l-146 -188h-223z" />
    <glyph glyph-name="Y" unicode="Y" horiz-adv-x="636" 
d="M739 710l-308 -394l-56 -316h-200l55 310l-179 400h212l95 -221l162 221h219z" />
    <glyph glyph-name="Z" unicode="Z" horiz-adv-x="657" 
d="M-9 0l25 143l384 393h-295l31 174h573l-25 -143l-384 -393h327l-42 -174h-594z" />
    <glyph glyph-name="bracketleft" unicode="[" horiz-adv-x="364" 
d="M-21 -200l166 940h306l-25 -140h-125l-116 -660h125l-25 -140h-306z" />
    <glyph glyph-name="backslash" unicode="\" horiz-adv-x="416" 
d="M335 -200h-167l-90 940h167z" />
    <glyph glyph-name="bracketright" unicode="]" horiz-adv-x="363" 
d="M-83 -200l25 140h124l116 660h-124l25 140h305l-166 -940h-305z" />
    <glyph glyph-name="asciicircum" unicode="^" horiz-adv-x="600" 
d="M429 618l117 -527h-163l-56 287l-159 -287h-172l301 527h132z" />
    <glyph glyph-name="underscore" unicode="_" horiz-adv-x="581" 
d="M-50 -154l27 154h537l-27 -154h-537z" />
    <glyph glyph-name="grave" unicode="`" horiz-adv-x="644" 
d="M260 573l-127 132l199 45l93 -177h-165z" />
    <glyph glyph-name="a" unicode="a" horiz-adv-x="635" 
d="M217 -11q-91 0 -144 55.5t-53 152.5q0 69 24 128t67.5 103t101.5 68.5t126 24.5q89 0 149 -52l27 41h122q-13 -49 -23 -94t-19 -91l-26 -149q-17 -93 -17 -176h-179q0 41 8 86q-66 -97 -164 -97zM283 149q46 0 78 35.5t42 97.5l10 58q-24 21 -72 21q-58 0 -93.5 -39
t-35.5 -103q0 -33 18.5 -51.5t52.5 -18.5z" />
    <glyph glyph-name="b" unicode="b" horiz-adv-x="635" 
d="M295 -11q-88 0 -147 51l-24 -40h-122q11 49 20 94t17 91l98 555h185l-40 -227l-19 -75q64 83 154 83q92 0 144.5 -55.5t52.5 -152.5q0 -69 -24 -128t-67.5 -103t-101.5 -68.5t-126 -24.5zM293 149q58 0 93.5 39t35.5 103q0 33 -18.5 51.5t-52.5 18.5q-46 0 -77.5 -35.5
t-42.5 -97.5l-10 -58q24 -21 72 -21z" />
    <glyph glyph-name="c" unicode="c" horiz-adv-x="501" 
d="M253 -11q-71 0 -123.5 26t-81 73t-28.5 110q0 93 42 166t116 115t170 42q72 0 122.5 -28t72.5 -83l-147 -98q-15 48 -70 48q-52 0 -83 -39t-31 -95q0 -37 21 -57t58 -19q54 2 88 51l107 -103q-40 -54 -99.5 -81.5t-133.5 -27.5z" />
    <glyph glyph-name="d" unicode="d" horiz-adv-x="635" 
d="M217 -11q-91 0 -144 55.5t-53 152.5q0 69 24 128t67.5 103t101.5 68.5t126 24.5q56 0 101 -21l2 14l40 226h186l-99 -564q-7 -45 -12 -90.5t-5 -85.5h-179q0 41 8 86q-66 -97 -164 -97zM283 149q46 0 78 35.5t42 97.5l10 58q-24 21 -72 21q-58 0 -93.5 -39t-35.5 -103
q0 -33 18.5 -51.5t52.5 -18.5z" />
    <glyph glyph-name="e" unicode="e" horiz-adv-x="552" 
d="M268 -11q-74 0 -129.5 27.5t-86 77t-30.5 115.5t24 123t67.5 99.5t101.5 66t126 23.5q94 0 148.5 -42.5t54.5 -114.5q0 -67 -42 -107.5t-120 -46.5l-174 -14q7 -23 34 -36.5t69 -13.5q62 0 101 36l77 -113q-85 -80 -221 -80zM330 390q-83 0 -107 -83l114 9q46 3 46 38
q0 17 -14 26.5t-39 9.5z" />
    <glyph glyph-name="f" unicode="f" horiz-adv-x="396" 
d="M38 0l63 361h-92l27 153h92l2 14q18 101 91.5 161.5t183.5 60.5q81 0 130.5 -40.5t47.5 -125.5l-164 -19q0 14 -10.5 21.5t-27.5 7.5q-26 0 -42.5 -15.5t-21.5 -40.5l-4 -24h123l-27 -153h-122l-63 -361h-186z" />
    <glyph glyph-name="g" unicode="g" horiz-adv-x="639" 
d="M179 -210q-60 0 -116 12.5t-86 31.5l62 158q71 -40 161 -40q74 0 114 32t60 108v1q-64 -80 -155 -80t-144 53t-53 146q0 66 24.5 122t68 98t101.5 65.5t126 23.5q90 0 151 -51l26 40h122q-15 -59 -25 -102.5t-17 -82.5l-38 -215q-30 -169 -124 -244.5t-258 -75.5z
M284 173q47 0 80.5 28t42.5 81l11 60q-25 19 -75 19q-57 0 -93 -34t-36 -88q0 -31 18.5 -48.5t51.5 -17.5z" />
    <glyph glyph-name="h" unicode="h" horiz-adv-x="644" 
d="M7 0l130 740h186l-40 -226l-26 -106q40 54 92.5 83.5t113.5 29.5q94 0 132.5 -65.5t10.5 -178.5l-32 -130q-9 -40 -13.5 -75.5t-4.5 -71.5h-187q0 38 4 71.5t13 68.5l32 129q11 43 2 62t-38 19q-126 0 -189 -350h-186z" />
    <glyph glyph-name="i" unicode="i" horiz-adv-x="290" 
d="M14 0q0 38 6 73.5t11 66.5l35 200q10 56 15 97.5t7 76.5h186q-2 -37 -8 -86t-14 -94l-33 -187q-7 -41 -12.5 -76t-5.5 -71h-187zM206 553q-52 0 -83 31.5t-31 75.5t30.5 75.5t83.5 31.5t83.5 -31.5t30.5 -75.5t-30.5 -75.5t-83.5 -31.5z" />
    <glyph glyph-name="j" unicode="j" horiz-adv-x="299" 
d="M76 341q10 56 15 97t7 76h184q-2 -37 -8 -86t-14 -94l-51 -289q-19 -112 -87.5 -175.5t-206.5 -63.5q-75 0 -122 15l49 152q22 -5 46.5 -8t43.5 -3q41 0 62.5 18.5t28.5 61.5zM215 553q-52 0 -83 31.5t-31 75.5t30.5 75.5t83.5 31.5t83.5 -31.5t30.5 -75.5t-30.5 -75.5
t-83.5 -31.5z" />
    <glyph glyph-name="k" unicode="k" horiz-adv-x="611" 
d="M7 0l130 740h186l-74 -420l209 194h227l-271 -250q19 -13 29 -37l17 -39q20 -46 74 -46q20 0 34.5 4.5t29.5 12.5l18 -136q-28 -17 -67 -26t-76 -9q-74 0 -116 26.5t-68 87.5l-17 39q-10 23 -20 38t-23 24l-36 -203h-186z" />
    <glyph glyph-name="l" unicode="l" horiz-adv-x="327" 
d="M181 -11q-83 0 -120.5 48.5t-24.5 127.5l101 575h186l-98 -558q-4 -19 4.5 -27.5t24.5 -8.5q21 0 37 11l20 -132q-20 -17 -55 -26.5t-75 -9.5z" />
    <glyph glyph-name="m" unicode="m" horiz-adv-x="992" 
d="M7 0l60 340q10 56 15.5 97.5t9.5 76.5h180q-4 -55 -21 -113q40 57 93.5 88.5t114.5 31.5q59 0 96 -28t49 -79q41 52 95 79.5t116 27.5q91 0 129 -65.5t10 -178.5l-32 -130q-10 -40 -14 -75.5t-4 -71.5h-187q0 38 4 71.5t13 68.5l32 129q11 43 2.5 62t-34.5 19
q-123 0 -186 -350h-186l48 269q8 43 1 62t-33 19q-122 0 -185 -350h-186z" />
    <glyph glyph-name="n" unicode="n" horiz-adv-x="644" 
d="M7 0l60 340q10 56 15.5 97.5t9.5 76.5h180q-4 -55 -21 -114q40 58 94.5 89.5t117.5 31.5q94 0 132.5 -65.5t10.5 -178.5l-32 -130q-9 -40 -13.5 -75.5t-4.5 -71.5h-187q0 38 4 71.5t13 68.5l32 129q11 43 2 62t-38 19q-126 0 -189 -350h-186z" />
    <glyph glyph-name="o" unicode="o" horiz-adv-x="607" 
d="M355 521q111 0 171.5 -57t60.5 -152q0 -69 -25 -128t-70.5 -102.5t-106.5 -68t-133 -24.5q-112 0 -172 57.5t-60 151.5q0 69 25 128t70.5 103t106.5 68t133 24zM287 149q49 0 78 39.5t29 94.5q0 78 -70 78q-51 0 -81.5 -39.5t-30.5 -95.5q0 -77 75 -77z" />
    <glyph glyph-name="p" unicode="p" horiz-adv-x="635" 
d="M417 521q92 0 144.5 -55.5t52.5 -152.5q0 -69 -24 -128t-67.5 -103t-101.5 -68.5t-126 -24.5q-56 0 -101 21l-2 -14l-35 -196h-186l95 540q10 56 15.5 97.5t9.5 76.5h180q-2 -36 -13 -83q65 90 159 90zM351 361q-46 0 -77.5 -35.5t-42.5 -97.5l-10 -58q24 -21 72 -21
q58 0 93.5 39t35.5 103q0 33 -18.5 51.5t-52.5 18.5z" />
    <glyph glyph-name="q" unicode="q" horiz-adv-x="635" 
d="M632 510q-10 -49 -19.5 -94t-17.5 -91l-92 -525h-186l35 197l19 75q-64 -83 -154 -83q-91 0 -144 55.5t-53 152.5q0 69 24 128t67.5 103t101.5 68.5t126 24.5q88 0 147 -51l24 40h122zM283 149q46 0 77.5 35.5t42.5 97.5l10 58q-24 21 -72 21q-58 0 -93.5 -39t-35.5 -103
q0 -33 18.5 -51.5t52.5 -18.5z" />
    <glyph glyph-name="r" unicode="r" horiz-adv-x="443" 
d="M442 333q-20 10 -50 10q-79 0 -123.5 -83t-75.5 -260h-186l60 340q10 56 15.5 97.5t9.5 76.5h180q-2 -29 -9.5 -65.5t-17.5 -74.5q37 76 89.5 111.5t108.5 35.5q17 0 32.5 -2t31.5 -8z" />
    <glyph glyph-name="s" unicode="s" horiz-adv-x="499" 
d="M223 -11q-102 0 -168 40.5t-73 112.5l160 38q2 -22 28.5 -36t64.5 -14q26 0 43 7t17 18q0 12 -18 17.5t-46 10.5t-59.5 13t-59.5 24t-46 44t-18 73q0 60 35 101.5t92.5 62.5t123.5 21q56 0 100.5 -17.5t72 -48.5t32.5 -72l-158 -43q-4 19 -22.5 29.5t-47.5 10.5
q-22 0 -36.5 -6.5t-14.5 -17.5q0 -13 17.5 -20.5t45.5 -12.5t59.5 -13.5t59.5 -23.5t45.5 -41t17.5 -69q0 -62 -33 -104t-89 -63t-125 -21z" />
    <glyph glyph-name="t" unicode="t" horiz-adv-x="453" 
d="M257 -11q-71 0 -116.5 28t-63 76t-6.5 107l31 161h-82l27 153h85l20 104h184l-20 -104h154l-27 -153h-156l-28 -149q-7 -31 8 -47.5t46 -16.5q21 0 42.5 5.5t46.5 20.5l27 -140q-28 -22 -73.5 -33.5t-98.5 -11.5z" />
    <glyph glyph-name="u" unicode="u" horiz-adv-x="630" 
d="M191 -11q-100 0 -137 64t-17 174l21 113q11 56 15.5 97.5t6.5 76.5h186q-2 -37 -7.5 -86t-14.5 -94l-19 -94q-15 -78 39 -78t100.5 87.5t78.5 264.5h180l-59 -338q-17 -94 -17 -176h-179q0 47 11 99q-39 -55 -88 -82.5t-100 -27.5z" />
    <glyph glyph-name="v" unicode="v" horiz-adv-x="567" 
d="M448 514h192l-273 -514h-266l-70 514h194l40 -357z" />
    <glyph glyph-name="w" unicode="w" horiz-adv-x="903" 
d="M781 514h187l-261 -514h-233l-23 243l-115 -243h-234l-70 514h187l34 -337l160 337h174l31 -339z" />
    <glyph glyph-name="x" unicode="x" horiz-adv-x="532" 
d="M-79 0l238 274l-137 240h210l53 -100l82 100h233l-227 -259l146 -255h-210l-61 117l-94 -117h-233z" />
    <glyph glyph-name="y" unicode="y" horiz-adv-x="634" 
d="M170 -210q-32 0 -68.5 4.5t-69.5 14.5t-53 25l62 158q35 -19 72.5 -29.5t86.5 -10.5q79 0 118.5 34t58.5 106l4 14q-39 -47 -85.5 -70t-98.5 -23q-97 0 -136.5 64t-18.5 177l18 96q9 48 13.5 88.5t6.5 75.5h186q-2 -45 -7.5 -88.5t-13.5 -81.5l-15 -78q-7 -40 5 -60
t40 -20q35 0 64.5 29.5t56.5 101t52 197.5h180l-71 -402q-30 -168 -124.5 -245t-262.5 -77z" />
    <glyph glyph-name="z" unicode="z" horiz-adv-x="465" 
d="M-26 0l25 143l232 218h-188l27 153h432l-24 -134l-236 -227h198l-27 -153h-439z" />
    <glyph glyph-name="braceleft" unicode="{" horiz-adv-x="468" 
d="M304 -206q-77 8 -123 32.5t-66.5 59.5t-20.5 72q0 30 11 55t25.5 47t25.5 45t11 49q0 28 -21.5 43t-78.5 15l20 118q63 0 95 19t32 73q0 26 -8 55t-8 64q0 67 37 110t99 66.5t138 30.5l2 -115q-38 -1 -61 -21t-23 -58q0 -26 8.5 -51.5t8.5 -60.5q0 -71 -50 -112t-127 -57
q50 -11 76.5 -31.5t37 -45.5t10.5 -49q0 -31 -10.5 -56.5t-24.5 -47.5t-24.5 -42t-10.5 -40q0 -22 15.5 -39t42.5 -20z" />
    <glyph glyph-name="bar" unicode="|" horiz-adv-x="329" 
d="M-11 -200l166 940h189l-166 -940h-189z" />
    <glyph glyph-name="braceright" unicode="}" horiz-adv-x="468" 
d="M1 -206l-2 115q38 2 61 22t23 57q0 26 -8.5 52t-8.5 60q0 71 50 112t127 57q-50 11 -76.5 31.5t-37 45.5t-10.5 49q0 31 10.5 56.5t24.5 47.5t24.5 42t10.5 40q0 22 -15.5 39t-42.5 20l38 108q77 -8 123 -32.5t66.5 -59t20.5 -72.5q0 -30 -11 -55t-25.5 -47t-25.5 -45
t-11 -49q0 -28 21.5 -43t78.5 -15l-20 -118q-63 0 -95 -19t-32 -73q0 -26 8 -55t8 -64q0 -66 -37 -109.5t-99 -66.5t-138 -31z" />
    <glyph glyph-name="asciitilde" unicode="~" horiz-adv-x="600" 
d="M385 144q-36 0 -72 15t-67.5 29.5t-52.5 14.5q-27 0 -45 -8t-36 -28l-74 84q32 62 79.5 91t97.5 29q36 0 72 -15t67 -30t52 -15q27 0 45.5 8.5t36.5 28.5l74 -84q-31 -62 -79 -91t-98 -29z" />
    <glyph glyph-name="uni00A0" unicode="&#xa0;" horiz-adv-x="262" 
 />
    <glyph glyph-name="exclamdown" unicode="&#xa1;" horiz-adv-x="308" 
d="M181 305q-54 0 -85 32t-31 78q0 47 31 78.5t85 31.5t84.5 -31.5t30.5 -78.5q0 -46 -30.5 -78t-84.5 -32zM-44 -200l130 446h129l-47 -446h-212z" />
    <glyph glyph-name="cent" unicode="&#xa2;" horiz-adv-x="600" 
d="M216 -120l20 115q-78 17 -123 70.5t-45 132.5q0 81 32.5 147.5t90.5 110.5t136 59l21 119h126l-21 -118q50 -9 85.5 -36t52.5 -70l-147 -98q-15 48 -70 48q-52 0 -83 -39t-31 -95q0 -37 21 -57t58 -19q54 2 88 51l107 -103q-64 -85 -172 -104l-20 -114h-126z" />
    <glyph glyph-name="sterling" unicode="&#xa3;" horiz-adv-x="600" 
d="M50 -13l-57 127q35 10 65.5 35.5t50 60t19.5 71.5q0 5 -1 11h-118l23 128h73q-1 13 -1 27q0 87 40 148t108.5 93t153.5 32q101 0 164.5 -44.5t82.5 -131.5l-163 -67q-7 47 -33.5 62.5t-57.5 15.5q-46 0 -73 -27t-27 -77q0 -16 3 -31h127l-23 -128h-92q-5 -31 -18 -60
t-33 -55q12 4 17.5 5t19.5 1q26 0 49.5 -13t47.5 -13t40 10t33 27l92 -86q-34 -55 -88 -87.5t-104 -32.5q-38 0 -68 10.5l-60 21t-68 10.5q-25 0 -59 -11.5t-65 -31.5z" />
    <glyph glyph-name="currency" unicode="&#xa4;" horiz-adv-x="600" 
d="M131 60l-101 101l72 71q-27 53 -27 114q0 56 23 106l-68 66l101 101l61 -59q28 18 61 27.5t68 9.5q33 0 64 -8.5t58 -24.5l69 68l100 -101l-71 -71q26 -54 26 -114q0 -65 -31 -121l62 -62l-101 -102l-63 63q-53 -28 -113 -28q-33 0 -64 8.5t-57 23.5zM321 256q41 0 63 28
t22 62q0 35 -22 62.5t-63 28.5q-38 2 -61.5 -27t-23.5 -64q0 -34 22.5 -62t62.5 -28z" />
    <glyph glyph-name="yen" unicode="&#xa5;" horiz-adv-x="600" 
d="M34 100l22 127h143l8 43h-143l23 128h115l-141 312h216l76 -178l129 178h216l-250 -312h107l-23 -128h-127l-7 -43h126l-22 -127h-126l-18 -100h-199l18 100h-143z" />
    <glyph glyph-name="brokenbar" unicode="&#xa6;" horiz-adv-x="329" 
d="M91 380l64 360h189l-64 -360h-189zM-11 -200l64 360h189l-64 -360h-189z" />
    <glyph glyph-name="section" unicode="&#xa7;" horiz-adv-x="536" 
d="M225 -10q-69 0 -114 19t-68 50.5t-25 68.5l151 43q3 -18 19 -30.5t47 -12.5t40.5 8t9.5 16q0 13 -17.5 20.5t-44.5 14.5t-58 15.5t-58 23t-44.5 37.5t-17.5 58q0 45 24.5 76t64.5 49q-15 15 -24 35t-9 47q0 61 32 103.5t87 65t124 22.5t114 -19t68 -50.5t25 -68.5
l-151 -43q-3 18 -19 30.5t-47 12.5t-40.5 -8t-9.5 -16q0 -12 17.5 -20t44.5 -15t58 -15.5t58 -23t44.5 -37.5t17.5 -58q0 -45 -24.5 -76t-64.5 -49q15 -15 24 -35.5t9 -47.5q0 -61 -32 -103t-87 -64.5t-124 -22.5zM230 359q0 -14 24 -22t57 -17q12 3 20 11t8 19q0 14 -24 22
t-57 17q-12 -3 -20 -10.5t-8 -19.5z" />
    <glyph glyph-name="dieresis" unicode="&#xa8;" horiz-adv-x="673" 
d="M477 568q-34 0 -57 14.5t-34.5 37t-11.5 44.5q0 36 26 66t77 30q49 0 75.5 -30t26.5 -66q0 -22 -12 -44.5t-34.5 -37t-55.5 -14.5zM248 568q-34 0 -57 14.5t-34.5 37t-11.5 44.5q0 36 26 66t77 30q49 0 75.5 -30t26.5 -66q0 -22 -12 -44.5t-34.5 -37t-55.5 -14.5z" />
    <glyph glyph-name="copyright" unicode="&#xa9;" horiz-adv-x="839" 
d="M437 -16q-79 0 -147.5 27.5t-120 77t-80.5 116t-29 144.5t29 144.5t80 116t120 77t148 27.5q78 0 146 -27.5t119 -77t79.5 -116t28.5 -144.5t-28.5 -144.5t-79.5 -116t-119 -77t-146 -27.5zM437 51q62 0 116.5 22.5t95.5 63t64 95t23 118.5q0 63 -23 117.5t-64 94.5
t-95.5 62.5t-116.5 22.5q-63 0 -117.5 -22.5t-95 -62.5t-63.5 -94.5t-23 -117.5q0 -85 39.5 -152.5t107.5 -107t152 -39.5zM629 235q-28 -41 -77 -63.5t-105 -22.5q-109 0 -169.5 51t-60.5 142q0 63 29 110t81.5 73.5t121.5 26.5q64 0 106.5 -20.5t74.5 -66.5l-116 -75
q-10 21 -26 29t-34 8q-37 0 -59.5 -23t-22.5 -58q0 -34 20.5 -53t57.5 -19q18 0 35.5 9t31.5 33z" />
    <glyph glyph-name="ordfeminine" unicode="&#xaa;" horiz-adv-x="392" 
d="M398 459h-137l10 38q-17 -21 -38.5 -32.5t-50.5 -11.5q-52 0 -80.5 28.5t-28.5 80.5q0 53 23 95.5t63 67.5t92 25q61 0 84 -35l13 28h100zM259 638q-19 0 -30.5 -15t-11.5 -34q0 -25 25 -25q14 0 27.5 14t13.5 36q0 24 -24 24z" />
    <glyph glyph-name="guillemotleft" unicode="&#xab;" horiz-adv-x="620" 
d="M108 70l-83 146l14 74l133 146h200l-173 -186l103 -180h-194zM376 70l-83 146l14 74l133 146h200l-173 -186l103 -180h-194z" />
    <glyph glyph-name="logicalnot" unicode="&#xac;" horiz-adv-x="600" 
d="M51 341h528l-60 -341h-179l30 173h-349z" />
    <glyph glyph-name="uni00AD" unicode="&#xad;" horiz-adv-x="453" 
d="M46 176l29 165h333l-29 -165h-333z" />
    <glyph glyph-name="registered" unicode="&#xae;" horiz-adv-x="839" 
d="M437 -16q-79 0 -148 28t-120 77.5t-80 116t-29 143.5q0 78 28.5 144.5t80 116t120 77t148.5 27.5q79 0 146.5 -27.5t118.5 -77t79.5 -116t28.5 -144.5q0 -77 -28.5 -143.5t-79 -116t-118.5 -77.5t-147 -28zM437 51q63 0 117 22.5t95 63.5t64 95.5t23 117.5t-23 117
t-64 94.5t-95 63t-117 22.5t-117.5 -22.5t-95 -62.5t-63.5 -94.5t-23 -117.5q0 -85 39.5 -152.5t107.5 -107t152 -39.5zM583 150q-45 0 -70.5 11t-39.5 28t-21 35t-15 32.5t-22 20.5v-118h-151v391h155q98 0 149 -34t51 -101q0 -40 -22 -68t-61 -41q19 -4 27 -11.5t16 -13
t27 -5.5q26 0 41 12l28 -109q-9 -12 -36.5 -20.5t-55.5 -8.5zM420 451h-5v-75h4q29 0 38.5 12t9.5 27q0 20 -12 28t-35 8z" />
    <glyph glyph-name="macron" unicode="&#xaf;" horiz-adv-x="623" 
d="M166 716h360l-22 -122h-360z" />
    <glyph glyph-name="degree" unicode="&#xb0;" horiz-adv-x="408" 
d="M257 383q-49 0 -88.5 21.5t-62 59.5t-22.5 87q0 48 22.5 85.5t62 59t88.5 21.5t87.5 -21.5t61 -59t22.5 -85.5q0 -49 -22.5 -87t-61 -59.5t-87.5 -21.5zM257 490q23 0 41 17t18 45q0 27 -18 43.5t-41 16.5q-24 0 -42 -16.5t-18 -43.5q0 -28 18 -45t42 -17z" />
    <glyph glyph-name="plusminus" unicode="&#xb1;" horiz-adv-x="600" 
d="M264 514h162l-16 -91h120l-26 -148h-120l-16 -91h-162l16 91h-120l26 148h120zM-9 0l26 148h528l-26 -148h-528z" />
    <glyph glyph-name="uni00B2" unicode="&#xb2;" horiz-adv-x="330" 
d="M37 412q25 12 55.5 32t58.5 44.5t46 49t18 43.5q0 17 -19 17q-11 0 -23.5 -11.5t-19.5 -32.5l-95 55q26 50 72.5 78t104.5 28t92.5 -28t34.5 -78q0 -52 -35.5 -99t-101.5 -82h114l-19 -109h-299z" />
    <glyph glyph-name="uni00B3" unicode="&#xb3;" horiz-adv-x="330" 
d="M151 312q-40 0 -71 8t-50 19l50 112q20 -12 42 -17t41 -5q37 0 37 21q0 6 -5.5 10t-19.5 4h-28l17 94h11q15 0 25.5 6.5t10.5 19.5q0 14 -18 14q-9 0 -21 -7t-20 -21l-79 63q22 34 65 58t100 24q53 0 89 -24t36 -71q0 -33 -18 -61.5t-47 -41.5q18 -7 31 -23t13 -44
q0 -44 -29 -75t-72.5 -47t-89.5 -16z" />
    <glyph glyph-name="acute" unicode="&#xb4;" horiz-adv-x="639" 
d="M263 573l157 177l184 -45l-176 -132h-165z" />
    <glyph glyph-name="uni00B5" unicode="&#xb5;" horiz-adv-x="630" 
d="M443 514h180l-91 -514h-181l20 72q-36 -45 -73.5 -64t-72.5 -19t-56 13l-21 -202h-187l126 714h189l-50 -275q-14 -77 40 -77q25 0 47.5 13t44 49.5t42.5 106.5t43 183z" />
    <glyph glyph-name="paragraph" unicode="&#xb6;" horiz-adv-x="850" 
d="M675 710h194l-125 -710h-194zM41 433q0 88 44.5 149.5t121 94t170.5 32.5h229l-125 -709h-194l41 232h-22q-123 0 -194 51.5t-71 149.5z" />
    <glyph glyph-name="periodcentered" unicode="&#xb7;" horiz-adv-x="325" 
d="M164 145q-58 0 -91.5 34.5t-33.5 86.5t33.5 86t91.5 34t92 -34t34 -86t-34 -86.5t-92 -34.5z" />
    <glyph glyph-name="cedilla" unicode="&#xb8;" horiz-adv-x="618" 
d="M160 -223q-20 0 -46.5 3.5t-51 9t-38.5 12.5l44 84q18 -7 48.5 -13t58.5 -6q23 0 30.5 5.5t7.5 11.5t-6.5 10t-23.5 4h-77l79 120h114l-27 -48q81 -19 81 -80q0 -49 -50.5 -81t-142.5 -32z" />
    <glyph glyph-name="uni00B9" unicode="&#xb9;" horiz-adv-x="330" 
d="M58 428h90l17 93l-51 -31l-56 101l202 119h83l-50 -282h81l-19 -109h-316z" />
    <glyph glyph-name="ordmasculine" unicode="&#xba;" horiz-adv-x="372" 
d="M217 453q-67 0 -104.5 33.5t-37.5 88.5q0 48 24 88t69 63.5t108 23.5q68 0 105.5 -33.5t37.5 -88.5q0 -48 -24 -88t-69.5 -63.5t-108.5 -23.5zM237 558q23 0 36.5 18.5t13.5 37.5q0 14 -8 23t-21 9q-22 0 -36 -15t-14 -42q0 -13 7.5 -22t21.5 -9z" />
    <glyph glyph-name="guillemotright" unicode="&#xbb;" horiz-adv-x="620" 
d="M243 436l83 -146l-14 -74l-133 -146h-200l173 186l-103 180h194zM511 436l83 -146l-14 -74l-133 -146h-200l173 186l-103 180h194z" />
    <glyph glyph-name="onequarter" unicode="&#xbc;" horiz-adv-x="839" 
d="M58 428h90l17 93l-51 -31l-56 101l202 119h83l-50 -282h81l-19 -109h-316zM168 0l349 710h154l-349 -710h-154zM802 66h-38l-12 -66h-120l12 66h-162l14 77l223 249h103l-42 -237h38zM609 155h50l13 71z" />
    <glyph glyph-name="onehalf" unicode="&#xbd;" horiz-adv-x="839" 
d="M58 428h90l17 93l-51 -31l-56 101l202 119h83l-50 -282h81l-19 -109h-316zM168 0l349 710h154l-349 -710h-154zM490 93q25 12 55.5 32t58.5 44.5t46 49t18 43.5q0 17 -19 17q-11 0 -23.5 -11.5t-19.5 -32.5l-95 55q26 50 72.5 78t104.5 28t92.5 -28t34.5 -78
q0 -52 -35.5 -99t-101.5 -82h114l-19 -109h-299z" />
    <glyph glyph-name="threequarters" unicode="&#xbe;" horiz-adv-x="839" 
d="M151 312q-40 0 -71 8t-50 19l50 112q20 -12 42 -17t41 -5q37 0 37 21q0 6 -5.5 10t-19.5 4h-28l17 94h11q15 0 25.5 6.5t10.5 19.5q0 14 -18 14q-9 0 -21 -7t-20 -21l-79 63q22 34 65 58t100 24q53 0 89 -24t36 -71q0 -33 -18 -61.5t-47 -41.5q18 -7 31 -23t13 -44
q0 -44 -29 -75t-72.5 -47t-89.5 -16zM168 0l349 710h154l-349 -710h-154zM802 66h-38l-12 -66h-120l12 66h-162l14 77l223 249h103l-42 -237h38zM609 155h50l13 71z" />
    <glyph glyph-name="questiondown" unicode="&#xbf;" horiz-adv-x="511" 
d="M281 306q-50 0 -82.5 30t-32.5 78q0 50 31.5 81t83.5 31q53 0 84.5 -31t31.5 -79q0 -49 -31.5 -79.5t-84.5 -30.5zM183 -210q-91 0 -145 43.5t-54 119.5q0 59 29.5 102t88.5 84q33 23 52 39t28.5 32.5t13.5 38.5l139 -7q-2 -53 -13 -90.5t-32.5 -65t-57.5 -51.5
q-33 -22 -43 -33t-10 -22q0 -10 10 -16.5t33 -6.5q38 0 74 23t59 63l125 -81q-43 -81 -123 -126.5t-174 -45.5z" />
    <glyph glyph-name="Agrave" unicode="&#xc0;" horiz-adv-x="707" 
d="M-84 0l439 710h166l176 -710h-196l-28 127h-274l-75 -127h-208zM296 292h141l-39 175zM362 769l-127 132l199 45l93 -177h-165z" />
    <glyph glyph-name="Aacute" unicode="&#xc1;" horiz-adv-x="707" 
d="M-84 0l439 710h166l176 -710h-196l-28 127h-274l-75 -127h-208zM296 292h141l-39 175zM365 769l157 177l184 -45l-176 -132h-165z" />
    <glyph glyph-name="Acircumflex" unicode="&#xc2;" horiz-adv-x="707" 
d="M-84 0l439 710h166l176 -710h-196l-28 127h-274l-75 -127h-208zM296 292h141l-39 175zM656 769h-165l-30 55l-51 -55h-177l167 167h150z" />
    <glyph glyph-name="Atilde" unicode="&#xc3;" horiz-adv-x="707" 
d="M-84 0l439 710h166l176 -710h-196l-28 127h-274l-75 -127h-208zM296 292h141l-39 175zM524 762q-30 0 -59 12.5t-54.5 25t-47.5 12.5q-12 0 -31.5 -9.5t-35.5 -29.5l-60 61q26 58 68.5 85.5t92.5 27.5q30 0 59 -12t55.5 -24.5t46.5 -12.5q17 0 35.5 9t31.5 31l61 -60
q-27 -58 -69.5 -87t-92.5 -29z" />
    <glyph glyph-name="Adieresis" unicode="&#xc4;" horiz-adv-x="707" 
d="M-84 0l439 710h166l176 -710h-196l-28 127h-274l-75 -127h-208zM296 292h141l-39 175zM577 764q-34 0 -57 14.5t-34.5 37t-11.5 44.5q0 36 26 66t77 30q49 0 75.5 -30t26.5 -66q0 -22 -12 -44.5t-34.5 -37t-55.5 -14.5zM348 764q-34 0 -57 14.5t-34.5 37t-11.5 44.5
q0 36 26 66t77 30q49 0 75.5 -30t26.5 -66q0 -22 -12 -44.5t-34.5 -37t-55.5 -14.5z" />
    <glyph glyph-name="Aring" unicode="&#xc5;" horiz-adv-x="707" 
d="M-84 0l439 710h166l176 -710h-196l-28 127h-274l-75 -127h-208zM296 292h141l-39 175zM465 764q-35 0 -64.5 15.5t-47 42.5t-17.5 59q0 34 18 61.5t48 43.5t66 16q53 0 90 -33.5t37 -83.5q0 -34 -17.5 -61.5t-46.5 -43.5t-66 -16zM466 832q22 0 36.5 15t14.5 38
q0 21 -15 35t-35 14q-22 0 -37.5 -15t-15.5 -38q0 -22 15 -35.5t37 -13.5z" />
    <glyph glyph-name="AE" unicode="&#xc6;" horiz-adv-x="969" 
d="M-84 0l439 710h677l-30 -171h-309l-17 -97h283l-30 -171h-283l-18 -100h318l-43 -171h-504l22 124h-224l-73 -124h-208zM297 295h154l43 244h-53z" />
    <glyph glyph-name="Ccedilla" unicode="&#xc7;" horiz-adv-x="693" 
d="M697 138q-64 -80 -148.5 -115t-179.5 -34q-160 2 -245.5 77.5t-85.5 208.5q0 96 34 177t94.5 141t141 93.5t174.5 33.5q99 0 173.5 -36.5t107.5 -112.5l-164 -107q-15 37 -47.5 59t-88.5 22q-64 0 -114 -32t-79 -86.5t-29 -123.5q0 -64 40 -101t112 -37q44 0 91.5 23
t80.5 67zM300 -223q-20 0 -46.5 3.5t-51 9t-38.5 12.5l44 84q18 -7 48.5 -13t58.5 -6q23 0 30.5 5.5t7.5 11.5t-6.5 10t-23.5 4h-77l79 120h114l-27 -48q81 -19 81 -80q0 -49 -50.5 -81t-142.5 -32z" />
    <glyph glyph-name="Egrave" unicode="&#xc8;" horiz-adv-x="595" 
d="M243 171h329l-43 -171h-514l125 710h518l-30 -171h-322l-17 -97h296l-30 -171h-295zM327 769l-127 132l199 45l93 -177h-165z" />
    <glyph glyph-name="Eacute" unicode="&#xc9;" horiz-adv-x="595" 
d="M243 171h329l-43 -171h-514l125 710h518l-30 -171h-322l-17 -97h296l-30 -171h-295zM330 769l157 177l184 -45l-176 -132h-165z" />
    <glyph glyph-name="Ecircumflex" unicode="&#xca;" horiz-adv-x="595" 
d="M243 171h329l-43 -171h-514l125 710h518l-30 -171h-322l-17 -97h296l-30 -171h-295zM621 769h-165l-30 55l-51 -55h-177l167 167h150z" />
    <glyph glyph-name="Edieresis" unicode="&#xcb;" horiz-adv-x="595" 
d="M243 171h329l-43 -171h-514l125 710h518l-30 -171h-322l-17 -97h296l-30 -171h-295zM542 764q-34 0 -57 14.5t-34.5 37t-11.5 44.5q0 36 26 66t77 30q49 0 75.5 -30t26.5 -66q0 -22 -12 -44.5t-34.5 -37t-55.5 -14.5zM313 764q-34 0 -57 14.5t-34.5 37t-11.5 44.5
q0 36 26 66t77 30q49 0 75.5 -30t26.5 -66q0 -22 -12 -44.5t-34.5 -37t-55.5 -14.5z" />
    <glyph glyph-name="Igrave" unicode="&#xcc;" horiz-adv-x="320" 
d="M15 0l125 710h200l-125 -710h-200zM167 769l-127 132l199 45l93 -177h-165z" />
    <glyph glyph-name="Iacute" unicode="&#xcd;" horiz-adv-x="320" 
d="M15 0l125 710h200l-125 -710h-200zM170 769l157 177l184 -45l-176 -132h-165z" />
    <glyph glyph-name="Icircumflex" unicode="&#xce;" horiz-adv-x="320" 
d="M15 0l125 710h200l-125 -710h-200zM461 769h-165l-30 55l-51 -55h-177l167 167h150z" />
    <glyph glyph-name="Idieresis" unicode="&#xcf;" horiz-adv-x="320" 
d="M15 0l125 710h200l-125 -710h-200zM382 764q-34 0 -57 14.5t-34.5 37t-11.5 44.5q0 36 26 66t77 30q49 0 75.5 -30t26.5 -66q0 -22 -12 -44.5t-34.5 -37t-55.5 -14.5zM153 764q-34 0 -57 14.5t-34.5 37t-11.5 44.5q0 36 26 66t77 30q49 0 75.5 -30t26.5 -66
q0 -22 -12 -44.5t-34.5 -37t-55.5 -14.5z" />
    <glyph glyph-name="Eth" unicode="&#xd0;" horiz-adv-x="767" 
d="M15 0l125 710h241q188 0 284.5 -81t96.5 -218q0 -90 -33 -165.5t-92 -130.5t-138.5 -85t-172.5 -30h-311zM246 176h91q107 0 165 56t58 159q0 71 -45 107t-140 36h-66zM25 292l24 136h395l-24 -136h-395z" />
    <glyph glyph-name="Ntilde" unicode="&#xd1;" horiz-adv-x="765" 
d="M593 710h192l-125 -710h-178l-207 389l-68 -389h-192l125 710h178l207 -388zM552 765q-30 0 -59 12.5t-54.5 25t-47.5 12.5q-12 0 -31.5 -9.5t-35.5 -29.5l-60 61q26 58 68.5 85.5t92.5 27.5q30 0 59 -12t55.5 -24.5t46.5 -12.5q17 0 35.5 9t31.5 31l61 -60
q-27 -58 -69.5 -87t-92.5 -29z" />
    <glyph glyph-name="Ograve" unicode="&#xd2;" horiz-adv-x="786" 
d="M355 -10q-98 0 -169.5 34t-109.5 98t-38 153q0 96 33 177t93 141t141 93.5t177 33.5q92 0 159 -35.5t104 -100t37 -153.5q0 -93 -32.5 -173.5t-90.5 -140.5t-136 -93.5t-168 -33.5zM378 165q58 0 103 32t71.5 86.5t26.5 123.5q0 65 -34.5 101.5t-95.5 36.5
q-59 0 -106 -32t-74.5 -86.5t-27.5 -123.5q0 -64 36.5 -101t100.5 -37zM401 769l-127 132l199 45l93 -177h-165z" />
    <glyph glyph-name="Oacute" unicode="&#xd3;" horiz-adv-x="786" 
d="M355 -10q-98 0 -169.5 34t-109.5 98t-38 153q0 96 33 177t93 141t141 93.5t177 33.5q92 0 159 -35.5t104 -100t37 -153.5q0 -93 -32.5 -173.5t-90.5 -140.5t-136 -93.5t-168 -33.5zM378 165q58 0 103 32t71.5 86.5t26.5 123.5q0 65 -34.5 101.5t-95.5 36.5
q-59 0 -106 -32t-74.5 -86.5t-27.5 -123.5q0 -64 36.5 -101t100.5 -37zM404 769l157 177l184 -45l-176 -132h-165z" />
    <glyph glyph-name="Ocircumflex" unicode="&#xd4;" horiz-adv-x="786" 
d="M355 -10q-98 0 -169.5 34t-109.5 98t-38 153q0 96 33 177t93 141t141 93.5t177 33.5q92 0 159 -35.5t104 -100t37 -153.5q0 -93 -32.5 -173.5t-90.5 -140.5t-136 -93.5t-168 -33.5zM378 165q58 0 103 32t71.5 86.5t26.5 123.5q0 65 -34.5 101.5t-95.5 36.5
q-59 0 -106 -32t-74.5 -86.5t-27.5 -123.5q0 -64 36.5 -101t100.5 -37zM695 769h-165l-30 55l-51 -55h-177l167 167h150z" />
    <glyph glyph-name="Otilde" unicode="&#xd5;" horiz-adv-x="786" 
d="M355 -10q-98 0 -169.5 34t-109.5 98t-38 153q0 96 33 177t93 141t141 93.5t177 33.5q92 0 159 -35.5t104 -100t37 -153.5q0 -93 -32.5 -173.5t-90.5 -140.5t-136 -93.5t-168 -33.5zM378 165q58 0 103 32t71.5 86.5t26.5 123.5q0 65 -34.5 101.5t-95.5 36.5
q-59 0 -106 -32t-74.5 -86.5t-27.5 -123.5q0 -64 36.5 -101t100.5 -37zM563 762q-30 0 -59 12.5t-54.5 25t-47.5 12.5q-12 0 -31.5 -9.5t-35.5 -29.5l-60 61q26 58 68.5 85.5t92.5 27.5q30 0 59 -12t55.5 -24.5t46.5 -12.5q17 0 35.5 9t31.5 31l61 -60q-27 -58 -69.5 -87
t-92.5 -29z" />
    <glyph glyph-name="Odieresis" unicode="&#xd6;" horiz-adv-x="786" 
d="M355 -10q-98 0 -169.5 34t-109.5 98t-38 153q0 96 33 177t93 141t141 93.5t177 33.5q92 0 159 -35.5t104 -100t37 -153.5q0 -93 -32.5 -173.5t-90.5 -140.5t-136 -93.5t-168 -33.5zM378 165q58 0 103 32t71.5 86.5t26.5 123.5q0 65 -34.5 101.5t-95.5 36.5
q-59 0 -106 -32t-74.5 -86.5t-27.5 -123.5q0 -64 36.5 -101t100.5 -37zM616 764q-34 0 -57 14.5t-34.5 37t-11.5 44.5q0 36 26 66t77 30q49 0 75.5 -30t26.5 -66q0 -22 -12 -44.5t-34.5 -37t-55.5 -14.5zM387 764q-34 0 -57 14.5t-34.5 37t-11.5 44.5q0 36 26 66t77 30
q49 0 75.5 -30t26.5 -66q0 -22 -12 -44.5t-34.5 -37t-55.5 -14.5z" />
    <glyph glyph-name="multiply" unicode="&#xd7;" horiz-adv-x="600" 
d="M173 11l-119 119l127 127l-127 127l119 119l127 -127l127 127l119 -119l-127 -127l127 -127l-119 -119l-127 127z" />
    <glyph glyph-name="Oslash" unicode="&#xd8;" horiz-adv-x="786" 
d="M355 -10q-98 0 -169.5 34t-109.5 98t-38 153q0 96 33 177t93 141t141 93.5t177 33.5q92 0 159 -35.5t104 -100t37 -153.5q0 -93 -32.5 -173.5t-90.5 -140.5t-136 -93.5t-168 -33.5zM378 165q58 0 103 32t71.5 86.5t26.5 123.5q0 65 -34.5 101.5t-95.5 36.5
q-59 0 -106 -32t-74.5 -86.5t-27.5 -123.5q0 -64 36.5 -101t100.5 -37zM139 -29l-106 99l651 669l106 -99z" />
    <glyph glyph-name="Ugrave" unicode="&#xd9;" horiz-adv-x="774" 
d="M599 710h196l-67 -389q-28 -161 -124 -246.5t-251 -85.5q-105 0 -175 39t-99.5 110t-12.5 168l71 404h201l-70 -394q-27 -151 112 -151q65 0 102.5 39.5t51.5 123.5zM395 769l-127 132l199 45l93 -177h-165z" />
    <glyph glyph-name="Uacute" unicode="&#xda;" horiz-adv-x="774" 
d="M599 710h196l-67 -389q-28 -161 -124 -246.5t-251 -85.5q-105 0 -175 39t-99.5 110t-12.5 168l71 404h201l-70 -394q-27 -151 112 -151q65 0 102.5 39.5t51.5 123.5zM398 769l157 177l184 -45l-176 -132h-165z" />
    <glyph glyph-name="Ucircumflex" unicode="&#xdb;" horiz-adv-x="774" 
d="M599 710h196l-67 -389q-28 -161 -124 -246.5t-251 -85.5q-105 0 -175 39t-99.5 110t-12.5 168l71 404h201l-70 -394q-27 -151 112 -151q65 0 102.5 39.5t51.5 123.5zM689 769h-165l-30 55l-51 -55h-177l167 167h150z" />
    <glyph glyph-name="Udieresis" unicode="&#xdc;" horiz-adv-x="774" 
d="M599 710h196l-67 -389q-28 -161 -124 -246.5t-251 -85.5q-105 0 -175 39t-99.5 110t-12.5 168l71 404h201l-70 -394q-27 -151 112 -151q65 0 102.5 39.5t51.5 123.5zM610 764q-34 0 -57 14.5t-34.5 37t-11.5 44.5q0 36 26 66t77 30q49 0 75.5 -30t26.5 -66
q0 -22 -12 -44.5t-34.5 -37t-55.5 -14.5zM381 764q-34 0 -57 14.5t-34.5 37t-11.5 44.5q0 36 26 66t77 30q49 0 75.5 -30t26.5 -66q0 -22 -12 -44.5t-34.5 -37t-55.5 -14.5z" />
    <glyph glyph-name="Yacute" unicode="&#xdd;" horiz-adv-x="636" 
d="M739 710l-308 -394l-56 -316h-200l55 310l-179 400h212l95 -221l162 221h219zM333 769l157 177l184 -45l-176 -132h-165z" />
    <glyph glyph-name="Thorn" unicode="&#xde;" horiz-adv-x="656" 
d="M15 0l125 709l196 1l-16 -92h66q140 0 216 -52.5t76 -154.5q0 -89 -46 -149t-125 -90.5t-180 -30.5h-92l-25 -141h-195zM375 457h-84l-27 -154h82q71 0 101 22t30 66q0 31 -24.5 48.5t-77.5 17.5z" />
    <glyph glyph-name="germandbls" unicode="&#xdf;" horiz-adv-x="742" 
d="M10 361l26 153h94q33 108 122.5 172t222.5 64q64 0 113.5 -18t78 -51.5t28.5 -79.5q0 -44 -17 -74.5t-42 -52t-50.5 -37t-42.5 -29t-17 -29.5q0 -14 15.5 -22t39.5 -14t51 -14.5t51 -24t39.5 -41.5t15.5 -68q0 -63 -31.5 -109.5t-86.5 -71.5t-125 -25q-100 0 -152 36.5
t-67 103.5l172 39q2 -19 19 -30t41 -11q23 0 34 8.5t11 19.5q0 15 -21 24t-52.5 18t-63 23.5t-52.5 40.5t-21 69q0 44 18.5 74.5t46 52.5t54.5 40t45.5 36t18.5 40q0 37 -66 37q-60 0 -100.5 -32.5t-53.5 -104.5l-83 -473h-186l64 361h-91z" />
    <glyph glyph-name="agrave" unicode="&#xe0;" horiz-adv-x="635" 
d="M217 -11q-91 0 -144 55.5t-53 152.5q0 69 24 128t67.5 103t101.5 68.5t126 24.5q89 0 149 -52l27 41h122q-13 -49 -23 -94t-19 -91l-26 -149q-17 -93 -17 -176h-179q0 41 8 86q-66 -97 -164 -97zM283 149q46 0 78 35.5t42 97.5l10 58q-24 21 -72 21q-58 0 -93.5 -39
t-35.5 -103q0 -33 18.5 -51.5t52.5 -18.5zM298 573l-127 132l199 45l93 -177h-165z" />
    <glyph glyph-name="aacute" unicode="&#xe1;" horiz-adv-x="635" 
d="M217 -11q-91 0 -144 55.5t-53 152.5q0 69 24 128t67.5 103t101.5 68.5t126 24.5q89 0 149 -52l27 41h122q-13 -49 -23 -94t-19 -91l-26 -149q-17 -93 -17 -176h-179q0 41 8 86q-66 -97 -164 -97zM283 149q46 0 78 35.5t42 97.5l10 58q-24 21 -72 21q-58 0 -93.5 -39
t-35.5 -103q0 -33 18.5 -51.5t52.5 -18.5zM301 573l157 177l184 -45l-176 -132h-165z" />
    <glyph glyph-name="acircumflex" unicode="&#xe2;" horiz-adv-x="635" 
d="M217 -11q-91 0 -144 55.5t-53 152.5q0 69 24 128t67.5 103t101.5 68.5t126 24.5q89 0 149 -52l27 41h122q-13 -49 -23 -94t-19 -91l-26 -149q-17 -93 -17 -176h-179q0 41 8 86q-66 -97 -164 -97zM283 149q46 0 78 35.5t42 97.5l10 58q-24 21 -72 21q-58 0 -93.5 -39
t-35.5 -103q0 -33 18.5 -51.5t52.5 -18.5zM592 573h-165l-30 55l-51 -55h-177l167 167h150z" />
    <glyph glyph-name="atilde" unicode="&#xe3;" horiz-adv-x="635" 
d="M217 -11q-91 0 -144 55.5t-53 152.5q0 69 24 128t67.5 103t101.5 68.5t126 24.5q89 0 149 -52l27 41h122q-13 -49 -23 -94t-19 -91l-26 -149q-17 -93 -17 -176h-179q0 41 8 86q-66 -97 -164 -97zM283 149q46 0 78 35.5t42 97.5l10 58q-24 21 -72 21q-58 0 -93.5 -39
t-35.5 -103q0 -33 18.5 -51.5t52.5 -18.5zM460 566q-30 0 -59 12.5t-54.5 25t-47.5 12.5q-12 0 -31.5 -9.5t-35.5 -29.5l-60 61q26 58 68.5 85.5t92.5 27.5q30 0 59 -12t55.5 -24.5t46.5 -12.5q17 0 35.5 9t31.5 31l61 -60q-27 -58 -69.5 -87t-92.5 -29z" />
    <glyph glyph-name="adieresis" unicode="&#xe4;" horiz-adv-x="635" 
d="M217 -11q-91 0 -144 55.5t-53 152.5q0 69 24 128t67.5 103t101.5 68.5t126 24.5q89 0 149 -52l27 41h122q-13 -49 -23 -94t-19 -91l-26 -149q-17 -93 -17 -176h-179q0 41 8 86q-66 -97 -164 -97zM283 149q46 0 78 35.5t42 97.5l10 58q-24 21 -72 21q-58 0 -93.5 -39
t-35.5 -103q0 -33 18.5 -51.5t52.5 -18.5zM513 568q-34 0 -57 14.5t-34.5 37t-11.5 44.5q0 36 26 66t77 30q49 0 75.5 -30t26.5 -66q0 -22 -12 -44.5t-34.5 -37t-55.5 -14.5zM284 568q-34 0 -57 14.5t-34.5 37t-11.5 44.5q0 36 26 66t77 30q49 0 75.5 -30t26.5 -66
q0 -22 -12 -44.5t-34.5 -37t-55.5 -14.5z" />
    <glyph glyph-name="aring" unicode="&#xe5;" horiz-adv-x="635" 
d="M217 -11q-91 0 -144 55.5t-53 152.5q0 69 24 128t67.5 103t101.5 68.5t126 24.5q89 0 149 -52l27 41h122q-13 -49 -23 -94t-19 -91l-26 -149q-17 -93 -17 -176h-179q0 41 8 86q-66 -97 -164 -97zM283 149q46 0 78 35.5t42 97.5l10 58q-24 21 -72 21q-58 0 -93.5 -39
t-35.5 -103q0 -33 18.5 -51.5t52.5 -18.5zM401 568q-35 0 -64.5 15.5t-47 42.5t-17.5 59q0 34 18 61.5t48 43.5t66 16q53 0 90 -33.5t37 -83.5q0 -34 -17.5 -61.5t-46.5 -43.5t-66 -16zM402 636q22 0 36.5 15t14.5 38q0 21 -15 35t-35 14q-22 0 -37.5 -15t-15.5 -38
q0 -22 15 -35.5t37 -13.5z" />
    <glyph glyph-name="ae" unicode="&#xe6;" horiz-adv-x="842" 
d="M200 -11q-90 0 -141 42.5t-51 116.5q0 78 63 124.5t169 46.5h92l2 12q5 24 -11 36t-42 12q-49 0 -82 -43l-147 36q34 71 100.5 110t151.5 39q44 0 89 -13t72 -49q37 30 84 46t95 16q84 0 137 -42.5t53 -114.5q0 -67 -45 -111.5t-140 -44.5h-147q2 -29 29.5 -45.5
t72.5 -16.5q27 0 53 9.5t45 26.5l77 -113q-42 -40 -95.5 -60t-112.5 -20q-56 0 -102 20.5t-76 62.5q-36 -47 -86 -65t-107 -18zM623 390q-74 0 -100 -71h106q43 0 43 35q0 16 -12.5 26t-36.5 10zM236 123q62 0 73 65l3 20h-61q-63 0 -63 -47q0 -38 48 -38z" />
    <glyph glyph-name="ccedilla" unicode="&#xe7;" horiz-adv-x="501" 
d="M253 -11q-71 0 -123.5 26t-81 73t-28.5 110q0 93 42 166t116 115t170 42q72 0 122.5 -28t72.5 -83l-147 -98q-15 48 -70 48q-52 0 -83 -39t-31 -95q0 -37 21 -57t58 -19q54 2 88 51l107 -103q-40 -54 -99.5 -81.5t-133.5 -27.5zM186 -223q-20 0 -46.5 3.5t-51 9
t-38.5 12.5l44 84q18 -7 48.5 -13t58.5 -6q23 0 30.5 5.5t7.5 11.5t-6.5 10t-23.5 4h-77l79 120h114l-27 -48q81 -19 81 -80q0 -49 -50.5 -81t-142.5 -32z" />
    <glyph glyph-name="egrave" unicode="&#xe8;" horiz-adv-x="552" 
d="M268 -11q-74 0 -129.5 27.5t-86 77t-30.5 115.5t24 123t67.5 99.5t101.5 66t126 23.5q94 0 148.5 -42.5t54.5 -114.5q0 -67 -42 -107.5t-120 -46.5l-174 -14q7 -23 34 -36.5t69 -13.5q62 0 101 36l77 -113q-85 -80 -221 -80zM330 390q-83 0 -107 -83l114 9q46 3 46 38
q0 17 -14 26.5t-39 9.5zM264 573l-127 132l199 45l93 -177h-165z" />
    <glyph glyph-name="eacute" unicode="&#xe9;" horiz-adv-x="552" 
d="M268 -11q-74 0 -129.5 27.5t-86 77t-30.5 115.5t24 123t67.5 99.5t101.5 66t126 23.5q94 0 148.5 -42.5t54.5 -114.5q0 -67 -42 -107.5t-120 -46.5l-174 -14q7 -23 34 -36.5t69 -13.5q62 0 101 36l77 -113q-85 -80 -221 -80zM330 390q-83 0 -107 -83l114 9q46 3 46 38
q0 17 -14 26.5t-39 9.5zM267 573l157 177l184 -45l-176 -132h-165z" />
    <glyph glyph-name="ecircumflex" unicode="&#xea;" horiz-adv-x="552" 
d="M268 -11q-74 0 -129.5 27.5t-86 77t-30.5 115.5t24 123t67.5 99.5t101.5 66t126 23.5q94 0 148.5 -42.5t54.5 -114.5q0 -67 -42 -107.5t-120 -46.5l-174 -14q7 -23 34 -36.5t69 -13.5q62 0 101 36l77 -113q-85 -80 -221 -80zM330 390q-83 0 -107 -83l114 9q46 3 46 38
q0 17 -14 26.5t-39 9.5zM558 573h-165l-30 55l-51 -55h-177l167 167h150z" />
    <glyph glyph-name="edieresis" unicode="&#xeb;" horiz-adv-x="552" 
d="M268 -11q-74 0 -129.5 27.5t-86 77t-30.5 115.5t24 123t67.5 99.5t101.5 66t126 23.5q94 0 148.5 -42.5t54.5 -114.5q0 -67 -42 -107.5t-120 -46.5l-174 -14q7 -23 34 -36.5t69 -13.5q62 0 101 36l77 -113q-85 -80 -221 -80zM330 390q-83 0 -107 -83l114 9q46 3 46 38
q0 17 -14 26.5t-39 9.5zM479 568q-34 0 -57 14.5t-34.5 37t-11.5 44.5q0 36 26 66t77 30q49 0 75.5 -30t26.5 -66q0 -22 -12 -44.5t-34.5 -37t-55.5 -14.5zM250 568q-34 0 -57 14.5t-34.5 37t-11.5 44.5q0 36 26 66t77 30q49 0 75.5 -30t26.5 -66q0 -22 -12 -44.5t-34.5 -37
t-55.5 -14.5z" />
    <glyph glyph-name="igrave" unicode="&#xec;" horiz-adv-x="290" 
d="M14 0q0 38 6 73.5t11 66.5l35 200q10 56 15 97.5t7 76.5h186q-2 -37 -8 -86t-14 -94l-33 -187q-7 -41 -12.5 -76t-5.5 -71h-187zM108 573l-127 132l199 45l93 -177h-165z" />
    <glyph glyph-name="iacute" unicode="&#xed;" horiz-adv-x="290" 
d="M14 0q0 38 6 73.5t11 66.5l35 200q10 56 15 97.5t7 76.5h186q-2 -37 -8 -86t-14 -94l-33 -187q-7 -41 -12.5 -76t-5.5 -71h-187zM111 573l157 177l184 -45l-176 -132h-165z" />
    <glyph glyph-name="icircumflex" unicode="&#xee;" horiz-adv-x="290" 
d="M14 0q0 38 6 73.5t11 66.5l35 200q10 56 15 97.5t7 76.5h186q-2 -37 -8 -86t-14 -94l-33 -187q-7 -41 -12.5 -76t-5.5 -71h-187zM402 573h-165l-30 55l-51 -55h-177l167 167h150z" />
    <glyph glyph-name="idieresis" unicode="&#xef;" horiz-adv-x="290" 
d="M14 0q0 38 6 73.5t11 66.5l35 200q10 56 15 97.5t7 76.5h186q-2 -37 -8 -86t-14 -94l-33 -187q-7 -41 -12.5 -76t-5.5 -71h-187zM323 568q-34 0 -57 14.5t-34.5 37t-11.5 44.5q0 36 26 66t77 30q49 0 75.5 -30t26.5 -66q0 -22 -12 -44.5t-34.5 -37t-55.5 -14.5zM94 568
q-34 0 -57 14.5t-34.5 37t-11.5 44.5q0 36 26 66t77 30q49 0 75.5 -30t26.5 -66q0 -22 -12 -44.5t-34.5 -37t-55.5 -14.5z" />
    <glyph glyph-name="eth" unicode="&#xf0;" horiz-adv-x="633" 
d="M271 -11q-75 0 -131 26.5t-87.5 74.5t-31.5 112q0 76 37.5 136.5t101 96t142.5 35.5q50 0 83.5 -10.5t55.5 -34.5q-11 45 -42 84l-192 -32l-18 103l95 16q-36 17 -78 27l83 135q144 -37 232 -123l125 21l17 -104l-71 -12q38 -75 38 -163q0 -115 -45.5 -202.5t-126 -136.5
t-187.5 -49zM306 149q47 0 76 26.5t29 68.5q0 35 -23 54.5t-63 19.5q-54 0 -82 -26t-28 -67q0 -34 25 -55t66 -21z" />
    <glyph glyph-name="ntilde" unicode="&#xf1;" horiz-adv-x="644" 
d="M7 0l60 340q10 56 15.5 97.5t9.5 76.5h180q-4 -55 -21 -114q40 58 94.5 89.5t117.5 31.5q94 0 132.5 -65.5t10.5 -178.5l-32 -130q-9 -40 -13.5 -75.5t-4.5 -71.5h-187q0 38 4 71.5t13 68.5l32 129q11 43 2 62t-38 19q-126 0 -189 -350h-186zM460 566q-30 0 -59 12.5
t-54.5 25t-47.5 12.5q-12 0 -31.5 -9.5t-35.5 -29.5l-60 61q26 58 68.5 85.5t92.5 27.5q30 0 59 -12t55.5 -24.5t46.5 -12.5q17 0 35.5 9t31.5 31l61 -60q-27 -58 -69.5 -87t-92.5 -29z" />
    <glyph glyph-name="ograve" unicode="&#xf2;" horiz-adv-x="607" 
d="M355 521q111 0 171.5 -57t60.5 -152q0 -69 -25 -128t-70.5 -102.5t-106.5 -68t-133 -24.5q-112 0 -172 57.5t-60 151.5q0 69 25 128t70.5 103t106.5 68t133 24zM287 149q49 0 78 39.5t29 94.5q0 78 -70 78q-51 0 -81.5 -39.5t-30.5 -95.5q0 -77 75 -77zM277 573l-127 132
l199 45l93 -177h-165z" />
    <glyph glyph-name="oacute" unicode="&#xf3;" horiz-adv-x="607" 
d="M355 521q111 0 171.5 -57t60.5 -152q0 -69 -25 -128t-70.5 -102.5t-106.5 -68t-133 -24.5q-112 0 -172 57.5t-60 151.5q0 69 25 128t70.5 103t106.5 68t133 24zM287 149q49 0 78 39.5t29 94.5q0 78 -70 78q-51 0 -81.5 -39.5t-30.5 -95.5q0 -77 75 -77zM280 573l157 177
l184 -45l-176 -132h-165z" />
    <glyph glyph-name="ocircumflex" unicode="&#xf4;" horiz-adv-x="607" 
d="M355 521q111 0 171.5 -57t60.5 -152q0 -69 -25 -128t-70.5 -102.5t-106.5 -68t-133 -24.5q-112 0 -172 57.5t-60 151.5q0 69 25 128t70.5 103t106.5 68t133 24zM287 149q49 0 78 39.5t29 94.5q0 78 -70 78q-51 0 -81.5 -39.5t-30.5 -95.5q0 -77 75 -77zM571 573h-165
l-30 55l-51 -55h-177l167 167h150z" />
    <glyph glyph-name="otilde" unicode="&#xf5;" horiz-adv-x="607" 
d="M355 521q111 0 171.5 -57t60.5 -152q0 -69 -25 -128t-70.5 -102.5t-106.5 -68t-133 -24.5q-112 0 -172 57.5t-60 151.5q0 69 25 128t70.5 103t106.5 68t133 24zM287 149q49 0 78 39.5t29 94.5q0 78 -70 78q-51 0 -81.5 -39.5t-30.5 -95.5q0 -77 75 -77zM439 566
q-30 0 -59 12.5t-54.5 25t-47.5 12.5q-12 0 -31.5 -9.5t-35.5 -29.5l-60 61q26 58 68.5 85.5t92.5 27.5q30 0 59 -12t55.5 -24.5t46.5 -12.5q17 0 35.5 9t31.5 31l61 -60q-27 -58 -69.5 -87t-92.5 -29z" />
    <glyph glyph-name="odieresis" unicode="&#xf6;" horiz-adv-x="607" 
d="M355 521q111 0 171.5 -57t60.5 -152q0 -69 -25 -128t-70.5 -102.5t-106.5 -68t-133 -24.5q-112 0 -172 57.5t-60 151.5q0 69 25 128t70.5 103t106.5 68t133 24zM287 149q49 0 78 39.5t29 94.5q0 78 -70 78q-51 0 -81.5 -39.5t-30.5 -95.5q0 -77 75 -77zM492 568
q-34 0 -57 14.5t-34.5 37t-11.5 44.5q0 36 26 66t77 30q49 0 75.5 -30t26.5 -66q0 -22 -12 -44.5t-34.5 -37t-55.5 -14.5zM263 568q-34 0 -57 14.5t-34.5 37t-11.5 44.5q0 36 26 66t77 30q49 0 75.5 -30t26.5 -66q0 -22 -12 -44.5t-34.5 -37t-55.5 -14.5z" />
    <glyph glyph-name="divide" unicode="&#xf7;" horiz-adv-x="600" 
d="M331 344q-39 0 -68.5 25.5t-29.5 64.5t29.5 64.5t68.5 25.5t68 -25.5t29 -64.5t-29 -64.5t-68 -25.5zM570 331l-26 -149h-514l26 149h514zM269 -11q-39 0 -68.5 25t-29.5 65q0 39 29.5 64.5t68.5 25.5t68 -25.5t29 -64.5q0 -40 -29 -65t-68 -25z" />
    <glyph glyph-name="oslash" unicode="&#xf8;" horiz-adv-x="607" 
d="M355 521q111 0 171.5 -57t60.5 -152q0 -69 -25 -128t-70.5 -102.5t-106.5 -68t-133 -24.5q-112 0 -172 57.5t-60 151.5q0 69 25 128t70.5 103t106.5 68t133 24zM287 149q49 0 78 39.5t29 94.5q0 78 -70 78q-51 0 -81.5 -39.5t-30.5 -95.5q0 -77 75 -77zM123 -22l-95 90
l57 59l100 79l178 184l63 84l57 59l95 -90l-57 -59l-100 -80l-179 -183l-62 -84z" />
    <glyph glyph-name="ugrave" unicode="&#xf9;" horiz-adv-x="630" 
d="M191 -11q-100 0 -137 64t-17 174l21 113q11 56 15.5 97.5t6.5 76.5h186q-2 -37 -7.5 -86t-14.5 -94l-19 -94q-15 -78 39 -78t100.5 87.5t78.5 264.5h180l-59 -338q-17 -94 -17 -176h-179q0 47 11 99q-39 -55 -88 -82.5t-100 -27.5zM287 573l-127 132l199 45l93 -177h-165
z" />
    <glyph glyph-name="uacute" unicode="&#xfa;" horiz-adv-x="630" 
d="M191 -11q-100 0 -137 64t-17 174l21 113q11 56 15.5 97.5t6.5 76.5h186q-2 -37 -7.5 -86t-14.5 -94l-19 -94q-15 -78 39 -78t100.5 87.5t78.5 264.5h180l-59 -338q-17 -94 -17 -176h-179q0 47 11 99q-39 -55 -88 -82.5t-100 -27.5zM290 573l157 177l184 -45l-176 -132
h-165z" />
    <glyph glyph-name="ucircumflex" unicode="&#xfb;" horiz-adv-x="630" 
d="M191 -11q-100 0 -137 64t-17 174l21 113q11 56 15.5 97.5t6.5 76.5h186q-2 -37 -7.5 -86t-14.5 -94l-19 -94q-15 -78 39 -78t100.5 87.5t78.5 264.5h180l-59 -338q-17 -94 -17 -176h-179q0 47 11 99q-39 -55 -88 -82.5t-100 -27.5zM581 573h-165l-30 55l-51 -55h-177
l167 167h150z" />
    <glyph glyph-name="udieresis" unicode="&#xfc;" horiz-adv-x="630" 
d="M191 -11q-100 0 -137 64t-17 174l21 113q11 56 15.5 97.5t6.5 76.5h186q-2 -37 -7.5 -86t-14.5 -94l-19 -94q-15 -78 39 -78t100.5 87.5t78.5 264.5h180l-59 -338q-17 -94 -17 -176h-179q0 47 11 99q-39 -55 -88 -82.5t-100 -27.5zM502 568q-34 0 -57 14.5t-34.5 37
t-11.5 44.5q0 36 26 66t77 30q49 0 75.5 -30t26.5 -66q0 -22 -12 -44.5t-34.5 -37t-55.5 -14.5zM273 568q-34 0 -57 14.5t-34.5 37t-11.5 44.5q0 36 26 66t77 30q49 0 75.5 -30t26.5 -66q0 -22 -12 -44.5t-34.5 -37t-55.5 -14.5z" />
    <glyph glyph-name="yacute" unicode="&#xfd;" horiz-adv-x="634" 
d="M170 -210q-32 0 -68.5 4.5t-69.5 14.5t-53 25l62 158q35 -19 72.5 -29.5t86.5 -10.5q79 0 118.5 34t58.5 106l4 14q-39 -47 -85.5 -70t-98.5 -23q-97 0 -136.5 64t-18.5 177l18 96q9 48 13.5 88.5t6.5 75.5h186q-2 -45 -7.5 -88.5t-13.5 -81.5l-15 -78q-7 -40 5 -60
t40 -20q35 0 64.5 29.5t56.5 101t52 197.5h180l-71 -402q-30 -168 -124.5 -245t-262.5 -77zM292 573l157 177l184 -45l-176 -132h-165z" />
    <glyph glyph-name="thorn" unicode="&#xfe;" horiz-adv-x="635" 
d="M157 -200h-186l166 940h186l-40 -227l-19 -75q64 83 154 83q92 0 144.5 -55.5t52.5 -152.5q0 -69 -24 -128t-67.5 -103t-101.5 -68.5t-126 -24.5q-57 0 -103 22l-1 -11zM352 361q-46 0 -77.5 -35.5t-42.5 -97.5l-10 -58q24 -21 72 -21q58 0 93.5 39t35.5 103
q0 33 -18.5 51.5t-52.5 18.5z" />
    <glyph glyph-name="ydieresis" unicode="&#xff;" horiz-adv-x="634" 
d="M170 -210q-32 0 -68.5 4.5t-69.5 14.5t-53 25l62 158q35 -19 72.5 -29.5t86.5 -10.5q79 0 118.5 34t58.5 106l4 14q-39 -47 -85.5 -70t-98.5 -23q-97 0 -136.5 64t-18.5 177l18 96q9 48 13.5 88.5t6.5 75.5h186q-2 -45 -7.5 -88.5t-13.5 -81.5l-15 -78q-7 -40 5 -60
t40 -20q35 0 64.5 29.5t56.5 101t52 197.5h180l-71 -402q-30 -168 -124.5 -245t-262.5 -77zM504 568q-34 0 -57 14.5t-34.5 37t-11.5 44.5q0 36 26 66t77 30q49 0 75.5 -30t26.5 -66q0 -22 -12 -44.5t-34.5 -37t-55.5 -14.5zM275 568q-34 0 -57 14.5t-34.5 37t-11.5 44.5
q0 36 26 66t77 30q49 0 75.5 -30t26.5 -66q0 -22 -12 -44.5t-34.5 -37t-55.5 -14.5z" />
    <glyph glyph-name="Amacron" unicode="&#x100;" horiz-adv-x="707" 
d="M-84 0l439 710h166l176 -710h-196l-28 127h-274l-75 -127h-208zM296 292h141l-39 175zM291 912h360l-22 -122h-360z" />
    <glyph glyph-name="amacron" unicode="&#x101;" horiz-adv-x="635" 
d="M217 -11q-91 0 -144 55.5t-53 152.5q0 69 24 128t67.5 103t101.5 68.5t126 24.5q89 0 149 -52l27 41h122q-13 -49 -23 -94t-19 -91l-26 -149q-17 -93 -17 -176h-179q0 41 8 86q-66 -97 -164 -97zM283 149q46 0 78 35.5t42 97.5l10 58q-24 21 -72 21q-58 0 -93.5 -39
t-35.5 -103q0 -33 18.5 -51.5t52.5 -18.5zM227 716h360l-22 -122h-360z" />
    <glyph glyph-name="Abreve" unicode="&#x102;" horiz-adv-x="707" 
d="M-84 0l439 710h166l176 -710h-196l-28 127h-274l-75 -127h-208zM296 292h141l-39 175zM550 949l115 -13q-8 -53 -36.5 -91.5t-71 -59.5t-92.5 -21q-90 0 -135.5 46.5t-44.5 125.5l119 13q3 -65 62 -65q60 0 84 65z" />
    <glyph glyph-name="abreve" unicode="&#x103;" horiz-adv-x="635" 
d="M217 -11q-91 0 -144 55.5t-53 152.5q0 69 24 128t67.5 103t101.5 68.5t126 24.5q89 0 149 -52l27 41h122q-13 -49 -23 -94t-19 -91l-26 -149q-17 -93 -17 -176h-179q0 41 8 86q-66 -97 -164 -97zM283 149q46 0 78 35.5t42 97.5l10 58q-24 21 -72 21q-58 0 -93.5 -39
t-35.5 -103q0 -33 18.5 -51.5t52.5 -18.5zM486 753l115 -13q-8 -53 -36.5 -91.5t-71 -59.5t-92.5 -21q-90 0 -135.5 46.5t-44.5 125.5l119 13q3 -65 62 -65q60 0 84 65z" />
    <glyph glyph-name="Aogonek" unicode="&#x104;" horiz-adv-x="707" 
d="M-84 0l439 710h166l176 -710h-196l-28 127h-274l-75 -127h-208zM296 292h141l-39 175zM590 -223q-67 0 -109 29t-42 78q0 42 26 73t65.5 52t80.5 32l86 -41q-61 -22 -80 -45t-19 -40q0 -28 33 -28q12 0 28.5 8t27.5 19l45 -87q-23 -24 -60.5 -37t-81.5 -13z" />
    <glyph glyph-name="aogonek" unicode="&#x105;" horiz-adv-x="635" 
d="M217 -11q-91 0 -144 55.5t-53 152.5q0 69 24 128t67.5 103t101.5 68.5t126 24.5q89 0 149 -52l27 41h122q-13 -49 -23 -94t-19 -91l-26 -149q-17 -93 -17 -176h-179q0 41 8 86q-66 -97 -164 -97zM283 149q46 0 78 35.5t42 97.5l10 58q-24 21 -72 21q-58 0 -93.5 -39
t-35.5 -103q0 -33 18.5 -51.5t52.5 -18.5zM445 -223q-67 0 -109 29t-42 78q0 42 26 73t65.5 52t80.5 32l86 -41q-61 -22 -80 -45t-19 -40q0 -28 33 -28q12 0 28.5 8t27.5 19l45 -87q-23 -24 -60.5 -37t-81.5 -13z" />
    <glyph glyph-name="Cacute" unicode="&#x106;" horiz-adv-x="693" 
d="M697 138q-64 -80 -148.5 -115t-179.5 -34q-160 2 -245.5 77.5t-85.5 208.5q0 96 34 177t94.5 141t141 93.5t174.5 33.5q99 0 173.5 -36.5t107.5 -112.5l-164 -107q-15 37 -47.5 59t-88.5 22q-64 0 -114 -32t-79 -86.5t-29 -123.5q0 -64 40 -101t112 -37q44 0 91.5 23
t80.5 67zM406 769l157 177l184 -45l-176 -132h-165z" />
    <glyph glyph-name="cacute" unicode="&#x107;" horiz-adv-x="501" 
d="M253 -11q-71 0 -123.5 26t-81 73t-28.5 110q0 93 42 166t116 115t170 42q72 0 122.5 -28t72.5 -83l-147 -98q-15 48 -70 48q-52 0 -83 -39t-31 -95q0 -37 21 -57t58 -19q54 2 88 51l107 -103q-40 -54 -99.5 -81.5t-133.5 -27.5zM253 573l157 177l184 -45l-176 -132h-165z
" />
    <glyph glyph-name="Ccircumflex" unicode="&#x108;" horiz-adv-x="693" 
d="M697 138q-64 -80 -148.5 -115t-179.5 -34q-160 2 -245.5 77.5t-85.5 208.5q0 96 34 177t94.5 141t141 93.5t174.5 33.5q99 0 173.5 -36.5t107.5 -112.5l-164 -107q-15 37 -47.5 59t-88.5 22q-64 0 -114 -32t-79 -86.5t-29 -123.5q0 -64 40 -101t112 -37q44 0 91.5 23
t80.5 67zM697 769h-165l-30 55l-51 -55h-177l167 167h150z" />
    <glyph glyph-name="ccircumflex" unicode="&#x109;" horiz-adv-x="501" 
d="M253 -11q-71 0 -123.5 26t-81 73t-28.5 110q0 93 42 166t116 115t170 42q72 0 122.5 -28t72.5 -83l-147 -98q-15 48 -70 48q-52 0 -83 -39t-31 -95q0 -37 21 -57t58 -19q54 2 88 51l107 -103q-40 -54 -99.5 -81.5t-133.5 -27.5zM544 573h-165l-30 55l-51 -55h-177
l167 167h150z" />
    <glyph glyph-name="Cdotaccent" unicode="&#x10a;" horiz-adv-x="693" 
d="M697 138q-64 -80 -148.5 -115t-179.5 -34q-160 2 -245.5 77.5t-85.5 208.5q0 96 34 177t94.5 141t141 93.5t174.5 33.5q99 0 173.5 -36.5t107.5 -112.5l-164 -107q-15 37 -47.5 59t-88.5 22q-64 0 -114 -32t-79 -86.5t-29 -123.5q0 -64 40 -101t112 -37q44 0 91.5 23
t80.5 67zM503 755q-52 0 -83 31.5t-31 75.5t30.5 75.5t83.5 31.5t83.5 -31.5t30.5 -75.5t-30.5 -75.5t-83.5 -31.5z" />
    <glyph glyph-name="cdotaccent" unicode="&#x10b;" horiz-adv-x="501" 
d="M253 -11q-71 0 -123.5 26t-81 73t-28.5 110q0 93 42 166t116 115t170 42q72 0 122.5 -28t72.5 -83l-147 -98q-15 48 -70 48q-52 0 -83 -39t-31 -95q0 -37 21 -57t58 -19q54 2 88 51l107 -103q-40 -54 -99.5 -81.5t-133.5 -27.5zM350 559q-52 0 -83 31.5t-31 75.5
t30.5 75.5t83.5 31.5t83.5 -31.5t30.5 -75.5t-30.5 -75.5t-83.5 -31.5z" />
    <glyph glyph-name="Ccaron" unicode="&#x10c;" horiz-adv-x="693" 
d="M697 138q-64 -80 -148.5 -115t-179.5 -34q-160 2 -245.5 77.5t-85.5 208.5q0 96 34 177t94.5 141t141 93.5t174.5 33.5q99 0 173.5 -36.5t107.5 -112.5l-164 -107q-15 37 -47.5 59t-88.5 22q-64 0 -114 -32t-79 -86.5t-29 -123.5q0 -64 40 -101t112 -37q44 0 91.5 23
t80.5 67zM411 769l-106 167l160 10l38 -68l63 68l161 -10l-166 -167h-150z" />
    <glyph glyph-name="ccaron" unicode="&#x10d;" horiz-adv-x="501" 
d="M253 -11q-71 0 -123.5 26t-81 73t-28.5 110q0 93 42 166t116 115t170 42q72 0 122.5 -28t72.5 -83l-147 -98q-15 48 -70 48q-52 0 -83 -39t-31 -95q0 -37 21 -57t58 -19q54 2 88 51l107 -103q-40 -54 -99.5 -81.5t-133.5 -27.5zM258 573l-106 167l160 10l38 -68l63 68
l161 -10l-166 -167h-150z" />
    <glyph glyph-name="Dcaron" unicode="&#x10e;" horiz-adv-x="767" 
d="M15 0l125 710h241q188 0 284.5 -81t96.5 -218q0 -90 -33 -165.5t-92 -130.5t-138.5 -85t-172.5 -30h-311zM246 176h91q107 0 165 56t58 159q0 71 -45 107t-140 36h-66zM397 769l-106 167l160 10l38 -68l63 68l161 -10l-166 -167h-150z" />
    <glyph glyph-name="dcaron" unicode="&#x10f;" horiz-adv-x="635" 
d="M217 -11q-91 0 -144 55.5t-53 152.5q0 69 24 128t67.5 103t101.5 68.5t126 24.5q56 0 101 -21l2 14l40 226h186l-99 -564q-7 -45 -12 -90.5t-5 -85.5h-179q0 41 8 86q-66 -97 -164 -97zM283 149q46 0 78 35.5t42 97.5l10 58q-24 21 -72 21q-58 0 -93.5 -39t-35.5 -103
q0 -33 18.5 -51.5t52.5 -18.5zM661 555l40 225h142l-79 -225h-103z" />
    <glyph glyph-name="Dcroat" unicode="&#x110;" horiz-adv-x="767" 
d="M15 0l125 710h241q188 0 284.5 -81t96.5 -218q0 -90 -33 -165.5t-92 -130.5t-138.5 -85t-172.5 -30h-311zM246 176h91q107 0 165 56t58 159q0 71 -45 107t-140 36h-66zM25 292l24 136h395l-24 -136h-395z" />
    <glyph glyph-name="dcroat" unicode="&#x111;" horiz-adv-x="635" 
d="M217 -11q-91 0 -144 55.5t-53 152.5q0 69 24 128t67.5 103t101.5 68.5t126 24.5q56 0 101 -21l2 14l40 226h186l-99 -564q-7 -45 -12 -90.5t-5 -85.5h-179q0 41 8 86q-66 -97 -164 -97zM283 149q46 0 78 35.5t42 97.5l10 58q-24 21 -72 21q-58 0 -93.5 -39t-35.5 -103
q0 -33 18.5 -51.5t52.5 -18.5zM271 565l23 130h428l-23 -130h-428z" />
    <glyph glyph-name="Emacron" unicode="&#x112;" horiz-adv-x="595" 
d="M243 171h329l-43 -171h-514l125 710h518l-30 -171h-322l-17 -97h296l-30 -171h-295zM256 912h360l-22 -122h-360z" />
    <glyph glyph-name="emacron" unicode="&#x113;" horiz-adv-x="552" 
d="M268 -11q-74 0 -129.5 27.5t-86 77t-30.5 115.5t24 123t67.5 99.5t101.5 66t126 23.5q94 0 148.5 -42.5t54.5 -114.5q0 -67 -42 -107.5t-120 -46.5l-174 -14q7 -23 34 -36.5t69 -13.5q62 0 101 36l77 -113q-85 -80 -221 -80zM330 390q-83 0 -107 -83l114 9q46 3 46 38
q0 17 -14 26.5t-39 9.5zM193 716h360l-22 -122h-360z" />
    <glyph glyph-name="Ebreve" unicode="&#x114;" horiz-adv-x="595" 
d="M243 171h329l-43 -171h-514l125 710h518l-30 -171h-322l-17 -97h296l-30 -171h-295zM515 949l115 -13q-8 -53 -36.5 -91.5t-71 -59.5t-92.5 -21q-90 0 -135.5 46.5t-44.5 125.5l119 13q3 -65 62 -65q60 0 84 65z" />
    <glyph glyph-name="ebreve" unicode="&#x115;" horiz-adv-x="552" 
d="M268 -11q-74 0 -129.5 27.5t-86 77t-30.5 115.5t24 123t67.5 99.5t101.5 66t126 23.5q94 0 148.5 -42.5t54.5 -114.5q0 -67 -42 -107.5t-120 -46.5l-174 -14q7 -23 34 -36.5t69 -13.5q62 0 101 36l77 -113q-85 -80 -221 -80zM330 390q-83 0 -107 -83l114 9q46 3 46 38
q0 17 -14 26.5t-39 9.5zM452 753l115 -13q-8 -53 -36.5 -91.5t-71 -59.5t-92.5 -21q-90 0 -135.5 46.5t-44.5 125.5l119 13q3 -65 62 -65q60 0 84 65z" />
    <glyph glyph-name="Edotaccent" unicode="&#x116;" horiz-adv-x="595" 
d="M243 171h329l-43 -171h-514l125 710h518l-30 -171h-322l-17 -97h296l-30 -171h-295zM427 755q-52 0 -83 31.5t-31 75.5t30.5 75.5t83.5 31.5t83.5 -31.5t30.5 -75.5t-30.5 -75.5t-83.5 -31.5z" />
    <glyph glyph-name="edotaccent" unicode="&#x117;" horiz-adv-x="552" 
d="M268 -11q-74 0 -129.5 27.5t-86 77t-30.5 115.5t24 123t67.5 99.5t101.5 66t126 23.5q94 0 148.5 -42.5t54.5 -114.5q0 -67 -42 -107.5t-120 -46.5l-174 -14q7 -23 34 -36.5t69 -13.5q62 0 101 36l77 -113q-85 -80 -221 -80zM330 390q-83 0 -107 -83l114 9q46 3 46 38
q0 17 -14 26.5t-39 9.5zM364 559q-52 0 -83 31.5t-31 75.5t30.5 75.5t83.5 31.5t83.5 -31.5t30.5 -75.5t-30.5 -75.5t-83.5 -31.5z" />
    <glyph glyph-name="Eogonek" unicode="&#x118;" horiz-adv-x="595" 
d="M243 171h329l-43 -171h-514l125 710h518l-30 -171h-322l-17 -97h296l-30 -171h-295zM422 -223q-67 0 -109 29t-42 78q0 42 26 73t65.5 52t80.5 32l86 -41q-61 -22 -80 -45t-19 -40q0 -28 33 -28q12 0 28.5 8t27.5 19l45 -87q-23 -24 -60.5 -37t-81.5 -13z" />
    <glyph glyph-name="eogonek" unicode="&#x119;" horiz-adv-x="552" 
d="M437 -173q-23 -24 -60.5 -37t-81.5 -13q-67 0 -109 29t-42 78q0 35 18.5 62.5t48.5 47.5q-87 15 -138 72t-51 143q0 66 24 123t67.5 99.5t101.5 66t126 23.5q94 0 148.5 -42.5t54.5 -114.5q0 -67 -42 -107.5t-120 -46.5l-174 -14q7 -23 34 -36.5t69 -13.5q62 0 101 36
l77 -113q-16 -16 -35 -28t-40 -23q-46 -23 -70 -42t-32.5 -34t-8.5 -27q0 -28 33 -28q12 0 28.5 8t27.5 19zM337 316q46 3 46 38q0 17 -14 26.5t-39 9.5q-83 0 -107 -83z" />
    <glyph glyph-name="Ecaron" unicode="&#x11a;" horiz-adv-x="595" 
d="M243 171h329l-43 -171h-514l125 710h518l-30 -171h-322l-17 -97h296l-30 -171h-295zM335 769l-106 167l160 10l38 -68l63 68l161 -10l-166 -167h-150z" />
    <glyph glyph-name="ecaron" unicode="&#x11b;" horiz-adv-x="552" 
d="M268 -11q-74 0 -129.5 27.5t-86 77t-30.5 115.5t24 123t67.5 99.5t101.5 66t126 23.5q94 0 148.5 -42.5t54.5 -114.5q0 -67 -42 -107.5t-120 -46.5l-174 -14q7 -23 34 -36.5t69 -13.5q62 0 101 36l77 -113q-85 -80 -221 -80zM330 390q-83 0 -107 -83l114 9q46 3 46 38
q0 17 -14 26.5t-39 9.5zM272 573l-106 167l160 10l38 -68l63 68l161 -10l-166 -167h-150z" />
    <glyph glyph-name="Gcircumflex" unicode="&#x11c;" horiz-adv-x="784" 
d="M447 403h326l-71 -403h-158l-2 44q-33 -29 -84.5 -42.5t-98.5 -12.5q-101 2 -173 37t-110 99t-38 150q0 96 35 177t97.5 141t145 93.5t176.5 33.5q106 0 189 -36t119 -110l-172 -110q-19 41 -63.5 61t-91.5 20q-64 0 -116.5 -32t-84 -86.5t-31.5 -123.5q0 -64 37.5 -101
t114.5 -37q57 0 99.5 22t57.5 55h-131zM697 769h-165l-30 55l-51 -55h-177l167 167h150z" />
    <glyph glyph-name="gcircumflex" unicode="&#x11d;" horiz-adv-x="639" 
d="M179 -210q-60 0 -116 12.5t-86 31.5l62 158q71 -40 161 -40q74 0 114 32t60 108v1q-64 -80 -155 -80t-144 53t-53 146q0 66 24.5 122t68 98t101.5 65.5t126 23.5q90 0 151 -51l26 40h122q-15 -59 -25 -102.5t-17 -82.5l-38 -215q-30 -169 -124 -244.5t-258 -75.5z
M284 173q47 0 80.5 28t42.5 81l11 60q-25 19 -75 19q-57 0 -93 -34t-36 -88q0 -31 18.5 -48.5t51.5 -17.5zM592 573h-165l-30 55l-51 -55h-177l167 167h150z" />
    <glyph glyph-name="Gbreve" unicode="&#x11e;" horiz-adv-x="784" 
d="M447 403h326l-71 -403h-158l-2 44q-33 -29 -84.5 -42.5t-98.5 -12.5q-101 2 -173 37t-110 99t-38 150q0 96 35 177t97.5 141t145 93.5t176.5 33.5q106 0 189 -36t119 -110l-172 -110q-19 41 -63.5 61t-91.5 20q-64 0 -116.5 -32t-84 -86.5t-31.5 -123.5q0 -64 37.5 -101
t114.5 -37q57 0 99.5 22t57.5 55h-131zM591 949l115 -13q-8 -53 -36.5 -91.5t-71 -59.5t-92.5 -21q-90 0 -135.5 46.5t-44.5 125.5l119 13q3 -65 62 -65q60 0 84 65z" />
    <glyph glyph-name="gbreve" unicode="&#x11f;" horiz-adv-x="639" 
d="M179 -210q-60 0 -116 12.5t-86 31.5l62 158q71 -40 161 -40q74 0 114 32t60 108v1q-64 -80 -155 -80t-144 53t-53 146q0 66 24.5 122t68 98t101.5 65.5t126 23.5q90 0 151 -51l26 40h122q-15 -59 -25 -102.5t-17 -82.5l-38 -215q-30 -169 -124 -244.5t-258 -75.5z
M284 173q47 0 80.5 28t42.5 81l11 60q-25 19 -75 19q-57 0 -93 -34t-36 -88q0 -31 18.5 -48.5t51.5 -17.5zM486 753l115 -13q-8 -53 -36.5 -91.5t-71 -59.5t-92.5 -21q-90 0 -135.5 46.5t-44.5 125.5l119 13q3 -65 62 -65q60 0 84 65z" />
    <glyph glyph-name="Gdotaccent" unicode="&#x120;" horiz-adv-x="784" 
d="M447 403h326l-71 -403h-158l-2 44q-33 -29 -84.5 -42.5t-98.5 -12.5q-101 2 -173 37t-110 99t-38 150q0 96 35 177t97.5 141t145 93.5t176.5 33.5q106 0 189 -36t119 -110l-172 -110q-19 41 -63.5 61t-91.5 20q-64 0 -116.5 -32t-84 -86.5t-31.5 -123.5q0 -64 37.5 -101
t114.5 -37q57 0 99.5 22t57.5 55h-131zM503 755q-52 0 -83 31.5t-31 75.5t30.5 75.5t83.5 31.5t83.5 -31.5t30.5 -75.5t-30.5 -75.5t-83.5 -31.5z" />
    <glyph glyph-name="gdotaccent" unicode="&#x121;" horiz-adv-x="639" 
d="M179 -210q-60 0 -116 12.5t-86 31.5l62 158q71 -40 161 -40q74 0 114 32t60 108v1q-64 -80 -155 -80t-144 53t-53 146q0 66 24.5 122t68 98t101.5 65.5t126 23.5q90 0 151 -51l26 40h122q-15 -59 -25 -102.5t-17 -82.5l-38 -215q-30 -169 -124 -244.5t-258 -75.5z
M284 173q47 0 80.5 28t42.5 81l11 60q-25 19 -75 19q-57 0 -93 -34t-36 -88q0 -31 18.5 -48.5t51.5 -17.5zM398 559q-52 0 -83 31.5t-31 75.5t30.5 75.5t83.5 31.5t83.5 -31.5t30.5 -75.5t-30.5 -75.5t-83.5 -31.5z" />
    <glyph glyph-name="uni0122" unicode="&#x122;" horiz-adv-x="784" 
d="M447 403h326l-71 -403h-158l-2 44q-33 -29 -84.5 -42.5t-98.5 -12.5q-101 2 -173 37t-110 99t-38 150q0 96 35 177t97.5 141t145 93.5t176.5 33.5q106 0 189 -36t119 -110l-172 -110q-19 41 -63.5 61t-91.5 20q-64 0 -116.5 -32t-84 -86.5t-31.5 -123.5q0 -64 37.5 -101
t114.5 -37q57 0 99.5 22t57.5 55h-131zM219 -230q20 25 27 45t7 33q0 15 -5.5 26t-5.5 24q0 23 27 40t64 17q45 0 67 -16.5t22 -42.5q0 -27 -18 -52.5t-46 -45t-57 -28.5h-82z" />
    <glyph glyph-name="uni0123" unicode="&#x123;" horiz-adv-x="639" 
d="M179 -210q-60 0 -116 12.5t-86 31.5l62 158q71 -40 161 -40q74 0 114 32t60 108v1q-64 -80 -155 -80t-144 53t-53 146q0 66 24.5 122t68 98t101.5 65.5t126 23.5q90 0 151 -51l26 40h122q-15 -59 -25 -102.5t-17 -82.5l-38 -215q-30 -169 -124 -244.5t-258 -75.5z
M284 173q47 0 80.5 28t42.5 81l11 60q-25 19 -75 19q-57 0 -93 -34t-36 -88q0 -31 18.5 -48.5t51.5 -17.5zM505 753q-20 -25 -27 -44.5t-7 -33.5q0 -15 5.5 -26t5.5 -24q0 -22 -26.5 -39.5t-64.5 -17.5q-45 0 -67 16.5t-22 42.5q0 27 18 52.5t46 45t57 28.5h82z" />
    <glyph glyph-name="Hcircumflex" unicode="&#x124;" horiz-adv-x="774" 
d="M15 0l125 710h200l-47 -267h254l47 267h200l-125 -710h-200l48 270h-254l-48 -270h-200zM688 769h-165l-30 55l-51 -55h-177l167 167h150z" />
    <glyph glyph-name="hcircumflex" unicode="&#x125;" horiz-adv-x="644" 
d="M7 0l130 740h186l-40 -226l-26 -106q40 54 92.5 83.5t113.5 29.5q94 0 132.5 -65.5t10.5 -178.5l-32 -130q-9 -40 -13.5 -75.5t-4.5 -71.5h-187q0 38 4 71.5t13 68.5l32 129q11 43 2 62t-38 19q-126 0 -189 -350h-186zM627 769h-165l-30 55l-51 -55h-177l167 167h150z
" />
    <glyph glyph-name="Hbar" unicode="&#x126;" horiz-adv-x="774" 
d="M15 0l125 710h200l-47 -267h254l47 267h200l-125 -710h-200l48 270h-254l-48 -270h-200zM60 502l24 136h740l-24 -136h-740z" />
    <glyph glyph-name="hbar" unicode="&#x127;" horiz-adv-x="644" 
d="M7 0l130 740h186l-40 -226l-26 -106q40 54 92.5 83.5t113.5 29.5q94 0 132.5 -65.5t10.5 -178.5l-32 -130q-9 -40 -13.5 -75.5t-4.5 -71.5h-187q0 38 4 71.5t13 68.5l32 129q11 43 2 62t-38 19q-126 0 -189 -350h-186zM46 565l23 130h428l-23 -130h-428z" />
    <glyph glyph-name="Itilde" unicode="&#x128;" horiz-adv-x="320" 
d="M15 0l125 710h200l-125 -710h-200zM329 762q-30 0 -59 12.5t-54.5 25t-47.5 12.5q-12 0 -31.5 -9.5t-35.5 -29.5l-60 61q26 58 68.5 85.5t92.5 27.5q30 0 59 -12t55.5 -24.5t46.5 -12.5q17 0 35.5 9t31.5 31l61 -60q-27 -58 -69.5 -87t-92.5 -29z" />
    <glyph glyph-name="itilde" unicode="&#x129;" horiz-adv-x="290" 
d="M14 0q0 38 6 73.5t11 66.5l35 200q10 56 15 97.5t7 76.5h186q-2 -37 -8 -86t-14 -94l-33 -187q-7 -41 -12.5 -76t-5.5 -71h-187zM270 566q-30 0 -59 12.5t-54.5 25t-47.5 12.5q-12 0 -31.5 -9.5t-35.5 -29.5l-60 61q26 58 68.5 85.5t92.5 27.5q30 0 59 -12t55.5 -24.5
t46.5 -12.5q17 0 35.5 9t31.5 31l61 -60q-27 -58 -69.5 -87t-92.5 -29z" />
    <glyph glyph-name="Imacron" unicode="&#x12a;" horiz-adv-x="320" 
d="M15 0l125 710h200l-125 -710h-200zM96 912h360l-22 -122h-360z" />
    <glyph glyph-name="imacron" unicode="&#x12b;" horiz-adv-x="290" 
d="M14 0q0 38 6 73.5t11 66.5l35 200q10 56 15 97.5t7 76.5h186q-2 -37 -8 -86t-14 -94l-33 -187q-7 -41 -12.5 -76t-5.5 -71h-187zM37 716h360l-22 -122h-360z" />
    <glyph glyph-name="Ibreve" unicode="&#x12c;" horiz-adv-x="320" 
d="M15 0l125 710h200l-125 -710h-200zM355 949l115 -13q-8 -53 -36.5 -91.5t-71 -59.5t-92.5 -21q-90 0 -135.5 46.5t-44.5 125.5l119 13q3 -65 62 -65q60 0 84 65z" />
    <glyph glyph-name="ibreve" unicode="&#x12d;" horiz-adv-x="290" 
d="M14 0q0 38 6 73.5t11 66.5l35 200q10 56 15 97.5t7 76.5h186q-2 -37 -8 -86t-14 -94l-33 -187q-7 -41 -12.5 -76t-5.5 -71h-187zM296 753l115 -13q-8 -53 -36.5 -91.5t-71 -59.5t-92.5 -21q-90 0 -135.5 46.5t-44.5 125.5l119 13q3 -65 62 -65q60 0 84 65z" />
    <glyph glyph-name="Iogonek" unicode="&#x12e;" horiz-adv-x="320" 
d="M15 0l125 710h200l-125 -710h-200zM109 -223q-62 0 -102.5 28.5t-40.5 77.5q0 42 26 73t66.5 52t84.5 33l72 -41q-50 -25 -70 -46t-20 -44q0 -10 6 -16.5t21 -6.5q9 0 21.5 7t20.5 20l46 -87q-22 -24 -56 -37t-75 -13z" />
    <glyph glyph-name="iogonek" unicode="&#x12f;" horiz-adv-x="290" 
d="M14 0q0 38 6 73.5t11 66.5l35 200q10 56 15 97.5t7 76.5h186q-2 -37 -8 -86t-14 -94l-33 -187q-7 -41 -12.5 -76t-5.5 -71h-187zM206 553q-52 0 -83 31.5t-31 75.5t30.5 75.5t83.5 31.5t83.5 -31.5t30.5 -75.5t-30.5 -75.5t-83.5 -31.5zM95 -223q-62 0 -102.5 28.5
t-40.5 77.5q0 42 26 73t66.5 52t84.5 33l72 -41q-50 -25 -70 -46t-20 -44q0 -10 6 -16.5t21 -6.5q9 0 21.5 7t20.5 20l46 -87q-22 -24 -56 -37t-75 -13z" />
    <glyph glyph-name="Idotaccent" unicode="&#x130;" horiz-adv-x="320" 
d="M15 0l125 710h200l-125 -710h-200zM267 755q-52 0 -83 31.5t-31 75.5t30.5 75.5t83.5 31.5t83.5 -31.5t30.5 -75.5t-30.5 -75.5t-83.5 -31.5z" />
    <glyph glyph-name="dotlessi" unicode="&#x131;" horiz-adv-x="290" 
d="M14 0q0 38 6 73.5t11 66.5l35 200q10 56 15 97.5t7 76.5h186q-2 -37 -8 -86t-14 -94l-33 -187q-7 -41 -12.5 -76t-5.5 -71h-187z" />
    <glyph glyph-name="Jcircumflex" unicode="&#x134;" horiz-adv-x="523" 
d="M178 -11q-96 0 -153 43t-74 122l174 73q6 -34 24 -48.5t43 -14.5q27 0 45.5 17.5t23.5 48.5l85 480h200l-81 -455q-23 -132 -97 -199t-190 -67zM667 769h-165l-30 55l-51 -55h-177l167 167h150z" />
    <glyph glyph-name="jcircumflex" unicode="&#x135;" horiz-adv-x="299" 
d="M76 341q10 56 15 97t7 76h184q-2 -37 -8 -86t-14 -94l-51 -289q-19 -112 -87.5 -175.5t-206.5 -63.5q-75 0 -122 15l49 152q22 -5 46.5 -8t43.5 -3q41 0 62.5 18.5t28.5 61.5zM411 573h-165l-30 55l-51 -55h-177l167 167h150z" />
    <glyph glyph-name="uni0136" unicode="&#x136;" horiz-adv-x="719" 
d="M15 0l125 710h200l-51 -292l302 292h244l-376 -358q21 -13 35.5 -32.5t23.5 -42.5l27 -67q10 -24 27.5 -35.5t46.5 -11.5q44 0 77 21l23 -154q-28 -20 -70 -31t-83 -11q-76 0 -123 28t-70 83l-46 111q-12 28 -26 41.5t-38 18.5l-48 -270h-200zM181 -230q20 25 27 45t7 33
q0 15 -5.5 26t-5.5 24q0 23 27 40t64 17q45 0 67 -16.5t22 -42.5q0 -27 -18 -52.5t-46 -45t-57 -28.5h-82z" />
    <glyph glyph-name="uni0137" unicode="&#x137;" horiz-adv-x="611" 
d="M7 0l130 740h186l-74 -420l209 194h227l-271 -250q19 -13 29 -37l17 -39q20 -46 74 -46q20 0 34.5 4.5t29.5 12.5l18 -136q-28 -17 -67 -26t-76 -9q-74 0 -116 26.5t-68 87.5l-17 39q-10 23 -20 38t-23 24l-36 -203h-186zM180 -230q20 25 27 45t7 33q0 15 -5.5 26
t-5.5 24q0 23 27 40t64 17q45 0 67 -16.5t22 -42.5q0 -27 -18 -52.5t-46 -45t-57 -28.5h-82z" />
    <glyph glyph-name="kgreenlandic" unicode="&#x138;" horiz-adv-x="611" 
d="M7 0l91 514h186l-34 -194l208 194h227l-271 -250q19 -13 29 -37l17 -39q20 -46 74 -46q20 0 34.5 4.5t29.5 12.5l18 -136q-28 -17 -67 -26t-76 -9q-74 0 -116 26.5t-68 87.5l-17 39q-10 23 -20 38t-23 24l-36 -203h-186z" />
    <glyph glyph-name="Lacute" unicode="&#x139;" horiz-adv-x="552" 
d="M15 0l125 710h200l-94 -536h296l-43 -174h-484zM170 769l157 177l184 -45l-176 -132h-165z" />
    <glyph glyph-name="lacute" unicode="&#x13a;" horiz-adv-x="327" 
d="M181 -11q-83 0 -120.5 48.5t-24.5 127.5l101 575h186l-98 -558q-4 -19 4.5 -27.5t24.5 -8.5q21 0 37 11l20 -132q-20 -17 -55 -26.5t-75 -9.5zM155 769l157 177l184 -45l-176 -132h-165z" />
    <glyph glyph-name="uni013B" unicode="&#x13b;" horiz-adv-x="552" 
d="M15 0l125 710h200l-94 -536h296l-43 -174h-484zM127 -230q20 25 27 45t7 33q0 15 -5.5 26t-5.5 24q0 23 27 40t64 17q45 0 67 -16.5t22 -42.5q0 -27 -18 -52.5t-46 -45t-57 -28.5h-82z" />
    <glyph glyph-name="uni013C" unicode="&#x13c;" horiz-adv-x="327" 
d="M181 -11q-83 0 -120.5 48.5t-24.5 127.5l101 575h186l-98 -558q-4 -19 4.5 -27.5t24.5 -8.5q21 0 37 11l20 -132q-20 -17 -55 -26.5t-75 -9.5zM-21 -230q20 25 27 45t7 33q0 15 -5.5 26t-5.5 24q0 23 27 40t64 17q45 0 67 -16.5t22 -42.5q0 -27 -18 -52.5t-46 -45
t-57 -28.5h-82z" />
    <glyph glyph-name="Lcaron" unicode="&#x13d;" horiz-adv-x="552" 
d="M15 0l125 710h200l-94 -536h296l-43 -174h-484zM408 525l40 225h142l-79 -225h-103z" />
    <glyph glyph-name="lcaron" unicode="&#x13e;" horiz-adv-x="327" 
d="M181 -11q-83 0 -120.5 48.5t-24.5 127.5l101 575h186l-98 -558q-4 -19 4.5 -27.5t24.5 -8.5q21 0 37 11l20 -132q-20 -17 -55 -26.5t-75 -9.5zM316 555l40 225h142l-79 -225h-103z" />
    <glyph glyph-name="Ldot" unicode="&#x13f;" horiz-adv-x="552" 
d="M15 0l125 710h200l-94 -536h296l-43 -174h-484zM491 345q-55 0 -87 31t-32 76q0 44 32 75.5t87 31.5t87.5 -31.5t32.5 -75.5q0 -45 -32.5 -76t-87.5 -31z" />
    <glyph glyph-name="ldot" unicode="&#x140;" horiz-adv-x="479" 
d="M181 -11q-83 0 -120.5 48.5t-24.5 127.5l101 575h186l-98 -558q-4 -19 4.5 -27.5t24.5 -8.5q21 0 37 11l20 -132q-20 -17 -55 -26.5t-75 -9.5zM423 343q-55 0 -87 31t-32 76q0 44 32 75.5t87 31.5t87.5 -31.5t32.5 -75.5q0 -45 -32.5 -76t-87.5 -31z" />
    <glyph glyph-name="Lslash" unicode="&#x141;" horiz-adv-x="552" 
d="M15 0l125 710h200l-94 -536h296l-43 -174h-484zM25 238l-59 123l480 221l57 -123z" />
    <glyph glyph-name="lslash" unicode="&#x142;" horiz-adv-x="327" 
d="M181 -11q-83 0 -120.5 48.5t-24.5 127.5l101 575h186l-98 -558q-4 -19 4.5 -27.5t24.5 -8.5q21 0 37 11l20 -132q-20 -17 -55 -26.5t-75 -9.5zM26 233l-59 101l340 190l60 -100z" />
    <glyph glyph-name="Nacute" unicode="&#x143;" horiz-adv-x="765" 
d="M593 710h192l-125 -710h-178l-207 389l-68 -389h-192l125 710h178l207 -388zM393 772l157 177l184 -45l-176 -132h-165z" />
    <glyph glyph-name="nacute" unicode="&#x144;" horiz-adv-x="644" 
d="M7 0l60 340q10 56 15.5 97.5t9.5 76.5h180q-4 -55 -21 -114q40 58 94.5 89.5t117.5 31.5q94 0 132.5 -65.5t10.5 -178.5l-32 -130q-9 -40 -13.5 -75.5t-4.5 -71.5h-187q0 38 4 71.5t13 68.5l32 129q11 43 2 62t-38 19q-126 0 -189 -350h-186zM301 573l157 177l184 -45
l-176 -132h-165z" />
    <glyph glyph-name="uni0145" unicode="&#x145;" horiz-adv-x="765" 
d="M593 710h192l-125 -710h-178l-207 389l-68 -389h-192l125 710h178l207 -388zM206 -230q20 25 27 45t7 33q0 15 -5.5 26t-5.5 24q0 23 27 40t64 17q45 0 67 -16.5t22 -42.5q0 -27 -18 -52.5t-46 -45t-57 -28.5h-82z" />
    <glyph glyph-name="uni0146" unicode="&#x146;" horiz-adv-x="644" 
d="M7 0l60 340q10 56 15.5 97.5t9.5 76.5h180q-4 -55 -21 -114q40 58 94.5 89.5t117.5 31.5q94 0 132.5 -65.5t10.5 -178.5l-32 -130q-9 -40 -13.5 -75.5t-4.5 -71.5h-187q0 38 4 71.5t13 68.5l32 129q11 43 2 62t-38 19q-126 0 -189 -350h-186zM149 -230q20 25 27 45t7 33
q0 15 -5.5 26t-5.5 24q0 23 27 40t64 17q45 0 67 -16.5t22 -42.5q0 -27 -18 -52.5t-46 -45t-57 -28.5h-82z" />
    <glyph glyph-name="Ncaron" unicode="&#x147;" horiz-adv-x="765" 
d="M593 710h192l-125 -710h-178l-207 389l-68 -389h-192l125 710h178l207 -388zM398 772l-106 167l160 10l38 -68l63 68l161 -10l-166 -167h-150z" />
    <glyph glyph-name="ncaron" unicode="&#x148;" horiz-adv-x="644" 
d="M7 0l60 340q10 56 15.5 97.5t9.5 76.5h180q-4 -55 -21 -114q40 58 94.5 89.5t117.5 31.5q94 0 132.5 -65.5t10.5 -178.5l-32 -130q-9 -40 -13.5 -75.5t-4.5 -71.5h-187q0 38 4 71.5t13 68.5l32 129q11 43 2 62t-38 19q-126 0 -189 -350h-186zM306 573l-106 167l160 10
l38 -68l63 68l161 -10l-166 -167h-150z" />
    <glyph glyph-name="napostrophe" unicode="&#x149;" horiz-adv-x="889" 
d="M-1 292q29 48 51.5 95.5t22.5 89.5q0 23 -4.5 41t-9 36.5t-4.5 42.5q0 39 19.5 67t52 43t71.5 15q53 0 81 -26t28 -73q0 -40 -19.5 -86t-51.5 -91t-69 -85t-73 -69h-95zM252 0l60 340q10 56 15.5 97.5t9.5 76.5h180q-4 -55 -21 -114q40 58 94.5 89.5t117.5 31.5
q94 0 132.5 -65.5t10.5 -178.5l-32 -130q-9 -40 -13.5 -75.5t-4.5 -71.5h-187q0 38 4 71.5t13 68.5l32 129q11 43 2 62t-38 19q-126 0 -189 -350h-186z" />
    <glyph glyph-name="Eng" unicode="&#x14a;" horiz-adv-x="765" 
d="M406 -211q-82 0 -141.5 41t-70.5 124l174 66q2 -27 14.5 -43t35.5 -16q18 0 33.5 12t19.5 36l1 9l-197 371l-68 -389h-192l124 710h178l208 -388l67 388h192l-117 -669q-24 -136 -92.5 -194t-168.5 -58z" />
    <glyph glyph-name="eng" unicode="&#x14b;" horiz-adv-x="644" 
d="M563 45q-14 -74 -45 -128t-85.5 -82.5t-139.5 -28.5q-34 0 -62.5 6t-48.5 13l56 144q17 -6 35.5 -9t33.5 -3q32 0 46.5 20t22.5 65l42 227q8 43 0.5 62t-36.5 19q-126 0 -189 -350h-186l60 340q10 56 15.5 97.5t9.5 76.5h180q-4 -55 -21 -114q40 58 94.5 89.5t117.5 31.5
q94 0 129 -65.5t14 -178.5z" />
    <glyph glyph-name="Omacron" unicode="&#x14c;" horiz-adv-x="786" 
d="M355 -10q-98 0 -169.5 34t-109.5 98t-38 153q0 96 33 177t93 141t141 93.5t177 33.5q92 0 159 -35.5t104 -100t37 -153.5q0 -93 -32.5 -173.5t-90.5 -140.5t-136 -93.5t-168 -33.5zM378 165q58 0 103 32t71.5 86.5t26.5 123.5q0 65 -34.5 101.5t-95.5 36.5
q-59 0 -106 -32t-74.5 -86.5t-27.5 -123.5q0 -64 36.5 -101t100.5 -37zM330 912h360l-22 -122h-360z" />
    <glyph glyph-name="omacron" unicode="&#x14d;" horiz-adv-x="607" 
d="M355 521q111 0 171.5 -57t60.5 -152q0 -69 -25 -128t-70.5 -102.5t-106.5 -68t-133 -24.5q-112 0 -172 57.5t-60 151.5q0 69 25 128t70.5 103t106.5 68t133 24zM287 149q49 0 78 39.5t29 94.5q0 78 -70 78q-51 0 -81.5 -39.5t-30.5 -95.5q0 -77 75 -77zM206 716h360
l-22 -122h-360z" />
    <glyph glyph-name="Obreve" unicode="&#x14e;" horiz-adv-x="786" 
d="M355 -10q-98 0 -169.5 34t-109.5 98t-38 153q0 96 33 177t93 141t141 93.5t177 33.5q92 0 159 -35.5t104 -100t37 -153.5q0 -93 -32.5 -173.5t-90.5 -140.5t-136 -93.5t-168 -33.5zM378 165q58 0 103 32t71.5 86.5t26.5 123.5q0 65 -34.5 101.5t-95.5 36.5
q-59 0 -106 -32t-74.5 -86.5t-27.5 -123.5q0 -64 36.5 -101t100.5 -37zM589 949l115 -13q-8 -53 -36.5 -91.5t-71 -59.5t-92.5 -21q-90 0 -135.5 46.5t-44.5 125.5l119 13q3 -65 62 -65q60 0 84 65z" />
    <glyph glyph-name="obreve" unicode="&#x14f;" horiz-adv-x="607" 
d="M355 521q111 0 171.5 -57t60.5 -152q0 -69 -25 -128t-70.5 -102.5t-106.5 -68t-133 -24.5q-112 0 -172 57.5t-60 151.5q0 69 25 128t70.5 103t106.5 68t133 24zM287 149q49 0 78 39.5t29 94.5q0 78 -70 78q-51 0 -81.5 -39.5t-30.5 -95.5q0 -77 75 -77zM465 753l115 -13
q-8 -53 -36.5 -91.5t-71 -59.5t-92.5 -21q-90 0 -135.5 46.5t-44.5 125.5l119 13q3 -65 62 -65q60 0 84 65z" />
    <glyph glyph-name="Ohungarumlaut" unicode="&#x150;" horiz-adv-x="786" 
d="M355 -10q-98 0 -169.5 34t-109.5 98t-38 153q0 96 33 177t93 141t141 93.5t177 33.5q92 0 159 -35.5t104 -100t37 -153.5q0 -93 -32.5 -173.5t-90.5 -140.5t-136 -93.5t-168 -33.5zM378 165q58 0 103 32t71.5 86.5t26.5 123.5q0 65 -34.5 101.5t-95.5 36.5
q-59 0 -106 -32t-74.5 -86.5t-27.5 -123.5q0 -64 36.5 -101t100.5 -37zM668 769h-143l106 177l160 -45zM443 769h-143l106 177l159 -45z" />
    <glyph glyph-name="ohungarumlaut" unicode="&#x151;" horiz-adv-x="607" 
d="M355 521q111 0 171.5 -57t60.5 -152q0 -69 -25 -128t-70.5 -102.5t-106.5 -68t-133 -24.5q-112 0 -172 57.5t-60 151.5q0 69 25 128t70.5 103t106.5 68t133 24zM287 149q49 0 78 39.5t29 94.5q0 78 -70 78q-51 0 -81.5 -39.5t-30.5 -95.5q0 -77 75 -77zM544 573h-143
l106 177l160 -45zM319 573h-143l106 177l159 -45z" />
    <glyph glyph-name="OE" unicode="&#x152;" horiz-adv-x="1018" 
d="M406 -7q-114 0 -196 38.5t-126.5 107.5t-44.5 160q0 53 14.5 111t48 112.5t89.5 98.5t139.5 70t198.5 26q50 0 99 -3.5t88 -3.5h367l-30 -171h-312l-17 -97h285l-30 -171h-285l-17 -100h318l-42 -171h-372q-44 0 -83.5 -3.5t-91.5 -3.5zM412 164q17 0 33.5 2t34.5 5
l64 368q-20 4 -35.5 5t-32.5 1q-109 0 -172 -61.5t-63 -164.5q0 -70 44.5 -112.5t126.5 -42.5z" />
    <glyph glyph-name="oe" unicode="&#x153;" horiz-adv-x="915" 
d="M351 521q59 0 101 -21t67 -58q39 37 89.5 58t108.5 21q84 0 137 -42.5t53 -114.5q0 -67 -42 -107.5t-120 -46.5l-168 -13q7 -24 33 -37.5t67 -13.5q27 0 53 9.5t45 26.5l77 -113q-42 -40 -95.5 -60t-112.5 -20q-60 0 -107 23t-75 65q-41 -41 -95.5 -64.5t-118.5 -23.5
q-109 0 -168.5 57.5t-59.5 151.5q0 69 25 128t70 103t105.5 68t130.5 24zM696 390q-80 0 -104 -82l111 8q43 3 43 38q0 17 -13.5 26.5t-36.5 9.5zM287 149q49 0 78 39.5t29 94.5q0 78 -70 78q-51 0 -81.5 -39.5t-30.5 -95.5q0 -77 75 -77z" />
    <glyph glyph-name="Racute" unicode="&#x154;" horiz-adv-x="686" 
d="M669 184l24 -154q-28 -19 -70.5 -30.5t-84.5 -11.5q-78 0 -122.5 27.5t-71.5 91.5l-43 103q-9 20 -19 30t-27 13l-44 -253h-196l125 710h231q291 0 291 -201q0 -93 -52 -154.5t-147 -82.5q31 -13 46 -43l14 -27q20 -39 73 -39q45 0 73 21zM350 549h-43l-25 -141h62
q119 0 119 79q0 32 -27 47t-86 15zM367 769l157 177l184 -45l-176 -132h-165z" />
    <glyph glyph-name="racute" unicode="&#x155;" horiz-adv-x="443" 
d="M442 333q-20 10 -50 10q-79 0 -123.5 -83t-75.5 -260h-186l60 340q10 56 15.5 97.5t9.5 76.5h180q-2 -29 -9.5 -65.5t-17.5 -74.5q37 76 89.5 111.5t108.5 35.5q17 0 32.5 -2t31.5 -8zM233 573l157 177l184 -45l-176 -132h-165z" />
    <glyph glyph-name="uni0156" unicode="&#x156;" horiz-adv-x="686" 
d="M669 184l24 -154q-28 -19 -70.5 -30.5t-84.5 -11.5q-78 0 -122.5 27.5t-71.5 91.5l-43 103q-9 20 -19 30t-27 13l-44 -253h-196l125 710h231q291 0 291 -201q0 -93 -52 -154.5t-147 -82.5q31 -13 46 -43l14 -27q20 -39 73 -39q45 0 73 21zM350 549h-43l-25 -141h62
q119 0 119 79q0 32 -27 47t-86 15zM180 -230q20 25 27 45t7 33q0 15 -5.5 26t-5.5 24q0 23 27 40t64 17q45 0 67 -16.5t22 -42.5q0 -27 -18 -52.5t-46 -45t-57 -28.5h-82z" />
    <glyph glyph-name="uni0157" unicode="&#x157;" horiz-adv-x="443" 
d="M442 333q-20 10 -50 10q-79 0 -123.5 -83t-75.5 -260h-186l60 340q10 56 15.5 97.5t9.5 76.5h180q-2 -29 -9.5 -65.5t-17.5 -74.5q37 76 89.5 111.5t108.5 35.5q17 0 32.5 -2t31.5 -8zM-31 -230q20 25 27 45t7 33q0 15 -5.5 26t-5.5 24q0 23 27 40t64 17q45 0 67 -16.5
t22 -42.5q0 -27 -18 -52.5t-46 -45t-57 -28.5h-82z" />
    <glyph glyph-name="Rcaron" unicode="&#x158;" horiz-adv-x="686" 
d="M669 184l24 -154q-28 -19 -70.5 -30.5t-84.5 -11.5q-78 0 -122.5 27.5t-71.5 91.5l-43 103q-9 20 -19 30t-27 13l-44 -253h-196l125 710h231q291 0 291 -201q0 -93 -52 -154.5t-147 -82.5q31 -13 46 -43l14 -27q20 -39 73 -39q45 0 73 21zM350 549h-43l-25 -141h62
q119 0 119 79q0 32 -27 47t-86 15zM372 769l-106 167l160 10l38 -68l63 68l161 -10l-166 -167h-150z" />
    <glyph glyph-name="rcaron" unicode="&#x159;" horiz-adv-x="443" 
d="M442 333q-20 10 -50 10q-79 0 -123.5 -83t-75.5 -260h-186l60 340q10 56 15.5 97.5t9.5 76.5h180q-2 -29 -9.5 -65.5t-17.5 -74.5q37 76 89.5 111.5t108.5 35.5q17 0 32.5 -2t31.5 -8zM238 573l-106 167l160 10l38 -68l63 68l161 -10l-166 -167h-150z" />
    <glyph glyph-name="Sacute" unicode="&#x15a;" horiz-adv-x="613" 
d="M270 -10q-132 0 -202 57t-71 166l190 27q-4 -38 23 -61.5t79 -23.5q47 0 72.5 13.5t25.5 37.5q0 20 -21.5 32.5t-55.5 23t-72.5 24t-72.5 35t-55.5 56.5t-21.5 88q0 80 42.5 137t114 87.5t156.5 30.5q109 0 173 -54t65 -147l-180 -30q0 29 -23 47.5t-60 18.5
q-35 0 -59 -15t-24 -41q0 -22 21.5 -35.5t56 -24t72.5 -23t72.5 -33t56 -54t21.5 -85.5q0 -79 -44.5 -136t-117.5 -87.5t-161 -30.5zM325 769l157 177l184 -45l-176 -132h-165z" />
    <glyph glyph-name="sacute" unicode="&#x15b;" horiz-adv-x="499" 
d="M223 -11q-102 0 -168 40.5t-73 112.5l160 38q2 -22 28.5 -36t64.5 -14q26 0 43 7t17 18q0 12 -18 17.5t-46 10.5t-59.5 13t-59.5 24t-46 44t-18 73q0 60 35 101.5t92.5 62.5t123.5 21q56 0 100.5 -17.5t72 -48.5t32.5 -72l-158 -43q-4 19 -22.5 29.5t-47.5 10.5
q-22 0 -36.5 -6.5t-14.5 -17.5q0 -13 17.5 -20.5t45.5 -12.5t59.5 -13.5t59.5 -23.5t45.5 -41t17.5 -69q0 -62 -33 -104t-89 -63t-125 -21zM197 573l157 177l184 -45l-176 -132h-165z" />
    <glyph glyph-name="Scircumflex" unicode="&#x15c;" horiz-adv-x="613" 
d="M270 -10q-132 0 -202 57t-71 166l190 27q-4 -38 23 -61.5t79 -23.5q47 0 72.5 13.5t25.5 37.5q0 20 -21.5 32.5t-55.5 23t-72.5 24t-72.5 35t-55.5 56.5t-21.5 88q0 80 42.5 137t114 87.5t156.5 30.5q109 0 173 -54t65 -147l-180 -30q0 29 -23 47.5t-60 18.5
q-35 0 -59 -15t-24 -41q0 -22 21.5 -35.5t56 -24t72.5 -23t72.5 -33t56 -54t21.5 -85.5q0 -79 -44.5 -136t-117.5 -87.5t-161 -30.5zM616 769h-165l-30 55l-51 -55h-177l167 167h150z" />
    <glyph glyph-name="scircumflex" unicode="&#x15d;" horiz-adv-x="499" 
d="M223 -11q-102 0 -168 40.5t-73 112.5l160 38q2 -22 28.5 -36t64.5 -14q26 0 43 7t17 18q0 12 -18 17.5t-46 10.5t-59.5 13t-59.5 24t-46 44t-18 73q0 60 35 101.5t92.5 62.5t123.5 21q56 0 100.5 -17.5t72 -48.5t32.5 -72l-158 -43q-4 19 -22.5 29.5t-47.5 10.5
q-22 0 -36.5 -6.5t-14.5 -17.5q0 -13 17.5 -20.5t45.5 -12.5t59.5 -13.5t59.5 -23.5t45.5 -41t17.5 -69q0 -62 -33 -104t-89 -63t-125 -21zM488 573h-165l-30 55l-51 -55h-177l167 167h150z" />
    <glyph glyph-name="Scedilla" unicode="&#x15e;" horiz-adv-x="613" 
d="M270 -10q-132 0 -202 57t-71 166l190 27q-4 -38 23 -61.5t79 -23.5q47 0 72.5 13.5t25.5 37.5q0 20 -21.5 32.5t-55.5 23t-72.5 24t-72.5 35t-55.5 56.5t-21.5 88q0 80 42.5 137t114 87.5t156.5 30.5q109 0 173 -54t65 -147l-180 -30q0 29 -23 47.5t-60 18.5
q-35 0 -59 -15t-24 -41q0 -22 21.5 -35.5t56 -24t72.5 -23t72.5 -33t56 -54t21.5 -85.5q0 -79 -44.5 -136t-117.5 -87.5t-161 -30.5zM219 -223q-20 0 -46.5 3.5t-51 9t-38.5 12.5l44 84q18 -7 48.5 -13t58.5 -6q23 0 30.5 5.5t7.5 11.5t-6.5 10t-23.5 4h-77l79 120h114
l-27 -48q81 -19 81 -80q0 -49 -50.5 -81t-142.5 -32z" />
    <glyph glyph-name="scedilla" unicode="&#x15f;" horiz-adv-x="499" 
d="M223 -11q-102 0 -168 40.5t-73 112.5l160 38q2 -22 28.5 -36t64.5 -14q26 0 43 7t17 18q0 12 -18 17.5t-46 10.5t-59.5 13t-59.5 24t-46 44t-18 73q0 60 35 101.5t92.5 62.5t123.5 21q56 0 100.5 -17.5t72 -48.5t32.5 -72l-158 -43q-4 19 -22.5 29.5t-47.5 10.5
q-22 0 -36.5 -6.5t-14.5 -17.5q0 -13 17.5 -20.5t45.5 -12.5t59.5 -13.5t59.5 -23.5t45.5 -41t17.5 -69q0 -62 -33 -104t-89 -63t-125 -21zM217 -223q-20 0 -46.5 3.5t-51 9t-38.5 12.5l44 84q18 -7 48.5 -13t58.5 -6q23 0 30.5 5.5t7.5 11.5t-6.5 10t-23.5 4h-77l79 120
h114l-27 -48q81 -19 81 -80q0 -49 -50.5 -81t-142.5 -32z" />
    <glyph glyph-name="Scaron" unicode="&#x160;" horiz-adv-x="613" 
d="M270 -10q-132 0 -202 57t-71 166l190 27q-4 -38 23 -61.5t79 -23.5q47 0 72.5 13.5t25.5 37.5q0 20 -21.5 32.5t-55.5 23t-72.5 24t-72.5 35t-55.5 56.5t-21.5 88q0 80 42.5 137t114 87.5t156.5 30.5q109 0 173 -54t65 -147l-180 -30q0 29 -23 47.5t-60 18.5
q-35 0 -59 -15t-24 -41q0 -22 21.5 -35.5t56 -24t72.5 -23t72.5 -33t56 -54t21.5 -85.5q0 -79 -44.5 -136t-117.5 -87.5t-161 -30.5zM330 769l-106 167l160 10l38 -68l63 68l161 -10l-166 -167h-150z" />
    <glyph glyph-name="scaron" unicode="&#x161;" horiz-adv-x="499" 
d="M223 -11q-102 0 -168 40.5t-73 112.5l160 38q2 -22 28.5 -36t64.5 -14q26 0 43 7t17 18q0 12 -18 17.5t-46 10.5t-59.5 13t-59.5 24t-46 44t-18 73q0 60 35 101.5t92.5 62.5t123.5 21q56 0 100.5 -17.5t72 -48.5t32.5 -72l-158 -43q-4 19 -22.5 29.5t-47.5 10.5
q-22 0 -36.5 -6.5t-14.5 -17.5q0 -13 17.5 -20.5t45.5 -12.5t59.5 -13.5t59.5 -23.5t45.5 -41t17.5 -69q0 -62 -33 -104t-89 -63t-125 -21zM202 573l-106 167l160 10l38 -68l63 68l161 -10l-166 -167h-150z" />
    <glyph glyph-name="uni0162" unicode="&#x162;" horiz-adv-x="611" 
d="M723 710l-60 -174h-208l-95 -536h-200l95 536h-222l31 174h659zM210 -223q-20 0 -46.5 3.5t-51 9t-38.5 12.5l44 84q18 -7 48.5 -13t58.5 -6q23 0 30.5 5.5t7.5 11.5t-6.5 10t-23.5 4h-77l79 120h114l-27 -48q81 -19 81 -80q0 -49 -50.5 -81t-142.5 -32z" />
    <glyph glyph-name="uni0163" unicode="&#x163;" horiz-adv-x="453" 
d="M257 -11q-71 0 -116.5 28t-63 76t-6.5 107l31 161h-82l27 153h85l20 104h184l-20 -104h154l-27 -153h-156l-28 -149q-7 -31 8 -47.5t46 -16.5q21 0 42.5 5.5t46.5 20.5l27 -140q-28 -22 -73.5 -33.5t-98.5 -11.5zM180 -223q-20 0 -46.5 3.5t-51 9t-38.5 12.5l44 84
q18 -7 48.5 -13t58.5 -6q23 0 30.5 5.5t7.5 11.5t-6.5 10t-23.5 4h-77l79 120h114l-27 -48q81 -19 81 -80q0 -49 -50.5 -81t-142.5 -32z" />
    <glyph glyph-name="Tcaron" unicode="&#x164;" horiz-adv-x="611" 
d="M723 710l-60 -174h-208l-95 -536h-200l95 536h-222l31 174h659zM321 769l-106 167l160 10l38 -68l63 68l161 -10l-166 -167h-150z" />
    <glyph glyph-name="tcaron" unicode="&#x165;" horiz-adv-x="453" 
d="M257 -11q-71 0 -116.5 28t-63 76t-6.5 107l31 161h-82l27 153h85l20 104h184l-20 -104h154l-27 -153h-156l-28 -149q-7 -31 8 -47.5t46 -16.5q21 0 42.5 5.5t46.5 20.5l27 -140q-28 -22 -73.5 -33.5t-98.5 -11.5zM359 555l40 225h142l-79 -225h-103z" />
    <glyph glyph-name="Tbar" unicode="&#x166;" horiz-adv-x="611" 
d="M723 710l-60 -174h-208l-95 -536h-200l95 536h-222l31 174h659zM73 292l24 136h478l-24 -136h-478z" />
    <glyph glyph-name="tbar" unicode="&#x167;" horiz-adv-x="453" 
d="M257 -11q-71 0 -116.5 28t-63 76t-6.5 107l31 161h-82l27 153h85l20 104h184l-20 -104h154l-27 -153h-156l-28 -149q-7 -31 8 -47.5t46 -16.5q21 0 42.5 5.5t46.5 20.5l27 -140q-28 -22 -73.5 -33.5t-98.5 -11.5zM18 202l23 130h367l-23 -130h-367z" />
    <glyph glyph-name="Utilde" unicode="&#x168;" horiz-adv-x="774" 
d="M599 710h196l-67 -389q-28 -161 -124 -246.5t-251 -85.5q-105 0 -175 39t-99.5 110t-12.5 168l71 404h201l-70 -394q-27 -151 112 -151q65 0 102.5 39.5t51.5 123.5zM557 762q-30 0 -59 12.5t-54.5 25t-47.5 12.5q-12 0 -31.5 -9.5t-35.5 -29.5l-60 61q26 58 68.5 85.5
t92.5 27.5q30 0 59 -12t55.5 -24.5t46.5 -12.5q17 0 35.5 9t31.5 31l61 -60q-27 -58 -69.5 -87t-92.5 -29z" />
    <glyph glyph-name="utilde" unicode="&#x169;" horiz-adv-x="630" 
d="M191 -11q-100 0 -137 64t-17 174l21 113q11 56 15.5 97.5t6.5 76.5h186q-2 -37 -7.5 -86t-14.5 -94l-19 -94q-15 -78 39 -78t100.5 87.5t78.5 264.5h180l-59 -338q-17 -94 -17 -176h-179q0 47 11 99q-39 -55 -88 -82.5t-100 -27.5zM449 566q-30 0 -59 12.5t-54.5 25
t-47.5 12.5q-12 0 -31.5 -9.5t-35.5 -29.5l-60 61q26 58 68.5 85.5t92.5 27.5q30 0 59 -12t55.5 -24.5t46.5 -12.5q17 0 35.5 9t31.5 31l61 -60q-27 -58 -69.5 -87t-92.5 -29z" />
    <glyph glyph-name="Umacron" unicode="&#x16a;" horiz-adv-x="774" 
d="M599 710h196l-67 -389q-28 -161 -124 -246.5t-251 -85.5q-105 0 -175 39t-99.5 110t-12.5 168l71 404h201l-70 -394q-27 -151 112 -151q65 0 102.5 39.5t51.5 123.5zM324 912h360l-22 -122h-360z" />
    <glyph glyph-name="umacron" unicode="&#x16b;" horiz-adv-x="630" 
d="M191 -11q-100 0 -137 64t-17 174l21 113q11 56 15.5 97.5t6.5 76.5h186q-2 -37 -7.5 -86t-14.5 -94l-19 -94q-15 -78 39 -78t100.5 87.5t78.5 264.5h180l-59 -338q-17 -94 -17 -176h-179q0 47 11 99q-39 -55 -88 -82.5t-100 -27.5zM216 716h360l-22 -122h-360z" />
    <glyph glyph-name="Ubreve" unicode="&#x16c;" horiz-adv-x="774" 
d="M599 710h196l-67 -389q-28 -161 -124 -246.5t-251 -85.5q-105 0 -175 39t-99.5 110t-12.5 168l71 404h201l-70 -394q-27 -151 112 -151q65 0 102.5 39.5t51.5 123.5zM583 949l115 -13q-8 -53 -36.5 -91.5t-71 -59.5t-92.5 -21q-90 0 -135.5 46.5t-44.5 125.5l119 13
q3 -65 62 -65q60 0 84 65z" />
    <glyph glyph-name="ubreve" unicode="&#x16d;" horiz-adv-x="630" 
d="M191 -11q-100 0 -137 64t-17 174l21 113q11 56 15.5 97.5t6.5 76.5h186q-2 -37 -7.5 -86t-14.5 -94l-19 -94q-15 -78 39 -78t100.5 87.5t78.5 264.5h180l-59 -338q-17 -94 -17 -176h-179q0 47 11 99q-39 -55 -88 -82.5t-100 -27.5zM475 753l115 -13q-8 -53 -36.5 -91.5
t-71 -59.5t-92.5 -21q-90 0 -135.5 46.5t-44.5 125.5l119 13q3 -65 62 -65q60 0 84 65z" />
    <glyph glyph-name="Uring" unicode="&#x16e;" horiz-adv-x="774" 
d="M599 710h196l-67 -389q-28 -161 -124 -246.5t-251 -85.5q-105 0 -175 39t-99.5 110t-12.5 168l71 404h201l-70 -394q-27 -151 112 -151q65 0 102.5 39.5t51.5 123.5zM498 764q-35 0 -64.5 15.5t-47 42.5t-17.5 59q0 34 18 61.5t48 43.5t66 16q53 0 90 -33.5t37 -83.5
q0 -34 -17.5 -61.5t-46.5 -43.5t-66 -16zM499 832q22 0 36.5 15t14.5 38q0 21 -15 35t-35 14q-22 0 -37.5 -15t-15.5 -38q0 -22 15 -35.5t37 -13.5z" />
    <glyph glyph-name="uring" unicode="&#x16f;" horiz-adv-x="630" 
d="M191 -11q-100 0 -137 64t-17 174l21 113q11 56 15.5 97.5t6.5 76.5h186q-2 -37 -7.5 -86t-14.5 -94l-19 -94q-15 -78 39 -78t100.5 87.5t78.5 264.5h180l-59 -338q-17 -94 -17 -176h-179q0 47 11 99q-39 -55 -88 -82.5t-100 -27.5zM390 568q-35 0 -64.5 15.5t-47 42.5
t-17.5 59q0 34 18 61.5t48 43.5t66 16q53 0 90 -33.5t37 -83.5q0 -34 -17.5 -61.5t-46.5 -43.5t-66 -16zM391 636q22 0 36.5 15t14.5 38q0 21 -15 35t-35 14q-22 0 -37.5 -15t-15.5 -38q0 -22 15 -35.5t37 -13.5z" />
    <glyph glyph-name="Uhungarumlaut" unicode="&#x170;" horiz-adv-x="774" 
d="M599 710h196l-67 -389q-28 -161 -124 -246.5t-251 -85.5q-105 0 -175 39t-99.5 110t-12.5 168l71 404h201l-70 -394q-27 -151 112 -151q65 0 102.5 39.5t51.5 123.5zM662 769h-143l106 177l160 -45zM437 769h-143l106 177l159 -45z" />
    <glyph glyph-name="uhungarumlaut" unicode="&#x171;" horiz-adv-x="630" 
d="M191 -11q-100 0 -137 64t-17 174l21 113q11 56 15.5 97.5t6.5 76.5h186q-2 -37 -7.5 -86t-14.5 -94l-19 -94q-15 -78 39 -78t100.5 87.5t78.5 264.5h180l-59 -338q-17 -94 -17 -176h-179q0 47 11 99q-39 -55 -88 -82.5t-100 -27.5zM554 573h-143l106 177l160 -45z
M329 573h-143l106 177l159 -45z" />
    <glyph glyph-name="Uogonek" unicode="&#x172;" horiz-adv-x="774" 
d="M599 710h196l-67 -389q-23 -135 -93 -213.5t-167 -107.5q-50 -15 -74.5 -30t-32.5 -29t-8 -26q0 -28 33 -28q12 0 28.5 8t27.5 19l45 -87q-23 -24 -60.5 -37t-81.5 -13q-67 0 -109 29t-42 78q0 37 20.5 65t51.5 48q-114 23 -168 104t-32 205l71 404h201l-70 -394
q-27 -151 112 -151q65 0 102.5 39.5t51.5 123.5z" />
    <glyph glyph-name="uogonek" unicode="&#x173;" horiz-adv-x="630" 
d="M191 -11q-100 0 -137 64t-17 174l21 113q11 56 15.5 97.5t6.5 76.5h186q-2 -37 -7.5 -86t-14.5 -94l-19 -94q-15 -78 39 -78t100.5 87.5t78.5 264.5h180l-59 -338q-17 -94 -17 -176h-179q0 47 11 99q-39 -55 -88 -82.5t-100 -27.5zM440 -223q-67 0 -109 29t-42 78
q0 42 26 73t65.5 52t80.5 32l86 -41q-61 -22 -80 -45t-19 -40q0 -28 33 -28q12 0 28.5 8t27.5 19l45 -87q-23 -24 -60.5 -37t-81.5 -13z" />
    <glyph glyph-name="Wcircumflex" unicode="&#x174;" horiz-adv-x="1047" 
d="M948 710h196l-331 -710h-225l-20 460l-210 -460h-225l-51 710h191l24 -435l197 435h238l19 -436zM843 769h-165l-30 55l-51 -55h-177l167 167h150z" />
    <glyph glyph-name="wcircumflex" unicode="&#x175;" horiz-adv-x="903" 
d="M781 514h187l-261 -514h-233l-23 243l-115 -243h-234l-70 514h187l34 -337l160 337h174l31 -339zM726 573h-165l-30 55l-51 -55h-177l167 167h150z" />
    <glyph glyph-name="Ycircumflex" unicode="&#x176;" horiz-adv-x="636" 
d="M739 710l-308 -394l-56 -316h-200l55 310l-179 400h212l95 -221l162 221h219zM624 769h-165l-30 55l-51 -55h-177l167 167h150z" />
    <glyph glyph-name="ycircumflex" unicode="&#x177;" horiz-adv-x="634" 
d="M170 -210q-32 0 -68.5 4.5t-69.5 14.5t-53 25l62 158q35 -19 72.5 -29.5t86.5 -10.5q79 0 118.5 34t58.5 106l4 14q-39 -47 -85.5 -70t-98.5 -23q-97 0 -136.5 64t-18.5 177l18 96q9 48 13.5 88.5t6.5 75.5h186q-2 -45 -7.5 -88.5t-13.5 -81.5l-15 -78q-7 -40 5 -60
t40 -20q35 0 64.5 29.5t56.5 101t52 197.5h180l-71 -402q-30 -168 -124.5 -245t-262.5 -77zM583 573h-165l-30 55l-51 -55h-177l167 167h150z" />
    <glyph glyph-name="Ydieresis" unicode="&#x178;" horiz-adv-x="636" 
d="M739 710l-308 -394l-56 -316h-200l55 310l-179 400h212l95 -221l162 221h219zM545 764q-34 0 -57 14.5t-34.5 37t-11.5 44.5q0 36 26 66t77 30q49 0 75.5 -30t26.5 -66q0 -22 -12 -44.5t-34.5 -37t-55.5 -14.5zM316 764q-34 0 -57 14.5t-34.5 37t-11.5 44.5q0 36 26 66
t77 30q49 0 75.5 -30t26.5 -66q0 -22 -12 -44.5t-34.5 -37t-55.5 -14.5z" />
    <glyph glyph-name="Zacute" unicode="&#x179;" horiz-adv-x="657" 
d="M-9 0l25 143l384 393h-295l31 174h573l-25 -143l-384 -393h327l-42 -174h-594zM344 769l157 177l184 -45l-176 -132h-165z" />
    <glyph glyph-name="zacute" unicode="&#x17a;" horiz-adv-x="465" 
d="M-26 0l25 143l232 218h-188l27 153h432l-24 -134l-236 -227h198l-27 -153h-439zM216 573l157 177l184 -45l-176 -132h-165z" />
    <glyph glyph-name="Zdotaccent" unicode="&#x17b;" horiz-adv-x="657" 
d="M-9 0l25 143l384 393h-295l31 174h573l-25 -143l-384 -393h327l-42 -174h-594zM441 755q-52 0 -83 31.5t-31 75.5t30.5 75.5t83.5 31.5t83.5 -31.5t30.5 -75.5t-30.5 -75.5t-83.5 -31.5z" />
    <glyph glyph-name="zdotaccent" unicode="&#x17c;" horiz-adv-x="465" 
d="M-26 0l25 143l232 218h-188l27 153h432l-24 -134l-236 -227h198l-27 -153h-439zM313 559q-52 0 -83 31.5t-31 75.5t30.5 75.5t83.5 31.5t83.5 -31.5t30.5 -75.5t-30.5 -75.5t-83.5 -31.5z" />
    <glyph glyph-name="Zcaron" unicode="&#x17d;" horiz-adv-x="657" 
d="M-9 0l25 143l384 393h-295l31 174h573l-25 -143l-384 -393h327l-42 -174h-594zM349 769l-106 167l160 10l38 -68l63 68l161 -10l-166 -167h-150z" />
    <glyph glyph-name="zcaron" unicode="&#x17e;" horiz-adv-x="465" 
d="M-26 0l25 143l232 218h-188l27 153h432l-24 -134l-236 -227h198l-27 -153h-439zM221 573l-106 167l160 10l38 -68l63 68l161 -10l-166 -167h-150z" />
    <glyph glyph-name="uni018F" unicode="&#x18f;" horiz-adv-x="791" 
d="M461 720q157 0 241.5 -78t84.5 -211q0 -93 -32.5 -173.5t-90 -140.5t-134.5 -93.5t-166 -33.5q-93 0 -162.5 31.5t-111 89t-50 136t19.5 172.5h523q-2 56 -40.5 90.5t-107.5 34.5q-61 0 -111.5 -23.5t-91.5 -67.5l-127 115q37 44 92 78t123 54t141 20zM381 156
q56 0 98.5 27.5t67.5 78.5h-305q4 -51 39.5 -78.5t99.5 -27.5z" />
    <glyph glyph-name="florin" unicode="&#x192;" horiz-adv-x="600" 
d="M91 -194q-43 0 -75 5.5t-56 15.5l49 148q20 -6 42 -9.5t49 -3.5q44 0 65.5 23t27.5 77l30 299h-105l27 153h94q9 77 46 129.5t95 79.5t130 27q81 0 128.5 -41.5t52.5 -124.5l-161 -19q0 14 -13.5 21.5t-30.5 7.5q-34 0 -55.5 -19t-24.5 -52l-1 -9h140l-27 -153h-118
l-21 -296q-7 -118 -80.5 -188.5t-207.5 -70.5z" />
    <glyph glyph-name="Ohorn" unicode="&#x1a0;" horiz-adv-x="786" 
d="M355 -10q-98 0 -169.5 34t-109.5 98t-38 153q0 96 33 177t93 141t141 93.5t177 33.5q92 0 159 -35.5t104 -100t37 -153.5q0 -93 -32.5 -173.5t-90.5 -140.5t-136 -93.5t-168 -33.5zM378 165q58 0 103 32t71.5 86.5t26.5 123.5q0 65 -34.5 101.5t-95.5 36.5
q-59 0 -106 -32t-74.5 -86.5t-27.5 -123.5q0 -64 36.5 -101t100.5 -37zM608 707q31 0 47.5 9t23.5 34t9 73l158 -12q3 -68 -23.5 -121t-75 -83t-112.5 -30h-64l-38 139q17 -2 38 -5.5t37 -3.5z" />
    <glyph glyph-name="ohorn" unicode="&#x1a1;" horiz-adv-x="607" 
d="M355 521q111 0 171.5 -57t60.5 -152q0 -69 -25 -128t-70.5 -102.5t-106.5 -68t-133 -24.5q-112 0 -172 57.5t-60 151.5q0 69 25 128t70.5 103t106.5 68t133 24zM287 149q49 0 78 39.5t29 94.5q0 78 -70 78q-51 0 -81.5 -39.5t-30.5 -95.5q0 -77 75 -77zM452 513
q26 0 40.5 8t21 32.5t8.5 73.5l159 -12q3 -68 -24 -120t-76 -81t-112 -29h-46l-36 135q12 -2 31 -4.5t34 -2.5z" />
    <glyph glyph-name="Uhorn" unicode="&#x1af;" horiz-adv-x="774" 
d="M966 811q4 -67 -19 -123t-68.5 -89t-107.5 -33l-43 -245q-28 -161 -124 -246.5t-251 -85.5q-105 0 -175 39t-99.5 110t-12.5 168l71 404h201l-70 -394q-27 -151 112 -151q65 0 102.5 39.5t51.5 123.5l65 382h133q32 0 47.5 9t21.5 33.5t7 70.5z" />
    <glyph glyph-name="uhorn" unicode="&#x1b0;" horiz-adv-x="630" 
d="M191 -11q-100 0 -137 64t-17 174l21 113q11 56 15.5 97.5t6.5 76.5h186q-2 -37 -7.5 -86t-14.5 -94l-19 -94q-15 -78 39 -78t100.5 87.5t78.5 264.5h52q26 0 42 7.5t27 32t21 73.5l157 -12q-10 -68 -46.5 -121t-90.5 -81l-41 -237q-17 -94 -17 -176h-179q0 47 11 99
q-39 -55 -88 -82.5t-100 -27.5z" />
    <glyph glyph-name="uni01C4" unicode="&#x1c4;" horiz-adv-x="1409" 
d="M15 0l125 710h241q188 0 284.5 -81t96.5 -218q0 -90 -33 -165.5t-92 -130.5t-138.5 -85t-172.5 -30h-311zM246 176h91q107 0 165 56t58 159q0 71 -45 107t-140 36h-66zM743 0l25 143l384 393h-295l31 174h573l-25 -143l-384 -393h327l-42 -174h-594zM1101 769l-106 167
l160 10l38 -68l63 68l161 -10l-166 -167h-150z" />
    <glyph glyph-name="uni01C5" unicode="&#x1c5;" horiz-adv-x="1227" 
d="M15 0l125 710h241q188 0 284.5 -81t96.5 -218q0 -90 -33 -165.5t-92 -130.5t-138.5 -85t-172.5 -30h-311zM246 176h91q107 0 165 56t58 159q0 71 -45 107t-140 36h-66zM736 0l25 143l232 218h-188l27 153h432l-24 -134l-236 -227h198l-27 -153h-439zM983 573l-106 167
l160 10l38 -68l63 68l161 -10l-166 -167h-150z" />
    <glyph glyph-name="uni01C6" unicode="&#x1c6;" horiz-adv-x="1100" 
d="M217 -11q-91 0 -144 55.5t-53 152.5q0 69 24 128t67.5 103t101.5 68.5t126 24.5q56 0 101 -21l2 14l40 226h186l-99 -564q-7 -45 -12 -90.5t-5 -85.5h-179q0 41 8 86q-66 -97 -164 -97zM283 149q46 0 78 35.5t42 97.5l10 58q-24 21 -72 21q-58 0 -93.5 -39t-35.5 -103
q0 -33 18.5 -51.5t52.5 -18.5zM609 0l25 143l232 218h-188l27 153h432l-24 -134l-236 -227h198l-27 -153h-439zM856 573l-106 167l160 10l38 -68l63 68l161 -10l-166 -167h-150z" />
    <glyph glyph-name="uni01C7" unicode="&#x1c7;" horiz-adv-x="1115" 
d="M15 0l125 710h200l-94 -536h296l-43 -174h-484zM770 -11q-96 0 -153 43t-74 122l174 73q6 -34 24 -48.5t43 -14.5q27 0 45.5 17.5t23.5 48.5l85 480h200l-81 -455q-23 -132 -97 -199t-190 -67z" />
    <glyph glyph-name="uni01C8" unicode="&#x1c8;" horiz-adv-x="851" 
d="M15 0l125 710h200l-94 -536h296l-43 -174h-484zM628 341q10 56 15 97t7 76h184q-2 -37 -8 -86t-14 -94l-51 -289q-19 -112 -87.5 -175.5t-206.5 -63.5q-75 0 -122 15l49 152q22 -5 46.5 -8t43.5 -3q41 0 62.5 18.5t28.5 61.5zM767 553q-52 0 -83 31.5t-31 75.5t30.5 75.5
t83.5 31.5t83.5 -31.5t30.5 -75.5t-30.5 -75.5t-83.5 -31.5z" />
    <glyph glyph-name="uni01C9" unicode="&#x1c9;" horiz-adv-x="626" 
d="M181 -11q-83 0 -120.5 48.5t-24.5 127.5l101 575h186l-98 -558q-4 -19 4.5 -27.5t24.5 -8.5q21 0 37 11l20 -132q-20 -17 -55 -26.5t-75 -9.5zM403 341q10 56 15 97t7 76h184q-2 -37 -8 -86t-14 -94l-51 -289q-19 -112 -87.5 -175.5t-206.5 -63.5q-75 0 -122 15l49 152
q22 -5 46.5 -8t43.5 -3q41 0 62.5 18.5t28.5 61.5zM542 553q-52 0 -83 31.5t-31 75.5t30.5 75.5t83.5 31.5t83.5 -31.5t30.5 -75.5t-30.5 -75.5t-83.5 -31.5z" />
    <glyph glyph-name="uni01CA" unicode="&#x1ca;" horiz-adv-x="1288" 
d="M593 710h192l-125 -710h-178l-207 389l-68 -389h-192l125 710h178l207 -388zM943 -11q-96 0 -153 43t-74 122l174 73q6 -34 24 -48.5t43 -14.5q27 0 45.5 17.5t23.5 48.5l85 480h200l-81 -455q-23 -132 -97 -199t-190 -67z" />
    <glyph glyph-name="uni01CB" unicode="&#x1cb;" horiz-adv-x="1064" 
d="M593 710h192l-125 -710h-178l-207 389l-68 -389h-192l125 710h178l207 -388zM841 341q10 56 15 97t7 76h184q-2 -37 -8 -86t-14 -94l-51 -289q-19 -112 -87.5 -175.5t-206.5 -63.5q-75 0 -122 15l49 152q22 -5 46.5 -8t43.5 -3q41 0 62.5 18.5t28.5 61.5zM980 553
q-52 0 -83 31.5t-31 75.5t30.5 75.5t83.5 31.5t83.5 -31.5t30.5 -75.5t-30.5 -75.5t-83.5 -31.5z" />
    <glyph glyph-name="uni01CC" unicode="&#x1cc;" horiz-adv-x="943" 
d="M7 0l60 340q10 56 15.5 97.5t9.5 76.5h180q-4 -55 -21 -114q40 58 94.5 89.5t117.5 31.5q94 0 132.5 -65.5t10.5 -178.5l-32 -130q-9 -40 -13.5 -75.5t-4.5 -71.5h-187q0 38 4 71.5t13 68.5l32 129q11 43 2 62t-38 19q-126 0 -189 -350h-186zM720 341q10 56 15 97t7 76
h184q-2 -37 -8 -86t-14 -94l-51 -289q-19 -112 -87.5 -175.5t-206.5 -63.5q-75 0 -122 15l49 152q22 -5 46.5 -8t43.5 -3q41 0 62.5 18.5t28.5 61.5zM859 553q-52 0 -83 31.5t-31 75.5t30.5 75.5t83.5 31.5t83.5 -31.5t30.5 -75.5t-30.5 -75.5t-83.5 -31.5z" />
    <glyph glyph-name="Gcaron" unicode="&#x1e6;" horiz-adv-x="784" 
d="M447 403h326l-71 -403h-158l-2 44q-33 -29 -84.5 -42.5t-98.5 -12.5q-101 2 -173 37t-110 99t-38 150q0 96 35 177t97.5 141t145 93.5t176.5 33.5q106 0 189 -36t119 -110l-172 -110q-19 41 -63.5 61t-91.5 20q-64 0 -116.5 -32t-84 -86.5t-31.5 -123.5q0 -64 37.5 -101
t114.5 -37q57 0 99.5 22t57.5 55h-131zM411 769l-106 167l160 10l38 -68l63 68l161 -10l-166 -167h-150z" />
    <glyph glyph-name="gcaron" unicode="&#x1e7;" horiz-adv-x="639" 
d="M179 -210q-60 0 -116 12.5t-86 31.5l62 158q71 -40 161 -40q74 0 114 32t60 108v1q-64 -80 -155 -80t-144 53t-53 146q0 66 24.5 122t68 98t101.5 65.5t126 23.5q90 0 151 -51l26 40h122q-15 -59 -25 -102.5t-17 -82.5l-38 -215q-30 -169 -124 -244.5t-258 -75.5z
M284 173q47 0 80.5 28t42.5 81l11 60q-25 19 -75 19q-57 0 -93 -34t-36 -88q0 -31 18.5 -48.5t51.5 -17.5zM306 573l-106 167l160 10l38 -68l63 68l161 -10l-166 -167h-150z" />
    <glyph glyph-name="uni01EA" unicode="&#x1ea;" horiz-adv-x="786" 
d="M350 -223q-67 0 -109 29t-42 78q0 36 20 64t52 49q-111 20 -172 92.5t-61 185.5q0 96 33 177t93 141t141 93.5t177 33.5q92 0 159 -35.5t104 -100t37 -153.5q0 -103 -39.5 -190t-109 -148t-160.5 -87q-65 -19 -90 -45.5t-25 -45.5q0 -28 33 -28q12 0 28.5 8t27.5 19
l45 -87q-23 -24 -60.5 -37t-81.5 -13zM378 165q58 0 103 32t71.5 86.5t26.5 123.5q0 65 -34.5 101.5t-95.5 36.5q-59 0 -106 -32t-74.5 -86.5t-27.5 -123.5q0 -64 36.5 -101t100.5 -37z" />
    <glyph glyph-name="uni01EB" unicode="&#x1eb;" horiz-adv-x="607" 
d="M259 -223q-67 0 -109 29t-42 78q0 36 20.5 63.5t52.5 48.5q-78 17 -119.5 70.5t-41.5 131.5q0 69 25 128t70.5 103t106.5 68t133 24q111 0 171.5 -57t60.5 -152q0 -70 -26 -129t-72 -103t-108 -68q-47 -18 -72 -36t-33.5 -33.5t-8.5 -27.5q0 -28 33 -28q12 0 28.5 8
t27.5 19l45 -87q-23 -24 -60.5 -37t-81.5 -13zM287 149q49 0 78 39.5t29 94.5q0 78 -70 78q-51 0 -81.5 -39.5t-30.5 -95.5q0 -77 75 -77z" />
    <glyph glyph-name="Aringacute" unicode="&#x1fa;" horiz-adv-x="707" 
d="M-84 0l439 710h166l176 -710h-196l-28 127h-274l-75 -127h-208zM296 292h141l-39 175zM465 764q-35 0 -64.5 15.5t-47 42.5t-17.5 59q0 34 18 61.5t48 43.5t66 16q25 0 47 -8l81 69l144 -23l-153 -114q8 -19 8 -41q0 -34 -17.5 -61.5t-46.5 -43.5t-66 -16zM466 832
q22 0 36.5 15t14.5 38q0 21 -15 35t-35 14q-22 0 -37.5 -15t-15.5 -38q0 -22 15 -35.5t37 -13.5z" />
    <glyph glyph-name="aringacute" unicode="&#x1fb;" horiz-adv-x="635" 
d="M217 -11q-91 0 -144 55.5t-53 152.5q0 69 24 128t67.5 103t101.5 68.5t126 24.5q89 0 149 -52l27 41h122q-13 -49 -23 -94t-19 -91l-26 -149q-17 -93 -17 -176h-179q0 41 8 86q-66 -97 -164 -97zM283 149q46 0 78 35.5t42 97.5l10 58q-24 21 -72 21q-58 0 -93.5 -39
t-35.5 -103q0 -33 18.5 -51.5t52.5 -18.5zM401 568q-35 0 -64.5 15.5t-47 42.5t-17.5 59q0 34 18 61.5t48 43.5t66 16q25 0 47 -8l81 69l144 -23l-153 -114q8 -19 8 -41q0 -34 -17.5 -61.5t-46.5 -43.5t-66 -16zM402 636q22 0 36.5 15t14.5 38q0 21 -15 35t-35 14
q-22 0 -37.5 -15t-15.5 -38q0 -22 15 -35.5t37 -13.5z" />
    <glyph glyph-name="AEacute" unicode="&#x1fc;" horiz-adv-x="969" 
d="M-84 0l439 710h677l-30 -171h-309l-17 -97h283l-30 -171h-283l-18 -100h318l-43 -171h-504l22 124h-224l-73 -124h-208zM297 295h154l43 244h-53zM554 769l157 177l184 -45l-176 -132h-165z" />
    <glyph glyph-name="aeacute" unicode="&#x1fd;" horiz-adv-x="842" 
d="M200 -11q-90 0 -141 42.5t-51 116.5q0 78 63 124.5t169 46.5h92l2 12q5 24 -11 36t-42 12q-49 0 -82 -43l-147 36q34 71 100.5 110t151.5 39q44 0 89 -13t72 -49q37 30 84 46t95 16q84 0 137 -42.5t53 -114.5q0 -67 -45 -111.5t-140 -44.5h-147q2 -29 29.5 -45.5
t72.5 -16.5q27 0 53 9.5t45 26.5l77 -113q-42 -40 -95.5 -60t-112.5 -20q-56 0 -102 20.5t-76 62.5q-36 -47 -86 -65t-107 -18zM623 390q-74 0 -100 -71h106q43 0 43 35q0 16 -12.5 26t-36.5 10zM236 123q62 0 73 65l3 20h-61q-63 0 -63 -47q0 -38 48 -38zM390 573l157 177
l184 -45l-176 -132h-165z" />
    <glyph glyph-name="Oslashacute" unicode="&#x1fe;" horiz-adv-x="786" 
d="M355 -10q-98 0 -169.5 34t-109.5 98t-38 153q0 96 33 177t93 141t141 93.5t177 33.5q92 0 159 -35.5t104 -100t37 -153.5q0 -93 -32.5 -173.5t-90.5 -140.5t-136 -93.5t-168 -33.5zM378 165q58 0 103 32t71.5 86.5t26.5 123.5q0 65 -34.5 101.5t-95.5 36.5
q-59 0 -106 -32t-74.5 -86.5t-27.5 -123.5q0 -64 36.5 -101t100.5 -37zM139 -29l-106 99l651 669l106 -99zM404 769l157 177l184 -45l-176 -132h-165z" />
    <glyph glyph-name="oslashacute" unicode="&#x1ff;" horiz-adv-x="607" 
d="M355 521q111 0 171.5 -57t60.5 -152q0 -69 -25 -128t-70.5 -102.5t-106.5 -68t-133 -24.5q-112 0 -172 57.5t-60 151.5q0 69 25 128t70.5 103t106.5 68t133 24zM287 149q49 0 78 39.5t29 94.5q0 78 -70 78q-51 0 -81.5 -39.5t-30.5 -95.5q0 -77 75 -77zM123 -22l-95 90
l57 59l100 79l178 184l63 84l57 59l95 -90l-57 -59l-100 -80l-179 -183l-62 -84zM280 573l157 177l184 -45l-176 -132h-165z" />
    <glyph glyph-name="uni0200" unicode="&#x200;" horiz-adv-x="707" 
d="M-84 0l439 710h166l176 -710h-196l-28 127h-274l-75 -127h-208zM296 292h141l-39 175zM486 769l-74 132l175 45l42 -177h-143zM261 769l-75 132l176 45l42 -177h-143z" />
    <glyph glyph-name="uni0201" unicode="&#x201;" horiz-adv-x="635" 
d="M217 -11q-91 0 -144 55.5t-53 152.5q0 69 24 128t67.5 103t101.5 68.5t126 24.5q89 0 149 -52l27 41h122q-13 -49 -23 -94t-19 -91l-26 -149q-17 -93 -17 -176h-179q0 41 8 86q-66 -97 -164 -97zM283 149q46 0 78 35.5t42 97.5l10 58q-24 21 -72 21q-58 0 -93.5 -39
t-35.5 -103q0 -33 18.5 -51.5t52.5 -18.5zM422 573l-74 132l175 45l42 -177h-143zM197 573l-75 132l176 45l42 -177h-143z" />
    <glyph glyph-name="uni0202" unicode="&#x202;" horiz-adv-x="707" 
d="M-84 0l439 710h166l176 -710h-196l-28 127h-274l-75 -127h-208zM296 292h141l-39 175zM520 769q-3 26 -17.5 41.5t-46.5 15.5q-55 0 -80 -57h-121q16 84 75.5 130.5t140.5 46.5q84 0 128 -46.5t36 -130.5h-115z" />
    <glyph glyph-name="uni0203" unicode="&#x203;" horiz-adv-x="635" 
d="M217 -11q-91 0 -144 55.5t-53 152.5q0 69 24 128t67.5 103t101.5 68.5t126 24.5q89 0 149 -52l27 41h122q-13 -49 -23 -94t-19 -91l-26 -149q-17 -93 -17 -176h-179q0 41 8 86q-66 -97 -164 -97zM283 149q46 0 78 35.5t42 97.5l10 58q-24 21 -72 21q-58 0 -93.5 -39
t-35.5 -103q0 -33 18.5 -51.5t52.5 -18.5zM456 573q-3 26 -17.5 41.5t-46.5 15.5q-55 0 -80 -57h-121q16 84 75.5 130.5t140.5 46.5q84 0 128 -46.5t36 -130.5h-115z" />
    <glyph glyph-name="uni0204" unicode="&#x204;" horiz-adv-x="595" 
d="M243 171h329l-43 -171h-514l125 710h518l-30 -171h-322l-17 -97h296l-30 -171h-295zM451 769l-74 132l175 45l42 -177h-143zM226 769l-75 132l176 45l42 -177h-143z" />
    <glyph glyph-name="uni0205" unicode="&#x205;" horiz-adv-x="552" 
d="M268 -11q-74 0 -129.5 27.5t-86 77t-30.5 115.5t24 123t67.5 99.5t101.5 66t126 23.5q94 0 148.5 -42.5t54.5 -114.5q0 -67 -42 -107.5t-120 -46.5l-174 -14q7 -23 34 -36.5t69 -13.5q62 0 101 36l77 -113q-85 -80 -221 -80zM330 390q-83 0 -107 -83l114 9q46 3 46 38
q0 17 -14 26.5t-39 9.5zM388 573l-74 132l175 45l42 -177h-143zM163 573l-75 132l176 45l42 -177h-143z" />
    <glyph glyph-name="uni0206" unicode="&#x206;" horiz-adv-x="595" 
d="M243 171h329l-43 -171h-514l125 710h518l-30 -171h-322l-17 -97h296l-30 -171h-295zM485 769q-3 26 -17.5 41.5t-46.5 15.5q-55 0 -80 -57h-121q16 84 75.5 130.5t140.5 46.5q84 0 128 -46.5t36 -130.5h-115z" />
    <glyph glyph-name="uni0207" unicode="&#x207;" horiz-adv-x="552" 
d="M268 -11q-74 0 -129.5 27.5t-86 77t-30.5 115.5t24 123t67.5 99.5t101.5 66t126 23.5q94 0 148.5 -42.5t54.5 -114.5q0 -67 -42 -107.5t-120 -46.5l-174 -14q7 -23 34 -36.5t69 -13.5q62 0 101 36l77 -113q-85 -80 -221 -80zM330 390q-83 0 -107 -83l114 9q46 3 46 38
q0 17 -14 26.5t-39 9.5zM422 573q-3 26 -17.5 41.5t-46.5 15.5q-55 0 -80 -57h-121q16 84 75.5 130.5t140.5 46.5q84 0 128 -46.5t36 -130.5h-115z" />
    <glyph glyph-name="uni0208" unicode="&#x208;" horiz-adv-x="320" 
d="M15 0l125 710h200l-125 -710h-200zM291 769l-74 132l175 45l42 -177h-143zM66 769l-75 132l176 45l42 -177h-143z" />
    <glyph glyph-name="uni0209" unicode="&#x209;" horiz-adv-x="290" 
d="M14 0q0 38 6 73.5t11 66.5l35 200q10 56 15 97.5t7 76.5h186q-2 -37 -8 -86t-14 -94l-33 -187q-7 -41 -12.5 -76t-5.5 -71h-187zM232 573l-74 132l175 45l42 -177h-143zM7 573l-75 132l176 45l42 -177h-143z" />
    <glyph glyph-name="uni020A" unicode="&#x20a;" horiz-adv-x="320" 
d="M15 0l125 710h200l-125 -710h-200zM325 769q-3 26 -17.5 41.5t-46.5 15.5q-55 0 -80 -57h-121q16 84 75.5 130.5t140.5 46.5q84 0 128 -46.5t36 -130.5h-115z" />
    <glyph glyph-name="uni020B" unicode="&#x20b;" horiz-adv-x="290" 
d="M14 0q0 38 6 73.5t11 66.5l35 200q10 56 15 97.5t7 76.5h186q-2 -37 -8 -86t-14 -94l-33 -187q-7 -41 -12.5 -76t-5.5 -71h-187zM266 573q-3 26 -17.5 41.5t-46.5 15.5q-55 0 -80 -57h-121q16 84 75.5 130.5t140.5 46.5q84 0 128 -46.5t36 -130.5h-115z" />
    <glyph glyph-name="uni020C" unicode="&#x20c;" horiz-adv-x="786" 
d="M355 -10q-98 0 -169.5 34t-109.5 98t-38 153q0 96 33 177t93 141t141 93.5t177 33.5q92 0 159 -35.5t104 -100t37 -153.5q0 -93 -32.5 -173.5t-90.5 -140.5t-136 -93.5t-168 -33.5zM378 165q58 0 103 32t71.5 86.5t26.5 123.5q0 65 -34.5 101.5t-95.5 36.5
q-59 0 -106 -32t-74.5 -86.5t-27.5 -123.5q0 -64 36.5 -101t100.5 -37zM525 769l-74 132l175 45l42 -177h-143zM300 769l-75 132l176 45l42 -177h-143z" />
    <glyph glyph-name="uni020D" unicode="&#x20d;" horiz-adv-x="607" 
d="M355 521q111 0 171.5 -57t60.5 -152q0 -69 -25 -128t-70.5 -102.5t-106.5 -68t-133 -24.5q-112 0 -172 57.5t-60 151.5q0 69 25 128t70.5 103t106.5 68t133 24zM287 149q49 0 78 39.5t29 94.5q0 78 -70 78q-51 0 -81.5 -39.5t-30.5 -95.5q0 -77 75 -77zM401 573l-74 132
l175 45l42 -177h-143zM176 573l-75 132l176 45l42 -177h-143z" />
    <glyph glyph-name="uni020E" unicode="&#x20e;" horiz-adv-x="786" 
d="M355 -10q-98 0 -169.5 34t-109.5 98t-38 153q0 96 33 177t93 141t141 93.5t177 33.5q92 0 159 -35.5t104 -100t37 -153.5q0 -93 -32.5 -173.5t-90.5 -140.5t-136 -93.5t-168 -33.5zM378 165q58 0 103 32t71.5 86.5t26.5 123.5q0 65 -34.5 101.5t-95.5 36.5
q-59 0 -106 -32t-74.5 -86.5t-27.5 -123.5q0 -64 36.5 -101t100.5 -37zM559 769q-3 26 -17.5 41.5t-46.5 15.5q-55 0 -80 -57h-121q16 84 75.5 130.5t140.5 46.5q84 0 128 -46.5t36 -130.5h-115z" />
    <glyph glyph-name="uni020F" unicode="&#x20f;" horiz-adv-x="607" 
d="M355 521q111 0 171.5 -57t60.5 -152q0 -69 -25 -128t-70.5 -102.5t-106.5 -68t-133 -24.5q-112 0 -172 57.5t-60 151.5q0 69 25 128t70.5 103t106.5 68t133 24zM287 149q49 0 78 39.5t29 94.5q0 78 -70 78q-51 0 -81.5 -39.5t-30.5 -95.5q0 -77 75 -77zM435 573
q-3 26 -17.5 41.5t-46.5 15.5q-55 0 -80 -57h-121q16 84 75.5 130.5t140.5 46.5q84 0 128 -46.5t36 -130.5h-115z" />
    <glyph glyph-name="uni0210" unicode="&#x210;" horiz-adv-x="686" 
d="M669 184l24 -154q-28 -19 -70.5 -30.5t-84.5 -11.5q-78 0 -122.5 27.5t-71.5 91.5l-43 103q-9 20 -19 30t-27 13l-44 -253h-196l125 710h231q291 0 291 -201q0 -93 -52 -154.5t-147 -82.5q31 -13 46 -43l14 -27q20 -39 73 -39q45 0 73 21zM350 549h-43l-25 -141h62
q119 0 119 79q0 32 -27 47t-86 15zM488 769l-74 132l175 45l42 -177h-143zM263 769l-75 132l176 45l42 -177h-143z" />
    <glyph glyph-name="uni0211" unicode="&#x211;" horiz-adv-x="443" 
d="M442 333q-20 10 -50 10q-79 0 -123.5 -83t-75.5 -260h-186l60 340q10 56 15.5 97.5t9.5 76.5h180q-2 -29 -9.5 -65.5t-17.5 -74.5q37 76 89.5 111.5t108.5 35.5q17 0 32.5 -2t31.5 -8zM354 573l-74 132l175 45l42 -177h-143zM129 573l-75 132l176 45l42 -177h-143z" />
    <glyph glyph-name="uni0212" unicode="&#x212;" horiz-adv-x="686" 
d="M669 184l24 -154q-28 -19 -70.5 -30.5t-84.5 -11.5q-78 0 -122.5 27.5t-71.5 91.5l-43 103q-9 20 -19 30t-27 13l-44 -253h-196l125 710h231q291 0 291 -201q0 -93 -52 -154.5t-147 -82.5q31 -13 46 -43l14 -27q20 -39 73 -39q45 0 73 21zM350 549h-43l-25 -141h62
q119 0 119 79q0 32 -27 47t-86 15zM522 769q-3 26 -17.5 41.5t-46.5 15.5q-55 0 -80 -57h-121q16 84 75.5 130.5t140.5 46.5q84 0 128 -46.5t36 -130.5h-115z" />
    <glyph glyph-name="uni0213" unicode="&#x213;" horiz-adv-x="443" 
d="M442 333q-20 10 -50 10q-79 0 -123.5 -83t-75.5 -260h-186l60 340q10 56 15.5 97.5t9.5 76.5h180q-2 -29 -9.5 -65.5t-17.5 -74.5q37 76 89.5 111.5t108.5 35.5q17 0 32.5 -2t31.5 -8zM388 573q-3 26 -17.5 41.5t-46.5 15.5q-55 0 -80 -57h-121q16 84 75.5 130.5
t140.5 46.5q84 0 128 -46.5t36 -130.5h-115z" />
    <glyph glyph-name="uni0214" unicode="&#x214;" horiz-adv-x="774" 
d="M599 710h196l-67 -389q-28 -161 -124 -246.5t-251 -85.5q-105 0 -175 39t-99.5 110t-12.5 168l71 404h201l-70 -394q-27 -151 112 -151q65 0 102.5 39.5t51.5 123.5zM519 769l-74 132l175 45l42 -177h-143zM294 769l-75 132l176 45l42 -177h-143z" />
    <glyph glyph-name="uni0215" unicode="&#x215;" horiz-adv-x="630" 
d="M191 -11q-100 0 -137 64t-17 174l21 113q11 56 15.5 97.5t6.5 76.5h186q-2 -37 -7.5 -86t-14.5 -94l-19 -94q-15 -78 39 -78t100.5 87.5t78.5 264.5h180l-59 -338q-17 -94 -17 -176h-179q0 47 11 99q-39 -55 -88 -82.5t-100 -27.5zM411 573l-74 132l175 45l42 -177h-143z
M186 573l-75 132l176 45l42 -177h-143z" />
    <glyph glyph-name="uni0216" unicode="&#x216;" horiz-adv-x="774" 
d="M599 710h196l-67 -389q-28 -161 -124 -246.5t-251 -85.5q-105 0 -175 39t-99.5 110t-12.5 168l71 404h201l-70 -394q-27 -151 112 -151q65 0 102.5 39.5t51.5 123.5zM553 769q-3 26 -17.5 41.5t-46.5 15.5q-55 0 -80 -57h-121q16 84 75.5 130.5t140.5 46.5
q84 0 128 -46.5t36 -130.5h-115z" />
    <glyph glyph-name="uni0217" unicode="&#x217;" horiz-adv-x="630" 
d="M191 -11q-100 0 -137 64t-17 174l21 113q11 56 15.5 97.5t6.5 76.5h186q-2 -37 -7.5 -86t-14.5 -94l-19 -94q-15 -78 39 -78t100.5 87.5t78.5 264.5h180l-59 -338q-17 -94 -17 -176h-179q0 47 11 99q-39 -55 -88 -82.5t-100 -27.5zM445 573q-3 26 -17.5 41.5t-46.5 15.5
q-55 0 -80 -57h-121q16 84 75.5 130.5t140.5 46.5q84 0 128 -46.5t36 -130.5h-115z" />
    <glyph glyph-name="uni0218" unicode="&#x218;" horiz-adv-x="613" 
d="M270 -10q-132 0 -202 57t-71 166l190 27q-4 -38 23 -61.5t79 -23.5q47 0 72.5 13.5t25.5 37.5q0 20 -21.5 32.5t-55.5 23t-72.5 24t-72.5 35t-55.5 56.5t-21.5 88q0 80 42.5 137t114 87.5t156.5 30.5q109 0 173 -54t65 -147l-180 -30q0 29 -23 47.5t-60 18.5
q-35 0 -59 -15t-24 -41q0 -22 21.5 -35.5t56 -24t72.5 -23t72.5 -33t56 -54t21.5 -85.5q0 -79 -44.5 -136t-117.5 -87.5t-161 -30.5zM138 -230q20 25 27 45t7 33q0 15 -5.5 26t-5.5 24q0 23 27 40t64 17q45 0 67 -16.5t22 -42.5q0 -27 -18 -52.5t-46 -45t-57 -28.5h-82z" />
    <glyph glyph-name="uni0219" unicode="&#x219;" horiz-adv-x="499" 
d="M223 -11q-102 0 -168 40.5t-73 112.5l160 38q2 -22 28.5 -36t64.5 -14q26 0 43 7t17 18q0 12 -18 17.5t-46 10.5t-59.5 13t-59.5 24t-46 44t-18 73q0 60 35 101.5t92.5 62.5t123.5 21q56 0 100.5 -17.5t72 -48.5t32.5 -72l-158 -43q-4 19 -22.5 29.5t-47.5 10.5
q-22 0 -36.5 -6.5t-14.5 -17.5q0 -13 17.5 -20.5t45.5 -12.5t59.5 -13.5t59.5 -23.5t45.5 -41t17.5 -69q0 -62 -33 -104t-89 -63t-125 -21zM136 -230q20 25 27 45t7 33q0 15 -5.5 26t-5.5 24q0 23 27 40t64 17q45 0 67 -16.5t22 -42.5q0 -27 -18 -52.5t-46 -45t-57 -28.5
h-82z" />
    <glyph glyph-name="uni021A" unicode="&#x21a;" horiz-adv-x="611" 
d="M723 710l-60 -174h-208l-95 -536h-200l95 536h-222l31 174h659zM129 -230q20 25 27 45t7 33q0 15 -5.5 26t-5.5 24q0 23 27 40t64 17q45 0 67 -16.5t22 -42.5q0 -27 -18 -52.5t-46 -45t-57 -28.5h-82z" />
    <glyph glyph-name="uni021B" unicode="&#x21b;" horiz-adv-x="453" 
d="M257 -11q-71 0 -116.5 28t-63 76t-6.5 107l31 161h-82l27 153h85l20 104h184l-20 -104h154l-27 -153h-156l-28 -149q-7 -31 8 -47.5t46 -16.5q21 0 42.5 5.5t46.5 20.5l27 -140q-28 -22 -73.5 -33.5t-98.5 -11.5zM99 -230q20 25 27 45t7 33q0 15 -5.5 26t-5.5 24
q0 23 27 40t64 17q45 0 67 -16.5t22 -42.5q0 -27 -18 -52.5t-46 -45t-57 -28.5h-82z" />
    <glyph glyph-name="uni022A" unicode="&#x22a;" horiz-adv-x="786" 
d="M355 -10q-98 0 -169.5 34t-109.5 98t-38 153q0 96 33 177t93 141t141 93.5t177 33.5q92 0 159 -35.5t104 -100t37 -153.5q0 -93 -32.5 -173.5t-90.5 -140.5t-136 -93.5t-168 -33.5zM378 165q58 0 103 32t71.5 86.5t26.5 123.5q0 65 -34.5 101.5t-95.5 36.5
q-59 0 -106 -32t-74.5 -86.5t-27.5 -123.5q0 -64 36.5 -101t100.5 -37zM317 989l22 123h412l-22 -123h-412zM387 764q-34 0 -57 14.5t-34.5 37t-11.5 44.5q0 36 26 66t77 30q49 0 75.5 -30t26.5 -66q0 -22 -12 -44.5t-34.5 -37t-55.5 -14.5zM616 764q-34 0 -57 14.5
t-34.5 37t-11.5 44.5q0 36 26 66t77 30q49 0 75.5 -30t26.5 -66q0 -22 -12 -44.5t-34.5 -37t-55.5 -14.5z" />
    <glyph glyph-name="uni022B" unicode="&#x22b;" horiz-adv-x="607" 
d="M355 521q111 0 171.5 -57t60.5 -152q0 -69 -25 -128t-70.5 -102.5t-106.5 -68t-133 -24.5q-112 0 -172 57.5t-60 151.5q0 69 25 128t70.5 103t106.5 68t133 24zM287 149q49 0 78 39.5t29 94.5q0 78 -70 78q-51 0 -81.5 -39.5t-30.5 -95.5q0 -77 75 -77zM193 793l22 123
h412l-22 -123h-412zM263 568q-34 0 -57 14.5t-34.5 37t-11.5 44.5q0 36 26 66t77 30q49 0 75.5 -30t26.5 -66q0 -22 -12 -44.5t-34.5 -37t-55.5 -14.5zM492 568q-34 0 -57 14.5t-34.5 37t-11.5 44.5q0 36 26 66t77 30q49 0 75.5 -30t26.5 -66q0 -22 -12 -44.5t-34.5 -37
t-55.5 -14.5z" />
    <glyph glyph-name="uni022C" unicode="&#x22c;" horiz-adv-x="786" 
d="M355 -10q-98 0 -169.5 34t-109.5 98t-38 153q0 96 33 177t93 141t141 93.5t177 33.5q92 0 159 -35.5t104 -100t37 -153.5q0 -93 -32.5 -173.5t-90.5 -140.5t-136 -93.5t-168 -33.5zM378 165q58 0 103 32t71.5 86.5t26.5 123.5q0 65 -34.5 101.5t-95.5 36.5
q-59 0 -106 -32t-74.5 -86.5t-27.5 -123.5q0 -64 36.5 -101t100.5 -37zM316 1002l22 123h418l-22 -123h-418zM563 762q-30 0 -59 12.5t-54.5 25t-47.5 12.5q-12 0 -31.5 -9.5t-35.5 -29.5l-60 61q26 58 68.5 85.5t92.5 27.5q30 0 59 -12t55.5 -24.5t46.5 -12.5q17 0 35.5 9
t31.5 31l61 -60q-27 -58 -69.5 -87t-92.5 -29z" />
    <glyph glyph-name="uni022D" unicode="&#x22d;" horiz-adv-x="607" 
d="M355 521q111 0 171.5 -57t60.5 -152q0 -69 -25 -128t-70.5 -102.5t-106.5 -68t-133 -24.5q-112 0 -172 57.5t-60 151.5q0 69 25 128t70.5 103t106.5 68t133 24zM287 149q49 0 78 39.5t29 94.5q0 78 -70 78q-51 0 -81.5 -39.5t-30.5 -95.5q0 -77 75 -77zM192 806l22 123
h418l-22 -123h-418zM439 566q-30 0 -59 12.5t-54.5 25t-47.5 12.5q-12 0 -31.5 -9.5t-35.5 -29.5l-60 61q26 58 68.5 85.5t92.5 27.5q30 0 59 -12t55.5 -24.5t46.5 -12.5q17 0 35.5 9t31.5 31l61 -60q-27 -58 -69.5 -87t-92.5 -29z" />
    <glyph glyph-name="uni0230" unicode="&#x230;" horiz-adv-x="786" 
d="M355 -10q-98 0 -169.5 34t-109.5 98t-38 153q0 96 33 177t93 141t141 93.5t177 33.5q92 0 159 -35.5t104 -100t37 -153.5q0 -93 -32.5 -173.5t-90.5 -140.5t-136 -93.5t-168 -33.5zM378 165q58 0 103 32t71.5 86.5t26.5 123.5q0 65 -34.5 101.5t-95.5 36.5
q-59 0 -106 -32t-74.5 -86.5t-27.5 -123.5q0 -64 36.5 -101t100.5 -37zM323 1002l22 123h404l-22 -123h-404zM501 755q-52 0 -83 31.5t-31 75.5t30.5 75.5t83.5 31.5t83.5 -31.5t30.5 -75.5t-30.5 -75.5t-83.5 -31.5z" />
    <glyph glyph-name="uni0231" unicode="&#x231;" horiz-adv-x="607" 
d="M355 521q111 0 171.5 -57t60.5 -152q0 -69 -25 -128t-70.5 -102.5t-106.5 -68t-133 -24.5q-112 0 -172 57.5t-60 151.5q0 69 25 128t70.5 103t106.5 68t133 24zM287 149q49 0 78 39.5t29 94.5q0 78 -70 78q-51 0 -81.5 -39.5t-30.5 -95.5q0 -77 75 -77zM199 806l22 123
h404l-22 -123h-404zM377 559q-52 0 -83 31.5t-31 75.5t30.5 75.5t83.5 31.5t83.5 -31.5t30.5 -75.5t-30.5 -75.5t-83.5 -31.5z" />
    <glyph glyph-name="uni0232" unicode="&#x232;" horiz-adv-x="636" 
d="M739 710l-308 -394l-56 -316h-200l55 310l-179 400h212l95 -221l162 221h219zM259 912h360l-22 -122h-360z" />
    <glyph glyph-name="uni0233" unicode="&#x233;" horiz-adv-x="634" 
d="M170 -210q-32 0 -68.5 4.5t-69.5 14.5t-53 25l62 158q35 -19 72.5 -29.5t86.5 -10.5q79 0 118.5 34t58.5 106l4 14q-39 -47 -85.5 -70t-98.5 -23q-97 0 -136.5 64t-18.5 177l18 96q9 48 13.5 88.5t6.5 75.5h186q-2 -45 -7.5 -88.5t-13.5 -81.5l-15 -78q-7 -40 5 -60
t40 -20q35 0 64.5 29.5t56.5 101t52 197.5h180l-71 -402q-30 -168 -124.5 -245t-262.5 -77zM218 716h360l-22 -122h-360z" />
    <glyph glyph-name="uni0237" unicode="&#x237;" horiz-adv-x="299" 
d="M76 341q10 56 15 97t7 76h184q-2 -37 -8 -86t-14 -94l-51 -289q-19 -112 -87.5 -175.5t-206.5 -63.5q-75 0 -122 15l49 152q22 -5 46.5 -8t43.5 -3q41 0 62.5 18.5t28.5 61.5z" />
    <glyph glyph-name="uni0259" unicode="&#x259;" horiz-adv-x="552" 
d="M295 521q69 0 122.5 -27.5t83.5 -76.5t30 -116q0 -66 -24 -123t-67.5 -99.5t-101.5 -66t-126 -23.5q-94 0 -148.5 42.5t-54.5 114.5q0 68 42 108t120 46l174 14q-6 23 -31.5 36.5t-61.5 13.5q-58 0 -111 -36l-77 113q42 40 102.5 60t128.5 20zM170 156q0 -17 14 -26.5
t39 -9.5q83 0 107 83l-114 -9q-46 -3 -46 -38z" />
    <glyph glyph-name="uni02B9" unicode="&#x2b9;" horiz-adv-x="639" 
d="M263 573l157 177l184 -45l-176 -132h-165z" />
    <glyph glyph-name="uni02BA" unicode="&#x2ba;" horiz-adv-x="620" 
d="M529 573h-143l106 177l160 -45zM304 573h-143l106 177l159 -45z" />
    <glyph glyph-name="uni02BB" unicode="&#x2bb;" horiz-adv-x="639" 
d="M456 753q-20 -25 -27 -44.5t-7 -33.5q0 -15 5.5 -26t5.5 -24q0 -22 -26.5 -39.5t-64.5 -17.5q-45 0 -67 16.5t-22 42.5q0 27 18 52.5t46 45t57 28.5h82z" />
    <glyph glyph-name="uni02BC" unicode="&#x2bc;" horiz-adv-x="325" 
d="M-1 292q29 48 51.5 95.5t22.5 89.5q0 23 -4.5 41t-9 36.5t-4.5 42.5q0 39 19.5 67t52 43t71.5 15q53 0 81 -26t28 -73q0 -40 -19.5 -86t-51.5 -91t-69 -85t-73 -69h-95z" />
    <glyph glyph-name="uni02BE" unicode="&#x2be;" horiz-adv-x="613" 
d="M300 568v73q55 0 55 46q0 20 -14.5 32.5t-40.5 12.5v71q63 0 103 -33.5t40 -83.5q0 -52 -39 -85t-104 -33z" />
    <glyph glyph-name="uni02BF" unicode="&#x2bf;" horiz-adv-x="613" 
d="M313 568q-64 0 -103.5 33t-39.5 85q0 50 40 83.5t103 33.5v-71q-26 0 -40.5 -12.5t-14.5 -32.5q0 -46 55 -46v-73z" />
    <glyph glyph-name="circumflex" unicode="&#x2c6;" horiz-adv-x="647" 
d="M543 573h-165l-30 55l-51 -55h-177l167 167h150z" />
    <glyph glyph-name="caron" unicode="&#x2c7;" horiz-adv-x="647" 
d="M270 573l-106 167l160 10l38 -68l63 68l161 -10l-166 -167h-150z" />
    <glyph glyph-name="uni02C8" unicode="&#x2c8;" horiz-adv-x="618" 
d="M238 573l32 180h163l-32 -180h-163z" />
    <glyph glyph-name="uni02C9" unicode="&#x2c9;" horiz-adv-x="623" 
d="M168 714h357l-21 -118h-357z" />
    <glyph glyph-name="uni02CA" unicode="&#x2ca;" horiz-adv-x="639" 
d="M263 573l157 177l184 -45l-176 -132h-165z" />
    <glyph glyph-name="uni02CB" unicode="&#x2cb;" horiz-adv-x="644" 
d="M260 573l-127 132l199 45l93 -177h-165z" />
    <glyph glyph-name="uni02CC" unicode="&#x2cc;" horiz-adv-x="618" 
d="M96 -234l34 190h163l-34 -190h-163z" />
    <glyph glyph-name="breve" unicode="&#x2d8;" horiz-adv-x="647" 
d="M450 753l115 -13q-8 -53 -36.5 -91.5t-71 -59.5t-92.5 -21q-90 0 -135.5 46.5t-44.5 125.5l119 13q3 -65 62 -65q60 0 84 65z" />
    <glyph glyph-name="dotaccent" unicode="&#x2d9;" horiz-adv-x="651" 
d="M362 559q-52 0 -83 31.5t-31 75.5t30.5 75.5t83.5 31.5t83.5 -31.5t30.5 -75.5t-30.5 -75.5t-83.5 -31.5z" />
    <glyph glyph-name="ring" unicode="&#x2da;" horiz-adv-x="626" 
d="M365 568q-35 0 -64.5 15.5t-47 42.5t-17.5 59q0 34 18 61.5t48 43.5t66 16q53 0 90 -33.5t37 -83.5q0 -34 -17.5 -61.5t-46.5 -43.5t-66 -16zM366 636q22 0 36.5 15t14.5 38q0 21 -15 35t-35 14q-22 0 -37.5 -15t-15.5 -38q0 -22 15 -35.5t37 -13.5z" />
    <glyph glyph-name="ogonek" unicode="&#x2db;" horiz-adv-x="625" 
d="M110.679 -223q-67 0 -103.887 29t-28.2461 78q7.40527 42 38.8721 73q31.4658 31 74.6689 52t86.1426 32l78.7705 -41q-64.8789 -22 -87.9346 -45t-26.0537 -40q-4.9375 -28 28.0625 -28q12 0 29.9111 8q17.9102 8 30.8506 19l29.6592 -87q-27.2324 -24 -67.0244 -37
t-83.792 -13z" />
    <glyph glyph-name="tilde" unicode="&#x2dc;" horiz-adv-x="637" 
d="M424 566q-30 0 -59 12.5t-54.5 25t-47.5 12.5q-12 0 -31.5 -9.5t-35.5 -29.5l-60 61q26 58 68.5 85.5t92.5 27.5q30 0 59 -12t55.5 -24.5t46.5 -12.5q17 0 35.5 9t31.5 31l61 -60q-27 -58 -69.5 -87t-92.5 -29z" />
    <glyph glyph-name="hungarumlaut" unicode="&#x2dd;" horiz-adv-x="620" 
d="M529 573h-143l106 177l160 -45zM304 573h-143l106 177l159 -45z" />
    <glyph glyph-name="gravecomb" unicode="&#x300;" 
d="M260 573l-127 132l199 45l93 -177h-165z" />
    <glyph glyph-name="acutecomb" unicode="&#x301;" 
d="M263 573l157 177l184 -45l-176 -132h-165z" />
    <glyph glyph-name="uni0302" unicode="&#x302;" 
d="M543 573h-165l-30 55l-51 -55h-177l167 167h150z" />
    <glyph glyph-name="tildecomb" unicode="&#x303;" 
d="M424 566q-30 0 -59 12.5t-54.5 25t-47.5 12.5q-12 0 -31.5 -9.5t-35.5 -29.5l-60 61q26 58 68.5 85.5t92.5 27.5q30 0 59 -12t55.5 -24.5t46.5 -12.5q17 0 35.5 9t31.5 31l61 -60q-27 -58 -69.5 -87t-92.5 -29z" />
    <glyph glyph-name="uni0304" unicode="&#x304;" 
d="M166 716h360l-22 -122h-360z" />
    <glyph glyph-name="uni0306" unicode="&#x306;" 
d="M450 753l115 -13q-8 -53 -36.5 -91.5t-71 -59.5t-92.5 -21q-90 0 -135.5 46.5t-44.5 125.5l119 13q3 -65 62 -65q60 0 84 65z" />
    <glyph glyph-name="uni0307" unicode="&#x307;" 
d="M362 559q-52 0 -83 31.5t-31 75.5t30.5 75.5t83.5 31.5t83.5 -31.5t30.5 -75.5t-30.5 -75.5t-83.5 -31.5z" />
    <glyph glyph-name="uni0308" unicode="&#x308;" 
d="M477 568q-34 0 -57 14.5t-34.5 37t-11.5 44.5q0 36 26 66t77 30q49 0 75.5 -30t26.5 -66q0 -22 -12 -44.5t-34.5 -37t-55.5 -14.5zM248 568q-34 0 -57 14.5t-34.5 37t-11.5 44.5q0 36 26 66t77 30q49 0 75.5 -30t26.5 -66q0 -22 -12 -44.5t-34.5 -37t-55.5 -14.5z" />
    <glyph glyph-name="hookabovecomb" unicode="&#x309;" 
d="M391 751q56 0 90 -20t34 -55q0 -29 -16.5 -43.5t-38.5 -21.5t-40 -15t-21 -23h-108l2 11q3 16 15.5 26.5t28 18t26.5 14t11 14.5q0 9 -15 9q-23 0 -45 -9t-42 -26l-53 57q65 63 172 63z" />
    <glyph glyph-name="uni030A" unicode="&#x30a;" 
d="M365 568q-35 0 -64.5 15.5t-47 42.5t-17.5 59q0 34 18 61.5t48 43.5t66 16q53 0 90 -33.5t37 -83.5q0 -34 -17.5 -61.5t-46.5 -43.5t-66 -16zM366 636q22 0 36.5 15t14.5 38q0 21 -15 35t-35 14q-22 0 -37.5 -15t-15.5 -38q0 -22 15 -35.5t37 -13.5z" />
    <glyph glyph-name="uni030B" unicode="&#x30b;" 
d="M529 573h-143l106 177l160 -45zM304 573h-143l106 177l159 -45z" />
    <glyph glyph-name="uni030C" unicode="&#x30c;" 
d="M270 573l-106 167l160 10l38 -68l63 68l161 -10l-166 -167h-150z" />
    <glyph glyph-name="uni030F" unicode="&#x30f;" 
d="M386 573l-74 132l175 45l42 -177h-143zM161 573l-75 132l176 45l42 -177h-143z" />
    <glyph glyph-name="uni0311" unicode="&#x311;" 
d="M420 573q-3 26 -17.5 41.5t-46.5 15.5q-55 0 -80 -57h-121q16 84 75.5 130.5t140.5 46.5q84 0 128 -46.5t36 -130.5h-115z" />
    <glyph glyph-name="uni0312" unicode="&#x312;" 
d="M456 753q-20 -25 -27 -44.5t-7 -33.5q0 -15 5.5 -26t5.5 -24q0 -22 -26.5 -39.5t-64.5 -17.5q-45 0 -67 16.5t-22 42.5q0 27 18 52.5t46 45t57 28.5h82z" />
    <glyph glyph-name="uni031B" unicode="&#x31b;" 
d="M453 513q26 0 40.5 8t21 32.5t8.5 73.5l159 -12q3 -68 -24 -120t-76 -81t-112 -29h-46l-36 135q12 -2 31 -4.5t34 -2.5z" />
    <glyph glyph-name="dotbelowcomb" unicode="&#x323;" 
d="M209 -259q-52 0 -83 31.5t-31 75.5t30 75.5t83 31.5t84 -31.5t31 -75.5t-30.5 -75.5t-83.5 -31.5z" />
    <glyph glyph-name="uni0324" unicode="&#x324;" 
d="M336 -238q-34 0 -57 14.5t-34.5 37t-11.5 44.5q0 36 26 66t77 30q49 0 75.5 -30t26.5 -66q0 -22 -12 -44.5t-34.5 -37t-55.5 -14.5zM107 -238q-34 0 -57 14.5t-34.5 37t-11.5 44.5q0 36 26 66t77 30q49 0 75.5 -30t26.5 -66q0 -22 -12 -44.5t-34.5 -37t-55.5 -14.5z" />
    <glyph glyph-name="uni0326" unicode="&#x326;" 
d="M95 -230q20 25 27 45t7 33q0 15 -5.5 26t-5.5 24q0 23 27 40t64 17q45 0 67 -16.5t22 -42.5q0 -27 -18 -52.5t-46 -45t-57 -28.5h-82z" />
    <glyph glyph-name="uni0327" unicode="&#x327;" 
d="M160 -223q-20 0 -46.5 3.5t-51 9t-38.5 12.5l44 84q18 -7 48.5 -13t58.5 -6q23 0 30.5 5.5t7.5 11.5t-6.5 10t-23.5 4h-77l79 120h114l-27 -48q81 -19 81 -80q0 -49 -50.5 -81t-142.5 -32z" />
    <glyph glyph-name="uni0328" unicode="&#x328;" 
d="M241 -223q-67 0 -109 29t-42 78q0 42 26 73t65.5 52t80.5 32l86 -41q-61 -22 -80 -45t-19 -40q0 -28 33 -28q12 0 28.5 8t27.5 19l45 -87q-23 -24 -60.5 -37t-81.5 -13z" />
    <glyph glyph-name="uni032E" unicode="&#x32e;" 
d="M299 -44h119q-13 -93 -70.5 -141.5t-138.5 -48.5q-56 0 -98 22.5t-63 65.5t-15 102h115q2 -37 20 -53.5t47 -16.5q32 0 52.5 16t31.5 54z" />
    <glyph glyph-name="uni0331" unicode="&#x331;" 
d="M27 -73h360l-22 -123h-360z" />
    <glyph glyph-name="uni0335" unicode="&#x335;" 
d="M57 341l23 130h428l-23 -130h-428z" />
    <glyph glyph-name="uni0336" unicode="&#x336;" 
d="M-126 338l24 136h740l-24 -136h-740z" />
    <glyph glyph-name="uni0337" unicode="&#x337;" 
d="M78 183l-59 101l340 190l60 -100z" />
    <glyph glyph-name="uni0338" unicode="&#x338;" 
d="M136 -20l-95 90l57 59l100 79l178 184l63 84l57 59l95 -90l-57 -59l-100 -80l-179 -183l-62 -84z" />
    <glyph glyph-name="uni0394" unicode="&#x394;" horiz-adv-x="600" 
d="M-32 0l336 710h167l71 -710h-574zM230 166h120l-14 252z" />
    <glyph glyph-name="uni03A9" unicode="&#x3a9;" horiz-adv-x="812" 
d="M484 720q93 0 163 -34.5t109.5 -96t39.5 -143.5q0 -95 -38 -165t-107 -123h125l-27 -158h-349l22 126q77 55 120.5 125t43.5 161q0 62 -34 97.5t-92 35.5q-67 0 -112 -34.5t-67.5 -91t-22.5 -121.5q0 -57 22.5 -97t63.5 -75l-22 -126h-349l27 158h116q-30 33 -44 73.5
t-14 88.5q0 86 32.5 159t91 127t136 84t166.5 30z" />
    <glyph glyph-name="pi" unicode="&#x3c0;" horiz-adv-x="704" 
d="M4 0q34 72 58 132t40.5 115t29.5 112h-116l27 153h664l-27 -153h-116l-26 -146q-12 -64 46 -64q19 0 35 4.5t35 15.5l27 -138q-27 -20 -69.5 -31t-87.5 -11q-98 0 -143 54.5t-29 147.5l29 168h-67q-13 -62 -28.5 -119.5t-37 -115.5t-50.5 -124h-194z" />
    <glyph glyph-name="uni1E08" unicode="&#x1e08;" horiz-adv-x="693" 
d="M697 138q-64 -80 -148.5 -115t-179.5 -34q-160 2 -245.5 77.5t-85.5 208.5q0 96 34 177t94.5 141t141 93.5t174.5 33.5q99 0 173.5 -36.5t107.5 -112.5l-164 -107q-15 37 -47.5 59t-88.5 22q-64 0 -114 -32t-79 -86.5t-29 -123.5q0 -64 40 -101t112 -37q44 0 91.5 23
t80.5 67zM300 -223q-20 0 -46.5 3.5t-51 9t-38.5 12.5l44 84q18 -7 48.5 -13t58.5 -6q23 0 30.5 5.5t7.5 11.5t-6.5 10t-23.5 4h-77l79 120h114l-27 -48q81 -19 81 -80q0 -49 -50.5 -81t-142.5 -32zM406 769l157 177l184 -45l-176 -132h-165z" />
    <glyph glyph-name="uni1E09" unicode="&#x1e09;" horiz-adv-x="501" 
d="M253 -11q-71 0 -123.5 26t-81 73t-28.5 110q0 93 42 166t116 115t170 42q72 0 122.5 -28t72.5 -83l-147 -98q-15 48 -70 48q-52 0 -83 -39t-31 -95q0 -37 21 -57t58 -19q54 2 88 51l107 -103q-40 -54 -99.5 -81.5t-133.5 -27.5zM186 -223q-20 0 -46.5 3.5t-51 9
t-38.5 12.5l44 84q18 -7 48.5 -13t58.5 -6q23 0 30.5 5.5t7.5 11.5t-6.5 10t-23.5 4h-77l79 120h114l-27 -48q81 -19 81 -80q0 -49 -50.5 -81t-142.5 -32zM253 573l157 177l184 -45l-176 -132h-165z" />
    <glyph glyph-name="uni1E0C" unicode="&#x1e0c;" horiz-adv-x="767" 
d="M15 0l125 710h241q188 0 284.5 -81t96.5 -218q0 -90 -33 -165.5t-92 -130.5t-138.5 -85t-172.5 -30h-311zM246 176h91q107 0 165 56t58 159q0 71 -45 107t-140 36h-66zM310 -259q-52 0 -83 31.5t-31 75.5t30 75.5t83 31.5t84 -31.5t31 -75.5t-30.5 -75.5t-83.5 -31.5z
" />
    <glyph glyph-name="uni1E0D" unicode="&#x1e0d;" horiz-adv-x="635" 
d="M217 -11q-91 0 -144 55.5t-53 152.5q0 69 24 128t67.5 103t101.5 68.5t126 24.5q56 0 101 -21l2 14l40 226h186l-99 -564q-7 -45 -12 -90.5t-5 -85.5h-179q0 41 8 86q-66 -97 -164 -97zM283 149q46 0 78 35.5t42 97.5l10 58q-24 21 -72 21q-58 0 -93.5 -39t-35.5 -103
q0 -33 18.5 -51.5t52.5 -18.5zM255 -259q-52 0 -83 31.5t-31 75.5t30 75.5t83 31.5t84 -31.5t31 -75.5t-30.5 -75.5t-83.5 -31.5z" />
    <glyph glyph-name="uni1E0E" unicode="&#x1e0e;" horiz-adv-x="767" 
d="M15 0l125 710h241q188 0 284.5 -81t96.5 -218q0 -90 -33 -165.5t-92 -130.5t-138.5 -85t-172.5 -30h-311zM246 176h91q107 0 165 56t58 159q0 71 -45 107t-140 36h-66zM143 -73h360l-22 -123h-360z" />
    <glyph glyph-name="uni1E0F" unicode="&#x1e0f;" horiz-adv-x="635" 
d="M217 -11q-91 0 -144 55.5t-53 152.5q0 69 24 128t67.5 103t101.5 68.5t126 24.5q56 0 101 -21l2 14l40 226h186l-99 -564q-7 -45 -12 -90.5t-5 -85.5h-179q0 41 8 86q-66 -97 -164 -97zM283 149q46 0 78 35.5t42 97.5l10 58q-24 21 -72 21q-58 0 -93.5 -39t-35.5 -103
q0 -33 18.5 -51.5t52.5 -18.5zM88 -73h360l-22 -123h-360z" />
    <glyph glyph-name="uni1E14" unicode="&#x1e14;" horiz-adv-x="595" 
d="M243 171h329l-43 -171h-514l125 710h518l-30 -171h-322l-17 -97h296l-30 -171h-295zM363 972l-130 138l199 46l97 -184h-166zM212 790l22 122h404l-22 -122h-404z" />
    <glyph glyph-name="uni1E15" unicode="&#x1e15;" horiz-adv-x="552" 
d="M268 -11q-74 0 -129.5 27.5t-86 77t-30.5 115.5t24 123t67.5 99.5t101.5 66t126 23.5q94 0 148.5 -42.5t54.5 -114.5q0 -67 -42 -107.5t-120 -46.5l-174 -14q7 -23 34 -36.5t69 -13.5q62 0 101 36l77 -113q-85 -80 -221 -80zM330 390q-83 0 -107 -83l114 9q46 3 46 38
q0 17 -14 26.5t-39 9.5zM300 776l-130 138l199 46l97 -184h-166zM149 594l22 122h404l-22 -122h-404z" />
    <glyph glyph-name="uni1E16" unicode="&#x1e16;" horiz-adv-x="595" 
d="M243 171h329l-43 -171h-514l125 710h518l-30 -171h-322l-17 -97h296l-30 -171h-295zM365 972l162 184l184 -46l-181 -138h-165zM212 790l22 122h404l-22 -122h-404z" />
    <glyph glyph-name="uni1E17" unicode="&#x1e17;" horiz-adv-x="552" 
d="M268 -11q-74 0 -129.5 27.5t-86 77t-30.5 115.5t24 123t67.5 99.5t101.5 66t126 23.5q94 0 148.5 -42.5t54.5 -114.5q0 -67 -42 -107.5t-120 -46.5l-174 -14q7 -23 34 -36.5t69 -13.5q62 0 101 36l77 -113q-85 -80 -221 -80zM330 390q-83 0 -107 -83l114 9q46 3 46 38
q0 17 -14 26.5t-39 9.5zM302 776l162 184l184 -46l-181 -138h-165zM149 594l22 122h404l-22 -122h-404z" />
    <glyph glyph-name="uni1E1C" unicode="&#x1e1c;" horiz-adv-x="595" 
d="M243 171h329l-43 -171h-514l125 710h518l-30 -171h-322l-17 -97h296l-30 -171h-295zM224 -223q-20 0 -46.5 3.5t-51 9t-38.5 12.5l44 84q18 -7 48.5 -13t58.5 -6q23 0 30.5 5.5t7.5 11.5t-6.5 10t-23.5 4h-77l79 120h114l-27 -48q81 -19 81 -80q0 -49 -50.5 -81
t-142.5 -32zM515 949l115 -13q-8 -53 -36.5 -91.5t-71 -59.5t-92.5 -21q-90 0 -135.5 46.5t-44.5 125.5l119 13q3 -65 62 -65q60 0 84 65z" />
    <glyph glyph-name="uni1E1D" unicode="&#x1e1d;" horiz-adv-x="552" 
d="M268 -11q-74 0 -129.5 27.5t-86 77t-30.5 115.5t24 123t67.5 99.5t101.5 66t126 23.5q94 0 148.5 -42.5t54.5 -114.5q0 -67 -42 -107.5t-120 -46.5l-174 -14q7 -23 34 -36.5t69 -13.5q62 0 101 36l77 -113q-85 -80 -221 -80zM330 390q-83 0 -107 -83l114 9q46 3 46 38
q0 17 -14 26.5t-39 9.5zM196 -223q-20 0 -46.5 3.5t-51 9t-38.5 12.5l44 84q18 -7 48.5 -13t58.5 -6q23 0 30.5 5.5t7.5 11.5t-6.5 10t-23.5 4h-77l79 120h114l-27 -48q81 -19 81 -80q0 -49 -50.5 -81t-142.5 -32zM452 753l115 -13q-8 -53 -36.5 -91.5t-71 -59.5t-92.5 -21
q-90 0 -135.5 46.5t-44.5 125.5l119 13q3 -65 62 -65q60 0 84 65z" />
    <glyph glyph-name="uni1E20" unicode="&#x1e20;" horiz-adv-x="784" 
d="M447 403h326l-71 -403h-158l-2 44q-33 -29 -84.5 -42.5t-98.5 -12.5q-101 2 -173 37t-110 99t-38 150q0 96 35 177t97.5 141t145 93.5t176.5 33.5q106 0 189 -36t119 -110l-172 -110q-19 41 -63.5 61t-91.5 20q-64 0 -116.5 -32t-84 -86.5t-31.5 -123.5q0 -64 37.5 -101
t114.5 -37q57 0 99.5 22t57.5 55h-131zM332 912h360l-22 -122h-360z" />
    <glyph glyph-name="uni1E21" unicode="&#x1e21;" horiz-adv-x="639" 
d="M179 -210q-60 0 -116 12.5t-86 31.5l62 158q71 -40 161 -40q74 0 114 32t60 108v1q-64 -80 -155 -80t-144 53t-53 146q0 66 24.5 122t68 98t101.5 65.5t126 23.5q90 0 151 -51l26 40h122q-15 -59 -25 -102.5t-17 -82.5l-38 -215q-30 -169 -124 -244.5t-258 -75.5z
M284 173q47 0 80.5 28t42.5 81l11 60q-25 19 -75 19q-57 0 -93 -34t-36 -88q0 -31 18.5 -48.5t51.5 -17.5zM227 716h360l-22 -122h-360z" />
    <glyph glyph-name="uni1E24" unicode="&#x1e24;" horiz-adv-x="774" 
d="M15 0l125 710h200l-47 -267h254l47 267h200l-125 -710h-200l48 270h-254l-48 -270h-200zM316 -259q-52 0 -83 31.5t-31 75.5t30 75.5t83 31.5t84 -31.5t31 -75.5t-30.5 -75.5t-83.5 -31.5z" />
    <glyph glyph-name="uni1E25" unicode="&#x1e25;" horiz-adv-x="644" 
d="M7 0l130 740h186l-40 -226l-26 -106q40 54 92.5 83.5t113.5 29.5q94 0 132.5 -65.5t10.5 -178.5l-32 -130q-9 -40 -13.5 -75.5t-4.5 -71.5h-187q0 38 4 71.5t13 68.5l32 129q11 43 2 62t-38 19q-126 0 -189 -350h-186zM255 -259q-52 0 -83 31.5t-31 75.5t30 75.5t83 31.5
t84 -31.5t31 -75.5t-30.5 -75.5t-83.5 -31.5z" />
    <glyph glyph-name="uni1E2A" unicode="&#x1e2a;" horiz-adv-x="774" 
d="M15 0l125 710h200l-47 -267h254l47 267h200l-125 -710h-200l48 270h-254l-48 -270h-200zM408 -44h119q-13 -93 -70.5 -141.5t-138.5 -48.5q-56 0 -98 22.5t-63 65.5t-15 102h115q2 -37 20 -53.5t47 -16.5q32 0 52.5 16t31.5 54z" />
    <glyph glyph-name="uni1E2B" unicode="&#x1e2b;" horiz-adv-x="644" 
d="M7 0l130 740h186l-40 -226l-26 -106q40 54 92.5 83.5t113.5 29.5q94 0 132.5 -65.5t10.5 -178.5l-32 -130q-9 -40 -13.5 -75.5t-4.5 -71.5h-187q0 38 4 71.5t13 68.5l32 129q11 43 2 62t-38 19q-126 0 -189 -350h-186zM347 -44h119q-13 -93 -70.5 -141.5t-138.5 -48.5
q-56 0 -98 22.5t-63 65.5t-15 102h115q2 -37 20 -53.5t47 -16.5q32 0 52.5 16t31.5 54z" />
    <glyph glyph-name="uni1E2E" unicode="&#x1e2e;" horiz-adv-x="320" 
d="M15 0l125 710h200l-125 -710h-200zM204 979l157 177l184 -46l-176 -131h-165zM151 764q-34 0 -57 14.5t-34.5 37t-11.5 44.5q0 36 26 66t77 30q49 0 75.5 -30t26.5 -66q0 -22 -12 -44.5t-34.5 -37t-55.5 -14.5zM380 764q-34 0 -57 14.5t-34.5 37t-11.5 44.5q0 36 26 66
t77 30q49 0 75.5 -30t26.5 -66q0 -22 -12 -44.5t-34.5 -37t-55.5 -14.5z" />
    <glyph glyph-name="uni1E2F" unicode="&#x1e2f;" horiz-adv-x="290" 
d="M14 0q0 38 6 73.5t11 66.5l35 200q10 56 15 97.5t7 76.5h186q-2 -37 -8 -86t-14 -94l-33 -187q-7 -41 -12.5 -76t-5.5 -71h-187zM145 783l157 177l184 -46l-176 -131h-165zM92 568q-34 0 -57 14.5t-34.5 37t-11.5 44.5q0 36 26 66t77 30q49 0 75.5 -30t26.5 -66
q0 -22 -12 -44.5t-34.5 -37t-55.5 -14.5zM321 568q-34 0 -57 14.5t-34.5 37t-11.5 44.5q0 36 26 66t77 30q49 0 75.5 -30t26.5 -66q0 -22 -12 -44.5t-34.5 -37t-55.5 -14.5z" />
    <glyph glyph-name="uni1E36" unicode="&#x1e36;" horiz-adv-x="552" 
d="M15 0l125 710h200l-94 -536h296l-43 -174h-484zM232 -259q-52 0 -83 31.5t-31 75.5t30 75.5t83 31.5t84 -31.5t31 -75.5t-30.5 -75.5t-83.5 -31.5z" />
    <glyph glyph-name="uni1E37" unicode="&#x1e37;" horiz-adv-x="327" 
d="M181 -11q-83 0 -120.5 48.5t-24.5 127.5l101 575h186l-98 -558q-4 -19 4.5 -27.5t24.5 -8.5q21 0 37 11l20 -132q-20 -17 -55 -26.5t-75 -9.5zM84 -259q-52 0 -83 31.5t-31 75.5t30 75.5t83 31.5t84 -31.5t31 -75.5t-30.5 -75.5t-83.5 -31.5z" />
    <glyph glyph-name="uni1E3A" unicode="&#x1e3a;" horiz-adv-x="552" 
d="M15 0l125 710h200l-94 -536h296l-43 -174h-484zM65 -73h360l-22 -123h-360z" />
    <glyph glyph-name="uni1E3B" unicode="&#x1e3b;" horiz-adv-x="327" 
d="M181 -11q-83 0 -120.5 48.5t-24.5 127.5l101 575h186l-98 -558q-4 -19 4.5 -27.5t24.5 -8.5q21 0 37 11l20 -132q-20 -17 -55 -26.5t-75 -9.5zM-83 -73h360l-22 -123h-360z" />
    <glyph glyph-name="uni1E42" unicode="&#x1e42;" horiz-adv-x="959" 
d="M16 0l147 710h163l149 -463l323 463h163l-111 -710h-193l45 286l-203 -286h-140l-97 303l-63 -303h-183zM402 -259q-52 0 -83 31.5t-31 75.5t30 75.5t83 31.5t84 -31.5t31 -75.5t-30.5 -75.5t-83.5 -31.5z" />
    <glyph glyph-name="uni1E43" unicode="&#x1e43;" horiz-adv-x="992" 
d="M7 0l60 340q10 56 15.5 97.5t9.5 76.5h180q-4 -55 -21 -113q40 57 93.5 88.5t114.5 31.5q59 0 96 -28t49 -79q41 52 95 79.5t116 27.5q91 0 129 -65.5t10 -178.5l-32 -130q-10 -40 -14 -75.5t-4 -71.5h-187q0 38 4 71.5t13 68.5l32 129q11 43 2.5 62t-34.5 19
q-123 0 -186 -350h-186l48 269q8 43 1 62t-33 19q-122 0 -185 -350h-186zM429 -259q-52 0 -83 31.5t-31 75.5t30 75.5t83 31.5t84 -31.5t31 -75.5t-30.5 -75.5t-83.5 -31.5z" />
    <glyph glyph-name="uni1E44" unicode="&#x1e44;" horiz-adv-x="765" 
d="M593 710h192l-125 -710h-178l-207 389l-68 -389h-192l125 710h178l207 -388zM490 758q-52 0 -83 31.5t-31 75.5t30.5 75.5t83.5 31.5t83.5 -31.5t30.5 -75.5t-30.5 -75.5t-83.5 -31.5z" />
    <glyph glyph-name="uni1E45" unicode="&#x1e45;" horiz-adv-x="644" 
d="M7 0l60 340q10 56 15.5 97.5t9.5 76.5h180q-4 -55 -21 -114q40 58 94.5 89.5t117.5 31.5q94 0 132.5 -65.5t10.5 -178.5l-32 -130q-9 -40 -13.5 -75.5t-4.5 -71.5h-187q0 38 4 71.5t13 68.5l32 129q11 43 2 62t-38 19q-126 0 -189 -350h-186zM398 559q-52 0 -83 31.5
t-31 75.5t30.5 75.5t83.5 31.5t83.5 -31.5t30.5 -75.5t-30.5 -75.5t-83.5 -31.5z" />
    <glyph glyph-name="uni1E46" unicode="&#x1e46;" horiz-adv-x="765" 
d="M593 710h192l-125 -710h-178l-207 389l-68 -389h-192l125 710h178l207 -388zM311 -259q-52 0 -83 31.5t-31 75.5t30 75.5t83 31.5t84 -31.5t31 -75.5t-30.5 -75.5t-83.5 -31.5z" />
    <glyph glyph-name="uni1E47" unicode="&#x1e47;" horiz-adv-x="644" 
d="M7 0l60 340q10 56 15.5 97.5t9.5 76.5h180q-4 -55 -21 -114q40 58 94.5 89.5t117.5 31.5q94 0 132.5 -65.5t10.5 -178.5l-32 -130q-9 -40 -13.5 -75.5t-4.5 -71.5h-187q0 38 4 71.5t13 68.5l32 129q11 43 2 62t-38 19q-126 0 -189 -350h-186zM254 -259q-52 0 -83 31.5
t-31 75.5t30 75.5t83 31.5t84 -31.5t31 -75.5t-30.5 -75.5t-83.5 -31.5z" />
    <glyph glyph-name="uni1E48" unicode="&#x1e48;" horiz-adv-x="765" 
d="M593 710h192l-125 -710h-178l-207 389l-68 -389h-192l125 710h178l207 -388zM144 -73h360l-22 -123h-360z" />
    <glyph glyph-name="uni1E49" unicode="&#x1e49;" horiz-adv-x="644" 
d="M7 0l60 340q10 56 15.5 97.5t9.5 76.5h180q-4 -55 -21 -114q40 58 94.5 89.5t117.5 31.5q94 0 132.5 -65.5t10.5 -178.5l-32 -130q-9 -40 -13.5 -75.5t-4.5 -71.5h-187q0 38 4 71.5t13 68.5l32 129q11 43 2 62t-38 19q-126 0 -189 -350h-186zM87 -73h360l-22 -123h-360z
" />
    <glyph glyph-name="uni1E4C" unicode="&#x1e4c;" horiz-adv-x="786" 
d="M355 -10q-98 0 -169.5 34t-109.5 98t-38 153q0 96 33 177t93 141t141 93.5t177 33.5q92 0 159 -35.5t104 -100t37 -153.5q0 -93 -32.5 -173.5t-90.5 -140.5t-136 -93.5t-168 -33.5zM378 165q58 0 103 32t71.5 86.5t26.5 123.5q0 65 -34.5 101.5t-95.5 36.5
q-59 0 -106 -32t-74.5 -86.5t-27.5 -123.5q0 -64 36.5 -101t100.5 -37zM438 972l162 184l184 -46l-181 -138h-165zM563 762q-30 0 -59 12.5t-54.5 25t-47.5 12.5q-12 0 -31.5 -9.5t-35.5 -29.5l-60 61q26 58 68.5 85.5t92.5 27.5q30 0 59 -12t55.5 -24.5t46.5 -12.5
q17 0 35.5 9t31.5 31l61 -60q-27 -58 -69.5 -87t-92.5 -29z" />
    <glyph glyph-name="uni1E4D" unicode="&#x1e4d;" horiz-adv-x="607" 
d="M355 521q111 0 171.5 -57t60.5 -152q0 -69 -25 -128t-70.5 -102.5t-106.5 -68t-133 -24.5q-112 0 -172 57.5t-60 151.5q0 69 25 128t70.5 103t106.5 68t133 24zM287 149q49 0 78 39.5t29 94.5q0 78 -70 78q-51 0 -81.5 -39.5t-30.5 -95.5q0 -77 75 -77zM314 776l162 184
l184 -46l-181 -138h-165zM439 566q-30 0 -59 12.5t-54.5 25t-47.5 12.5q-12 0 -31.5 -9.5t-35.5 -29.5l-60 61q26 58 68.5 85.5t92.5 27.5q30 0 59 -12t55.5 -24.5t46.5 -12.5q17 0 35.5 9t31.5 31l61 -60q-27 -58 -69.5 -87t-92.5 -29z" />
    <glyph glyph-name="uni1E4E" unicode="&#x1e4e;" horiz-adv-x="786" 
d="M355 -10q-98 0 -169.5 34t-109.5 98t-38 153q0 96 33 177t93 141t141 93.5t177 33.5q92 0 159 -35.5t104 -100t37 -153.5q0 -93 -32.5 -173.5t-90.5 -140.5t-136 -93.5t-168 -33.5zM378 165q58 0 103 32t71.5 86.5t26.5 123.5q0 65 -34.5 101.5t-95.5 36.5
q-59 0 -106 -32t-74.5 -86.5t-27.5 -123.5q0 -64 36.5 -101t100.5 -37zM427 980q-34 0 -57 14.5t-35 36.5t-12 44q0 36 26 66t77 30q49 0 75.5 -30t26.5 -66q0 -22 -11.5 -44t-34 -36.5t-55.5 -14.5zM655 980q-34 0 -57 14.5t-35 36.5t-12 44q0 36 26 66t77 30
q49 0 75.5 -30t26.5 -66q0 -22 -11.5 -44t-34 -36.5t-55.5 -14.5zM563 762q-30 0 -59 12.5t-54.5 25t-47.5 12.5q-12 0 -31.5 -9.5t-35.5 -29.5l-60 61q26 58 68.5 85.5t92.5 27.5q30 0 59 -12t55.5 -24.5t46.5 -12.5q17 0 35.5 9t31.5 31l61 -60q-27 -58 -69.5 -87
t-92.5 -29z" />
    <glyph glyph-name="uni1E4F" unicode="&#x1e4f;" horiz-adv-x="607" 
d="M355 521q111 0 171.5 -57t60.5 -152q0 -69 -25 -128t-70.5 -102.5t-106.5 -68t-133 -24.5q-112 0 -172 57.5t-60 151.5q0 69 25 128t70.5 103t106.5 68t133 24zM287 149q49 0 78 39.5t29 94.5q0 78 -70 78q-51 0 -81.5 -39.5t-30.5 -95.5q0 -77 75 -77zM303 784
q-34 0 -57 14.5t-35 36.5t-12 44q0 36 26 66t77 30q49 0 75.5 -30t26.5 -66q0 -22 -11.5 -44t-34 -36.5t-55.5 -14.5zM531 784q-34 0 -57 14.5t-35 36.5t-12 44q0 36 26 66t77 30q49 0 75.5 -30t26.5 -66q0 -22 -11.5 -44t-34 -36.5t-55.5 -14.5zM439 566q-30 0 -59 12.5
t-54.5 25t-47.5 12.5q-12 0 -31.5 -9.5t-35.5 -29.5l-60 61q26 58 68.5 85.5t92.5 27.5q30 0 59 -12t55.5 -24.5t46.5 -12.5q17 0 35.5 9t31.5 31l61 -60q-27 -58 -69.5 -87t-92.5 -29z" />
    <glyph glyph-name="uni1E50" unicode="&#x1e50;" horiz-adv-x="786" 
d="M355 -10q-98 0 -169.5 34t-109.5 98t-38 153q0 96 33 177t93 141t141 93.5t177 33.5q92 0 159 -35.5t104 -100t37 -153.5q0 -93 -32.5 -173.5t-90.5 -140.5t-136 -93.5t-168 -33.5zM378 165q58 0 103 32t71.5 86.5t26.5 123.5q0 65 -34.5 101.5t-95.5 36.5
q-59 0 -106 -32t-74.5 -86.5t-27.5 -123.5q0 -64 36.5 -101t100.5 -37zM437 972l-130 138l199 46l97 -184h-166zM286 790l22 122h404l-22 -122h-404z" />
    <glyph glyph-name="uni1E51" unicode="&#x1e51;" horiz-adv-x="607" 
d="M355 521q111 0 171.5 -57t60.5 -152q0 -69 -25 -128t-70.5 -102.5t-106.5 -68t-133 -24.5q-112 0 -172 57.5t-60 151.5q0 69 25 128t70.5 103t106.5 68t133 24zM287 149q49 0 78 39.5t29 94.5q0 78 -70 78q-51 0 -81.5 -39.5t-30.5 -95.5q0 -77 75 -77zM313 776l-130 138
l199 46l97 -184h-166zM162 594l22 122h404l-22 -122h-404z" />
    <glyph glyph-name="uni1E52" unicode="&#x1e52;" horiz-adv-x="786" 
d="M355 -10q-98 0 -169.5 34t-109.5 98t-38 153q0 96 33 177t93 141t141 93.5t177 33.5q92 0 159 -35.5t104 -100t37 -153.5q0 -93 -32.5 -173.5t-90.5 -140.5t-136 -93.5t-168 -33.5zM378 165q58 0 103 32t71.5 86.5t26.5 123.5q0 65 -34.5 101.5t-95.5 36.5
q-59 0 -106 -32t-74.5 -86.5t-27.5 -123.5q0 -64 36.5 -101t100.5 -37zM439 972l162 184l184 -46l-181 -138h-165zM286 790l22 122h404l-22 -122h-404z" />
    <glyph glyph-name="uni1E53" unicode="&#x1e53;" horiz-adv-x="607" 
d="M355 521q111 0 171.5 -57t60.5 -152q0 -69 -25 -128t-70.5 -102.5t-106.5 -68t-133 -24.5q-112 0 -172 57.5t-60 151.5q0 69 25 128t70.5 103t106.5 68t133 24zM287 149q49 0 78 39.5t29 94.5q0 78 -70 78q-51 0 -81.5 -39.5t-30.5 -95.5q0 -77 75 -77zM315 776l162 184
l184 -46l-181 -138h-165zM162 594l22 122h404l-22 -122h-404z" />
    <glyph glyph-name="uni1E5A" unicode="&#x1e5a;" horiz-adv-x="686" 
d="M669 184l24 -154q-28 -19 -70.5 -30.5t-84.5 -11.5q-78 0 -122.5 27.5t-71.5 91.5l-43 103q-9 20 -19 30t-27 13l-44 -253h-196l125 710h231q291 0 291 -201q0 -93 -52 -154.5t-147 -82.5q31 -13 46 -43l14 -27q20 -39 73 -39q45 0 73 21zM350 549h-43l-25 -141h62
q119 0 119 79q0 32 -27 47t-86 15zM285 -259q-52 0 -83 31.5t-31 75.5t30 75.5t83 31.5t84 -31.5t31 -75.5t-30.5 -75.5t-83.5 -31.5z" />
    <glyph glyph-name="uni1E5B" unicode="&#x1e5b;" horiz-adv-x="443" 
d="M442 333q-20 10 -50 10q-79 0 -123.5 -83t-75.5 -260h-186l60 340q10 56 15.5 97.5t9.5 76.5h180q-2 -29 -9.5 -65.5t-17.5 -74.5q37 76 89.5 111.5t108.5 35.5q17 0 32.5 -2t31.5 -8zM74 -259q-52 0 -83 31.5t-31 75.5t30 75.5t83 31.5t84 -31.5t31 -75.5t-30.5 -75.5
t-83.5 -31.5z" />
    <glyph glyph-name="uni1E5E" unicode="&#x1e5e;" horiz-adv-x="686" 
d="M669 184l24 -154q-28 -19 -70.5 -30.5t-84.5 -11.5q-78 0 -122.5 27.5t-71.5 91.5l-43 103q-9 20 -19 30t-27 13l-44 -253h-196l125 710h231q291 0 291 -201q0 -93 -52 -154.5t-147 -82.5q31 -13 46 -43l14 -27q20 -39 73 -39q45 0 73 21zM350 549h-43l-25 -141h62
q119 0 119 79q0 32 -27 47t-86 15zM118 -73h360l-22 -123h-360z" />
    <glyph glyph-name="uni1E5F" unicode="&#x1e5f;" horiz-adv-x="443" 
d="M442 333q-20 10 -50 10q-79 0 -123.5 -83t-75.5 -260h-186l60 340q10 56 15.5 97.5t9.5 76.5h180q-2 -29 -9.5 -65.5t-17.5 -74.5q37 76 89.5 111.5t108.5 35.5q17 0 32.5 -2t31.5 -8zM-93 -73h360l-22 -123h-360z" />
    <glyph glyph-name="uni1E60" unicode="&#x1e60;" horiz-adv-x="613" 
d="M270 -10q-132 0 -202 57t-71 166l190 27q-4 -38 23 -61.5t79 -23.5q47 0 72.5 13.5t25.5 37.5q0 20 -21.5 32.5t-55.5 23t-72.5 24t-72.5 35t-55.5 56.5t-21.5 88q0 80 42.5 137t114 87.5t156.5 30.5q109 0 173 -54t65 -147l-180 -30q0 29 -23 47.5t-60 18.5
q-35 0 -59 -15t-24 -41q0 -22 21.5 -35.5t56 -24t72.5 -23t72.5 -33t56 -54t21.5 -85.5q0 -79 -44.5 -136t-117.5 -87.5t-161 -30.5zM422 755q-52 0 -83 31.5t-31 75.5t30.5 75.5t83.5 31.5t83.5 -31.5t30.5 -75.5t-30.5 -75.5t-83.5 -31.5z" />
    <glyph glyph-name="uni1E61" unicode="&#x1e61;" horiz-adv-x="499" 
d="M223 -11q-102 0 -168 40.5t-73 112.5l160 38q2 -22 28.5 -36t64.5 -14q26 0 43 7t17 18q0 12 -18 17.5t-46 10.5t-59.5 13t-59.5 24t-46 44t-18 73q0 60 35 101.5t92.5 62.5t123.5 21q56 0 100.5 -17.5t72 -48.5t32.5 -72l-158 -43q-4 19 -22.5 29.5t-47.5 10.5
q-22 0 -36.5 -6.5t-14.5 -17.5q0 -13 17.5 -20.5t45.5 -12.5t59.5 -13.5t59.5 -23.5t45.5 -41t17.5 -69q0 -62 -33 -104t-89 -63t-125 -21zM294 559q-52 0 -83 31.5t-31 75.5t30.5 75.5t83.5 31.5t83.5 -31.5t30.5 -75.5t-30.5 -75.5t-83.5 -31.5z" />
    <glyph glyph-name="uni1E62" unicode="&#x1e62;" horiz-adv-x="613" 
d="M270 -10q-132 0 -202 57t-71 166l190 27q-4 -38 23 -61.5t79 -23.5q47 0 72.5 13.5t25.5 37.5q0 20 -21.5 32.5t-55.5 23t-72.5 24t-72.5 35t-55.5 56.5t-21.5 88q0 80 42.5 137t114 87.5t156.5 30.5q109 0 173 -54t65 -147l-180 -30q0 29 -23 47.5t-60 18.5
q-35 0 -59 -15t-24 -41q0 -22 21.5 -35.5t56 -24t72.5 -23t72.5 -33t56 -54t21.5 -85.5q0 -79 -44.5 -136t-117.5 -87.5t-161 -30.5zM243 -259q-52 0 -83 31.5t-31 75.5t30 75.5t83 31.5t84 -31.5t31 -75.5t-30.5 -75.5t-83.5 -31.5z" />
    <glyph glyph-name="uni1E63" unicode="&#x1e63;" horiz-adv-x="499" 
d="M223 -11q-102 0 -168 40.5t-73 112.5l160 38q2 -22 28.5 -36t64.5 -14q26 0 43 7t17 18q0 12 -18 17.5t-46 10.5t-59.5 13t-59.5 24t-46 44t-18 73q0 60 35 101.5t92.5 62.5t123.5 21q56 0 100.5 -17.5t72 -48.5t32.5 -72l-158 -43q-4 19 -22.5 29.5t-47.5 10.5
q-22 0 -36.5 -6.5t-14.5 -17.5q0 -13 17.5 -20.5t45.5 -12.5t59.5 -13.5t59.5 -23.5t45.5 -41t17.5 -69q0 -62 -33 -104t-89 -63t-125 -21zM241 -259q-52 0 -83 31.5t-31 75.5t30 75.5t83 31.5t84 -31.5t31 -75.5t-30.5 -75.5t-83.5 -31.5z" />
    <glyph glyph-name="uni1E64" unicode="&#x1e64;" horiz-adv-x="613" 
d="M270 -10q-132 0 -202 57t-71 166l190 27q-4 -38 23 -61.5t79 -23.5q47 0 72.5 13.5t25.5 37.5q0 20 -21.5 32.5t-55.5 23t-72.5 24t-72.5 35t-55.5 56.5t-21.5 88q0 80 42.5 137t114 87.5t156.5 30.5q109 0 173 -54t65 -147l-180 -30q0 29 -23 47.5t-60 18.5
q-35 0 -59 -15t-24 -41q0 -22 21.5 -35.5t56 -24t72.5 -23t72.5 -33t56 -54t21.5 -85.5q0 -79 -44.5 -136t-117.5 -87.5t-161 -30.5zM413 929q-52 0 -83.5 31.5t-31.5 75.5t30.5 75.5t83.5 31.5t83.5 -31.5t30.5 -75.5t-30 -75.5t-83 -31.5zM367 769l157 177l184 -45
l-176 -132h-165z" />
    <glyph glyph-name="uni1E65" unicode="&#x1e65;" horiz-adv-x="499" 
d="M223 -11q-102 0 -168 40.5t-73 112.5l160 38q2 -22 28.5 -36t64.5 -14q26 0 43 7t17 18q0 12 -18 17.5t-46 10.5t-59.5 13t-59.5 24t-46 44t-18 73q0 60 35 101.5t92.5 62.5t123.5 21q56 0 100.5 -17.5t72 -48.5t32.5 -72l-158 -43q-4 19 -22.5 29.5t-47.5 10.5
q-22 0 -36.5 -6.5t-14.5 -17.5q0 -13 17.5 -20.5t45.5 -12.5t59.5 -13.5t59.5 -23.5t45.5 -41t17.5 -69q0 -62 -33 -104t-89 -63t-125 -21zM285 733q-52 0 -83.5 31.5t-31.5 75.5t30.5 75.5t83.5 31.5t83.5 -31.5t30.5 -75.5t-30 -75.5t-83 -31.5zM239 573l157 177l184 -45
l-176 -132h-165z" />
    <glyph glyph-name="uni1E66" unicode="&#x1e66;" horiz-adv-x="613" 
d="M270 -10q-132 0 -202 57t-71 166l190 27q-4 -38 23 -61.5t79 -23.5q47 0 72.5 13.5t25.5 37.5q0 20 -21.5 32.5t-55.5 23t-72.5 24t-72.5 35t-55.5 56.5t-21.5 88q0 80 42.5 137t114 87.5t156.5 30.5q109 0 173 -54t65 -147l-180 -30q0 29 -23 47.5t-60 18.5
q-35 0 -59 -15t-24 -41q0 -22 21.5 -35.5t56 -24t72.5 -23t72.5 -33t56 -54t21.5 -85.5q0 -79 -44.5 -136t-117.5 -87.5t-161 -30.5zM457 952q-52 0 -83 31.5t-31 75.5t30 75.5t83 31.5t84 -31.5t31 -75.5t-30.5 -75.5t-83.5 -31.5zM330 769l-106 167l160 10l38 -68l63 68
l161 -10l-166 -167h-150z" />
    <glyph glyph-name="uni1E67" unicode="&#x1e67;" horiz-adv-x="499" 
d="M223 -11q-102 0 -168 40.5t-73 112.5l160 38q2 -22 28.5 -36t64.5 -14q26 0 43 7t17 18q0 12 -18 17.5t-46 10.5t-59.5 13t-59.5 24t-46 44t-18 73q0 60 35 101.5t92.5 62.5t123.5 21q56 0 100.5 -17.5t72 -48.5t32.5 -72l-158 -43q-4 19 -22.5 29.5t-47.5 10.5
q-22 0 -36.5 -6.5t-14.5 -17.5q0 -13 17.5 -20.5t45.5 -12.5t59.5 -13.5t59.5 -23.5t45.5 -41t17.5 -69q0 -62 -33 -104t-89 -63t-125 -21zM329 756q-52 0 -83 31.5t-31 75.5t30 75.5t83 31.5t84 -31.5t31 -75.5t-30.5 -75.5t-83.5 -31.5zM202 573l-106 167l160 10l38 -68
l63 68l161 -10l-166 -167h-150z" />
    <glyph glyph-name="uni1E68" unicode="&#x1e68;" horiz-adv-x="613" 
d="M270 -10q-132 0 -202 57t-71 166l190 27q-4 -38 23 -61.5t79 -23.5q47 0 72.5 13.5t25.5 37.5q0 20 -21.5 32.5t-55.5 23t-72.5 24t-72.5 35t-55.5 56.5t-21.5 88q0 80 42.5 137t114 87.5t156.5 30.5q109 0 173 -54t65 -147l-180 -30q0 29 -23 47.5t-60 18.5
q-35 0 -59 -15t-24 -41q0 -22 21.5 -35.5t56 -24t72.5 -23t72.5 -33t56 -54t21.5 -85.5q0 -79 -44.5 -136t-117.5 -87.5t-161 -30.5zM243 -259q-52 0 -83 31.5t-31 75.5t30 75.5t83 31.5t84 -31.5t31 -75.5t-30.5 -75.5t-83.5 -31.5zM422 755q-52 0 -83 31.5t-31 75.5
t30.5 75.5t83.5 31.5t83.5 -31.5t30.5 -75.5t-30.5 -75.5t-83.5 -31.5z" />
    <glyph glyph-name="uni1E69" unicode="&#x1e69;" horiz-adv-x="499" 
d="M223 -11q-102 0 -168 40.5t-73 112.5l160 38q2 -22 28.5 -36t64.5 -14q26 0 43 7t17 18q0 12 -18 17.5t-46 10.5t-59.5 13t-59.5 24t-46 44t-18 73q0 60 35 101.5t92.5 62.5t123.5 21q56 0 100.5 -17.5t72 -48.5t32.5 -72l-158 -43q-4 19 -22.5 29.5t-47.5 10.5
q-22 0 -36.5 -6.5t-14.5 -17.5q0 -13 17.5 -20.5t45.5 -12.5t59.5 -13.5t59.5 -23.5t45.5 -41t17.5 -69q0 -62 -33 -104t-89 -63t-125 -21zM241 -259q-52 0 -83 31.5t-31 75.5t30 75.5t83 31.5t84 -31.5t31 -75.5t-30.5 -75.5t-83.5 -31.5zM294 559q-52 0 -83 31.5t-31 75.5
t30.5 75.5t83.5 31.5t83.5 -31.5t30.5 -75.5t-30.5 -75.5t-83.5 -31.5z" />
    <glyph glyph-name="uni1E6C" unicode="&#x1e6c;" horiz-adv-x="611" 
d="M723 710l-60 -174h-208l-95 -536h-200l95 536h-222l31 174h659zM234 -259q-52 0 -83 31.5t-31 75.5t30 75.5t83 31.5t84 -31.5t31 -75.5t-30.5 -75.5t-83.5 -31.5z" />
    <glyph glyph-name="uni1E6D" unicode="&#x1e6d;" horiz-adv-x="453" 
d="M257 -11q-71 0 -116.5 28t-63 76t-6.5 107l31 161h-82l27 153h85l20 104h184l-20 -104h154l-27 -153h-156l-28 -149q-7 -31 8 -47.5t46 -16.5q21 0 42.5 5.5t46.5 20.5l27 -140q-28 -22 -73.5 -33.5t-98.5 -11.5zM204 -259q-52 0 -83 31.5t-31 75.5t30 75.5t83 31.5
t84 -31.5t31 -75.5t-30.5 -75.5t-83.5 -31.5z" />
    <glyph glyph-name="uni1E6E" unicode="&#x1e6e;" horiz-adv-x="611" 
d="M723 710l-60 -174h-208l-95 -536h-200l95 536h-222l31 174h659zM67 -73h360l-22 -123h-360z" />
    <glyph glyph-name="uni1E6F" unicode="&#x1e6f;" horiz-adv-x="453" 
d="M257 -11q-71 0 -116.5 28t-63 76t-6.5 107l31 161h-82l27 153h85l20 104h184l-20 -104h154l-27 -153h-156l-28 -149q-7 -31 8 -47.5t46 -16.5q21 0 42.5 5.5t46.5 20.5l27 -140q-28 -22 -73.5 -33.5t-98.5 -11.5zM37 -73h360l-22 -123h-360z" />
    <glyph glyph-name="uni1E78" unicode="&#x1e78;" horiz-adv-x="774" 
d="M599 710h196l-67 -389q-28 -161 -124 -246.5t-251 -85.5q-105 0 -175 39t-99.5 110t-12.5 168l71 404h201l-70 -394q-27 -151 112 -151q65 0 102.5 39.5t51.5 123.5zM432 972l162 184l184 -46l-181 -138h-165zM557 762q-30 0 -59 12.5t-54.5 25t-47.5 12.5
q-12 0 -31.5 -9.5t-35.5 -29.5l-60 61q26 58 68.5 85.5t92.5 27.5q30 0 59 -12t55.5 -24.5t46.5 -12.5q17 0 35.5 9t31.5 31l61 -60q-27 -58 -69.5 -87t-92.5 -29z" />
    <glyph glyph-name="uni1E79" unicode="&#x1e79;" horiz-adv-x="630" 
d="M191 -11q-100 0 -137 64t-17 174l21 113q11 56 15.5 97.5t6.5 76.5h186q-2 -37 -7.5 -86t-14.5 -94l-19 -94q-15 -78 39 -78t100.5 87.5t78.5 264.5h180l-59 -338q-17 -94 -17 -176h-179q0 47 11 99q-39 -55 -88 -82.5t-100 -27.5zM324 776l162 184l184 -46l-181 -138
h-165zM449 566q-30 0 -59 12.5t-54.5 25t-47.5 12.5q-12 0 -31.5 -9.5t-35.5 -29.5l-60 61q26 58 68.5 85.5t92.5 27.5q30 0 59 -12t55.5 -24.5t46.5 -12.5q17 0 35.5 9t31.5 31l61 -60q-27 -58 -69.5 -87t-92.5 -29z" />
    <glyph glyph-name="uni1E7A" unicode="&#x1e7a;" horiz-adv-x="774" 
d="M599 710h196l-67 -389q-28 -161 -124 -246.5t-251 -85.5q-105 0 -175 39t-99.5 110t-12.5 168l71 404h201l-70 -394q-27 -151 112 -151q65 0 102.5 39.5t51.5 123.5zM414 946q-51 0 -77.5 29.5t-26.5 66.5q0 23 11.5 45t34.5 36.5t57 14.5q33 0 55.5 -14.5t34.5 -36.5
t12 -45q0 -37 -26 -66.5t-75 -29.5zM642 946q-51 0 -77 29.5t-26 66.5q0 23 11.5 45t34 36.5t56.5 14.5q33 0 56 -14.5t35 -36.5t12 -45q0 -37 -26.5 -66.5t-75.5 -29.5zM276 790l22 122h412l-22 -122h-412z" />
    <glyph glyph-name="uni1E7B" unicode="&#x1e7b;" horiz-adv-x="630" 
d="M191 -11q-100 0 -137 64t-17 174l21 113q11 56 15.5 97.5t6.5 76.5h186q-2 -37 -7.5 -86t-14.5 -94l-19 -94q-15 -78 39 -78t100.5 87.5t78.5 264.5h180l-59 -338q-17 -94 -17 -176h-179q0 47 11 99q-39 -55 -88 -82.5t-100 -27.5zM306 750q-51 0 -77.5 29.5t-26.5 66.5
q0 23 11.5 45t34.5 36.5t57 14.5q33 0 55.5 -14.5t34.5 -36.5t12 -45q0 -37 -26 -66.5t-75 -29.5zM534 750q-51 0 -77 29.5t-26 66.5q0 23 11.5 45t34 36.5t56.5 14.5q33 0 56 -14.5t35 -36.5t12 -45q0 -37 -26.5 -66.5t-75.5 -29.5zM168 594l22 122h412l-22 -122h-412z" />
    <glyph glyph-name="Wgrave" unicode="&#x1e80;" horiz-adv-x="1047" 
d="M948 710h196l-331 -710h-225l-20 460l-210 -460h-225l-51 710h191l24 -435l197 435h238l19 -436zM549 769l-127 132l199 45l93 -177h-165z" />
    <glyph glyph-name="wgrave" unicode="&#x1e81;" horiz-adv-x="903" 
d="M781 514h187l-261 -514h-233l-23 243l-115 -243h-234l-70 514h187l34 -337l160 337h174l31 -339zM432 573l-127 132l199 45l93 -177h-165z" />
    <glyph glyph-name="Wacute" unicode="&#x1e82;" horiz-adv-x="1047" 
d="M948 710h196l-331 -710h-225l-20 460l-210 -460h-225l-51 710h191l24 -435l197 435h238l19 -436zM552 769l157 177l184 -45l-176 -132h-165z" />
    <glyph glyph-name="wacute" unicode="&#x1e83;" horiz-adv-x="903" 
d="M781 514h187l-261 -514h-233l-23 243l-115 -243h-234l-70 514h187l34 -337l160 337h174l31 -339zM435 573l157 177l184 -45l-176 -132h-165z" />
    <glyph glyph-name="Wdieresis" unicode="&#x1e84;" horiz-adv-x="1047" 
d="M948 710h196l-331 -710h-225l-20 460l-210 -460h-225l-51 710h191l24 -435l197 435h238l19 -436zM764 764q-34 0 -57 14.5t-34.5 37t-11.5 44.5q0 36 26 66t77 30q49 0 75.5 -30t26.5 -66q0 -22 -12 -44.5t-34.5 -37t-55.5 -14.5zM535 764q-34 0 -57 14.5t-34.5 37
t-11.5 44.5q0 36 26 66t77 30q49 0 75.5 -30t26.5 -66q0 -22 -12 -44.5t-34.5 -37t-55.5 -14.5z" />
    <glyph glyph-name="wdieresis" unicode="&#x1e85;" horiz-adv-x="903" 
d="M781 514h187l-261 -514h-233l-23 243l-115 -243h-234l-70 514h187l34 -337l160 337h174l31 -339zM647 568q-34 0 -57 14.5t-34.5 37t-11.5 44.5q0 36 26 66t77 30q49 0 75.5 -30t26.5 -66q0 -22 -12 -44.5t-34.5 -37t-55.5 -14.5zM418 568q-34 0 -57 14.5t-34.5 37
t-11.5 44.5q0 36 26 66t77 30q49 0 75.5 -30t26.5 -66q0 -22 -12 -44.5t-34.5 -37t-55.5 -14.5z" />
    <glyph glyph-name="uni1E8E" unicode="&#x1e8e;" horiz-adv-x="636" 
d="M739 710l-308 -394l-56 -316h-200l55 310l-179 400h212l95 -221l162 221h219zM430 755q-52 0 -83 31.5t-31 75.5t30.5 75.5t83.5 31.5t83.5 -31.5t30.5 -75.5t-30.5 -75.5t-83.5 -31.5z" />
    <glyph glyph-name="uni1E8F" unicode="&#x1e8f;" horiz-adv-x="634" 
d="M170 -210q-32 0 -68.5 4.5t-69.5 14.5t-53 25l62 158q35 -19 72.5 -29.5t86.5 -10.5q79 0 118.5 34t58.5 106l4 14q-39 -47 -85.5 -70t-98.5 -23q-97 0 -136.5 64t-18.5 177l18 96q9 48 13.5 88.5t6.5 75.5h186q-2 -45 -7.5 -88.5t-13.5 -81.5l-15 -78q-7 -40 5 -60
t40 -20q35 0 64.5 29.5t56.5 101t52 197.5h180l-71 -402q-30 -168 -124.5 -245t-262.5 -77zM389 559q-52 0 -83 31.5t-31 75.5t30.5 75.5t83.5 31.5t83.5 -31.5t30.5 -75.5t-30.5 -75.5t-83.5 -31.5z" />
    <glyph glyph-name="uni1E92" unicode="&#x1e92;" horiz-adv-x="657" 
d="M-9 0l25 143l384 393h-295l31 174h573l-25 -143l-384 -393h327l-42 -174h-594zM262 -259q-52 0 -83 31.5t-31 75.5t30 75.5t83 31.5t84 -31.5t31 -75.5t-30.5 -75.5t-83.5 -31.5z" />
    <glyph glyph-name="uni1E93" unicode="&#x1e93;" horiz-adv-x="465" 
d="M-26 0l25 143l232 218h-188l27 153h432l-24 -134l-236 -227h198l-27 -153h-439zM170 -259q-52 0 -83 31.5t-31 75.5t30 75.5t83 31.5t84 -31.5t31 -75.5t-30.5 -75.5t-83.5 -31.5z" />
    <glyph glyph-name="uni1E97" unicode="&#x1e97;" horiz-adv-x="453" 
d="M257 -11q-71 0 -116.5 28t-63 76t-6.5 107l31 161h-82l27 153h85l20 104h184l-20 -104h154l-27 -153h-156l-28 -149q-7 -31 8 -47.5t46 -16.5q21 0 42.5 5.5t46.5 20.5l27 -140q-28 -22 -73.5 -33.5t-98.5 -11.5zM387 672q-34 0 -57 14.5t-34.5 37t-11.5 44.5q0 36 26 66
t77 30q49 0 75.5 -30t26.5 -66q0 -22 -12 -44.5t-34.5 -37t-55.5 -14.5zM158 672q-34 0 -57 14.5t-34.5 37t-11.5 44.5q0 36 26 66t77 30q49 0 75.5 -30t26.5 -66q0 -22 -12 -44.5t-34.5 -37t-55.5 -14.5z" />
    <glyph glyph-name="uni1E9E" unicode="&#x1e9e;" horiz-adv-x="772" 
d="M508 720q83 0 144 -23t95 -65t34 -99q0 -58 -31 -101.5t-89 -66.5q90 -44 90 -148q0 -69 -31 -120.5t-87.5 -79.5t-134.5 -28q-103 0 -165 51t-66 142l175 44q0 -31 12 -49t43 -18q28 0 44 18t16 49q0 51 -83 51h-86l29 164h59q55 0 79 14.5t24 45.5q0 52 -101 52
q-85 0 -132.5 -40t-61.5 -123l-69 -390h-200l67 379q60 341 426 341z" />
    <glyph glyph-name="uni1EA0" unicode="&#x1ea0;" horiz-adv-x="707" 
d="M-84 0l439 710h166l176 -710h-196l-28 127h-274l-75 -127h-208zM296 292h141l-39 175zM283 -259q-52 0 -83 31.5t-31 75.5t30 75.5t83 31.5t84 -31.5t31 -75.5t-30.5 -75.5t-83.5 -31.5z" />
    <glyph glyph-name="uni1EA1" unicode="&#x1ea1;" horiz-adv-x="635" 
d="M217 -11q-91 0 -144 55.5t-53 152.5q0 69 24 128t67.5 103t101.5 68.5t126 24.5q89 0 149 -52l27 41h122q-13 -49 -23 -94t-19 -91l-26 -149q-17 -93 -17 -176h-179q0 41 8 86q-66 -97 -164 -97zM283 149q46 0 78 35.5t42 97.5l10 58q-24 21 -72 21q-58 0 -93.5 -39
t-35.5 -103q0 -33 18.5 -51.5t52.5 -18.5zM254 -259q-52 0 -83 31.5t-31 75.5t30 75.5t83 31.5t84 -31.5t31 -75.5t-30.5 -75.5t-83.5 -31.5z" />
    <glyph glyph-name="uni1EA2" unicode="&#x1ea2;" horiz-adv-x="707" 
d="M-84 0l439 710h166l176 -710h-196l-28 127h-274l-75 -127h-208zM296 292h141l-39 175zM491 947q56 0 90 -20t34 -55q0 -29 -16.5 -43.5t-38.5 -21.5t-40 -15t-21 -23h-108l2 11q3 16 15.5 26.5t28 18t26.5 14t11 14.5q0 9 -15 9q-23 0 -45 -9t-42 -26l-53 57
q65 63 172 63z" />
    <glyph glyph-name="uni1EA3" unicode="&#x1ea3;" horiz-adv-x="635" 
d="M217 -11q-91 0 -144 55.5t-53 152.5q0 69 24 128t67.5 103t101.5 68.5t126 24.5q89 0 149 -52l27 41h122q-13 -49 -23 -94t-19 -91l-26 -149q-17 -93 -17 -176h-179q0 41 8 86q-66 -97 -164 -97zM283 149q46 0 78 35.5t42 97.5l10 58q-24 21 -72 21q-58 0 -93.5 -39
t-35.5 -103q0 -33 18.5 -51.5t52.5 -18.5zM427 751q56 0 90 -20t34 -55q0 -29 -16.5 -43.5t-38.5 -21.5t-40 -15t-21 -23h-108l2 11q3 16 15.5 26.5t28 18t26.5 14t11 14.5q0 9 -15 9q-23 0 -45 -9t-42 -26l-53 57q65 63 172 63z" />
    <glyph glyph-name="uni1EA4" unicode="&#x1ea4;" horiz-adv-x="707" 
d="M-84 0l439 710h166l176 -710h-196l-28 127h-274l-75 -127h-208zM296 292h141l-39 175zM600 906l156 177l181 -45l-174 -132h-163zM234 769l166 167h150l106 -167h-169l-30 55l-50 -55h-173z" />
    <glyph glyph-name="uni1EA5" unicode="&#x1ea5;" horiz-adv-x="635" 
d="M217 -11q-91 0 -144 55.5t-53 152.5q0 69 24 128t67.5 103t101.5 68.5t126 24.5q89 0 149 -52l27 41h122q-13 -49 -23 -94t-19 -91l-26 -149q-17 -93 -17 -176h-179q0 41 8 86q-66 -97 -164 -97zM283 149q46 0 78 35.5t42 97.5l10 58q-24 21 -72 21q-58 0 -93.5 -39
t-35.5 -103q0 -33 18.5 -51.5t52.5 -18.5zM536 710l156 177l181 -45l-174 -132h-163zM170 573l166 167h150l106 -167h-169l-30 55l-50 -55h-173z" />
    <glyph glyph-name="uni1EA6" unicode="&#x1ea6;" horiz-adv-x="707" 
d="M-84 0l439 710h166l176 -710h-196l-28 127h-274l-75 -127h-208zM296 292h141l-39 175zM177 906l-128 132l195 45l94 -177h-161zM234 769l166 167h150l106 -167h-169l-30 55l-50 -55h-173z" />
    <glyph glyph-name="uni1EA7" unicode="&#x1ea7;" horiz-adv-x="635" 
d="M217 -11q-91 0 -144 55.5t-53 152.5q0 69 24 128t67.5 103t101.5 68.5t126 24.5q89 0 149 -52l27 41h122q-13 -49 -23 -94t-19 -91l-26 -149q-17 -93 -17 -176h-179q0 41 8 86q-66 -97 -164 -97zM283 149q46 0 78 35.5t42 97.5l10 58q-24 21 -72 21q-58 0 -93.5 -39
t-35.5 -103q0 -33 18.5 -51.5t52.5 -18.5zM113 710l-128 132l195 45l94 -177h-161zM170 573l166 167h150l106 -167h-169l-30 55l-50 -55h-173z" />
    <glyph glyph-name="uni1EA8" unicode="&#x1ea8;" horiz-adv-x="707" 
d="M-84 0l439 710h166l176 -710h-196l-28 127h-274l-75 -127h-208zM296 292h141l-39 175zM607 906l2 11q3 16 15.5 26.5t28 18t26.5 14t11 14.5q0 9 -15 9q-23 0 -45 -9t-42 -26l-53 57q65 63 172 63q56 0 90 -20t34 -55q0 -29 -16.5 -43.5t-38.5 -21.5t-40 -15t-21 -23
h-108zM234 769l166 167h150l106 -167h-169l-30 55l-50 -55h-173z" />
    <glyph glyph-name="uni1EA9" unicode="&#x1ea9;" horiz-adv-x="635" 
d="M217 -11q-91 0 -144 55.5t-53 152.5q0 69 24 128t67.5 103t101.5 68.5t126 24.5q89 0 149 -52l27 41h122q-13 -49 -23 -94t-19 -91l-26 -149q-17 -93 -17 -176h-179q0 41 8 86q-66 -97 -164 -97zM283 149q46 0 78 35.5t42 97.5l10 58q-24 21 -72 21q-58 0 -93.5 -39
t-35.5 -103q0 -33 18.5 -51.5t52.5 -18.5zM543 710l2 11q3 16 15.5 26.5t28 18t26.5 14t11 14.5q0 9 -15 9q-23 0 -45 -9t-42 -26l-53 57q65 63 172 63q56 0 90 -20t34 -55q0 -29 -16.5 -43.5t-38.5 -21.5t-40 -15t-21 -23h-108zM170 573l166 167h150l106 -167h-169l-30 55
l-50 -55h-173z" />
    <glyph glyph-name="uni1EAA" unicode="&#x1eaa;" horiz-adv-x="707" 
d="M-84 0l439 710h166l176 -710h-196l-28 127h-274l-75 -127h-208zM296 292h141l-39 175zM659 1140l55 -67q-25 -52 -66 -79t-87 -27q-31 0 -61 11t-57.5 22.5t-53.5 11.5q-11 0 -29 -9.5t-26 -26.5l-55 68q26 53 66 78.5t86 25.5q32 0 61.5 -11.5t55.5 -22.5t46 -11
q16 0 34 9t31 28zM234 769l165 162h150l107 -162h-169l-31 51l-49 -51h-173z" />
    <glyph glyph-name="uni1EAB" unicode="&#x1eab;" horiz-adv-x="635" 
d="M217 -11q-91 0 -144 55.5t-53 152.5q0 69 24 128t67.5 103t101.5 68.5t126 24.5q89 0 149 -52l27 41h122q-13 -49 -23 -94t-19 -91l-26 -149q-17 -93 -17 -176h-179q0 41 8 86q-66 -97 -164 -97zM283 149q46 0 78 35.5t42 97.5l10 58q-24 21 -72 21q-58 0 -93.5 -39
t-35.5 -103q0 -33 18.5 -51.5t52.5 -18.5zM595 944l55 -67q-25 -52 -66 -79t-87 -27q-31 0 -61 11t-57.5 22.5t-53.5 11.5q-11 0 -29 -9.5t-26 -26.5l-55 68q26 53 66 78.5t86 25.5q32 0 61.5 -11.5t55.5 -22.5t46 -11q16 0 34 9t31 28zM170 573l165 162h150l107 -162h-169
l-31 51l-49 -51h-173z" />
    <glyph glyph-name="uni1EAC" unicode="&#x1eac;" horiz-adv-x="707" 
d="M-84 0l439 710h166l176 -710h-196l-28 127h-274l-75 -127h-208zM296 292h141l-39 175zM283 -259q-52 0 -83 31.5t-31 75.5t30 75.5t83 31.5t84 -31.5t31 -75.5t-30.5 -75.5t-83.5 -31.5zM656 769h-165l-30 55l-51 -55h-177l167 167h150z" />
    <glyph glyph-name="uni1EAD" unicode="&#x1ead;" horiz-adv-x="635" 
d="M217 -11q-91 0 -144 55.5t-53 152.5q0 69 24 128t67.5 103t101.5 68.5t126 24.5q89 0 149 -52l27 41h122q-13 -49 -23 -94t-19 -91l-26 -149q-17 -93 -17 -176h-179q0 41 8 86q-66 -97 -164 -97zM283 149q46 0 78 35.5t42 97.5l10 58q-24 21 -72 21q-58 0 -93.5 -39
t-35.5 -103q0 -33 18.5 -51.5t52.5 -18.5zM254 -259q-52 0 -83 31.5t-31 75.5t30 75.5t83 31.5t84 -31.5t31 -75.5t-30.5 -75.5t-83.5 -31.5zM592 573h-165l-30 55l-51 -55h-177l167 167h150z" />
    <glyph glyph-name="uni1EAE" unicode="&#x1eae;" horiz-adv-x="707" 
d="M-84 0l439 710h166l176 -710h-196l-28 127h-274l-75 -127h-208zM296 292h141l-39 175zM392 972l162 184l184 -46l-181 -138h-165zM550 949l115 -13q-8 -53 -36.5 -91.5t-71 -59.5t-92.5 -21q-90 0 -135.5 46.5t-44.5 125.5l119 13q3 -65 62 -65q60 0 84 65z" />
    <glyph glyph-name="uni1EAF" unicode="&#x1eaf;" horiz-adv-x="635" 
d="M217 -11q-91 0 -144 55.5t-53 152.5q0 69 24 128t67.5 103t101.5 68.5t126 24.5q89 0 149 -52l27 41h122q-13 -49 -23 -94t-19 -91l-26 -149q-17 -93 -17 -176h-179q0 41 8 86q-66 -97 -164 -97zM283 149q46 0 78 35.5t42 97.5l10 58q-24 21 -72 21q-58 0 -93.5 -39
t-35.5 -103q0 -33 18.5 -51.5t52.5 -18.5zM328 776l162 184l184 -46l-181 -138h-165zM486 753l115 -13q-8 -53 -36.5 -91.5t-71 -59.5t-92.5 -21q-90 0 -135.5 46.5t-44.5 125.5l119 13q3 -65 62 -65q60 0 84 65z" />
    <glyph glyph-name="uni1EB0" unicode="&#x1eb0;" horiz-adv-x="707" 
d="M-84 0l439 710h166l176 -710h-196l-28 127h-274l-75 -127h-208zM296 292h141l-39 175zM400 972l-131 138l200 46l96 -184h-165zM550 949l115 -13q-7 -52 -35.5 -91t-71 -60t-93.5 -21q-90 0 -135.5 46.5t-44.5 125.5l119 13q3 -65 62 -65q60 0 84 65z" />
    <glyph glyph-name="uni1EB1" unicode="&#x1eb1;" horiz-adv-x="635" 
d="M217 -11q-91 0 -144 55.5t-53 152.5q0 69 24 128t67.5 103t101.5 68.5t126 24.5q89 0 149 -52l27 41h122q-13 -49 -23 -94t-19 -91l-26 -149q-17 -93 -17 -176h-179q0 41 8 86q-66 -97 -164 -97zM283 149q46 0 78 35.5t42 97.5l10 58q-24 21 -72 21q-58 0 -93.5 -39
t-35.5 -103q0 -33 18.5 -51.5t52.5 -18.5zM336 776l-131 138l200 46l96 -184h-165zM486 753l115 -13q-7 -52 -35.5 -91t-71 -60t-93.5 -21q-90 0 -135.5 46.5t-44.5 125.5l119 13q3 -65 62 -65q60 0 84 65z" />
    <glyph glyph-name="uni1EB2" unicode="&#x1eb2;" horiz-adv-x="707" 
d="M-84 0l439 710h166l176 -710h-196l-28 127h-274l-75 -127h-208zM296 292h141l-39 175zM526 1150q56 0 90 -20t34 -55q0 -29 -16.5 -43.5t-38.5 -21.5t-40 -15t-21 -23h-108l2 11q3 16 15.5 26.5t28 18t26.5 14t11 14.5q0 9 -15 9q-23 0 -45 -9t-42 -26l-53 57
q65 63 172 63zM550 949l115 -13q-7 -52 -35.5 -91t-71 -60t-93.5 -21q-90 0 -135.5 46.5t-44.5 125.5l119 13q3 -65 62 -65q60 0 84 65z" />
    <glyph glyph-name="uni1EB3" unicode="&#x1eb3;" horiz-adv-x="635" 
d="M217 -11q-91 0 -144 55.5t-53 152.5q0 69 24 128t67.5 103t101.5 68.5t126 24.5q89 0 149 -52l27 41h122q-13 -49 -23 -94t-19 -91l-26 -149q-17 -93 -17 -176h-179q0 41 8 86q-66 -97 -164 -97zM283 149q46 0 78 35.5t42 97.5l10 58q-24 21 -72 21q-58 0 -93.5 -39
t-35.5 -103q0 -33 18.5 -51.5t52.5 -18.5zM462 954q56 0 90 -20t34 -55q0 -29 -16.5 -43.5t-38.5 -21.5t-40 -15t-21 -23h-108l2 11q3 16 15.5 26.5t28 18t26.5 14t11 14.5q0 9 -15 9q-23 0 -45 -9t-42 -26l-53 57q65 63 172 63zM486 753l115 -13q-7 -52 -35.5 -91t-71 -60
t-93.5 -21q-90 0 -135.5 46.5t-44.5 125.5l119 13q3 -65 62 -65q60 0 84 65z" />
    <glyph glyph-name="uni1EB4" unicode="&#x1eb4;" horiz-adv-x="707" 
d="M-84 0l439 710h166l176 -710h-196l-28 127h-274l-75 -127h-208zM296 292h141l-39 175zM659 1140l55 -67q-22 -52 -63.5 -79t-94.5 -27q-29 0 -57.5 11t-54 22.5t-46.5 11.5q-14 0 -33 -9.5t-31 -26.5l-55 68q23 53 64 78.5t93 25.5q29 0 57.5 -11.5t54.5 -22.5t46 -11
q19 0 37 9t28 28zM398 945q6 -61 73 -61q60 0 83 61l115 -13q-11 -78 -68 -123t-138 -45q-88 0 -136.5 45t-47.5 123z" />
    <glyph glyph-name="uni1EB5" unicode="&#x1eb5;" horiz-adv-x="635" 
d="M217 -11q-91 0 -144 55.5t-53 152.5q0 69 24 128t67.5 103t101.5 68.5t126 24.5q89 0 149 -52l27 41h122q-13 -49 -23 -94t-19 -91l-26 -149q-17 -93 -17 -176h-179q0 41 8 86q-66 -97 -164 -97zM283 149q46 0 78 35.5t42 97.5l10 58q-24 21 -72 21q-58 0 -93.5 -39
t-35.5 -103q0 -33 18.5 -51.5t52.5 -18.5zM595 944l55 -67q-22 -52 -63.5 -79t-94.5 -27q-29 0 -57.5 11t-54 22.5t-46.5 11.5q-14 0 -33 -9.5t-31 -26.5l-55 68q23 53 64 78.5t93 25.5q29 0 57.5 -11.5t54.5 -22.5t46 -11q19 0 37 9t28 28zM334 749q6 -61 73 -61
q60 0 83 61l115 -13q-11 -78 -68 -123t-138 -45q-88 0 -136.5 45t-47.5 123z" />
    <glyph glyph-name="uni1EB6" unicode="&#x1eb6;" horiz-adv-x="707" 
d="M-84 0l439 710h166l176 -710h-196l-28 127h-274l-75 -127h-208zM296 292h141l-39 175zM283 -259q-52 0 -83 31.5t-31 75.5t30 75.5t83 31.5t84 -31.5t31 -75.5t-30.5 -75.5t-83.5 -31.5zM550 949l115 -13q-8 -53 -36.5 -91.5t-71 -59.5t-92.5 -21q-90 0 -135.5 46.5
t-44.5 125.5l119 13q3 -65 62 -65q60 0 84 65z" />
    <glyph glyph-name="uni1EB7" unicode="&#x1eb7;" horiz-adv-x="635" 
d="M217 -11q-91 0 -144 55.5t-53 152.5q0 69 24 128t67.5 103t101.5 68.5t126 24.5q89 0 149 -52l27 41h122q-13 -49 -23 -94t-19 -91l-26 -149q-17 -93 -17 -176h-179q0 41 8 86q-66 -97 -164 -97zM283 149q46 0 78 35.5t42 97.5l10 58q-24 21 -72 21q-58 0 -93.5 -39
t-35.5 -103q0 -33 18.5 -51.5t52.5 -18.5zM254 -259q-52 0 -83 31.5t-31 75.5t30 75.5t83 31.5t84 -31.5t31 -75.5t-30.5 -75.5t-83.5 -31.5zM486 753l115 -13q-8 -53 -36.5 -91.5t-71 -59.5t-92.5 -21q-90 0 -135.5 46.5t-44.5 125.5l119 13q3 -65 62 -65q60 0 84 65z" />
    <glyph glyph-name="uni1EB8" unicode="&#x1eb8;" horiz-adv-x="595" 
d="M243 171h329l-43 -171h-514l125 710h518l-30 -171h-322l-17 -97h296l-30 -171h-295zM248 -259q-52 0 -83 31.5t-31 75.5t30 75.5t83 31.5t84 -31.5t31 -75.5t-30.5 -75.5t-83.5 -31.5z" />
    <glyph glyph-name="uni1EB9" unicode="&#x1eb9;" horiz-adv-x="552" 
d="M268 -11q-74 0 -129.5 27.5t-86 77t-30.5 115.5t24 123t67.5 99.5t101.5 66t126 23.5q94 0 148.5 -42.5t54.5 -114.5q0 -67 -42 -107.5t-120 -46.5l-174 -14q7 -23 34 -36.5t69 -13.5q62 0 101 36l77 -113q-85 -80 -221 -80zM330 390q-83 0 -107 -83l114 9q46 3 46 38
q0 17 -14 26.5t-39 9.5zM220 -259q-52 0 -83 31.5t-31 75.5t30 75.5t83 31.5t84 -31.5t31 -75.5t-30.5 -75.5t-83.5 -31.5z" />
    <glyph glyph-name="uni1EBA" unicode="&#x1eba;" horiz-adv-x="595" 
d="M243 171h329l-43 -171h-514l125 710h518l-30 -171h-322l-17 -97h296l-30 -171h-295zM456 947q56 0 90 -20t34 -55q0 -29 -16.5 -43.5t-38.5 -21.5t-40 -15t-21 -23h-108l2 11q3 16 15.5 26.5t28 18t26.5 14t11 14.5q0 9 -15 9q-23 0 -45 -9t-42 -26l-53 57q65 63 172 63z
" />
    <glyph glyph-name="uni1EBB" unicode="&#x1ebb;" horiz-adv-x="552" 
d="M268 -11q-74 0 -129.5 27.5t-86 77t-30.5 115.5t24 123t67.5 99.5t101.5 66t126 23.5q94 0 148.5 -42.5t54.5 -114.5q0 -67 -42 -107.5t-120 -46.5l-174 -14q7 -23 34 -36.5t69 -13.5q62 0 101 36l77 -113q-85 -80 -221 -80zM330 390q-83 0 -107 -83l114 9q46 3 46 38
q0 17 -14 26.5t-39 9.5zM393 751q56 0 90 -20t34 -55q0 -29 -16.5 -43.5t-38.5 -21.5t-40 -15t-21 -23h-108l2 11q3 16 15.5 26.5t28 18t26.5 14t11 14.5q0 9 -15 9q-23 0 -45 -9t-42 -26l-53 57q65 63 172 63z" />
    <glyph glyph-name="uni1EBC" unicode="&#x1ebc;" horiz-adv-x="595" 
d="M243 171h329l-43 -171h-514l125 710h518l-30 -171h-322l-17 -97h296l-30 -171h-295zM489 762q-30 0 -59 12.5t-54.5 25t-47.5 12.5q-12 0 -31.5 -9.5t-35.5 -29.5l-60 61q26 58 68.5 85.5t92.5 27.5q30 0 59 -12t55.5 -24.5t46.5 -12.5q17 0 35.5 9t31.5 31l61 -60
q-27 -58 -69.5 -87t-92.5 -29z" />
    <glyph glyph-name="uni1EBD" unicode="&#x1ebd;" horiz-adv-x="552" 
d="M268 -11q-74 0 -129.5 27.5t-86 77t-30.5 115.5t24 123t67.5 99.5t101.5 66t126 23.5q94 0 148.5 -42.5t54.5 -114.5q0 -67 -42 -107.5t-120 -46.5l-174 -14q7 -23 34 -36.5t69 -13.5q62 0 101 36l77 -113q-85 -80 -221 -80zM330 390q-83 0 -107 -83l114 9q46 3 46 38
q0 17 -14 26.5t-39 9.5zM426 566q-30 0 -59 12.5t-54.5 25t-47.5 12.5q-12 0 -31.5 -9.5t-35.5 -29.5l-60 61q26 58 68.5 85.5t92.5 27.5q30 0 59 -12t55.5 -24.5t46.5 -12.5q17 0 35.5 9t31.5 31l61 -60q-27 -58 -69.5 -87t-92.5 -29z" />
    <glyph glyph-name="uni1EBE" unicode="&#x1ebe;" horiz-adv-x="595" 
d="M243 171h329l-43 -171h-514l125 710h518l-30 -171h-322l-17 -97h296l-30 -171h-295zM565 906l156 177l181 -45l-174 -132h-163zM199 769l166 167h150l106 -167h-169l-30 55l-50 -55h-173z" />
    <glyph glyph-name="uni1EBF" unicode="&#x1ebf;" horiz-adv-x="552" 
d="M268 -11q-74 0 -129.5 27.5t-86 77t-30.5 115.5t24 123t67.5 99.5t101.5 66t126 23.5q94 0 148.5 -42.5t54.5 -114.5q0 -67 -42 -107.5t-120 -46.5l-174 -14q7 -23 34 -36.5t69 -13.5q62 0 101 36l77 -113q-85 -80 -221 -80zM330 390q-83 0 -107 -83l114 9q46 3 46 38
q0 17 -14 26.5t-39 9.5zM502 710l156 177l181 -45l-174 -132h-163zM136 573l166 167h150l106 -167h-169l-30 55l-50 -55h-173z" />
    <glyph glyph-name="uni1EC0" unicode="&#x1ec0;" horiz-adv-x="595" 
d="M243 171h329l-43 -171h-514l125 710h518l-30 -171h-322l-17 -97h296l-30 -171h-295zM142 906l-128 132l195 45l94 -177h-161zM199 769l166 167h150l106 -167h-169l-30 55l-50 -55h-173z" />
    <glyph glyph-name="uni1EC1" unicode="&#x1ec1;" horiz-adv-x="552" 
d="M268 -11q-74 0 -129.5 27.5t-86 77t-30.5 115.5t24 123t67.5 99.5t101.5 66t126 23.5q94 0 148.5 -42.5t54.5 -114.5q0 -67 -42 -107.5t-120 -46.5l-174 -14q7 -23 34 -36.5t69 -13.5q62 0 101 36l77 -113q-85 -80 -221 -80zM330 390q-83 0 -107 -83l114 9q46 3 46 38
q0 17 -14 26.5t-39 9.5zM79 710l-128 132l195 45l94 -177h-161zM136 573l166 167h150l106 -167h-169l-30 55l-50 -55h-173z" />
    <glyph glyph-name="uni1EC2" unicode="&#x1ec2;" horiz-adv-x="595" 
d="M243 171h329l-43 -171h-514l125 710h518l-30 -171h-322l-17 -97h296l-30 -171h-295zM572 906l2 11q3 16 15.5 26.5t28 18t26.5 14t11 14.5q0 9 -15 9q-23 0 -45 -9t-42 -26l-53 57q65 63 172 63q56 0 90 -20t34 -55q0 -29 -16.5 -43.5t-38.5 -21.5t-40 -15t-21 -23h-108z
M199 769l166 167h150l106 -167h-169l-30 55l-50 -55h-173z" />
    <glyph glyph-name="uni1EC3" unicode="&#x1ec3;" horiz-adv-x="552" 
d="M268 -11q-74 0 -129.5 27.5t-86 77t-30.5 115.5t24 123t67.5 99.5t101.5 66t126 23.5q94 0 148.5 -42.5t54.5 -114.5q0 -67 -42 -107.5t-120 -46.5l-174 -14q7 -23 34 -36.5t69 -13.5q62 0 101 36l77 -113q-85 -80 -221 -80zM330 390q-83 0 -107 -83l114 9q46 3 46 38
q0 17 -14 26.5t-39 9.5zM509 710l2 11q3 16 15.5 26.5t28 18t26.5 14t11 14.5q0 9 -15 9q-23 0 -45 -9t-42 -26l-53 57q65 63 172 63q56 0 90 -20t34 -55q0 -29 -16.5 -43.5t-38.5 -21.5t-40 -15t-21 -23h-108zM136 573l166 167h150l106 -167h-169l-30 55l-50 -55h-173z" />
    <glyph glyph-name="uni1EC4" unicode="&#x1ec4;" horiz-adv-x="595" 
d="M243 171h329l-43 -171h-514l125 710h518l-30 -171h-322l-17 -97h296l-30 -171h-295zM624 1140l55 -67q-25 -52 -66 -79t-87 -27q-31 0 -61 11t-57.5 22.5t-53.5 11.5q-11 0 -29 -9.5t-26 -26.5l-55 68q26 53 66 78.5t86 25.5q32 0 61.5 -11.5t55.5 -22.5t46 -11
q16 0 34 9t31 28zM199 769l165 162h150l107 -162h-169l-31 51l-49 -51h-173z" />
    <glyph glyph-name="uni1EC5" unicode="&#x1ec5;" horiz-adv-x="552" 
d="M268 -11q-74 0 -129.5 27.5t-86 77t-30.5 115.5t24 123t67.5 99.5t101.5 66t126 23.5q94 0 148.5 -42.5t54.5 -114.5q0 -67 -42 -107.5t-120 -46.5l-174 -14q7 -23 34 -36.5t69 -13.5q62 0 101 36l77 -113q-85 -80 -221 -80zM330 390q-83 0 -107 -83l114 9q46 3 46 38
q0 17 -14 26.5t-39 9.5zM561 944l55 -67q-25 -52 -66 -79t-87 -27q-31 0 -61 11t-57.5 22.5t-53.5 11.5q-11 0 -29 -9.5t-26 -26.5l-55 68q26 53 66 78.5t86 25.5q32 0 61.5 -11.5t55.5 -22.5t46 -11q16 0 34 9t31 28zM136 573l165 162h150l107 -162h-169l-31 51l-49 -51
h-173z" />
    <glyph glyph-name="uni1EC6" unicode="&#x1ec6;" horiz-adv-x="595" 
d="M243 171h329l-43 -171h-514l125 710h518l-30 -171h-322l-17 -97h296l-30 -171h-295zM248 -259q-52 0 -83 31.5t-31 75.5t30 75.5t83 31.5t84 -31.5t31 -75.5t-30.5 -75.5t-83.5 -31.5zM621 769h-165l-30 55l-51 -55h-177l167 167h150z" />
    <glyph glyph-name="uni1EC7" unicode="&#x1ec7;" horiz-adv-x="552" 
d="M268 -11q-74 0 -129.5 27.5t-86 77t-30.5 115.5t24 123t67.5 99.5t101.5 66t126 23.5q94 0 148.5 -42.5t54.5 -114.5q0 -67 -42 -107.5t-120 -46.5l-174 -14q7 -23 34 -36.5t69 -13.5q62 0 101 36l77 -113q-85 -80 -221 -80zM330 390q-83 0 -107 -83l114 9q46 3 46 38
q0 17 -14 26.5t-39 9.5zM220 -259q-52 0 -83 31.5t-31 75.5t30 75.5t83 31.5t84 -31.5t31 -75.5t-30.5 -75.5t-83.5 -31.5zM558 573h-165l-30 55l-51 -55h-177l167 167h150z" />
    <glyph glyph-name="uni1EC8" unicode="&#x1ec8;" horiz-adv-x="320" 
d="M15 0l125 710h200l-125 -710h-200zM296 947q56 0 90 -20t34 -55q0 -29 -16.5 -43.5t-38.5 -21.5t-40 -15t-21 -23h-108l2 11q3 16 15.5 26.5t28 18t26.5 14t11 14.5q0 9 -15 9q-23 0 -45 -9t-42 -26l-53 57q65 63 172 63z" />
    <glyph glyph-name="uni1EC9" unicode="&#x1ec9;" horiz-adv-x="290" 
d="M14 0q0 38 6 73.5t11 66.5l35 200q10 56 15 97.5t7 76.5h186q-2 -37 -8 -86t-14 -94l-33 -187q-7 -41 -12.5 -76t-5.5 -71h-187zM237 751q56 0 90 -20t34 -55q0 -29 -16.5 -43.5t-38.5 -21.5t-40 -15t-21 -23h-108l2 11q3 16 15.5 26.5t28 18t26.5 14t11 14.5q0 9 -15 9
q-23 0 -45 -9t-42 -26l-53 57q65 63 172 63z" />
    <glyph glyph-name="uni1ECA" unicode="&#x1eca;" horiz-adv-x="320" 
d="M15 0l125 710h200l-125 -710h-200zM89 -259q-52 0 -83 31.5t-31 75.5t30 75.5t83 31.5t84 -31.5t31 -75.5t-30.5 -75.5t-83.5 -31.5z" />
    <glyph glyph-name="uni1ECB" unicode="&#x1ecb;" horiz-adv-x="290" 
d="M14 0q0 38 6 73.5t11 66.5l35 200q10 56 15 97.5t7 76.5h186q-2 -37 -8 -86t-14 -94l-33 -187q-7 -41 -12.5 -76t-5.5 -71h-187zM206 553q-52 0 -83 31.5t-31 75.5t30.5 75.5t83.5 31.5t83.5 -31.5t30.5 -75.5t-30.5 -75.5t-83.5 -31.5zM119 -259q-52 0 -83 31.5
t-31 75.5t30 75.5t83 31.5t84 -31.5t31 -75.5t-30.5 -75.5t-83.5 -31.5z" />
    <glyph glyph-name="uni1ECC" unicode="&#x1ecc;" horiz-adv-x="786" 
d="M355 -10q-98 0 -169.5 34t-109.5 98t-38 153q0 96 33 177t93 141t141 93.5t177 33.5q92 0 159 -35.5t104 -100t37 -153.5q0 -93 -32.5 -173.5t-90.5 -140.5t-136 -93.5t-168 -33.5zM378 165q58 0 103 32t71.5 86.5t26.5 123.5q0 65 -34.5 101.5t-95.5 36.5
q-59 0 -106 -32t-74.5 -86.5t-27.5 -123.5q0 -64 36.5 -101t100.5 -37zM322 -259q-52 0 -83 31.5t-31 75.5t30 75.5t83 31.5t84 -31.5t31 -75.5t-30.5 -75.5t-83.5 -31.5z" />
    <glyph glyph-name="uni1ECD" unicode="&#x1ecd;" horiz-adv-x="607" 
d="M355 521q111 0 171.5 -57t60.5 -152q0 -69 -25 -128t-70.5 -102.5t-106.5 -68t-133 -24.5q-112 0 -172 57.5t-60 151.5q0 69 25 128t70.5 103t106.5 68t133 24zM287 149q49 0 78 39.5t29 94.5q0 78 -70 78q-51 0 -81.5 -39.5t-30.5 -95.5q0 -77 75 -77zM233 -259
q-52 0 -83 31.5t-31 75.5t30 75.5t83 31.5t84 -31.5t31 -75.5t-30.5 -75.5t-83.5 -31.5z" />
    <glyph glyph-name="uni1ECE" unicode="&#x1ece;" horiz-adv-x="786" 
d="M355 -10q-98 0 -169.5 34t-109.5 98t-38 153q0 96 33 177t93 141t141 93.5t177 33.5q92 0 159 -35.5t104 -100t37 -153.5q0 -93 -32.5 -173.5t-90.5 -140.5t-136 -93.5t-168 -33.5zM378 165q58 0 103 32t71.5 86.5t26.5 123.5q0 65 -34.5 101.5t-95.5 36.5
q-59 0 -106 -32t-74.5 -86.5t-27.5 -123.5q0 -64 36.5 -101t100.5 -37zM530 947q56 0 90 -20t34 -55q0 -29 -16.5 -43.5t-38.5 -21.5t-40 -15t-21 -23h-108l2 11q3 16 15.5 26.5t28 18t26.5 14t11 14.5q0 9 -15 9q-23 0 -45 -9t-42 -26l-53 57q65 63 172 63z" />
    <glyph glyph-name="uni1ECF" unicode="&#x1ecf;" horiz-adv-x="607" 
d="M355 521q111 0 171.5 -57t60.5 -152q0 -69 -25 -128t-70.5 -102.5t-106.5 -68t-133 -24.5q-112 0 -172 57.5t-60 151.5q0 69 25 128t70.5 103t106.5 68t133 24zM287 149q49 0 78 39.5t29 94.5q0 78 -70 78q-51 0 -81.5 -39.5t-30.5 -95.5q0 -77 75 -77zM406 751
q56 0 90 -20t34 -55q0 -29 -16.5 -43.5t-38.5 -21.5t-40 -15t-21 -23h-108l2 11q3 16 15.5 26.5t28 18t26.5 14t11 14.5q0 9 -15 9q-23 0 -45 -9t-42 -26l-53 57q65 63 172 63z" />
    <glyph glyph-name="uni1ED0" unicode="&#x1ed0;" horiz-adv-x="786" 
d="M355 -10q-98 0 -169.5 34t-109.5 98t-38 153q0 96 33 177t93 141t141 93.5t177 33.5q92 0 159 -35.5t104 -100t37 -153.5q0 -93 -32.5 -173.5t-90.5 -140.5t-136 -93.5t-168 -33.5zM378 165q58 0 103 32t71.5 86.5t26.5 123.5q0 65 -34.5 101.5t-95.5 36.5
q-59 0 -106 -32t-74.5 -86.5t-27.5 -123.5q0 -64 36.5 -101t100.5 -37zM639 906l156 177l181 -45l-174 -132h-163zM273 769l166 167h150l106 -167h-169l-30 55l-50 -55h-173z" />
    <glyph glyph-name="uni1ED1" unicode="&#x1ed1;" horiz-adv-x="607" 
d="M355 521q111 0 171.5 -57t60.5 -152q0 -69 -25 -128t-70.5 -102.5t-106.5 -68t-133 -24.5q-112 0 -172 57.5t-60 151.5q0 69 25 128t70.5 103t106.5 68t133 24zM287 149q49 0 78 39.5t29 94.5q0 78 -70 78q-51 0 -81.5 -39.5t-30.5 -95.5q0 -77 75 -77zM515 710l156 177
l181 -45l-174 -132h-163zM149 573l166 167h150l106 -167h-169l-30 55l-50 -55h-173z" />
    <glyph glyph-name="uni1ED2" unicode="&#x1ed2;" horiz-adv-x="786" 
d="M355 -10q-98 0 -169.5 34t-109.5 98t-38 153q0 96 33 177t93 141t141 93.5t177 33.5q92 0 159 -35.5t104 -100t37 -153.5q0 -93 -32.5 -173.5t-90.5 -140.5t-136 -93.5t-168 -33.5zM378 165q58 0 103 32t71.5 86.5t26.5 123.5q0 65 -34.5 101.5t-95.5 36.5
q-59 0 -106 -32t-74.5 -86.5t-27.5 -123.5q0 -64 36.5 -101t100.5 -37zM216 906l-128 132l195 45l94 -177h-161zM273 769l166 167h150l106 -167h-169l-30 55l-50 -55h-173z" />
    <glyph glyph-name="uni1ED3" unicode="&#x1ed3;" horiz-adv-x="607" 
d="M355 521q111 0 171.5 -57t60.5 -152q0 -69 -25 -128t-70.5 -102.5t-106.5 -68t-133 -24.5q-112 0 -172 57.5t-60 151.5q0 69 25 128t70.5 103t106.5 68t133 24zM287 149q49 0 78 39.5t29 94.5q0 78 -70 78q-51 0 -81.5 -39.5t-30.5 -95.5q0 -77 75 -77zM92 710l-128 132
l195 45l94 -177h-161zM149 573l166 167h150l106 -167h-169l-30 55l-50 -55h-173z" />
    <glyph glyph-name="uni1ED4" unicode="&#x1ed4;" horiz-adv-x="786" 
d="M355 -10q-98 0 -169.5 34t-109.5 98t-38 153q0 96 33 177t93 141t141 93.5t177 33.5q92 0 159 -35.5t104 -100t37 -153.5q0 -93 -32.5 -173.5t-90.5 -140.5t-136 -93.5t-168 -33.5zM378 165q58 0 103 32t71.5 86.5t26.5 123.5q0 65 -34.5 101.5t-95.5 36.5
q-59 0 -106 -32t-74.5 -86.5t-27.5 -123.5q0 -64 36.5 -101t100.5 -37zM646 906l2 11q3 16 15.5 26.5t28 18t26.5 14t11 14.5q0 9 -15 9q-23 0 -45 -9t-42 -26l-53 57q65 63 172 63q56 0 90 -20t34 -55q0 -29 -16.5 -43.5t-38.5 -21.5t-40 -15t-21 -23h-108zM273 769
l166 167h150l106 -167h-169l-30 55l-50 -55h-173z" />
    <glyph glyph-name="uni1ED5" unicode="&#x1ed5;" horiz-adv-x="607" 
d="M355 521q111 0 171.5 -57t60.5 -152q0 -69 -25 -128t-70.5 -102.5t-106.5 -68t-133 -24.5q-112 0 -172 57.5t-60 151.5q0 69 25 128t70.5 103t106.5 68t133 24zM287 149q49 0 78 39.5t29 94.5q0 78 -70 78q-51 0 -81.5 -39.5t-30.5 -95.5q0 -77 75 -77zM522 710l2 11
q3 16 15.5 26.5t28 18t26.5 14t11 14.5q0 9 -15 9q-23 0 -45 -9t-42 -26l-53 57q65 63 172 63q56 0 90 -20t34 -55q0 -29 -16.5 -43.5t-38.5 -21.5t-40 -15t-21 -23h-108zM149 573l166 167h150l106 -167h-169l-30 55l-50 -55h-173z" />
    <glyph glyph-name="uni1ED6" unicode="&#x1ed6;" horiz-adv-x="786" 
d="M355 -10q-98 0 -169.5 34t-109.5 98t-38 153q0 96 33 177t93 141t141 93.5t177 33.5q92 0 159 -35.5t104 -100t37 -153.5q0 -93 -32.5 -173.5t-90.5 -140.5t-136 -93.5t-168 -33.5zM378 165q58 0 103 32t71.5 86.5t26.5 123.5q0 65 -34.5 101.5t-95.5 36.5
q-59 0 -106 -32t-74.5 -86.5t-27.5 -123.5q0 -64 36.5 -101t100.5 -37zM698 1140l55 -67q-25 -52 -66 -79t-87 -27q-31 0 -61 11t-57.5 22.5t-53.5 11.5q-11 0 -29 -9.5t-26 -26.5l-55 68q26 53 66 78.5t86 25.5q32 0 61.5 -11.5t55.5 -22.5t46 -11q16 0 34 9t31 28z
M273 769l165 162h150l107 -162h-169l-31 51l-49 -51h-173z" />
    <glyph glyph-name="uni1ED7" unicode="&#x1ed7;" horiz-adv-x="607" 
d="M355 521q111 0 171.5 -57t60.5 -152q0 -69 -25 -128t-70.5 -102.5t-106.5 -68t-133 -24.5q-112 0 -172 57.5t-60 151.5q0 69 25 128t70.5 103t106.5 68t133 24zM287 149q49 0 78 39.5t29 94.5q0 78 -70 78q-51 0 -81.5 -39.5t-30.5 -95.5q0 -77 75 -77zM574 944l55 -67
q-25 -52 -66 -79t-87 -27q-31 0 -61 11t-57.5 22.5t-53.5 11.5q-11 0 -29 -9.5t-26 -26.5l-55 68q26 53 66 78.5t86 25.5q32 0 61.5 -11.5t55.5 -22.5t46 -11q16 0 34 9t31 28zM149 573l165 162h150l107 -162h-169l-31 51l-49 -51h-173z" />
    <glyph glyph-name="uni1ED8" unicode="&#x1ed8;" horiz-adv-x="786" 
d="M355 -10q-98 0 -169.5 34t-109.5 98t-38 153q0 96 33 177t93 141t141 93.5t177 33.5q92 0 159 -35.5t104 -100t37 -153.5q0 -93 -32.5 -173.5t-90.5 -140.5t-136 -93.5t-168 -33.5zM378 165q58 0 103 32t71.5 86.5t26.5 123.5q0 65 -34.5 101.5t-95.5 36.5
q-59 0 -106 -32t-74.5 -86.5t-27.5 -123.5q0 -64 36.5 -101t100.5 -37zM322 -259q-52 0 -83 31.5t-31 75.5t30 75.5t83 31.5t84 -31.5t31 -75.5t-30.5 -75.5t-83.5 -31.5zM695 769h-165l-30 55l-51 -55h-177l167 167h150z" />
    <glyph glyph-name="uni1ED9" unicode="&#x1ed9;" horiz-adv-x="607" 
d="M355 521q111 0 171.5 -57t60.5 -152q0 -69 -25 -128t-70.5 -102.5t-106.5 -68t-133 -24.5q-112 0 -172 57.5t-60 151.5q0 69 25 128t70.5 103t106.5 68t133 24zM287 149q49 0 78 39.5t29 94.5q0 78 -70 78q-51 0 -81.5 -39.5t-30.5 -95.5q0 -77 75 -77zM233 -259
q-52 0 -83 31.5t-31 75.5t30 75.5t83 31.5t84 -31.5t31 -75.5t-30.5 -75.5t-83.5 -31.5zM571 573h-165l-30 55l-51 -55h-177l167 167h150z" />
    <glyph glyph-name="uni1EDA" unicode="&#x1eda;" horiz-adv-x="786" 
d="M355 -10q-98 0 -169.5 34t-109.5 98t-38 153q0 96 33 177t93 141t141 93.5t177 33.5q92 0 159 -35.5t104 -100t37 -153.5q0 -93 -32.5 -173.5t-90.5 -140.5t-136 -93.5t-168 -33.5zM378 165q58 0 103 32t71.5 86.5t26.5 123.5q0 65 -34.5 101.5t-95.5 36.5
q-59 0 -106 -32t-74.5 -86.5t-27.5 -123.5q0 -64 36.5 -101t100.5 -37zM608 707q31 0 47.5 9t23.5 34t9 73l158 -12q3 -68 -23.5 -121t-75 -83t-112.5 -30h-64l-38 139q17 -2 38 -5.5t37 -3.5zM404 769l157 177l184 -45l-176 -132h-165z" />
    <glyph glyph-name="uni1EDB" unicode="&#x1edb;" horiz-adv-x="607" 
d="M355 521q111 0 171.5 -57t60.5 -152q0 -69 -25 -128t-70.5 -102.5t-106.5 -68t-133 -24.5q-112 0 -172 57.5t-60 151.5q0 69 25 128t70.5 103t106.5 68t133 24zM287 149q49 0 78 39.5t29 94.5q0 78 -70 78q-51 0 -81.5 -39.5t-30.5 -95.5q0 -77 75 -77zM452 513
q26 0 40.5 8t21 32.5t8.5 73.5l159 -12q3 -68 -24 -120t-76 -81t-112 -29h-46l-36 135q12 -2 31 -4.5t34 -2.5zM280 573l157 177l184 -45l-176 -132h-165z" />
    <glyph glyph-name="uni1EDC" unicode="&#x1edc;" horiz-adv-x="786" 
d="M355 -10q-98 0 -169.5 34t-109.5 98t-38 153q0 96 33 177t93 141t141 93.5t177 33.5q92 0 159 -35.5t104 -100t37 -153.5q0 -93 -32.5 -173.5t-90.5 -140.5t-136 -93.5t-168 -33.5zM378 165q58 0 103 32t71.5 86.5t26.5 123.5q0 65 -34.5 101.5t-95.5 36.5
q-59 0 -106 -32t-74.5 -86.5t-27.5 -123.5q0 -64 36.5 -101t100.5 -37zM608 707q31 0 47.5 9t23.5 34t9 73l158 -12q3 -68 -23.5 -121t-75 -83t-112.5 -30h-64l-38 139q17 -2 38 -5.5t37 -3.5zM401 769l-127 132l199 45l93 -177h-165z" />
    <glyph glyph-name="uni1EDD" unicode="&#x1edd;" horiz-adv-x="607" 
d="M355 521q111 0 171.5 -57t60.5 -152q0 -69 -25 -128t-70.5 -102.5t-106.5 -68t-133 -24.5q-112 0 -172 57.5t-60 151.5q0 69 25 128t70.5 103t106.5 68t133 24zM287 149q49 0 78 39.5t29 94.5q0 78 -70 78q-51 0 -81.5 -39.5t-30.5 -95.5q0 -77 75 -77zM452 513
q26 0 40.5 8t21 32.5t8.5 73.5l159 -12q3 -68 -24 -120t-76 -81t-112 -29h-46l-36 135q12 -2 31 -4.5t34 -2.5zM277 573l-127 132l199 45l93 -177h-165z" />
    <glyph glyph-name="uni1EDE" unicode="&#x1ede;" horiz-adv-x="786" 
d="M355 -10q-98 0 -169.5 34t-109.5 98t-38 153q0 96 33 177t93 141t141 93.5t177 33.5q92 0 159 -35.5t104 -100t37 -153.5q0 -93 -32.5 -173.5t-90.5 -140.5t-136 -93.5t-168 -33.5zM378 165q58 0 103 32t71.5 86.5t26.5 123.5q0 65 -34.5 101.5t-95.5 36.5
q-59 0 -106 -32t-74.5 -86.5t-27.5 -123.5q0 -64 36.5 -101t100.5 -37zM608 707q31 0 47.5 9t23.5 34t9 73l158 -12q3 -68 -23.5 -121t-75 -83t-112.5 -30h-64l-38 139q17 -2 38 -5.5t37 -3.5zM530 947q56 0 90 -20t34 -55q0 -29 -16.5 -43.5t-38.5 -21.5t-40 -15t-21 -23
h-108l2 11q3 16 15.5 26.5t28 18t26.5 14t11 14.5q0 9 -15 9q-23 0 -45 -9t-42 -26l-53 57q65 63 172 63z" />
    <glyph glyph-name="uni1EDF" unicode="&#x1edf;" horiz-adv-x="607" 
d="M355 521q111 0 171.5 -57t60.5 -152q0 -69 -25 -128t-70.5 -102.5t-106.5 -68t-133 -24.5q-112 0 -172 57.5t-60 151.5q0 69 25 128t70.5 103t106.5 68t133 24zM287 149q49 0 78 39.5t29 94.5q0 78 -70 78q-51 0 -81.5 -39.5t-30.5 -95.5q0 -77 75 -77zM452 513
q26 0 40.5 8t21 32.5t8.5 73.5l159 -12q3 -68 -24 -120t-76 -81t-112 -29h-46l-36 135q12 -2 31 -4.5t34 -2.5zM406 751q56 0 90 -20t34 -55q0 -29 -16.5 -43.5t-38.5 -21.5t-40 -15t-21 -23h-108l2 11q3 16 15.5 26.5t28 18t26.5 14t11 14.5q0 9 -15 9q-23 0 -45 -9
t-42 -26l-53 57q65 63 172 63z" />
    <glyph glyph-name="uni1EE0" unicode="&#x1ee0;" horiz-adv-x="786" 
d="M355 -10q-98 0 -169.5 34t-109.5 98t-38 153q0 96 33 177t93 141t141 93.5t177 33.5q92 0 159 -35.5t104 -100t37 -153.5q0 -93 -32.5 -173.5t-90.5 -140.5t-136 -93.5t-168 -33.5zM378 165q58 0 103 32t71.5 86.5t26.5 123.5q0 65 -34.5 101.5t-95.5 36.5
q-59 0 -106 -32t-74.5 -86.5t-27.5 -123.5q0 -64 36.5 -101t100.5 -37zM608 707q31 0 47.5 9t23.5 34t9 73l158 -12q3 -68 -23.5 -121t-75 -83t-112.5 -30h-64l-38 139q17 -2 38 -5.5t37 -3.5zM563 762q-30 0 -59 12.5t-54.5 25t-47.5 12.5q-12 0 -31.5 -9.5t-35.5 -29.5
l-60 61q26 58 68.5 85.5t92.5 27.5q30 0 59 -12t55.5 -24.5t46.5 -12.5q17 0 35.5 9t31.5 31l61 -60q-27 -58 -69.5 -87t-92.5 -29z" />
    <glyph glyph-name="uni1EE1" unicode="&#x1ee1;" horiz-adv-x="607" 
d="M355 521q111 0 171.5 -57t60.5 -152q0 -69 -25 -128t-70.5 -102.5t-106.5 -68t-133 -24.5q-112 0 -172 57.5t-60 151.5q0 69 25 128t70.5 103t106.5 68t133 24zM287 149q49 0 78 39.5t29 94.5q0 78 -70 78q-51 0 -81.5 -39.5t-30.5 -95.5q0 -77 75 -77zM452 513
q26 0 40.5 8t21 32.5t8.5 73.5l159 -12q3 -68 -24 -120t-76 -81t-112 -29h-46l-36 135q12 -2 31 -4.5t34 -2.5zM439 566q-30 0 -59 12.5t-54.5 25t-47.5 12.5q-12 0 -31.5 -9.5t-35.5 -29.5l-60 61q26 58 68.5 85.5t92.5 27.5q30 0 59 -12t55.5 -24.5t46.5 -12.5
q17 0 35.5 9t31.5 31l61 -60q-27 -58 -69.5 -87t-92.5 -29z" />
    </font>
</defs>
</svg>
