<?xml version="1.0" standalone="no"?>
<!DOCTYPE svg PUBLIC "-//W3C//DTD SVG 1.1//EN" "http://www.w3.org/Graphics/SVG/1.1/DTD/svg11.dtd" >
<svg xmlns="http://www.w3.org/2000/svg" xmlns:xlink="http://www.w3.org/1999/xlink" version="1.1">
<metadata>
Created by FontForge 20201107 at Mon Sep  2 17:38:24 2019
 By 
Copyright 2019 The Livvic Project Authors (https://github.com/Fonthausen/Livvic)
</metadata>
<defs>
<font id="Livvic-MediumItalic" horiz-adv-x="0" >
  <font-face 
    font-family="Livvic Medium"
    font-weight="500"
    font-style="italic"
    font-stretch="normal"
    units-per-em="1000"
    panose-1="0 0 0 0 0 0 0 0 0 0"
    ascent="800"
    descent="-200"
    x-height="501"
    cap-height="710"
    bbox="-200 -262 1382 1104"
    underline-thickness="50"
    underline-position="-125"
    slope="-10"
    unicode-range="U+000D-FB02"
  />
<missing-glyph horiz-adv-x="290" 
 />
    <glyph glyph-name="f_f" unicode="ff" horiz-adv-x="683" 
d="M49 0l75 420h-99l14 81h99l8 45q18 99 78.5 151.5t146.5 52.5q62 0 99 -27t45 -79q30 52 79.5 79t111.5 27q70 0 108 -35.5t37 -101.5l-84 -10q2 32 -17 49t-54 17q-48 0 -79.5 -30t-42.5 -92l-8 -46h162l-14 -81h-161l-74 -420h-95l74 420h-104l14 81h104l8 45
q7 35 19 64l-66 -7q1 32 -17.5 49t-53.5 17q-48 0 -79.5 -30t-42.5 -92l-8 -46h106l-14 -81h-105l-74 -420h-96z" />
    <glyph glyph-name="f_f_i" unicode="ffi" horiz-adv-x="898" 
d="M49 0l75 420h-99l14 81h99l8 45q18 99 78.5 151.5t146.5 52.5q71 0 109 -35.5t37 -101.5l-84 -10q1 32 -17.5 49t-53.5 17q-48 0 -79.5 -30t-42.5 -92l-8 -46h161l-15 -81h-159l-74 -420h-96zM377 0l75 420h-99l14 81h99l8 45q18 99 78.5 151.5t146.5 52.5
q29 0 55.5 -6.5t40.5 -18.5l-51 -71q-21 15 -54 15q-48 0 -79.5 -30t-42.5 -92l-8 -46h161l-15 -81h-159l-74 -420h-96zM698 0q0 31 4 63t9 63l36 202q8 47 14 89t9 84h97q-3 -43 -11 -91.5t-14 -83.5l-35 -193q-6 -34 -9 -67t-3 -66h-97zM848 598q-29 0 -46 18.5t-17 43.5
t17 43.5t46 18.5t46 -18.5t17 -43.5t-17 -43.5t-46 -18.5z" />
    <glyph glyph-name="f_f_j" unicode="ffj" horiz-adv-x="1005" 
d="M49 0l75 420h-99l14 81h99l8 45q18 99 78.5 151.5t146.5 52.5q71 0 109 -35.5t37 -101.5l-84 -10q1 32 -17.5 49t-53.5 17q-48 0 -79.5 -30t-42.5 -92l-8 -46h161l-15 -81h-159l-74 -420h-96zM397 0l75 420h-99l14 81h99l8 45q18 99 78.5 151.5t146.5 52.5
q71 0 109 -35.5t37 -101.5l-84 -10q1 32 -17.5 49t-53.5 17q-48 0 -79.5 -30t-42.5 -92l-8 -46h161l-15 -81h-159l-74 -420h-96zM852 328q8 47 14 89t9 84h97q-3 -43 -11 -91.5t-14 -83.5l-57 -321q-17 -99 -71.5 -155.5t-159.5 -56.5q-31 0 -58.5 4.5t-45.5 14.5l31 80
q36 -16 78 -16q58 0 89.5 34.5t42.5 96.5zM953 598q-29 0 -46 18.5t-17 43.5t17 43.5t46 18.5t46 -18.5t17 -43.5t-17 -43.5t-46 -18.5z" />
    <glyph glyph-name="f_f_l" unicode="ffl" horiz-adv-x="954" 
d="M49 0l75 420h-99l14 81h99l8 45q18 99 78.5 151.5t146.5 52.5q71 0 109 -35.5t37 -101.5l-84 -10q1 32 -17.5 49t-53.5 17q-48 0 -79.5 -30t-42.5 -92l-8 -46h161l-15 -81h-159l-74 -420h-96zM377 0l75 420h-99l14 81h99l8 45q18 99 78.5 151.5t146.5 52.5
q29 0 55.5 -6.5t40.5 -18.5l-51 -71q-21 15 -54 15q-48 0 -79.5 -30t-42.5 -92l-8 -46h161l-15 -81h-159l-74 -420h-96zM834 -9q-61 0 -90.5 37.5t-18.5 98.5l108 613h95l-106 -603q-11 -61 44 -61q14 0 28 4t23 9l11 -71q-16 -13 -42 -20t-52 -7z" />
    <glyph glyph-name="f_i" unicode="fi" horiz-adv-x="570" 
d="M49 0l75 420h-99l14 81h99l8 45q18 99 78.5 151.5t146.5 52.5q29 0 55.5 -6.5t40.5 -18.5l-51 -71q-21 15 -54 15q-48 0 -79.5 -30t-42.5 -92l-8 -46h161l-15 -81h-159l-74 -420h-96zM370 0q0 31 4 63t9 63l36 202q8 47 14 89t9 84h97q-3 -43 -11 -91.5t-14 -83.5
l-35 -193q-6 -34 -9 -67t-3 -66h-97zM520 598q-29 0 -46 18.5t-17 43.5t17 43.5t46 18.5t46 -18.5t17 -43.5t-17 -43.5t-46 -18.5z" />
    <glyph glyph-name="f_l" unicode="fl" horiz-adv-x="626" 
d="M49 0l75 420h-99l14 81h99l8 45q18 99 78.5 151.5t146.5 52.5q29 0 55.5 -6.5t40.5 -18.5l-51 -71q-21 15 -54 15q-48 0 -79.5 -30t-42.5 -92l-8 -46h161l-15 -81h-159l-74 -420h-96zM506 -9q-61 0 -90.5 37.5t-18.5 98.5l108 613h95l-106 -603q-11 -61 44 -61q14 0 28 4
t23 9l11 -71q-16 -13 -42 -20t-52 -7z" />
    <glyph glyph-name=".notdef" horiz-adv-x="290" 
 />
    <glyph glyph-name=".null" 
 />
    <glyph glyph-name="nonmarkingreturn" horiz-adv-x="333" 
 />
    <glyph glyph-name="CR" unicode="&#xd;" horiz-adv-x="235" 
 />
    <glyph glyph-name="space" unicode=" " horiz-adv-x="235" 
 />
    <glyph glyph-name="exclam" unicode="!" horiz-adv-x="213" 
d="M63 191l83 549h108l-126 -549h-65zM72 -9q-28 0 -46 17.5t-18 45.5q0 27 18 45t46 18t46 -18t18 -45t-18 -45t-46 -18z" />
    <glyph glyph-name="quotedbl" unicode="&#x22;" horiz-adv-x="387" 
d="M117 438l29 272h102l-67 -272h-64zM271 438l29 272h102l-67 -272h-64z" />
    <glyph glyph-name="numbersign" unicode="#" horiz-adv-x="600" 
d="M30 0l76 198h-98l31 78h97l60 157h-97l30 78h97l77 199h86l-76 -199h131l77 199h86l-76 -199h99l-31 -78h-98l-60 -157h98l-31 -78h-97l-76 -198h-87l76 198h-131l-76 -198h-87zM223 276h131l60 157h-131z" />
    <glyph glyph-name="dollar" unicode="$" horiz-adv-x="600" 
d="M199 -120l21 115q-89 12 -136.5 67.5t-40.5 148.5l96 13q-2 -75 32 -110t114 -35q65 0 109 32t44 91q0 35 -23 54.5t-58.5 31t-76 23.5t-76 31t-58.5 54t-23 93q0 62 29.5 111.5t80 80t114.5 37.5l20 112h69l-20 -112q77 -10 120.5 -59.5t41.5 -130.5l-92 -15
q-2 120 -112 120q-64 0 -105.5 -36.5t-41.5 -96.5q0 -39 22.5 -60.5t58.5 -34.5t76 -24t76 -29t58.5 -50.5t22.5 -87.5q0 -64 -33.5 -113t-90.5 -77.5t-129 -31.5l-20 -112h-69z" />
    <glyph glyph-name="percent" unicode="%" horiz-adv-x="760" 
d="M256 410q-71 0 -115 40t-44 106q0 48 22 85t60.5 58t88.5 21q71 0 114 -40t43 -106q0 -47 -22 -84t-60 -58.5t-87 -21.5zM64 0l579 710h90l-579 -710h-90zM258 472q42 0 69.5 28t27.5 72q0 39 -24 62.5t-64 23.5q-43 0 -70.5 -28.5t-27.5 -72.5q0 -39 24 -62t65 -23z
M531 -7q-71 0 -115 40t-44 106q0 48 22 85t60.5 58t88.5 21q71 0 114 -40t43 -106q0 -47 -22 -84t-60 -58.5t-87 -21.5zM533 55q42 0 69 28t27 72q0 39 -23.5 62.5t-63.5 23.5q-44 0 -71.5 -28.5t-27.5 -72.5q0 -39 24.5 -62t65.5 -23z" />
    <glyph glyph-name="ampersand" unicode="&#x26;" horiz-adv-x="795" 
d="M278 -8q-110 0 -172 50t-62 131q0 63 23.5 105.5t61.5 72.5t81 53q-25 32 -37.5 62.5t-12.5 65.5q0 59 26 102t72 66t103 23q68 0 108 -35t40 -96q0 -56 -24.5 -93t-64 -61.5t-83.5 -45.5l170 -221q27 32 48 73.5t35 93.5h-102l14 79h279l-14 -79h-96
q-17 -69 -47.5 -125.5t-70.5 -98.5q22 -22 44.5 -31.5t50.5 -9.5q34 0 63 19l16 -68q-21 -17 -46.5 -24t-56.5 -7q-83 0 -142 61q-93 -62 -204 -62zM252 545q0 -25 10 -47t34 -53q35 18 65 37t47.5 43.5t17.5 58.5t-18.5 50.5t-52.5 16.5q-46 0 -74.5 -30.5t-28.5 -75.5z
M144 189q0 -56 40 -86.5t110 -30.5q78 0 142 39l-184 238q-45 -26 -76.5 -63t-31.5 -97z" />
    <glyph glyph-name="quotesingle" unicode="'" horiz-adv-x="233" 
d="M117 438l29 272h102l-67 -272h-64z" />
    <glyph glyph-name="parenleft" unicode="(" horiz-adv-x="309" 
d="M210 -211q-78 72 -115.5 165t-37.5 201q0 122 37 232t108.5 202t172.5 160l35 -52q-82 -61 -139 -150.5t-86 -193.5t-29 -209q0 -98 26 -177t74 -133z" />
    <glyph glyph-name="parenright" unicode=")" horiz-adv-x="309" 
d="M-60 -211l-34 51q82 61 138.5 150.5t86 193.5t29.5 210q0 97 -26 176.5t-74 133.5l46 45q78 -72 115.5 -165t37.5 -202q0 -121 -37.5 -231.5t-108.5 -202.5t-173 -159z" />
    <glyph glyph-name="asterisk" unicode="*" horiz-adv-x="465" 
d="M439 507q19 -11 25 -27.5t-4 -32.5q-9 -17 -26 -20t-37 8t-38 30t-53 47q6 -45 13.5 -69.5t7.5 -48.5q0 -22 -11.5 -35.5t-30.5 -12.5q-18 0 -29.5 13t-11.5 36t7.5 47.5t13.5 69.5q-36 -28 -54 -47t-37 -30q-20 -11 -37 -8t-26 20q-10 16 -4 32.5t25 27.5q20 11 45.5 17
t67.5 23q-42 17 -67.5 23.5t-45.5 17.5q-19 11 -25 27t4 33q9 16 26 19.5t37 -7.5q19 -11 37 -30.5t54 -47.5q-6 45 -13.5 70t-7.5 48q0 22 11.5 35.5t29.5 13.5q19 0 30.5 -13.5t11.5 -35.5q0 -23 -7.5 -48t-13.5 -70q35 28 53 47.5t38 30.5t37 7.5t26 -19.5
q20 -36 -21 -60q-20 -11 -45.5 -17.5t-67.5 -23.5q42 -17 67.5 -23t45.5 -17z" />
    <glyph glyph-name="plus" unicode="+" horiz-adv-x="600" 
d="M210 0l37 207h-202l15 87h202l37 207h91l-37 -207h202l-15 -87h-202l-37 -207h-91z" />
    <glyph glyph-name="comma" unicode="," horiz-adv-x="205" 
d="M-31 -131q18 29 30 60t12 55q0 18 -4 33.5t-4 32.5q0 35 20 55.5t54 20.5q27 0 42.5 -14.5t15.5 -45.5q0 -25 -17 -60.5t-43.5 -72.5t-56.5 -64h-49z" />
    <glyph glyph-name="hyphen" unicode="-" horiz-adv-x="405" 
d="M53 212l15 86h286l-15 -86h-286z" />
    <glyph glyph-name="period" unicode="." horiz-adv-x="205" 
d="M69 -9q-31 0 -49.5 19.5t-18.5 48.5q0 28 18.5 47.5t49.5 19.5t49.5 -19.5t18.5 -47.5q0 -29 -18.5 -48.5t-49.5 -19.5z" />
    <glyph glyph-name="slash" unicode="/" horiz-adv-x="335" 
d="M-79 -200l412 940h95l-412 -940h-95z" />
    <glyph glyph-name="zero" unicode="0" horiz-adv-x="600" 
d="M261 -9q-97 0 -151.5 58.5t-54.5 180.5q0 90 21.5 177t63.5 157.5t103.5 113t141.5 42.5q92 0 144 -61.5t52 -181.5q0 -87 -20.5 -173.5t-61.5 -157t-101 -112.5t-137 -43zM270 80q43 0 77.5 25t60.5 66.5t43 93.5t25.5 106.5t8.5 103.5q0 77 -28.5 117.5t-81.5 40.5
q-44 0 -79 -25t-62 -66.5t-45 -93t-27.5 -106.5t-9.5 -105q0 -80 30.5 -118.5t87.5 -38.5z" />
    <glyph glyph-name="one" unicode="1" horiz-adv-x="600" 
d="M73 0l14 80h159l87 490l-145 -88l-39 75l252 153h55l-111 -630h152l-14 -80h-410z" />
    <glyph glyph-name="two" unicode="2" horiz-adv-x="600" 
d="M45 0l11 66q77 54 150 113t131.5 119.5t93 120.5t34.5 117q0 45 -27 70.5t-77 25.5q-115 0 -178 -127l-72 37q37 81 106 129.5t159 48.5q83 0 136 -43t53 -126q0 -64 -30.5 -127t-83 -123t-120.5 -115.5t-142 -105.5h315l-14 -80h-445z" />
    <glyph glyph-name="three" unicode="3" horiz-adv-x="600" 
d="M232 -9q-59 0 -112 13.5t-89 36.5l42 85q32 -21 74.5 -33.5t94.5 -12.5q84 0 132 37t48 102q0 49 -35.5 75t-95.5 26h-42l14 81h31q77 0 124.5 37t47.5 106q0 41 -27 64.5t-75 23.5q-61 0 -105.5 -32.5t-75.5 -94.5l-72 37q37 82 106.5 130t161.5 48q86 0 137 -43.5
t51 -115.5q0 -68 -40 -121t-103 -77q47 -17 72 -52.5t25 -85.5q0 -74 -39 -126t-104.5 -80t-145.5 -28z" />
    <glyph glyph-name="four" unicode="4" horiz-adv-x="600" 
d="M326 0l34 197h-324l11 68l432 447h68l-77 -435h100l-14 -80h-100l-35 -197h-95zM159 277h215l49 274z" />
    <glyph glyph-name="five" unicode="5" horiz-adv-x="600" 
d="M233 -9q-59 0 -112.5 13.5t-89.5 36.5l43 87q30 -22 72 -35t96 -13q84 0 133.5 40t49.5 116q0 54 -45 82.5t-146 31.5l-103 3l88 357h356l-13 -80h-266l-49 -197l18 -1q127 -4 193 -52t66 -139q0 -78 -38 -134t-103.5 -86t-149.5 -30z" />
    <glyph glyph-name="six" unicode="6" horiz-adv-x="600" 
d="M290 -9q-104 0 -160.5 61t-56.5 181q0 50 11 112q32 178 121 276.5t221 98.5q78 0 128.5 -39.5t65.5 -117.5l-85 -35q-11 55 -40.5 79.5t-80.5 24.5q-81 0 -141.5 -68t-88.5 -210q36 46 85.5 69.5t107.5 23.5q80 0 132 -46.5t52 -132.5q0 -77 -36 -140t-97.5 -100
t-137.5 -37zM294 73q51 0 88.5 25t58.5 66.5t21 92.5q0 50 -29.5 79t-82.5 29q-51 0 -90.5 -23.5t-62.5 -63.5t-23 -90q0 -53 31.5 -84t88.5 -31z" />
    <glyph glyph-name="seven" unicode="7" horiz-adv-x="600" 
d="M184 0h-109l417 630h-347l15 80h455l-13 -75z" />
    <glyph glyph-name="eight" unicode="8" horiz-adv-x="600" 
d="M264 -9q-105 0 -166 46.5t-61 126.5q0 73 46 125.5t113 73.5q-40 19 -61.5 55.5t-21.5 81.5q0 65 35.5 114.5t94.5 77.5t130 28q62 0 109.5 -21.5t74.5 -60t27 -90.5q0 -68 -39.5 -116t-104.5 -71q48 -19 74.5 -59t26.5 -90q0 -69 -37.5 -118.5t-100 -76t-139.5 -26.5z
M326 398q69 0 114 38.5t45 102.5q0 46 -32 72.5t-88 26.5q-69 0 -112 -39.5t-43 -103.5q0 -47 31 -72t85 -25zM268 73q75 0 125.5 37.5t50.5 104.5q0 47 -36 76t-97 29q-47 0 -87 -18t-64 -51t-24 -77q0 -46 34.5 -73.5t97.5 -27.5z" />
    <glyph glyph-name="nine" unicode="9" horiz-adv-x="600" 
d="M347 721q104 0 160.5 -61t56.5 -181q0 -50 -11 -112q-32 -178 -121 -276.5t-221 -98.5q-78 0 -128.5 39.5t-65.5 117.5l85 35q11 -55 40.5 -79.5t80.5 -24.5q81 0 141.5 68t88.5 210q-36 -46 -85.5 -69.5t-107.5 -23.5q-80 0 -132 46.5t-52 132.5q0 77 36 140t97.5 100
t137.5 37zM343 639q-51 0 -88.5 -25t-58.5 -66.5t-21 -92.5q0 -50 29.5 -79t82.5 -29q51 0 90.5 23.5t62.5 63.5t23 90q0 53 -31.5 84t-88.5 31z" />
    <glyph glyph-name="colon" unicode=":" horiz-adv-x="205" 
d="M69 -9q-31 0 -49.5 19.5t-18.5 48.5q0 28 18.5 47.5t49.5 19.5t49.5 -19.5t18.5 -47.5q0 -29 -18.5 -48.5t-49.5 -19.5zM136 374q-31 0 -49.5 19.5t-18.5 48.5q0 28 18.5 47.5t49.5 19.5t49.5 -19.5t18.5 -47.5q0 -29 -18.5 -48.5t-49.5 -19.5z" />
    <glyph glyph-name="semicolon" unicode=";" horiz-adv-x="205" 
d="M-31 -131q18 29 30 60t12 55q0 18 -4 33.5t-4 32.5q0 35 20 55.5t54 20.5q27 0 42.5 -14.5t15.5 -45.5q0 -25 -17 -60.5t-43.5 -72.5t-56.5 -64h-49zM136 374q-31 0 -49.5 19.5t-18.5 48.5q0 28 18.5 47.5t49.5 19.5t49.5 -19.5t18.5 -47.5q0 -29 -18.5 -48.5
t-49.5 -19.5z" />
    <glyph glyph-name="less" unicode="&#x3c;" horiz-adv-x="600" 
d="M66 286l518 219l-16 -95l-393 -164l335 -164l-15 -87l-441 219z" />
    <glyph glyph-name="equal" unicode="=" horiz-adv-x="600" 
d="M64 316l15 80h494l-14 -80h-495zM27 106l14 80h495l-15 -80h-494z" />
    <glyph glyph-name="greater" unicode="&#x3e;" horiz-adv-x="600" 
d="M534 214l-518 -219l16 95l393 164l-335 164l15 87l441 -219z" />
    <glyph glyph-name="question" unicode="?" horiz-adv-x="511" 
d="M236 188l-72 4q9 70 38 119t94 98q43 32 67 55.5t34 44.5t10 46q0 38 -26.5 57.5t-72.5 19.5q-118 0 -180 -127l-72 39q36 81 109.5 128.5t160.5 47.5q80 0 130.5 -39t50.5 -110q0 -48 -19 -85.5t-53.5 -70t-79.5 -66.5q-53 -40 -80.5 -75.5t-38.5 -85.5zM183 -9
q-28 0 -46.5 17.5t-18.5 44.5q0 28 18.5 46t46.5 18t46 -18t18 -45t-18 -45t-46 -18z" />
    <glyph glyph-name="at" unicode="@" horiz-adv-x="979" 
d="M437 -212q-119 0 -206.5 42.5t-136 124.5t-48.5 202q0 119 38.5 222t109 181t167.5 121.5t215 43.5q116 0 198 -40.5t125.5 -116t43.5 -178.5q0 -62 -14.5 -125.5t-42.5 -116.5t-67.5 -85t-90.5 -32q-55 0 -85.5 28t-34.5 76q-32 -48 -78.5 -76t-99.5 -28
q-76 0 -118.5 46t-42.5 127q0 64 21 119.5t58.5 97t87 65t106.5 23.5q39 0 75 -12t57 -31l14 34l60 -7l-54 -294q-8 -44 4 -68t43 -24q29 0 52 28t38.5 71.5t23.5 91t8 85.5q0 124 -75.5 194t-213.5 70q-99 0 -180.5 -38t-140 -105.5t-89.5 -155.5t-31 -189
q0 -143 81.5 -218t229.5 -75q71 0 140.5 22.5t115.5 60.5l38 -65q-59 -47 -137 -71.5t-164 -24.5zM449 111q61 0 109.5 49.5t64.5 131.5l20 104q-35 34 -100 34q-49 0 -90.5 -30t-66 -80t-24.5 -111q0 -98 87 -98z" />
    <glyph glyph-name="A" unicode="A" horiz-adv-x="680" 
d="M-42 0l425 710h86l161 -710h-99l-37 177h-325l-104 -177h-107zM219 263h257l-69 323z" />
    <glyph glyph-name="B" unicode="B" horiz-adv-x="621" 
d="M33 0l125 710h209q253 0 253 -160q0 -68 -38 -118t-100 -73q43 -17 66 -53t23 -81q0 -70 -36 -120.5t-97 -77.5t-137 -27h-268zM356 627h-113l-40 -228h131q84 0 134 32t50 105q0 48 -39.5 69.5t-122.5 21.5zM148 83h163q75 0 117.5 35.5t42.5 103.5q0 93 -137 93h-145z
" />
    <glyph glyph-name="C" unicode="C" horiz-adv-x="657" 
d="M638 137q-50 -71 -125 -108.5t-163 -37.5q-137 0 -213 72t-76 201q0 92 31 174t86.5 145.5t131 100t165.5 36.5q86 0 148.5 -34.5t89.5 -102.5l-85 -56q-40 101 -163 101q-67 0 -122 -29t-95 -79t-61.5 -114t-21.5 -135q0 -90 49 -138.5t144 -48.5q62 0 117.5 27t96.5 85
z" />
    <glyph glyph-name="D" unicode="D" horiz-adv-x="739" 
d="M33 0l125 710h193q175 0 268.5 -71.5t93.5 -210.5q0 -129 -55.5 -225.5t-153.5 -149.5t-227 -53h-244zM151 90h133q102 0 175 40.5t111.5 115t38.5 175.5q0 100 -64 149.5t-197 49.5h-104z" />
    <glyph glyph-name="E" unicode="E" horiz-adv-x="552" 
d="M149 87h346l-24 -87h-438l125 710h434l-16 -87h-333l-39 -220h321l-15 -87h-321z" />
    <glyph glyph-name="F" unicode="F" horiz-adv-x="498" 
d="M133 0h-100l125 710h413l-16 -87h-313l-40 -230h300l-15 -87h-300z" />
    <glyph glyph-name="G" unicode="G" horiz-adv-x="739" 
d="M435 356h263l-63 -356h-79l4 73q-42 -41 -91.5 -61.5t-118.5 -20.5q-137 0 -213 72t-76 201q0 92 31 174t87.5 145.5t134 100t171.5 36.5q86 0 152 -34t95 -103l-87 -58q-20 50 -64.5 76.5t-106.5 26.5q-70 0 -127 -29t-98 -79t-62.5 -114t-21.5 -135q0 -90 49 -138.5
t144 -48.5q89 0 150 44t75 124l3 21h-166z" />
    <glyph glyph-name="H" unicode="H" horiz-adv-x="729" 
d="M33 0l125 710h102l-54 -306h370l54 306h102l-125 -710h-102l56 315h-370l-56 -315h-102z" />
    <glyph glyph-name="I" unicode="I" horiz-adv-x="257" 
d="M33 0l125 710h102l-125 -710h-102z" />
    <glyph glyph-name="J" unicode="J" horiz-adv-x="463" 
d="M143 -9q-76 0 -125 38t-59 104l90 37q8 -46 34 -67.5t73 -21.5q50 0 80 31t42 97l88 501h102l-87 -494q-20 -110 -77 -167.5t-161 -57.5z" />
    <glyph glyph-name="K" unicode="K" horiz-adv-x="593" 
d="M33 0l125 710h102l-57 -322l368 322h127l-407 -355q35 -20 57 -65l70 -145q18 -38 36.5 -50.5t47.5 -12.5q36 0 62 16l12 -76q-20 -16 -46 -22.5t-54 -6.5q-49 0 -83 21.5t-58 71.5l-89 178q-8 18 -21.5 29t-34.5 16l-55 -309h-102z" />
    <glyph glyph-name="L" unicode="L" horiz-adv-x="498" 
d="M33 0l125 710h102l-109 -622h325l-24 -88h-419z" />
    <glyph glyph-name="M" unicode="M" horiz-adv-x="923" 
d="M28 0l155 710h93l161 -584l377 584h93l-102 -710h-97l71 499l-323 -499h-81l-141 512l-112 -512h-94z" />
    <glyph glyph-name="N" unicode="N" horiz-adv-x="726" 
d="M632 710h98l-125 -710h-89l-289 549l-96 -549h-98l125 710h89l289 -549z" />
    <glyph glyph-name="O" unicode="O" horiz-adv-x="773" 
d="M346 -9q-134 0 -209.5 72t-75.5 201q0 92 30.5 174t86 145.5t131 100t165.5 36.5q84 0 145.5 -34.5t94.5 -97t33 -147.5q0 -90 -29.5 -171t-83.5 -144t-127.5 -99t-160.5 -36zM353 84q66 0 119.5 28.5t92 78.5t59 113.5t20.5 132.5q0 90 -46.5 140.5t-131.5 50.5
q-68 0 -123 -29t-95 -79t-61.5 -114t-21.5 -135q0 -90 48 -138.5t140 -48.5z" />
    <glyph glyph-name="P" unicode="P" horiz-adv-x="610" 
d="M133 0h-100l125 710h231q114 0 179.5 -44.5t65.5 -133.5q0 -87 -41.5 -143.5t-115.5 -84t-171 -27.5h-125zM374 627h-131l-47 -266h123q101 0 158 37t57 125q0 54 -41.5 79t-118.5 25z" />
    <glyph glyph-name="Q" unicode="Q" horiz-adv-x="773" 
d="M444 -209q-92 0 -137 56t-29 147l1 3q-104 17 -161 86t-57 181q0 92 30.5 174t86 145.5t131 100t165.5 36.5q84 0 145.5 -34.5t94.5 -97t33 -147.5q0 -86 -27 -164t-77 -140t-117.5 -100t-148.5 -44l-1 -3q-11 -62 9 -89.5t67 -27.5q35 0 60 18t34 48l79 -10
q-20 -67 -66.5 -102.5t-114.5 -35.5zM353 84q66 0 119.5 28.5t92 78.5t59 113.5t20.5 132.5q0 90 -46.5 140.5t-131.5 50.5q-68 0 -123 -29t-95 -79t-61.5 -114t-21.5 -135q0 -90 48 -138.5t140 -48.5z" />
    <glyph glyph-name="R" unicode="R" horiz-adv-x="603" 
d="M581 98l13 -78q-19 -13 -44.5 -20t-53.5 -7q-96 0 -142 93l-88 178q-11 22 -27.5 33.5t-35.5 11.5h-16l-54 -309h-100l125 710h198q118 0 178 -43.5t60 -125.5q0 -70 -33.5 -120.5t-91.5 -78.5t-132 -31q24 -14 44 -54l56 -112q19 -38 38.5 -50.5t45.5 -12.5q33 0 60 16z
M341 627h-98l-42 -238h98q90 0 141.5 31.5t51.5 107.5q0 99 -151 99z" />
    <glyph glyph-name="S" unicode="S" horiz-adv-x="575" 
d="M259 -8q-120 0 -183.5 56.5t-58.5 162.5l97 13q0 -75 37 -110t120 -35q76 0 118 32t42 91q0 30 -17.5 48.5t-46 30t-62.5 20.5t-68 21.5t-62.5 32t-46 52t-17.5 82.5q0 68 34.5 120t94.5 81.5t136 29.5q101 0 156 -51.5t53 -140.5l-92 -15q-3 120 -121 120
q-73 0 -115 -36.5t-42 -96.5q0 -34 17 -54t45.5 -32.5t63 -22t68.5 -21.5t62.5 -30t45.5 -48.5t17 -77.5q0 -67 -35 -117t-97.5 -77.5t-142.5 -27.5z" />
    <glyph glyph-name="T" unicode="T" horiz-adv-x="559" 
d="M646 710l-26 -88h-225l-110 -622h-101l110 622h-231l16 88h567z" />
    <glyph glyph-name="U" unicode="U" horiz-adv-x="732" 
d="M637 710h100l-64 -374q-30 -177 -112.5 -261t-226.5 -84q-146 0 -211 81t-39 230l72 408h103l-71 -401q-40 -225 152 -225q101 0 155 59.5t78 196.5z" />
    <glyph glyph-name="V" unicode="V" horiz-adv-x="605" 
d="M599 710h107l-389 -710h-139l-92 710h101l76 -628z" />
    <glyph glyph-name="W" unicode="W" horiz-adv-x="957" 
d="M925 710h103l-332 -710h-116l-38 574l-267 -574h-117l-50 710h96l36 -582l270 582h113l37 -582z" />
    <glyph glyph-name="X" unicode="X" horiz-adv-x="594" 
d="M-48 0l310 365l-168 345h110l127 -264l221 264h113l-293 -348l177 -362h-111l-135 279l-233 -279h-118z" />
    <glyph glyph-name="Y" unicode="Y" horiz-adv-x="566" 
d="M668 710l-322 -391l-57 -319h-102l57 320l-187 390h109l143 -301l247 301h112z" />
    <glyph glyph-name="Z" unicode="Z" horiz-adv-x="609" 
d="M-5 0l13 73l496 549h-383l16 88h521l-13 -73l-496 -549h411l-24 -88h-541z" />
    <glyph glyph-name="bracketleft" unicode="[" horiz-adv-x="283" 
d="M-2 -200l166 940h193l-13 -73h-99l-140 -794h99l-13 -73h-193z" />
    <glyph glyph-name="backslash" unicode="\" horiz-adv-x="335" 
d="M255 -200h-88l-87 940h88z" />
    <glyph glyph-name="bracketright" unicode="]" horiz-adv-x="283" 
d="M-67 -200l13 73h100l140 794h-100l13 73h193l-166 -940h-193z" />
    <glyph glyph-name="asciicircum" unicode="^" horiz-adv-x="600" 
d="M382 593l135 -479h-84l-101 366l-229 -366h-95l302 479h72z" />
    <glyph glyph-name="underscore" unicode="_" horiz-adv-x="488" 
d="M-30 -80l14 80h431l-14 -80h-431z" />
    <glyph glyph-name="grave" unicode="`" horiz-adv-x="642" 
d="M299 573l-104 150l109 27l85 -177h-90z" />
    <glyph glyph-name="a" unicode="a" horiz-adv-x="588" 
d="M213 -9q-81 0 -127 48t-46 135q0 70 22.5 131t63.5 107t95.5 71.5t118.5 25.5q42 0 80 -13t61 -35l17 39h69q-10 -48 -19 -91.5t-17 -85.5l-27 -153q-8 -48 -13 -95.5t-5 -74.5h-94q0 29 3.5 59t10.5 59q-36 -65 -85 -96t-108 -31zM235 78q48 0 88.5 27.5t68.5 77.5
t40 117l15 86q-38 38 -106 38q-64 0 -109 -34t-69 -88.5t-24 -116.5q0 -52 25 -79.5t71 -27.5z" />
    <glyph glyph-name="b" unicode="b" horiz-adv-x="588" 
d="M249 -9q-42 0 -80 13.5t-60 34.5l-17 -39h-70q10 49 19 92.5t16 85.5l101 568h95l-43 -245l-23 -112q36 62 83.5 91t105.5 29q81 0 127 -47.5t46 -134.5q0 -70 -22.5 -131t-63.5 -107t-95.5 -72t-118.5 -26zM248 76q64 0 109 34.5t69 89t24 116.5q0 52 -25 79.5t-71 27.5
q-48 0 -88.5 -28t-68.5 -78t-40 -116l-15 -87q38 -38 106 -38z" />
    <glyph glyph-name="c" unicode="c" horiz-adv-x="490" 
d="M248 -9q-96 0 -151 52t-55 142q0 62 20 120t58 104t92 73t123 27q65 0 107.5 -24.5t67.5 -74.5l-77 -53q-27 66 -104 66q-59 0 -101.5 -32t-65.5 -84.5t-23 -111.5q0 -56 31 -87t92 -30q38 0 72.5 16.5t61.5 50.5l60 -56q-39 -49 -92 -73.5t-116 -24.5z" />
    <glyph glyph-name="d" unicode="d" horiz-adv-x="588" 
d="M213 -9q-81 0 -127 48t-46 135q0 70 22.5 131t63.5 107t95.5 71.5t118.5 25.5q35 0 67.5 -9t55.5 -25l4 26l43 239h95l-101 -570q-8 -48 -13 -95.5t-5 -74.5h-94q0 29 3.5 59t10.5 59q-36 -65 -85 -96t-108 -31zM235 78q48 0 88.5 27.5t68.5 77.5t40 117l15 86
q-38 38 -106 38q-64 0 -109 -34t-69 -88.5t-24 -116.5q0 -52 25 -79.5t71 -27.5z" />
    <glyph glyph-name="e" unicode="e" horiz-adv-x="539" 
d="M264 -9q-99 0 -160 53.5t-61 151.5q0 85 36 156t101.5 114t154.5 43q84 0 129 -39.5t45 -99.5q0 -62 -42.5 -106t-140.5 -49l-187 -10q-2 -62 34.5 -95t103.5 -33q38 0 77.5 16t66.5 48l48 -59q-38 -47 -90 -69t-115 -22zM327 435q-49 0 -85.5 -21t-60 -56.5t-32.5 -78.5
l170 10q58 2 81 23.5t23 53.5q0 30 -23 49.5t-73 19.5z" />
    <glyph glyph-name="f" unicode="f" horiz-adv-x="348" 
d="M49 0l75 420h-99l14 81h99l8 45q18 99 78.5 151.5t146.5 52.5q71 0 109 -35.5t37 -101.5l-84 -10q1 32 -17.5 49t-53.5 17q-48 0 -79.5 -30t-42.5 -92l-8 -46h161l-15 -81h-159l-74 -420h-96z" />
    <glyph glyph-name="g" unicode="g" horiz-adv-x="592" 
d="M183 -210q-48 0 -94.5 9t-75.5 28l32 84q64 -35 146 -35q88 0 136 43.5t69 143.5l12 62q-36 -63 -84 -92t-107 -29q-80 0 -128 45.5t-48 130.5q0 69 23 129t64 105t96 70t119 25q43 0 81.5 -13t61.5 -34l17 38h69q-11 -48 -20 -91.5t-16 -85.5l-43 -246
q-26 -149 -100.5 -218t-209.5 -69zM237 89q48 0 89.5 27t70 75t40.5 113l14 84q-38 36 -107 36q-64 0 -109.5 -33t-70 -86t-24.5 -112q0 -51 25 -77.5t72 -26.5z" />
    <glyph glyph-name="h" unicode="h" horiz-adv-x="585" 
d="M26 0l130 740h96l-43 -239l-35 -159q40 81 97 124t128 43q79 0 116.5 -53t14.5 -159l-35 -163q-7 -34 -10 -67.5t-3 -66.5h-97q0 64 13 126l35 163q15 69 -3 100t-65 31q-49 0 -94.5 -38t-83.5 -130t-66 -252h-95z" />
    <glyph glyph-name="i" unicode="i" horiz-adv-x="236" 
d="M35 0q0 31 4 63t9 63l36 202q8 47 14 89t9 84h97q-3 -43 -11 -91.5t-14 -83.5l-35 -193q-6 -34 -9 -67t-3 -66h-97zM185 598q-29 0 -46 18.5t-17 43.5t17 43.5t46 18.5t46 -18.5t17 -43.5t-17 -43.5t-46 -18.5z" />
    <glyph glyph-name="j" unicode="j" horiz-adv-x="250" 
d="M97 328q8 47 14 89t9 84h97q-3 -43 -11 -91.5t-14 -83.5l-57 -321q-17 -99 -71.5 -155.5t-159.5 -56.5q-31 0 -58.5 4.5t-45.5 14.5l31 80q36 -16 78 -16q58 0 89.5 34.5t42.5 96.5zM198 598q-29 0 -46 18.5t-17 43.5t17 43.5t46 18.5t46 -18.5t17 -43.5t-17 -43.5
t-46 -18.5z" />
    <glyph glyph-name="k" unicode="k" horiz-adv-x="491" 
d="M26 0l131 740h95l-78 -446l240 206h123l-284 -242q20 -14 33 -39l43 -86q17 -34 36.5 -46.5t44.5 -12.5q29 0 54 13l15 -71q-21 -13 -43.5 -18t-47.5 -5q-49 0 -82 20.5t-58 69.5l-43 85q-21 41 -44 56l-39 -224h-96z" />
    <glyph glyph-name="l" unicode="l" horiz-adv-x="278" 
d="M158 -9q-61 0 -90.5 37.5t-18.5 98.5l108 613h95l-106 -603q-11 -61 44 -61q14 0 28 4t23 9l11 -71q-16 -13 -42 -20t-52 -7z" />
    <glyph glyph-name="m" unicode="m" horiz-adv-x="926" 
d="M26 0l58 328q8 47 14 89t9 84h94q-2 -35 -9 -76.5t-19 -84.5q39 82 96 125.5t126 43.5q61 0 97 -33.5t38 -100.5q41 65 95.5 99.5t117.5 34.5q76 0 113 -53t14 -159l-35 -163q-7 -34 -10 -67.5t-3 -66.5h-97q0 64 13 126l35 163q15 69 -2.5 100t-62.5 31q-47 0 -91 -38
t-82 -130t-66 -252h-95l51 289q12 69 -4 100t-60 31q-47 0 -91.5 -38t-82.5 -130t-66 -252h-95z" />
    <glyph glyph-name="n" unicode="n" horiz-adv-x="585" 
d="M26 0l58 328q8 47 14 89t9 84h94q-3 -35 -9.5 -76.5t-18.5 -84.5q39 82 97 125.5t129 43.5q79 0 116.5 -53t14.5 -159l-35 -163q-7 -34 -10 -67.5t-3 -66.5h-97q0 64 13 126l35 163q15 69 -3 100t-65 31q-49 0 -94.5 -38t-83.5 -130t-66 -252h-95z" />
    <glyph glyph-name="o" unicode="o" horiz-adv-x="575" 
d="M337 509q89 0 142.5 -50.5t53.5 -143.5q0 -69 -22 -127.5t-62 -102.5t-93 -69t-115 -25q-91 0 -145.5 51t-54.5 143q0 60 20 118t57.5 104.5t92.5 74t126 27.5zM251 77q57 0 98 33t63.5 85.5t22.5 111.5q0 57 -29 87t-81 30q-59 0 -100.5 -33.5t-63.5 -85.5t-22 -110
q0 -57 29.5 -87.5t82.5 -30.5z" />
    <glyph glyph-name="p" unicode="p" horiz-adv-x="588" 
d="M375 509q81 0 127 -47.5t46 -134.5q0 -70 -22.5 -131t-63.5 -107t-95.5 -72t-118.5 -26q-35 0 -67.5 9.5t-55.5 25.5l-4 -26l-35 -200h-96l93 528q8 47 14 89t9 84h94q-2 -33 -7 -62t-11 -57q36 65 85 96t108 31zM353 423q-48 0 -88.5 -28t-68.5 -78t-40 -116l-15 -87
q38 -38 106 -38q64 0 109 34.5t69 89t24 116.5q0 52 -25 79.5t-71 27.5z" />
    <glyph glyph-name="q" unicode="q" horiz-adv-x="588" 
d="M567 501q-10 -49 -19 -92.5t-16 -85.5l-93 -523h-95l35 199l23 113q-36 -62 -83.5 -91.5t-105.5 -29.5q-81 0 -127 48t-46 135q0 70 22.5 131t63.5 107t95.5 71.5t118.5 25.5q42 0 80 -13t60 -34l17 39h70zM235 78q48 0 88.5 27.5t68.5 77.5t40 117l15 86q-38 38 -106 38
q-64 0 -109 -34t-69 -88.5t-24 -116.5q0 -52 25 -79.5t71 -27.5z" />
    <glyph glyph-name="r" unicode="r" horiz-adv-x="391" 
d="M399 409q-18 6 -44 6q-57 0 -100 -42.5t-75.5 -134t-58.5 -238.5h-95l58 328q8 47 14 89t9 84h94q-3 -32 -10 -73.5t-16 -82.5q42 89 96 126.5t108 37.5q16 0 28.5 -1.5t21.5 -5.5z" />
    <glyph glyph-name="s" unicode="s" horiz-adv-x="461" 
d="M203 -9q-95 0 -144 38.5t-52 110.5l84 20q1 -47 28 -69.5t87 -22.5q50 0 81 20t31 54q0 23 -18 35.5t-46 20.5t-59.5 16t-59.5 22t-46 38.5t-18 65.5q0 53 30 90.5t77.5 58t100.5 20.5q72 0 116 -35t50 -94l-82 -21q-6 73 -89 73q-46 0 -76.5 -22t-30.5 -57
q0 -25 18 -38.5t46 -22.5t59.5 -17.5t59.5 -22t46 -37t18 -62.5q0 -51 -30.5 -87t-79 -55.5t-101.5 -19.5z" />
    <glyph glyph-name="t" unicode="t" horiz-adv-x="385" 
d="M230 -9q-88 0 -127 52.5t-25 132.5l47 244h-88l15 81h88l20 104h95l-19 -104h168l-14 -81h-169l-47 -247q-9 -44 9 -70.5t66 -26.5q25 0 46 6t46 22l16 -75q-26 -20 -59.5 -29t-67.5 -9z" />
    <glyph glyph-name="u" unicode="u" horiz-adv-x="575" 
d="M182 -9q-76 0 -111 53t-16 160l23 124q18 93 24 173h96q-3 -43 -10 -91.5t-14 -83.5l-23 -120q-25 -125 70 -125q45 0 88 38t81 130t66 252h93l-59 -331q-8 -48 -13 -95.5t-5 -74.5h-94q0 63 22 154q-39 -79 -94.5 -121t-123.5 -42z" />
    <glyph glyph-name="v" unicode="v" horiz-adv-x="506" 
d="M455 501h100l-280 -501h-135l-72 501h98l56 -424z" />
    <glyph glyph-name="w" unicode="w" horiz-adv-x="849" 
d="M793 501h100l-272 -501h-114l-49 374l-203 -374h-114l-69 501h96l48 -405l217 405h97l49 -407z" />
    <glyph glyph-name="x" unicode="x" horiz-adv-x="488" 
d="M-42 0l231 259l-134 242h108l92 -169l148 169h118l-223 -249l140 -252h-108l-97 179l-157 -179h-118z" />
    <glyph glyph-name="y" unicode="y" horiz-adv-x="580" 
d="M170 -210q-43 0 -88.5 9t-75.5 28l29 84q64 -35 143 -35q93 0 140 44.5t67 142.5l19 88q-44 -77 -98.5 -112t-113.5 -35q-79 0 -116 54t-20 151l22 119q9 45 15 88t9 85h96q-3 -43 -10 -91.5t-14 -83.5l-21 -108q-11 -59 5 -92t64 -33q49 0 93.5 38t81 127t64.5 243h92
l-75 -425q-26 -154 -101.5 -220t-206.5 -66z" />
    <glyph glyph-name="z" unicode="z" horiz-adv-x="456" 
d="M-9 0l12 69l326 351h-253l14 81h376l-12 -68l-326 -353h262l-14 -80h-385z" />
    <glyph glyph-name="braceleft" unicode="{" horiz-adv-x="362" 
d="M221 -206q-73 6 -115 41t-42 94q0 35 13.5 67t31 61t31 57t13.5 55q0 30 -23 48.5t-76 18.5l11 70q65 0 97.5 28t32.5 76q0 34 -10 76.5t-10 81.5q0 56 28 94.5t75.5 60t107.5 25.5l4 -61q-56 -3 -86 -33.5t-30 -83.5q0 -37 10.5 -72.5t10.5 -73.5q0 -64 -40 -102.5
t-104 -51.5q47 -11 72.5 -39t25.5 -67q0 -34 -13.5 -62.5t-31 -55.5t-30.5 -56t-13 -63q0 -37 22 -55t57 -21z" />
    <glyph glyph-name="bar" unicode="|" horiz-adv-x="270" 
d="M8 -200l166 940h95l-166 -940h-95z" />
    <glyph glyph-name="braceright" unicode="}" horiz-adv-x="362" 
d="M-16 -206l-4 61q56 3 86 33.5t30 83.5q0 37 -10.5 72.5t-10.5 73.5q0 64 40 102.5t104 51.5q-47 11 -72.5 39t-25.5 67q0 34 13.5 62.5t30.5 55.5t30.5 56t13.5 63q0 37 -22 55t-57 21l19 57q73 -6 115 -41t42 -94q0 -35 -13.5 -67t-31 -61t-31 -57t-13.5 -55
q0 -30 23 -48.5t76 -18.5l-11 -70q-65 0 -98 -28t-33 -76q0 -34 10 -76.5t10 -81.5q0 -56 -27.5 -94.5t-75 -60t-107.5 -25.5z" />
    <glyph glyph-name="asciitilde" unicode="~" horiz-adv-x="600" 
d="M397 180q-20 0 -48 8t-57.5 19t-57 19t-46.5 8q-28 0 -50 -13t-40 -38l-42 45q25 44 63 69t84 25q20 0 48 -8.5t57.5 -19t57 -18.5t46.5 -8q28 0 50 12.5t40 38.5l42 -46q-25 -44 -63 -68.5t-84 -24.5z" />
    <glyph glyph-name="uni00A0" unicode="&#xa0;" horiz-adv-x="235" 
 />
    <glyph glyph-name="exclamdown" unicode="&#xa1;" horiz-adv-x="213" 
d="M140 384q-28 0 -46 17.5t-18 44.5t18 45t46 18q29 0 47 -18t18 -45q0 -26 -18 -44t-47 -18zM-35 -200l120 510h64l-76 -510h-108z" />
    <glyph glyph-name="cent" unicode="&#xa2;" horiz-adv-x="600" 
d="M224 -120l20 115q-76 11 -119.5 61t-43.5 129q0 76 30.5 145.5t87 117.5t136.5 59l20 114h69l-20 -113q102 -10 146 -98l-77 -53q-27 66 -104 66q-59 0 -101.5 -32.5t-65.5 -84.5t-23 -111q0 -56 31 -87t92 -30q38 0 72 16.5t61 50.5l60 -56q-35 -44 -81 -68t-101 -29
l-20 -112h-69z" />
    <glyph glyph-name="sterling" unicode="&#xa3;" horiz-adv-x="600" 
d="M48 -11l-31 64q67 29 105.5 77t38.5 116q0 17 -2 36t-5 39h-124l12 68h103q-1 13 -1.5 26.5t-0.5 27.5q0 87 33 149t93 95t141 33q90 0 144 -46t62 -132l-83 -31q-8 122 -128 122q-84 0 -125 -48.5t-41 -136.5q0 -16 1 -30.5t3 -28.5h185l-12 -68h-164q1 -12 2 -25t1 -26
q0 -45 -15.5 -88.5t-47.5 -73.5q17 5 34 5q29 0 60.5 -9.5t62 -18.5t55.5 -9q56 0 92 51l49 -44q-27 -43 -69.5 -68t-88.5 -25q-26 0 -64 10t-78.5 20t-74.5 10q-65 0 -122 -41z" />
    <glyph glyph-name="currency" unicode="&#xa4;" horiz-adv-x="600" 
d="M117 91l-51 52l56 57q-22 31 -34.5 69t-12.5 79q0 42 12.5 79.5t34.5 68.5l-56 57l51 52l54 -56q31 24 68.5 37t79.5 13q40 0 77 -13t68 -36l55 57l52 -52l-56 -58q22 -31 34.5 -69t12.5 -80t-13 -80t-35 -69l55 -56l-52 -51l-54 55q-30 -23 -67 -36t-77 -13
q-42 0 -79 13.5t-67 36.5zM319 177q45 0 82 23t59 62t22 86q0 49 -22 88t-59 62t-82 23t-82 -23t-59.5 -62t-22.5 -88q0 -47 22 -86t59 -62t83 -23z" />
    <glyph glyph-name="yen" unicode="&#xa5;" horiz-adv-x="600" 
d="M66 152l12 68h167l15 85h-167l12 68h144l-161 337h108l134 -286l231 286h113l-279 -337h141l-12 -68h-162l-15 -85h162l-12 -68h-162l-27 -152h-102l27 152h-167z" />
    <glyph glyph-name="brokenbar" unicode="&#xa6;" horiz-adv-x="270" 
d="M110 380l64 360h95l-64 -360h-95zM8 -200l64 360h95l-64 -360h-95z" />
    <glyph glyph-name="section" unicode="&#xa7;" horiz-adv-x="507" 
d="M210 -10q-78 0 -123.5 35t-45.5 94l83 21q1 -34 25 -52.5t70 -18.5q47 0 74.5 20.5t27.5 56.5q0 24 -18 38t-46.5 22.5t-60.5 17.5t-60.5 21.5t-46.5 34.5t-18 58q0 47 27 79t69 48q-18 15 -28.5 36.5t-10.5 51.5q0 51 28 88.5t75 58t103 20.5q78 0 123 -35t46 -94
l-83 -21q-1 34 -25 52.5t-70 18.5q-47 0 -74.5 -20.5t-27.5 -56.5q0 -24 18 -38t46.5 -22.5t60.5 -17.5t60.5 -21.5t46.5 -34.5t18 -58q0 -47 -27 -79t-69 -48q18 -15 28.5 -36.5t10.5 -51.5q0 -51 -27.5 -88.5t-74.5 -58t-104 -20.5zM167 361q0 -23 21 -36t53.5 -22
t66.5 -21q30 5 49.5 23t19.5 44q0 23 -21 36t-53.5 22t-66.5 21q-30 -5 -49.5 -23t-19.5 -44z" />
    <glyph glyph-name="dieresis" unicode="&#xa8;" horiz-adv-x="671" 
d="M448 568q-28 0 -43.5 17t-15.5 39t15.5 38.5t43.5 16.5q27 0 42.5 -16.5t15.5 -38.5t-15.5 -39t-42.5 -17zM266 568q-29 0 -44.5 17t-15.5 39t15.5 38.5t44.5 16.5q26 0 41.5 -16.5t15.5 -38.5t-15.5 -39t-41.5 -17z" />
    <glyph glyph-name="copyright" unicode="&#xa9;" horiz-adv-x="816" 
d="M426 -9q-76 0 -142 27t-116 76t-77.5 114t-27.5 141t27.5 141.5t77 114t115.5 75.5t143 27t143 -27t115 -75.5t76.5 -114t27.5 -141.5t-27.5 -141t-76.5 -114t-115 -76t-143 -27zM426 33q67 0 124 24t100 67t67 101t24 125t-24 124.5t-67 100t-100 66.5t-124 24t-124 -24
t-100 -66.5t-67 -100t-24 -124.5t24 -124.5t67 -101t100 -67.5t124 -24zM589 231q-23 -40 -64.5 -61t-93.5 -21q-92 0 -143.5 51.5t-51.5 141.5q0 62 25.5 108.5t71.5 73t107 26.5q52 0 88.5 -19.5t61.5 -58.5l-62 -42q-14 27 -37.5 39t-51.5 12q-54 0 -87.5 -38.5
t-33.5 -98.5t30 -93t85 -33q28 0 54.5 14t42.5 43z" />
    <glyph glyph-name="ordfeminine" unicode="&#xaa;" horiz-adv-x="351" 
d="M347 467h-76l10 43q-37 -48 -92 -48q-46 0 -73.5 28.5t-27.5 78.5q0 51 21 92t58 65t84 24q29 0 48.5 -11t28.5 -29l13 35h54zM253 687q-42 0 -65.5 -33.5t-23.5 -76.5q0 -52 46 -52q27 0 47.5 17.5t31.5 43.5t11 52q0 23 -12.5 36t-34.5 13z" />
    <glyph glyph-name="guillemotleft" unicode="&#xab;" horiz-adv-x="467" 
d="M122 70l-93 164l7 38l150 164h108l-173 -189l101 -177h-100zM316 70l-93 164l7 38l150 164h108l-173 -189l101 -177h-100z" />
    <glyph glyph-name="logicalnot" unicode="&#xac;" horiz-adv-x="600" 
d="M68 294h480l-52 -294h-91l36 207h-388z" />
    <glyph glyph-name="uni00AD" unicode="&#xad;" horiz-adv-x="405" 
d="M53 212l15 86h286l-15 -86h-286z" />
    <glyph glyph-name="registered" unicode="&#xae;" horiz-adv-x="816" 
d="M426 -9q-77 0 -143 27t-115.5 76t-77 114t-27.5 141t27.5 141t77 114t115.5 76t143 27t143 -27t115 -76t76.5 -114t27.5 -141t-27.5 -141t-76.5 -114t-115 -76t-143 -27zM426 33q67 0 124.5 24t100 67.5t66.5 101t24 124.5t-24 124t-66.5 100t-100 67t-124.5 24t-124 -24
t-100 -66.5t-67 -100t-24 -124.5t24 -124.5t67 -101t100 -67.5t124 -24zM558 152q-39 0 -62.5 16.5t-38.5 40.5t-27 48.5t-26.5 40.5t-36.5 16v-157h-79v391h125q70 0 109 -31.5t39 -87.5q0 -40 -27 -70t-73 -39q18 -11 30.5 -27.5t23 -33.5t23 -28.5t31.5 -11.5t35 10
l19 -59q-25 -18 -65 -18zM408 491h-41v-123h30q45 0 64.5 16t19.5 46q0 29 -19.5 45t-53.5 16z" />
    <glyph glyph-name="macron" unicode="&#xaf;" horiz-adv-x="625" 
d="M186 666h315l-12 -67h-315z" />
    <glyph glyph-name="degree" unicode="&#xb0;" horiz-adv-x="374" 
d="M244 421q-42 0 -75.5 19.5t-53.5 53t-20 75.5q0 43 20 76t53.5 52.5t75.5 19.5t75.5 -19.5t53 -52.5t19.5 -76q0 -42 -19.5 -75.5t-53 -53t-75.5 -19.5zM244 480q37 0 61.5 25t24.5 65q0 39 -24.5 64t-61.5 25q-38 0 -62 -25t-24 -64q0 -40 24 -65t62 -25z" />
    <glyph glyph-name="plusminus" unicode="&#xb1;" horiz-adv-x="600" 
d="M302 501h85l-25 -141h153l-13 -80h-154l-25 -141h-85l25 141h-154l14 80h154zM16 0l14 80h480l-15 -80h-479z" />
    <glyph glyph-name="uni00B2" unicode="&#xb2;" horiz-adv-x="330" 
d="M60 369q51 34 99.5 74.5t80.5 82.5t32 81q0 44 -46 44q-27 0 -48.5 -16.5t-35.5 -46.5l-52 28q18 44 58.5 71.5t91.5 27.5q49 0 79.5 -25t30.5 -72q0 -61 -50 -120.5t-141 -118.5h161l-11 -60h-258z" />
    <glyph glyph-name="uni00B3" unicode="&#xb3;" horiz-adv-x="330" 
d="M170 314q-30 0 -61 7.5t-47 19.5l23 62q38 -24 89 -24q38 0 61 17t23 49q0 46 -67 46h-29l6 54h25q36 0 57 17t21 46q0 20 -12.5 31.5t-32.5 11.5q-24 0 -45 -13.5t-34 -38.5l-50 32q19 38 57 61t85 23q51 0 81.5 -26t29.5 -67q0 -33 -20.5 -61.5t-52.5 -41.5
q58 -17 58 -76q0 -37 -21 -66t-58.5 -46t-85.5 -17z" />
    <glyph glyph-name="acute" unicode="&#xb4;" horiz-adv-x="641" 
d="M295 573l147 177l100 -27l-157 -150h-90z" />
    <glyph glyph-name="uni00B5" unicode="&#xb5;" horiz-adv-x="575" 
d="M457 501h92l-89 -501h-93l29 135q-39 -75 -88.5 -109.5t-102.5 -34.5q-31 0 -53.5 8t-35.5 28l-36 -227h-94l124 701h96l-55 -297q-23 -123 68 -123q35 0 68 19.5t63.5 66.5t57 128.5t49.5 205.5z" />
    <glyph glyph-name="paragraph" unicode="&#xb6;" horiz-adv-x="667" 
d="M63 458q0 83 40 139.5t110.5 85t163.5 28.5h123l-125 -711h-100l50 277h-22q-110 0 -175 47t-65 134zM571 710h99l-125 -710h-99z" />
    <glyph glyph-name="periodcentered" unicode="&#xb7;" horiz-adv-x="215" 
d="M111 201q-30 0 -49 19.5t-19 47.5q0 29 19 48.5t49 19.5q32 0 50 -19.5t18 -48.5q0 -28 -18 -47.5t-50 -19.5z" />
    <glyph glyph-name="cedilla" unicode="&#xb8;" horiz-adv-x="618" 
d="M154 -223q-31 0 -57.5 6.5t-44.5 16.5l27 51q37 -18 80 -18q25 0 41 10t16 28q0 30 -47 30h-48l79 117h67l-43 -67q71 -13 71 -73q0 -46 -39 -73.5t-102 -27.5z" />
    <glyph glyph-name="uni00B9" unicode="&#xb9;" horiz-adv-x="330" 
d="M76 379h88l40 224l-70 -42l-30 57l153 92h43l-58 -331h83l-10 -60h-248z" />
    <glyph glyph-name="ordmasculine" unicode="&#xba;" horiz-adv-x="340" 
d="M208 462q-56 0 -88 30.5t-32 82.5q0 48 22 87.5t60.5 63.5t87.5 24q56 0 87.5 -31t31.5 -82q0 -48 -22 -87.5t-60.5 -63.5t-86.5 -24zM215 523q28 0 47.5 16.5t30.5 41.5t11 51q0 28 -14.5 42.5t-38.5 14.5q-27 0 -47 -15.5t-31.5 -40.5t-11.5 -53t14.5 -42.5t39.5 -14.5
z" />
    <glyph glyph-name="guillemotright" unicode="&#xbb;" horiz-adv-x="467" 
d="M152 436l93 -164l-7 -38l-150 -164h-108l173 189l-101 177h100zM346 436l93 -164l-7 -38l-150 -164h-108l173 189l-101 177h100z" />
    <glyph glyph-name="onequarter" unicode="&#xbc;" horiz-adv-x="805" 
d="M76 379h88l40 224l-70 -42l-30 57l153 92h43l-58 -331h83l-10 -60h-248zM187 0l350 710h81l-350 -710h-81zM761 98h-49l-18 -98h-67l17 98h-173l8 47l232 247h53l-43 -244h49zM545 148h108l25 141z" />
    <glyph glyph-name="onehalf" unicode="&#xbd;" horiz-adv-x="805" 
d="M76 379h88l40 224l-70 -42l-30 57l153 92h43l-58 -331h83l-10 -60h-248zM187 0l350 710h81l-350 -710h-81zM479 50q51 34 99.5 74.5t80.5 82.5t32 81q0 44 -46 44q-27 0 -48.5 -16.5t-35.5 -46.5l-52 28q18 44 58.5 71.5t91.5 27.5q49 0 79.5 -25t30.5 -72
q0 -61 -50 -120.5t-141 -118.5h161l-11 -60h-258z" />
    <glyph glyph-name="threequarters" unicode="&#xbe;" horiz-adv-x="805" 
d="M170 314q-30 0 -61 7.5t-47 19.5l23 62q38 -24 89 -24q38 0 61 17t23 49q0 46 -67 46h-29l6 54h25q36 0 57 17t21 46q0 20 -12.5 31.5t-32.5 11.5q-24 0 -45 -13.5t-34 -38.5l-50 32q19 38 57 61t85 23q51 0 81.5 -26t29.5 -67q0 -33 -20.5 -61.5t-52.5 -41.5
q58 -17 58 -76q0 -37 -21 -66t-58.5 -46t-85.5 -17zM187 0l350 710h81l-350 -710h-81zM761 98h-49l-18 -98h-67l17 98h-173l8 47l232 247h53l-43 -244h49zM545 148h108l25 141z" />
    <glyph glyph-name="questiondown" unicode="&#xbf;" horiz-adv-x="511" 
d="M328 384q-28 0 -46 18t-18 45t18 45t47 18q27 0 45.5 -17.5t18.5 -44.5q0 -28 -18.5 -46t-46.5 -18zM185 -211q-80 0 -130.5 38.5t-50.5 107.5q0 47 19 83.5t53.5 69t79.5 65.5q53 40 80.5 76t38.5 84l72 -4q-9 -69 -38 -118t-94 -97q-43 -33 -67 -56t-34 -43t-10 -44
q0 -36 26.5 -55t72.5 -19q118 0 180 127l72 -39q-36 -82 -109.5 -129t-160.5 -47z" />
    <glyph glyph-name="Agrave" unicode="&#xc0;" horiz-adv-x="680" 
d="M-42 0l425 710h86l161 -710h-99l-37 177h-325l-104 -177h-107zM219 263h257l-69 323zM390 782l-104 151l109 26l85 -177h-90z" />
    <glyph glyph-name="Aacute" unicode="&#xc1;" horiz-adv-x="680" 
d="M-42 0l425 710h86l161 -710h-99l-37 177h-325l-104 -177h-107zM219 263h257l-69 323zM386 782l147 177l100 -26l-157 -151h-90z" />
    <glyph glyph-name="Acircumflex" unicode="&#xc2;" horiz-adv-x="680" 
d="M-42 0l425 710h86l161 -710h-99l-37 177h-325l-104 -177h-107zM219 263h257l-69 323zM604 782h-87l-59 105l-97 -105h-96l158 167h83z" />
    <glyph glyph-name="Atilde" unicode="&#xc3;" horiz-adv-x="680" 
d="M-42 0l425 710h86l161 -710h-99l-37 177h-325l-104 -177h-107zM219 263h257l-69 323zM515 777q-26 0 -53.5 15t-53.5 30t-47 15q-19 0 -37.5 -14.5t-31.5 -41.5l-40 31q19 47 51 72.5t73 25.5q25 0 53 -15t54 -30t47 -15q43 0 70 56l38 -30q-18 -48 -50.5 -73.5
t-72.5 -25.5z" />
    <glyph glyph-name="Adieresis" unicode="&#xc4;" horiz-adv-x="680" 
d="M-42 0l425 710h86l161 -710h-99l-37 177h-325l-104 -177h-107zM219 263h257l-69 323zM535 777q-28 0 -43.5 17t-15.5 39t15.5 39t43.5 17q27 0 42.5 -17t15.5 -39t-15.5 -39t-42.5 -17zM353 777q-29 0 -44.5 17t-15.5 39t15.5 39t44.5 17q26 0 41.5 -17t15.5 -39
t-15.5 -39t-41.5 -17z" />
    <glyph glyph-name="Aring" unicode="&#xc5;" horiz-adv-x="680" 
d="M-42 0l425 710h86l161 -710h-99l-37 177h-325l-104 -177h-107zM219 263h257l-69 323zM451 777q-46 0 -77 30t-31 73q0 45 32.5 75.5t79.5 30.5q46 0 76.5 -29t30.5 -73q0 -45 -31.5 -76t-79.5 -31zM452 821q27 0 44 17.5t17 45.5q0 26 -17 42t-42 16q-28 0 -45 -17.5
t-17 -44.5q0 -26 17 -42.5t43 -16.5z" />
    <glyph glyph-name="AE" unicode="&#xc6;" horiz-adv-x="910" 
d="M-42 0l425 710h567l-16 -87h-323l-38 -220h310l-15 -87h-311l-40 -229h336l-24 -87h-428l32 177h-265l-103 -177h-107zM219 263h229l63 360h-83z" />
    <glyph glyph-name="Ccedilla" unicode="&#xc7;" horiz-adv-x="657" 
d="M638 137q-50 -71 -125 -108.5t-163 -37.5q-137 0 -213 72t-76 201q0 92 31 174t86.5 145.5t131 100t165.5 36.5q86 0 148.5 -34.5t89.5 -102.5l-85 -56q-40 101 -163 101q-67 0 -122 -29t-95 -79t-61.5 -114t-21.5 -135q0 -90 49 -138.5t144 -48.5q62 0 117.5 27t96.5 85
zM285 -223q-31 0 -57.5 6.5t-44.5 16.5l27 51q37 -18 80 -18q25 0 41 10t16 28q0 30 -47 30h-48l79 117h67l-43 -67q71 -13 71 -73q0 -46 -39 -73.5t-102 -27.5z" />
    <glyph glyph-name="Egrave" unicode="&#xc8;" horiz-adv-x="552" 
d="M149 87h346l-24 -87h-438l125 710h434l-16 -87h-333l-39 -220h321l-15 -87h-321zM343 782l-104 151l109 26l85 -177h-90z" />
    <glyph glyph-name="Eacute" unicode="&#xc9;" horiz-adv-x="552" 
d="M149 87h346l-24 -87h-438l125 710h434l-16 -87h-333l-39 -220h321l-15 -87h-321zM339 782l147 177l100 -26l-157 -151h-90z" />
    <glyph glyph-name="Ecircumflex" unicode="&#xca;" horiz-adv-x="552" 
d="M149 87h346l-24 -87h-438l125 710h434l-16 -87h-333l-39 -220h321l-15 -87h-321zM558 782h-87l-59 105l-97 -105h-96l158 167h83z" />
    <glyph glyph-name="Edieresis" unicode="&#xcb;" horiz-adv-x="552" 
d="M149 87h346l-24 -87h-438l125 710h434l-16 -87h-333l-39 -220h321l-15 -87h-321zM489 777q-28 0 -43.5 17t-15.5 39t15.5 39t43.5 17q27 0 42.5 -17t15.5 -39t-15.5 -39t-42.5 -17zM307 777q-29 0 -44.5 17t-15.5 39t15.5 39t44.5 17q26 0 41.5 -17t15.5 -39t-15.5 -39
t-41.5 -17z" />
    <glyph glyph-name="Igrave" unicode="&#xcc;" horiz-adv-x="257" 
d="M33 0l125 710h102l-125 -710h-102zM177 782l-104 151l109 26l85 -177h-90z" />
    <glyph glyph-name="Iacute" unicode="&#xcd;" horiz-adv-x="257" 
d="M33 0l125 710h102l-125 -710h-102zM173 782l147 177l100 -26l-157 -151h-90z" />
    <glyph glyph-name="Icircumflex" unicode="&#xce;" horiz-adv-x="257" 
d="M33 0l125 710h102l-125 -710h-102zM392 782h-87l-59 105l-97 -105h-96l158 167h83z" />
    <glyph glyph-name="Idieresis" unicode="&#xcf;" horiz-adv-x="257" 
d="M33 0l125 710h102l-125 -710h-102zM323 777q-28 0 -43.5 17t-15.5 39t15.5 39t43.5 17q27 0 42.5 -17t15.5 -39t-15.5 -39t-42.5 -17zM141 777q-29 0 -44.5 17t-15.5 39t15.5 39t44.5 17q26 0 41.5 -17t15.5 -39t-15.5 -39t-41.5 -17z" />
    <glyph glyph-name="Eth" unicode="&#xd0;" horiz-adv-x="739" 
d="M33 0l125 710h193q175 0 268.5 -71.5t93.5 -210.5q0 -129 -55.5 -225.5t-153.5 -149.5t-227 -53h-244zM151 90h133q102 0 175 40.5t111.5 115t38.5 175.5q0 100 -64 149.5t-197 49.5h-104zM21 324l13 72h370l-13 -72h-370z" />
    <glyph glyph-name="Ntilde" unicode="&#xd1;" horiz-adv-x="726" 
d="M632 710h98l-125 -710h-89l-289 549l-96 -549h-98l125 710h89l289 -549zM538 778q-26 0 -53.5 15t-53.5 30t-47 15q-19 0 -37.5 -14.5t-31.5 -41.5l-40 31q19 47 51 72.5t73 25.5q25 0 53 -15t54 -30t47 -15q43 0 70 56l38 -30q-18 -48 -50.5 -73.5t-72.5 -25.5z" />
    <glyph glyph-name="Ograve" unicode="&#xd2;" horiz-adv-x="773" 
d="M346 -9q-134 0 -209.5 72t-75.5 201q0 92 30.5 174t86 145.5t131 100t165.5 36.5q84 0 145.5 -34.5t94.5 -97t33 -147.5q0 -90 -29.5 -171t-83.5 -144t-127.5 -99t-160.5 -36zM353 84q66 0 119.5 28.5t92 78.5t59 113.5t20.5 132.5q0 90 -46.5 140.5t-131.5 50.5
q-68 0 -123 -29t-95 -79t-61.5 -114t-21.5 -135q0 -90 48 -138.5t140 -48.5zM434 782l-104 151l109 26l85 -177h-90z" />
    <glyph glyph-name="Oacute" unicode="&#xd3;" horiz-adv-x="773" 
d="M346 -9q-134 0 -209.5 72t-75.5 201q0 92 30.5 174t86 145.5t131 100t165.5 36.5q84 0 145.5 -34.5t94.5 -97t33 -147.5q0 -90 -29.5 -171t-83.5 -144t-127.5 -99t-160.5 -36zM353 84q66 0 119.5 28.5t92 78.5t59 113.5t20.5 132.5q0 90 -46.5 140.5t-131.5 50.5
q-68 0 -123 -29t-95 -79t-61.5 -114t-21.5 -135q0 -90 48 -138.5t140 -48.5zM430 782l147 177l100 -26l-157 -151h-90z" />
    <glyph glyph-name="Ocircumflex" unicode="&#xd4;" horiz-adv-x="773" 
d="M346 -9q-134 0 -209.5 72t-75.5 201q0 92 30.5 174t86 145.5t131 100t165.5 36.5q84 0 145.5 -34.5t94.5 -97t33 -147.5q0 -90 -29.5 -171t-83.5 -144t-127.5 -99t-160.5 -36zM353 84q66 0 119.5 28.5t92 78.5t59 113.5t20.5 132.5q0 90 -46.5 140.5t-131.5 50.5
q-68 0 -123 -29t-95 -79t-61.5 -114t-21.5 -135q0 -90 48 -138.5t140 -48.5zM649 782h-87l-59 105l-97 -105h-96l158 167h83z" />
    <glyph glyph-name="Otilde" unicode="&#xd5;" horiz-adv-x="773" 
d="M346 -9q-134 0 -209.5 72t-75.5 201q0 92 30.5 174t86 145.5t131 100t165.5 36.5q84 0 145.5 -34.5t94.5 -97t33 -147.5q0 -90 -29.5 -171t-83.5 -144t-127.5 -99t-160.5 -36zM353 84q66 0 119.5 28.5t92 78.5t59 113.5t20.5 132.5q0 90 -46.5 140.5t-131.5 50.5
q-68 0 -123 -29t-95 -79t-61.5 -114t-21.5 -135q0 -90 48 -138.5t140 -48.5zM560 777q-26 0 -53.5 15t-53.5 30t-47 15q-19 0 -37.5 -14.5t-31.5 -41.5l-40 31q19 47 51 72.5t73 25.5q25 0 53 -15t54 -30t47 -15q43 0 70 56l38 -30q-18 -48 -50.5 -73.5t-72.5 -25.5z" />
    <glyph glyph-name="Odieresis" unicode="&#xd6;" horiz-adv-x="773" 
d="M346 -9q-134 0 -209.5 72t-75.5 201q0 92 30.5 174t86 145.5t131 100t165.5 36.5q84 0 145.5 -34.5t94.5 -97t33 -147.5q0 -90 -29.5 -171t-83.5 -144t-127.5 -99t-160.5 -36zM353 84q66 0 119.5 28.5t92 78.5t59 113.5t20.5 132.5q0 90 -46.5 140.5t-131.5 50.5
q-68 0 -123 -29t-95 -79t-61.5 -114t-21.5 -135q0 -90 48 -138.5t140 -48.5zM580 777q-28 0 -43.5 17t-15.5 39t15.5 39t43.5 17q27 0 42.5 -17t15.5 -39t-15.5 -39t-42.5 -17zM398 777q-29 0 -44.5 17t-15.5 39t15.5 39t44.5 17q26 0 41.5 -17t15.5 -39t-15.5 -39
t-41.5 -17z" />
    <glyph glyph-name="multiply" unicode="&#xd7;" horiz-adv-x="600" 
d="M161 50l-62 62l139 138l-139 139l62 62l139 -139l139 139l62 -62l-139 -139l139 -138l-62 -62l-139 138z" />
    <glyph glyph-name="Oslash" unicode="&#xd8;" horiz-adv-x="773" 
d="M346 -9q-134 0 -209.5 72t-75.5 201q0 92 30.5 174t86 145.5t131 100t165.5 36.5q84 0 145.5 -34.5t94.5 -97t33 -147.5q0 -90 -29.5 -171t-83.5 -144t-127.5 -99t-160.5 -36zM353 84q66 0 119.5 28.5t92 78.5t59 113.5t20.5 132.5q0 90 -46.5 140.5t-131.5 50.5
q-68 0 -123 -29t-95 -79t-61.5 -114t-21.5 -135q0 -90 48 -138.5t140 -48.5zM121 6l-57 52l624 646l57 -52z" />
    <glyph glyph-name="Ugrave" unicode="&#xd9;" horiz-adv-x="732" 
d="M637 710h100l-64 -374q-30 -177 -112.5 -261t-226.5 -84q-146 0 -211 81t-39 230l72 408h103l-71 -401q-40 -225 152 -225q101 0 155 59.5t78 196.5zM415 782l-104 151l109 26l85 -177h-90z" />
    <glyph glyph-name="Uacute" unicode="&#xda;" horiz-adv-x="732" 
d="M637 710h100l-64 -374q-30 -177 -112.5 -261t-226.5 -84q-146 0 -211 81t-39 230l72 408h103l-71 -401q-40 -225 152 -225q101 0 155 59.5t78 196.5zM411 782l147 177l100 -26l-157 -151h-90z" />
    <glyph glyph-name="Ucircumflex" unicode="&#xdb;" horiz-adv-x="732" 
d="M637 710h100l-64 -374q-30 -177 -112.5 -261t-226.5 -84q-146 0 -211 81t-39 230l72 408h103l-71 -401q-40 -225 152 -225q101 0 155 59.5t78 196.5zM630 782h-87l-59 105l-97 -105h-96l158 167h83z" />
    <glyph glyph-name="Udieresis" unicode="&#xdc;" horiz-adv-x="732" 
d="M637 710h100l-64 -374q-30 -177 -112.5 -261t-226.5 -84q-146 0 -211 81t-39 230l72 408h103l-71 -401q-40 -225 152 -225q101 0 155 59.5t78 196.5zM561 777q-28 0 -43.5 17t-15.5 39t15.5 39t43.5 17q27 0 42.5 -17t15.5 -39t-15.5 -39t-42.5 -17zM379 777
q-29 0 -44.5 17t-15.5 39t15.5 39t44.5 17q26 0 41.5 -17t15.5 -39t-15.5 -39t-41.5 -17z" />
    <glyph glyph-name="Yacute" unicode="&#xdd;" horiz-adv-x="566" 
d="M668 710l-322 -391l-57 -319h-102l57 320l-187 390h109l143 -301l247 301h112zM330 782l147 177l100 -26l-157 -151h-90z" />
    <glyph glyph-name="Thorn" unicode="&#xde;" horiz-adv-x="615" 
d="M33 0l126 711l99 -1l-20 -113h133q114 0 179.5 -44.5t65.5 -134.5q0 -87 -41.5 -143.5t-115.5 -84t-171 -27.5h-127l-28 -163h-100zM357 514h-133l-48 -267h125q101 0 158 37t57 125q0 54 -41 79.5t-118 25.5z" />
    <glyph glyph-name="germandbls" unicode="&#xdf;" horiz-adv-x="661" 
d="M26 420l13 81h99q25 116 102.5 182.5t189.5 66.5q78 0 123 -32.5t45 -88.5q0 -44 -20 -75.5t-49.5 -55t-58.5 -44t-49 -41.5t-20 -48q0 -22 16.5 -36t42.5 -24.5t55.5 -21t55.5 -26t42.5 -39t16.5 -60.5q0 -50 -26.5 -87.5t-72.5 -58.5t-104 -21q-89 0 -139 39.5
t-49 107.5l90 20q-1 -89 100 -89q51 0 78.5 18.5t27.5 52.5q0 23 -16.5 37t-42 24.5t-54.5 20.5t-55 24.5t-42.5 37t-16.5 58.5q0 44 21 75.5t51.5 55t60.5 44.5t51 44.5t21 55.5q0 26 -23.5 41.5t-65.5 15.5q-78 0 -128 -48.5t-66 -138.5l-85 -487h-96l74 420h-97z" />
    <glyph glyph-name="agrave" unicode="&#xe0;" horiz-adv-x="588" 
d="M213 -9q-81 0 -127 48t-46 135q0 70 22.5 131t63.5 107t95.5 71.5t118.5 25.5q42 0 80 -13t61 -35l17 39h69q-10 -48 -19 -91.5t-17 -85.5l-27 -153q-8 -48 -13 -95.5t-5 -74.5h-94q0 29 3.5 59t10.5 59q-36 -65 -85 -96t-108 -31zM235 78q48 0 88.5 27.5t68.5 77.5
t40 117l15 86q-38 38 -106 38q-64 0 -109 -34t-69 -88.5t-24 -116.5q0 -52 25 -79.5t71 -27.5zM324 573l-104 150l109 27l85 -177h-90z" />
    <glyph glyph-name="aacute" unicode="&#xe1;" horiz-adv-x="588" 
d="M213 -9q-81 0 -127 48t-46 135q0 70 22.5 131t63.5 107t95.5 71.5t118.5 25.5q42 0 80 -13t61 -35l17 39h69q-10 -48 -19 -91.5t-17 -85.5l-27 -153q-8 -48 -13 -95.5t-5 -74.5h-94q0 29 3.5 59t10.5 59q-36 -65 -85 -96t-108 -31zM235 78q48 0 88.5 27.5t68.5 77.5
t40 117l15 86q-38 38 -106 38q-64 0 -109 -34t-69 -88.5t-24 -116.5q0 -52 25 -79.5t71 -27.5zM320 573l147 177l100 -27l-157 -150h-90z" />
    <glyph glyph-name="acircumflex" unicode="&#xe2;" horiz-adv-x="588" 
d="M213 -9q-81 0 -127 48t-46 135q0 70 22.5 131t63.5 107t95.5 71.5t118.5 25.5q42 0 80 -13t61 -35l17 39h69q-10 -48 -19 -91.5t-17 -85.5l-27 -153q-8 -48 -13 -95.5t-5 -74.5h-94q0 29 3.5 59t10.5 59q-36 -65 -85 -96t-108 -31zM235 78q48 0 88.5 27.5t68.5 77.5
t40 117l15 86q-38 38 -106 38q-64 0 -109 -34t-69 -88.5t-24 -116.5q0 -52 25 -79.5t71 -27.5zM539 573h-87l-59 105l-97 -105h-96l158 167h83z" />
    <glyph glyph-name="atilde" unicode="&#xe3;" horiz-adv-x="588" 
d="M213 -9q-81 0 -127 48t-46 135q0 70 22.5 131t63.5 107t95.5 71.5t118.5 25.5q42 0 80 -13t61 -35l17 39h69q-10 -48 -19 -91.5t-17 -85.5l-27 -153q-8 -48 -13 -95.5t-5 -74.5h-94q0 29 3.5 59t10.5 59q-36 -65 -85 -96t-108 -31zM235 78q48 0 88.5 27.5t68.5 77.5
t40 117l15 86q-38 38 -106 38q-64 0 -109 -34t-69 -88.5t-24 -116.5q0 -52 25 -79.5t71 -27.5zM450 568q-26 0 -53.5 15t-53.5 30t-47 15q-19 0 -37.5 -15t-31.5 -41l-40 31q19 47 51 72.5t73 25.5q25 0 53 -15t54 -30t47 -15q43 0 70 56l38 -31q-18 -47 -50.5 -72.5
t-72.5 -25.5z" />
    <glyph glyph-name="adieresis" unicode="&#xe4;" horiz-adv-x="588" 
d="M213 -9q-81 0 -127 48t-46 135q0 70 22.5 131t63.5 107t95.5 71.5t118.5 25.5q42 0 80 -13t61 -35l17 39h69q-10 -48 -19 -91.5t-17 -85.5l-27 -153q-8 -48 -13 -95.5t-5 -74.5h-94q0 29 3.5 59t10.5 59q-36 -65 -85 -96t-108 -31zM235 78q48 0 88.5 27.5t68.5 77.5
t40 117l15 86q-38 38 -106 38q-64 0 -109 -34t-69 -88.5t-24 -116.5q0 -52 25 -79.5t71 -27.5zM470 568q-28 0 -43.5 17t-15.5 39t15.5 38.5t43.5 16.5q27 0 42.5 -16.5t15.5 -38.5t-15.5 -39t-42.5 -17zM288 568q-29 0 -44.5 17t-15.5 39t15.5 38.5t44.5 16.5
q26 0 41.5 -16.5t15.5 -38.5t-15.5 -39t-41.5 -17z" />
    <glyph glyph-name="aring" unicode="&#xe5;" horiz-adv-x="588" 
d="M213 -9q-81 0 -127 48t-46 135q0 70 22.5 131t63.5 107t95.5 71.5t118.5 25.5q42 0 80 -13t61 -35l17 39h69q-10 -48 -19 -91.5t-17 -85.5l-27 -153q-8 -48 -13 -95.5t-5 -74.5h-94q0 29 3.5 59t10.5 59q-36 -65 -85 -96t-108 -31zM235 78q48 0 88.5 27.5t68.5 77.5
t40 117l15 86q-38 38 -106 38q-64 0 -109 -34t-69 -88.5t-24 -116.5q0 -52 25 -79.5t71 -27.5zM386 568q-46 0 -77 29.5t-31 73.5t32.5 75t79.5 31q46 0 76.5 -29t30.5 -73q0 -46 -31.5 -76.5t-79.5 -30.5zM387 612q27 0 44 17.5t17 45.5q0 26 -17 42t-42 16
q-28 0 -45 -17.5t-17 -44.5q0 -26 17 -42.5t43 -16.5z" />
    <glyph glyph-name="ae" unicode="&#xe6;" horiz-adv-x="860" 
d="M194 -9q-81 0 -127.5 36t-46.5 97q0 76 58 121t156 45h144l3 19q21 120 -89 120q-103 0 -140 -95l-84 16q28 75 91 117t148 42q58 0 98.5 -24t55.5 -70q36 44 87.5 69t111.5 25q82 0 126 -39.5t44 -99.5q0 -62 -40.5 -106.5t-126.5 -44.5h-199q-7 -69 30 -105.5
t105 -36.5q38 0 77.5 16t65.5 48l48 -59q-38 -47 -90 -69t-113 -22q-75 0 -121 31.5t-66 80.5q-33 -54 -88.5 -83t-117.5 -29zM649 435q-69 0 -113 -42t-59 -103h181q40 0 63 20.5t23 55.5q0 28 -22.5 48.5t-72.5 20.5zM206 68q61 0 103.5 39t54.5 105l1 6h-135
q-53 0 -83 -22t-30 -61q0 -32 23.5 -49.5t65.5 -17.5z" />
    <glyph glyph-name="ccedilla" unicode="&#xe7;" horiz-adv-x="490" 
d="M248 -9q-96 0 -151 52t-55 142q0 62 20 120t58 104t92 73t123 27q65 0 107.5 -24.5t67.5 -74.5l-77 -53q-27 66 -104 66q-59 0 -101.5 -32t-65.5 -84.5t-23 -111.5q0 -56 31 -87t92 -30q38 0 72.5 16.5t61.5 50.5l60 -56q-39 -49 -92 -73.5t-116 -24.5zM179 -223
q-31 0 -57.5 6.5t-44.5 16.5l27 51q37 -18 80 -18q25 0 41 10t16 28q0 30 -47 30h-48l79 117h67l-43 -67q71 -13 71 -73q0 -46 -39 -73.5t-102 -27.5z" />
    <glyph glyph-name="egrave" unicode="&#xe8;" horiz-adv-x="539" 
d="M264 -9q-99 0 -160 53.5t-61 151.5q0 85 36 156t101.5 114t154.5 43q84 0 129 -39.5t45 -99.5q0 -62 -42.5 -106t-140.5 -49l-187 -10q-2 -62 34.5 -95t103.5 -33q38 0 77.5 16t66.5 48l48 -59q-38 -47 -90 -69t-115 -22zM327 435q-49 0 -85.5 -21t-60 -56.5t-32.5 -78.5
l170 10q58 2 81 23.5t23 53.5q0 30 -23 49.5t-73 19.5zM301 573l-104 150l109 27l85 -177h-90z" />
    <glyph glyph-name="eacute" unicode="&#xe9;" horiz-adv-x="539" 
d="M264 -9q-99 0 -160 53.5t-61 151.5q0 85 36 156t101.5 114t154.5 43q84 0 129 -39.5t45 -99.5q0 -62 -42.5 -106t-140.5 -49l-187 -10q-2 -62 34.5 -95t103.5 -33q38 0 77.5 16t66.5 48l48 -59q-38 -47 -90 -69t-115 -22zM327 435q-49 0 -85.5 -21t-60 -56.5t-32.5 -78.5
l170 10q58 2 81 23.5t23 53.5q0 30 -23 49.5t-73 19.5zM297 573l147 177l100 -27l-157 -150h-90z" />
    <glyph glyph-name="ecircumflex" unicode="&#xea;" horiz-adv-x="539" 
d="M264 -9q-99 0 -160 53.5t-61 151.5q0 85 36 156t101.5 114t154.5 43q84 0 129 -39.5t45 -99.5q0 -62 -42.5 -106t-140.5 -49l-187 -10q-2 -62 34.5 -95t103.5 -33q38 0 77.5 16t66.5 48l48 -59q-38 -47 -90 -69t-115 -22zM327 435q-49 0 -85.5 -21t-60 -56.5t-32.5 -78.5
l170 10q58 2 81 23.5t23 53.5q0 30 -23 49.5t-73 19.5zM515 573h-87l-59 105l-97 -105h-96l158 167h83z" />
    <glyph glyph-name="edieresis" unicode="&#xeb;" horiz-adv-x="539" 
d="M264 -9q-99 0 -160 53.5t-61 151.5q0 85 36 156t101.5 114t154.5 43q84 0 129 -39.5t45 -99.5q0 -62 -42.5 -106t-140.5 -49l-187 -10q-2 -62 34.5 -95t103.5 -33q38 0 77.5 16t66.5 48l48 -59q-38 -47 -90 -69t-115 -22zM327 435q-49 0 -85.5 -21t-60 -56.5t-32.5 -78.5
l170 10q58 2 81 23.5t23 53.5q0 30 -23 49.5t-73 19.5zM446 568q-28 0 -43.5 17t-15.5 39t15.5 38.5t43.5 16.5q27 0 42.5 -16.5t15.5 -38.5t-15.5 -39t-42.5 -17zM264 568q-29 0 -44.5 17t-15.5 39t15.5 38.5t44.5 16.5q26 0 41.5 -16.5t15.5 -38.5t-15.5 -39t-41.5 -17z
" />
    <glyph glyph-name="igrave" unicode="&#xec;" horiz-adv-x="236" 
d="M35 0q0 31 4 63t9 63l36 202q8 47 14 89t9 84h97q-3 -43 -11 -91.5t-14 -83.5l-35 -193q-6 -34 -9 -67t-3 -66h-97zM124 573l-104 150l109 27l85 -177h-90z" />
    <glyph glyph-name="iacute" unicode="&#xed;" horiz-adv-x="236" 
d="M35 0q0 31 4 63t9 63l36 202q8 47 14 89t9 84h97q-3 -43 -11 -91.5t-14 -83.5l-35 -193q-6 -34 -9 -67t-3 -66h-97zM120 573l147 177l100 -27l-157 -150h-90z" />
    <glyph glyph-name="icircumflex" unicode="&#xee;" horiz-adv-x="236" 
d="M35 0q0 31 4 63t9 63l36 202q8 47 14 89t9 84h97q-3 -43 -11 -91.5t-14 -83.5l-35 -193q-6 -34 -9 -67t-3 -66h-97zM338 573h-87l-59 105l-97 -105h-96l158 167h83z" />
    <glyph glyph-name="idieresis" unicode="&#xef;" horiz-adv-x="236" 
d="M35 0q0 31 4 63t9 63l36 202q8 47 14 89t9 84h97q-3 -43 -11 -91.5t-14 -83.5l-35 -193q-6 -34 -9 -67t-3 -66h-97zM269 568q-28 0 -43.5 17t-15.5 39t15.5 38.5t43.5 16.5q27 0 42.5 -16.5t15.5 -38.5t-15.5 -39t-42.5 -17zM87 568q-29 0 -44.5 17t-15.5 39t15.5 38.5
t44.5 16.5q26 0 41.5 -16.5t15.5 -38.5t-15.5 -39t-41.5 -17z" />
    <glyph glyph-name="eth" unicode="&#xf0;" horiz-adv-x="569" 
d="M240 -9q-94 0 -147.5 52t-53.5 139q0 58 21 110t58.5 92t87.5 63t108 23q47 0 81.5 -18t53.5 -52q-2 105 -58 176l-182 -58l-18 57l151 48q-46 35 -110 58l43 72q103 -36 166 -98l123 40l18 -57l-99 -32q59 -87 59 -212q0 -81 -20 -154t-59 -129t-95 -88t-128 -32z
M252 77q52 0 91 28t61 74t22 99q0 51 -28.5 80.5t-82.5 29.5q-53 0 -92.5 -27.5t-61.5 -72.5t-22 -97t28 -83t85 -31z" />
    <glyph glyph-name="ntilde" unicode="&#xf1;" horiz-adv-x="585" 
d="M26 0l58 328q8 47 14 89t9 84h94q-3 -35 -9.5 -76.5t-18.5 -84.5q39 82 97 125.5t129 43.5q79 0 116.5 -53t14.5 -159l-35 -163q-7 -34 -10 -67.5t-3 -66.5h-97q0 64 13 126l35 163q15 69 -3 100t-65 31q-49 0 -94.5 -38t-83.5 -130t-66 -252h-95zM431 568
q-26 0 -53.5 15t-53.5 30t-47 15q-19 0 -37.5 -15t-31.5 -41l-40 31q19 47 51 72.5t73 25.5q25 0 53 -15t54 -30t47 -15q43 0 70 56l38 -31q-18 -47 -50.5 -72.5t-72.5 -25.5z" />
    <glyph glyph-name="ograve" unicode="&#xf2;" horiz-adv-x="575" 
d="M337 509q89 0 142.5 -50.5t53.5 -143.5q0 -69 -22 -127.5t-62 -102.5t-93 -69t-115 -25q-91 0 -145.5 51t-54.5 143q0 60 20 118t57.5 104.5t92.5 74t126 27.5zM251 77q57 0 98 33t63.5 85.5t22.5 111.5q0 57 -29 87t-81 30q-59 0 -100.5 -33.5t-63.5 -85.5t-22 -110
q0 -57 29.5 -87.5t82.5 -30.5zM300 573l-104 150l109 27l85 -177h-90z" />
    <glyph glyph-name="oacute" unicode="&#xf3;" horiz-adv-x="575" 
d="M337 509q89 0 142.5 -50.5t53.5 -143.5q0 -69 -22 -127.5t-62 -102.5t-93 -69t-115 -25q-91 0 -145.5 51t-54.5 143q0 60 20 118t57.5 104.5t92.5 74t126 27.5zM251 77q57 0 98 33t63.5 85.5t22.5 111.5q0 57 -29 87t-81 30q-59 0 -100.5 -33.5t-63.5 -85.5t-22 -110
q0 -57 29.5 -87.5t82.5 -30.5zM296 573l147 177l100 -27l-157 -150h-90z" />
    <glyph glyph-name="ocircumflex" unicode="&#xf4;" horiz-adv-x="575" 
d="M337 509q89 0 142.5 -50.5t53.5 -143.5q0 -69 -22 -127.5t-62 -102.5t-93 -69t-115 -25q-91 0 -145.5 51t-54.5 143q0 60 20 118t57.5 104.5t92.5 74t126 27.5zM251 77q57 0 98 33t63.5 85.5t22.5 111.5q0 57 -29 87t-81 30q-59 0 -100.5 -33.5t-63.5 -85.5t-22 -110
q0 -57 29.5 -87.5t82.5 -30.5zM514 573h-87l-59 105l-97 -105h-96l158 167h83z" />
    <glyph glyph-name="otilde" unicode="&#xf5;" horiz-adv-x="575" 
d="M337 509q89 0 142.5 -50.5t53.5 -143.5q0 -69 -22 -127.5t-62 -102.5t-93 -69t-115 -25q-91 0 -145.5 51t-54.5 143q0 60 20 118t57.5 104.5t92.5 74t126 27.5zM251 77q57 0 98 33t63.5 85.5t22.5 111.5q0 57 -29 87t-81 30q-59 0 -100.5 -33.5t-63.5 -85.5t-22 -110
q0 -57 29.5 -87.5t82.5 -30.5zM425 568q-26 0 -53.5 15t-53.5 30t-47 15q-19 0 -37.5 -15t-31.5 -41l-40 31q19 47 51 72.5t73 25.5q25 0 53 -15t54 -30t47 -15q43 0 70 56l38 -31q-18 -47 -50.5 -72.5t-72.5 -25.5z" />
    <glyph glyph-name="odieresis" unicode="&#xf6;" horiz-adv-x="575" 
d="M337 509q89 0 142.5 -50.5t53.5 -143.5q0 -69 -22 -127.5t-62 -102.5t-93 -69t-115 -25q-91 0 -145.5 51t-54.5 143q0 60 20 118t57.5 104.5t92.5 74t126 27.5zM251 77q57 0 98 33t63.5 85.5t22.5 111.5q0 57 -29 87t-81 30q-59 0 -100.5 -33.5t-63.5 -85.5t-22 -110
q0 -57 29.5 -87.5t82.5 -30.5zM445 568q-28 0 -43.5 17t-15.5 39t15.5 38.5t43.5 16.5q27 0 42.5 -16.5t15.5 -38.5t-15.5 -39t-42.5 -17zM263 568q-29 0 -44.5 17t-15.5 39t15.5 38.5t44.5 16.5q26 0 41.5 -16.5t15.5 -38.5t-15.5 -39t-41.5 -17z" />
    <glyph glyph-name="divide" unicode="&#xf7;" horiz-adv-x="600" 
d="M337 408q-24 0 -39 15t-15 36q0 22 15 37t39 15t38.5 -15t14.5 -37q0 -21 -14.5 -36t-38.5 -15zM554 291l-14 -80h-494l14 80h494zM263 -9q-23 0 -38 15t-15 37q0 21 15 36t38 15q24 0 39 -15t15 -36q0 -22 -15 -37t-39 -15z" />
    <glyph glyph-name="oslash" unicode="&#xf8;" horiz-adv-x="575" 
d="M337 509q89 0 142.5 -50.5t53.5 -143.5q0 -69 -22 -127.5t-62 -102.5t-93 -69t-115 -25q-91 0 -145.5 51t-54.5 143q0 60 20 118t57.5 104.5t92.5 74t126 27.5zM251 77q57 0 98 33t63.5 85.5t22.5 111.5q0 57 -29 87t-81 30q-59 0 -100.5 -33.5t-63.5 -85.5t-22 -110
q0 -57 29.5 -87.5t82.5 -30.5zM89 -7l-52 48l57 59l47 43l257 264l32 41l57 59l52 -47l-57 -59l-48 -43l-256 -264l-32 -42z" />
    <glyph glyph-name="ugrave" unicode="&#xf9;" horiz-adv-x="575" 
d="M182 -9q-76 0 -111 53t-16 160l23 124q18 93 24 173h96q-3 -43 -10 -91.5t-14 -83.5l-23 -120q-25 -125 70 -125q45 0 88 38t81 130t66 252h93l-59 -331q-8 -48 -13 -95.5t-5 -74.5h-94q0 63 22 154q-39 -79 -94.5 -121t-123.5 -42zM299 573l-104 150l109 27l85 -177h-90
z" />
    <glyph glyph-name="uacute" unicode="&#xfa;" horiz-adv-x="575" 
d="M182 -9q-76 0 -111 53t-16 160l23 124q18 93 24 173h96q-3 -43 -10 -91.5t-14 -83.5l-23 -120q-25 -125 70 -125q45 0 88 38t81 130t66 252h93l-59 -331q-8 -48 -13 -95.5t-5 -74.5h-94q0 63 22 154q-39 -79 -94.5 -121t-123.5 -42zM295 573l147 177l100 -27l-157 -150
h-90z" />
    <glyph glyph-name="ucircumflex" unicode="&#xfb;" horiz-adv-x="575" 
d="M182 -9q-76 0 -111 53t-16 160l23 124q18 93 24 173h96q-3 -43 -10 -91.5t-14 -83.5l-23 -120q-25 -125 70 -125q45 0 88 38t81 130t66 252h93l-59 -331q-8 -48 -13 -95.5t-5 -74.5h-94q0 63 22 154q-39 -79 -94.5 -121t-123.5 -42zM514 573h-87l-59 105l-97 -105h-96
l158 167h83z" />
    <glyph glyph-name="udieresis" unicode="&#xfc;" horiz-adv-x="575" 
d="M182 -9q-76 0 -111 53t-16 160l23 124q18 93 24 173h96q-3 -43 -10 -91.5t-14 -83.5l-23 -120q-25 -125 70 -125q45 0 88 38t81 130t66 252h93l-59 -331q-8 -48 -13 -95.5t-5 -74.5h-94q0 63 22 154q-39 -79 -94.5 -121t-123.5 -42zM445 568q-28 0 -43.5 17t-15.5 39
t15.5 38.5t43.5 16.5q27 0 42.5 -16.5t15.5 -38.5t-15.5 -39t-42.5 -17zM263 568q-29 0 -44.5 17t-15.5 39t15.5 38.5t44.5 16.5q26 0 41.5 -16.5t15.5 -38.5t-15.5 -39t-41.5 -17z" />
    <glyph glyph-name="yacute" unicode="&#xfd;" horiz-adv-x="580" 
d="M170 -210q-43 0 -88.5 9t-75.5 28l29 84q64 -35 143 -35q93 0 140 44.5t67 142.5l19 88q-44 -77 -98.5 -112t-113.5 -35q-79 0 -116 54t-20 151l22 119q9 45 15 88t9 85h96q-3 -43 -10 -91.5t-14 -83.5l-21 -108q-11 -59 5 -92t64 -33q49 0 93.5 38t81 127t64.5 243h92
l-75 -425q-26 -154 -101.5 -220t-206.5 -66zM297 573l147 177l100 -27l-157 -150h-90z" />
    <glyph glyph-name="thorn" unicode="&#xfe;" horiz-adv-x="588" 
d="M85 -200h-95l166 940h95l-42 -239l-23 -112q35 62 83 91t106 29q81 0 127 -47.5t46 -134.5q0 -70 -22.5 -131t-63.5 -107t-95.5 -72t-118.5 -26q-35 0 -68 9.5t-56 25.5l-4 -26zM353 423q-48 0 -88.5 -28t-68.5 -78t-40 -116l-15 -87q38 -38 106 -38q63 0 108.5 34.5
t69.5 89t24 116.5q0 52 -25 79.5t-71 27.5z" />
    <glyph glyph-name="ydieresis" unicode="&#xff;" horiz-adv-x="580" 
d="M170 -210q-43 0 -88.5 9t-75.5 28l29 84q64 -35 143 -35q93 0 140 44.5t67 142.5l19 88q-44 -77 -98.5 -112t-113.5 -35q-79 0 -116 54t-20 151l22 119q9 45 15 88t9 85h96q-3 -43 -10 -91.5t-14 -83.5l-21 -108q-11 -59 5 -92t64 -33q49 0 93.5 38t81 127t64.5 243h92
l-75 -425q-26 -154 -101.5 -220t-206.5 -66zM447 568q-28 0 -43.5 17t-15.5 39t15.5 38.5t43.5 16.5q27 0 42.5 -16.5t15.5 -38.5t-15.5 -39t-42.5 -17zM265 568q-29 0 -44.5 17t-15.5 39t15.5 38.5t44.5 16.5q26 0 41.5 -16.5t15.5 -38.5t-15.5 -39t-41.5 -17z" />
    <glyph glyph-name="Amacron" unicode="&#x100;" horiz-adv-x="680" 
d="M-42 0l425 710h86l161 -710h-99l-37 177h-325l-104 -177h-107zM219 263h257l-69 323zM294 875h315l-12 -67h-315z" />
    <glyph glyph-name="amacron" unicode="&#x101;" horiz-adv-x="588" 
d="M213 -9q-81 0 -127 48t-46 135q0 70 22.5 131t63.5 107t95.5 71.5t118.5 25.5q42 0 80 -13t61 -35l17 39h69q-10 -48 -19 -91.5t-17 -85.5l-27 -153q-8 -48 -13 -95.5t-5 -74.5h-94q0 29 3.5 59t10.5 59q-36 -65 -85 -96t-108 -31zM235 78q48 0 88.5 27.5t68.5 77.5
t40 117l15 86q-38 38 -106 38q-64 0 -109 -34t-69 -88.5t-24 -116.5q0 -52 25 -79.5t71 -27.5zM228 666h315l-12 -67h-315z" />
    <glyph glyph-name="Abreve" unicode="&#x102;" horiz-adv-x="680" 
d="M-42 0l425 710h86l161 -710h-99l-37 177h-325l-104 -177h-107zM219 263h257l-69 323zM566 960l64 -11q-15 -79 -66.5 -125.5t-119.5 -46.5q-73 0 -111 46.5t-34 125.5l67 11q-6 -115 83 -115q84 0 117 115z" />
    <glyph glyph-name="abreve" unicode="&#x103;" horiz-adv-x="588" 
d="M213 -9q-81 0 -127 48t-46 135q0 70 22.5 131t63.5 107t95.5 71.5t118.5 25.5q42 0 80 -13t61 -35l17 39h69q-10 -48 -19 -91.5t-17 -85.5l-27 -153q-8 -48 -13 -95.5t-5 -74.5h-94q0 29 3.5 59t10.5 59q-36 -65 -85 -96t-108 -31zM235 78q48 0 88.5 27.5t68.5 77.5
t40 117l15 86q-38 38 -106 38q-64 0 -109 -34t-69 -88.5t-24 -116.5q0 -52 25 -79.5t71 -27.5zM501 751l64 -11q-15 -79 -66.5 -125.5t-119.5 -46.5q-73 0 -111 46.5t-34 125.5l67 11q-6 -115 83 -115q84 0 117 115z" />
    <glyph glyph-name="Aogonek" unicode="&#x104;" horiz-adv-x="680" 
d="M-42 0l425 710h86l161 -710h-99l-37 177h-325l-104 -177h-107zM219 263h257l-69 323zM531 -223q-51 0 -79.5 24t-28.5 63q0 34 21 65t56 56t80 40l50 -25q-56 -24 -89.5 -56t-33.5 -67q0 -38 43 -38q32 0 67 36l27 -48q-20 -23 -50.5 -36.5t-62.5 -13.5z" />
    <glyph glyph-name="aogonek" unicode="&#x105;" horiz-adv-x="588" 
d="M213 -9q-81 0 -127 48t-46 135q0 70 22.5 131t63.5 107t95.5 71.5t118.5 25.5q42 0 80 -13t61 -35l17 39h69q-10 -48 -19 -91.5t-17 -85.5l-27 -153q-8 -48 -13 -95.5t-5 -74.5h-94q0 29 3.5 59t10.5 59q-36 -65 -85 -96t-108 -31zM235 78q48 0 88.5 27.5t68.5 77.5
t40 117l15 86q-38 38 -106 38q-64 0 -109 -34t-69 -88.5t-24 -116.5q0 -52 25 -79.5t71 -27.5zM387 -223q-51 0 -79.5 24t-28.5 63q0 34 21 65t56 56t80 40l50 -25q-56 -24 -89.5 -56t-33.5 -67q0 -38 43 -38q32 0 67 36l27 -48q-20 -23 -50.5 -36.5t-62.5 -13.5z" />
    <glyph glyph-name="Cacute" unicode="&#x106;" horiz-adv-x="657" 
d="M638 137q-50 -71 -125 -108.5t-163 -37.5q-137 0 -213 72t-76 201q0 92 31 174t86.5 145.5t131 100t165.5 36.5q86 0 148.5 -34.5t89.5 -102.5l-85 -56q-40 101 -163 101q-67 0 -122 -29t-95 -79t-61.5 -114t-21.5 -135q0 -90 49 -138.5t144 -48.5q62 0 117.5 27t96.5 85
zM430 782l147 177l100 -26l-157 -151h-90z" />
    <glyph glyph-name="cacute" unicode="&#x107;" horiz-adv-x="490" 
d="M248 -9q-96 0 -151 52t-55 142q0 62 20 120t58 104t92 73t123 27q65 0 107.5 -24.5t67.5 -74.5l-77 -53q-27 66 -104 66q-59 0 -101.5 -32t-65.5 -84.5t-23 -111.5q0 -56 31 -87t92 -30q38 0 72.5 16.5t61.5 50.5l60 -56q-39 -49 -92 -73.5t-116 -24.5zM292 573l147 177
l100 -27l-157 -150h-90z" />
    <glyph glyph-name="Ccircumflex" unicode="&#x108;" horiz-adv-x="657" 
d="M638 137q-50 -71 -125 -108.5t-163 -37.5q-137 0 -213 72t-76 201q0 92 31 174t86.5 145.5t131 100t165.5 36.5q86 0 148.5 -34.5t89.5 -102.5l-85 -56q-40 101 -163 101q-67 0 -122 -29t-95 -79t-61.5 -114t-21.5 -135q0 -90 49 -138.5t144 -48.5q62 0 117.5 27t96.5 85
zM649 782h-87l-59 105l-97 -105h-96l158 167h83z" />
    <glyph glyph-name="ccircumflex" unicode="&#x109;" horiz-adv-x="490" 
d="M248 -9q-96 0 -151 52t-55 142q0 62 20 120t58 104t92 73t123 27q65 0 107.5 -24.5t67.5 -74.5l-77 -53q-27 66 -104 66q-59 0 -101.5 -32t-65.5 -84.5t-23 -111.5q0 -56 31 -87t92 -30q38 0 72.5 16.5t61.5 50.5l60 -56q-39 -49 -92 -73.5t-116 -24.5zM510 573h-87
l-59 105l-97 -105h-96l158 167h83z" />
    <glyph glyph-name="Cdotaccent" unicode="&#x10a;" horiz-adv-x="657" 
d="M638 137q-50 -71 -125 -108.5t-163 -37.5q-137 0 -213 72t-76 201q0 92 31 174t86.5 145.5t131 100t165.5 36.5q86 0 148.5 -34.5t89.5 -102.5l-85 -56q-40 101 -163 101q-67 0 -122 -29t-95 -79t-61.5 -114t-21.5 -135q0 -90 49 -138.5t144 -48.5q62 0 117.5 27t96.5 85
zM491 789q-29 0 -45.5 18t-16.5 44q0 25 17 43.5t46 18.5q30 0 46.5 -18.5t16.5 -43.5q0 -26 -17 -44t-47 -18z" />
    <glyph glyph-name="cdotaccent" unicode="&#x10b;" horiz-adv-x="490" 
d="M248 -9q-96 0 -151 52t-55 142q0 62 20 120t58 104t92 73t123 27q65 0 107.5 -24.5t67.5 -74.5l-77 -53q-27 66 -104 66q-59 0 -101.5 -32t-65.5 -84.5t-23 -111.5q0 -56 31 -87t92 -30q38 0 72.5 16.5t61.5 50.5l60 -56q-39 -49 -92 -73.5t-116 -24.5zM352 580
q-29 0 -45.5 18t-16.5 43q0 26 17 44t46 18q30 0 46.5 -18t16.5 -44q0 -25 -17 -43t-47 -18z" />
    <glyph glyph-name="Ccaron" unicode="&#x10c;" horiz-adv-x="657" 
d="M638 137q-50 -71 -125 -108.5t-163 -37.5q-137 0 -213 72t-76 201q0 92 31 174t86.5 145.5t131 100t165.5 36.5q86 0 148.5 -34.5t89.5 -102.5l-85 -56q-40 101 -163 101q-67 0 -122 -29t-95 -79t-61.5 -114t-21.5 -135q0 -90 49 -138.5t144 -48.5q62 0 117.5 27t96.5 85
zM438 782l-98 167l82 10l65 -115l106 115l86 -10l-158 -167h-83z" />
    <glyph glyph-name="ccaron" unicode="&#x10d;" horiz-adv-x="490" 
d="M248 -9q-96 0 -151 52t-55 142q0 62 20 120t58 104t92 73t123 27q65 0 107.5 -24.5t67.5 -74.5l-77 -53q-27 66 -104 66q-59 0 -101.5 -32t-65.5 -84.5t-23 -111.5q0 -56 31 -87t92 -30q38 0 72.5 16.5t61.5 50.5l60 -56q-39 -49 -92 -73.5t-116 -24.5zM299 573l-98 167
l82 10l65 -115l106 115l86 -10l-158 -167h-83z" />
    <glyph glyph-name="Dcaron" unicode="&#x10e;" horiz-adv-x="739" 
d="M33 0l125 710h193q175 0 268.5 -71.5t93.5 -210.5q0 -129 -55.5 -225.5t-153.5 -149.5t-227 -53h-244zM151 90h133q102 0 175 40.5t111.5 115t38.5 175.5q0 100 -64 149.5t-197 49.5h-104zM420 782l-98 167l82 10l65 -115l106 115l86 -10l-158 -167h-83z" />
    <glyph glyph-name="dcaron" unicode="&#x10f;" horiz-adv-x="588" 
d="M213 -9q-81 0 -127 48t-46 135q0 70 22.5 131t63.5 107t95.5 71.5t118.5 25.5q35 0 67.5 -9t55.5 -25l4 26l43 239h95l-101 -570q-8 -48 -13 -95.5t-5 -74.5h-94q0 29 3.5 59t10.5 59q-36 -65 -85 -96t-108 -31zM235 78q48 0 88.5 27.5t68.5 77.5t40 117l15 86
q-38 38 -106 38q-64 0 -109 -34t-69 -88.5t-24 -116.5q0 -52 25 -79.5t71 -27.5zM618 550l40 230h83l-63 -230h-60z" />
    <glyph glyph-name="Dcroat" unicode="&#x110;" horiz-adv-x="739" 
d="M33 0l125 710h193q175 0 268.5 -71.5t93.5 -210.5q0 -129 -55.5 -225.5t-153.5 -149.5t-227 -53h-244zM151 90h133q102 0 175 40.5t111.5 115t38.5 175.5q0 100 -64 149.5t-197 49.5h-104zM21 324l13 72h370l-13 -72h-370z" />
    <glyph glyph-name="dcroat" unicode="&#x111;" horiz-adv-x="588" 
d="M213 -9q-81 0 -127 48t-46 135q0 70 22.5 131t63.5 107t95.5 71.5t118.5 25.5q35 0 67.5 -9t55.5 -25l4 26l43 239h95l-101 -570q-8 -48 -13 -95.5t-5 -74.5h-94q0 29 3.5 59t10.5 59q-36 -65 -85 -96t-108 -31zM235 78q48 0 88.5 27.5t68.5 77.5t40 117l15 86
q-38 38 -106 38q-64 0 -109 -34t-69 -88.5t-24 -116.5q0 -52 25 -79.5t71 -27.5zM297 591l12 68h361l-12 -68h-361z" />
    <glyph glyph-name="Emacron" unicode="&#x112;" horiz-adv-x="552" 
d="M149 87h346l-24 -87h-438l125 710h434l-16 -87h-333l-39 -220h321l-15 -87h-321zM247 875h315l-12 -67h-315z" />
    <glyph glyph-name="emacron" unicode="&#x113;" horiz-adv-x="539" 
d="M264 -9q-99 0 -160 53.5t-61 151.5q0 85 36 156t101.5 114t154.5 43q84 0 129 -39.5t45 -99.5q0 -62 -42.5 -106t-140.5 -49l-187 -10q-2 -62 34.5 -95t103.5 -33q38 0 77.5 16t66.5 48l48 -59q-38 -47 -90 -69t-115 -22zM327 435q-49 0 -85.5 -21t-60 -56.5t-32.5 -78.5
l170 10q58 2 81 23.5t23 53.5q0 30 -23 49.5t-73 19.5zM205 666h315l-12 -67h-315z" />
    <glyph glyph-name="Ebreve" unicode="&#x114;" horiz-adv-x="552" 
d="M149 87h346l-24 -87h-438l125 710h434l-16 -87h-333l-39 -220h321l-15 -87h-321zM520 960l64 -11q-15 -79 -66.5 -125.5t-119.5 -46.5q-73 0 -111 46.5t-34 125.5l67 11q-6 -115 83 -115q84 0 117 115z" />
    <glyph glyph-name="ebreve" unicode="&#x115;" horiz-adv-x="539" 
d="M264 -9q-99 0 -160 53.5t-61 151.5q0 85 36 156t101.5 114t154.5 43q84 0 129 -39.5t45 -99.5q0 -62 -42.5 -106t-140.5 -49l-187 -10q-2 -62 34.5 -95t103.5 -33q38 0 77.5 16t66.5 48l48 -59q-38 -47 -90 -69t-115 -22zM327 435q-49 0 -85.5 -21t-60 -56.5t-32.5 -78.5
l170 10q58 2 81 23.5t23 53.5q0 30 -23 49.5t-73 19.5zM477 751l64 -11q-15 -79 -66.5 -125.5t-119.5 -46.5q-73 0 -111 46.5t-34 125.5l67 11q-6 -115 83 -115q84 0 117 115z" />
    <glyph glyph-name="Edotaccent" unicode="&#x116;" horiz-adv-x="552" 
d="M149 87h346l-24 -87h-438l125 710h434l-16 -87h-333l-39 -220h321l-15 -87h-321zM400 789q-29 0 -45.5 18t-16.5 44q0 25 17 43.5t46 18.5q30 0 46.5 -18.5t16.5 -43.5q0 -26 -17 -44t-47 -18z" />
    <glyph glyph-name="edotaccent" unicode="&#x117;" horiz-adv-x="539" 
d="M264 -9q-99 0 -160 53.5t-61 151.5q0 85 36 156t101.5 114t154.5 43q84 0 129 -39.5t45 -99.5q0 -62 -42.5 -106t-140.5 -49l-187 -10q-2 -62 34.5 -95t103.5 -33q38 0 77.5 16t66.5 48l48 -59q-38 -47 -90 -69t-115 -22zM327 435q-49 0 -85.5 -21t-60 -56.5t-32.5 -78.5
l170 10q58 2 81 23.5t23 53.5q0 30 -23 49.5t-73 19.5zM357 580q-29 0 -45.5 18t-16.5 43q0 26 17 44t46 18q30 0 46.5 -18t16.5 -44q0 -25 -17 -43t-47 -18z" />
    <glyph glyph-name="Eogonek" unicode="&#x118;" horiz-adv-x="552" 
d="M149 87h346l-24 -87h-438l125 710h434l-16 -87h-333l-39 -220h321l-15 -87h-321zM372 -223q-51 0 -79.5 24t-28.5 63q0 34 21 65t56 56t80 40l50 -25q-56 -24 -89.5 -56t-33.5 -67q0 -38 43 -38q32 0 67 36l27 -48q-20 -23 -50.5 -36.5t-62.5 -13.5z" />
    <glyph glyph-name="eogonek" unicode="&#x119;" horiz-adv-x="539" 
d="M383 -173q-20 -23 -50.5 -36.5t-62.5 -13.5q-50 0 -78.5 24t-28.5 63q0 36 24 69.5t64 58.5q-94 3 -151 56t-57 148q0 85 36 156t101.5 114t154.5 43q84 0 129 -39.5t45 -99.5q0 -62 -42.5 -106t-140.5 -49l-187 -10q-2 -62 34.5 -95t103.5 -33q38 0 77.5 16t66.5 48
l48 -59q-16 -22 -37.5 -38.5t-45.5 -29.5q-70 -37 -105 -69.5t-35 -67.5q0 -38 44 -38q31 0 66 36zM319 289q58 2 81 23.5t23 53.5q0 30 -23 49.5t-73 19.5q-49 0 -85.5 -21t-60 -56.5t-32.5 -78.5z" />
    <glyph glyph-name="Ecaron" unicode="&#x11a;" horiz-adv-x="552" 
d="M149 87h346l-24 -87h-438l125 710h434l-16 -87h-333l-39 -220h321l-15 -87h-321zM347 782l-98 167l82 10l65 -115l106 115l86 -10l-158 -167h-83z" />
    <glyph glyph-name="ecaron" unicode="&#x11b;" horiz-adv-x="539" 
d="M264 -9q-99 0 -160 53.5t-61 151.5q0 85 36 156t101.5 114t154.5 43q84 0 129 -39.5t45 -99.5q0 -62 -42.5 -106t-140.5 -49l-187 -10q-2 -62 34.5 -95t103.5 -33q38 0 77.5 16t66.5 48l48 -59q-38 -47 -90 -69t-115 -22zM327 435q-49 0 -85.5 -21t-60 -56.5t-32.5 -78.5
l170 10q58 2 81 23.5t23 53.5q0 30 -23 49.5t-73 19.5zM304 573l-98 167l82 10l65 -115l106 115l86 -10l-158 -167h-83z" />
    <glyph glyph-name="Gcircumflex" unicode="&#x11c;" horiz-adv-x="739" 
d="M435 356h263l-63 -356h-79l4 73q-42 -41 -91.5 -61.5t-118.5 -20.5q-137 0 -213 72t-76 201q0 92 31 174t87.5 145.5t134 100t171.5 36.5q86 0 152 -34t95 -103l-87 -58q-20 50 -64.5 76.5t-106.5 26.5q-70 0 -127 -29t-98 -79t-62.5 -114t-21.5 -135q0 -90 49 -138.5
t144 -48.5q89 0 150 44t75 124l3 21h-166zM649 782h-87l-59 105l-97 -105h-96l158 167h83z" />
    <glyph glyph-name="gcircumflex" unicode="&#x11d;" horiz-adv-x="592" 
d="M183 -210q-48 0 -94.5 9t-75.5 28l32 84q64 -35 146 -35q88 0 136 43.5t69 143.5l12 62q-36 -63 -84 -92t-107 -29q-80 0 -128 45.5t-48 130.5q0 69 23 129t64 105t96 70t119 25q43 0 81.5 -13t61.5 -34l17 38h69q-11 -48 -20 -91.5t-16 -85.5l-43 -246
q-26 -149 -100.5 -218t-209.5 -69zM237 89q48 0 89.5 27t70 75t40.5 113l14 84q-38 36 -107 36q-64 0 -109.5 -33t-70 -86t-24.5 -112q0 -51 25 -77.5t72 -26.5zM540 573h-87l-59 105l-97 -105h-96l158 167h83z" />
    <glyph glyph-name="Gbreve" unicode="&#x11e;" horiz-adv-x="739" 
d="M435 356h263l-63 -356h-79l4 73q-42 -41 -91.5 -61.5t-118.5 -20.5q-137 0 -213 72t-76 201q0 92 31 174t87.5 145.5t134 100t171.5 36.5q86 0 152 -34t95 -103l-87 -58q-20 50 -64.5 76.5t-106.5 26.5q-70 0 -127 -29t-98 -79t-62.5 -114t-21.5 -135q0 -90 49 -138.5
t144 -48.5q89 0 150 44t75 124l3 21h-166zM611 960l64 -11q-15 -79 -66.5 -125.5t-119.5 -46.5q-73 0 -111 46.5t-34 125.5l67 11q-6 -115 83 -115q84 0 117 115z" />
    <glyph glyph-name="gbreve" unicode="&#x11f;" horiz-adv-x="592" 
d="M183 -210q-48 0 -94.5 9t-75.5 28l32 84q64 -35 146 -35q88 0 136 43.5t69 143.5l12 62q-36 -63 -84 -92t-107 -29q-80 0 -128 45.5t-48 130.5q0 69 23 129t64 105t96 70t119 25q43 0 81.5 -13t61.5 -34l17 38h69q-11 -48 -20 -91.5t-16 -85.5l-43 -246
q-26 -149 -100.5 -218t-209.5 -69zM237 89q48 0 89.5 27t70 75t40.5 113l14 84q-38 36 -107 36q-64 0 -109.5 -33t-70 -86t-24.5 -112q0 -51 25 -77.5t72 -26.5zM502 751l64 -11q-15 -79 -66.5 -125.5t-119.5 -46.5q-73 0 -111 46.5t-34 125.5l67 11q-6 -115 83 -115
q84 0 117 115z" />
    <glyph glyph-name="Gdotaccent" unicode="&#x120;" horiz-adv-x="739" 
d="M435 356h263l-63 -356h-79l4 73q-42 -41 -91.5 -61.5t-118.5 -20.5q-137 0 -213 72t-76 201q0 92 31 174t87.5 145.5t134 100t171.5 36.5q86 0 152 -34t95 -103l-87 -58q-20 50 -64.5 76.5t-106.5 26.5q-70 0 -127 -29t-98 -79t-62.5 -114t-21.5 -135q0 -90 49 -138.5
t144 -48.5q89 0 150 44t75 124l3 21h-166zM491 789q-29 0 -45.5 18t-16.5 44q0 25 17 43.5t46 18.5q30 0 46.5 -18.5t16.5 -43.5q0 -26 -17 -44t-47 -18z" />
    <glyph glyph-name="gdotaccent" unicode="&#x121;" horiz-adv-x="592" 
d="M183 -210q-48 0 -94.5 9t-75.5 28l32 84q64 -35 146 -35q88 0 136 43.5t69 143.5l12 62q-36 -63 -84 -92t-107 -29q-80 0 -128 45.5t-48 130.5q0 69 23 129t64 105t96 70t119 25q43 0 81.5 -13t61.5 -34l17 38h69q-11 -48 -20 -91.5t-16 -85.5l-43 -246
q-26 -149 -100.5 -218t-209.5 -69zM237 89q48 0 89.5 27t70 75t40.5 113l14 84q-38 36 -107 36q-64 0 -109.5 -33t-70 -86t-24.5 -112q0 -51 25 -77.5t72 -26.5zM382 580q-29 0 -45.5 18t-16.5 43q0 26 17 44t46 18q30 0 46.5 -18t16.5 -44q0 -25 -17 -43t-47 -18z" />
    <glyph glyph-name="uni0122" unicode="&#x122;" horiz-adv-x="739" 
d="M435 356h263l-63 -356h-79l4 73q-42 -41 -91.5 -61.5t-118.5 -20.5q-137 0 -213 72t-76 201q0 92 31 174t87.5 145.5t134 100t171.5 36.5q86 0 152 -34t95 -103l-87 -58q-20 50 -64.5 76.5t-106.5 26.5q-70 0 -127 -29t-98 -79t-62.5 -114t-21.5 -135q0 -90 49 -138.5
t144 -48.5q89 0 150 44t75 124l3 21h-166zM238 -262q16 21 25 42.5t9 36.5t-3 26.5t-3 22.5q0 24 15.5 39.5t41.5 15.5q24 0 37.5 -13t13.5 -34q0 -19 -11.5 -43.5t-31.5 -49t-45 -43.5h-48z" />
    <glyph glyph-name="uni0123" unicode="&#x123;" horiz-adv-x="592" 
d="M183 -210q-48 0 -94.5 9t-75.5 28l32 84q64 -35 146 -35q88 0 136 43.5t69 143.5l12 62q-36 -63 -84 -92t-107 -29q-80 0 -128 45.5t-48 130.5q0 69 23 129t64 105t96 70t119 25q43 0 81.5 -13t61.5 -34l17 38h69q-11 -48 -20 -91.5t-16 -85.5l-43 -246
q-26 -149 -100.5 -218t-209.5 -69zM237 89q48 0 89.5 27t70 75t40.5 113l14 84q-38 36 -107 36q-64 0 -109.5 -33t-70 -86t-24.5 -112q0 -51 25 -77.5t72 -26.5zM462 751q-16 -22 -25 -43.5t-9 -35.5q0 -15 3 -26.5t3 -23.5q0 -24 -15.5 -39t-41.5 -15q-24 0 -37.5 12.5
t-13.5 34.5q0 18 11.5 43t31 49.5t44.5 43.5h49z" />
    <glyph glyph-name="Hcircumflex" unicode="&#x124;" horiz-adv-x="729" 
d="M33 0l125 710h102l-54 -306h370l54 306h102l-125 -710h-102l56 315h-370l-56 -315h-102zM627 782h-87l-59 105l-97 -105h-96l158 167h83z" />
    <glyph glyph-name="hcircumflex" unicode="&#x125;" horiz-adv-x="585" 
d="M26 0l130 740h96l-43 -239l-35 -159q40 81 97 124t128 43q79 0 116.5 -53t14.5 -159l-35 -163q-7 -34 -10 -67.5t-3 -66.5h-97q0 64 13 126l35 163q15 69 -3 100t-65 31q-49 0 -94.5 -38t-83.5 -130t-66 -252h-95zM558 782h-87l-59 105l-97 -105h-96l158 167h83z" />
    <glyph glyph-name="Hbar" unicode="&#x126;" horiz-adv-x="729" 
d="M33 0l125 710h102l-54 -306h370l54 306h102l-125 -710h-102l56 315h-370l-56 -315h-102zM58 534l12 72h713l-12 -72h-713z" />
    <glyph glyph-name="hbar" unicode="&#x127;" horiz-adv-x="585" 
d="M26 0l130 740h96l-43 -239l-35 -159q40 81 97 124t128 43q79 0 116.5 -53t14.5 -159l-35 -163q-7 -34 -10 -67.5t-3 -66.5h-97q0 64 13 126l35 163q15 69 -3 100t-65 31q-49 0 -94.5 -38t-83.5 -130t-66 -252h-95zM50 591l12 68h361l-12 -68h-361z" />
    <glyph glyph-name="Itilde" unicode="&#x128;" horiz-adv-x="257" 
d="M33 0l125 710h102l-125 -710h-102zM303 777q-26 0 -53.5 15t-53.5 30t-47 15q-19 0 -37.5 -14.5t-31.5 -41.5l-40 31q19 47 51 72.5t73 25.5q25 0 53 -15t54 -30t47 -15q43 0 70 56l38 -30q-18 -48 -50.5 -73.5t-72.5 -25.5z" />
    <glyph glyph-name="itilde" unicode="&#x129;" horiz-adv-x="236" 
d="M35 0q0 31 4 63t9 63l36 202q8 47 14 89t9 84h97q-3 -43 -11 -91.5t-14 -83.5l-35 -193q-6 -34 -9 -67t-3 -66h-97zM249 568q-26 0 -53.5 15t-53.5 30t-47 15q-19 0 -37.5 -15t-31.5 -41l-40 31q19 47 51 72.5t73 25.5q25 0 53 -15t54 -30t47 -15q43 0 70 56l38 -31
q-18 -47 -50.5 -72.5t-72.5 -25.5z" />
    <glyph glyph-name="Imacron" unicode="&#x12a;" horiz-adv-x="257" 
d="M33 0l125 710h102l-125 -710h-102zM81 875h315l-12 -67h-315z" />
    <glyph glyph-name="imacron" unicode="&#x12b;" horiz-adv-x="236" 
d="M35 0q0 31 4 63t9 63l36 202q8 47 14 89t9 84h97q-3 -43 -11 -91.5t-14 -83.5l-35 -193q-6 -34 -9 -67t-3 -66h-97zM28 666h315l-12 -67h-315z" />
    <glyph glyph-name="Ibreve" unicode="&#x12c;" horiz-adv-x="257" 
d="M33 0l125 710h102l-125 -710h-102zM354 960l64 -11q-15 -79 -66.5 -125.5t-119.5 -46.5q-73 0 -111 46.5t-34 125.5l67 11q-6 -115 83 -115q84 0 117 115z" />
    <glyph glyph-name="ibreve" unicode="&#x12d;" horiz-adv-x="236" 
d="M35 0q0 31 4 63t9 63l36 202q8 47 14 89t9 84h97q-3 -43 -11 -91.5t-14 -83.5l-35 -193q-6 -34 -9 -67t-3 -66h-97zM300 751l64 -11q-15 -79 -66.5 -125.5t-119.5 -46.5q-73 0 -111 46.5t-34 125.5l67 11q-6 -115 83 -115q84 0 117 115z" />
    <glyph glyph-name="Iogonek" unicode="&#x12e;" horiz-adv-x="257" 
d="M33 0l125 710h102l-125 -710h-102zM60 -223q-46 0 -72 24t-26 61q0 51 38.5 95.5t93.5 67.5l41 -25q-36 -22 -62.5 -55.5t-26.5 -69.5t34 -36q26 0 56 36l26 -48q-18 -23 -45.5 -36.5t-56.5 -13.5z" />
    <glyph glyph-name="iogonek" unicode="&#x12f;" horiz-adv-x="236" 
d="M35 0q0 31 4 63t9 63l36 202q8 47 14 89t9 84h97q-3 -43 -11 -91.5t-14 -83.5l-35 -193q-6 -34 -9 -67t-3 -66h-97zM185 598q-29 0 -46 18.5t-17 43.5t17 43.5t46 18.5t46 -18.5t17 -43.5t-17 -43.5t-46 -18.5zM57 -223q-46 0 -72 24t-26 61q0 51 38.5 95.5t93.5 67.5
l41 -25q-36 -22 -62.5 -55.5t-26.5 -69.5t34 -36q26 0 56 36l26 -48q-18 -23 -45.5 -36.5t-56.5 -13.5z" />
    <glyph glyph-name="Idotaccent" unicode="&#x130;" horiz-adv-x="257" 
d="M33 0l125 710h102l-125 -710h-102zM234 789q-29 0 -45.5 18t-16.5 44q0 25 17 43.5t46 18.5q30 0 46.5 -18.5t16.5 -43.5q0 -26 -17 -44t-47 -18z" />
    <glyph glyph-name="dotlessi" unicode="&#x131;" horiz-adv-x="236" 
d="M35 0q0 31 4 63t9 63l36 202q8 47 14 89t9 84h97q-3 -43 -11 -91.5t-14 -83.5l-35 -193q-6 -34 -9 -67t-3 -66h-97z" />
    <glyph glyph-name="Jcircumflex" unicode="&#x134;" horiz-adv-x="463" 
d="M143 -9q-76 0 -125 38t-59 104l90 37q8 -46 34 -67.5t73 -21.5q50 0 80 31t42 97l88 501h102l-87 -494q-20 -110 -77 -167.5t-161 -57.5zM599 782h-87l-59 105l-97 -105h-96l158 167h83z" />
    <glyph glyph-name="jcircumflex" unicode="&#x135;" horiz-adv-x="250" 
d="M97 328q8 47 14 89t9 84h97q-3 -43 -11 -91.5t-14 -83.5l-57 -321q-17 -99 -71.5 -155.5t-159.5 -56.5q-31 0 -58.5 4.5t-45.5 14.5l31 80q36 -16 78 -16q58 0 89.5 34.5t42.5 96.5zM351 573h-87l-59 105l-97 -105h-96l158 167h83z" />
    <glyph glyph-name="uni0136" unicode="&#x136;" horiz-adv-x="593" 
d="M33 0l125 710h102l-57 -322l368 322h127l-407 -355q35 -20 57 -65l70 -145q18 -38 36.5 -50.5t47.5 -12.5q36 0 62 16l12 -76q-20 -16 -46 -22.5t-54 -6.5q-49 0 -83 21.5t-58 71.5l-89 178q-8 18 -21.5 29t-34.5 16l-55 -309h-102zM160 -262q16 21 25 42.5t9 36.5
t-3 26.5t-3 22.5q0 24 15.5 39.5t41.5 15.5q24 0 37.5 -13t13.5 -34q0 -19 -11.5 -43.5t-31.5 -49t-45 -43.5h-48z" />
    <glyph glyph-name="uni0137" unicode="&#x137;" horiz-adv-x="491" 
d="M26 0l131 740h95l-78 -446l240 206h123l-284 -242q20 -14 33 -39l43 -86q17 -34 36.5 -46.5t44.5 -12.5q29 0 54 13l15 -71q-21 -13 -43.5 -18t-47.5 -5q-49 0 -82 20.5t-58 69.5l-43 85q-21 41 -44 56l-39 -224h-96zM134 -262q16 21 25 42.5t9 36.5t-3 26.5t-3 22.5
q0 24 15.5 39.5t41.5 15.5q24 0 37.5 -13t13.5 -34q0 -19 -11.5 -43.5t-31.5 -49t-45 -43.5h-48z" />
    <glyph glyph-name="kgreenlandic" unicode="&#x138;" horiz-adv-x="491" 
d="M26 0l88 501h96l-36 -205l239 204h122l-283 -242q19 -14 32 -39l43 -86q17 -34 37 -46.5t45 -12.5q28 0 54 13l14 -71q-21 -13 -43.5 -18t-46.5 -5q-50 0 -83 20.5t-57 69.5l-44 85q-20 40 -42 55l-40 -223h-95z" />
    <glyph glyph-name="Lacute" unicode="&#x139;" horiz-adv-x="498" 
d="M33 0l125 710h102l-109 -622h325l-24 -88h-419zM173 782l147 177l100 -26l-157 -151h-90z" />
    <glyph glyph-name="lacute" unicode="&#x13a;" horiz-adv-x="278" 
d="M158 -9q-61 0 -90.5 37.5t-18.5 98.5l108 613h95l-106 -603q-11 -61 44 -61q14 0 28 4t23 9l11 -71q-16 -13 -42 -20t-52 -7zM163 782l147 177l100 -26l-157 -151h-90z" />
    <glyph glyph-name="uni013B" unicode="&#x13b;" horiz-adv-x="498" 
d="M33 0l125 710h102l-109 -622h325l-24 -88h-419zM139 -262q16 21 25 42.5t9 36.5t-3 26.5t-3 22.5q0 24 15.5 39.5t41.5 15.5q24 0 37.5 -13t13.5 -34q0 -19 -11.5 -43.5t-31.5 -49t-45 -43.5h-48z" />
    <glyph glyph-name="uni013C" unicode="&#x13c;" horiz-adv-x="278" 
d="M158 -9q-61 0 -90.5 37.5t-18.5 98.5l108 613h95l-106 -603q-11 -61 44 -61q14 0 28 4t23 9l11 -71q-16 -13 -42 -20t-52 -7zM-20 -262q16 21 25 42.5t9 36.5t-3 26.5t-3 22.5q0 24 15.5 39.5t41.5 15.5q24 0 37.5 -13t13.5 -34q0 -19 -11.5 -43.5t-31.5 -49t-45 -43.5
h-48z" />
    <glyph glyph-name="Lcaron" unicode="&#x13d;" horiz-adv-x="498" 
d="M33 0l125 710h102l-109 -622h325l-24 -88h-419zM328 520l40 230h83l-63 -230h-60z" />
    <glyph glyph-name="lcaron" unicode="&#x13e;" horiz-adv-x="278" 
d="M158 -9q-61 0 -90.5 37.5t-18.5 98.5l108 613h95l-106 -603q-11 -61 44 -61q14 0 28 4t23 9l11 -71q-16 -13 -42 -20t-52 -7zM266 550l40 230h83l-63 -230h-60z" />
    <glyph glyph-name="Ldot" unicode="&#x13f;" horiz-adv-x="498" 
d="M33 0l125 710h102l-109 -622h325l-24 -88h-419zM423 348q-31 0 -49 18t-18 43q0 26 18 44t49 18t48.5 -18t17.5 -44q0 -25 -17.5 -43t-48.5 -18z" />
    <glyph glyph-name="ldot" unicode="&#x140;" horiz-adv-x="323" 
d="M158 -9q-61 0 -90.5 37.5t-18.5 98.5l108 613h95l-106 -603q-11 -61 44 -61q14 0 28 4t23 9l11 -71q-16 -13 -42 -20t-52 -7zM313 355q-31 0 -49 18t-18 43q0 26 18 44t49 18t48.5 -18t17.5 -44q0 -25 -17.5 -43t-48.5 -18z" />
    <glyph glyph-name="Lslash" unicode="&#x141;" horiz-adv-x="498" 
d="M33 0l125 710h102l-109 -622h325l-24 -88h-419zM32 267l-30 66l379 175l31 -66z" />
    <glyph glyph-name="lslash" unicode="&#x142;" horiz-adv-x="278" 
d="M158 -9q-61 0 -90.5 37.5t-18.5 98.5l108 613h95l-106 -603q-11 -61 44 -61q14 0 28 4t23 9l11 -71q-16 -13 -42 -20t-52 -7zM33 284l-30 55l244 137l31 -54z" />
    <glyph glyph-name="Nacute" unicode="&#x143;" horiz-adv-x="726" 
d="M632 710h98l-125 -710h-89l-289 549l-96 -549h-98l125 710h89l289 -549zM409 783l147 177l100 -26l-157 -151h-90z" />
    <glyph glyph-name="nacute" unicode="&#x144;" horiz-adv-x="585" 
d="M26 0l58 328q8 47 14 89t9 84h94q-3 -35 -9.5 -76.5t-18.5 -84.5q39 82 97 125.5t129 43.5q79 0 116.5 -53t14.5 -159l-35 -163q-7 -34 -10 -67.5t-3 -66.5h-97q0 64 13 126l35 163q15 69 -3 100t-65 31q-49 0 -94.5 -38t-83.5 -130t-66 -252h-95zM302 573l147 177
l100 -27l-157 -150h-90z" />
    <glyph glyph-name="uni0145" unicode="&#x145;" horiz-adv-x="726" 
d="M632 710h98l-125 -710h-89l-289 549l-96 -549h-98l125 710h89l289 -549zM216 -262q16 21 25 42.5t9 36.5t-3 26.5t-3 22.5q0 24 15.5 39.5t41.5 15.5q24 0 37.5 -13t13.5 -34q0 -19 -11.5 -43.5t-31.5 -49t-45 -43.5h-48z" />
    <glyph glyph-name="uni0146" unicode="&#x146;" horiz-adv-x="585" 
d="M26 0l58 328q8 47 14 89t9 84h94q-3 -35 -9.5 -76.5t-18.5 -84.5q39 82 97 125.5t129 43.5q79 0 116.5 -53t14.5 -159l-35 -163q-7 -34 -10 -67.5t-3 -66.5h-97q0 64 13 126l35 163q15 69 -3 100t-65 31q-49 0 -94.5 -38t-83.5 -130t-66 -252h-95zM147 -262
q16 21 25 42.5t9 36.5t-3 26.5t-3 22.5q0 24 15.5 39.5t41.5 15.5q24 0 37.5 -13t13.5 -34q0 -19 -11.5 -43.5t-31.5 -49t-45 -43.5h-48z" />
    <glyph glyph-name="Ncaron" unicode="&#x147;" horiz-adv-x="726" 
d="M632 710h98l-125 -710h-89l-289 549l-96 -549h-98l125 710h89l289 -549zM416 783l-98 167l82 10l65 -115l106 115l86 -10l-158 -167h-83z" />
    <glyph glyph-name="ncaron" unicode="&#x148;" horiz-adv-x="585" 
d="M26 0l58 328q8 47 14 89t9 84h94q-3 -35 -9.5 -76.5t-18.5 -84.5q39 82 97 125.5t129 43.5q79 0 116.5 -53t14.5 -159l-35 -163q-7 -34 -10 -67.5t-3 -66.5h-97q0 64 13 126l35 163q15 69 -3 100t-65 31q-49 0 -94.5 -38t-83.5 -130t-66 -252h-95zM309 573l-98 167l82 10
l65 -115l106 115l86 -10l-158 -167h-83z" />
    <glyph glyph-name="napostrophe" unicode="&#x149;" horiz-adv-x="684" 
d="M35 461q18 32 29 61t11 55q0 18 -3 33t-3 34q0 30 18.5 52t52.5 22q25 0 40.5 -14t15.5 -39q0 -28 -16.5 -65t-42.5 -74.5t-55 -64.5h-47zM124 0l58 328q8 47 14 89t9 84h94q-3 -35 -9.5 -76.5t-18.5 -84.5q39 82 97 125.5t129 43.5q79 0 116.5 -53t14.5 -159l-35 -163
q-7 -34 -10 -67.5t-3 -66.5h-97q0 64 13 126l35 163q15 69 -3 100t-65 31q-49 0 -94.5 -38t-83.5 -130t-66 -252h-95z" />
    <glyph glyph-name="Eng" unicode="&#x14a;" horiz-adv-x="726" 
d="M388 -209q-69 0 -114.5 38t-51.5 104l90 37q-1 -46 22 -68t63 -22q44 0 72.5 28t36.5 74l5 29l-284 537l-96 -548h-98l125 710h89l289 -549l96 549h98l-127 -714q-37 -205 -215 -205z" />
    <glyph glyph-name="eng" unicode="&#x14b;" horiz-adv-x="585" 
d="M476 5q-18 -99 -70.5 -155.5t-155.5 -56.5q-31 0 -58 5t-44 14l31 79q35 -16 75 -16q56 0 86 35t42 97l51 282q13 69 -4 100t-64 31q-49 0 -94.5 -38t-83.5 -130t-66 -252h-95l58 328q8 47 14 89t9 84h94q-2 -35 -9 -76.5t-19 -84.5q39 82 97 125.5t129 43.5
q79 0 115 -53t16 -159z" />
    <glyph glyph-name="Omacron" unicode="&#x14c;" horiz-adv-x="773" 
d="M346 -9q-134 0 -209.5 72t-75.5 201q0 92 30.5 174t86 145.5t131 100t165.5 36.5q84 0 145.5 -34.5t94.5 -97t33 -147.5q0 -90 -29.5 -171t-83.5 -144t-127.5 -99t-160.5 -36zM353 84q66 0 119.5 28.5t92 78.5t59 113.5t20.5 132.5q0 90 -46.5 140.5t-131.5 50.5
q-68 0 -123 -29t-95 -79t-61.5 -114t-21.5 -135q0 -90 48 -138.5t140 -48.5zM338 875h315l-12 -67h-315z" />
    <glyph glyph-name="omacron" unicode="&#x14d;" horiz-adv-x="575" 
d="M337 509q89 0 142.5 -50.5t53.5 -143.5q0 -69 -22 -127.5t-62 -102.5t-93 -69t-115 -25q-91 0 -145.5 51t-54.5 143q0 60 20 118t57.5 104.5t92.5 74t126 27.5zM251 77q57 0 98 33t63.5 85.5t22.5 111.5q0 57 -29 87t-81 30q-59 0 -100.5 -33.5t-63.5 -85.5t-22 -110
q0 -57 29.5 -87.5t82.5 -30.5zM204 666h315l-12 -67h-315z" />
    <glyph glyph-name="Obreve" unicode="&#x14e;" horiz-adv-x="773" 
d="M346 -9q-134 0 -209.5 72t-75.5 201q0 92 30.5 174t86 145.5t131 100t165.5 36.5q84 0 145.5 -34.5t94.5 -97t33 -147.5q0 -90 -29.5 -171t-83.5 -144t-127.5 -99t-160.5 -36zM353 84q66 0 119.5 28.5t92 78.5t59 113.5t20.5 132.5q0 90 -46.5 140.5t-131.5 50.5
q-68 0 -123 -29t-95 -79t-61.5 -114t-21.5 -135q0 -90 48 -138.5t140 -48.5zM611 960l64 -11q-15 -79 -66.5 -125.5t-119.5 -46.5q-73 0 -111 46.5t-34 125.5l67 11q-6 -115 83 -115q84 0 117 115z" />
    <glyph glyph-name="obreve" unicode="&#x14f;" horiz-adv-x="575" 
d="M337 509q89 0 142.5 -50.5t53.5 -143.5q0 -69 -22 -127.5t-62 -102.5t-93 -69t-115 -25q-91 0 -145.5 51t-54.5 143q0 60 20 118t57.5 104.5t92.5 74t126 27.5zM251 77q57 0 98 33t63.5 85.5t22.5 111.5q0 57 -29 87t-81 30q-59 0 -100.5 -33.5t-63.5 -85.5t-22 -110
q0 -57 29.5 -87.5t82.5 -30.5zM476 751l64 -11q-15 -79 -66.5 -125.5t-119.5 -46.5q-73 0 -111 46.5t-34 125.5l67 11q-6 -115 83 -115q84 0 117 115z" />
    <glyph glyph-name="Ohungarumlaut" unicode="&#x150;" horiz-adv-x="773" 
d="M346 -9q-134 0 -209.5 72t-75.5 201q0 92 30.5 174t86 145.5t131 100t165.5 36.5q84 0 145.5 -34.5t94.5 -97t33 -147.5q0 -90 -29.5 -171t-83.5 -144t-127.5 -99t-160.5 -36zM353 84q66 0 119.5 28.5t92 78.5t59 113.5t20.5 132.5q0 90 -46.5 140.5t-131.5 50.5
q-68 0 -123 -29t-95 -79t-61.5 -114t-21.5 -135q0 -90 48 -138.5t140 -48.5zM593 782h-77l98 177l89 -26zM443 782h-77l98 177l89 -26z" />
    <glyph glyph-name="ohungarumlaut" unicode="&#x151;" horiz-adv-x="575" 
d="M337 509q89 0 142.5 -50.5t53.5 -143.5q0 -69 -22 -127.5t-62 -102.5t-93 -69t-115 -25q-91 0 -145.5 51t-54.5 143q0 60 20 118t57.5 104.5t92.5 74t126 27.5zM251 77q57 0 98 33t63.5 85.5t22.5 111.5q0 57 -29 87t-81 30q-59 0 -100.5 -33.5t-63.5 -85.5t-22 -110
q0 -57 29.5 -87.5t82.5 -30.5zM458 573h-77l98 177l89 -27zM308 573h-77l98 177l89 -27z" />
    <glyph glyph-name="OE" unicode="&#x152;" horiz-adv-x="997" 
d="M397 -5q-102 0 -176.5 33.5t-115.5 97t-41 156.5q0 92 29 171t87 138t144 91.5t200 32.5q43 0 87 -2.5t76 -2.5h350l-16 -87h-323l-38 -220h309l-15 -87h-310l-40 -229h336l-24 -87h-366q-39 0 -76.5 -2.5t-76.5 -2.5zM406 83q24 0 48.5 1t49.5 3l94 536q-18 2 -37.5 3.5
t-47.5 1.5q-112 0 -189 -42.5t-117 -119t-40 -177.5q0 -100 61.5 -152.5t177.5 -53.5z" />
    <glyph glyph-name="oe" unicode="&#x153;" horiz-adv-x="917" 
d="M336 509q62 0 105.5 -26.5t63.5 -77.5q36 48 89.5 76t122.5 28q81 0 125.5 -39.5t44.5 -99.5q0 -62 -42.5 -106t-139.5 -49l-185 -10q-2 -62 34.5 -95t102.5 -33q37 0 76.5 16t65.5 48l48 -59q-38 -47 -90 -69t-113 -22q-68 0 -117 28.5t-71 83.5q-38 -52 -93 -82
t-122 -30q-91 0 -145.5 51t-54.5 143q0 60 20 118t57.5 104.5t92.5 74t125 27.5zM706 435q-48 0 -84 -21t-59 -56.5t-32 -78.5l168 10q57 2 79.5 23.5t22.5 53.5q0 30 -23 49.5t-72 19.5zM251 77q57 0 98 33t63.5 85.5t22.5 111.5q0 57 -29 87t-81 30q-59 0 -100.5 -33.5
t-63.5 -85.5t-22 -110q0 -57 29.5 -87.5t82.5 -30.5z" />
    <glyph glyph-name="Racute" unicode="&#x154;" horiz-adv-x="603" 
d="M581 98l13 -78q-19 -13 -44.5 -20t-53.5 -7q-96 0 -142 93l-88 178q-11 22 -27.5 33.5t-35.5 11.5h-16l-54 -309h-100l125 710h198q118 0 178 -43.5t60 -125.5q0 -70 -33.5 -120.5t-91.5 -78.5t-132 -31q24 -14 44 -54l56 -112q19 -38 38.5 -50.5t45.5 -12.5q33 0 60 16z
M341 627h-98l-42 -238h98q90 0 141.5 31.5t51.5 107.5q0 99 -151 99zM364 782l147 177l100 -26l-157 -151h-90z" />
    <glyph glyph-name="racute" unicode="&#x155;" horiz-adv-x="391" 
d="M399 409q-18 6 -44 6q-57 0 -100 -42.5t-75.5 -134t-58.5 -238.5h-95l58 328q8 47 14 89t9 84h94q-3 -32 -10 -73.5t-16 -82.5q42 89 96 126.5t108 37.5q16 0 28.5 -1.5t21.5 -5.5zM235 573l147 177l100 -27l-157 -150h-90z" />
    <glyph glyph-name="uni0156" unicode="&#x156;" horiz-adv-x="603" 
d="M581 98l13 -78q-19 -13 -44.5 -20t-53.5 -7q-96 0 -142 93l-88 178q-11 22 -27.5 33.5t-35.5 11.5h-16l-54 -309h-100l125 710h198q118 0 178 -43.5t60 -125.5q0 -70 -33.5 -120.5t-91.5 -78.5t-132 -31q24 -14 44 -54l56 -112q19 -38 38.5 -50.5t45.5 -12.5q33 0 60 16z
M341 627h-98l-42 -238h98q90 0 141.5 31.5t51.5 107.5q0 99 -151 99zM172 -262q16 21 25 42.5t9 36.5t-3 26.5t-3 22.5q0 24 15.5 39.5t41.5 15.5q24 0 37.5 -13t13.5 -34q0 -19 -11.5 -43.5t-31.5 -49t-45 -43.5h-48z" />
    <glyph glyph-name="uni0157" unicode="&#x157;" horiz-adv-x="391" 
d="M399 409q-18 6 -44 6q-57 0 -100 -42.5t-75.5 -134t-58.5 -238.5h-95l58 328q8 47 14 89t9 84h94q-3 -32 -10 -73.5t-16 -82.5q42 89 96 126.5t108 37.5q16 0 28.5 -1.5t21.5 -5.5zM-30 -262q16 21 25 42.5t9 36.5t-3 26.5t-3 22.5q0 24 15.5 39.5t41.5 15.5
q24 0 37.5 -13t13.5 -34q0 -19 -11.5 -43.5t-31.5 -49t-45 -43.5h-48z" />
    <glyph glyph-name="Rcaron" unicode="&#x158;" horiz-adv-x="603" 
d="M581 98l13 -78q-19 -13 -44.5 -20t-53.5 -7q-96 0 -142 93l-88 178q-11 22 -27.5 33.5t-35.5 11.5h-16l-54 -309h-100l125 710h198q118 0 178 -43.5t60 -125.5q0 -70 -33.5 -120.5t-91.5 -78.5t-132 -31q24 -14 44 -54l56 -112q19 -38 38.5 -50.5t45.5 -12.5q33 0 60 16z
M341 627h-98l-42 -238h98q90 0 141.5 31.5t51.5 107.5q0 99 -151 99zM372 782l-98 167l82 10l65 -115l106 115l86 -10l-158 -167h-83z" />
    <glyph glyph-name="rcaron" unicode="&#x159;" horiz-adv-x="391" 
d="M399 409q-18 6 -44 6q-57 0 -100 -42.5t-75.5 -134t-58.5 -238.5h-95l58 328q8 47 14 89t9 84h94q-3 -32 -10 -73.5t-16 -82.5q42 89 96 126.5t108 37.5q16 0 28.5 -1.5t21.5 -5.5zM242 573l-98 167l82 10l65 -115l106 115l86 -10l-158 -167h-83z" />
    <glyph glyph-name="Sacute" unicode="&#x15a;" horiz-adv-x="575" 
d="M259 -8q-120 0 -183.5 56.5t-58.5 162.5l97 13q0 -75 37 -110t120 -35q76 0 118 32t42 91q0 30 -17.5 48.5t-46 30t-62.5 20.5t-68 21.5t-62.5 32t-46 52t-17.5 82.5q0 68 34.5 120t94.5 81.5t136 29.5q101 0 156 -51.5t53 -140.5l-92 -15q-3 120 -121 120
q-73 0 -115 -36.5t-42 -96.5q0 -34 17 -54t45.5 -32.5t63 -22t68.5 -21.5t62.5 -30t45.5 -48.5t17 -77.5q0 -67 -35 -117t-97.5 -77.5t-142.5 -27.5zM338 782l147 177l100 -26l-157 -151h-90z" />
    <glyph glyph-name="sacute" unicode="&#x15b;" horiz-adv-x="461" 
d="M203 -9q-95 0 -144 38.5t-52 110.5l84 20q1 -47 28 -69.5t87 -22.5q50 0 81 20t31 54q0 23 -18 35.5t-46 20.5t-59.5 16t-59.5 22t-46 38.5t-18 65.5q0 53 30 90.5t77.5 58t100.5 20.5q72 0 116 -35t50 -94l-82 -21q-6 73 -89 73q-46 0 -76.5 -22t-30.5 -57
q0 -25 18 -38.5t46 -22.5t59.5 -17.5t59.5 -22t46 -37t18 -62.5q0 -51 -30.5 -87t-79 -55.5t-101.5 -19.5zM248 573l147 177l100 -27l-157 -150h-90z" />
    <glyph glyph-name="Scircumflex" unicode="&#x15c;" horiz-adv-x="575" 
d="M259 -8q-120 0 -183.5 56.5t-58.5 162.5l97 13q0 -75 37 -110t120 -35q76 0 118 32t42 91q0 30 -17.5 48.5t-46 30t-62.5 20.5t-68 21.5t-62.5 32t-46 52t-17.5 82.5q0 68 34.5 120t94.5 81.5t136 29.5q101 0 156 -51.5t53 -140.5l-92 -15q-3 120 -121 120
q-73 0 -115 -36.5t-42 -96.5q0 -34 17 -54t45.5 -32.5t63 -22t68.5 -21.5t62.5 -30t45.5 -48.5t17 -77.5q0 -67 -35 -117t-97.5 -77.5t-142.5 -27.5zM556 782h-87l-59 105l-97 -105h-96l158 167h83z" />
    <glyph glyph-name="scircumflex" unicode="&#x15d;" horiz-adv-x="461" 
d="M203 -9q-95 0 -144 38.5t-52 110.5l84 20q1 -47 28 -69.5t87 -22.5q50 0 81 20t31 54q0 23 -18 35.5t-46 20.5t-59.5 16t-59.5 22t-46 38.5t-18 65.5q0 53 30 90.5t77.5 58t100.5 20.5q72 0 116 -35t50 -94l-82 -21q-6 73 -89 73q-46 0 -76.5 -22t-30.5 -57
q0 -25 18 -38.5t46 -22.5t59.5 -17.5t59.5 -22t46 -37t18 -62.5q0 -51 -30.5 -87t-79 -55.5t-101.5 -19.5zM466 573h-87l-59 105l-97 -105h-96l158 167h83z" />
    <glyph glyph-name="Scedilla" unicode="&#x15e;" horiz-adv-x="575" 
d="M259 -8q-120 0 -183.5 56.5t-58.5 162.5l97 13q0 -75 37 -110t120 -35q76 0 118 32t42 91q0 30 -17.5 48.5t-46 30t-62.5 20.5t-68 21.5t-62.5 32t-46 52t-17.5 82.5q0 68 34.5 120t94.5 81.5t136 29.5q101 0 156 -51.5t53 -140.5l-92 -15q-3 120 -121 120
q-73 0 -115 -36.5t-42 -96.5q0 -34 17 -54t45.5 -32.5t63 -22t68.5 -21.5t62.5 -30t45.5 -48.5t17 -77.5q0 -67 -35 -117t-97.5 -77.5t-142.5 -27.5zM193 -223q-31 0 -57.5 6.5t-44.5 16.5l27 51q37 -18 80 -18q25 0 41 10t16 28q0 30 -47 30h-48l79 117h67l-43 -67
q71 -13 71 -73q0 -46 -39 -73.5t-102 -27.5z" />
    <glyph glyph-name="scedilla" unicode="&#x15f;" horiz-adv-x="461" 
d="M203 -9q-95 0 -144 38.5t-52 110.5l84 20q1 -47 28 -69.5t87 -22.5q50 0 81 20t31 54q0 23 -18 35.5t-46 20.5t-59.5 16t-59.5 22t-46 38.5t-18 65.5q0 53 30 90.5t77.5 58t100.5 20.5q72 0 116 -35t50 -94l-82 -21q-6 73 -89 73q-46 0 -76.5 -22t-30.5 -57
q0 -25 18 -38.5t46 -22.5t59.5 -17.5t59.5 -22t46 -37t18 -62.5q0 -51 -30.5 -87t-79 -55.5t-101.5 -19.5zM140 -223q-31 0 -57.5 6.5t-44.5 16.5l27 51q37 -18 80 -18q25 0 41 10t16 28q0 30 -47 30h-48l79 117h67l-43 -67q71 -13 71 -73q0 -46 -39 -73.5t-102 -27.5z" />
    <glyph glyph-name="Scaron" unicode="&#x160;" horiz-adv-x="575" 
d="M259 -8q-120 0 -183.5 56.5t-58.5 162.5l97 13q0 -75 37 -110t120 -35q76 0 118 32t42 91q0 30 -17.5 48.5t-46 30t-62.5 20.5t-68 21.5t-62.5 32t-46 52t-17.5 82.5q0 68 34.5 120t94.5 81.5t136 29.5q101 0 156 -51.5t53 -140.5l-92 -15q-3 120 -121 120
q-73 0 -115 -36.5t-42 -96.5q0 -34 17 -54t45.5 -32.5t63 -22t68.5 -21.5t62.5 -30t45.5 -48.5t17 -77.5q0 -67 -35 -117t-97.5 -77.5t-142.5 -27.5zM345 782l-98 167l82 10l65 -115l106 115l86 -10l-158 -167h-83z" />
    <glyph glyph-name="scaron" unicode="&#x161;" horiz-adv-x="461" 
d="M203 -9q-95 0 -144 38.5t-52 110.5l84 20q1 -47 28 -69.5t87 -22.5q50 0 81 20t31 54q0 23 -18 35.5t-46 20.5t-59.5 16t-59.5 22t-46 38.5t-18 65.5q0 53 30 90.5t77.5 58t100.5 20.5q72 0 116 -35t50 -94l-82 -21q-6 73 -89 73q-46 0 -76.5 -22t-30.5 -57
q0 -25 18 -38.5t46 -22.5t59.5 -17.5t59.5 -22t46 -37t18 -62.5q0 -51 -30.5 -87t-79 -55.5t-101.5 -19.5zM255 573l-98 167l82 10l65 -115l106 115l86 -10l-158 -167h-83z" />
    <glyph glyph-name="uni0162" unicode="&#x162;" horiz-adv-x="559" 
d="M646 710l-26 -88h-225l-110 -622h-101l110 622h-231l16 88h567zM179 -223q-31 0 -57.5 6.5t-44.5 16.5l27 51q37 -18 80 -18q25 0 41 10t16 28q0 30 -47 30h-48l79 117h67l-43 -67q71 -13 71 -73q0 -46 -39 -73.5t-102 -27.5z" />
    <glyph glyph-name="uni0163" unicode="&#x163;" horiz-adv-x="385" 
d="M230 -9q-88 0 -127 52.5t-25 132.5l47 244h-88l15 81h88l20 104h95l-19 -104h168l-14 -81h-169l-47 -247q-9 -44 9 -70.5t66 -26.5q25 0 46 6t46 22l16 -75q-26 -20 -59.5 -29t-67.5 -9zM144 -223q-31 0 -57.5 6.5t-44.5 16.5l27 51q37 -18 80 -18q25 0 41 10t16 28
q0 30 -47 30h-48l79 117h67l-43 -67q71 -13 71 -73q0 -46 -39 -73.5t-102 -27.5z" />
    <glyph glyph-name="Tcaron" unicode="&#x164;" horiz-adv-x="559" 
d="M646 710l-26 -88h-225l-110 -622h-101l110 622h-231l16 88h567zM332 782l-98 167l82 10l65 -115l106 115l86 -10l-158 -167h-83z" />
    <glyph glyph-name="tcaron" unicode="&#x165;" horiz-adv-x="385" 
d="M230 -9q-88 0 -127 52.5t-25 132.5l47 244h-88l15 81h88l20 104h95l-19 -104h168l-14 -81h-169l-47 -247q-9 -44 9 -70.5t66 -26.5q25 0 46 6t46 22l16 -75q-26 -20 -59.5 -29t-67.5 -9zM293 550l40 230h83l-63 -230h-60z" />
    <glyph glyph-name="Tbar" unicode="&#x166;" horiz-adv-x="559" 
d="M646 710l-26 -88h-225l-110 -622h-101l110 622h-231l16 88h567zM92 324l11 72h400l-11 -72h-400z" />
    <glyph glyph-name="tbar" unicode="&#x167;" horiz-adv-x="385" 
d="M230 -9q-88 0 -127 52.5t-25 132.5l47 244h-88l15 81h88l20 104h95l-19 -104h168l-14 -81h-169l-47 -247q-9 -44 9 -70.5t66 -26.5q25 0 46 6t46 22l16 -75q-26 -20 -59.5 -29t-67.5 -9zM32 240l12 68h307l-12 -68h-307z" />
    <glyph glyph-name="Utilde" unicode="&#x168;" horiz-adv-x="732" 
d="M637 710h100l-64 -374q-30 -177 -112.5 -261t-226.5 -84q-146 0 -211 81t-39 230l72 408h103l-71 -401q-40 -225 152 -225q101 0 155 59.5t78 196.5zM541 777q-26 0 -53.5 15t-53.5 30t-47 15q-19 0 -37.5 -14.5t-31.5 -41.5l-40 31q19 47 51 72.5t73 25.5q25 0 53 -15
t54 -30t47 -15q43 0 70 56l38 -30q-18 -48 -50.5 -73.5t-72.5 -25.5z" />
    <glyph glyph-name="utilde" unicode="&#x169;" horiz-adv-x="575" 
d="M182 -9q-76 0 -111 53t-16 160l23 124q18 93 24 173h96q-3 -43 -10 -91.5t-14 -83.5l-23 -120q-25 -125 70 -125q45 0 88 38t81 130t66 252h93l-59 -331q-8 -48 -13 -95.5t-5 -74.5h-94q0 63 22 154q-39 -79 -94.5 -121t-123.5 -42zM425 568q-26 0 -53.5 15t-53.5 30
t-47 15q-19 0 -37.5 -15t-31.5 -41l-40 31q19 47 51 72.5t73 25.5q25 0 53 -15t54 -30t47 -15q43 0 70 56l38 -31q-18 -47 -50.5 -72.5t-72.5 -25.5z" />
    <glyph glyph-name="Umacron" unicode="&#x16a;" horiz-adv-x="732" 
d="M637 710h100l-64 -374q-30 -177 -112.5 -261t-226.5 -84q-146 0 -211 81t-39 230l72 408h103l-71 -401q-40 -225 152 -225q101 0 155 59.5t78 196.5zM319 875h315l-12 -67h-315z" />
    <glyph glyph-name="umacron" unicode="&#x16b;" horiz-adv-x="575" 
d="M182 -9q-76 0 -111 53t-16 160l23 124q18 93 24 173h96q-3 -43 -10 -91.5t-14 -83.5l-23 -120q-25 -125 70 -125q45 0 88 38t81 130t66 252h93l-59 -331q-8 -48 -13 -95.5t-5 -74.5h-94q0 63 22 154q-39 -79 -94.5 -121t-123.5 -42zM203 666h315l-12 -67h-315z" />
    <glyph glyph-name="Ubreve" unicode="&#x16c;" horiz-adv-x="732" 
d="M637 710h100l-64 -374q-30 -177 -112.5 -261t-226.5 -84q-146 0 -211 81t-39 230l72 408h103l-71 -401q-40 -225 152 -225q101 0 155 59.5t78 196.5zM592 960l64 -11q-15 -79 -66.5 -125.5t-119.5 -46.5q-73 0 -111 46.5t-34 125.5l67 11q-6 -115 83 -115q84 0 117 115z
" />
    <glyph glyph-name="ubreve" unicode="&#x16d;" horiz-adv-x="575" 
d="M182 -9q-76 0 -111 53t-16 160l23 124q18 93 24 173h96q-3 -43 -10 -91.5t-14 -83.5l-23 -120q-25 -125 70 -125q45 0 88 38t81 130t66 252h93l-59 -331q-8 -48 -13 -95.5t-5 -74.5h-94q0 63 22 154q-39 -79 -94.5 -121t-123.5 -42zM476 751l64 -11q-15 -79 -66.5 -125.5
t-119.5 -46.5q-73 0 -111 46.5t-34 125.5l67 11q-6 -115 83 -115q84 0 117 115z" />
    <glyph glyph-name="Uring" unicode="&#x16e;" horiz-adv-x="732" 
d="M637 710h100l-64 -374q-30 -177 -112.5 -261t-226.5 -84q-146 0 -211 81t-39 230l72 408h103l-71 -401q-40 -225 152 -225q101 0 155 59.5t78 196.5zM477 777q-46 0 -77 30t-31 73q0 45 32.5 75.5t79.5 30.5q46 0 76.5 -29t30.5 -73q0 -45 -31.5 -76t-79.5 -31zM478 821
q27 0 44 17.5t17 45.5q0 26 -17 42t-42 16q-28 0 -45 -17.5t-17 -44.5q0 -26 17 -42.5t43 -16.5z" />
    <glyph glyph-name="uring" unicode="&#x16f;" horiz-adv-x="575" 
d="M182 -9q-76 0 -111 53t-16 160l23 124q18 93 24 173h96q-3 -43 -10 -91.5t-14 -83.5l-23 -120q-25 -125 70 -125q45 0 88 38t81 130t66 252h93l-59 -331q-8 -48 -13 -95.5t-5 -74.5h-94q0 63 22 154q-39 -79 -94.5 -121t-123.5 -42zM361 568q-46 0 -77 29.5t-31 73.5
t32.5 75t79.5 31q46 0 76.5 -29t30.5 -73q0 -46 -31.5 -76.5t-79.5 -30.5zM362 612q27 0 44 17.5t17 45.5q0 26 -17 42t-42 16q-28 0 -45 -17.5t-17 -44.5q0 -26 17 -42.5t43 -16.5z" />
    <glyph glyph-name="Uhungarumlaut" unicode="&#x170;" horiz-adv-x="732" 
d="M637 710h100l-64 -374q-30 -177 -112.5 -261t-226.5 -84q-146 0 -211 81t-39 230l72 408h103l-71 -401q-40 -225 152 -225q101 0 155 59.5t78 196.5zM574 782h-77l98 177l89 -26zM424 782h-77l98 177l89 -26z" />
    <glyph glyph-name="uhungarumlaut" unicode="&#x171;" horiz-adv-x="575" 
d="M182 -9q-76 0 -111 53t-16 160l23 124q18 93 24 173h96q-3 -43 -10 -91.5t-14 -83.5l-23 -120q-25 -125 70 -125q45 0 88 38t81 130t66 252h93l-59 -331q-8 -48 -13 -95.5t-5 -74.5h-94q0 63 22 154q-39 -79 -94.5 -121t-123.5 -42zM458 573h-77l98 177l89 -27zM308 573
h-77l98 177l89 -27z" />
    <glyph glyph-name="Uogonek" unicode="&#x172;" horiz-adv-x="732" 
d="M637 710h100l-64 -374q-25 -145 -84.5 -226.5t-158.5 -109.5q-67 -18 -102.5 -53t-35.5 -70q0 -38 43 -38q32 0 67 36l26 -48q-19 -23 -50 -36.5t-63 -13.5q-50 0 -78.5 24t-28.5 63q0 36 24 70t64 59q-126 11 -181.5 90.5t-30.5 218.5l72 408h103l-71 -401
q-40 -225 152 -225q101 0 155 59.5t78 196.5z" />
    <glyph glyph-name="uogonek" unicode="&#x173;" horiz-adv-x="575" 
d="M182 -9q-76 0 -111 53t-16 160l23 124q18 93 24 173h96q-3 -43 -10 -91.5t-14 -83.5l-23 -120q-25 -125 70 -125q45 0 88 38t81 130t66 252h93l-59 -331q-8 -48 -13 -95.5t-5 -74.5h-94q0 63 22 154q-39 -79 -94.5 -121t-123.5 -42zM373 -223q-51 0 -79.5 24t-28.5 63
q0 34 21 65t56 56t80 40l50 -25q-56 -24 -89.5 -56t-33.5 -67q0 -38 43 -38q32 0 67 36l27 -48q-20 -23 -50.5 -36.5t-62.5 -13.5z" />
    <glyph glyph-name="Wcircumflex" unicode="&#x174;" horiz-adv-x="957" 
d="M925 710h103l-332 -710h-116l-38 574l-267 -574h-117l-50 710h96l36 -582l270 582h113l37 -582zM755 782h-87l-59 105l-97 -105h-96l158 167h83z" />
    <glyph glyph-name="wcircumflex" unicode="&#x175;" horiz-adv-x="849" 
d="M793 501h100l-272 -501h-114l-49 374l-203 -374h-114l-69 501h96l48 -405l217 405h97l49 -407zM666 573h-87l-59 105l-97 -105h-96l158 167h83z" />
    <glyph glyph-name="Ycircumflex" unicode="&#x176;" horiz-adv-x="566" 
d="M668 710l-322 -391l-57 -319h-102l57 320l-187 390h109l143 -301l247 301h112zM548 782h-87l-59 105l-97 -105h-96l158 167h83z" />
    <glyph glyph-name="ycircumflex" unicode="&#x177;" horiz-adv-x="580" 
d="M170 -210q-43 0 -88.5 9t-75.5 28l29 84q64 -35 143 -35q93 0 140 44.5t67 142.5l19 88q-44 -77 -98.5 -112t-113.5 -35q-79 0 -116 54t-20 151l22 119q9 45 15 88t9 85h96q-3 -43 -10 -91.5t-14 -83.5l-21 -108q-11 -59 5 -92t64 -33q49 0 93.5 38t81 127t64.5 243h92
l-75 -425q-26 -154 -101.5 -220t-206.5 -66zM516 573h-87l-59 105l-97 -105h-96l158 167h83z" />
    <glyph glyph-name="Ydieresis" unicode="&#x178;" horiz-adv-x="566" 
d="M668 710l-322 -391l-57 -319h-102l57 320l-187 390h109l143 -301l247 301h112zM479 777q-28 0 -43.5 17t-15.5 39t15.5 39t43.5 17q27 0 42.5 -17t15.5 -39t-15.5 -39t-42.5 -17zM297 777q-29 0 -44.5 17t-15.5 39t15.5 39t44.5 17q26 0 41.5 -17t15.5 -39t-15.5 -39
t-41.5 -17z" />
    <glyph glyph-name="Zacute" unicode="&#x179;" horiz-adv-x="609" 
d="M-5 0l13 73l496 549h-383l16 88h521l-13 -73l-496 -549h411l-24 -88h-541zM356 782l147 177l100 -26l-157 -151h-90z" />
    <glyph glyph-name="zacute" unicode="&#x17a;" horiz-adv-x="456" 
d="M-9 0l12 69l326 351h-253l14 81h376l-12 -68l-326 -353h262l-14 -80h-385zM242 573l147 177l100 -27l-157 -150h-90z" />
    <glyph glyph-name="Zdotaccent" unicode="&#x17b;" horiz-adv-x="609" 
d="M-5 0l13 73l496 549h-383l16 88h521l-13 -73l-496 -549h411l-24 -88h-541zM416 789q-29 0 -45.5 18t-16.5 44q0 25 17 43.5t46 18.5q30 0 46.5 -18.5t16.5 -43.5q0 -26 -17 -44t-47 -18z" />
    <glyph glyph-name="zdotaccent" unicode="&#x17c;" horiz-adv-x="456" 
d="M-9 0l12 69l326 351h-253l14 81h376l-12 -68l-326 -353h262l-14 -80h-385zM303 580q-29 0 -45.5 18t-16.5 43q0 26 17 44t46 18q30 0 46.5 -18t16.5 -44q0 -25 -17 -43t-47 -18z" />
    <glyph glyph-name="Zcaron" unicode="&#x17d;" horiz-adv-x="609" 
d="M-5 0l13 73l496 549h-383l16 88h521l-13 -73l-496 -549h411l-24 -88h-541zM363 782l-98 167l82 10l65 -115l106 115l86 -10l-158 -167h-83z" />
    <glyph glyph-name="zcaron" unicode="&#x17e;" horiz-adv-x="456" 
d="M-9 0l12 69l326 351h-253l14 81h376l-12 -68l-326 -353h262l-14 -80h-385zM250 573l-98 167l82 10l65 -115l106 115l86 -10l-158 -167h-83z" />
    <glyph glyph-name="uni018F" unicode="&#x18f;" horiz-adv-x="760" 
d="M454 720q86 0 149 -34.5t97 -97t34 -147.5q0 -90 -29.5 -171t-83.5 -144t-127 -99t-160 -36q-110 0 -179 49.5t-90 139t14 208.5h549q16 120 -36 180t-150 60q-69 0 -127.5 -27.5t-106.5 -84.5l-66 59q53 71 134.5 108t177.5 37zM346 81q91 0 163 55.5t102 167.5h-445
q-19 -104 27.5 -163.5t152.5 -59.5z" />
    <glyph glyph-name="florin" unicode="&#x192;" horiz-adv-x="600" 
d="M72 -207q-28 0 -54 4.5t-45 14.5l23 80q37 -16 79 -16q57 0 90 35.5t44 115.5l53 393h-104l15 81h100l4 27q14 111 76.5 166.5t150.5 55.5q70 0 108.5 -35.5t36.5 -101.5l-82 -10q2 66 -72 66q-49 0 -83 -32.5t-44 -99.5l-5 -36h163l-15 -81h-158l-49 -396
q-15 -118 -77 -174.5t-155 -56.5z" />
    <glyph glyph-name="Ohorn" unicode="&#x1a0;" horiz-adv-x="773" 
d="M346 -9q-134 0 -209.5 72t-75.5 201q0 92 30.5 174t86 145.5t131 100t165.5 36.5q84 0 145.5 -34.5t94.5 -97t33 -147.5q0 -90 -29.5 -171t-83.5 -144t-127.5 -99t-160.5 -36zM353 84q66 0 119.5 28.5t92 78.5t59 113.5t20.5 132.5q0 90 -46.5 140.5t-131.5 50.5
q-68 0 -123 -29t-95 -79t-61.5 -114t-21.5 -135q0 -90 48 -138.5t140 -48.5zM627 707q51 0 70.5 24.5t19.5 86.5l81 -7q2 -52 -16.5 -91.5t-54.5 -62t-86 -22.5h-80l-35 81q30 -5 56.5 -7t44.5 -2z" />
    <glyph glyph-name="ohorn" unicode="&#x1a1;" horiz-adv-x="575" 
d="M337 509q89 0 142.5 -50.5t53.5 -143.5q0 -69 -22 -127.5t-62 -102.5t-93 -69t-115 -25q-91 0 -145.5 51t-54.5 143q0 60 20 118t57.5 104.5t92.5 74t126 27.5zM251 77q57 0 98 33t63.5 85.5t22.5 111.5q0 57 -29 87t-81 30q-59 0 -100.5 -33.5t-63.5 -85.5t-22 -110
q0 -57 29.5 -87.5t82.5 -30.5zM444 500q46 0 65 23.5t19 85.5l83 -7q3 -77 -40 -125.5t-119 -48.5h-48l-23 78q15 -2 33.5 -4t29.5 -2z" />
    <glyph glyph-name="Uhorn" unicode="&#x1af;" horiz-adv-x="732" 
d="M881 811q4 -77 -36 -127t-112 -50h-9l-51 -298q-31 -177 -113 -261t-226 -84q-146 0 -211 81t-39 230l72 408h103l-71 -401q-39 -225 152 -225q102 0 155.5 59.5t77.5 196.5l64 370h70q35 0 55 9t28.5 32.5t9.5 66.5z" />
    <glyph glyph-name="uhorn" unicode="&#x1b0;" horiz-adv-x="575" 
d="M182 -9q-76 0 -111 53t-16 160l23 124q18 93 24 173h96q-3 -43 -10 -91.5t-14 -83.5l-23 -120q-25 -125 70 -125q45 0 88 38t81 130t66 252h34q46 0 68.5 23t34.5 85l81 -7q-8 -63 -45 -107t-92 -59l-47 -266q-8 -48 -13 -95.5t-5 -74.5h-94q0 63 22 154
q-39 -79 -94.5 -121t-123.5 -42z" />
    <glyph glyph-name="uni01C4" unicode="&#x1c4;" horiz-adv-x="1334" 
d="M33 0l125 710h193q175 0 268.5 -71.5t93.5 -210.5q0 -129 -55.5 -225.5t-153.5 -149.5t-227 -53h-244zM151 90h133q102 0 175 40.5t111.5 115t38.5 175.5q0 100 -64 149.5t-197 49.5h-104zM719 0l13 73l496 549h-383l16 88h521l-13 -73l-496 -549h411l-24 -88h-541z
M1087 782l-98 167l82 10l65 -115l106 115l86 -10l-158 -167h-83z" />
    <glyph glyph-name="uni01C5" unicode="&#x1c5;" horiz-adv-x="1190" 
d="M33 0l125 710h193q175 0 268.5 -71.5t93.5 -210.5q0 -129 -55.5 -225.5t-153.5 -149.5t-227 -53h-244zM151 90h133q102 0 175 40.5t111.5 115t38.5 175.5q0 100 -64 149.5t-197 49.5h-104zM725 0l12 69l326 351h-253l14 81h376l-12 -68l-326 -353h262l-14 -80h-385z
M984 573l-98 167l82 10l65 -115l106 115l86 -10l-158 -167h-83z" />
    <glyph glyph-name="uni01C6" unicode="&#x1c6;" horiz-adv-x="1044" 
d="M213 -9q-81 0 -127 48t-46 135q0 70 22.5 131t63.5 107t95.5 71.5t118.5 25.5q35 0 67.5 -9t55.5 -25l4 26l43 239h95l-101 -570q-8 -48 -13 -95.5t-5 -74.5h-94q0 29 3.5 59t10.5 59q-36 -65 -85 -96t-108 -31zM235 78q48 0 88.5 27.5t68.5 77.5t40 117l15 86
q-38 38 -106 38q-64 0 -109 -34t-69 -88.5t-24 -116.5q0 -52 25 -79.5t71 -27.5zM579 0l12 69l326 351h-253l14 81h376l-12 -68l-326 -353h262l-14 -80h-385zM838 573l-98 167l82 10l65 -115l106 115l86 -10l-158 -167h-83z" />
    <glyph glyph-name="uni01C7" unicode="&#x1c7;" horiz-adv-x="1000" 
d="M33 0l125 710h102l-109 -622h325l-24 -88h-419zM681 -9q-76 0 -125 38t-59 104l90 37q8 -46 34 -67.5t73 -21.5q50 0 80 31t42 97l88 501h102l-87 -494q-20 -110 -77 -167.5t-161 -57.5z" />
    <glyph glyph-name="uni01C8" unicode="&#x1c8;" horiz-adv-x="747" 
d="M33 0l125 710h102l-109 -622h325l-24 -88h-419zM595 328q8 47 14 89t9 84h97q-3 -43 -11 -91.5t-14 -83.5l-57 -321q-17 -99 -71.5 -155.5t-159.5 -56.5q-31 0 -58.5 4.5t-45.5 14.5l31 80q36 -16 78 -16q58 0 89.5 34.5t42.5 96.5zM696 598q-29 0 -46 18.5t-17 43.5
t17 43.5t46 18.5t46 -18.5t17 -43.5t-17 -43.5t-46 -18.5z" />
    <glyph glyph-name="uni01C9" unicode="&#x1c9;" horiz-adv-x="527" 
d="M158 -9q-61 0 -90.5 37.5t-18.5 98.5l108 613h95l-106 -603q-11 -61 44 -61q14 0 28 4t23 9l11 -71q-16 -13 -42 -20t-52 -7zM375 328q8 47 14 89t9 84h97q-3 -43 -11 -91.5t-14 -83.5l-57 -321q-17 -99 -71.5 -155.5t-159.5 -56.5q-31 0 -58.5 4.5t-45.5 14.5l31 80
q36 -16 78 -16q58 0 89.5 34.5t42.5 96.5zM476 598q-29 0 -46 18.5t-17 43.5t17 43.5t46 18.5t46 -18.5t17 -43.5t-17 -43.5t-46 -18.5z" />
    <glyph glyph-name="uni01CA" unicode="&#x1ca;" horiz-adv-x="1189" 
d="M632 710h98l-125 -710h-89l-289 549l-96 -549h-98l125 710h89l289 -549zM869 -9q-76 0 -125 38t-59 104l90 37q8 -46 34 -67.5t73 -21.5q50 0 80 31t42 97l88 501h102l-87 -494q-20 -110 -77 -167.5t-161 -57.5z" />
    <glyph glyph-name="uni01CB" unicode="&#x1cb;" horiz-adv-x="976" 
d="M632 710h98l-125 -710h-89l-289 549l-96 -549h-98l125 710h89l289 -549zM823 328q8 47 14 89t9 84h97q-3 -43 -11 -91.5t-14 -83.5l-57 -321q-17 -99 -71.5 -155.5t-159.5 -56.5q-31 0 -58.5 4.5t-45.5 14.5l31 80q36 -16 78 -16q58 0 89.5 34.5t42.5 96.5zM924 598
q-29 0 -46 18.5t-17 43.5t17 43.5t46 18.5t46 -18.5t17 -43.5t-17 -43.5t-46 -18.5z" />
    <glyph glyph-name="uni01CC" unicode="&#x1cc;" horiz-adv-x="835" 
d="M26 0l58 328q8 47 14 89t9 84h94q-3 -35 -9.5 -76.5t-18.5 -84.5q39 82 97 125.5t129 43.5q79 0 116.5 -53t14.5 -159l-35 -163q-7 -34 -10 -67.5t-3 -66.5h-97q0 64 13 126l35 163q15 69 -3 100t-65 31q-49 0 -94.5 -38t-83.5 -130t-66 -252h-95zM682 328q8 47 14 89
t9 84h97q-3 -43 -11 -91.5t-14 -83.5l-57 -321q-17 -99 -71.5 -155.5t-159.5 -56.5q-31 0 -58.5 4.5t-45.5 14.5l31 80q36 -16 78 -16q58 0 89.5 34.5t42.5 96.5zM783 598q-29 0 -46 18.5t-17 43.5t17 43.5t46 18.5t46 -18.5t17 -43.5t-17 -43.5t-46 -18.5z" />
    <glyph glyph-name="Gcaron" unicode="&#x1e6;" horiz-adv-x="739" 
d="M435 356h263l-63 -356h-79l4 73q-42 -41 -91.5 -61.5t-118.5 -20.5q-137 0 -213 72t-76 201q0 92 31 174t87.5 145.5t134 100t171.5 36.5q86 0 152 -34t95 -103l-87 -58q-20 50 -64.5 76.5t-106.5 26.5q-70 0 -127 -29t-98 -79t-62.5 -114t-21.5 -135q0 -90 49 -138.5
t144 -48.5q89 0 150 44t75 124l3 21h-166zM438 782l-98 167l82 10l65 -115l106 115l86 -10l-158 -167h-83z" />
    <glyph glyph-name="gcaron" unicode="&#x1e7;" horiz-adv-x="592" 
d="M183 -210q-48 0 -94.5 9t-75.5 28l32 84q64 -35 146 -35q88 0 136 43.5t69 143.5l12 62q-36 -63 -84 -92t-107 -29q-80 0 -128 45.5t-48 130.5q0 69 23 129t64 105t96 70t119 25q43 0 81.5 -13t61.5 -34l17 38h69q-11 -48 -20 -91.5t-16 -85.5l-43 -246
q-26 -149 -100.5 -218t-209.5 -69zM237 89q48 0 89.5 27t70 75t40.5 113l14 84q-38 36 -107 36q-64 0 -109.5 -33t-70 -86t-24.5 -112q0 -51 25 -77.5t72 -26.5zM329 573l-98 167l82 10l65 -115l106 115l86 -10l-158 -167h-83z" />
    <glyph glyph-name="uni01EA" unicode="&#x1ea;" horiz-adv-x="773" 
d="M325 -223q-51 0 -79.5 24t-28.5 63q0 37 24.5 70.5t64.5 58.5q-117 11 -181 81.5t-64 189.5q0 92 30.5 174t86 145.5t131 100t165.5 36.5q84 0 145.5 -34.5t94.5 -97t33 -147.5q0 -102 -38 -192.5t-106 -154.5t-157 -89q-69 -19 -107 -56t-38 -72q0 -38 43 -38
q32 0 67 36l26 -48q-19 -23 -50 -36.5t-62 -13.5zM353 84q66 0 119.5 28.5t92 78.5t59 113.5t20.5 132.5q0 90 -46.5 140.5t-131.5 50.5q-68 0 -123 -29t-95 -79t-61.5 -114t-21.5 -135q0 -90 48 -138.5t140 -48.5z" />
    <glyph glyph-name="uni01EB" unicode="&#x1eb;" horiz-adv-x="575" 
d="M227 -223q-51 0 -79.5 24t-28.5 63q0 37 23.5 71t63.5 59q-76 9 -120.5 58.5t-44.5 132.5q0 60 20 118t57.5 104.5t92.5 74t126 27.5q89 0 142.5 -50.5t53.5 -143.5q0 -72 -24 -133t-67 -105.5t-98 -65.5q-68 -26 -104.5 -63t-36.5 -71q0 -38 43 -38q32 0 67 36l27 -48
q-20 -23 -51 -36.5t-62 -13.5zM251 77q57 0 98 33t63.5 85.5t22.5 111.5q0 57 -29 87t-81 30q-59 0 -100.5 -33.5t-63.5 -85.5t-22 -110q0 -57 29.5 -87.5t82.5 -30.5z" />
    <glyph glyph-name="Aringacute" unicode="&#x1fa;" horiz-adv-x="680" 
d="M-42 0l425 710h86l161 -710h-99l-37 177h-325l-104 -177h-107zM219 263h257l-69 323zM451 777q-46 0 -77 30t-31 73q0 45 32.5 75.5t79.5 30.5q34 0 61 -17l85 76l70 -23l-119 -94q10 -20 10 -44q0 -45 -31.5 -76t-79.5 -31zM452 821q27 0 44 17.5t17 45.5q0 26 -17 42
t-42 16q-28 0 -45 -17.5t-17 -44.5q0 -26 17 -42.5t43 -16.5z" />
    <glyph glyph-name="aringacute" unicode="&#x1fb;" horiz-adv-x="588" 
d="M213 -9q-81 0 -127 48t-46 135q0 70 22.5 131t63.5 107t95.5 71.5t118.5 25.5q42 0 80 -13t61 -35l17 39h69q-10 -48 -19 -91.5t-17 -85.5l-27 -153q-8 -48 -13 -95.5t-5 -74.5h-94q0 29 3.5 59t10.5 59q-36 -65 -85 -96t-108 -31zM235 78q48 0 88.5 27.5t68.5 77.5
t40 117l15 86q-38 38 -106 38q-64 0 -109 -34t-69 -88.5t-24 -116.5q0 -52 25 -79.5t71 -27.5zM386 568q-46 0 -77 29.5t-31 73.5t32.5 75t79.5 31q34 0 61 -17l85 76l70 -23l-119 -95q10 -20 10 -43q0 -46 -31.5 -76.5t-79.5 -30.5zM387 612q27 0 44 17.5t17 45.5
q0 26 -17 42t-42 16q-28 0 -45 -17.5t-17 -44.5q0 -26 17 -42.5t43 -16.5z" />
    <glyph glyph-name="AEacute" unicode="&#x1fc;" horiz-adv-x="910" 
d="M-42 0l425 710h567l-16 -87h-323l-38 -220h310l-15 -87h-311l-40 -229h336l-24 -87h-428l32 177h-265l-103 -177h-107zM219 263h229l63 360h-83zM542 782l147 177l100 -26l-157 -151h-90z" />
    <glyph glyph-name="aeacute" unicode="&#x1fd;" horiz-adv-x="860" 
d="M194 -9q-81 0 -127.5 36t-46.5 97q0 76 58 121t156 45h144l3 19q21 120 -89 120q-103 0 -140 -95l-84 16q28 75 91 117t148 42q58 0 98.5 -24t55.5 -70q36 44 87.5 69t111.5 25q82 0 126 -39.5t44 -99.5q0 -62 -40.5 -106.5t-126.5 -44.5h-199q-7 -69 30 -105.5
t105 -36.5q38 0 77.5 16t65.5 48l48 -59q-38 -47 -90 -69t-113 -22q-75 0 -121 31.5t-66 80.5q-33 -54 -88.5 -83t-117.5 -29zM649 435q-69 0 -113 -42t-59 -103h181q40 0 63 20.5t23 55.5q0 28 -22.5 48.5t-72.5 20.5zM206 68q61 0 103.5 39t54.5 105l1 6h-135
q-53 0 -83 -22t-30 -61q0 -32 23.5 -49.5t65.5 -17.5zM428 573l147 177l100 -27l-157 -150h-90z" />
    <glyph glyph-name="Oslashacute" unicode="&#x1fe;" horiz-adv-x="773" 
d="M346 -9q-134 0 -209.5 72t-75.5 201q0 92 30.5 174t86 145.5t131 100t165.5 36.5q84 0 145.5 -34.5t94.5 -97t33 -147.5q0 -90 -29.5 -171t-83.5 -144t-127.5 -99t-160.5 -36zM353 84q66 0 119.5 28.5t92 78.5t59 113.5t20.5 132.5q0 90 -46.5 140.5t-131.5 50.5
q-68 0 -123 -29t-95 -79t-61.5 -114t-21.5 -135q0 -90 48 -138.5t140 -48.5zM121 6l-57 52l624 646l57 -52zM430 782l147 177l100 -26l-157 -151h-90z" />
    <glyph glyph-name="oslashacute" unicode="&#x1ff;" horiz-adv-x="575" 
d="M337 509q89 0 142.5 -50.5t53.5 -143.5q0 -69 -22 -127.5t-62 -102.5t-93 -69t-115 -25q-91 0 -145.5 51t-54.5 143q0 60 20 118t57.5 104.5t92.5 74t126 27.5zM251 77q57 0 98 33t63.5 85.5t22.5 111.5q0 57 -29 87t-81 30q-59 0 -100.5 -33.5t-63.5 -85.5t-22 -110
q0 -57 29.5 -87.5t82.5 -30.5zM89 -7l-52 48l57 59l47 43l257 264l32 41l57 59l52 -47l-57 -59l-48 -43l-256 -264l-32 -42zM296 573l147 177l100 -27l-157 -150h-90z" />
    <glyph glyph-name="uni0200" unicode="&#x200;" horiz-adv-x="680" 
d="M-42 0l425 710h86l161 -710h-99l-37 177h-325l-104 -177h-107zM219 263h257l-69 323zM471 782l-57 151l99 26l35 -177h-77zM321 782l-58 151l99 26l36 -177h-77z" />
    <glyph glyph-name="uni0201" unicode="&#x201;" horiz-adv-x="588" 
d="M213 -9q-81 0 -127 48t-46 135q0 70 22.5 131t63.5 107t95.5 71.5t118.5 25.5q42 0 80 -13t61 -35l17 39h69q-10 -48 -19 -91.5t-17 -85.5l-27 -153q-8 -48 -13 -95.5t-5 -74.5h-94q0 29 3.5 59t10.5 59q-36 -65 -85 -96t-108 -31zM235 78q48 0 88.5 27.5t68.5 77.5
t40 117l15 86q-38 38 -106 38q-64 0 -109 -34t-69 -88.5t-24 -116.5q0 -52 25 -79.5t71 -27.5zM406 573l-57 150l99 27l35 -177h-77zM256 573l-58 150l99 27l36 -177h-77z" />
    <glyph glyph-name="uni0202" unicode="&#x202;" horiz-adv-x="680" 
d="M-42 0l425 710h86l161 -710h-99l-37 177h-325l-104 -177h-107zM219 263h257l-69 323zM536 782q6 109 -79 109q-89 0 -118 -109h-70q16 83 69 130t125 47t109.5 -47t27.5 -130h-64z" />
    <glyph glyph-name="uni0203" unicode="&#x203;" horiz-adv-x="588" 
d="M213 -9q-81 0 -127 48t-46 135q0 70 22.5 131t63.5 107t95.5 71.5t118.5 25.5q42 0 80 -13t61 -35l17 39h69q-10 -48 -19 -91.5t-17 -85.5l-27 -153q-8 -48 -13 -95.5t-5 -74.5h-94q0 29 3.5 59t10.5 59q-36 -65 -85 -96t-108 -31zM235 78q48 0 88.5 27.5t68.5 77.5
t40 117l15 86q-38 38 -106 38q-64 0 -109 -34t-69 -88.5t-24 -116.5q0 -52 25 -79.5t71 -27.5zM471 573q6 109 -79 109q-89 0 -118 -109h-70q16 82 69 129.5t125 47.5t109.5 -47t27.5 -130h-64z" />
    <glyph glyph-name="uni0204" unicode="&#x204;" horiz-adv-x="552" 
d="M149 87h346l-24 -87h-438l125 710h434l-16 -87h-333l-39 -220h321l-15 -87h-321zM425 782l-57 151l99 26l35 -177h-77zM275 782l-58 151l99 26l36 -177h-77z" />
    <glyph glyph-name="uni0205" unicode="&#x205;" horiz-adv-x="539" 
d="M264 -9q-99 0 -160 53.5t-61 151.5q0 85 36 156t101.5 114t154.5 43q84 0 129 -39.5t45 -99.5q0 -62 -42.5 -106t-140.5 -49l-187 -10q-2 -62 34.5 -95t103.5 -33q38 0 77.5 16t66.5 48l48 -59q-38 -47 -90 -69t-115 -22zM327 435q-49 0 -85.5 -21t-60 -56.5t-32.5 -78.5
l170 10q58 2 81 23.5t23 53.5q0 30 -23 49.5t-73 19.5zM382 573l-57 150l99 27l35 -177h-77zM232 573l-58 150l99 27l36 -177h-77z" />
    <glyph glyph-name="uni0206" unicode="&#x206;" horiz-adv-x="552" 
d="M149 87h346l-24 -87h-438l125 710h434l-16 -87h-333l-39 -220h321l-15 -87h-321zM490 782q6 109 -79 109q-89 0 -118 -109h-70q16 83 69 130t125 47t109.5 -47t27.5 -130h-64z" />
    <glyph glyph-name="uni0207" unicode="&#x207;" horiz-adv-x="539" 
d="M264 -9q-99 0 -160 53.5t-61 151.5q0 85 36 156t101.5 114t154.5 43q84 0 129 -39.5t45 -99.5q0 -62 -42.5 -106t-140.5 -49l-187 -10q-2 -62 34.5 -95t103.5 -33q38 0 77.5 16t66.5 48l48 -59q-38 -47 -90 -69t-115 -22zM327 435q-49 0 -85.5 -21t-60 -56.5t-32.5 -78.5
l170 10q58 2 81 23.5t23 53.5q0 30 -23 49.5t-73 19.5zM447 573q6 109 -79 109q-89 0 -118 -109h-70q16 82 69 129.5t125 47.5t109.5 -47t27.5 -130h-64z" />
    <glyph glyph-name="uni0208" unicode="&#x208;" horiz-adv-x="257" 
d="M33 0l125 710h102l-125 -710h-102zM259 782l-57 151l99 26l35 -177h-77zM109 782l-58 151l99 26l36 -177h-77z" />
    <glyph glyph-name="uni0209" unicode="&#x209;" horiz-adv-x="236" 
d="M35 0q0 31 4 63t9 63l36 202q8 47 14 89t9 84h97q-3 -43 -11 -91.5t-14 -83.5l-35 -193q-6 -34 -9 -67t-3 -66h-97zM205 573l-57 150l99 27l35 -177h-77zM55 573l-58 150l99 27l36 -177h-77z" />
    <glyph glyph-name="uni020A" unicode="&#x20a;" horiz-adv-x="257" 
d="M33 0l125 710h102l-125 -710h-102zM324 782q6 109 -79 109q-89 0 -118 -109h-70q16 83 69 130t125 47t109.5 -47t27.5 -130h-64z" />
    <glyph glyph-name="uni020B" unicode="&#x20b;" horiz-adv-x="236" 
d="M35 0q0 31 4 63t9 63l36 202q8 47 14 89t9 84h97q-3 -43 -11 -91.5t-14 -83.5l-35 -193q-6 -34 -9 -67t-3 -66h-97zM270 573q6 109 -79 109q-89 0 -118 -109h-70q16 82 69 129.5t125 47.5t109.5 -47t27.5 -130h-64z" />
    <glyph glyph-name="uni020C" unicode="&#x20c;" horiz-adv-x="773" 
d="M346 -9q-134 0 -209.5 72t-75.5 201q0 92 30.5 174t86 145.5t131 100t165.5 36.5q84 0 145.5 -34.5t94.5 -97t33 -147.5q0 -90 -29.5 -171t-83.5 -144t-127.5 -99t-160.5 -36zM353 84q66 0 119.5 28.5t92 78.5t59 113.5t20.5 132.5q0 90 -46.5 140.5t-131.5 50.5
q-68 0 -123 -29t-95 -79t-61.5 -114t-21.5 -135q0 -90 48 -138.5t140 -48.5zM516 782l-57 151l99 26l35 -177h-77zM366 782l-58 151l99 26l36 -177h-77z" />
    <glyph glyph-name="uni020D" unicode="&#x20d;" horiz-adv-x="575" 
d="M337 509q89 0 142.5 -50.5t53.5 -143.5q0 -69 -22 -127.5t-62 -102.5t-93 -69t-115 -25q-91 0 -145.5 51t-54.5 143q0 60 20 118t57.5 104.5t92.5 74t126 27.5zM251 77q57 0 98 33t63.5 85.5t22.5 111.5q0 57 -29 87t-81 30q-59 0 -100.5 -33.5t-63.5 -85.5t-22 -110
q0 -57 29.5 -87.5t82.5 -30.5zM381 573l-57 150l99 27l35 -177h-77zM231 573l-58 150l99 27l36 -177h-77z" />
    <glyph glyph-name="uni020E" unicode="&#x20e;" horiz-adv-x="773" 
d="M346 -9q-134 0 -209.5 72t-75.5 201q0 92 30.5 174t86 145.5t131 100t165.5 36.5q84 0 145.5 -34.5t94.5 -97t33 -147.5q0 -90 -29.5 -171t-83.5 -144t-127.5 -99t-160.5 -36zM353 84q66 0 119.5 28.5t92 78.5t59 113.5t20.5 132.5q0 90 -46.5 140.5t-131.5 50.5
q-68 0 -123 -29t-95 -79t-61.5 -114t-21.5 -135q0 -90 48 -138.5t140 -48.5zM581 782q6 109 -79 109q-89 0 -118 -109h-70q16 83 69 130t125 47t109.5 -47t27.5 -130h-64z" />
    <glyph glyph-name="uni020F" unicode="&#x20f;" horiz-adv-x="575" 
d="M337 509q89 0 142.5 -50.5t53.5 -143.5q0 -69 -22 -127.5t-62 -102.5t-93 -69t-115 -25q-91 0 -145.5 51t-54.5 143q0 60 20 118t57.5 104.5t92.5 74t126 27.5zM251 77q57 0 98 33t63.5 85.5t22.5 111.5q0 57 -29 87t-81 30q-59 0 -100.5 -33.5t-63.5 -85.5t-22 -110
q0 -57 29.5 -87.5t82.5 -30.5zM446 573q6 109 -79 109q-89 0 -118 -109h-70q16 82 69 129.5t125 47.5t109.5 -47t27.5 -130h-64z" />
    <glyph glyph-name="uni0210" unicode="&#x210;" horiz-adv-x="603" 
d="M581 98l13 -78q-19 -13 -44.5 -20t-53.5 -7q-96 0 -142 93l-88 178q-11 22 -27.5 33.5t-35.5 11.5h-16l-54 -309h-100l125 710h198q118 0 178 -43.5t60 -125.5q0 -70 -33.5 -120.5t-91.5 -78.5t-132 -31q24 -14 44 -54l56 -112q19 -38 38.5 -50.5t45.5 -12.5q33 0 60 16z
M341 627h-98l-42 -238h98q90 0 141.5 31.5t51.5 107.5q0 99 -151 99zM450 782l-57 151l99 26l35 -177h-77zM300 782l-58 151l99 26l36 -177h-77z" />
    <glyph glyph-name="uni0211" unicode="&#x211;" horiz-adv-x="391" 
d="M399 409q-18 6 -44 6q-57 0 -100 -42.5t-75.5 -134t-58.5 -238.5h-95l58 328q8 47 14 89t9 84h94q-3 -32 -10 -73.5t-16 -82.5q42 89 96 126.5t108 37.5q16 0 28.5 -1.5t21.5 -5.5zM320 573l-57 150l99 27l35 -177h-77zM170 573l-58 150l99 27l36 -177h-77z" />
    <glyph glyph-name="uni0212" unicode="&#x212;" horiz-adv-x="603" 
d="M581 98l13 -78q-19 -13 -44.5 -20t-53.5 -7q-96 0 -142 93l-88 178q-11 22 -27.5 33.5t-35.5 11.5h-16l-54 -309h-100l125 710h198q118 0 178 -43.5t60 -125.5q0 -70 -33.5 -120.5t-91.5 -78.5t-132 -31q24 -14 44 -54l56 -112q19 -38 38.5 -50.5t45.5 -12.5q33 0 60 16z
M341 627h-98l-42 -238h98q90 0 141.5 31.5t51.5 107.5q0 99 -151 99zM515 782q6 109 -79 109q-89 0 -118 -109h-70q16 83 69 130t125 47t109.5 -47t27.5 -130h-64z" />
    <glyph glyph-name="uni0213" unicode="&#x213;" horiz-adv-x="391" 
d="M399 409q-18 6 -44 6q-57 0 -100 -42.5t-75.5 -134t-58.5 -238.5h-95l58 328q8 47 14 89t9 84h94q-3 -32 -10 -73.5t-16 -82.5q42 89 96 126.5t108 37.5q16 0 28.5 -1.5t21.5 -5.5zM385 573q6 109 -79 109q-89 0 -118 -109h-70q16 82 69 129.5t125 47.5t109.5 -47
t27.5 -130h-64z" />
    <glyph glyph-name="uni0214" unicode="&#x214;" horiz-adv-x="732" 
d="M637 710h100l-64 -374q-30 -177 -112.5 -261t-226.5 -84q-146 0 -211 81t-39 230l72 408h103l-71 -401q-40 -225 152 -225q101 0 155 59.5t78 196.5zM497 782l-57 151l99 26l35 -177h-77zM347 782l-58 151l99 26l36 -177h-77z" />
    <glyph glyph-name="uni0215" unicode="&#x215;" horiz-adv-x="575" 
d="M182 -9q-76 0 -111 53t-16 160l23 124q18 93 24 173h96q-3 -43 -10 -91.5t-14 -83.5l-23 -120q-25 -125 70 -125q45 0 88 38t81 130t66 252h93l-59 -331q-8 -48 -13 -95.5t-5 -74.5h-94q0 63 22 154q-39 -79 -94.5 -121t-123.5 -42zM381 573l-57 150l99 27l35 -177h-77z
M231 573l-58 150l99 27l36 -177h-77z" />
    <glyph glyph-name="uni0216" unicode="&#x216;" horiz-adv-x="732" 
d="M637 710h100l-64 -374q-30 -177 -112.5 -261t-226.5 -84q-146 0 -211 81t-39 230l72 408h103l-71 -401q-40 -225 152 -225q101 0 155 59.5t78 196.5zM562 782q6 109 -79 109q-89 0 -118 -109h-70q16 83 69 130t125 47t109.5 -47t27.5 -130h-64z" />
    <glyph glyph-name="uni0217" unicode="&#x217;" horiz-adv-x="575" 
d="M182 -9q-76 0 -111 53t-16 160l23 124q18 93 24 173h96q-3 -43 -10 -91.5t-14 -83.5l-23 -120q-25 -125 70 -125q45 0 88 38t81 130t66 252h93l-59 -331q-8 -48 -13 -95.5t-5 -74.5h-94q0 63 22 154q-39 -79 -94.5 -121t-123.5 -42zM446 573q6 109 -79 109
q-89 0 -118 -109h-70q16 82 69 129.5t125 47.5t109.5 -47t27.5 -130h-64z" />
    <glyph glyph-name="uni0218" unicode="&#x218;" horiz-adv-x="575" 
d="M259 -8q-120 0 -183.5 56.5t-58.5 162.5l97 13q0 -75 37 -110t120 -35q76 0 118 32t42 91q0 30 -17.5 48.5t-46 30t-62.5 20.5t-68 21.5t-62.5 32t-46 52t-17.5 82.5q0 68 34.5 120t94.5 81.5t136 29.5q101 0 156 -51.5t53 -140.5l-92 -15q-3 120 -121 120
q-73 0 -115 -36.5t-42 -96.5q0 -34 17 -54t45.5 -32.5t63 -22t68.5 -21.5t62.5 -30t45.5 -48.5t17 -77.5q0 -67 -35 -117t-97.5 -77.5t-142.5 -27.5zM145 -262q16 21 25 42.5t9 36.5t-3 26.5t-3 22.5q0 24 15.5 39.5t41.5 15.5q24 0 37.5 -13t13.5 -34q0 -19 -11.5 -43.5
t-31.5 -49t-45 -43.5h-48z" />
    <glyph glyph-name="uni0219" unicode="&#x219;" horiz-adv-x="461" 
d="M203 -9q-95 0 -144 38.5t-52 110.5l84 20q1 -47 28 -69.5t87 -22.5q50 0 81 20t31 54q0 23 -18 35.5t-46 20.5t-59.5 16t-59.5 22t-46 38.5t-18 65.5q0 53 30 90.5t77.5 58t100.5 20.5q72 0 116 -35t50 -94l-82 -21q-6 73 -89 73q-46 0 -76.5 -22t-30.5 -57
q0 -25 18 -38.5t46 -22.5t59.5 -17.5t59.5 -22t46 -37t18 -62.5q0 -51 -30.5 -87t-79 -55.5t-101.5 -19.5zM92 -262q16 21 25 42.5t9 36.5t-3 26.5t-3 22.5q0 24 15.5 39.5t41.5 15.5q24 0 37.5 -13t13.5 -34q0 -19 -11.5 -43.5t-31.5 -49t-45 -43.5h-48z" />
    <glyph glyph-name="uni021A" unicode="&#x21a;" horiz-adv-x="559" 
d="M646 710l-26 -88h-225l-110 -622h-101l110 622h-231l16 88h567zM131 -262q16 21 25 42.5t9 36.5t-3 26.5t-3 22.5q0 24 15.5 39.5t41.5 15.5q24 0 37.5 -13t13.5 -34q0 -19 -11.5 -43.5t-31.5 -49t-45 -43.5h-48z" />
    <glyph glyph-name="uni021B" unicode="&#x21b;" horiz-adv-x="385" 
d="M230 -9q-88 0 -127 52.5t-25 132.5l47 244h-88l15 81h88l20 104h95l-19 -104h168l-14 -81h-169l-47 -247q-9 -44 9 -70.5t66 -26.5q25 0 46 6t46 22l16 -75q-26 -20 -59.5 -29t-67.5 -9zM96 -262q16 21 25 42.5t9 36.5t-3 26.5t-3 22.5q0 24 15.5 39.5t41.5 15.5
q24 0 37.5 -13t13.5 -34q0 -19 -11.5 -43.5t-31.5 -49t-45 -43.5h-48z" />
    <glyph glyph-name="uni022A" unicode="&#x22a;" horiz-adv-x="773" 
d="M346 -9q-134 0 -209.5 72t-75.5 201q0 92 30.5 174t86 145.5t131 100t165.5 36.5q84 0 145.5 -34.5t94.5 -97t33 -147.5q0 -90 -29.5 -171t-83.5 -144t-127.5 -99t-160.5 -36zM353 84q66 0 119.5 28.5t92 78.5t59 113.5t20.5 132.5q0 90 -46.5 140.5t-131.5 50.5
q-68 0 -123 -29t-95 -79t-61.5 -114t-21.5 -135q0 -90 48 -138.5t140 -48.5zM359 935l12 66h295l-12 -66h-295zM398 777q-29 0 -44.5 17t-15.5 39t15.5 39t44.5 17q26 0 41.5 -17t15.5 -39t-15.5 -39t-41.5 -17zM580 777q-28 0 -43.5 17t-15.5 39t15.5 39t43.5 17
q27 0 42.5 -17t15.5 -39t-15.5 -39t-42.5 -17z" />
    <glyph glyph-name="uni022B" unicode="&#x22b;" horiz-adv-x="575" 
d="M337 509q89 0 142.5 -50.5t53.5 -143.5q0 -69 -22 -127.5t-62 -102.5t-93 -69t-115 -25q-91 0 -145.5 51t-54.5 143q0 60 20 118t57.5 104.5t92.5 74t126 27.5zM251 77q57 0 98 33t63.5 85.5t22.5 111.5q0 57 -29 87t-81 30q-59 0 -100.5 -33.5t-63.5 -85.5t-22 -110
q0 -57 29.5 -87.5t82.5 -30.5zM224 725l12 67h295l-12 -67h-295zM263 568q-29 0 -44.5 17t-15.5 39t15.5 38.5t44.5 16.5q26 0 41.5 -16.5t15.5 -38.5t-15.5 -39t-41.5 -17zM445 568q-28 0 -43.5 17t-15.5 39t15.5 38.5t43.5 16.5q27 0 42.5 -16.5t15.5 -38.5t-15.5 -39
t-42.5 -17z" />
    <glyph glyph-name="uni022C" unicode="&#x22c;" horiz-adv-x="773" 
d="M346 -9q-134 0 -209.5 72t-75.5 201q0 92 30.5 174t86 145.5t131 100t165.5 36.5q84 0 145.5 -34.5t94.5 -97t33 -147.5q0 -90 -29.5 -171t-83.5 -144t-127.5 -99t-160.5 -36zM353 84q66 0 119.5 28.5t92 78.5t59 113.5t20.5 132.5q0 90 -46.5 140.5t-131.5 50.5
q-68 0 -123 -29t-95 -79t-61.5 -114t-21.5 -135q0 -90 48 -138.5t140 -48.5zM333 959l12 66h355l-12 -66h-355zM560 777q-26 0 -53.5 15t-53.5 30t-47 15q-19 0 -37.5 -14.5t-31.5 -41.5l-40 31q19 47 51 72.5t73 25.5q25 0 53 -15t54 -30t47 -15q43 0 70 56l38 -30
q-18 -48 -50.5 -73.5t-72.5 -25.5z" />
    <glyph glyph-name="uni022D" unicode="&#x22d;" horiz-adv-x="575" 
d="M337 509q89 0 142.5 -50.5t53.5 -143.5q0 -69 -22 -127.5t-62 -102.5t-93 -69t-115 -25q-91 0 -145.5 51t-54.5 143q0 60 20 118t57.5 104.5t92.5 74t126 27.5zM251 77q57 0 98 33t63.5 85.5t22.5 111.5q0 57 -29 87t-81 30q-59 0 -100.5 -33.5t-63.5 -85.5t-22 -110
q0 -57 29.5 -87.5t82.5 -30.5zM198 749l12 67h355l-12 -67h-355zM425 568q-26 0 -53.5 15t-53.5 30t-47 15q-19 0 -37.5 -15t-31.5 -41l-40 31q19 47 51 72.5t73 25.5q25 0 53 -15t54 -30t47 -15q43 0 70 56l38 -31q-18 -47 -50.5 -72.5t-72.5 -25.5z" />
    <glyph glyph-name="uni0230" unicode="&#x230;" horiz-adv-x="773" 
d="M346 -9q-134 0 -209.5 72t-75.5 201q0 92 30.5 174t86 145.5t131 100t165.5 36.5q84 0 145.5 -34.5t94.5 -97t33 -147.5q0 -90 -29.5 -171t-83.5 -144t-127.5 -99t-160.5 -36zM353 84q66 0 119.5 28.5t92 78.5t59 113.5t20.5 132.5q0 90 -46.5 140.5t-131.5 50.5
q-68 0 -123 -29t-95 -79t-61.5 -114t-21.5 -135q0 -90 48 -138.5t140 -48.5zM381 959l11 66h260l-12 -66h-259zM491 789q-29 0 -45.5 18t-16.5 44q0 25 17 43.5t46 18.5q30 0 46.5 -18.5t16.5 -43.5q0 -26 -17 -44t-47 -18z" />
    <glyph glyph-name="uni0231" unicode="&#x231;" horiz-adv-x="575" 
d="M337 509q89 0 142.5 -50.5t53.5 -143.5q0 -69 -22 -127.5t-62 -102.5t-93 -69t-115 -25q-91 0 -145.5 51t-54.5 143q0 60 20 118t57.5 104.5t92.5 74t126 27.5zM251 77q57 0 98 33t63.5 85.5t22.5 111.5q0 57 -29 87t-81 30q-59 0 -100.5 -33.5t-63.5 -85.5t-22 -110
q0 -57 29.5 -87.5t82.5 -30.5zM246 749l11 67h260l-12 -67h-259zM356 580q-29 0 -45.5 18t-16.5 43q0 26 17 44t46 18q30 0 46.5 -18t16.5 -44q0 -25 -17 -43t-47 -18z" />
    <glyph glyph-name="uni0232" unicode="&#x232;" horiz-adv-x="566" 
d="M668 710l-322 -391l-57 -319h-102l57 320l-187 390h109l143 -301l247 301h112zM238 875h315l-12 -67h-315z" />
    <glyph glyph-name="uni0233" unicode="&#x233;" horiz-adv-x="580" 
d="M170 -210q-43 0 -88.5 9t-75.5 28l29 84q64 -35 143 -35q93 0 140 44.5t67 142.5l19 88q-44 -77 -98.5 -112t-113.5 -35q-79 0 -116 54t-20 151l22 119q9 45 15 88t9 85h96q-3 -43 -10 -91.5t-14 -83.5l-21 -108q-11 -59 5 -92t64 -33q49 0 93.5 38t81 127t64.5 243h92
l-75 -425q-26 -154 -101.5 -220t-206.5 -66zM205 666h315l-12 -67h-315z" />
    <glyph glyph-name="uni0237" unicode="&#x237;" horiz-adv-x="250" 
d="M97 328q8 47 14 89t9 84h97q-3 -43 -11 -91.5t-14 -83.5l-57 -321q-17 -99 -71.5 -155.5t-159.5 -56.5q-31 0 -58.5 4.5t-45.5 14.5l31 80q36 -16 78 -16q58 0 89.5 34.5t42.5 96.5z" />
    <glyph glyph-name="uni0259" unicode="&#x259;" horiz-adv-x="539" 
d="M292 509q61 0 108.5 -23.5t75 -69.5t27.5 -111q0 -85 -36 -156t-101.5 -114.5t-154.5 -43.5q-84 0 -129 40t-45 99q0 63 42.5 107t140.5 49l188 10q2 62 -33.5 95t-97.5 33q-87 0 -152 -64l-48 60q43 46 98 67.5t117 21.5zM123 134q0 -29 23 -48.5t73 -19.5q49 0 85.5 21
t60 56.5t32.5 77.5l-170 -9q-58 -3 -81 -24t-23 -54z" />
    <glyph glyph-name="uni02B9" unicode="&#x2b9;" horiz-adv-x="641" 
d="M295 573l147 177l100 -27l-157 -150h-90z" />
    <glyph glyph-name="uni02BA" unicode="&#x2ba;" horiz-adv-x="620" 
d="M461 573h-77l98 177l89 -27zM311 573h-77l98 177l89 -27z" />
    <glyph glyph-name="uni02BB" unicode="&#x2bb;" horiz-adv-x="639" 
d="M427 751q-16 -22 -25 -43.5t-9 -35.5q0 -15 3 -26.5t3 -23.5q0 -24 -15.5 -39t-41.5 -15q-24 0 -37.5 12.5t-13.5 34.5q0 18 11.5 43t31 49.5t44.5 43.5h49z" />
    <glyph glyph-name="uni02BC" unicode="&#x2bc;" horiz-adv-x="215" 
d="M35 461q18 32 29 61t11 55q0 18 -3 33t-3 34q0 30 18.5 52t52.5 22q25 0 40.5 -14t15.5 -39q0 -28 -16.5 -65t-42.5 -74.5t-55 -64.5h-47z" />
    <glyph glyph-name="uni02BE" unicode="&#x2be;" horiz-adv-x="613" 
d="M300 568v50q25 0 42 15.5t17 40.5q0 24 -17 39t-42 15v48q49 0 81.5 -28.5t32.5 -74.5q0 -47 -32.5 -76t-81.5 -29z" />
    <glyph glyph-name="uni02BF" unicode="&#x2bf;" horiz-adv-x="613" 
d="M313 568q-49 0 -81.5 29t-32.5 76q0 46 32.5 74.5t81.5 28.5v-48q-25 0 -42 -15t-17 -39q0 -25 17 -40.5t42 -15.5v-50z" />
    <glyph glyph-name="circumflex" unicode="&#x2c6;" horiz-adv-x="645" 
d="M504 573h-87l-59 105l-97 -105h-96l158 167h83z" />
    <glyph glyph-name="caron" unicode="&#x2c7;" horiz-adv-x="645" 
d="M306 573l-98 167l82 10l65 -115l106 115l86 -10l-158 -167h-83z" />
    <glyph glyph-name="uni02C8" unicode="&#x2c8;" horiz-adv-x="618" 
d="M282 573l31 178h81l-32 -178h-80z" />
    <glyph glyph-name="uni02C9" unicode="&#x2c9;" horiz-adv-x="625" 
d="M184 669h318l-14 -73h-317z" />
    <glyph glyph-name="uni02CA" unicode="&#x2ca;" horiz-adv-x="641" 
d="M295 573l147 177l100 -27l-157 -150h-90z" />
    <glyph glyph-name="uni02CB" unicode="&#x2cb;" horiz-adv-x="642" 
d="M299 573l-104 150l109 27l85 -177h-90z" />
    <glyph glyph-name="uni02CC" unicode="&#x2cc;" horiz-adv-x="618" 
d="M140 -234l27 155h81l-28 -155h-80z" />
    <glyph glyph-name="breve" unicode="&#x2d8;" horiz-adv-x="645" 
d="M479 751l64 -11q-15 -79 -66.5 -125.5t-119.5 -46.5q-73 0 -111 46.5t-34 125.5l67 11q-6 -115 83 -115q84 0 117 115z" />
    <glyph glyph-name="dotaccent" unicode="&#x2d9;" horiz-adv-x="649" 
d="M359 580q-29 0 -45.5 18t-16.5 43q0 26 17 44t46 18q30 0 46.5 -18t16.5 -44q0 -25 -17 -43t-47 -18z" />
    <glyph glyph-name="ring" unicode="&#x2da;" horiz-adv-x="626" 
d="M364 568q-46 0 -77 29.5t-31 73.5t32.5 75t79.5 31q46 0 76.5 -29t30.5 -73q0 -46 -31.5 -76.5t-79.5 -30.5zM365 612q27 0 44 17.5t17 45.5q0 26 -17 42t-42 16q-28 0 -45 -17.5t-17 -44.5q0 -26 17 -42.5t43 -16.5z" />
    <glyph glyph-name="ogonek" unicode="&#x2db;" horiz-adv-x="627" 
d="M117.679 -223q-51 0 -75.2686 24q-24.2676 24 -17.3906 63q5.99512 34 32.4609 65q26.4668 31 65.875 56t87.0527 40l45.5918 -25q-60.2324 -24 -99.375 -56t-45.3135 -67q-6.70117 -38 36.2988 -38q32 0 73.3486 36l18.5361 -48q-24.0557 -23 -56.9365 -36.5
q-32.8799 -13.5 -64.8799 -13.5z" />
    <glyph glyph-name="tilde" unicode="&#x2dc;" horiz-adv-x="635" 
d="M428 568q-26 0 -53.5 15t-53.5 30t-47 15q-19 0 -37.5 -15t-31.5 -41l-40 31q19 47 51 72.5t73 25.5q25 0 53 -15t54 -30t47 -15q43 0 70 56l38 -31q-18 -47 -50.5 -72.5t-72.5 -25.5z" />
    <glyph glyph-name="hungarumlaut" unicode="&#x2dd;" horiz-adv-x="620" 
d="M461 573h-77l98 177l89 -27zM311 573h-77l98 177l89 -27z" />
    <glyph glyph-name="gravecomb" unicode="&#x300;" 
d="M299 573l-104 150l109 27l85 -177h-90z" />
    <glyph glyph-name="acutecomb" unicode="&#x301;" 
d="M295 573l147 177l100 -27l-157 -150h-90z" />
    <glyph glyph-name="uni0302" unicode="&#x302;" 
d="M504 573h-87l-59 105l-97 -105h-96l158 167h83z" />
    <glyph glyph-name="tildecomb" unicode="&#x303;" 
d="M428 568q-26 0 -53.5 15t-53.5 30t-47 15q-19 0 -37.5 -15t-31.5 -41l-40 31q19 47 51 72.5t73 25.5q25 0 53 -15t54 -30t47 -15q43 0 70 56l38 -31q-18 -47 -50.5 -72.5t-72.5 -25.5z" />
    <glyph glyph-name="uni0304" unicode="&#x304;" 
d="M186 666h315l-12 -67h-315z" />
    <glyph glyph-name="uni0306" unicode="&#x306;" 
d="M479 751l64 -11q-15 -79 -66.5 -125.5t-119.5 -46.5q-73 0 -111 46.5t-34 125.5l67 11q-6 -115 83 -115q84 0 117 115z" />
    <glyph glyph-name="uni0307" unicode="&#x307;" 
d="M359 580q-29 0 -45.5 18t-16.5 43q0 26 17 44t46 18q30 0 46.5 -18t16.5 -44q0 -25 -17 -43t-47 -18z" />
    <glyph glyph-name="uni0308" unicode="&#x308;" 
d="M448 568q-28 0 -43.5 17t-15.5 39t15.5 38.5t43.5 16.5q27 0 42.5 -16.5t15.5 -38.5t-15.5 -39t-42.5 -17zM266 568q-29 0 -44.5 17t-15.5 39t15.5 38.5t44.5 16.5q26 0 41.5 -16.5t15.5 -38.5t-15.5 -39t-41.5 -17z" />
    <glyph glyph-name="hookabovecomb" unicode="&#x309;" 
d="M391 751q38 0 61 -16.5t23 -44.5q0 -25 -14 -39.5t-32.5 -24t-34 -21t-19.5 -32.5h-55l2 13q4 24 16 37.5t25.5 22t23.5 16t10 19.5q0 18 -26 18q-17 0 -37 -9.5t-36 -29.5l-33 33q22 28 55.5 43t70.5 15z" />
    <glyph glyph-name="uni030A" unicode="&#x30a;" 
d="M364 568q-46 0 -77 29.5t-31 73.5t32.5 75t79.5 31q46 0 76.5 -29t30.5 -73q0 -46 -31.5 -76.5t-79.5 -30.5zM365 612q27 0 44 17.5t17 45.5q0 26 -17 42t-42 16q-28 0 -45 -17.5t-17 -44.5q0 -26 17 -42.5t43 -16.5z" />
    <glyph glyph-name="uni030B" unicode="&#x30b;" 
d="M461 573h-77l98 177l89 -27zM311 573h-77l98 177l89 -27z" />
    <glyph glyph-name="uni030C" unicode="&#x30c;" 
d="M306 573l-98 167l82 10l65 -115l106 115l86 -10l-158 -167h-83z" />
    <glyph glyph-name="uni030F" unicode="&#x30f;" 
d="M384 573l-57 150l99 27l35 -177h-77zM234 573l-58 150l99 27l36 -177h-77z" />
    <glyph glyph-name="uni0311" unicode="&#x311;" 
d="M449 573q6 109 -79 109q-89 0 -118 -109h-70q16 82 69 129.5t125 47.5t109.5 -47t27.5 -130h-64z" />
    <glyph glyph-name="uni0312" unicode="&#x312;" 
d="M427 751q-16 -22 -25 -43.5t-9 -35.5q0 -15 3 -26.5t3 -23.5q0 -24 -15.5 -39t-41.5 -15q-24 0 -37.5 12.5t-13.5 34.5q0 18 11.5 43t31 49.5t44.5 43.5h49z" />
    <glyph glyph-name="uni031B" unicode="&#x31b;" 
d="M304 500q46 0 65 23.5t19 85.5l83 -7q3 -77 -40 -125.5t-119 -48.5h-48l-23 78q15 -2 33.5 -4t29.5 -2z" />
    <glyph glyph-name="dotbelowcomb" unicode="&#x323;" 
d="M210 -203q-29 0 -45.5 18.5t-16.5 43.5t17.5 43.5t45.5 18.5q30 0 47 -18.5t17 -43.5t-17.5 -43.5t-47.5 -18.5z" />
    <glyph glyph-name="uni0324" unicode="&#x324;" 
d="M315 -191q-28 0 -43.5 17t-15.5 38q0 23 15.5 39.5t44.5 16.5q26 0 41.5 -16.5t15.5 -39.5q0 -21 -15.5 -38t-42.5 -17zM132 -191q-28 0 -43 17t-15 38q0 23 15 39.5t44 16.5q27 0 42.5 -16.5t15.5 -39.5q0 -21 -16 -38t-43 -17z" />
    <glyph glyph-name="uni0326" unicode="&#x326;" 
d="M123 -262q16 21 25 42.5t9 36.5t-3 26.5t-3 22.5q0 24 15.5 39.5t41.5 15.5q24 0 37.5 -13t13.5 -34q0 -19 -11.5 -43.5t-31.5 -49t-45 -43.5h-48z" />
    <glyph glyph-name="uni0327" unicode="&#x327;" 
d="M154 -223q-31 0 -57.5 6.5t-44.5 16.5l27 51q37 -18 80 -18q25 0 41 10t16 28q0 30 -47 30h-48l79 117h67l-43 -67q71 -13 71 -73q0 -46 -39 -73.5t-102 -27.5z" />
    <glyph glyph-name="uni0328" unicode="&#x328;" 
d="M246 -223q-51 0 -79.5 24t-28.5 63q0 34 21 65t56 56t80 40l50 -25q-56 -24 -89.5 -56t-33.5 -67q0 -38 43 -38q32 0 67 36l27 -48q-20 -23 -50.5 -36.5t-62.5 -13.5z" />
    <glyph glyph-name="uni032E" unicode="&#x32e;" 
d="M314 -79h68q-19 -70 -66.5 -112.5t-113.5 -42.5q-50 0 -83 21t-48.5 56t-12.5 78h66q1 -40 20.5 -63.5t62.5 -23.5q39 0 65.5 23.5t41.5 63.5z" />
    <glyph glyph-name="uni0331" unicode="&#x331;" 
d="M48 -107h315l-12 -66h-315z" />
    <glyph glyph-name="uni0335" unicode="&#x335;" 
d="M97 372l12 68h361l-12 -68h-361z" />
    <glyph glyph-name="uni0336" unicode="&#x336;" 
d="M-41 370l12 72h713l-12 -72h-713z" />
    <glyph glyph-name="uni0337" unicode="&#x337;" 
d="M274 234l-30 55l244 137l31 -54z" />
    <glyph glyph-name="uni0338" unicode="&#x338;" 
d="M97 -7l-52 48l57 59l47 43l257 264l32 41l57 59l52 -47l-57 -59l-48 -43l-256 -264l-32 -42z" />
    <glyph glyph-name="uni0394" unicode="&#x394;" horiz-adv-x="600" 
d="M-30 0l375 710h86l110 -710h-571zM118 85h318l-67 497z" />
    <glyph glyph-name="uni03A9" unicode="&#x3a9;" horiz-adv-x="817" 
d="M493 720q83 0 144.5 -33.5t95.5 -93.5t34 -141q0 -110 -53 -208t-145 -164h164l-14 -80h-292l10 58q70 44 121 104.5t78.5 131.5t27.5 148q0 85 -48 136t-131 51q-67 0 -121 -27t-92 -74t-58.5 -108t-20.5 -129q0 -75 30.5 -133.5t87.5 -99.5l-9 -58h-292l14 80h164
q-48 41 -72.5 96.5t-23.5 120.5q0 87 30 164t83.5 135t126.5 91t161 33z" />
    <glyph glyph-name="pi" unicode="&#x3c0;" horiz-adv-x="640" 
d="M33 0q43 91 77.5 195t57.5 225h-112l15 80h557l-14 -80h-113l-46 -259q-7 -41 10 -63.5t56 -22.5q37 0 74 24l16 -73q-21 -16 -52 -25.5t-65 -9.5q-77 0 -112.5 42.5t-22.5 118.5l48 268h-144q-25 -128 -57 -229.5t-71 -190.5h-102z" />
    <glyph glyph-name="uni1E08" unicode="&#x1e08;" horiz-adv-x="657" 
d="M638 137q-50 -71 -125 -108.5t-163 -37.5q-137 0 -213 72t-76 201q0 92 31 174t86.5 145.5t131 100t165.5 36.5q86 0 148.5 -34.5t89.5 -102.5l-85 -56q-40 101 -163 101q-67 0 -122 -29t-95 -79t-61.5 -114t-21.5 -135q0 -90 49 -138.5t144 -48.5q62 0 117.5 27t96.5 85
zM285 -223q-31 0 -57.5 6.5t-44.5 16.5l27 51q37 -18 80 -18q25 0 41 10t16 28q0 30 -47 30h-48l79 117h67l-43 -67q71 -13 71 -73q0 -46 -39 -73.5t-102 -27.5zM430 782l147 177l100 -26l-157 -151h-90z" />
    <glyph glyph-name="uni1E09" unicode="&#x1e09;" horiz-adv-x="490" 
d="M248 -9q-96 0 -151 52t-55 142q0 62 20 120t58 104t92 73t123 27q65 0 107.5 -24.5t67.5 -74.5l-77 -53q-27 66 -104 66q-59 0 -101.5 -32t-65.5 -84.5t-23 -111.5q0 -56 31 -87t92 -30q38 0 72.5 16.5t61.5 50.5l60 -56q-39 -49 -92 -73.5t-116 -24.5zM179 -223
q-31 0 -57.5 6.5t-44.5 16.5l27 51q37 -18 80 -18q25 0 41 10t16 28q0 30 -47 30h-48l79 117h67l-43 -67q71 -13 71 -73q0 -46 -39 -73.5t-102 -27.5zM292 573l147 177l100 -27l-157 -150h-90z" />
    <glyph glyph-name="uni1E0C" unicode="&#x1e0c;" horiz-adv-x="739" 
d="M33 0l125 710h193q175 0 268.5 -71.5t93.5 -210.5q0 -129 -55.5 -225.5t-153.5 -149.5t-227 -53h-244zM151 90h133q102 0 175 40.5t111.5 115t38.5 175.5q0 100 -64 149.5t-197 49.5h-104zM297 -203q-29 0 -45.5 18.5t-16.5 43.5t17.5 43.5t45.5 18.5q30 0 47 -18.5
t17 -43.5t-17.5 -43.5t-47.5 -18.5z" />
    <glyph glyph-name="uni1E0D" unicode="&#x1e0d;" horiz-adv-x="588" 
d="M213 -9q-81 0 -127 48t-46 135q0 70 22.5 131t63.5 107t95.5 71.5t118.5 25.5q35 0 67.5 -9t55.5 -25l4 26l43 239h95l-101 -570q-8 -48 -13 -95.5t-5 -74.5h-94q0 29 3.5 59t10.5 59q-36 -65 -85 -96t-108 -31zM235 78q48 0 88.5 27.5t68.5 77.5t40 117l15 86
q-38 38 -106 38q-64 0 -109 -34t-69 -88.5t-24 -116.5q0 -52 25 -79.5t71 -27.5zM244 -203q-29 0 -45.5 18.5t-16.5 43.5t17.5 43.5t45.5 18.5q30 0 47 -18.5t17 -43.5t-17.5 -43.5t-47.5 -18.5z" />
    <glyph glyph-name="uni1E0E" unicode="&#x1e0e;" horiz-adv-x="739" 
d="M33 0l125 710h193q175 0 268.5 -71.5t93.5 -210.5q0 -129 -55.5 -225.5t-153.5 -149.5t-227 -53h-244zM151 90h133q102 0 175 40.5t111.5 115t38.5 175.5q0 100 -64 149.5t-197 49.5h-104zM146 -107h315l-12 -66h-315z" />
    <glyph glyph-name="uni1E0F" unicode="&#x1e0f;" horiz-adv-x="588" 
d="M213 -9q-81 0 -127 48t-46 135q0 70 22.5 131t63.5 107t95.5 71.5t118.5 25.5q35 0 67.5 -9t55.5 -25l4 26l43 239h95l-101 -570q-8 -48 -13 -95.5t-5 -74.5h-94q0 29 3.5 59t10.5 59q-36 -65 -85 -96t-108 -31zM235 78q48 0 88.5 27.5t68.5 77.5t40 117l15 86
q-38 38 -106 38q-64 0 -109 -34t-69 -88.5t-24 -116.5q0 -52 25 -79.5t71 -27.5zM93 -107h315l-12 -66h-315z" />
    <glyph glyph-name="uni1E14" unicode="&#x1e14;" horiz-adv-x="552" 
d="M149 87h346l-24 -87h-438l125 710h434l-16 -87h-333l-39 -220h321l-15 -87h-321zM369 926l-100 143l110 27l80 -170h-90zM264 808l11 67h260l-12 -67h-259z" />
    <glyph glyph-name="uni1E15" unicode="&#x1e15;" horiz-adv-x="539" 
d="M264 -9q-99 0 -160 53.5t-61 151.5q0 85 36 156t101.5 114t154.5 43q84 0 129 -39.5t45 -99.5q0 -62 -42.5 -106t-140.5 -49l-187 -10q-2 -62 34.5 -95t103.5 -33q38 0 77.5 16t66.5 48l48 -59q-38 -47 -90 -69t-115 -22zM327 435q-49 0 -85.5 -21t-60 -56.5t-32.5 -78.5
l170 10q58 2 81 23.5t23 53.5q0 30 -23 49.5t-73 19.5zM326 717l-100 143l110 26l80 -169h-90zM221 599l11 67h260l-12 -67h-259z" />
    <glyph glyph-name="uni1E16" unicode="&#x1e16;" horiz-adv-x="552" 
d="M149 87h346l-24 -87h-438l125 710h434l-16 -87h-333l-39 -220h321l-15 -87h-321zM369 926l141 170l100 -27l-151 -143h-90zM264 808l11 67h260l-12 -67h-259z" />
    <glyph glyph-name="uni1E17" unicode="&#x1e17;" horiz-adv-x="539" 
d="M264 -9q-99 0 -160 53.5t-61 151.5q0 85 36 156t101.5 114t154.5 43q84 0 129 -39.5t45 -99.5q0 -62 -42.5 -106t-140.5 -49l-187 -10q-2 -62 34.5 -95t103.5 -33q38 0 77.5 16t66.5 48l48 -59q-38 -47 -90 -69t-115 -22zM327 435q-49 0 -85.5 -21t-60 -56.5t-32.5 -78.5
l170 10q58 2 81 23.5t23 53.5q0 30 -23 49.5t-73 19.5zM326 717l141 169l100 -26l-151 -143h-90zM221 599l11 67h260l-12 -67h-259z" />
    <glyph glyph-name="uni1E1C" unicode="&#x1e1c;" horiz-adv-x="552" 
d="M149 87h346l-24 -87h-438l125 710h434l-16 -87h-333l-39 -220h321l-15 -87h-321zM194 -223q-31 0 -57.5 6.5t-44.5 16.5l27 51q37 -18 80 -18q25 0 41 10t16 28q0 30 -47 30h-48l79 117h67l-43 -67q71 -13 71 -73q0 -46 -39 -73.5t-102 -27.5zM520 960l64 -11
q-15 -79 -66.5 -125.5t-119.5 -46.5q-73 0 -111 46.5t-34 125.5l67 11q-6 -115 83 -115q84 0 117 115z" />
    <glyph glyph-name="uni1E1D" unicode="&#x1e1d;" horiz-adv-x="539" 
d="M264 -9q-99 0 -160 53.5t-61 151.5q0 85 36 156t101.5 114t154.5 43q84 0 129 -39.5t45 -99.5q0 -62 -42.5 -106t-140.5 -49l-187 -10q-2 -62 34.5 -95t103.5 -33q38 0 77.5 16t66.5 48l48 -59q-38 -47 -90 -69t-115 -22zM327 435q-49 0 -85.5 -21t-60 -56.5t-32.5 -78.5
l170 10q58 2 81 23.5t23 53.5q0 30 -23 49.5t-73 19.5zM189 -223q-31 0 -57.5 6.5t-44.5 16.5l27 51q37 -18 80 -18q25 0 41 10t16 28q0 30 -47 30h-48l79 117h67l-43 -67q71 -13 71 -73q0 -46 -39 -73.5t-102 -27.5zM477 751l64 -11q-15 -79 -66.5 -125.5t-119.5 -46.5
q-73 0 -111 46.5t-34 125.5l67 11q-6 -115 83 -115q84 0 117 115z" />
    <glyph glyph-name="uni1E20" unicode="&#x1e20;" horiz-adv-x="739" 
d="M435 356h263l-63 -356h-79l4 73q-42 -41 -91.5 -61.5t-118.5 -20.5q-137 0 -213 72t-76 201q0 92 31 174t87.5 145.5t134 100t171.5 36.5q86 0 152 -34t95 -103l-87 -58q-20 50 -64.5 76.5t-106.5 26.5q-70 0 -127 -29t-98 -79t-62.5 -114t-21.5 -135q0 -90 49 -138.5
t144 -48.5q89 0 150 44t75 124l3 21h-166zM338 875h315l-12 -67h-315z" />
    <glyph glyph-name="uni1E21" unicode="&#x1e21;" horiz-adv-x="592" 
d="M183 -210q-48 0 -94.5 9t-75.5 28l32 84q64 -35 146 -35q88 0 136 43.5t69 143.5l12 62q-36 -63 -84 -92t-107 -29q-80 0 -128 45.5t-48 130.5q0 69 23 129t64 105t96 70t119 25q43 0 81.5 -13t61.5 -34l17 38h69q-11 -48 -20 -91.5t-16 -85.5l-43 -246
q-26 -149 -100.5 -218t-209.5 -69zM237 89q48 0 89.5 27t70 75t40.5 113l14 84q-38 36 -107 36q-64 0 -109.5 -33t-70 -86t-24.5 -112q0 -51 25 -77.5t72 -26.5zM230 666h315l-12 -67h-315z" />
    <glyph glyph-name="uni1E24" unicode="&#x1e24;" horiz-adv-x="729" 
d="M33 0l125 710h102l-54 -306h370l54 306h102l-125 -710h-102l56 315h-370l-56 -315h-102zM294 -203q-29 0 -45.5 18.5t-16.5 43.5t17.5 43.5t45.5 18.5q30 0 47 -18.5t17 -43.5t-17.5 -43.5t-47.5 -18.5z" />
    <glyph glyph-name="uni1E25" unicode="&#x1e25;" horiz-adv-x="585" 
d="M26 0l130 740h96l-43 -239l-35 -159q40 81 97 124t128 43q79 0 116.5 -53t14.5 -159l-35 -163q-7 -34 -10 -67.5t-3 -66.5h-97q0 64 13 126l35 163q15 69 -3 100t-65 31q-49 0 -94.5 -38t-83.5 -130t-66 -252h-95zM225 -203q-29 0 -45.5 18.5t-16.5 43.5t17.5 43.5
t45.5 18.5q30 0 47 -18.5t17 -43.5t-17.5 -43.5t-47.5 -18.5z" />
    <glyph glyph-name="uni1E2A" unicode="&#x1e2a;" horiz-adv-x="729" 
d="M33 0l125 710h102l-54 -306h370l54 306h102l-125 -710h-102l56 315h-370l-56 -315h-102zM400 -79h68q-19 -70 -66.5 -112.5t-113.5 -42.5q-50 0 -83 21t-48.5 56t-12.5 78h66q1 -40 20.5 -63.5t62.5 -23.5q39 0 65.5 23.5t41.5 63.5z" />
    <glyph glyph-name="uni1E2B" unicode="&#x1e2b;" horiz-adv-x="585" 
d="M26 0l130 740h96l-43 -239l-35 -159q40 81 97 124t128 43q79 0 116.5 -53t14.5 -159l-35 -163q-7 -34 -10 -67.5t-3 -66.5h-97q0 64 13 126l35 163q15 69 -3 100t-65 31q-49 0 -94.5 -38t-83.5 -130t-66 -252h-95zM331 -79h68q-19 -70 -66.5 -112.5t-113.5 -42.5
q-50 0 -83 21t-48.5 56t-12.5 78h66q1 -40 20.5 -63.5t62.5 -23.5q39 0 65.5 23.5t41.5 63.5z" />
    <glyph glyph-name="uni1E2E" unicode="&#x1e2e;" horiz-adv-x="257" 
d="M33 0l125 710h102l-125 -710h-102zM201 919l147 177l100 -27l-156 -150h-91zM140 777q-29 0 -44.5 17t-15.5 39t15.5 39t44.5 17q26 0 41.5 -17t15.5 -39t-15.5 -39t-41.5 -17zM322 777q-28 0 -43.5 17t-15.5 39t15.5 39t43.5 17q27 0 42.5 -17t15.5 -39t-15.5 -39
t-42.5 -17z" />
    <glyph glyph-name="uni1E2F" unicode="&#x1e2f;" horiz-adv-x="236" 
d="M35 0q0 31 4 63t9 63l36 202q8 47 14 89t9 84h97q-3 -43 -11 -91.5t-14 -83.5l-35 -193q-6 -34 -9 -67t-3 -66h-97zM148 709l147 177l100 -26l-156 -151h-91zM87 568q-29 0 -44.5 17t-15.5 39t15.5 38.5t44.5 16.5q26 0 41.5 -16.5t15.5 -38.5t-15.5 -39t-41.5 -17z
M269 568q-28 0 -43.5 17t-15.5 39t15.5 38.5t43.5 16.5q27 0 42.5 -16.5t15.5 -38.5t-15.5 -39t-42.5 -17z" />
    <glyph glyph-name="uni1E36" unicode="&#x1e36;" horiz-adv-x="498" 
d="M33 0l125 710h102l-109 -622h325l-24 -88h-419zM217 -203q-29 0 -45.5 18.5t-16.5 43.5t17.5 43.5t45.5 18.5q30 0 47 -18.5t17 -43.5t-17.5 -43.5t-47.5 -18.5z" />
    <glyph glyph-name="uni1E37" unicode="&#x1e37;" horiz-adv-x="278" 
d="M158 -9q-61 0 -90.5 37.5t-18.5 98.5l108 613h95l-106 -603q-11 -61 44 -61q14 0 28 4t23 9l11 -71q-16 -13 -42 -20t-52 -7zM58 -203q-29 0 -45.5 18.5t-16.5 43.5t17.5 43.5t45.5 18.5q30 0 47 -18.5t17 -43.5t-17.5 -43.5t-47.5 -18.5z" />
    <glyph glyph-name="uni1E3A" unicode="&#x1e3a;" horiz-adv-x="498" 
d="M33 0l125 710h102l-109 -622h325l-24 -88h-419zM67 -107h315l-12 -66h-315z" />
    <glyph glyph-name="uni1E3B" unicode="&#x1e3b;" horiz-adv-x="278" 
d="M158 -9q-61 0 -90.5 37.5t-18.5 98.5l108 613h95l-106 -603q-11 -61 44 -61q14 0 28 4t23 9l11 -71q-16 -13 -42 -20t-52 -7zM-92 -107h315l-12 -66h-315z" />
    <glyph glyph-name="uni1E42" unicode="&#x1e42;" horiz-adv-x="923" 
d="M28 0l155 710h93l161 -584l377 584h93l-102 -710h-97l71 499l-323 -499h-81l-141 512l-112 -512h-94zM390 -203q-29 0 -45.5 18.5t-16.5 43.5t17.5 43.5t45.5 18.5q30 0 47 -18.5t17 -43.5t-17.5 -43.5t-47.5 -18.5z" />
    <glyph glyph-name="uni1E43" unicode="&#x1e43;" horiz-adv-x="926" 
d="M26 0l58 328q8 47 14 89t9 84h94q-2 -35 -9 -76.5t-19 -84.5q39 82 96 125.5t126 43.5q61 0 97 -33.5t38 -100.5q41 65 95.5 99.5t117.5 34.5q76 0 113 -53t14 -159l-35 -163q-7 -34 -10 -67.5t-3 -66.5h-97q0 64 13 126l35 163q15 69 -2.5 100t-62.5 31q-47 0 -91 -38
t-82 -130t-66 -252h-95l51 289q12 69 -4 100t-60 31q-47 0 -91.5 -38t-82.5 -130t-66 -252h-95zM396 -203q-29 0 -45.5 18.5t-16.5 43.5t17.5 43.5t45.5 18.5q30 0 47 -18.5t17 -43.5t-17.5 -43.5t-47.5 -18.5z" />
    <glyph glyph-name="uni1E44" unicode="&#x1e44;" horiz-adv-x="726" 
d="M632 710h98l-125 -710h-89l-289 549l-96 -549h-98l125 710h89l289 -549zM469 790q-29 0 -45.5 18t-16.5 44q0 25 17 43.5t46 18.5q30 0 46.5 -18.5t16.5 -43.5q0 -26 -17 -44t-47 -18z" />
    <glyph glyph-name="uni1E45" unicode="&#x1e45;" horiz-adv-x="585" 
d="M26 0l58 328q8 47 14 89t9 84h94q-3 -35 -9.5 -76.5t-18.5 -84.5q39 82 97 125.5t129 43.5q79 0 116.5 -53t14.5 -159l-35 -163q-7 -34 -10 -67.5t-3 -66.5h-97q0 64 13 126l35 163q15 69 -3 100t-65 31q-49 0 -94.5 -38t-83.5 -130t-66 -252h-95zM362 580
q-29 0 -45.5 18t-16.5 43q0 26 17 44t46 18q30 0 46.5 -18t16.5 -44q0 -25 -17 -43t-47 -18z" />
    <glyph glyph-name="uni1E46" unicode="&#x1e46;" horiz-adv-x="726" 
d="M632 710h98l-125 -710h-89l-289 549l-96 -549h-98l125 710h89l289 -549zM294 -203q-29 0 -45.5 18.5t-16.5 43.5t17.5 43.5t45.5 18.5q30 0 47 -18.5t17 -43.5t-17.5 -43.5t-47.5 -18.5z" />
    <glyph glyph-name="uni1E47" unicode="&#x1e47;" horiz-adv-x="585" 
d="M26 0l58 328q8 47 14 89t9 84h94q-3 -35 -9.5 -76.5t-18.5 -84.5q39 82 97 125.5t129 43.5q79 0 116.5 -53t14.5 -159l-35 -163q-7 -34 -10 -67.5t-3 -66.5h-97q0 64 13 126l35 163q15 69 -3 100t-65 31q-49 0 -94.5 -38t-83.5 -130t-66 -252h-95zM225 -203
q-29 0 -45.5 18.5t-16.5 43.5t17.5 43.5t45.5 18.5q30 0 47 -18.5t17 -43.5t-17.5 -43.5t-47.5 -18.5z" />
    <glyph glyph-name="uni1E48" unicode="&#x1e48;" horiz-adv-x="726" 
d="M632 710h98l-125 -710h-89l-289 549l-96 -549h-98l125 710h89l289 -549zM143 -107h315l-12 -66h-315z" />
    <glyph glyph-name="uni1E49" unicode="&#x1e49;" horiz-adv-x="585" 
d="M26 0l58 328q8 47 14 89t9 84h94q-3 -35 -9.5 -76.5t-18.5 -84.5q39 82 97 125.5t129 43.5q79 0 116.5 -53t14.5 -159l-35 -163q-7 -34 -10 -67.5t-3 -66.5h-97q0 64 13 126l35 163q15 69 -3 100t-65 31q-49 0 -94.5 -38t-83.5 -130t-66 -252h-95zM74 -107h315l-12 -66
h-315z" />
    <glyph glyph-name="uni1E4C" unicode="&#x1e4c;" horiz-adv-x="773" 
d="M346 -9q-134 0 -209.5 72t-75.5 201q0 92 30.5 174t86 145.5t131 100t165.5 36.5q84 0 145.5 -34.5t94.5 -97t33 -147.5q0 -90 -29.5 -171t-83.5 -144t-127.5 -99t-160.5 -36zM353 84q66 0 119.5 28.5t92 78.5t59 113.5t20.5 132.5q0 90 -46.5 140.5t-131.5 50.5
q-68 0 -123 -29t-95 -79t-61.5 -114t-21.5 -135q0 -90 48 -138.5t140 -48.5zM461 926l141 170l100 -27l-150 -143h-91zM560 777q-26 0 -53.5 15t-53.5 30t-47 15q-19 0 -37.5 -14.5t-31.5 -41.5l-40 31q19 47 51 72.5t73 25.5q25 0 53 -15t54 -30t47 -15q43 0 70 56l38 -30
q-18 -48 -50.5 -73.5t-72.5 -25.5z" />
    <glyph glyph-name="uni1E4D" unicode="&#x1e4d;" horiz-adv-x="575" 
d="M337 509q89 0 142.5 -50.5t53.5 -143.5q0 -69 -22 -127.5t-62 -102.5t-93 -69t-115 -25q-91 0 -145.5 51t-54.5 143q0 60 20 118t57.5 104.5t92.5 74t126 27.5zM251 77q57 0 98 33t63.5 85.5t22.5 111.5q0 57 -29 87t-81 30q-59 0 -100.5 -33.5t-63.5 -85.5t-22 -110
q0 -57 29.5 -87.5t82.5 -30.5zM326 717l141 169l100 -26l-150 -143h-91zM425 568q-26 0 -53.5 15t-53.5 30t-47 15q-19 0 -37.5 -15t-31.5 -41l-40 31q19 47 51 72.5t73 25.5q25 0 53 -15t54 -30t47 -15q43 0 70 56l38 -31q-18 -47 -50.5 -72.5t-72.5 -25.5z" />
    <glyph glyph-name="uni1E4E" unicode="&#x1e4e;" horiz-adv-x="773" 
d="M346 -9q-134 0 -209.5 72t-75.5 201q0 92 30.5 174t86 145.5t131 100t165.5 36.5q84 0 145.5 -34.5t94.5 -97t33 -147.5q0 -90 -29.5 -171t-83.5 -144t-127.5 -99t-160.5 -36zM353 84q66 0 119.5 28.5t92 78.5t59 113.5t20.5 132.5q0 90 -46.5 140.5t-131.5 50.5
q-68 0 -123 -29t-95 -79t-61.5 -114t-21.5 -135q0 -90 48 -138.5t140 -48.5zM429 965q-28 0 -43.5 17t-15.5 39t15.5 38.5t44.5 16.5q27 0 42 -16.5t15 -38.5t-15.5 -39t-42.5 -17zM612 965q-28 0 -43.5 17t-15.5 39t15.5 38.5t44.5 16.5q26 0 41.5 -16.5t15.5 -38.5
t-15.5 -39t-42.5 -17zM560 777q-26 0 -53.5 15t-53.5 30t-47 15q-19 0 -37.5 -14.5t-31.5 -41.5l-40 31q19 47 51 72.5t73 25.5q25 0 53 -15t54 -30t47 -15q43 0 70 56l38 -30q-18 -48 -50.5 -73.5t-72.5 -25.5z" />
    <glyph glyph-name="uni1E4F" unicode="&#x1e4f;" horiz-adv-x="575" 
d="M337 509q89 0 142.5 -50.5t53.5 -143.5q0 -69 -22 -127.5t-62 -102.5t-93 -69t-115 -25q-91 0 -145.5 51t-54.5 143q0 60 20 118t57.5 104.5t92.5 74t126 27.5zM251 77q57 0 98 33t63.5 85.5t22.5 111.5q0 57 -29 87t-81 30q-59 0 -100.5 -33.5t-63.5 -85.5t-22 -110
q0 -57 29.5 -87.5t82.5 -30.5zM294 755q-28 0 -43.5 17t-15.5 39t15.5 39t44.5 17q27 0 42 -17t15 -39t-15.5 -39t-42.5 -17zM477 755q-28 0 -43.5 17t-15.5 39t15.5 39t44.5 17q26 0 41.5 -17t15.5 -39t-15.5 -39t-42.5 -17zM425 568q-26 0 -53.5 15t-53.5 30t-47 15
q-19 0 -37.5 -15t-31.5 -41l-40 31q19 47 51 72.5t73 25.5q25 0 53 -15t54 -30t47 -15q43 0 70 56l38 -31q-18 -47 -50.5 -72.5t-72.5 -25.5z" />
    <glyph glyph-name="uni1E50" unicode="&#x1e50;" horiz-adv-x="773" 
d="M346 -9q-134 0 -209.5 72t-75.5 201q0 92 30.5 174t86 145.5t131 100t165.5 36.5q84 0 145.5 -34.5t94.5 -97t33 -147.5q0 -90 -29.5 -171t-83.5 -144t-127.5 -99t-160.5 -36zM353 84q66 0 119.5 28.5t92 78.5t59 113.5t20.5 132.5q0 90 -46.5 140.5t-131.5 50.5
q-68 0 -123 -29t-95 -79t-61.5 -114t-21.5 -135q0 -90 48 -138.5t140 -48.5zM460 926l-100 143l110 27l80 -170h-90zM355 808l11 67h260l-12 -67h-259z" />
    <glyph glyph-name="uni1E51" unicode="&#x1e51;" horiz-adv-x="575" 
d="M337 509q89 0 142.5 -50.5t53.5 -143.5q0 -69 -22 -127.5t-62 -102.5t-93 -69t-115 -25q-91 0 -145.5 51t-54.5 143q0 60 20 118t57.5 104.5t92.5 74t126 27.5zM251 77q57 0 98 33t63.5 85.5t22.5 111.5q0 57 -29 87t-81 30q-59 0 -100.5 -33.5t-63.5 -85.5t-22 -110
q0 -57 29.5 -87.5t82.5 -30.5zM325 717l-100 143l110 26l80 -169h-90zM220 599l11 67h260l-12 -67h-259z" />
    <glyph glyph-name="uni1E52" unicode="&#x1e52;" horiz-adv-x="773" 
d="M346 -9q-134 0 -209.5 72t-75.5 201q0 92 30.5 174t86 145.5t131 100t165.5 36.5q84 0 145.5 -34.5t94.5 -97t33 -147.5q0 -90 -29.5 -171t-83.5 -144t-127.5 -99t-160.5 -36zM353 84q66 0 119.5 28.5t92 78.5t59 113.5t20.5 132.5q0 90 -46.5 140.5t-131.5 50.5
q-68 0 -123 -29t-95 -79t-61.5 -114t-21.5 -135q0 -90 48 -138.5t140 -48.5zM460 926l141 170l100 -27l-151 -143h-90zM355 808l11 67h260l-12 -67h-259z" />
    <glyph glyph-name="uni1E53" unicode="&#x1e53;" horiz-adv-x="575" 
d="M337 509q89 0 142.5 -50.5t53.5 -143.5q0 -69 -22 -127.5t-62 -102.5t-93 -69t-115 -25q-91 0 -145.5 51t-54.5 143q0 60 20 118t57.5 104.5t92.5 74t126 27.5zM251 77q57 0 98 33t63.5 85.5t22.5 111.5q0 57 -29 87t-81 30q-59 0 -100.5 -33.5t-63.5 -85.5t-22 -110
q0 -57 29.5 -87.5t82.5 -30.5zM325 717l141 169l100 -26l-151 -143h-90zM220 599l11 67h260l-12 -67h-259z" />
    <glyph glyph-name="uni1E5A" unicode="&#x1e5a;" horiz-adv-x="603" 
d="M581 98l13 -78q-19 -13 -44.5 -20t-53.5 -7q-96 0 -142 93l-88 178q-11 22 -27.5 33.5t-35.5 11.5h-16l-54 -309h-100l125 710h198q118 0 178 -43.5t60 -125.5q0 -70 -33.5 -120.5t-91.5 -78.5t-132 -31q24 -14 44 -54l56 -112q19 -38 38.5 -50.5t45.5 -12.5q33 0 60 16z
M341 627h-98l-42 -238h98q90 0 141.5 31.5t51.5 107.5q0 99 -151 99zM250 -203q-29 0 -45.5 18.5t-16.5 43.5t17.5 43.5t45.5 18.5q30 0 47 -18.5t17 -43.5t-17.5 -43.5t-47.5 -18.5z" />
    <glyph glyph-name="uni1E5B" unicode="&#x1e5b;" horiz-adv-x="391" 
d="M399 409q-18 6 -44 6q-57 0 -100 -42.5t-75.5 -134t-58.5 -238.5h-95l58 328q8 47 14 89t9 84h94q-3 -32 -10 -73.5t-16 -82.5q42 89 96 126.5t108 37.5q16 0 28.5 -1.5t21.5 -5.5zM48 -203q-29 0 -45.5 18.5t-16.5 43.5t17.5 43.5t45.5 18.5q30 0 47 -18.5t17 -43.5
t-17.5 -43.5t-47.5 -18.5z" />
    <glyph glyph-name="uni1E5E" unicode="&#x1e5e;" horiz-adv-x="603" 
d="M581 98l13 -78q-19 -13 -44.5 -20t-53.5 -7q-96 0 -142 93l-88 178q-11 22 -27.5 33.5t-35.5 11.5h-16l-54 -309h-100l125 710h198q118 0 178 -43.5t60 -125.5q0 -70 -33.5 -120.5t-91.5 -78.5t-132 -31q24 -14 44 -54l56 -112q19 -38 38.5 -50.5t45.5 -12.5q33 0 60 16z
M341 627h-98l-42 -238h98q90 0 141.5 31.5t51.5 107.5q0 99 -151 99zM99 -107h315l-12 -66h-315z" />
    <glyph glyph-name="uni1E5F" unicode="&#x1e5f;" horiz-adv-x="391" 
d="M399 409q-18 6 -44 6q-57 0 -100 -42.5t-75.5 -134t-58.5 -238.5h-95l58 328q8 47 14 89t9 84h94q-3 -32 -10 -73.5t-16 -82.5q42 89 96 126.5t108 37.5q16 0 28.5 -1.5t21.5 -5.5zM-103 -107h315l-12 -66h-315z" />
    <glyph glyph-name="uni1E60" unicode="&#x1e60;" horiz-adv-x="575" 
d="M259 -8q-120 0 -183.5 56.5t-58.5 162.5l97 13q0 -75 37 -110t120 -35q76 0 118 32t42 91q0 30 -17.5 48.5t-46 30t-62.5 20.5t-68 21.5t-62.5 32t-46 52t-17.5 82.5q0 68 34.5 120t94.5 81.5t136 29.5q101 0 156 -51.5t53 -140.5l-92 -15q-3 120 -121 120
q-73 0 -115 -36.5t-42 -96.5q0 -34 17 -54t45.5 -32.5t63 -22t68.5 -21.5t62.5 -30t45.5 -48.5t17 -77.5q0 -67 -35 -117t-97.5 -77.5t-142.5 -27.5zM398 789q-29 0 -45.5 18t-16.5 44q0 25 17 43.5t46 18.5q30 0 46.5 -18.5t16.5 -43.5q0 -26 -17 -44t-47 -18z" />
    <glyph glyph-name="uni1E61" unicode="&#x1e61;" horiz-adv-x="461" 
d="M203 -9q-95 0 -144 38.5t-52 110.5l84 20q1 -47 28 -69.5t87 -22.5q50 0 81 20t31 54q0 23 -18 35.5t-46 20.5t-59.5 16t-59.5 22t-46 38.5t-18 65.5q0 53 30 90.5t77.5 58t100.5 20.5q72 0 116 -35t50 -94l-82 -21q-6 73 -89 73q-46 0 -76.5 -22t-30.5 -57
q0 -25 18 -38.5t46 -22.5t59.5 -17.5t59.5 -22t46 -37t18 -62.5q0 -51 -30.5 -87t-79 -55.5t-101.5 -19.5zM308 580q-29 0 -45.5 18t-16.5 43q0 26 17 44t46 18q30 0 46.5 -18t16.5 -44q0 -25 -17 -43t-47 -18z" />
    <glyph glyph-name="uni1E62" unicode="&#x1e62;" horiz-adv-x="575" 
d="M259 -8q-120 0 -183.5 56.5t-58.5 162.5l97 13q0 -75 37 -110t120 -35q76 0 118 32t42 91q0 30 -17.5 48.5t-46 30t-62.5 20.5t-68 21.5t-62.5 32t-46 52t-17.5 82.5q0 68 34.5 120t94.5 81.5t136 29.5q101 0 156 -51.5t53 -140.5l-92 -15q-3 120 -121 120
q-73 0 -115 -36.5t-42 -96.5q0 -34 17 -54t45.5 -32.5t63 -22t68.5 -21.5t62.5 -30t45.5 -48.5t17 -77.5q0 -67 -35 -117t-97.5 -77.5t-142.5 -27.5zM223 -203q-29 0 -45.5 18.5t-16.5 43.5t17.5 43.5t45.5 18.5q30 0 47 -18.5t17 -43.5t-17.5 -43.5t-47.5 -18.5z" />
    <glyph glyph-name="uni1E63" unicode="&#x1e63;" horiz-adv-x="461" 
d="M203 -9q-95 0 -144 38.5t-52 110.5l84 20q1 -47 28 -69.5t87 -22.5q50 0 81 20t31 54q0 23 -18 35.5t-46 20.5t-59.5 16t-59.5 22t-46 38.5t-18 65.5q0 53 30 90.5t77.5 58t100.5 20.5q72 0 116 -35t50 -94l-82 -21q-6 73 -89 73q-46 0 -76.5 -22t-30.5 -57
q0 -25 18 -38.5t46 -22.5t59.5 -17.5t59.5 -22t46 -37t18 -62.5q0 -51 -30.5 -87t-79 -55.5t-101.5 -19.5zM170 -203q-29 0 -45.5 18.5t-16.5 43.5t17.5 43.5t45.5 18.5q30 0 47 -18.5t17 -43.5t-17.5 -43.5t-47.5 -18.5z" />
    <glyph glyph-name="uni1E64" unicode="&#x1e64;" horiz-adv-x="575" 
d="M259 -8q-120 0 -183.5 56.5t-58.5 162.5l97 13q0 -75 37 -110t120 -35q76 0 118 32t42 91q0 30 -17.5 48.5t-46 30t-62.5 20.5t-68 21.5t-62.5 32t-46 52t-17.5 82.5q0 68 34.5 120t94.5 81.5t136 29.5q101 0 156 -51.5t53 -140.5l-92 -15q-3 120 -121 120
q-73 0 -115 -36.5t-42 -96.5q0 -34 17 -54t45.5 -32.5t63 -22t68.5 -21.5t62.5 -30t45.5 -48.5t17 -77.5q0 -67 -35 -117t-97.5 -77.5t-142.5 -27.5zM410 940q-29 0 -46 18t-17 44q0 25 17.5 43t46.5 18q30 0 46 -18t16 -43q0 -26 -16.5 -44t-46.5 -18zM353 782l147 177
l100 -26l-157 -151h-90z" />
    <glyph glyph-name="uni1E65" unicode="&#x1e65;" horiz-adv-x="461" 
d="M203 -9q-95 0 -144 38.5t-52 110.5l84 20q1 -47 28 -69.5t87 -22.5q50 0 81 20t31 54q0 23 -18 35.5t-46 20.5t-59.5 16t-59.5 22t-46 38.5t-18 65.5q0 53 30 90.5t77.5 58t100.5 20.5q72 0 116 -35t50 -94l-82 -21q-6 73 -89 73q-46 0 -76.5 -22t-30.5 -57
q0 -25 18 -38.5t46 -22.5t59.5 -17.5t59.5 -22t46 -37t18 -62.5q0 -51 -30.5 -87t-79 -55.5t-101.5 -19.5zM320 731q-29 0 -46 18t-17 43q0 26 17.5 44t46.5 18q30 0 46 -18t16 -44q0 -25 -16.5 -43t-46.5 -18zM263 573l147 177l100 -27l-157 -150h-90z" />
    <glyph glyph-name="uni1E66" unicode="&#x1e66;" horiz-adv-x="575" 
d="M259 -8q-120 0 -183.5 56.5t-58.5 162.5l97 13q0 -75 37 -110t120 -35q76 0 118 32t42 91q0 30 -17.5 48.5t-46 30t-62.5 20.5t-68 21.5t-62.5 32t-46 52t-17.5 82.5q0 68 34.5 120t94.5 81.5t136 29.5q101 0 156 -51.5t53 -140.5l-92 -15q-3 120 -121 120
q-73 0 -115 -36.5t-42 -96.5q0 -34 17 -54t45.5 -32.5t63 -22t68.5 -21.5t62.5 -30t45.5 -48.5t17 -77.5q0 -67 -35 -117t-97.5 -77.5t-142.5 -27.5zM428 958q-29 0 -45.5 18t-16.5 44q0 25 17 43t46 18q30 0 46.5 -18t16.5 -43q0 -26 -17 -44t-47 -18zM345 782l-98 167
l82 10l65 -115l106 115l86 -10l-158 -167h-83z" />
    <glyph glyph-name="uni1E67" unicode="&#x1e67;" horiz-adv-x="461" 
d="M203 -9q-95 0 -144 38.5t-52 110.5l84 20q1 -47 28 -69.5t87 -22.5q50 0 81 20t31 54q0 23 -18 35.5t-46 20.5t-59.5 16t-59.5 22t-46 38.5t-18 65.5q0 53 30 90.5t77.5 58t100.5 20.5q72 0 116 -35t50 -94l-82 -21q-6 73 -89 73q-46 0 -76.5 -22t-30.5 -57
q0 -25 18 -38.5t46 -22.5t59.5 -17.5t59.5 -22t46 -37t18 -62.5q0 -51 -30.5 -87t-79 -55.5t-101.5 -19.5zM338 749q-29 0 -45.5 18t-16.5 43q0 26 17 44t46 18q30 0 46.5 -18t16.5 -44q0 -25 -17 -43t-47 -18zM255 573l-98 167l82 10l65 -115l106 115l86 -10l-158 -167h-83
z" />
    <glyph glyph-name="uni1E68" unicode="&#x1e68;" horiz-adv-x="575" 
d="M259 -8q-120 0 -183.5 56.5t-58.5 162.5l97 13q0 -75 37 -110t120 -35q76 0 118 32t42 91q0 30 -17.5 48.5t-46 30t-62.5 20.5t-68 21.5t-62.5 32t-46 52t-17.5 82.5q0 68 34.5 120t94.5 81.5t136 29.5q101 0 156 -51.5t53 -140.5l-92 -15q-3 120 -121 120
q-73 0 -115 -36.5t-42 -96.5q0 -34 17 -54t45.5 -32.5t63 -22t68.5 -21.5t62.5 -30t45.5 -48.5t17 -77.5q0 -67 -35 -117t-97.5 -77.5t-142.5 -27.5zM223 -203q-29 0 -45.5 18.5t-16.5 43.5t17.5 43.5t45.5 18.5q30 0 47 -18.5t17 -43.5t-17.5 -43.5t-47.5 -18.5zM398 789
q-29 0 -45.5 18t-16.5 44q0 25 17 43.5t46 18.5q30 0 46.5 -18.5t16.5 -43.5q0 -26 -17 -44t-47 -18z" />
    <glyph glyph-name="uni1E69" unicode="&#x1e69;" horiz-adv-x="461" 
d="M203 -9q-95 0 -144 38.5t-52 110.5l84 20q1 -47 28 -69.5t87 -22.5q50 0 81 20t31 54q0 23 -18 35.5t-46 20.5t-59.5 16t-59.5 22t-46 38.5t-18 65.5q0 53 30 90.5t77.5 58t100.5 20.5q72 0 116 -35t50 -94l-82 -21q-6 73 -89 73q-46 0 -76.5 -22t-30.5 -57
q0 -25 18 -38.5t46 -22.5t59.5 -17.5t59.5 -22t46 -37t18 -62.5q0 -51 -30.5 -87t-79 -55.5t-101.5 -19.5zM170 -203q-29 0 -45.5 18.5t-16.5 43.5t17.5 43.5t45.5 18.5q30 0 47 -18.5t17 -43.5t-17.5 -43.5t-47.5 -18.5zM308 580q-29 0 -45.5 18t-16.5 43q0 26 17 44t46 18
q30 0 46.5 -18t16.5 -44q0 -25 -17 -43t-47 -18z" />
    <glyph glyph-name="uni1E6C" unicode="&#x1e6c;" horiz-adv-x="559" 
d="M646 710l-26 -88h-225l-110 -622h-101l110 622h-231l16 88h567zM209 -203q-29 0 -45.5 18.5t-16.5 43.5t17.5 43.5t45.5 18.5q30 0 47 -18.5t17 -43.5t-17.5 -43.5t-47.5 -18.5z" />
    <glyph glyph-name="uni1E6D" unicode="&#x1e6d;" horiz-adv-x="385" 
d="M230 -9q-88 0 -127 52.5t-25 132.5l47 244h-88l15 81h88l20 104h95l-19 -104h168l-14 -81h-169l-47 -247q-9 -44 9 -70.5t66 -26.5q25 0 46 6t46 22l16 -75q-26 -20 -59.5 -29t-67.5 -9zM174 -203q-29 0 -45.5 18.5t-16.5 43.5t17.5 43.5t45.5 18.5q30 0 47 -18.5
t17 -43.5t-17.5 -43.5t-47.5 -18.5z" />
    <glyph glyph-name="uni1E6E" unicode="&#x1e6e;" horiz-adv-x="559" 
d="M646 710l-26 -88h-225l-110 -622h-101l110 622h-231l16 88h567zM59 -107h315l-12 -66h-315z" />
    <glyph glyph-name="uni1E6F" unicode="&#x1e6f;" horiz-adv-x="385" 
d="M230 -9q-88 0 -127 52.5t-25 132.5l47 244h-88l15 81h88l20 104h95l-19 -104h168l-14 -81h-169l-47 -247q-9 -44 9 -70.5t66 -26.5q25 0 46 6t46 22l16 -75q-26 -20 -59.5 -29t-67.5 -9zM23 -107h315l-12 -66h-315z" />
    <glyph glyph-name="uni1E78" unicode="&#x1e78;" horiz-adv-x="732" 
d="M637 710h100l-64 -374q-30 -177 -112.5 -261t-226.5 -84q-146 0 -211 81t-39 230l72 408h103l-71 -401q-40 -225 152 -225q101 0 155 59.5t78 196.5zM442 926l141 170l100 -27l-150 -143h-91zM541 777q-26 0 -53.5 15t-53.5 30t-47 15q-19 0 -37.5 -14.5t-31.5 -41.5
l-40 31q19 47 51 72.5t73 25.5q25 0 53 -15t54 -30t47 -15q43 0 70 56l38 -30q-18 -48 -50.5 -73.5t-72.5 -25.5z" />
    <glyph glyph-name="uni1E79" unicode="&#x1e79;" horiz-adv-x="575" 
d="M182 -9q-76 0 -111 53t-16 160l23 124q18 93 24 173h96q-3 -43 -10 -91.5t-14 -83.5l-23 -120q-25 -125 70 -125q45 0 88 38t81 130t66 252h93l-59 -331q-8 -48 -13 -95.5t-5 -74.5h-94q0 63 22 154q-39 -79 -94.5 -121t-123.5 -42zM326 717l141 169l100 -26l-150 -143
h-91zM425 568q-26 0 -53.5 15t-53.5 30t-47 15q-19 0 -37.5 -15t-31.5 -41l-40 31q19 47 51 72.5t73 25.5q25 0 53 -15t54 -30t47 -15q43 0 70 56l38 -31q-18 -47 -50.5 -72.5t-72.5 -25.5z" />
    <glyph glyph-name="uni1E7A" unicode="&#x1e7a;" horiz-adv-x="732" 
d="M637 710h100l-64 -374q-30 -177 -112.5 -261t-226.5 -84q-146 0 -211 81t-39 230l72 408h103l-71 -401q-40 -225 152 -225q101 0 155 59.5t78 196.5zM404 921q-28 0 -43.5 16.5t-15.5 39.5q0 21 15.5 38t44.5 17q26 0 41.5 -17t15.5 -38q0 -23 -15.5 -39.5t-42.5 -16.5z
M587 921q-28 0 -43.5 16.5t-15.5 39.5q0 21 15.5 38t43.5 17q27 0 42.5 -17t15.5 -38q0 -23 -15.5 -39.5t-42.5 -16.5zM318 808l12 67h295l-12 -67h-295z" />
    <glyph glyph-name="uni1E7B" unicode="&#x1e7b;" horiz-adv-x="575" 
d="M182 -9q-76 0 -111 53t-16 160l23 124q18 93 24 173h96q-3 -43 -10 -91.5t-14 -83.5l-23 -120q-25 -125 70 -125q45 0 88 38t81 130t66 252h93l-59 -331q-8 -48 -13 -95.5t-5 -74.5h-94q0 63 22 154q-39 -79 -94.5 -121t-123.5 -42zM288 711q-28 0 -43.5 17t-15.5 39
t15.5 39t44.5 17q26 0 41.5 -17t15.5 -39t-15.5 -39t-42.5 -17zM471 711q-28 0 -43.5 17t-15.5 39t15.5 39t43.5 17q27 0 42.5 -17t15.5 -39t-15.5 -39t-42.5 -17zM202 599l12 67h295l-12 -67h-295z" />
    <glyph glyph-name="Wgrave" unicode="&#x1e80;" horiz-adv-x="957" 
d="M925 710h103l-332 -710h-116l-38 574l-267 -574h-117l-50 710h96l36 -582l270 582h113l37 -582zM540 782l-104 151l109 26l85 -177h-90z" />
    <glyph glyph-name="wgrave" unicode="&#x1e81;" horiz-adv-x="849" 
d="M793 501h100l-272 -501h-114l-49 374l-203 -374h-114l-69 501h96l48 -405l217 405h97l49 -407zM452 573l-104 150l109 27l85 -177h-90z" />
    <glyph glyph-name="Wacute" unicode="&#x1e82;" horiz-adv-x="957" 
d="M925 710h103l-332 -710h-116l-38 574l-267 -574h-117l-50 710h96l36 -582l270 582h113l37 -582zM536 782l147 177l100 -26l-157 -151h-90z" />
    <glyph glyph-name="wacute" unicode="&#x1e83;" horiz-adv-x="849" 
d="M793 501h100l-272 -501h-114l-49 374l-203 -374h-114l-69 501h96l48 -405l217 405h97l49 -407zM448 573l147 177l100 -27l-157 -150h-90z" />
    <glyph glyph-name="Wdieresis" unicode="&#x1e84;" horiz-adv-x="957" 
d="M925 710h103l-332 -710h-116l-38 574l-267 -574h-117l-50 710h96l36 -582l270 582h113l37 -582zM686 777q-28 0 -43.5 17t-15.5 39t15.5 39t43.5 17q27 0 42.5 -17t15.5 -39t-15.5 -39t-42.5 -17zM504 777q-29 0 -44.5 17t-15.5 39t15.5 39t44.5 17q26 0 41.5 -17
t15.5 -39t-15.5 -39t-41.5 -17z" />
    <glyph glyph-name="wdieresis" unicode="&#x1e85;" horiz-adv-x="849" 
d="M793 501h100l-272 -501h-114l-49 374l-203 -374h-114l-69 501h96l48 -405l217 405h97l49 -407zM597 568q-28 0 -43.5 17t-15.5 39t15.5 38.5t43.5 16.5q27 0 42.5 -16.5t15.5 -38.5t-15.5 -39t-42.5 -17zM415 568q-29 0 -44.5 17t-15.5 39t15.5 38.5t44.5 16.5
q26 0 41.5 -16.5t15.5 -38.5t-15.5 -39t-41.5 -17z" />
    <glyph glyph-name="uni1E8E" unicode="&#x1e8e;" horiz-adv-x="566" 
d="M668 710l-322 -391l-57 -319h-102l57 320l-187 390h109l143 -301l247 301h112zM390 789q-29 0 -45.5 18t-16.5 44q0 25 17 43.5t46 18.5q30 0 46.5 -18.5t16.5 -43.5q0 -26 -17 -44t-47 -18z" />
    <glyph glyph-name="uni1E8F" unicode="&#x1e8f;" horiz-adv-x="580" 
d="M170 -210q-43 0 -88.5 9t-75.5 28l29 84q64 -35 143 -35q93 0 140 44.5t67 142.5l19 88q-44 -77 -98.5 -112t-113.5 -35q-79 0 -116 54t-20 151l22 119q9 45 15 88t9 85h96q-3 -43 -10 -91.5t-14 -83.5l-21 -108q-11 -59 5 -92t64 -33q49 0 93.5 38t81 127t64.5 243h92
l-75 -425q-26 -154 -101.5 -220t-206.5 -66zM358 580q-29 0 -45.5 18t-16.5 43q0 26 17 44t46 18q30 0 46.5 -18t16.5 -44q0 -25 -17 -43t-47 -18z" />
    <glyph glyph-name="uni1E92" unicode="&#x1e92;" horiz-adv-x="609" 
d="M-5 0l13 73l496 549h-383l16 88h521l-13 -73l-496 -549h411l-24 -88h-541zM240 -203q-29 0 -45.5 18.5t-16.5 43.5t17.5 43.5t45.5 18.5q30 0 47 -18.5t17 -43.5t-17.5 -43.5t-47.5 -18.5z" />
    <glyph glyph-name="uni1E93" unicode="&#x1e93;" horiz-adv-x="456" 
d="M-9 0l12 69l326 351h-253l14 81h376l-12 -68l-326 -353h262l-14 -80h-385zM164 -203q-29 0 -45.5 18.5t-16.5 43.5t17.5 43.5t45.5 18.5q30 0 47 -18.5t17 -43.5t-17.5 -43.5t-47.5 -18.5z" />
    <glyph glyph-name="uni1E97" unicode="&#x1e97;" horiz-adv-x="385" 
d="M230 -9q-88 0 -127 52.5t-25 132.5l47 244h-88l15 81h88l20 104h95l-19 -104h168l-14 -81h-169l-47 -247q-9 -44 9 -70.5t66 -26.5q25 0 46 6t46 22l16 -75q-26 -20 -59.5 -29t-67.5 -9zM321 672q-28 0 -43.5 17t-15.5 39t15.5 38.5t43.5 16.5q27 0 42.5 -16.5
t15.5 -38.5t-15.5 -39t-42.5 -17zM139 672q-29 0 -44.5 17t-15.5 39t15.5 38.5t44.5 16.5q26 0 41.5 -16.5t15.5 -38.5t-15.5 -39t-41.5 -17z" />
    <glyph glyph-name="uni1E9E" unicode="&#x1e9e;" horiz-adv-x="713" 
d="M459 720q109 0 172.5 -47t63.5 -128q0 -63 -36.5 -112t-101.5 -74q105 -36 105 -145q0 -64 -31.5 -114t-86 -79.5t-123.5 -29.5q-95 0 -148 47.5t-56 136.5l90 24q2 -121 118 -121q62 0 99 37t37 99q0 102 -134 102h-57l15 84h56q68 0 110 37t42 97q0 48 -36.5 74
t-103.5 26q-105 0 -164.5 -51.5t-78.5 -158.5l-75 -424h-102l77 434q25 139 114.5 212.5t234.5 73.5z" />
    <glyph glyph-name="uni1EA0" unicode="&#x1ea0;" horiz-adv-x="680" 
d="M-42 0l425 710h86l161 -710h-99l-37 177h-325l-104 -177h-107zM219 263h257l-69 323zM271 -203q-29 0 -45.5 18.5t-16.5 43.5t17.5 43.5t45.5 18.5q30 0 47 -18.5t17 -43.5t-17.5 -43.5t-47.5 -18.5z" />
    <glyph glyph-name="uni1EA1" unicode="&#x1ea1;" horiz-adv-x="588" 
d="M213 -9q-81 0 -127 48t-46 135q0 70 22.5 131t63.5 107t95.5 71.5t118.5 25.5q42 0 80 -13t61 -35l17 39h69q-10 -48 -19 -91.5t-17 -85.5l-27 -153q-8 -48 -13 -95.5t-5 -74.5h-94q0 29 3.5 59t10.5 59q-36 -65 -85 -96t-108 -31zM235 78q48 0 88.5 27.5t68.5 77.5
t40 117l15 86q-38 38 -106 38q-64 0 -109 -34t-69 -88.5t-24 -116.5q0 -52 25 -79.5t71 -27.5zM242 -203q-29 0 -45.5 18.5t-16.5 43.5t17.5 43.5t45.5 18.5q30 0 47 -18.5t17 -43.5t-17.5 -43.5t-47.5 -18.5z" />
    <glyph glyph-name="uni1EA2" unicode="&#x1ea2;" horiz-adv-x="680" 
d="M-42 0l425 710h86l161 -710h-99l-37 177h-325l-104 -177h-107zM219 263h257l-69 323zM478 960q38 0 61 -16t23 -44q0 -26 -14 -40t-32.5 -23.5t-34 -21.5t-19.5 -33h-55l2 14q4 23 16 36.5t25.5 22t23.5 16.5t10 20q0 17 -26 17q-17 0 -37 -9.5t-36 -29.5l-33 33
q22 29 55.5 43.5t70.5 14.5z" />
    <glyph glyph-name="uni1EA3" unicode="&#x1ea3;" horiz-adv-x="588" 
d="M213 -9q-81 0 -127 48t-46 135q0 70 22.5 131t63.5 107t95.5 71.5t118.5 25.5q42 0 80 -13t61 -35l17 39h69q-10 -48 -19 -91.5t-17 -85.5l-27 -153q-8 -48 -13 -95.5t-5 -74.5h-94q0 29 3.5 59t10.5 59q-36 -65 -85 -96t-108 -31zM235 78q48 0 88.5 27.5t68.5 77.5
t40 117l15 86q-38 38 -106 38q-64 0 -109 -34t-69 -88.5t-24 -116.5q0 -52 25 -79.5t71 -27.5zM413 751q38 0 61 -16.5t23 -44.5q0 -25 -14 -39.5t-32.5 -24t-34 -21t-19.5 -32.5h-55l2 13q4 24 16 37.5t25.5 22t23.5 16t10 19.5q0 18 -26 18q-17 0 -37 -9.5t-36 -29.5
l-33 33q22 28 55.5 43t70.5 15z" />
    <glyph glyph-name="uni1EA4" unicode="&#x1ea4;" horiz-adv-x="680" 
d="M-42 0l425 710h86l161 -710h-99l-37 177h-325l-104 -177h-107zM219 263h257l-69 323zM555 919l148 177l98 -26l-157 -151h-89zM265 782l158 167h83l98 -167h-90l-59 105l-96 -105h-94z" />
    <glyph glyph-name="uni1EA5" unicode="&#x1ea5;" horiz-adv-x="588" 
d="M213 -9q-81 0 -127 48t-46 135q0 70 22.5 131t63.5 107t95.5 71.5t118.5 25.5q42 0 80 -13t61 -35l17 39h69q-10 -48 -19 -91.5t-17 -85.5l-27 -153q-8 -48 -13 -95.5t-5 -74.5h-94q0 29 3.5 59t10.5 59q-36 -65 -85 -96t-108 -31zM235 78q48 0 88.5 27.5t68.5 77.5
t40 117l15 86q-38 38 -106 38q-64 0 -109 -34t-69 -88.5t-24 -116.5q0 -52 25 -79.5t71 -27.5zM490 710l148 177l98 -27l-157 -150h-89zM200 573l158 167h83l98 -167h-90l-59 105l-96 -105h-94z" />
    <glyph glyph-name="uni1EA6" unicode="&#x1ea6;" horiz-adv-x="680" 
d="M-42 0l425 710h86l161 -710h-99l-37 177h-325l-104 -177h-107zM219 263h257l-69 323zM274 919l-103 151l105 26l84 -177h-86zM265 782l158 167h83l98 -167h-90l-59 105l-96 -105h-94z" />
    <glyph glyph-name="uni1EA7" unicode="&#x1ea7;" horiz-adv-x="588" 
d="M213 -9q-81 0 -127 48t-46 135q0 70 22.5 131t63.5 107t95.5 71.5t118.5 25.5q42 0 80 -13t61 -35l17 39h69q-10 -48 -19 -91.5t-17 -85.5l-27 -153q-8 -48 -13 -95.5t-5 -74.5h-94q0 29 3.5 59t10.5 59q-36 -65 -85 -96t-108 -31zM235 78q48 0 88.5 27.5t68.5 77.5
t40 117l15 86q-38 38 -106 38q-64 0 -109 -34t-69 -88.5t-24 -116.5q0 -52 25 -79.5t71 -27.5zM209 710l-103 150l105 27l84 -177h-86zM200 573l158 167h83l98 -167h-90l-59 105l-96 -105h-94z" />
    <glyph glyph-name="uni1EA8" unicode="&#x1ea8;" horiz-adv-x="680" 
d="M-42 0l425 710h86l161 -710h-99l-37 177h-325l-104 -177h-107zM219 263h257l-69 323zM569 919l2 14q4 23 16 36.5t25.5 22t23.5 16.5t10 20q0 17 -26 17q-18 0 -37.5 -9.5t-35.5 -29.5l-33 33q22 29 55.5 43.5t70.5 14.5q38 0 60.5 -16t22.5 -44q0 -26 -13.5 -40
t-32 -23.5t-34.5 -21.5t-20 -33h-54zM265 782l158 167h83l98 -167h-90l-59 105l-96 -105h-94z" />
    <glyph glyph-name="uni1EA9" unicode="&#x1ea9;" horiz-adv-x="588" 
d="M213 -9q-81 0 -127 48t-46 135q0 70 22.5 131t63.5 107t95.5 71.5t118.5 25.5q42 0 80 -13t61 -35l17 39h69q-10 -48 -19 -91.5t-17 -85.5l-27 -153q-8 -48 -13 -95.5t-5 -74.5h-94q0 29 3.5 59t10.5 59q-36 -65 -85 -96t-108 -31zM235 78q48 0 88.5 27.5t68.5 77.5
t40 117l15 86q-38 38 -106 38q-64 0 -109 -34t-69 -88.5t-24 -116.5q0 -52 25 -79.5t71 -27.5zM504 710l2 13q4 24 16 37.5t25.5 22t23.5 16t10 19.5q0 18 -26 18q-18 0 -37.5 -9.5t-35.5 -29.5l-33 33q22 28 55.5 43t70.5 15q38 0 60.5 -16.5t22.5 -44.5q0 -25 -13.5 -39.5
t-32 -24t-34.5 -21t-20 -32.5h-54zM200 573l158 167h83l98 -167h-90l-59 105l-96 -105h-94z" />
    <glyph glyph-name="uni1EAA" unicode="&#x1eaa;" horiz-adv-x="680" 
d="M-42 0l425 710h86l161 -710h-99l-37 177h-325l-104 -177h-107zM219 263h257l-69 323zM629 1090l35 -35q-17 -42 -47 -65t-65 -23q-29 0 -57.5 13.5t-54.5 26.5t-47 13q-41 0 -65 -49l-35 34q35 89 112 89q27 0 56 -13.5t55.5 -27t46.5 -13.5q42 0 66 50zM265 782l157 162
h83l99 -162h-90l-59 101l-96 -101h-94z" />
    <glyph glyph-name="uni1EAB" unicode="&#x1eab;" horiz-adv-x="588" 
d="M213 -9q-81 0 -127 48t-46 135q0 70 22.5 131t63.5 107t95.5 71.5t118.5 25.5q42 0 80 -13t61 -35l17 39h69q-10 -48 -19 -91.5t-17 -85.5l-27 -153q-8 -48 -13 -95.5t-5 -74.5h-94q0 29 3.5 59t10.5 59q-36 -65 -85 -96t-108 -31zM235 78q48 0 88.5 27.5t68.5 77.5
t40 117l15 86q-38 38 -106 38q-64 0 -109 -34t-69 -88.5t-24 -116.5q0 -52 25 -79.5t71 -27.5zM564 880l35 -34q-17 -43 -47 -65.5t-65 -22.5q-29 0 -57.5 13t-54.5 26.5t-47 13.5q-41 0 -65 -49l-35 34q35 88 112 88q27 0 56 -13.5t55.5 -26.5t46.5 -13q42 0 66 49z
M200 573l157 162h83l99 -162h-90l-59 100l-96 -100h-94z" />
    <glyph glyph-name="uni1EAC" unicode="&#x1eac;" horiz-adv-x="680" 
d="M-42 0l425 710h86l161 -710h-99l-37 177h-325l-104 -177h-107zM219 263h257l-69 323zM271 -203q-29 0 -45.5 18.5t-16.5 43.5t17.5 43.5t45.5 18.5q30 0 47 -18.5t17 -43.5t-17.5 -43.5t-47.5 -18.5zM604 782h-87l-59 105l-97 -105h-96l158 167h83z" />
    <glyph glyph-name="uni1EAD" unicode="&#x1ead;" horiz-adv-x="588" 
d="M213 -9q-81 0 -127 48t-46 135q0 70 22.5 131t63.5 107t95.5 71.5t118.5 25.5q42 0 80 -13t61 -35l17 39h69q-10 -48 -19 -91.5t-17 -85.5l-27 -153q-8 -48 -13 -95.5t-5 -74.5h-94q0 29 3.5 59t10.5 59q-36 -65 -85 -96t-108 -31zM235 78q48 0 88.5 27.5t68.5 77.5
t40 117l15 86q-38 38 -106 38q-64 0 -109 -34t-69 -88.5t-24 -116.5q0 -52 25 -79.5t71 -27.5zM242 -203q-29 0 -45.5 18.5t-16.5 43.5t17.5 43.5t45.5 18.5q30 0 47 -18.5t17 -43.5t-17.5 -43.5t-47.5 -18.5zM539 573h-87l-59 105l-97 -105h-96l158 167h83z" />
    <glyph glyph-name="uni1EAE" unicode="&#x1eae;" horiz-adv-x="680" 
d="M-42 0l425 710h86l161 -710h-99l-37 177h-325l-104 -177h-107zM219 263h257l-69 323zM409 926l141 170l100 -27l-151 -143h-90zM566 960l64 -11q-15 -77 -66.5 -124.5t-119.5 -47.5q-73 0 -111 46.5t-34 125.5l67 11q-6 -115 83 -115q84 0 117 115z" />
    <glyph glyph-name="uni1EAF" unicode="&#x1eaf;" horiz-adv-x="588" 
d="M213 -9q-81 0 -127 48t-46 135q0 70 22.5 131t63.5 107t95.5 71.5t118.5 25.5q42 0 80 -13t61 -35l17 39h69q-10 -48 -19 -91.5t-17 -85.5l-27 -153q-8 -48 -13 -95.5t-5 -74.5h-94q0 29 3.5 59t10.5 59q-36 -65 -85 -96t-108 -31zM235 78q48 0 88.5 27.5t68.5 77.5
t40 117l15 86q-38 38 -106 38q-64 0 -109 -34t-69 -88.5t-24 -116.5q0 -52 25 -79.5t71 -27.5zM344 717l141 169l100 -26l-151 -143h-90zM501 751l64 -11q-15 -79 -66.5 -125.5t-119.5 -46.5q-73 0 -111 46.5t-34 125.5l67 11q-6 -115 83 -115q84 0 117 115z" />
    <glyph glyph-name="uni1EB0" unicode="&#x1eb0;" horiz-adv-x="680" 
d="M-42 0l425 710h86l161 -710h-99l-37 177h-325l-104 -177h-107zM219 263h257l-69 323zM420 926l-99 143l109 27l81 -170h-91zM566 960l64 -11q-15 -79 -66.5 -125.5t-119.5 -46.5q-73 0 -111 46.5t-34 125.5l67 11q-6 -115 83 -115q84 0 117 115z" />
    <glyph glyph-name="uni1EB1" unicode="&#x1eb1;" horiz-adv-x="588" 
d="M213 -9q-81 0 -127 48t-46 135q0 70 22.5 131t63.5 107t95.5 71.5t118.5 25.5q42 0 80 -13t61 -35l17 39h69q-10 -48 -19 -91.5t-17 -85.5l-27 -153q-8 -48 -13 -95.5t-5 -74.5h-94q0 29 3.5 59t10.5 59q-36 -65 -85 -96t-108 -31zM235 78q48 0 88.5 27.5t68.5 77.5
t40 117l15 86q-38 38 -106 38q-64 0 -109 -34t-69 -88.5t-24 -116.5q0 -52 25 -79.5t71 -27.5zM355 717l-99 143l109 26l81 -169h-91zM501 751l64 -11q-15 -79 -66.5 -125.5t-119.5 -46.5q-73 0 -111 46.5t-34 125.5l67 11q-6 -115 83 -115q84 0 117 115z" />
    <glyph glyph-name="uni1EB2" unicode="&#x1eb2;" horiz-adv-x="680" 
d="M-42 0l425 710h86l161 -710h-99l-37 177h-325l-104 -177h-107zM219 263h257l-69 323zM504 1104q38 0 60.5 -16.5t22.5 -44.5q0 -25 -14 -39.5t-32.5 -24t-34 -21t-19.5 -32.5h-55l2 13q4 24 16 37.5t26 22t23.5 16t9.5 19.5q0 18 -26 18q-17 0 -37 -9.5t-36 -29.5l-33 33
q22 28 55.5 43t71.5 15zM566 960l64 -11q-15 -79 -66.5 -125.5t-119.5 -46.5q-73 0 -111 46.5t-34 125.5l67 11q-6 -115 83 -115q84 0 117 115z" />
    <glyph glyph-name="uni1EB3" unicode="&#x1eb3;" horiz-adv-x="588" 
d="M213 -9q-81 0 -127 48t-46 135q0 70 22.5 131t63.5 107t95.5 71.5t118.5 25.5q42 0 80 -13t61 -35l17 39h69q-10 -48 -19 -91.5t-17 -85.5l-27 -153q-8 -48 -13 -95.5t-5 -74.5h-94q0 29 3.5 59t10.5 59q-36 -65 -85 -96t-108 -31zM235 78q48 0 88.5 27.5t68.5 77.5
t40 117l15 86q-38 38 -106 38q-64 0 -109 -34t-69 -88.5t-24 -116.5q0 -52 25 -79.5t71 -27.5zM439 895q38 0 60.5 -16.5t22.5 -44.5q0 -26 -14 -40t-32.5 -23.5t-34 -21.5t-19.5 -32h-55l2 13q4 23 16 37t26 22t23.5 16t9.5 20q0 18 -26 18q-17 0 -37 -9.5t-36 -30.5
l-33 34q22 28 55.5 43t71.5 15zM501 751l64 -11q-15 -79 -66.5 -125.5t-119.5 -46.5q-73 0 -111 46.5t-34 125.5l67 11q-6 -115 83 -115q84 0 117 115z" />
    <glyph glyph-name="uni1EB4" unicode="&#x1eb4;" horiz-adv-x="680" 
d="M-42 0l425 710h86l161 -710h-99l-37 177h-325l-104 -177h-107zM219 263h257l-69 323zM629 1090l35 -35q-15 -42 -46 -65t-73 -23q-26 0 -53 13.5t-52.5 26.5t-46.5 13q-20 0 -38 -12.5t-27 -36.5l-35 34q15 43 46 66t73 23q25 0 52.5 -13.5t53 -27t45.5 -13.5q47 0 66 50
zM357 943q1 -98 94 -98q84 0 115 98l66 -11q-19 -76 -67.5 -115.5t-119.5 -39.5t-113 41.5t-42 113.5z" />
    <glyph glyph-name="uni1EB5" unicode="&#x1eb5;" horiz-adv-x="588" 
d="M213 -9q-81 0 -127 48t-46 135q0 70 22.5 131t63.5 107t95.5 71.5t118.5 25.5q42 0 80 -13t61 -35l17 39h69q-10 -48 -19 -91.5t-17 -85.5l-27 -153q-8 -48 -13 -95.5t-5 -74.5h-94q0 29 3.5 59t10.5 59q-36 -65 -85 -96t-108 -31zM235 78q48 0 88.5 27.5t68.5 77.5
t40 117l15 86q-38 38 -106 38q-64 0 -109 -34t-69 -88.5t-24 -116.5q0 -52 25 -79.5t71 -27.5zM564 880l35 -34q-15 -43 -46 -65.5t-73 -22.5q-26 0 -53 13t-52.5 26.5t-46.5 13.5q-20 0 -38 -13t-27 -36l-35 34q15 42 46 65t73 23q25 0 52.5 -13.5t53 -26.5t45.5 -13
q47 0 66 49zM292 733q1 -97 94 -97q84 0 115 97l66 -10q-19 -77 -67.5 -116t-119.5 -39t-113 41.5t-42 113.5z" />
    <glyph glyph-name="uni1EB6" unicode="&#x1eb6;" horiz-adv-x="680" 
d="M-42 0l425 710h86l161 -710h-99l-37 177h-325l-104 -177h-107zM219 263h257l-69 323zM271 -203q-29 0 -45.5 18.5t-16.5 43.5t17.5 43.5t45.5 18.5q30 0 47 -18.5t17 -43.5t-17.5 -43.5t-47.5 -18.5zM566 960l64 -11q-15 -79 -66.5 -125.5t-119.5 -46.5q-73 0 -111 46.5
t-34 125.5l67 11q-6 -115 83 -115q84 0 117 115z" />
    <glyph glyph-name="uni1EB7" unicode="&#x1eb7;" horiz-adv-x="588" 
d="M213 -9q-81 0 -127 48t-46 135q0 70 22.5 131t63.5 107t95.5 71.5t118.5 25.5q42 0 80 -13t61 -35l17 39h69q-10 -48 -19 -91.5t-17 -85.5l-27 -153q-8 -48 -13 -95.5t-5 -74.5h-94q0 29 3.5 59t10.5 59q-36 -65 -85 -96t-108 -31zM235 78q48 0 88.5 27.5t68.5 77.5
t40 117l15 86q-38 38 -106 38q-64 0 -109 -34t-69 -88.5t-24 -116.5q0 -52 25 -79.5t71 -27.5zM242 -203q-29 0 -45.5 18.5t-16.5 43.5t17.5 43.5t45.5 18.5q30 0 47 -18.5t17 -43.5t-17.5 -43.5t-47.5 -18.5zM501 751l64 -11q-15 -79 -66.5 -125.5t-119.5 -46.5
q-73 0 -111 46.5t-34 125.5l67 11q-6 -115 83 -115q84 0 117 115z" />
    <glyph glyph-name="uni1EB8" unicode="&#x1eb8;" horiz-adv-x="552" 
d="M149 87h346l-24 -87h-438l125 710h434l-16 -87h-333l-39 -220h321l-15 -87h-321zM224 -203q-29 0 -45.5 18.5t-16.5 43.5t17.5 43.5t45.5 18.5q30 0 47 -18.5t17 -43.5t-17.5 -43.5t-47.5 -18.5z" />
    <glyph glyph-name="uni1EB9" unicode="&#x1eb9;" horiz-adv-x="539" 
d="M264 -9q-99 0 -160 53.5t-61 151.5q0 85 36 156t101.5 114t154.5 43q84 0 129 -39.5t45 -99.5q0 -62 -42.5 -106t-140.5 -49l-187 -10q-2 -62 34.5 -95t103.5 -33q38 0 77.5 16t66.5 48l48 -59q-38 -47 -90 -69t-115 -22zM327 435q-49 0 -85.5 -21t-60 -56.5t-32.5 -78.5
l170 10q58 2 81 23.5t23 53.5q0 30 -23 49.5t-73 19.5zM219 -203q-29 0 -45.5 18.5t-16.5 43.5t17.5 43.5t45.5 18.5q30 0 47 -18.5t17 -43.5t-17.5 -43.5t-47.5 -18.5z" />
    <glyph glyph-name="uni1EBA" unicode="&#x1eba;" horiz-adv-x="552" 
d="M149 87h346l-24 -87h-438l125 710h434l-16 -87h-333l-39 -220h321l-15 -87h-321zM432 960q38 0 61 -16t23 -44q0 -26 -14 -40t-32.5 -23.5t-34 -21.5t-19.5 -33h-55l2 14q4 23 16 36.5t25.5 22t23.5 16.5t10 20q0 17 -26 17q-17 0 -37 -9.5t-36 -29.5l-33 33
q22 29 55.5 43.5t70.5 14.5z" />
    <glyph glyph-name="uni1EBB" unicode="&#x1ebb;" horiz-adv-x="539" 
d="M264 -9q-99 0 -160 53.5t-61 151.5q0 85 36 156t101.5 114t154.5 43q84 0 129 -39.5t45 -99.5q0 -62 -42.5 -106t-140.5 -49l-187 -10q-2 -62 34.5 -95t103.5 -33q38 0 77.5 16t66.5 48l48 -59q-38 -47 -90 -69t-115 -22zM327 435q-49 0 -85.5 -21t-60 -56.5t-32.5 -78.5
l170 10q58 2 81 23.5t23 53.5q0 30 -23 49.5t-73 19.5zM389 751q38 0 61 -16.5t23 -44.5q0 -25 -14 -39.5t-32.5 -24t-34 -21t-19.5 -32.5h-55l2 13q4 24 16 37.5t25.5 22t23.5 16t10 19.5q0 18 -26 18q-17 0 -37 -9.5t-36 -29.5l-33 33q22 28 55.5 43t70.5 15z" />
    <glyph glyph-name="uni1EBC" unicode="&#x1ebc;" horiz-adv-x="552" 
d="M149 87h346l-24 -87h-438l125 710h434l-16 -87h-333l-39 -220h321l-15 -87h-321zM469 777q-26 0 -53.5 15t-53.5 30t-47 15q-19 0 -37.5 -14.5t-31.5 -41.5l-40 31q19 47 51 72.5t73 25.5q25 0 53 -15t54 -30t47 -15q43 0 70 56l38 -30q-18 -48 -50.5 -73.5t-72.5 -25.5z
" />
    <glyph glyph-name="uni1EBD" unicode="&#x1ebd;" horiz-adv-x="539" 
d="M264 -9q-99 0 -160 53.5t-61 151.5q0 85 36 156t101.5 114t154.5 43q84 0 129 -39.5t45 -99.5q0 -62 -42.5 -106t-140.5 -49l-187 -10q-2 -62 34.5 -95t103.5 -33q38 0 77.5 16t66.5 48l48 -59q-38 -47 -90 -69t-115 -22zM327 435q-49 0 -85.5 -21t-60 -56.5t-32.5 -78.5
l170 10q58 2 81 23.5t23 53.5q0 30 -23 49.5t-73 19.5zM426 568q-26 0 -53.5 15t-53.5 30t-47 15q-19 0 -37.5 -15t-31.5 -41l-40 31q19 47 51 72.5t73 25.5q25 0 53 -15t54 -30t47 -15q43 0 70 56l38 -31q-18 -47 -50.5 -72.5t-72.5 -25.5z" />
    <glyph glyph-name="uni1EBE" unicode="&#x1ebe;" horiz-adv-x="552" 
d="M149 87h346l-24 -87h-438l125 710h434l-16 -87h-333l-39 -220h321l-15 -87h-321zM509 919l148 177l98 -26l-157 -151h-89zM219 782l158 167h83l98 -167h-90l-59 105l-96 -105h-94z" />
    <glyph glyph-name="uni1EBF" unicode="&#x1ebf;" horiz-adv-x="539" 
d="M264 -9q-99 0 -160 53.5t-61 151.5q0 85 36 156t101.5 114t154.5 43q84 0 129 -39.5t45 -99.5q0 -62 -42.5 -106t-140.5 -49l-187 -10q-2 -62 34.5 -95t103.5 -33q38 0 77.5 16t66.5 48l48 -59q-38 -47 -90 -69t-115 -22zM327 435q-49 0 -85.5 -21t-60 -56.5t-32.5 -78.5
l170 10q58 2 81 23.5t23 53.5q0 30 -23 49.5t-73 19.5zM466 710l148 177l98 -27l-157 -150h-89zM176 573l158 167h83l98 -167h-90l-59 105l-96 -105h-94z" />
    <glyph glyph-name="uni1EC0" unicode="&#x1ec0;" horiz-adv-x="552" 
d="M149 87h346l-24 -87h-438l125 710h434l-16 -87h-333l-39 -220h321l-15 -87h-321zM228 919l-103 151l105 26l84 -177h-86zM219 782l158 167h83l98 -167h-90l-59 105l-96 -105h-94z" />
    <glyph glyph-name="uni1EC1" unicode="&#x1ec1;" horiz-adv-x="539" 
d="M264 -9q-99 0 -160 53.5t-61 151.5q0 85 36 156t101.5 114t154.5 43q84 0 129 -39.5t45 -99.5q0 -62 -42.5 -106t-140.5 -49l-187 -10q-2 -62 34.5 -95t103.5 -33q38 0 77.5 16t66.5 48l48 -59q-38 -47 -90 -69t-115 -22zM327 435q-49 0 -85.5 -21t-60 -56.5t-32.5 -78.5
l170 10q58 2 81 23.5t23 53.5q0 30 -23 49.5t-73 19.5zM185 710l-103 150l105 27l84 -177h-86zM176 573l158 167h83l98 -167h-90l-59 105l-96 -105h-94z" />
    <glyph glyph-name="uni1EC2" unicode="&#x1ec2;" horiz-adv-x="552" 
d="M149 87h346l-24 -87h-438l125 710h434l-16 -87h-333l-39 -220h321l-15 -87h-321zM523 919l2 14q4 23 16 36.5t25.5 22t23.5 16.5t10 20q0 17 -26 17q-18 0 -37.5 -9.5t-35.5 -29.5l-33 33q22 29 55.5 43.5t70.5 14.5q38 0 60.5 -16t22.5 -44q0 -26 -13.5 -40t-32 -23.5
t-34.5 -21.5t-20 -33h-54zM219 782l158 167h83l98 -167h-90l-59 105l-96 -105h-94z" />
    <glyph glyph-name="uni1EC3" unicode="&#x1ec3;" horiz-adv-x="539" 
d="M264 -9q-99 0 -160 53.5t-61 151.5q0 85 36 156t101.5 114t154.5 43q84 0 129 -39.5t45 -99.5q0 -62 -42.5 -106t-140.5 -49l-187 -10q-2 -62 34.5 -95t103.5 -33q38 0 77.5 16t66.5 48l48 -59q-38 -47 -90 -69t-115 -22zM327 435q-49 0 -85.5 -21t-60 -56.5t-32.5 -78.5
l170 10q58 2 81 23.5t23 53.5q0 30 -23 49.5t-73 19.5zM480 710l2 13q4 24 16 37.5t25.5 22t23.5 16t10 19.5q0 18 -26 18q-18 0 -37.5 -9.5t-35.5 -29.5l-33 33q22 28 55.5 43t70.5 15q38 0 60.5 -16.5t22.5 -44.5q0 -25 -13.5 -39.5t-32 -24t-34.5 -21t-20 -32.5h-54z
M176 573l158 167h83l98 -167h-90l-59 105l-96 -105h-94z" />
    <glyph glyph-name="uni1EC4" unicode="&#x1ec4;" horiz-adv-x="552" 
d="M149 87h346l-24 -87h-438l125 710h434l-16 -87h-333l-39 -220h321l-15 -87h-321zM583 1090l35 -35q-17 -42 -47 -65t-65 -23q-29 0 -57.5 13.5t-54.5 26.5t-47 13q-41 0 -65 -49l-35 34q35 89 112 89q27 0 56 -13.5t55.5 -27t46.5 -13.5q42 0 66 50zM219 782l157 162h83
l99 -162h-90l-59 101l-96 -101h-94z" />
    <glyph glyph-name="uni1EC5" unicode="&#x1ec5;" horiz-adv-x="539" 
d="M264 -9q-99 0 -160 53.5t-61 151.5q0 85 36 156t101.5 114t154.5 43q84 0 129 -39.5t45 -99.5q0 -62 -42.5 -106t-140.5 -49l-187 -10q-2 -62 34.5 -95t103.5 -33q38 0 77.5 16t66.5 48l48 -59q-38 -47 -90 -69t-115 -22zM327 435q-49 0 -85.5 -21t-60 -56.5t-32.5 -78.5
l170 10q58 2 81 23.5t23 53.5q0 30 -23 49.5t-73 19.5zM540 880l35 -34q-17 -43 -47 -65.5t-65 -22.5q-29 0 -57.5 13t-54.5 26.5t-47 13.5q-41 0 -65 -49l-35 34q35 88 112 88q27 0 56 -13.5t55.5 -26.5t46.5 -13q42 0 66 49zM176 573l157 162h83l99 -162h-90l-59 100
l-96 -100h-94z" />
    <glyph glyph-name="uni1EC6" unicode="&#x1ec6;" horiz-adv-x="552" 
d="M149 87h346l-24 -87h-438l125 710h434l-16 -87h-333l-39 -220h321l-15 -87h-321zM224 -203q-29 0 -45.5 18.5t-16.5 43.5t17.5 43.5t45.5 18.5q30 0 47 -18.5t17 -43.5t-17.5 -43.5t-47.5 -18.5zM558 782h-87l-59 105l-97 -105h-96l158 167h83z" />
    <glyph glyph-name="uni1EC7" unicode="&#x1ec7;" horiz-adv-x="539" 
d="M264 -9q-99 0 -160 53.5t-61 151.5q0 85 36 156t101.5 114t154.5 43q84 0 129 -39.5t45 -99.5q0 -62 -42.5 -106t-140.5 -49l-187 -10q-2 -62 34.5 -95t103.5 -33q38 0 77.5 16t66.5 48l48 -59q-38 -47 -90 -69t-115 -22zM327 435q-49 0 -85.5 -21t-60 -56.5t-32.5 -78.5
l170 10q58 2 81 23.5t23 53.5q0 30 -23 49.5t-73 19.5zM219 -203q-29 0 -45.5 18.5t-16.5 43.5t17.5 43.5t45.5 18.5q30 0 47 -18.5t17 -43.5t-17.5 -43.5t-47.5 -18.5zM515 573h-87l-59 105l-97 -105h-96l158 167h83z" />
    <glyph glyph-name="uni1EC8" unicode="&#x1ec8;" horiz-adv-x="257" 
d="M33 0l125 710h102l-125 -710h-102zM266 960q38 0 61 -16t23 -44q0 -26 -14 -40t-32.5 -23.5t-34 -21.5t-19.5 -33h-55l2 14q4 23 16 36.5t25.5 22t23.5 16.5t10 20q0 17 -26 17q-17 0 -37 -9.5t-36 -29.5l-33 33q22 29 55.5 43.5t70.5 14.5z" />
    <glyph glyph-name="uni1EC9" unicode="&#x1ec9;" horiz-adv-x="236" 
d="M35 0q0 31 4 63t9 63l36 202q8 47 14 89t9 84h97q-3 -43 -11 -91.5t-14 -83.5l-35 -193q-6 -34 -9 -67t-3 -66h-97zM212 751q38 0 61 -16.5t23 -44.5q0 -25 -14 -39.5t-32.5 -24t-34 -21t-19.5 -32.5h-55l2 13q4 24 16 37.5t25.5 22t23.5 16t10 19.5q0 18 -26 18
q-17 0 -37 -9.5t-36 -29.5l-33 33q22 28 55.5 43t70.5 15z" />
    <glyph glyph-name="uni1ECA" unicode="&#x1eca;" horiz-adv-x="257" 
d="M33 0l125 710h102l-125 -710h-102zM59 -203q-29 0 -45.5 18.5t-16.5 43.5t17.5 43.5t45.5 18.5q30 0 47 -18.5t17 -43.5t-17.5 -43.5t-47.5 -18.5z" />
    <glyph glyph-name="uni1ECB" unicode="&#x1ecb;" horiz-adv-x="236" 
d="M35 0q0 31 4 63t9 63l36 202q8 47 14 89t9 84h97q-3 -43 -11 -91.5t-14 -83.5l-35 -193q-6 -34 -9 -67t-3 -66h-97zM185 598q-29 0 -46 18.5t-17 43.5t17 43.5t46 18.5t46 -18.5t17 -43.5t-17 -43.5t-46 -18.5zM92 -203q-29 0 -45.5 18.5t-16.5 43.5t17.5 43.5t45.5 18.5
q30 0 47 -18.5t17 -43.5t-17.5 -43.5t-47.5 -18.5z" />
    <glyph glyph-name="uni1ECC" unicode="&#x1ecc;" horiz-adv-x="773" 
d="M346 -9q-134 0 -209.5 72t-75.5 201q0 92 30.5 174t86 145.5t131 100t165.5 36.5q84 0 145.5 -34.5t94.5 -97t33 -147.5q0 -90 -29.5 -171t-83.5 -144t-127.5 -99t-160.5 -36zM353 84q66 0 119.5 28.5t92 78.5t59 113.5t20.5 132.5q0 90 -46.5 140.5t-131.5 50.5
q-68 0 -123 -29t-95 -79t-61.5 -114t-21.5 -135q0 -90 48 -138.5t140 -48.5zM316 -203q-29 0 -45.5 18.5t-16.5 43.5t17.5 43.5t45.5 18.5q30 0 47 -18.5t17 -43.5t-17.5 -43.5t-47.5 -18.5z" />
    <glyph glyph-name="uni1ECD" unicode="&#x1ecd;" horiz-adv-x="575" 
d="M337 509q89 0 142.5 -50.5t53.5 -143.5q0 -69 -22 -127.5t-62 -102.5t-93 -69t-115 -25q-91 0 -145.5 51t-54.5 143q0 60 20 118t57.5 104.5t92.5 74t126 27.5zM251 77q57 0 98 33t63.5 85.5t22.5 111.5q0 57 -29 87t-81 30q-59 0 -100.5 -33.5t-63.5 -85.5t-22 -110
q0 -57 29.5 -87.5t82.5 -30.5zM218 -203q-29 0 -45.5 18.5t-16.5 43.5t17.5 43.5t45.5 18.5q30 0 47 -18.5t17 -43.5t-17.5 -43.5t-47.5 -18.5z" />
    <glyph glyph-name="uni1ECE" unicode="&#x1ece;" horiz-adv-x="773" 
d="M346 -9q-134 0 -209.5 72t-75.5 201q0 92 30.5 174t86 145.5t131 100t165.5 36.5q84 0 145.5 -34.5t94.5 -97t33 -147.5q0 -90 -29.5 -171t-83.5 -144t-127.5 -99t-160.5 -36zM353 84q66 0 119.5 28.5t92 78.5t59 113.5t20.5 132.5q0 90 -46.5 140.5t-131.5 50.5
q-68 0 -123 -29t-95 -79t-61.5 -114t-21.5 -135q0 -90 48 -138.5t140 -48.5zM523 960q38 0 61 -16t23 -44q0 -26 -14 -40t-32.5 -23.5t-34 -21.5t-19.5 -33h-55l2 14q4 23 16 36.5t25.5 22t23.5 16.5t10 20q0 17 -26 17q-17 0 -37 -9.5t-36 -29.5l-33 33q22 29 55.5 43.5
t70.5 14.5z" />
    <glyph glyph-name="uni1ECF" unicode="&#x1ecf;" horiz-adv-x="575" 
d="M337 509q89 0 142.5 -50.5t53.5 -143.5q0 -69 -22 -127.5t-62 -102.5t-93 -69t-115 -25q-91 0 -145.5 51t-54.5 143q0 60 20 118t57.5 104.5t92.5 74t126 27.5zM251 77q57 0 98 33t63.5 85.5t22.5 111.5q0 57 -29 87t-81 30q-59 0 -100.5 -33.5t-63.5 -85.5t-22 -110
q0 -57 29.5 -87.5t82.5 -30.5zM388 751q38 0 61 -16.5t23 -44.5q0 -25 -14 -39.5t-32.5 -24t-34 -21t-19.5 -32.5h-55l2 13q4 24 16 37.5t25.5 22t23.5 16t10 19.5q0 18 -26 18q-17 0 -37 -9.5t-36 -29.5l-33 33q22 28 55.5 43t70.5 15z" />
    <glyph glyph-name="uni1ED0" unicode="&#x1ed0;" horiz-adv-x="773" 
d="M346 -9q-134 0 -209.5 72t-75.5 201q0 92 30.5 174t86 145.5t131 100t165.5 36.5q84 0 145.5 -34.5t94.5 -97t33 -147.5q0 -90 -29.5 -171t-83.5 -144t-127.5 -99t-160.5 -36zM353 84q66 0 119.5 28.5t92 78.5t59 113.5t20.5 132.5q0 90 -46.5 140.5t-131.5 50.5
q-68 0 -123 -29t-95 -79t-61.5 -114t-21.5 -135q0 -90 48 -138.5t140 -48.5zM600 919l148 177l98 -26l-157 -151h-89zM310 782l158 167h83l98 -167h-90l-59 105l-96 -105h-94z" />
    <glyph glyph-name="uni1ED1" unicode="&#x1ed1;" horiz-adv-x="575" 
d="M337 509q89 0 142.5 -50.5t53.5 -143.5q0 -69 -22 -127.5t-62 -102.5t-93 -69t-115 -25q-91 0 -145.5 51t-54.5 143q0 60 20 118t57.5 104.5t92.5 74t126 27.5zM251 77q57 0 98 33t63.5 85.5t22.5 111.5q0 57 -29 87t-81 30q-59 0 -100.5 -33.5t-63.5 -85.5t-22 -110
q0 -57 29.5 -87.5t82.5 -30.5zM465 710l148 177l98 -27l-157 -150h-89zM175 573l158 167h83l98 -167h-90l-59 105l-96 -105h-94z" />
    <glyph glyph-name="uni1ED2" unicode="&#x1ed2;" horiz-adv-x="773" 
d="M346 -9q-134 0 -209.5 72t-75.5 201q0 92 30.5 174t86 145.5t131 100t165.5 36.5q84 0 145.5 -34.5t94.5 -97t33 -147.5q0 -90 -29.5 -171t-83.5 -144t-127.5 -99t-160.5 -36zM353 84q66 0 119.5 28.5t92 78.5t59 113.5t20.5 132.5q0 90 -46.5 140.5t-131.5 50.5
q-68 0 -123 -29t-95 -79t-61.5 -114t-21.5 -135q0 -90 48 -138.5t140 -48.5zM319 919l-103 151l105 26l84 -177h-86zM310 782l158 167h83l98 -167h-90l-59 105l-96 -105h-94z" />
    <glyph glyph-name="uni1ED3" unicode="&#x1ed3;" horiz-adv-x="575" 
d="M337 509q89 0 142.5 -50.5t53.5 -143.5q0 -69 -22 -127.5t-62 -102.5t-93 -69t-115 -25q-91 0 -145.5 51t-54.5 143q0 60 20 118t57.5 104.5t92.5 74t126 27.5zM251 77q57 0 98 33t63.5 85.5t22.5 111.5q0 57 -29 87t-81 30q-59 0 -100.5 -33.5t-63.5 -85.5t-22 -110
q0 -57 29.5 -87.5t82.5 -30.5zM184 710l-103 150l105 27l84 -177h-86zM175 573l158 167h83l98 -167h-90l-59 105l-96 -105h-94z" />
    <glyph glyph-name="uni1ED4" unicode="&#x1ed4;" horiz-adv-x="773" 
d="M346 -9q-134 0 -209.5 72t-75.5 201q0 92 30.5 174t86 145.5t131 100t165.5 36.5q84 0 145.5 -34.5t94.5 -97t33 -147.5q0 -90 -29.5 -171t-83.5 -144t-127.5 -99t-160.5 -36zM353 84q66 0 119.5 28.5t92 78.5t59 113.5t20.5 132.5q0 90 -46.5 140.5t-131.5 50.5
q-68 0 -123 -29t-95 -79t-61.5 -114t-21.5 -135q0 -90 48 -138.5t140 -48.5zM614 919l2 14q4 23 16 36.5t25.5 22t23.5 16.5t10 20q0 17 -26 17q-18 0 -37.5 -9.5t-35.5 -29.5l-33 33q22 29 55.5 43.5t70.5 14.5q38 0 60.5 -16t22.5 -44q0 -26 -13.5 -40t-32 -23.5
t-34.5 -21.5t-20 -33h-54zM310 782l158 167h83l98 -167h-90l-59 105l-96 -105h-94z" />
    <glyph glyph-name="uni1ED5" unicode="&#x1ed5;" horiz-adv-x="575" 
d="M337 509q89 0 142.5 -50.5t53.5 -143.5q0 -69 -22 -127.5t-62 -102.5t-93 -69t-115 -25q-91 0 -145.5 51t-54.5 143q0 60 20 118t57.5 104.5t92.5 74t126 27.5zM251 77q57 0 98 33t63.5 85.5t22.5 111.5q0 57 -29 87t-81 30q-59 0 -100.5 -33.5t-63.5 -85.5t-22 -110
q0 -57 29.5 -87.5t82.5 -30.5zM479 710l2 13q4 24 16 37.5t25.5 22t23.5 16t10 19.5q0 18 -26 18q-18 0 -37.5 -9.5t-35.5 -29.5l-33 33q22 28 55.5 43t70.5 15q38 0 60.5 -16.5t22.5 -44.5q0 -25 -13.5 -39.5t-32 -24t-34.5 -21t-20 -32.5h-54zM175 573l158 167h83l98 -167
h-90l-59 105l-96 -105h-94z" />
    <glyph glyph-name="uni1ED6" unicode="&#x1ed6;" horiz-adv-x="773" 
d="M346 -9q-134 0 -209.5 72t-75.5 201q0 92 30.5 174t86 145.5t131 100t165.5 36.5q84 0 145.5 -34.5t94.5 -97t33 -147.5q0 -90 -29.5 -171t-83.5 -144t-127.5 -99t-160.5 -36zM353 84q66 0 119.5 28.5t92 78.5t59 113.5t20.5 132.5q0 90 -46.5 140.5t-131.5 50.5
q-68 0 -123 -29t-95 -79t-61.5 -114t-21.5 -135q0 -90 48 -138.5t140 -48.5zM674 1090l35 -35q-17 -42 -47 -65t-65 -23q-29 0 -57.5 13.5t-54.5 26.5t-47 13q-41 0 -65 -49l-35 34q35 89 112 89q27 0 56 -13.5t55.5 -27t46.5 -13.5q42 0 66 50zM310 782l157 162h83l99 -162
h-90l-59 101l-96 -101h-94z" />
    <glyph glyph-name="uni1ED7" unicode="&#x1ed7;" horiz-adv-x="575" 
d="M337 509q89 0 142.5 -50.5t53.5 -143.5q0 -69 -22 -127.5t-62 -102.5t-93 -69t-115 -25q-91 0 -145.5 51t-54.5 143q0 60 20 118t57.5 104.5t92.5 74t126 27.5zM251 77q57 0 98 33t63.5 85.5t22.5 111.5q0 57 -29 87t-81 30q-59 0 -100.5 -33.5t-63.5 -85.5t-22 -110
q0 -57 29.5 -87.5t82.5 -30.5zM539 880l35 -34q-17 -43 -47 -65.5t-65 -22.5q-29 0 -57.5 13t-54.5 26.5t-47 13.5q-41 0 -65 -49l-35 34q35 88 112 88q27 0 56 -13.5t55.5 -26.5t46.5 -13q42 0 66 49zM175 573l157 162h83l99 -162h-90l-59 100l-96 -100h-94z" />
    <glyph glyph-name="uni1ED8" unicode="&#x1ed8;" horiz-adv-x="773" 
d="M346 -9q-134 0 -209.5 72t-75.5 201q0 92 30.5 174t86 145.5t131 100t165.5 36.5q84 0 145.5 -34.5t94.5 -97t33 -147.5q0 -90 -29.5 -171t-83.5 -144t-127.5 -99t-160.5 -36zM353 84q66 0 119.5 28.5t92 78.5t59 113.5t20.5 132.5q0 90 -46.5 140.5t-131.5 50.5
q-68 0 -123 -29t-95 -79t-61.5 -114t-21.5 -135q0 -90 48 -138.5t140 -48.5zM316 -203q-29 0 -45.5 18.5t-16.5 43.5t17.5 43.5t45.5 18.5q30 0 47 -18.5t17 -43.5t-17.5 -43.5t-47.5 -18.5zM649 782h-87l-59 105l-97 -105h-96l158 167h83z" />
    <glyph glyph-name="uni1ED9" unicode="&#x1ed9;" horiz-adv-x="575" 
d="M337 509q89 0 142.5 -50.5t53.5 -143.5q0 -69 -22 -127.5t-62 -102.5t-93 -69t-115 -25q-91 0 -145.5 51t-54.5 143q0 60 20 118t57.5 104.5t92.5 74t126 27.5zM251 77q57 0 98 33t63.5 85.5t22.5 111.5q0 57 -29 87t-81 30q-59 0 -100.5 -33.5t-63.5 -85.5t-22 -110
q0 -57 29.5 -87.5t82.5 -30.5zM218 -203q-29 0 -45.5 18.5t-16.5 43.5t17.5 43.5t45.5 18.5q30 0 47 -18.5t17 -43.5t-17.5 -43.5t-47.5 -18.5zM514 573h-87l-59 105l-97 -105h-96l158 167h83z" />
    <glyph glyph-name="uni1EDA" unicode="&#x1eda;" horiz-adv-x="773" 
d="M346 -9q-134 0 -209.5 72t-75.5 201q0 92 30.5 174t86 145.5t131 100t165.5 36.5q84 0 145.5 -34.5t94.5 -97t33 -147.5q0 -90 -29.5 -171t-83.5 -144t-127.5 -99t-160.5 -36zM353 84q66 0 119.5 28.5t92 78.5t59 113.5t20.5 132.5q0 90 -46.5 140.5t-131.5 50.5
q-68 0 -123 -29t-95 -79t-61.5 -114t-21.5 -135q0 -90 48 -138.5t140 -48.5zM627 707q51 0 70.5 24.5t19.5 86.5l81 -7q2 -52 -16.5 -91.5t-54.5 -62t-86 -22.5h-80l-35 81q30 -5 56.5 -7t44.5 -2zM430 782l147 177l100 -26l-157 -151h-90z" />
    <glyph glyph-name="uni1EDB" unicode="&#x1edb;" horiz-adv-x="575" 
d="M337 509q89 0 142.5 -50.5t53.5 -143.5q0 -69 -22 -127.5t-62 -102.5t-93 -69t-115 -25q-91 0 -145.5 51t-54.5 143q0 60 20 118t57.5 104.5t92.5 74t126 27.5zM251 77q57 0 98 33t63.5 85.5t22.5 111.5q0 57 -29 87t-81 30q-59 0 -100.5 -33.5t-63.5 -85.5t-22 -110
q0 -57 29.5 -87.5t82.5 -30.5zM444 500q46 0 65 23.5t19 85.5l83 -7q3 -77 -40 -125.5t-119 -48.5h-48l-23 78q15 -2 33.5 -4t29.5 -2zM296 573l147 177l100 -27l-157 -150h-90z" />
    <glyph glyph-name="uni1EDC" unicode="&#x1edc;" horiz-adv-x="773" 
d="M346 -9q-134 0 -209.5 72t-75.5 201q0 92 30.5 174t86 145.5t131 100t165.5 36.5q84 0 145.5 -34.5t94.5 -97t33 -147.5q0 -90 -29.5 -171t-83.5 -144t-127.5 -99t-160.5 -36zM353 84q66 0 119.5 28.5t92 78.5t59 113.5t20.5 132.5q0 90 -46.5 140.5t-131.5 50.5
q-68 0 -123 -29t-95 -79t-61.5 -114t-21.5 -135q0 -90 48 -138.5t140 -48.5zM627 707q51 0 70.5 24.5t19.5 86.5l81 -7q2 -52 -16.5 -91.5t-54.5 -62t-86 -22.5h-80l-35 81q30 -5 56.5 -7t44.5 -2zM434 782l-104 151l109 26l85 -177h-90z" />
    <glyph glyph-name="uni1EDD" unicode="&#x1edd;" horiz-adv-x="575" 
d="M337 509q89 0 142.5 -50.5t53.5 -143.5q0 -69 -22 -127.5t-62 -102.5t-93 -69t-115 -25q-91 0 -145.5 51t-54.5 143q0 60 20 118t57.5 104.5t92.5 74t126 27.5zM251 77q57 0 98 33t63.5 85.5t22.5 111.5q0 57 -29 87t-81 30q-59 0 -100.5 -33.5t-63.5 -85.5t-22 -110
q0 -57 29.5 -87.5t82.5 -30.5zM444 500q46 0 65 23.5t19 85.5l83 -7q3 -77 -40 -125.5t-119 -48.5h-48l-23 78q15 -2 33.5 -4t29.5 -2zM300 573l-104 150l109 27l85 -177h-90z" />
    <glyph glyph-name="uni1EDE" unicode="&#x1ede;" horiz-adv-x="773" 
d="M346 -9q-134 0 -209.5 72t-75.5 201q0 92 30.5 174t86 145.5t131 100t165.5 36.5q84 0 145.5 -34.5t94.5 -97t33 -147.5q0 -90 -29.5 -171t-83.5 -144t-127.5 -99t-160.5 -36zM353 84q66 0 119.5 28.5t92 78.5t59 113.5t20.5 132.5q0 90 -46.5 140.5t-131.5 50.5
q-68 0 -123 -29t-95 -79t-61.5 -114t-21.5 -135q0 -90 48 -138.5t140 -48.5zM627 707q51 0 70.5 24.5t19.5 86.5l81 -7q2 -52 -16.5 -91.5t-54.5 -62t-86 -22.5h-80l-35 81q30 -5 56.5 -7t44.5 -2zM523 960q38 0 61 -16t23 -44q0 -26 -14 -40t-32.5 -23.5t-34 -21.5
t-19.5 -33h-55l2 14q4 23 16 36.5t25.5 22t23.5 16.5t10 20q0 17 -26 17q-17 0 -37 -9.5t-36 -29.5l-33 33q22 29 55.5 43.5t70.5 14.5z" />
    <glyph glyph-name="uni1EDF" unicode="&#x1edf;" horiz-adv-x="575" 
d="M337 509q89 0 142.5 -50.5t53.5 -143.5q0 -69 -22 -127.5t-62 -102.5t-93 -69t-115 -25q-91 0 -145.5 51t-54.5 143q0 60 20 118t57.5 104.5t92.5 74t126 27.5zM251 77q57 0 98 33t63.5 85.5t22.5 111.5q0 57 -29 87t-81 30q-59 0 -100.5 -33.5t-63.5 -85.5t-22 -110
q0 -57 29.5 -87.5t82.5 -30.5zM444 500q46 0 65 23.5t19 85.5l83 -7q3 -77 -40 -125.5t-119 -48.5h-48l-23 78q15 -2 33.5 -4t29.5 -2zM388 751q38 0 61 -16.5t23 -44.5q0 -25 -14 -39.5t-32.5 -24t-34 -21t-19.5 -32.5h-55l2 13q4 24 16 37.5t25.5 22t23.5 16t10 19.5
q0 18 -26 18q-17 0 -37 -9.5t-36 -29.5l-33 33q22 28 55.5 43t70.5 15z" />
    </font>
</defs>
</svg>
