<svg width="44" height="44" viewBox="0 0 44 44" fill="none" xmlns="http://www.w3.org/2000/svg">
<g clip-path="url(#clip0_1428_629)">
<path d="M9.16675 23.8327C9.16675 22.8602 9.55306 21.9276 10.2407 21.24C10.9283 20.5523 11.861 20.166 12.8334 20.166H31.1667C32.1392 20.166 33.0718 20.5523 33.7595 21.24C34.4471 21.9276 34.8334 22.8602 34.8334 23.8327V34.8327C34.8334 35.8051 34.4471 36.7378 33.7595 37.4254C33.0718 38.113 32.1392 38.4993 31.1667 38.4993H12.8334C11.861 38.4993 10.9283 38.113 10.2407 37.4254C9.55306 36.7378 9.16675 35.8051 9.16675 34.8327V23.8327Z" stroke="#2C3E50" stroke-width="2.75" stroke-linecap="round" stroke-linejoin="round"/>
<path d="M20.1667 29.3333C20.1667 29.8196 20.3599 30.2859 20.7037 30.6297C21.0475 30.9735 21.5139 31.1667 22.0001 31.1667C22.4863 31.1667 22.9526 30.9735 23.2964 30.6297C23.6403 30.2859 23.8334 29.8196 23.8334 29.3333C23.8334 28.8471 23.6403 28.3808 23.2964 28.037C22.9526 27.6932 22.4863 27.5 22.0001 27.5C21.5139 27.5 21.0475 27.6932 20.7037 28.037C20.3599 28.3808 20.1667 28.8471 20.1667 29.3333Z" stroke="#2C3E50" stroke-width="2.75" stroke-linecap="round" stroke-linejoin="round"/>
<path d="M14.6667 20.1667V12.8333C14.6667 10.8884 15.4394 9.02315 16.8146 7.64788C18.1899 6.27262 20.0552 5.5 22.0001 5.5C23.945 5.5 25.8103 6.27262 27.1855 7.64788C28.5608 9.02315 29.3334 10.8884 29.3334 12.8333V20.1667" stroke="#2C3E50" stroke-width="2.75" stroke-linecap="round" stroke-linejoin="round"/>
</g>
<defs>
<clipPath id="clip0_1428_629">
<rect width="44" height="44" fill="white"/>
</clipPath>
</defs>
</svg>
